<?xml version="1.0" encoding="utf-8"?>
<!-- Generator: Adobe Illustrator 24.0.3, SVG Export Plug-In . SVG Version: 6.00 Build 0)  -->
<svg version="1.1" id="Layer_1" xmlns="http://www.w3.org/2000/svg" xmlns:xlink="http://www.w3.org/1999/xlink" x="0px" y="0px"
	 viewBox="0 0 43.17 58.66" style="enable-background:new 0 0 43.17 58.66;" xml:space="preserve">
<style type="text/css">
	.st0{fill:#ED1C24;}
	.st1{fill:#FFFFFF;stroke:#FFFFFF;stroke-miterlimit:10;}
	.st2{fill:#FFFFFF;}
</style>
<g>
	<polygon class="st0" points="43.17,43.16 21.59,58.66 0,43.16 0,0 43.17,0 	"/>
	<path class="st1" d="M11.42,18.75c0-3.33-0.03-14.83,10.17-14.83c10.28,0,10.25,10.25,10.25,14.83h-6.33c0,0,0.75-9.92-3.88-9.92
		c-4.46,0-4.04,7.25-4.04,9.92H11.42z"/>
	<path class="st2" d="M10.42,21.33c0,0,0,8.5,0,11.5c0,2.73,0.5,6.58,4.83,6.58c3.08,0,8.58,0,12.08,0c4.67,0,5.42-4,5.42-6.5
		s0-11.58,0-11.58H10.42z M19.34,31.5l1.33-4.62c-0.45-0.33-0.74-0.86-0.74-1.47c0-1.01,0.82-1.83,1.83-1.83s1.83,0.82,1.83,1.83
		c0,0.6-0.3,1.14-0.75,1.47l1.58,4.61h-5.08V31.5z"/>
</g>
</svg>
