<?xml version="1.0" encoding="utf-8"?>
<!-- Generator: Adobe Illustrator 24.0.3, SVG Export Plug-In . SVG Version: 6.00 Build 0)  -->
<svg version="1.1" id="Layer_1" xmlns="http://www.w3.org/2000/svg" xmlns:xlink="http://www.w3.org/1999/xlink" x="0px" y="0px"
	 viewBox="0 0 43.17 43.17" style="enable-background:new 0 0 43.17 43.17;" xml:space="preserve">
<style type="text/css">
	.st0{fill:#00AE42;}
	.st1{fill:#FFFFFF;}
</style>
<g>
	<rect class="st0" width="43.17" height="43.17"/>
	<path class="st1" d="M12.5,14.42l5.16,2.42c1.42-2.75,4.42-11.25,8.92-9.33s-0.5,10-1.67,12.08h6.83
		c2.09-5.29,4.75-12.92-2.58-16.67C23.44-0.01,18.51,2.42,12.5,14.42z"/>
	<path class="st1" d="M10.41,22.33c0,0,0,8.5,0,11.5c0,2.73,0.5,6.58,4.83,6.58c3.08,0,8.58,0,12.08,0c4.67,0,5.42-4,5.42-6.5
		s0-11.58,0-11.58H10.41z M19.33,32.5l1.33-4.62c-0.45-0.33-0.74-0.86-0.74-1.47c0-1.01,0.82-1.83,1.83-1.83s1.83,0.82,1.83,1.83
		c0,0.6-0.3,1.14-0.75,1.47l1.58,4.61h-5.08V32.5z"/>
</g>
</svg>
