<?xml version="1.0" encoding="utf-8"?>
<!-- Generator: Adobe Illustrator 25.2.0, SVG Export Plug-In . SVG Version: 6.00 Build 0)  -->
<svg version="1.1" xmlns="http://www.w3.org/2000/svg" xmlns:xlink="http://www.w3.org/1999/xlink" x="0px" y="0px" width="225.4px"
	 height="155.4px" viewBox="0 0 225.4 155.4" style="enable-background:new 0 0 225.4 155.4;" xml:space="preserve">
<style type="text/css">
	.st0{fill:#FFFFFF;stroke:#000000;stroke-width:0.9668;stroke-miterlimit:10;}
	.st1{fill:#FFFFFF;stroke:#000000;stroke-width:0.9668;stroke-linecap:round;stroke-linejoin:round;stroke-miterlimit:10;}
	.st2{fill:none;stroke:#00AEEF;stroke-linecap:round;stroke-linejoin:round;}
	.st3{fill:none;stroke:#00AEEF;stroke-linecap:round;stroke-linejoin:round;stroke-dasharray:2.8178,2.8178;}
	.st4{fill:none;stroke:#00AEEF;stroke-width:0.5;stroke-linecap:round;stroke-linejoin:round;stroke-miterlimit:10;}
	.st5{fill:none;stroke:#00AEEF;stroke-width:0.5;stroke-linecap:round;stroke-linejoin:round;}
	.st6{fill:#00AEEF;}
	.st7{fill:#FFFFFF;stroke:#000000;stroke-width:0.3559;stroke-linecap:round;stroke-linejoin:round;stroke-miterlimit:10;}
	.st8{fill:none;stroke:#000000;stroke-width:0.3559;stroke-linecap:round;stroke-linejoin:round;stroke-miterlimit:10;}
	.st9{fill:none;stroke:#000000;stroke-width:8.896591e-02;stroke-linecap:round;stroke-linejoin:round;stroke-miterlimit:10;}
	.st10{fill:#FFFFFF;stroke:#000000;stroke-width:0.9487;stroke-miterlimit:10;}
	.st11{fill:#FFFFFF;stroke:#000000;stroke-width:0.3559;stroke-miterlimit:10;}
	.st12{fill:none;stroke:#000000;stroke-width:8.896591e-02;stroke-miterlimit:10;}
	.st13{fill:none;stroke:#000000;stroke-width:0.1779;stroke-miterlimit:10;}
	.st14{fill:#FFFFFF;stroke:#000000;stroke-width:8.896591e-02;stroke-miterlimit:10;}
	.st15{fill:none;stroke:#000000;stroke-width:0.7117;stroke-linecap:round;stroke-linejoin:round;stroke-miterlimit:10;}
	.st16{fill:#FFFFFF;stroke:#000000;stroke-width:0.9487;stroke-linecap:round;stroke-linejoin:round;stroke-miterlimit:10;}
	.st17{fill:#FFFFFF;stroke:#000000;stroke-width:0.3651;stroke-linecap:round;stroke-linejoin:round;stroke-miterlimit:10;}
	.st18{fill:none;stroke:#000000;stroke-width:9.126790e-02;stroke-linecap:round;stroke-linejoin:round;stroke-miterlimit:10;}
	.st19{fill:#FFFFFF;stroke:#000000;stroke-width:0.1779;stroke-linecap:round;stroke-linejoin:round;stroke-miterlimit:10;}
	.st20{fill:#FFFFFF;stroke:#000000;stroke-width:0.5;stroke-linecap:round;stroke-linejoin:round;stroke-miterlimit:10;}
	.st21{fill:#FFFFFF;stroke:#000000;stroke-width:8.896591e-02;stroke-linecap:round;stroke-linejoin:round;stroke-miterlimit:10;}
	.st22{fill:none;stroke:#000000;stroke-width:4.937810e-02;stroke-linecap:round;stroke-linejoin:round;stroke-miterlimit:10;}
	.st23{fill:#FFFFFF;stroke:#000000;stroke-width:0.4743;stroke-linecap:round;stroke-linejoin:round;stroke-miterlimit:10;}
	.st24{fill:none;stroke:#000000;stroke-width:2.765947e-02;stroke-miterlimit:10;}
	.st25{fill:none;stroke:#000000;stroke-width:8.297841e-02;stroke-miterlimit:10;}
	.st26{fill:none;stroke:#000000;stroke-width:9.904875e-02;stroke-miterlimit:10;}
</style>
<g id="person">
	<g>
		<rect x="210.6" y="120.8" class="st0" width="1.5" height="1.7"/>
		<polygon class="st1" points="212.8,118.7 212.8,85.7 210.1,85.7 210.1,118.6 210.1,118.6 203.8,122 205.2,123.4 209.8,120.8 
			211.3,120.8 212.8,120.8 217.5,123.4 218.8,122 		"/>
		<ellipse class="st0" cx="211.5" cy="124.4" rx="1.7" ry="2.4"/>
		<ellipse class="st0" cx="218.5" cy="124.4" rx="1.7" ry="2.4"/>
		<ellipse class="st0" cx="204.2" cy="124.4" rx="1.7" ry="2.4"/>
		<path class="st0" d="M220.2,90.4h-17.5c-0.9,0-1.6-0.7-1.6-1.6v-3.4c0-0.9,0.7-1.6,1.6-1.6h17.5c0.9,0,1.6,0.7,1.6,1.6v3.4
			C221.9,89.7,221.1,90.4,220.2,90.4z"/>
	</g>
	<path class="st1" d="M196.8,118.1l1.7-1.2l-3.4-5c0,0,0.4-16.9,0.4-18.5c0-1.6-0.5-2.7-0.9-3.1c-0.4-0.4-0.2-1.4,0.5-1.3
		c0.7,0.1,1.7-0.5,2.4-1.4c0.7-0.8,2.6-2.5,5.7-2.7c3-0.2,12.7-0.6,14.7-0.8c2-0.2,4.2-1.9,4.1-3.4c1.6,0,2.9,0.5,2.9,0
		s-3.6-12.6-3.6-12.6c0.1-4.2-0.3-16.7-0.4-19.6c-0.1-2.9-1.8-5-3-6.4c-1.3-1.4-3.8-3.8-3.8-4.8h-1c0.7-1.4,2.1-4.2,1.8-6.4
		s-1.8-5.2-5.7-5.7c-3.3-0.4-6.4,1.3-6.2,4.8c-0.4,1-0.3,2.7-0.1,3.5l-1.8,1.5l1.3,1c0,0,0.1,2,0.1,2.6s0.5,1,1.4,0.9
		c0.8-0.1,2-0.2,2.7,1.2c0.7,1.4,0.2,1.9-0.2,3.1l0.5,1.3c-0.8,2.6-3,8.8-3.9,11.2s-0.8,3.7-0.3,5.1s1,2.8,1,3.9
		c0,1-0.3,2.2-1.3,3.1c-0.9,0.9-0.4,1.5-1.2,2.1c-0.7,0.6-1.3-0.1-2.2,1c-0.9,1.1-2.3,2.3-2.3,3.6c-1.5,0.2-1.6,1.6-3.5,1.6
		c-1.9,0-2,1.2-1.9,2.6c-1.6,1-4.4,3.7-5.1,4.3c-0.7,0.6-1.5,2.1-1.2,3.9s1,5.7,0.8,10c-0.2,4.3-0.7,11.5-0.9,13.2s0.5,1.7,1.3,1.8
		s2.4,0.4,2.4,1c0,0.6-0.8,0.4-1,1.3s-0.3,1.6-0.6,2c-0.3,0.4-1.6,2.1-2.9,2.8s-3.6,1.6-2.8,3c-1.6,0.7-2.7,1.9-2.4,2.6
		s1,0.9,3.1,0.9c2.1,0,6.6-1.3,9.4-3.6c1.2-0.9,0.8-0.5,1.5-0.2c0.6,0.3,0.9-0.1,1.9-0.7c0.9-0.6,2-1.4,2.5-1.8
		S197.7,119.1,196.8,118.1z"/>
</g>
<g id="dimensions">
	<g>
		<g>
			<line class="st2" x1="194.8" y1="33.1" x2="193.3" y2="33.1"/>
			<line class="st3" x1="190.5" y1="33.1" x2="51" y2="33.1"/>
			<line class="st2" x1="49.6" y1="33.1" x2="48.2" y2="33.1"/>
		</g>
	</g>
	<line class="st4" x1="59.9" y1="0.5" x2="84.9" y2="0.5"/>
	<g>
		<path d="M70.7,20.3H66v-0.7l1.9-1.9c0.6-0.6,1-1,1.1-1.2s0.3-0.5,0.4-0.7s0.1-0.5,0.1-0.8c0-0.4-0.1-0.7-0.3-0.9s-0.6-0.3-1-0.3
			c-0.3,0-0.6,0-0.8,0.1s-0.6,0.3-0.9,0.5l-0.4-0.6c0.7-0.5,1.4-0.8,2.1-0.8c0.7,0,1.2,0.2,1.6,0.5s0.6,0.8,0.6,1.4
			c0,0.5-0.1,0.9-0.4,1.3c-0.3,0.4-0.7,1-1.4,1.7l-1.6,1.5v0h3.7V20.3z"/>
		<path d="M74.8,13.1l-2.7,7.1h-0.8l2.7-7.1H74.8z"/>
		<path d="M79.9,14.8c0,0.5-0.1,0.8-0.4,1.1c-0.3,0.3-0.6,0.5-1.1,0.6v0c0.6,0.1,1,0.3,1.3,0.5s0.4,0.7,0.4,1.2
			c0,0.7-0.2,1.2-0.7,1.6s-1.1,0.5-2,0.5c-0.4,0-0.7,0-1-0.1s-0.6-0.2-0.9-0.3v-0.8c0.3,0.2,0.6,0.3,1,0.3s0.7,0.1,1,0.1
			c1.2,0,1.9-0.5,1.9-1.5c0-0.9-0.7-1.3-2-1.3h-0.7v-0.7h0.7c0.6,0,1-0.1,1.3-0.4c0.3-0.2,0.5-0.6,0.5-1c0-0.3-0.1-0.6-0.4-0.8
			s-0.6-0.3-1-0.3c-0.3,0-0.6,0-0.9,0.1s-0.6,0.2-0.9,0.5l-0.4-0.5c0.3-0.2,0.6-0.4,1-0.5s0.8-0.2,1.2-0.2c0.7,0,1.2,0.2,1.6,0.5
			S79.9,14.3,79.9,14.8z"/>
	</g>
	<line class="st4" x1="59.9" y1="47.2" x2="84.9" y2="47.2"/>
	<g>
		<path d="M69,43.4h-0.8v-5.1c0-0.4,0-0.8,0-1.2c-0.1,0.1-0.1,0.1-0.2,0.2s-0.5,0.4-1.2,1l-0.4-0.6l1.9-1.5H69V43.4z"/>
		<path d="M74.8,36.3l-2.7,7.1h-0.8l2.7-7.1H74.8z"/>
		<path d="M79.9,38c0,0.5-0.1,0.8-0.4,1.1s-0.6,0.5-1.1,0.6v0c0.6,0.1,1,0.3,1.3,0.5s0.4,0.7,0.4,1.2c0,0.7-0.2,1.2-0.7,1.6
			s-1.1,0.5-2,0.5c-0.4,0-0.7,0-1-0.1s-0.6-0.2-0.9-0.3v-0.8c0.3,0.2,0.6,0.3,1,0.3s0.7,0.1,1,0.1c1.2,0,1.9-0.5,1.9-1.5
			c0-0.9-0.7-1.3-2-1.3h-0.7v-0.7h0.7c0.6,0,1-0.1,1.3-0.4s0.5-0.6,0.5-1c0-0.3-0.1-0.6-0.4-0.8s-0.6-0.3-1-0.3
			c-0.3,0-0.6,0-0.9,0.1s-0.6,0.2-0.9,0.5L75.4,37c0.3-0.2,0.6-0.4,1-0.5s0.8-0.2,1.2-0.2c0.7,0,1.2,0.2,1.6,0.5S79.9,37.4,79.9,38z
			"/>
	</g>
	<g>
		<g>
			<line class="st5" x1="72.4" y1="11.1" x2="72.4" y2="4.9"/>
			<g>
				<polygon class="st6" points="73.9,5.9 72.4,0.5 70.9,5.9 				"/>
			</g>
		</g>
	</g>
	<g>
		<g>
			<line class="st5" x1="72.4" y1="22.5" x2="72.4" y2="28.6"/>
			<g>
				<polygon class="st6" points="70.9,27.6 72.4,33 73.9,27.6 				"/>
			</g>
		</g>
	</g>
	<g>
		<g>
			<line class="st5" x1="72.4" y1="57.8" x2="72.4" y2="51.6"/>
			<g>
				<polygon class="st6" points="73.9,52.6 72.4,47.2 70.9,52.6 				"/>
			</g>
		</g>
	</g>
	<polyline class="st4" points="53.4,33.4 53.4,38 48.2,38 	"/>
</g>
<g id="ngenuity">
	<g>
		<g>
			<g>
				<path class="st7" d="M34.5,30.6v4H35c0,0,0,0.6,0,0.9c0,0.3,0.5,0.6,1,0.6c0.6,0,0.8-0.2,0.8-0.4c0.3,0,0.8,0,0.8-0.6v-4.5v-4.5
					c0-0.5-0.5-0.6-0.8-0.6c0-0.2-0.3-0.4-0.8-0.4c-0.6,0-1,0.3-1,0.6c0,0.3,0,0.9,0,0.9h-0.5V30.6z"/>
				
					<rect x="35.6" y="36.1" transform="matrix(-1 -4.465462e-11 4.465462e-11 -1 72.0333 73.3225)" class="st8" width="0.8" height="1.1"/>
				<line class="st9" x1="35" y1="35.2" x2="37.7" y2="35.2"/>
				<line class="st9" x1="37.7" y1="26.1" x2="35" y2="26.1"/>
				<line class="st9" x1="36.9" y1="25.5" x2="36.9" y2="35.7"/>
				<line class="st9" x1="36" y1="26.1" x2="36" y2="35.2"/>
				<line class="st9" x1="35.4" y1="26.1" x2="35.4" y2="35.2"/>
			</g>
			<g>
				<path class="st7" d="M39.4,31.5c0,0,0,1.8,0,2.1c0,0.3-0.2,0.6-0.5,0.6s-1.2,0-1.7,0c-0.5,0-1,0.1-1,0.8c0,0.8,0.4,0.9,1.4,1.3
					s1.5,1.4,1.7,2.1c0.2,0.7,1.1,1,1.5,1v-7.9V23c-0.4,0-1.3,0.3-1.5,1c-0.2,0.7-0.7,1.7-1.7,2.1c-0.9,0.4-1.4,0.5-1.4,1.3
					c0,0.7,0.5,0.8,1,0.8c0.4,0,1.3,0,1.7,0s0.5,0.2,0.5,0.6C39.4,29.2,39.4,31.5,39.4,31.5z"/>
				<circle class="st9" cx="37.1" cy="27.3" r="0.4"/>
				<circle class="st9" cx="37.1" cy="35.1" r="0.4"/>
			</g>
			
				<rect x="40.7" y="27.8" transform="matrix(-1 -4.486201e-11 4.486201e-11 -1 82.6609 62.3568)" class="st7" width="1.2" height="6.7"/>
		</g>
		
			<rect x="41.8" y="16.4" transform="matrix(-1 -4.393031e-11 4.393031e-11 -1 84.3806 66.1634)" class="st7" width="0.9" height="33.3"/>
		
			<rect x="42.6" y="19.1" transform="matrix(-1 -4.436330e-11 4.436330e-11 -1 86.9312 62.5114)" class="st7" width="1.7" height="24.4"/>
		<g>
			
				<rect x="47.3" y="48.9" transform="matrix(-1 -4.492907e-11 4.492907e-11 -1 101.3654 98.6451)" class="st7" width="6.8" height="0.9"/>
			<line class="st8" x1="47.3" y1="49.7" x2="41.8" y2="49.7"/>
		</g>
		<path class="st10" d="M9.2,116.2h17.4c0.2,0,0.3-0.2,0.3-0.3V56.1c0-0.2-0.2-0.3-0.3-0.3H9.2c-0.2,0-0.3,0.2-0.3,0.3v59.8
			C8.8,116.1,9,116.2,9.2,116.2z"/>
		<path class="st11" d="M9.2,116.2h17.4c0.2,0,0.4,0.2,0.4,0.4v5.1c0,0.2-0.2,0.4-0.4,0.4H9.2c-0.2,0-0.4-0.2-0.4-0.4v-5.1
			C8.8,116.4,9,116.2,9.2,116.2z"/>
		<line class="st12" x1="26.9" y1="66.7" x2="8.8" y2="66.7"/>
		<line class="st12" x1="26.9" y1="102.8" x2="8.8" y2="102.8"/>
		<line class="st12" x1="26.9" y1="106.4" x2="8.8" y2="106.4"/>
		<path class="st13" d="M13,101.5h9.7c0.4,0,0.7-0.3,0.7-0.7V84.1c0-0.4-0.3-0.7-0.7-0.7H13c-0.4,0-0.7,0.3-0.7,0.7v16.7
			C12.3,101.1,12.6,101.5,13,101.5z"/>
		<line class="st12" x1="26.9" y1="120.2" x2="8.8" y2="120.2"/>
		<line class="st12" x1="26.9" y1="57.6" x2="8.8" y2="57.6"/>
		<g>
			<g>
				<g>
					<path class="st12" d="M14.4,74.6c0-0.4,0.3-0.7,0.7-0.7h5.2c0.4,0,0.7,0.3,0.7,0.7v0L14.4,74.6L14.4,74.6z"/>
				</g>
				<line class="st12" x1="20.4" y1="73.9" x2="20.4" y2="74.6"/>
				<line class="st12" x1="15.1" y1="73.9" x2="15.1" y2="74.6"/>
			</g>
			<g>
				<path class="st12" d="M14.4,78.2c0-0.4,0.3-0.7,0.7-0.7h5.2c0.4,0,0.7,0.3,0.7,0.7v0L14.4,78.2L14.4,78.2z"/>
				<line class="st12" x1="20.4" y1="77.5" x2="20.4" y2="78.2"/>
				<line class="st12" x1="15.1" y1="77.5" x2="15.1" y2="78.2"/>
			</g>
			<g>
				<path class="st12" d="M14.4,81.8c0-0.4,0.3-0.7,0.7-0.7h5.2c0.4,0,0.7,0.3,0.7,0.7v0L14.4,81.8L14.4,81.8z"/>
				<line class="st12" x1="20.4" y1="81.1" x2="20.4" y2="81.9"/>
				<line class="st12" x1="15.1" y1="81.1" x2="15.1" y2="81.9"/>
			</g>
			<g>
				<path class="st12" d="M14.4,85.4c0-0.4,0.3-0.7,0.7-0.7h5.2c0.4,0,0.7,0.3,0.7,0.7v0L14.4,85.4L14.4,85.4z"/>
				<line class="st12" x1="20.4" y1="84.7" x2="20.4" y2="85.5"/>
				<line class="st12" x1="15.1" y1="84.7" x2="15.1" y2="85.5"/>
			</g>
			<g>
				<path class="st12" d="M14.4,89.1c0-0.4,0.3-0.7,0.7-0.7h5.2c0.4,0,0.7,0.3,0.7,0.7v0L14.4,89.1L14.4,89.1z"/>
				<line class="st12" x1="20.4" y1="88.4" x2="20.4" y2="89.1"/>
				<line class="st12" x1="15.1" y1="88.4" x2="15.1" y2="89.1"/>
			</g>
			<g>
				<path class="st12" d="M14.4,92.7c0-0.4,0.3-0.7,0.7-0.7h5.2c0.4,0,0.7,0.3,0.7,0.7v0L14.4,92.7L14.4,92.7z"/>
				<line class="st12" x1="20.4" y1="92" x2="20.4" y2="92.7"/>
				<line class="st12" x1="15.1" y1="92" x2="15.1" y2="92.7"/>
			</g>
			<g>
				<g>
					<path class="st12" d="M14.4,96.3c0-0.4,0.3-0.7,0.7-0.7h5.2c0.4,0,0.7,0.3,0.7,0.7v0L14.4,96.3L14.4,96.3z"/>
				</g>
				<line class="st12" x1="20.4" y1="95.6" x2="20.4" y2="96.3"/>
				<line class="st12" x1="15.1" y1="95.6" x2="15.1" y2="96.3"/>
			</g>
		</g>
		<g>
			<g>
				
					<rect x="7" y="67.8" transform="matrix(-1 -4.554991e-11 4.554991e-11 -1 15.8617 139.5517)" class="st11" width="1.8" height="4"/>
				<line class="st14" x1="8.8" y1="68.4" x2="7" y2="68.4"/>
				<line class="st14" x1="8.8" y1="71.1" x2="7" y2="71.1"/>
			</g>
			<g>
				
					<rect x="7" y="93.6" transform="matrix(-1 -4.352575e-11 4.352575e-11 -1 15.8617 191.2017)" class="st11" width="1.8" height="4"/>
				<line class="st14" x1="8.8" y1="94.2" x2="7" y2="94.2"/>
				<line class="st14" x1="8.8" y1="96.9" x2="7" y2="96.9"/>
			</g>
			<line class="st15" x1="7" y1="65.3" x2="7" y2="100.1"/>
		</g>
		<g>
			<g>
				
					<rect x="7" y="109.1" transform="matrix(-1 -4.554991e-11 4.554991e-11 -1 15.8617 223.3163)" class="st11" width="1.8" height="5.1"/>
				<line class="st9" x1="8.8" y1="110.2" x2="7" y2="110.2"/>
				<line class="st9" x1="8.8" y1="113" x2="7" y2="113"/>
			</g>
			<line class="st15" x1="7" y1="105.6" x2="7" y2="117.6"/>
		</g>
		
			<rect x="7.9" y="99.4" transform="matrix(-1 -4.656243e-11 4.656243e-11 -1 16.7602 199.5202)" class="st7" width="0.9" height="0.7"/>
		<g>
			<path class="st16" d="M26.9,114.9h15.5c0-4.2-2.9-8.9-7.8-9.7V26.3c0-0.4-0.2-0.7-0.7-0.7c-0.6,0-5.7,0-6.2,0S27,26,27,26.4
				C27,26.7,26.9,114.9,26.9,114.9z"/>
			<line class="st8" x1="34.7" y1="105.2" x2="34.7" y2="114.9"/>
			<line class="st9" x1="31.7" y1="114.9" x2="31.7" y2="26.3"/>
			<line class="st9" x1="34.7" y1="26.3" x2="27" y2="26.3"/>
			<path class="st9" d="M34,25.6c0.3,0.3,0.4,0.5,0.4,0.7c0,0.3,0,88.6,0,88.6"/>
			<path class="st9" d="M27.7,25.6c-0.2,0.2-0.3,0.4-0.3,0.7s0,88.6,0,88.6"/>
			<line class="st9" x1="30.8" y1="26.3" x2="30.8" y2="114.9"/>
			<line class="st9" x1="29.4" y1="26.3" x2="29.4" y2="114.9"/>
			<path class="st9" d="M34.7,26c-0.1,0.1-0.3,0.1-0.4,0.1s-6.7,0-6.9,0c-0.1,0-0.3,0-0.4-0.1"/>
		</g>
		<g>
			
				<rect x="26.9" y="114.9" transform="matrix(-1 -4.503254e-11 4.503254e-11 -1 69.3914 237.3737)" class="st17" width="15.5" height="7.6"/>
			<path class="st18" d="M29,114.9c0,0.1,0,7.6,0,7.6"/>
			<line class="st18" x1="28.1" y1="114.9" x2="28.1" y2="122.5"/>
			<line class="st9" x1="28.1" y1="119.5" x2="26.9" y2="119.5"/>
			<polyline class="st18" points="34,122.5 34,119.5 36,119.5 			"/>
			<line class="st18" x1="36" y1="122.5" x2="36" y2="114.9"/>
			<line class="st9" x1="35" y1="114.9" x2="35" y2="119.5"/>
			<line class="st9" x1="34.7" y1="119.5" x2="34.7" y2="114.9"/>
			<line class="st18" x1="36.9" y1="114.9" x2="36.9" y2="122.5"/>
		</g>
		<g>
			<path class="st19" d="M48.7,116h0.8c0.1,0,0.2-0.1,0.2-0.2l0,0c0-0.1-0.1-0.2-0.2-0.2h-0.8c-0.1,0-0.2,0.1-0.2,0.2l0,0
				C48.5,115.9,48.6,116,48.7,116z"/>
			
				<rect x="48.8" y="116" transform="matrix(-1 -4.776547e-11 4.776547e-11 -1 98.2353 232.3256)" class="st19" width="0.6" height="0.3"/>
		</g>
		<g>
			<g>
				<polyline class="st7" points="31.9,123.4 31.9,124.1 31.5,124.4 30.9,124.4 30.5,124.2 30.5,123.4 				"/>
				<line class="st9" x1="31.6" y1="123.4" x2="31.6" y2="124.4"/>
				<line class="st9" x1="30.9" y1="124.4" x2="30.9" y2="123.4"/>
			</g>
			<g>
				<polyline class="st7" points="26,123.2 26,123.9 25.6,124.3 25,124.3 24.6,124.1 24.6,123.2 				"/>
				<line class="st9" x1="25.7" y1="123.2" x2="25.7" y2="124.3"/>
				<line class="st9" x1="25" y1="124.3" x2="25" y2="123.2"/>
			</g>
			<g>
				<polyline class="st7" points="19.9,123.4 19.9,124.1 19.6,124.4 19,124.4 18.6,124.2 18.6,123.4 				"/>
				<line class="st9" x1="19.6" y1="123.4" x2="19.6" y2="124.4"/>
				<line class="st9" x1="19" y1="124.4" x2="19" y2="123.4"/>
			</g>
		</g>
		<g>
			<path class="st20" d="M49.5,114.8c-0.8,0-9.7,0-10.5,0c-1.2,0-1.8,0.8-1.8,2.6c0,1.6,0,2.6,0,3.5s-0.4,1.6-1.1,1.6
				c-0.7,0-21.1,0-21.7,0s-1.2-0.8-1.2-1.5c0-0.8,0-2.7,0-3.7s-0.3-2.5-1.8-2.5s-10,0-10.4,0s-0.8-0.1-0.8,0.4
				c0,0.4,0.2,0.4,0.8,0.4c0.7,0,6.4,0,6.4,0c0.6,0.3,0.7,0.9,0.7,1.8c0,0.8,0,2.7,0,3.5s0.2,2.5,1.9,2.5s27.9,0,29.3,0
				s3.3-0.8,3.3-2.4c0-1.6,0-2.9,0-3.7c0-0.8,0.2-1.7,2.3-1.7c2.1,0,3.9,0,4.7,0c0.7,0,0.8,0.1,0.8-0.4
				C50.3,114.7,50.1,114.8,49.5,114.8z"/>
			<path class="st8" d="M7.4,115.5c1,0,3.7,0,4.1,0c0.7,0,1.2,0.7,1.2,1.7c0,1,0,3.1,0,3.7c0,0.9,0.2,2.4,1.9,2.4"/>
			<path class="st8" d="M36,123.4c1.6-0.3,1.9-1.4,1.9-2.4c0-0.8,0-2.7,0-3.7s0.2-1.7,1.2-1.7s4.6,0,5.8,0"/>
			<line class="st9" x1="49.5" y1="114.8" x2="49.5" y2="115.6"/>
			<line class="st9" x1="48.3" y1="114.8" x2="48.3" y2="115.6"/>
			<line class="st9" x1="44.8" y1="114.7" x2="44.8" y2="115.5"/>
			<line class="st9" x1="39" y1="114.8" x2="39" y2="115.6"/>
			<polyline class="st9" points="42.5,117.3 37.9,117.3 37.2,117.3 			"/>
			<line class="st9" x1="37.2" y1="120.9" x2="42.5" y2="120.9"/>
			<line class="st9" x1="36" y1="122.5" x2="36" y2="123.4"/>
			<line class="st9" x1="14.5" y1="122.5" x2="14.5" y2="123.4"/>
			<line class="st9" x1="13.3" y1="120.9" x2="8" y2="120.9"/>
			<line class="st9" x1="13.3" y1="117.3" x2="8" y2="117.3"/>
			<line class="st9" x1="11.5" y1="114.8" x2="11.5" y2="115.5"/>
			<path class="st9" d="M5.6,114.8"/>
			<line class="st9" x1="5.6" y1="114.8" x2="5.6" y2="115.5"/>
			<line class="st9" x1="2.1" y1="114.8" x2="2.1" y2="115.5"/>
			<line class="st9" x1="1" y1="114.8" x2="1" y2="115.5"/>
		</g>
		<g>
			<path class="st19" d="M43.6,116h0.8c0.1,0,0.2-0.1,0.2-0.2l0,0c0-0.1-0.1-0.2-0.2-0.2h-0.8c-0.1,0-0.2,0.1-0.2,0.2l0,0
				C43.4,115.9,43.4,116,43.6,116z"/>
			
				<rect x="43.6" y="116" transform="matrix(-1 -4.776547e-11 4.776547e-11 -1 87.8695 232.3728)" class="st19" width="0.6" height="0.3"/>
		</g>
		<g>
			<g>
				<g>
					<path class="st20" d="M49.7,120.8c0.1-0.8,0.2-1.7,0.2-2.1c-0.5-0.1-1.6,0-2.1,0.1"/>
					<path class="st20" d="M45.8,118.9c-0.6-0.1-1.5-0.2-1.9-0.1c0,0.5,0,1.3,0.3,2.1"/>
					<path class="st20" d="M44.2,124.3c-0.2,0.7-0.2,1.5-0.2,2c0.3,0.1,1.3,0,1.7-0.2"/>
					<path class="st20" d="M49.7,124.3c0.2,0.4,0.4,1.6,0.3,2c-0.6,0.2-1.6,0.2-2.3,0"/>
					<ellipse class="st20" cx="47" cy="122.6" rx="3" ry="3.9"/>
					<ellipse class="st9" cx="47" cy="122.5" rx="1.4" ry="1.6"/>
					<path class="st21" d="M49.4,122.4h-1.1c-0.3,0-0.5,0.1-0.9,0.1l-1.9,0h-1.3l0,0.2h5.2"/>
					<path class="st21" d="M47.2,126v-1.9c-0.2-0.2-0.3-0.3-0.4-0.6l-0.1-2.1c0.1-0.2,0.2-0.3,0.5-0.4v-1.9h-0.6v7"/>
					<line class="st9" x1="46.8" y1="121.4" x2="46.8" y2="123.5"/>
					<ellipse class="st19" cx="46.6" cy="122.4" rx="0.9" ry="1.1"/>
					<ellipse class="st9" cx="46.8" cy="122.6" rx="2.6" ry="3.5"/>
				</g>
			</g>
			<g>
				<path class="st7" d="M48.1,115.6c-0.4,0.2-0.7,0.5-0.7,0.8h-1.9c0-0.3-0.3-0.7-0.7-0.8H48.1z"/>
				<g>
					<path class="st20" d="M44.7,122.2c0,0,0-5.3,0-5.5s0.2-0.4,0.4-0.4s2.5,0,2.7,0c0.3,0,0.5,0.1,0.5,0.4v5.5
						c0,2.7-1.1,4.2-3.4,4.2h-2.2v-2.7h1.9V122.2z"/>
					<line class="st9" x1="48.4" y1="116.7" x2="44.7" y2="116.7"/>
					<line class="st9" x1="48.4" y1="117" x2="44.7" y2="117"/>
					<path class="st9" d="M47.8,116.3c0.1,0.2,0.1,0.2,0.1,0.4s0,5.5,0,5.5c0,1.2-0.3,3.6-3,3.6s-2.2,0-2.2,0"/>
					<path class="st9" d="M45.1,116.3c-0.2,0.2-0.1,0.2-0.1,0.4s0,9.7,0,9.7"/>
				</g>
			</g>
			<g>
				<path class="st7" d="M43.6,118.7c1.9,0.5,3.1,1.5,3.1,3.8c0,2.6-1.2,3.4-2.3,3.7"/>
				<path class="st9" d="M42.9,118.6c1.9,0.5,3.1,1.5,3.1,3.8c0,2.6-1.2,3.4-2.3,3.7"/>
				<g>
					<path class="st20" d="M45.1,120.7c0.1-0.8,0.2-1.7,0.2-2.1c-0.5-0.1-1.6,0-2.1,0.1"/>
					<path class="st20" d="M41.3,118.9c-0.6-0.1-1.5-0.2-1.9-0.1c0,0.5,0,1.3,0.3,2.1"/>
					<path class="st20" d="M39.7,124.3c-0.2,0.7-0.2,1.5-0.2,2c0.3,0.1,1.3,0,1.7-0.2"/>
					<path class="st20" d="M45.1,124.3c0.2,0.4,0.4,1.6,0.3,2c-0.6,0.2-1.6,0.2-2.3,0"/>
					<ellipse class="st20" cx="42.4" cy="122.5" rx="3" ry="3.9"/>
					<ellipse class="st9" cx="42.4" cy="122.5" rx="1.4" ry="1.6"/>
					<path class="st21" d="M44.9,122.3h-1.1c-0.3,0-0.5,0.1-0.9,0.1l-1.9,0h-1.3l0,0.2h5.2"/>
					<path class="st21" d="M42.7,126v-1.9c-0.2-0.2-0.3-0.3-0.4-0.6l-0.1-2.1c0.1-0.2,0.2-0.3,0.5-0.4v-1.9h-0.6v7"/>
					<line class="st9" x1="42.2" y1="121.4" x2="42.3" y2="123.5"/>
					<ellipse class="st19" cx="42.1" cy="122.4" rx="0.9" ry="1.1"/>
					<ellipse class="st9" cx="42.3" cy="122.5" rx="2.6" ry="3.5"/>
				</g>
			</g>
		</g>
		<g>
			<g>
				<g>
					<path class="st20" d="M0.6,120.8c-0.1-0.8-0.2-1.7-0.2-2.1c0.5-0.1,1.6,0,2.1,0.1"/>
					<path class="st7" d="M4.5,118.9c0.6-0.1,1.5-0.2,1.9-0.1c0,0.5,0,1.3-0.3,2.1"/>
					<path class="st7" d="M6.1,124.3c0.2,0.7,0.2,1.5,0.2,2c-0.3,0.1-1.3,0-1.7-0.2"/>
					<path class="st20" d="M0.6,124.3c-0.2,0.4-0.4,1.6-0.3,2c0.6,0.2,1.6,0.2,2.3,0"/>
					<ellipse class="st20" cx="3.3" cy="122.6" rx="3" ry="3.9"/>
					<ellipse class="st9" cx="3.4" cy="122.5" rx="1.4" ry="1.6"/>
					<path class="st21" d="M0.9,122.4h1.1c0.3,0,0.5,0.1,0.9,0.1l1.9,0h1.3l0,0.2H0.9"/>
					<path class="st21" d="M3.1,126v-1.9c0.2-0.2,0.3-0.3,0.4-0.6l0.1-2.1c-0.1-0.2-0.2-0.3-0.5-0.4v-1.9h0.6v7"/>
					<line class="st9" x1="3.6" y1="121.4" x2="3.5" y2="123.5"/>
					<ellipse class="st19" cx="3.7" cy="122.5" rx="0.9" ry="1.1"/>
					<ellipse class="st9" cx="3.5" cy="122.6" rx="2.6" ry="3.5"/>
				</g>
			</g>
			<g>
				<path class="st7" d="M2.2,115.6c0.4,0.2,0.7,0.5,0.7,0.8h1.9c0-0.3,0.3-0.7,0.7-0.8H2.2z"/>
				<g>
					<path class="st20" d="M5.6,122.2c0,0,0-5.3,0-5.5s-0.2-0.4-0.4-0.4s-2.5,0-2.7,0c-0.3,0-0.5,0.1-0.5,0.4v5.5
						c0,2.7,1.1,4.2,3.4,4.2h2.2v-2.7H5.6V122.2z"/>
					<line class="st9" x1="1.9" y1="116.7" x2="5.6" y2="116.7"/>
					<line class="st9" x1="1.9" y1="117" x2="5.6" y2="117"/>
					<path class="st9" d="M2.5,116.3c-0.1,0.2-0.1,0.2-0.1,0.4s0,5.5,0,5.5c0,1.2,0.3,3.6,3,3.6s2.2,0,2.2,0"/>
					<path class="st9" d="M5.2,116.3c0.2,0.2,0.1,0.2,0.1,0.4s0,9.7,0,9.7"/>
				</g>
			</g>
			<g>
				<path class="st7" d="M6.7,118.7c-1.9,0.5-3.1,1.5-3.1,3.8c0,2.6,1.2,3.4,2.3,3.7"/>
				<path class="st9" d="M7.4,118.7c-1.9,0.5-3.1,1.5-3.1,3.8c0,2.6,1.2,3.4,2.3,3.7"/>
				<g>
					<path class="st20" d="M5.2,120.7C5,120,5,119,5,118.6c0.5-0.1,1.6,0,2.1,0.1"/>
					<path class="st20" d="M9,118.9c0.6-0.1,1.5-0.2,1.9-0.1c0,0.5,0,1.3-0.3,2.1"/>
					<path class="st20" d="M10.6,124.3c0.2,0.7,0.2,1.5,0.2,2c-0.3,0.1-1.3,0-1.7-0.2"/>
					<path class="st20" d="M5.2,124.3c-0.2,0.4-0.4,1.6-0.3,2c0.6,0.2,1.6,0.2,2.3,0"/>
					<ellipse class="st20" cx="7.9" cy="122.6" rx="3" ry="3.9"/>
					<ellipse class="st9" cx="7.9" cy="122.5" rx="1.4" ry="1.6"/>
					<path class="st21" d="M5.4,122.3h1.1c0.3,0,0.5,0.1,0.9,0.1l1.9,0h1.3l0,0.2H5.4"/>
					<path class="st21" d="M7.6,126v-1.9c0.2-0.2,0.3-0.3,0.4-0.6l0.1-2.1c-0.1-0.2-0.2-0.3-0.5-0.4v-1.9h0.6v7"/>
					<line class="st9" x1="8.1" y1="121.4" x2="8" y2="123.5"/>
					<ellipse class="st19" cx="8.3" cy="122.4" rx="0.9" ry="1.1"/>
					<ellipse class="st9" cx="8" cy="122.6" rx="2.6" ry="3.5"/>
				</g>
			</g>
		</g>
		<g>
			<path class="st19" d="M29.9,65.5h2.4c0.2,0,0.4-0.2,0.4-0.4v-10c0-0.2-0.2-0.4-0.4-0.4h-2.4c-0.2,0-0.4,0.2-0.4,0.4v10
				C29.6,65.3,29.7,65.5,29.9,65.5z"/>
			<g>
				<g>
					<circle class="st9" cx="31.1" cy="56" r="0.6"/>
					<circle class="st22" cx="31.1" cy="56" r="0.4"/>
				</g>
				<g>
					<circle class="st9" cx="31.1" cy="58" r="0.6"/>
					<circle class="st22" cx="31.1" cy="58" r="0.4"/>
				</g>
				<g>
					<circle class="st9" cx="31.1" cy="60.1" r="0.6"/>
					<circle class="st22" cx="31.1" cy="60.1" r="0.4"/>
				</g>
				<g>
					<circle class="st9" cx="31.1" cy="62.1" r="0.6"/>
					<circle class="st22" cx="31.1" cy="62.1" r="0.4"/>
				</g>
				<g>
					<circle class="st9" cx="31.1" cy="64.2" r="0.6"/>
					<circle class="st22" cx="31.1" cy="64.2" r="0.4"/>
				</g>
			</g>
		</g>
		<g>
			<circle class="st21" cx="31.1" cy="60.1" r="1.1"/>
			<path class="st23" d="M4.8,61h26.3c0.5,0,0.8-0.4,0.8-0.8l0,0c0-0.5-0.4-0.8-0.8-0.8H4.8c-0.5,0-0.8,0.4-0.8,0.8l0,0
				C4,60.6,4.3,61,4.8,61z"/>
			<line class="st9" x1="26.9" y1="59.3" x2="26.9" y2="61"/>
			<line class="st9" x1="8.8" y1="59.3" x2="8.8" y2="61"/>
		</g>
		<path class="st13" d="M22.1,99.8h-8.4c-0.2,0-0.4-0.2-0.4-0.4v-0.9c0-0.2,0.2-0.4,0.4-0.4h8.4c0.2,0,0.4,0.2,0.4,0.4v0.9
			C22.5,99.6,22.3,99.8,22.1,99.8z"/>
		<g>
			<g>
				<rect x="17.4" y="98.5" class="st24" width="0.6" height="0.2"/>
				<line class="st25" x1="17.5" y1="98.6" x2="17.9" y2="98.6"/>
			</g>
			<circle cx="20.1" cy="99" r="0.1"/>
			<circle cx="20.4" cy="99" r="0.1"/>
			<circle cx="20.7" cy="99" r="0.2"/>
			<g>
				<rect x="17.4" y="98.9" class="st24" width="0.6" height="0.2"/>
				<line class="st25" x1="17.5" y1="99" x2="17.9" y2="99"/>
			</g>
			<g>
				<rect x="18.3" y="98.5" class="st24" width="0.6" height="0.2"/>
				<line class="st25" x1="18.4" y1="98.6" x2="18.9" y2="98.6"/>
			</g>
			<g>
				<rect x="18.3" y="98.9" class="st24" width="0.6" height="0.2"/>
				<line class="st25" x1="18.4" y1="98.9" x2="18.9" y2="98.9"/>
			</g>
			<polyline class="st24" points="22.2,98.2 22.2,99.6 13.6,99.6 13.6,98.2 			"/>
		</g>
		<g>
			<path class="st13" d="M11.6,109.2h-0.7c-0.4,0-0.7-0.3-0.7-0.7v-0.7c0-0.4,0.3-0.7,0.7-0.7h0.7c0.4,0,0.7,0.3,0.7,0.7v0.7
				C12.3,108.9,12,109.2,11.6,109.2z"/>
			<path class="st12" d="M11.4,108.8H11c-0.1,0-0.2-0.1-0.2-0.2v-0.8c0-0.1,0.1-0.2,0.2-0.2h0.5c0.1,0,0.2,0.1,0.2,0.2v0.8
				C11.6,108.7,11.5,108.8,11.4,108.8z"/>
			<rect x="11" y="107.7" class="st26" width="0.5" height="0.9"/>
			<line class="st12" x1="11" y1="108.2" x2="11.5" y2="108.2"/>
		</g>
		<g>
			<path class="st16" d="M45,47.2H47c0.4,0,0.7-0.3,0.7-0.7V1.2c0-0.4-0.3-0.7-0.7-0.7H45c-0.4,0-0.7,0.3-0.7,0.7v45.3
				C44.3,46.9,44.6,47.2,45,47.2z"/>
			<line class="st9" x1="47.7" y1="45.5" x2="44.3" y2="45.5"/>
			<line class="st9" x1="47.7" y1="46.5" x2="44.3" y2="46.5"/>
			<line class="st9" x1="47.7" y1="2.2" x2="44.3" y2="2.2"/>
			<line class="st9" x1="47.7" y1="1.2" x2="44.3" y2="1.2"/>
		</g>
	</g>
</g>
<g id="distance">
	<line class="st4" x1="48.1" y1="155.2" x2="48.1" y2="130.2"/>
	<line class="st4" x1="203" y1="155.2" x2="203" y2="130.2"/>
	<g>
		<path d="M94.6,142.7h-0.8v-5.1c0-0.4,0-0.8,0-1.2c-0.1,0.1-0.1,0.1-0.2,0.2s-0.5,0.4-1.2,1L92,137l1.9-1.5h0.7V142.7z"/>
		<path d="M97.5,142.2c0-0.2,0-0.4,0.1-0.5c0.1-0.1,0.2-0.2,0.4-0.2c0.2,0,0.3,0.1,0.4,0.2c0.1,0.1,0.2,0.3,0.2,0.5
			c0,0.2-0.1,0.4-0.2,0.5s-0.3,0.2-0.4,0.2c-0.2,0-0.3-0.1-0.4-0.2C97.6,142.6,97.5,142.4,97.5,142.2z"/>
		<path d="M104.6,142.7H100V142l1.9-1.9c0.6-0.6,1-1,1.1-1.2s0.3-0.5,0.4-0.7s0.1-0.5,0.1-0.8c0-0.4-0.1-0.7-0.3-0.9
			c-0.2-0.2-0.6-0.3-1-0.3c-0.3,0-0.6,0-0.8,0.1s-0.6,0.3-0.9,0.5l-0.4-0.6c0.7-0.5,1.4-0.8,2.1-0.8c0.7,0,1.2,0.2,1.6,0.5
			c0.4,0.3,0.6,0.8,0.6,1.4c0,0.5-0.1,0.9-0.4,1.3s-0.7,1-1.4,1.7l-1.6,1.5v0h3.7V142.7z"/>
		<path d="M115.5,142.7v-3.5c0-0.4-0.1-0.7-0.3-1c-0.2-0.2-0.5-0.3-0.8-0.3c-0.5,0-0.9,0.1-1.1,0.4s-0.4,0.7-0.4,1.3v3H112v-3.5
			c0-0.4-0.1-0.7-0.3-1c-0.2-0.2-0.5-0.3-0.9-0.3c-0.5,0-0.9,0.2-1.1,0.5c-0.2,0.3-0.4,0.8-0.4,1.5v2.8h-0.8v-5.4h0.7l0.1,0.7h0
			c0.2-0.3,0.4-0.5,0.6-0.6s0.6-0.2,0.9-0.2c0.8,0,1.4,0.3,1.6,0.9h0c0.2-0.3,0.4-0.5,0.7-0.7s0.6-0.2,1-0.2c0.6,0,1.1,0.2,1.4,0.5
			c0.3,0.3,0.5,0.8,0.5,1.5v3.5H115.5z"/>
		<path d="M122.3,142.1c0.1,0,0.3,0,0.4,0c0.1,0,0.2,0,0.3-0.1v0.6c-0.1,0-0.2,0.1-0.4,0.1c-0.2,0-0.3,0-0.5,0c-1,0-1.6-0.5-1.6-1.6
			V138h-0.8v-0.4l0.8-0.3l0.3-1.1h0.5v1.2h1.6v0.6h-1.6v3.1c0,0.3,0.1,0.6,0.2,0.7S122,142.1,122.3,142.1z"/>
		<path d="M128.7,140c0,0.9-0.2,1.6-0.7,2c-0.4,0.5-1,0.7-1.8,0.7c-0.5,0-0.9-0.1-1.3-0.3s-0.7-0.5-0.9-1s-0.3-0.9-0.3-1.5
			c0-0.9,0.2-1.6,0.7-2c0.4-0.5,1-0.7,1.8-0.7c0.7,0,1.3,0.2,1.8,0.7C128.5,138.5,128.7,139.1,128.7,140z M124.6,140
			c0,0.7,0.1,1.2,0.4,1.6s0.7,0.5,1.2,0.5s0.9-0.2,1.2-0.5c0.3-0.4,0.4-0.9,0.4-1.6c0-0.7-0.1-1.2-0.4-1.5c-0.3-0.4-0.7-0.5-1.2-0.5
			c-0.5,0-0.9,0.2-1.2,0.5S124.6,139.3,124.6,140z"/>
		<path d="M135.3,142.7h-0.8v-5.1c0-0.4,0-0.8,0-1.2c-0.1,0.1-0.1,0.1-0.2,0.2s-0.5,0.4-1.2,1l-0.4-0.6l1.9-1.5h0.7V142.7z"/>
		<path d="M138.3,142.2c0-0.2,0-0.4,0.1-0.5c0.1-0.1,0.2-0.2,0.4-0.2c0.2,0,0.3,0.1,0.4,0.2c0.1,0.1,0.2,0.3,0.2,0.5
			c0,0.2-0.1,0.4-0.2,0.5s-0.3,0.2-0.4,0.2c-0.2,0-0.3-0.1-0.4-0.2C138.4,142.6,138.3,142.4,138.3,142.2z"/>
		<path d="M143.1,135.4c0.7,0,1.2,0.2,1.5,0.5s0.6,0.7,0.6,1.3c0,0.4-0.1,0.7-0.3,1s-0.6,0.6-1,0.8c0.6,0.3,1,0.6,1.2,0.9
			c0.2,0.3,0.4,0.7,0.4,1.1c0,0.6-0.2,1.1-0.6,1.4c-0.4,0.4-1,0.5-1.7,0.5c-0.8,0-1.3-0.2-1.8-0.5c-0.4-0.3-0.6-0.8-0.6-1.4
			c0-0.8,0.5-1.5,1.5-1.9c-0.4-0.3-0.8-0.5-1-0.8c-0.2-0.3-0.3-0.6-0.3-1c0-0.5,0.2-0.9,0.6-1.2
			C141.9,135.6,142.4,135.4,143.1,135.4z M141.5,140.9c0,0.4,0.1,0.7,0.4,0.9s0.7,0.3,1.1,0.3c0.5,0,0.9-0.1,1.1-0.3
			s0.4-0.5,0.4-0.9c0-0.3-0.1-0.6-0.4-0.8c-0.3-0.2-0.7-0.5-1.3-0.7c-0.5,0.2-0.8,0.4-1.1,0.7C141.6,140.2,141.5,140.5,141.5,140.9z
			 M143.1,136.1c-0.4,0-0.7,0.1-1,0.3s-0.3,0.5-0.3,0.8c0,0.3,0.1,0.6,0.3,0.8s0.5,0.4,1.1,0.6c0.5-0.2,0.8-0.4,1-0.6
			s0.3-0.5,0.3-0.8c0-0.3-0.1-0.6-0.4-0.8C143.8,136.2,143.5,136.1,143.1,136.1z"/>
		<path d="M156.2,142.7v-3.5c0-0.4-0.1-0.7-0.3-1c-0.2-0.2-0.5-0.3-0.8-0.3c-0.5,0-0.9,0.1-1.1,0.4s-0.4,0.7-0.4,1.3v3h-0.8v-3.5
			c0-0.4-0.1-0.7-0.3-1c-0.2-0.2-0.5-0.3-0.9-0.3c-0.5,0-0.9,0.2-1.1,0.5c-0.2,0.3-0.4,0.8-0.4,1.5v2.8h-0.8v-5.4h0.7l0.1,0.7h0
			c0.2-0.3,0.4-0.5,0.6-0.6s0.6-0.2,0.9-0.2c0.8,0,1.4,0.3,1.6,0.9h0c0.2-0.3,0.4-0.5,0.7-0.7s0.6-0.2,1-0.2c0.6,0,1.1,0.2,1.4,0.5
			c0.3,0.3,0.5,0.8,0.5,1.5v3.5H156.2z"/>
		<path d="M114.7,151h-1.1v1.6h-0.8V151h-3.5v-0.7l3.4-4.8h0.9v4.8h1.1V151z M112.8,150.3v-2.4c0-0.5,0-1,0-1.6h0
			c-0.2,0.3-0.3,0.6-0.4,0.8l-2.2,3.2H112.8z"/>
		<path d="M116.4,145.5l-0.2,2.6h-0.5l-0.2-2.6H116.4z"/>
		<path d="M122.3,152.1c0.1,0,0.3,0,0.4,0c0.1,0,0.2,0,0.3-0.1v0.6c-0.1,0-0.2,0.1-0.4,0.1c-0.2,0-0.3,0-0.5,0c-1,0-1.6-0.5-1.6-1.6
			V148h-0.8v-0.4l0.8-0.3l0.3-1.1h0.5v1.2h1.6v0.6h-1.6v3.1c0,0.3,0.1,0.6,0.2,0.7S122,152.1,122.3,152.1z"/>
		<path d="M128.7,150c0,0.9-0.2,1.6-0.7,2c-0.4,0.5-1,0.7-1.8,0.7c-0.5,0-0.9-0.1-1.3-0.3s-0.7-0.5-0.9-1s-0.3-0.9-0.3-1.5
			c0-0.9,0.2-1.6,0.7-2c0.4-0.5,1-0.7,1.8-0.7c0.7,0,1.3,0.2,1.8,0.7C128.5,148.5,128.7,149.1,128.7,150z M124.6,150
			c0,0.7,0.1,1.2,0.4,1.6s0.7,0.5,1.2,0.5s0.9-0.2,1.2-0.5c0.3-0.4,0.4-0.9,0.4-1.6c0-0.7-0.1-1.2-0.4-1.5c-0.3-0.4-0.7-0.5-1.2-0.5
			c-0.5,0-0.9,0.2-1.2,0.5S124.6,149.3,124.6,150z"/>
		<path d="M132.4,149.6c0-1.4,0.3-2.5,0.8-3.1c0.5-0.7,1.4-1,2.4-1c0.4,0,0.7,0,0.9,0.1v0.7c-0.3-0.1-0.5-0.1-0.9-0.1
			c-0.8,0-1.3,0.2-1.8,0.7c-0.4,0.5-0.6,1.2-0.7,2.2h0.1c0.4-0.6,0.9-0.8,1.7-0.8c0.6,0,1.1,0.2,1.5,0.6s0.6,0.9,0.6,1.6
			c0,0.7-0.2,1.3-0.6,1.8c-0.4,0.4-1,0.6-1.6,0.6c-0.7,0-1.3-0.3-1.8-0.8C132.6,151.4,132.4,150.6,132.4,149.6z M134.8,152.1
			c0.5,0,0.8-0.1,1.1-0.4c0.3-0.3,0.4-0.7,0.4-1.3c0-0.5-0.1-0.8-0.4-1.1s-0.6-0.4-1.1-0.4c-0.3,0-0.6,0.1-0.8,0.2s-0.4,0.3-0.6,0.5
			s-0.2,0.4-0.2,0.7c0,0.3,0.1,0.6,0.2,0.9s0.3,0.5,0.6,0.7S134.5,152.1,134.8,152.1z"/>
		<path d="M139.1,145.5l-0.2,2.6h-0.5l-0.2-2.6H139.1z"/>
	</g>
	<g>
		<g>
			<line class="st5" x1="84.9" y1="142.7" x2="52.6" y2="142.7"/>
			<g>
				<polygon class="st6" points="53.6,141.2 48.1,142.7 53.6,144.1 				"/>
			</g>
		</g>
	</g>
	<g>
		<g>
			<line class="st5" x1="166.2" y1="142.7" x2="198.5" y2="142.7"/>
			<g>
				<polygon class="st6" points="197.5,144.1 203,142.7 197.5,141.2 				"/>
			</g>
		</g>
	</g>
</g>
</svg>
