<?xml version="1.0" encoding="utf-8"?>
<!-- Generator: Adobe Illustrator 25.2.0, SVG Export Plug-In . SVG Version: 6.00 Build 0)  -->
<svg version="1.1" xmlns="http://www.w3.org/2000/svg" xmlns:xlink="http://www.w3.org/1999/xlink" x="0px" y="0px" width="455.1px"
	 height="281px" viewBox="0 0 455.1 281" style="enable-background:new 0 0 455.1 281;" xml:space="preserve">
<style type="text/css">
	.st0{display:none;}
	.st1{display:inline;}
	.st2{fill:#FFFFFF;stroke:#000000;stroke-linecap:round;stroke-linejoin:round;stroke-miterlimit:10;}
	.st3{fill:none;stroke:#000000;stroke-width:0.5;stroke-linecap:round;stroke-linejoin:round;stroke-miterlimit:10;}
	.st4{fill:none;stroke:#000000;stroke-width:0.25;stroke-linecap:round;stroke-linejoin:round;stroke-miterlimit:10;}
	.st5{display:inline;fill:#FFFFFF;stroke:#000000;stroke-linecap:round;stroke-linejoin:round;stroke-miterlimit:10;}
	
		.st6{display:inline;fill:none;stroke:#000000;stroke-width:0.25;stroke-linecap:round;stroke-linejoin:round;stroke-miterlimit:10;}
	.st7{fill:none;stroke:#000000;stroke-linecap:round;stroke-linejoin:round;stroke-miterlimit:10;}
	.st8{fill:#FFFFFF;stroke:#000000;stroke-width:0.25;stroke-linecap:round;stroke-linejoin:round;stroke-miterlimit:10;}
	.st9{fill:#FFFFFF;stroke:#000000;stroke-width:0.5;stroke-linecap:round;stroke-linejoin:round;stroke-miterlimit:10;}
	.st10{fill:none;stroke:#000000;stroke-width:0.4294;stroke-linecap:round;stroke-linejoin:round;stroke-miterlimit:10;}
	.st11{fill:none;stroke:#000000;stroke-width:0.2147;stroke-linecap:round;stroke-linejoin:round;stroke-miterlimit:10;}
	.st12{fill:#FFFFFF;stroke:#000000;stroke-width:0.8589;stroke-linecap:round;stroke-linejoin:round;stroke-miterlimit:10;}
	.st13{fill:#FFFFFF;stroke:#000000;stroke-width:0.1443;stroke-linecap:round;stroke-linejoin:round;stroke-miterlimit:10;}
	.st14{fill:none;stroke:#000000;stroke-width:0.1443;stroke-linecap:round;stroke-linejoin:round;stroke-miterlimit:10;}
	.st15{fill:none;stroke:#000000;stroke-width:3.606573e-02;stroke-linecap:round;stroke-linejoin:round;stroke-miterlimit:10;}
	.st16{fill:#FFFFFF;stroke:#000000;stroke-width:3.606573e-02;stroke-linecap:round;stroke-linejoin:round;stroke-miterlimit:10;}
	.st17{fill:none;stroke:#000000;stroke-width:7.213145e-02;stroke-linecap:round;stroke-linejoin:round;stroke-miterlimit:10;}
	.st18{fill:#FFFFFF;stroke:#000000;stroke-width:7.213145e-02;stroke-linecap:round;stroke-linejoin:round;stroke-miterlimit:10;}
	.st19{fill:#FFFFFF;stroke:#000000;stroke-width:0.1443;stroke-miterlimit:10;}
	.st20{fill:none;stroke:#000000;stroke-width:7.213145e-02;stroke-miterlimit:10;}
	.st21{fill:#FFFFFF;stroke:#000000;stroke-width:0.6832;stroke-linecap:round;stroke-linejoin:round;stroke-miterlimit:10;}
	.st22{fill:none;stroke:#000000;stroke-width:0.1708;stroke-linecap:round;stroke-linejoin:round;stroke-miterlimit:10;}
	.st23{fill:#FFFFFF;stroke:#000000;stroke-width:0.3416;stroke-linecap:round;stroke-linejoin:round;stroke-miterlimit:10;}
	.st24{fill:none;stroke:#000000;stroke-width:0.3416;stroke-linecap:round;stroke-linejoin:round;stroke-miterlimit:10;}
	.st25{fill:#FFFFFF;stroke:#000000;stroke-width:0.1708;stroke-linecap:round;stroke-linejoin:round;stroke-miterlimit:10;}
	.st26{fill:none;stroke:#000000;stroke-width:0.7632;stroke-linecap:round;stroke-linejoin:round;stroke-miterlimit:10;}
	.st27{fill:none;stroke:#000000;stroke-width:0.1908;stroke-linecap:round;stroke-linejoin:round;stroke-miterlimit:10;}
	.st28{fill:none;stroke:#000000;stroke-width:0.6832;stroke-linecap:round;stroke-linejoin:round;stroke-miterlimit:10;}
	.st29{fill:none;stroke:#000000;stroke-width:0.5124;stroke-linecap:round;stroke-linejoin:round;stroke-miterlimit:10;}
	.st30{fill:#FFFFFF;stroke:#000000;stroke-width:0.7591;stroke-linecap:round;stroke-linejoin:round;stroke-miterlimit:10;}
	.st31{fill:none;stroke:#000000;stroke-width:0.3796;stroke-linecap:round;stroke-linejoin:round;stroke-miterlimit:10;}
	.st32{fill:none;stroke:#000000;stroke-width:0.1898;stroke-linecap:round;stroke-linejoin:round;stroke-miterlimit:10;}
	.st33{fill:#FFFFFF;stroke:#000000;stroke-width:0.3411;stroke-linecap:round;stroke-linejoin:round;stroke-miterlimit:10;}
	.st34{fill:none;stroke:#000000;stroke-width:0.3411;stroke-linecap:round;stroke-linejoin:round;stroke-miterlimit:10;}
	.st35{fill:none;stroke:#000000;stroke-width:0.7621;stroke-linecap:round;stroke-linejoin:round;stroke-miterlimit:10;}
	.st36{fill:none;stroke:#000000;stroke-width:0.1905;stroke-linecap:round;stroke-linejoin:round;stroke-miterlimit:10;}
	.st37{fill:#FFFFFF;stroke:#000000;stroke-width:0.1905;stroke-linecap:round;stroke-linejoin:round;stroke-miterlimit:10;}
	.st38{fill:#FFFFFF;stroke:#000000;stroke-width:0.1706;stroke-linecap:round;stroke-linejoin:round;stroke-miterlimit:10;}
	.st39{fill:none;stroke:#000000;stroke-width:0.1706;stroke-linecap:round;stroke-linejoin:round;stroke-miterlimit:10;}
	.st40{fill:none;stroke:#000000;stroke-width:0.6822;stroke-linecap:round;stroke-linejoin:round;stroke-miterlimit:10;}
	.st41{fill:#FFFFFF;stroke:#000000;stroke-width:0.2846;stroke-linecap:round;stroke-linejoin:round;stroke-miterlimit:10;}
	.st42{fill:none;stroke:#000000;stroke-width:0.2846;stroke-linecap:round;stroke-linejoin:round;stroke-miterlimit:10;}
	.st43{fill:none;stroke:#ED2024;stroke-width:0.3411;stroke-linecap:round;stroke-linejoin:round;stroke-miterlimit:10;}
	.st44{fill:none;stroke:#00AEEF;stroke-linecap:round;stroke-linejoin:round;stroke-miterlimit:10;}
</style>
<g id="Layer_1">
	<g class="st0">
		<g class="st1">
			<path class="st2" d="M70.3,223.8v8.9h1.4c-0.7,2.4-0.3,6.3,0.3,7.3c-0.7,1.2-0.7,2.8-0.4,3.6c0.3,0.8,3.2,0.8,4.1,0.5
				s1-0.2,2.1,0.2c1.1,0.3,4.3,0.4,5.4,0c1.1-0.4,2.1-0.5,2.8-0.2c0.7,0.4,2.7,0.3,3.2-0.2s1.2-1.9,0-3.7c0.7-1.7,1.6-5.6,0.2-7.5
				c1.8-0.8,4.1-1.3,4.1-3.1c0-1.8,0.2-3-1.7-3c-1.9,0-2,0.2-2.4,0.8l-0.1-3.5"/>
			<ellipse class="st3" cx="80.5" cy="237.1" rx="8" ry="6.4"/>
			<path class="st3" d="M89.3,232.8c-3.8-5.1-12.6-6.1-17.6-0.1"/>
			<path class="st3" d="M80.2,224c-1.1,1.6-4.1,4.4-5.9,5.3c-1.8,0.9-2.1,0.1-2.3,0.7c-0.2,0.5-0.8,1.2-0.9,2.8"/>
			<path class="st3" d="M93.2,230.7c-1.9-0.1-3.8-0.8-3.8,2.1"/>
			<line class="st4" x1="91.8" y1="226.7" x2="91.8" y2="230.6"/>
			<line class="st4" x1="90.6" y1="227.2" x2="90.6" y2="230.7"/>
			<path class="st4" d="M89.3,232.3v-4.8c-1.5-1.3-3.5-3-5.7-3.7"/>
			<path class="st4" d="M89.3,230.6c-1.1-1.4-5.9-7.2-10.2-5.2"/>
			<path class="st4" d="M89.3,231.3c-1.6-1.4-5.8-5.7-13.5-3"/>
			<path class="st4" d="M89.3,229.3c-0.8-1.4-5.3-5.3-9.1-5.3"/>
			<path class="st4" d="M88.1,241.1c-0.2,0.3-1,1.2-1.5,1.5c0.6,0.2,1.5,0.2,1.7,0C88.6,242.4,88.2,241.4,88.1,241.1z"/>
			<path class="st4" d="M74.5,242.7c-0.3-0.2-1.2-1-1.5-1.5c-0.2,0.6-0.2,1.5,0,1.7C73.2,243.1,74.2,242.8,74.5,242.7z"/>
		</g>
		<g class="st1">
			<path class="st2" d="M214.1,223.9v8.9h-1.4c0.7,2.4,0.3,6.3-0.3,7.3c0.7,1.2,0.7,2.8,0.4,3.6c-0.3,0.8-3.2,0.8-4.1,0.5
				c-1-0.3-1-0.2-2.1,0.2s-4.3,0.4-5.4,0c-1.1-0.4-2.1-0.5-2.8-0.2c-0.7,0.4-2.7,0.3-3.2-0.2c-0.5-0.4-1.2-1.9,0-3.7
				c-0.7-1.7-1.6-5.6-0.2-7.5c-1.8-0.8-4.1-1.3-4.1-3.1s-0.2-3,1.7-3s2,0.2,2.4,0.8l0.1-3.5"/>
			<ellipse class="st3" cx="203.9" cy="237.1" rx="8" ry="6.4"/>
			<path class="st3" d="M195,232.9c3.8-5.1,12.6-6.1,17.6-0.1"/>
			<path class="st3" d="M204.2,224.1c1.1,1.6,4.1,4.4,5.9,5.3s2.1,0.1,2.3,0.7c0.2,0.5,0.8,1.2,0.9,2.8"/>
			<path class="st3" d="M191.2,230.8c1.9-0.1,3.8-0.8,3.8,2.1"/>
			<line class="st4" x1="192.6" y1="226.8" x2="192.6" y2="230.7"/>
			<line class="st4" x1="193.8" y1="227.3" x2="193.8" y2="230.8"/>
			<path class="st4" d="M195,232.4v-4.8c1.5-1.3,3.5-3,5.7-3.7"/>
			<path class="st4" d="M195,230.7c1.1-1.4,5.9-7.2,10.2-5.2"/>
			<path class="st4" d="M195,231.4c1.6-1.4,5.8-5.7,13.5-3"/>
			<path class="st4" d="M195,229.4c0.8-1.4,5.3-5.3,9.1-5.3"/>
			<path class="st4" d="M196.3,241.2c0.2,0.3,1,1.2,1.5,1.5c-0.6,0.2-1.5,0.2-1.7,0C195.8,242.5,196.2,241.5,196.3,241.2z"/>
			<path class="st4" d="M209.9,242.8c0.3-0.2,1.2-1,1.5-1.5c0.2,0.6,0.2,1.5,0,1.7C211.2,243.2,210.2,242.9,209.9,242.8z"/>
		</g>
		<g class="st1">
			<path class="st2" d="M150.1,256.7c0.9,1.3,0.9,2.2,0.9,3.2s0,18.4,0,19.4c0,1-2.2,0.9-2.2,0c0-0.9,0-2.8,0-2.8
				c-0.2,1.5-3.2,1.3-3.4,0.2c-0.2-1.3-0.7-3.5-0.7-3.5h-4.1c0,0-0.4,2.8-0.6,3.7c-0.2,0.9-3.1,1.1-3.7,0c0,0-0.1-0.1,0,2.4
				c0,1.2-2,1-2,0c0-1.2,0-18,0-19.4c0-1.4,0.5-2.9,0.8-3.2S150.1,256.7,150.1,256.7z"/>
			<line class="st4" x1="148.8" y1="276.6" x2="148.8" y2="261.7"/>
			<path class="st4" d="M146.6,262.9c0.1,1.8-1.2,8.9-1.9,10.3"/>
			<path class="st4" d="M138,263.2c0.1,2,1.5,8.2,2.6,10"/>
			<path class="st4" d="M144.7,263.2c-1.3,0.8-2.8,0.8-4.4,0"/>
			<line class="st4" x1="142.5" y1="263.8" x2="142.5" y2="273.3"/>
			<line class="st4" x1="136.3" y1="277" x2="136.3" y2="262"/>
			<path class="st4" d="M139.3,277.5c-0.2-0.4,0-8.1,0-8.1"/>
			<line class="st4" x1="137.2" y1="277.5" x2="137.2" y2="263.2"/>
			<line class="st4" x1="147.8" y1="277.5" x2="147.8" y2="262.4"/>
			<line class="st4" x1="145.6" y1="269.8" x2="145.6" y2="277.4"/>
		</g>
		<path class="st5" d="M213.4,214.1c-3.7,0-17.9,0-19.7,0s-5.6,1-5.6,3.6c0,2.6,0,5.9,0,8c0,2.1-1,3.1-3.7,3.1c-2.7,0-82,0-84.1,0
			s-3.2-0.9-3.2-2.5c0-1.6,0-5.4,0-7.5c0-2.1-1.6-4.7-6-4.7s-16,0-18.7,0S67,215.4,67,217c0,1.6,0,2.3,0,3.7c0,1.3,1.1,3.4,5.5,3.4
			c4.4,0,16.7,0,18.7,0s3.8,1.6,3.8,3.1c0,1.5,0,4.4,0,6.3s1.3,5.2,5.2,5.2c3.9,0,81.3,0,83.9,0c3.6,0,5.6-1.2,5.6-4.5
			c0-2.6,0-4.9,0-6.8c0-1.9,1.6-3,3.5-3s16.6,0,19.2,0s5.7-1,5.7-4C218.2,217.4,218.6,214.1,213.4,214.1z"/>
		<path class="st5" d="M159.3,238.6l-9.3,5.7c0,0,0,11,0,13.7c0,2.6-1.3,5.3-5.9,5.3s-2.1,0-4,0c-1.9,0-5.1,0.1-5.1-5
			c0-5.1,0-10.6,0-10.6l-17.1-9"/>
		<path class="st6" d="M218.2,217.6c0,2.7-1.2,5.1-5.7,5.1s-16,0-18.8,0c-3.5,0-5.5,1.6-5.5,4.6c0,2.5,0,4.9,0,6.4s-1,3.1-4,3.1
			c-2.9,0-80.8,0-83.7,0c-1.9,0-3.2-1.3-3.2-3.2s0-4.4,0-6.4c0-2-1.5-4.9-6.2-4.9s-15.6,0-18.6,0s-5.4-0.6-5.4-3.7"/>
		<line class="st6" x1="91" y1="214.1" x2="91" y2="224"/>
		<line class="st6" x1="72.5" y1="222.3" x2="72.5" y2="224"/>
		<line class="st6" x1="100.3" y1="228.7" x2="100.3" y2="238.6"/>
		<line class="st6" x1="97.2" y1="233.6" x2="95" y2="233.6"/>
		<line class="st6" x1="97.2" y1="227.2" x2="95" y2="227.2"/>
		<line class="st6" x1="184.4" y1="228.7" x2="184.4" y2="238.6"/>
		<line class="st6" x1="188.2" y1="233.7" x2="190.2" y2="233.7"/>
		<line class="st6" x1="188.2" y1="227.3" x2="189.7" y2="227.3"/>
		<line class="st6" x1="193.7" y1="214.1" x2="193.7" y2="224.3"/>
		<line class="st6" x1="212.5" y1="222.7" x2="212.5" y2="224.3"/>
		<path class="st6" d="M157.4,238.6c-1,0-13.7,8.4-13.7,8.4h-8.6l-15.7-8.4"/>
		<path class="st6" d="M150.1,244.3c-0.7,0.4-4.7,2.7-4.7,2.7"/>
		<line class="st6" x1="150.1" y1="247" x2="133.9" y2="247"/>
		<line class="st6" x1="150.1" y1="248.5" x2="135.1" y2="248.5"/>
		<path class="st6" d="M150.1,257.9c0,2.4-2.5,4-5.9,4s-2.1,0-3.5,0c-1.4,0-5.6-0.1-5.6-3.7"/>
		<line class="st6" x1="92.8" y1="226.9" x2="92.8" y2="230.6"/>
		<path class="st6" d="M150.1,280.1"/>
		<path class="st5" d="M173.9,96c0.2,0.1,35,20.6,35,20.6l-2.1,2.6l-34-19.3L173.9,96z"/>
		<g class="st1">
			<path class="st2" d="M175.6,99.1c0,0,21.6,12.3,23.6,13.7c2,1.3,2.9,2.5,2.9,5.4s0,81.5,0,82.7c0,1.2-0.2,1.9-1.3,2.5
				c-1.1,0.7-13.8,7.8-13.8,7.8s0,11.1,0,12.6c0,1.4,0,1.8-0.8,2.3S159.3,241.4,158,242c-1.3,0.6-1.4,1-2.4,0.5
				c-1-0.4-30.3-17.8-30.3-17.8s-3.2-19-3.5-24.9c-0.4-5.9,0.4-8.5-3.1-10.7s-7.8-4.6-9.5-5.7c-1.7-1.1-2.9-2.1-3-5.6s0-64.3,0-68.4
				s21.4-25,31.7-23.8C148.3,86.9,170.6,96.2,175.6,99.1z"/>
			<path class="st7" d="M187,211.2c-2.1,1.2-12.8,7.3-13.7,7.8c-0.9,0.6-2,0.7-3.2,0c-2.4-1.5-7.8-4.7-9.1-5.3
				c-1.3-0.6-2.7-0.2-2.7,1.5c0,2.2,0,23.8,0,25s-1.1,2.2-2,2.4"/>
			<line class="st4" x1="187" y1="223.8" x2="158.4" y2="240.3"/>
			<path class="st4" d="M187,216.7c0,0-26.4,15.6-27.5,16.2s-1.9,0.3-2.5,0c-0.6-0.3-1.3-0.7-1.3-0.7"/>
			<path class="st4" d="M199.2,112.8"/>
			<line class="st4" x1="199.2" y1="112.8" x2="163.6" y2="133.1"/>
			<line class="st4" x1="202.1" y1="118.1" x2="164.2" y2="139.5"/>
			<path class="st4" d="M171.7,219.5c0.9-0.4,1.2-1.1,1.2-1.9s0-76.1,0-76.1"/>
			<path class="st4" d="M173.8,142.2c0,0,0,74.6,0,75.1s-0.1,1.9-1.4,2.2"/>
			<path class="st4" d="M202.1,201.2c0,0-27.8,15.8-28.3,16.1c-0.5,0.3-0.6,0.3-0.8,0.3"/>
			<path class="st3" d="M174.2,101.6c0,0,14.2,8.2,14.9,8.6c0.7,0.4,1.9,1.8-0.3,3s-15.5,8.8-15.5,8.8"/>
			<path class="st4" d="M170.8,148.4c0,0,0,64.7,0,65.6c0,2-0.9,1.8-1.5,1.5c-0.7-0.4-7.9-4.4-9-5c-1.9-1.1-4.6-1.1-4.6,2.1
				s0,23.6,0,24.7s-0.4,2.2-2.1,1.2s-13.8-8-13.8-8"/>
			<path class="st4" d="M170.2,147.5c0,0,0,64.7,0,65.6c0,2.2-0.4,2.1-1.1,1.7s-8-4.4-9.1-5.1c-2.7-1.4-4.9,0.3-4.9,2.5
				c0,3.2,0,23.1,0,24.1c0,2-0.4,2.2-2.1,1.2c-1.7-1-13.8-8-13.8-8"/>
			<path class="st4" d="M122.6,191.4c-0.2-2.2-1.2-3.8-3.5-5.1s-7.3-4.2-8.3-4.7s-2-1.5-2-3s0-65.7,0-65.7"/>
			<path class="st4" d="M109.4,113.2c0,0,0,63.3,0,64.5c0,1.2,0.1,2.4,1.4,3.2s7.5,4.2,8.6,4.9c1.2,0.7,3.4,2.5,3.6,4.5"/>
			<path class="st3" d="M202.1,134.1c-0.8,0.4-27.5,15.8-28.3,16.2c-0.8,0.5-2.2,1-3.6,0.3"/>
			<g>
				<polygon class="st8" points="159.9,147.7 159.9,149.1 159.4,148.8 159.4,147.5 				"/>
				<line class="st4" x1="159.4" y1="148.8" x2="159.9" y2="148.5"/>
			</g>
			<g>
				<polygon class="st8" points="159,147.1 159,148.5 158.6,148.2 158.6,146.9 				"/>
				<line class="st4" x1="158.6" y1="148.2" x2="159" y2="147.8"/>
			</g>
			<g>
				<ellipse class="st4" cx="158.2" cy="151.5" rx="0.4" ry="0.6"/>
				<path class="st4" d="M158.2,150.9l0.8-0.4c0.4,0.1,0.6,0.9,0.3,1c-0.3,0.2-1.1,0.6-1.1,0.6"/>
			</g>
			<path class="st4" d="M159.9,154c-0.1,0-1.7-1.1-1.7-1.1c0,0.2,0.2,0.3,0.2,0.4s0,0.2,0.2,0.4c0.3,0.2,0.7,0.4,0.9,0.5
				c0.2,0.1,0.2,0.1,0.4,0.1c0.2,0,0.3-0.1,0.5,0C160.5,154.3,159.9,154,159.9,154z"/>
			<g>
				<path class="st8" d="M197.6,147.2c0.9-0.6,1.8-0.9,1.8,0.4c0,1.5,0,42.4,0,43.5s-0.1,1.7-0.9,2.3s-20.2,11.7-20.9,12.1
					s-2,0.4-2-0.7s0-42.3,0-43.3s0.8-2.3,1.6-2.7C178.1,158.2,197.6,147.2,197.6,147.2z"/>
				<path class="st8" d="M196.9,170.6c0,0.4,0,2.3,0,3s0.3,0.5,0.5,0.4c0.2-0.1,1-0.5,1.3-0.8c0.4-0.2,0.6-0.1,0.6,0.4
					c0,0.4,0-6.5,0-5.7s-0.4,0.9-0.7,1.1c-0.3,0.2-0.8,0.5-1.2,0.7C197.1,169.9,196.9,170.3,196.9,170.6z"/>
			</g>
			<g>
				<g>
					<path class="st4" d="M183.9,157.3c1.6-0.9,7.6-4.2,8-4.5c0.9-0.6,2.7,0.5,0.9,1.6c-2.8,1.7-7.1,4-8,4.5s-1.5,0.5-2.1,0.3
						C182.9,158.5,183.2,157.7,183.9,157.3z"/>
					<path class="st4" d="M183.9,157.3c0.6,0.3,0.9,0.9,1,1.6"/>
					<path class="st4" d="M191.9,152.8c0.7,0.5,0.8,0.8,0.9,1.6"/>
				</g>
				<g>
					<path class="st4" d="M183.9,164c1.6-0.9,7.6-4.2,8-4.5c0.9-0.6,2.7,0.5,0.9,1.6c-2.8,1.7-7.1,4-8,4.5c-0.9,0.5-1.5,0.5-2.1,0.3
						C182.9,165.2,183.2,164.4,183.9,164z"/>
					<path class="st4" d="M183.9,164c0.6,0.3,0.9,0.9,1,1.6"/>
					<path class="st4" d="M191.9,159.5c0.7,0.5,0.8,0.8,0.9,1.6"/>
				</g>
				<g>
					<path class="st4" d="M183.9,170.7c1.6-0.9,7.6-4.2,8-4.5c0.9-0.6,2.7,0.5,0.9,1.6c-2.8,1.7-7.1,4-8,4.5
						c-0.9,0.5-1.5,0.5-2.1,0.3C182.9,172,183.2,171.1,183.9,170.7z"/>
					<path class="st4" d="M183.9,170.7c0.6,0.3,0.9,0.9,1,1.6"/>
					<path class="st4" d="M191.9,166.3c0.7,0.5,0.8,0.8,0.9,1.6"/>
				</g>
				<g>
					<path class="st4" d="M183.9,177.5c1.6-0.9,7.6-4.2,8-4.5c0.9-0.6,2.7,0.5,0.9,1.6c-2.8,1.7-7.1,4-8,4.5
						c-0.9,0.5-1.5,0.5-2.1,0.3C182.9,178.7,183.2,177.8,183.9,177.5z"/>
					<path class="st4" d="M183.9,177.5c0.6,0.3,0.9,0.9,1,1.6"/>
					<path class="st4" d="M191.9,173c0.7,0.5,0.8,0.8,0.9,1.6"/>
				</g>
				<g>
					<path class="st4" d="M183.9,184.2c1.6-0.9,7.6-4.2,8-4.5c0.9-0.6,2.7,0.5,0.9,1.6c-2.8,1.7-7.1,4-8,4.5
						c-0.9,0.5-1.5,0.5-2.1,0.3C182.9,185.4,183.2,184.6,183.9,184.2z"/>
					<path class="st4" d="M183.9,184.2c0.6,0.3,0.9,0.9,1,1.6"/>
					<path class="st4" d="M191.9,179.7c0.7,0.5,0.8,0.8,0.9,1.6"/>
				</g>
				<g>
					<path class="st4" d="M183.9,190.9c1.6-0.9,7.6-4.2,8-4.5c0.9-0.6,2.7,0.5,0.9,1.6c-2.8,1.7-7.1,4-8,4.5
						c-0.9,0.5-1.5,0.5-2.1,0.3C182.9,192.1,183.2,191.3,183.9,190.9z"/>
					<path class="st4" d="M183.9,190.9c0.6,0.3,0.9,0.9,1,1.6"/>
					<path class="st4" d="M191.9,186.4c0.7,0.5,0.8,0.8,0.9,1.6"/>
				</g>
				<g>
					<path class="st4" d="M183.9,197.6c1.6-0.9,7.6-4.2,8-4.5c0.9-0.6,2.7,0.5,0.9,1.6c-2.8,1.7-7.1,4-8,4.5
						c-0.9,0.5-1.5,0.5-2.1,0.3C182.9,198.8,183.2,198,183.9,197.6z"/>
					<path class="st4" d="M183.9,197.6c0.6,0.3,0.9,0.9,1,1.6"/>
					<path class="st4" d="M191.9,193.1c0.7,0.5,0.8,0.8,0.9,1.6"/>
				</g>
			</g>
		</g>
		<g class="st1">
			<path class="st2" d="M172.3,140.7c1.5,0.7,3.5,1.5,6.7-0.4c3.2-1.8,27.3-15.9,28.6-16.8c1.3-1,2.5-2.4-0.8-4.2
				c-0.1-1.2,0.8-2.6,2.1-2.6c1.5,0.8,8.6,5.4,0.4,10.2c-9.3,5.5-26.8,15.6-28.8,16.7s-4.3,2.9-8.3,1V140.7z"/>
			<path class="st4" d="M207.6,123.5c1.3,0.4,2.2,1.9,1.8,3.4"/>
			<path class="st4" d="M178.9,140.3c0.9,0.4,1.8,2.1,1.6,3.3"/>
		</g>
		<g class="st1">
			<polygon class="st9" points="136.2,130.4 136.2,137.2 137.2,138.1 141.3,135.9 141.3,130.9 138.7,129.4 			"/>
			<line class="st4" x1="137.2" y1="138.1" x2="137.2" y2="130"/>
			<ellipse class="st8" cx="140" cy="134.9" rx="1.2" ry="1.3"/>
			<path class="st4" d="M139.5,135c0,0.6,0.4,1.1,0.8,1.1s0.8-0.5,0.8-1.1c0-0.6-0.4-1.1-0.8-1.1S139.5,134.4,139.5,135z"/>
		</g>
		<g class="st1">
			<path class="st2" d="M121.9,120.8v85.3c-9.8,8.5-12.6,18.6-12.5,25.8c0,2.6,2.1,5.1,4.6,6.9c2.5,1.8,9.1,5.6,10.7,6.3
				s4,0.9,6.2,0c2.2-0.9,11-5.9,11-5.9V128.4L121.9,120.8z"/>
			<line class="st4" x1="133.3" y1="125.2" x2="133.3" y2="230.1"/>
			<line class="st4" x1="134" y1="125.2" x2="134" y2="230.1"/>
			<line class="st4" x1="138" y1="129.4" x2="138" y2="227.2"/>
			<line class="st4" x1="139.9" y1="127.9" x2="139.9" y2="226.7"/>
			<line class="st4" x1="139.5" y1="127.9" x2="139.5" y2="226.5"/>
			<path class="st4" d="M121.9,206.1l11.3,6.5c-1.9,1.7-12.5,11.4-12.6,25c0,4.7,2.6,6.7,3.9,7.5"/>
			<polyline class="st4" points="109.4,231.2 120.7,238 130.6,232.2 			"/>
		</g>
		<g class="st1">
			<path class="st2" d="M142,220.6c0.3,0.2,3.5,2.1,3.5,2.1v14.5l-0.7,0.5v1.7c0,0-9.1,5.3-9.7,5.6c-0.5,0.3-2.4,0.6-3.5-0.1
				c-1.1-0.7-1.1-0.7-1.1-0.7v-12.6l2.8-1.5l0.7,0l4-2.3v-0.7l1.4-0.7l0.5,0.2l2-1.1L142,220.6z"/>
			<polyline class="st4" points="145.1,222.4 145.1,226.5 135.3,231.8 130.6,231.7 			"/>
			<path class="st4" d="M130.6,240c0,0,0.4,0.4,0.5,0.4c0.1,0,3.6,0,3.6,0s0.6-0.1,0.7-0.2c0.2-0.1,1-0.8,1-0.8v4.9"/>
			<line class="st4" x1="135.4" y1="240.1" x2="135.4" y2="244.9"/>
			<line class="st4" x1="131.8" y1="240.3" x2="131.8" y2="244.9"/>
			<line class="st4" x1="144.2" y1="227.1" x2="144.2" y2="239.8"/>
			<line class="st4" x1="135.3" y1="231.8" x2="135.3" y2="240.1"/>
			<line class="st4" x1="134.7" y1="231.8" x2="134.7" y2="240.4"/>
		</g>
	</g>
	<g>
		<g>
			<path class="st2" d="M397,59.9c3,1.8,5.7,3,5.7,6.5c0,3.5,0,64.9,0,66.1c0,1.2,0.2,2.4-1.6,3.4c-1.8,0.9-1.5,0.8-2.6,1.3
				c-1.1,0.5-1.6,0.9-4-0.5c-1.9-1.1-101.4-58.5-102.6-59.3c-1.2-0.8-3.1-1.8-3.1-4.4s0-65.3,0-67.5s0-2.3,1.1-3
				c1.1-0.7,2.7-1.6,3.2-1.8c0.9-0.5,1.4-0.4,2.4,0.1C296.1,1.3,397,59.9,397,59.9z"/>
			<path class="st10" d="M289,3.8c0.9-0.5,1-0.9,3,0.4S393.8,63,395.4,63.9c1.6,0.9,2.2,1.7,2.2,4s0,66.4,0,68c0,1.6-2,1.5-3.1,0.8"
				/>
			<line class="st11" x1="402.6" y1="133.8" x2="397.4" y2="136.6"/>
			<line class="st10" x1="402.7" y1="66.4" x2="397.5" y2="69.1"/>
			<line class="st10" x1="400" y1="61.7" x2="395.4" y2="63.9"/>
			<line class="st10" x1="295.5" y1="1" x2="290.9" y2="3.6"/>
			<polygon class="st10" points="395.4,66.4 395.4,133.8 291.8,74 291.8,6.7 			"/>
		</g>
		<g>
			<path class="st12" d="M247.2,232.2v7.7h1.2c-0.6,2.1-0.3,5.4,0.3,6.2c-0.6,1-0.6,2.4-0.3,3.1c0.3,0.7,2.7,0.7,3.5,0.4
				s0.8-0.1,1.8,0.2c0.9,0.3,3.7,0.4,4.6,0c0.9-0.4,1.8-0.5,2.4-0.2c0.6,0.3,2.3,0.2,2.8-0.1c0.5-0.4,1-1.6,0-3.1
				c0.6-1.5,1.3-4.8,0.1-6.4c1.5-0.7,3.5-1.1,3.5-2.6c0-1.5,0.2-2.6-1.5-2.6s-1.7,0.2-2.1,0.7l-0.1-3"/>
			<ellipse class="st10" cx="255.9" cy="243.6" rx="6.9" ry="5.5"/>
			<path class="st10" d="M263.6,239.9c-3.2-4.4-10.8-5.2-15.1-0.1"/>
			<path class="st10" d="M255.7,232.4c-0.9,1.4-3.6,3.8-5.1,4.5s-1.8,0.1-2,0.6c-0.2,0.4-0.7,1-0.8,2.4"/>
			<path class="st10" d="M266.8,238.1c-1.6-0.1-3.3-0.7-3.3,1.8"/>
			<line class="st11" x1="265.6" y1="234.7" x2="265.6" y2="238"/>
			<line class="st11" x1="264.6" y1="235.1" x2="264.6" y2="238.1"/>
			<path class="st11" d="M263.6,239.5v-4.1c-1.3-1.1-3-2.6-4.9-3.2"/>
			<path class="st11" d="M263.6,238c-1-1.2-5.1-6.2-8.7-4.5"/>
			<path class="st11" d="M263.6,238.6c-1.4-1.2-5-4.9-11.6-2.6"/>
			<path class="st11" d="M263.6,236.9c-0.7-1.2-4.5-4.6-7.8-4.6"/>
			<path class="st11" d="M262.5,247c-0.2,0.3-0.8,1.1-1.3,1.3c0.6,0.2,1.3,0.1,1.5,0S262.6,247.3,262.5,247z"/>
			<path class="st11" d="M250.8,248.4c-0.3-0.2-1.1-0.8-1.3-1.3c-0.2,0.6-0.1,1.3,0,1.5S250.6,248.5,250.8,248.4z"/>
		</g>
		<g>
			<path class="st12" d="M370.7,232.3v7.7h-1.2c0.6,2.1,0.3,5.4-0.3,6.2c0.6,1,0.6,2.4,0.3,3.1c-0.3,0.7-2.7,0.7-3.5,0.4
				c-0.8-0.3-0.8-0.1-1.8,0.2c-0.9,0.3-3.7,0.4-4.6,0c-0.9-0.4-1.8-0.5-2.4-0.2c-0.6,0.3-2.3,0.2-2.8-0.1c-0.5-0.4-1-1.6,0-3.1
				c-0.6-1.5-1.3-4.8-0.1-6.4c-1.5-0.7-3.5-1.1-3.5-2.6c0-1.5-0.2-2.6,1.5-2.6s1.7,0.2,2.1,0.7l0.1-3"/>
			<ellipse class="st10" cx="362" cy="243.6" rx="6.9" ry="5.5"/>
			<path class="st10" d="M354.3,240c3.2-4.4,10.8-5.2,15.1-0.1"/>
			<path class="st10" d="M362.2,232.4c0.9,1.4,3.6,3.8,5.1,4.5c1.5,0.8,1.8,0.1,2,0.6c0.2,0.4,0.7,1,0.8,2.4"/>
			<path class="st10" d="M351.1,238.2c1.6-0.1,3.3-0.7,3.3,1.8"/>
			<line class="st11" x1="352.3" y1="234.8" x2="352.3" y2="238.1"/>
			<line class="st11" x1="353.3" y1="235.1" x2="353.3" y2="238.2"/>
			<path class="st11" d="M354.3,239.6v-4.1c1.3-1.1,3-2.6,4.9-3.2"/>
			<path class="st11" d="M354.3,238.1c1-1.2,5.1-6.2,8.7-4.5"/>
			<path class="st11" d="M354.3,238.7c1.4-1.2,5-4.9,11.6-2.6"/>
			<path class="st11" d="M354.3,237c0.7-1.2,4.5-4.6,7.8-4.6"/>
			<path class="st11" d="M355.4,247.1c0.2,0.3,0.8,1.1,1.3,1.3c-0.6,0.2-1.3,0.1-1.5,0C355,248.2,355.3,247.4,355.4,247.1z"/>
			<path class="st11" d="M367.1,248.5c0.3-0.2,1.1-0.8,1.3-1.3c0.2,0.6,0.1,1.3,0,1.5C368.2,248.9,367.3,248.6,367.1,248.5z"/>
		</g>
		<g>
			<path class="st12" d="M315.7,260.5c0.8,1.1,0.8,1.9,0.8,2.8c0,0.9,0,15.8,0,16.7s-1.9,0.8-1.9,0s0-2.4,0-2.4
				c-0.2,1.3-2.7,1.2-2.9,0.2c-0.2-1.1-0.6-3-0.6-3h-3.5c0,0-0.3,2.4-0.5,3.2c-0.2,0.8-2.7,0.9-3.1,0c0,0,0-0.1,0,2
				c0,1-1.7,0.9-1.7,0c0-1.1,0-15.5,0-16.6c0-1.2,0.5-2.5,0.7-2.8C303.1,260.2,315.7,260.5,315.7,260.5z"/>
			<line class="st11" x1="314.6" y1="277.5" x2="314.6" y2="264.7"/>
			<path class="st11" d="M312.7,265.8c0,1.5-1,7.6-1.7,8.9"/>
			<path class="st11" d="M305.3,266c0.1,1.7,1.3,7.1,2.2,8.6"/>
			<path class="st11" d="M311.1,266c-1.1,0.7-2.4,0.7-3.8,0"/>
			<line class="st11" x1="309.2" y1="266.6" x2="309.2" y2="274.7"/>
			<line class="st11" x1="303.9" y1="277.8" x2="303.9" y2="265"/>
			<path class="st11" d="M306.4,278.3c-0.2-0.4,0-6.9,0-6.9"/>
			<line class="st11" x1="304.7" y1="278.3" x2="304.7" y2="266"/>
			<line class="st11" x1="313.8" y1="278.3" x2="313.8" y2="265.3"/>
			<line class="st11" x1="311.9" y1="271.7" x2="311.9" y2="278.2"/>
		</g>
		<path class="st2" d="M370.1,223.8c-3.1,0-15.4,0-16.9,0s-4.8,0.8-4.8,3.1c0,2.2,0,5.1,0,6.9s-0.9,2.6-3.2,2.6
			c-2.3,0-70.5,0-72.2,0c-1.8,0-2.8-0.7-2.8-2.1s0-4.7,0-6.4s-1.4-4-5.2-4c-3.8,0-13.8,0-16,0c-2.3,0-4.6,1.1-4.6,2.5s0,2,0,3.1
			s0.9,2.9,4.7,2.9s14.4,0,16,0s3.3,1.4,3.3,2.6c0,1.3,0,3.8,0,5.4s1.1,4.5,4.5,4.5s69.8,0,72.1,0c3.1,0,4.8-1,4.8-3.9
			c0-2.3,0-4.2,0-5.8c0-1.6,1.4-2.6,3-2.6s14.2,0,16.5,0c2.3,0,4.9-0.9,4.9-3.4C374.3,226.7,374.6,223.8,370.1,223.8z"/>
		<path class="st12" d="M323.7,244.9l-7.9,4.9c0,0,0,9.5,0,11.7s-1.1,4.5-5,4.5c-3.9,0-1.8,0-3.4,0s-4.4,0.1-4.4-4.3s0-9.1,0-9.1
			l-14.7-7.8"/>
		<path class="st11" d="M374.2,226.9c0,2.3-1.1,4.3-4.9,4.3c-3.8,0-13.8,0-16.1,0c-3,0-4.7,1.4-4.7,4c0,2.2,0,4.2,0,5.5
			c0,1.3-0.8,2.6-3.5,2.6c-2.5,0-69.4,0-71.9,0c-1.6,0-2.8-1.1-2.8-2.8s0-3.8,0-5.5c0-1.7-1.3-4.2-5.3-4.2c-4,0-13.4,0-16,0
			s-4.7-0.5-4.7-3.2"/>
		<line class="st11" x1="265" y1="223.8" x2="265" y2="232.4"/>
		<line class="st11" x1="249" y1="230.9" x2="249" y2="232.4"/>
		<line class="st11" x1="273" y1="236.4" x2="273" y2="244.9"/>
		<line class="st11" x1="270.3" y1="240.6" x2="268.4" y2="240.6"/>
		<line class="st11" x1="270.3" y1="235.1" x2="268.4" y2="235.1"/>
		<line class="st11" x1="345.2" y1="236.4" x2="345.2" y2="244.9"/>
		<line class="st11" x1="348.5" y1="240.7" x2="350.2" y2="240.7"/>
		<line class="st11" x1="348.5" y1="235.2" x2="349.8" y2="235.2"/>
		<line class="st11" x1="353.2" y1="223.8" x2="353.2" y2="232.6"/>
		<line class="st11" x1="369.3" y1="231.2" x2="369.3" y2="232.6"/>
		<path class="st11" d="M322,244.9c-0.9,0-11.8,7.2-11.8,7.2h-7.4l-13.5-7.2"/>
		<path class="st11" d="M315.7,249.8c-0.6,0.4-4,2.4-4,2.4"/>
		<line class="st11" x1="315.7" y1="252.1" x2="301.8" y2="252.1"/>
		<line class="st11" x1="315.7" y1="253.4" x2="302.9" y2="253.4"/>
		<path class="st11" d="M315.7,261.5c0,2-2.1,3.5-5.1,3.5c-3,0-1.8,0-3,0s-4.8-0.1-4.8-3.2"/>
		<line class="st11" x1="266.5" y1="234.9" x2="266.5" y2="238"/>
		<path class="st11" d="M315.7,280.5"/>
		<g>
			<g>
				<path class="st13" d="M358.1,103.1l-0.8,0.4c0,0-0.2-0.1-0.2-0.1c0,0,0,0,0-0.1c0,0,0-44.4,0-44.5c0-0.1,0-0.2,0.1-0.2
					c0.1-0.1,0.8-0.4,0.8-0.5c0.1,0,0.2-0.1,0.3,0c0.1,0.1,3,1.7,3.1,1.8c0.1,0,0.1,0.1,0.1,0.2c0,0.1,0,44.7,0,44.7
					c0,0.1,0,0.1-0.1,0.1s-0.8,0.5-0.8,0.5c0,0-0.1,0-0.1,0c0,0-0.2-0.1-0.2-0.1c0,0,0,0,0-0.1s0-0.9,0-0.9L358.1,103.1z"/>
				<line class="st14" x1="358.1" y1="103.1" x2="358.1" y2="58.3"/>
				<path class="st14" d="M360.1,104.3c0,0,0-43.6,0-43.6s0-0.2,0.1-0.2c0.1-0.1,0.7-0.4,0.7-0.4l-2.9-1.7c0,0-0.6,0.4-0.7,0.4
					c-0.1,0.1-0.1,0.1-0.1,0.2s0,44.6,0,44.6"/>
				<line class="st15" x1="357.1" y1="58.6" x2="357.3" y2="58.8"/>
				<line class="st15" x1="357" y1="58.9" x2="357.2" y2="59"/>
				<path class="st14" d="M361.4,60.1c0,0-0.8,0.4-0.9,0.5c-0.1,0-0.1,0.1-0.1,0.2c0,0.1,0,44.6,0,44.6"/>
				<line class="st15" x1="360.3" y1="60.5" x2="360.5" y2="60.6"/>
				<line class="st15" x1="360.1" y1="60.7" x2="360.4" y2="60.8"/>
				<g>
					<path class="st16" d="M359.4,91.1c-0.1,0-0.2,0-0.2,0.2c0,0.2,0.1,0.5,0.3,0.6s0.4,0.1,0.4-0.1c0,0,0,0,0,0c0,0-0.1,0-0.2-0.1
						C359.6,91.6,359.4,91.3,359.4,91.1z"/>
					<path class="st16" d="M359.6,91.2c-0.1,0-0.1-0.1-0.2-0.1c0,0.2,0.1,0.5,0.3,0.6c0.1,0,0.1,0.1,0.2,0.1
						C359.9,91.6,359.8,91.3,359.6,91.2z"/>
				</g>
				<g>
					<path class="st16" d="M359.4,75.3c-0.1,0-0.2,0-0.2,0.2c0,0.2,0.1,0.5,0.3,0.6c0.2,0.1,0.4,0.1,0.4-0.1c0,0,0,0,0,0
						c0,0-0.1,0-0.2-0.1C359.6,75.8,359.4,75.5,359.4,75.3z"/>
					<path class="st16" d="M359.6,75.4c-0.1,0-0.1-0.1-0.2-0.1c0,0.2,0.1,0.5,0.3,0.6c0.1,0,0.1,0.1,0.2,0.1
						C359.9,75.8,359.8,75.5,359.6,75.4z"/>
				</g>
				<g>
					<path class="st16" d="M359.5,71.2c-0.1,0-0.2,0-0.2,0.2c0,0.2,0.1,0.5,0.3,0.6s0.4,0.1,0.4-0.1c0,0,0,0,0,0c0,0-0.1,0-0.2-0.1
						C359.6,71.7,359.4,71.4,359.5,71.2z"/>
					<path class="st16" d="M359.6,71.3c-0.1,0-0.1-0.1-0.2-0.1c0,0.2,0.1,0.5,0.3,0.6c0.1,0,0.1,0.1,0.2,0.1
						C359.9,71.7,359.8,71.4,359.6,71.3z"/>
				</g>
				<g>
					<path class="st16" d="M359.4,88.8c-0.1,0-0.2,0-0.2,0.2c0,0.2,0.1,0.5,0.3,0.6s0.4,0.1,0.4-0.1c0,0,0,0,0,0c0,0-0.1,0-0.2-0.1
						C359.5,89.2,359.3,89,359.4,88.8z"/>
					<path class="st16" d="M359.5,88.8c-0.1,0-0.1-0.1-0.2-0.1c0,0.2,0.1,0.5,0.3,0.6c0.1,0,0.1,0.1,0.2,0.1
						C359.8,89.2,359.7,89,359.5,88.8z"/>
				</g>
			</g>
			<g>
				<path class="st13" d="M323.6,83.3l-0.8,0.4c0,0-0.2-0.1-0.2-0.1c0,0,0,0,0-0.1c0,0,0-44.4,0-44.5s0-0.2,0.1-0.2
					c0.1-0.1,0.8-0.4,0.8-0.5c0.1,0,0.2-0.1,0.3,0c0.1,0.1,3,1.7,3.1,1.8c0.1,0,0.1,0.1,0.1,0.2c0,0.1,0,44.7,0,44.7
					c0,0.1,0,0.1-0.1,0.1c-0.1,0-0.8,0.5-0.8,0.5c0,0-0.1,0-0.1,0s-0.2-0.1-0.2-0.1c0,0,0,0,0-0.1c0-0.1,0-0.9,0-0.9L323.6,83.3z"/>
				<line class="st14" x1="323.6" y1="83.3" x2="323.6" y2="38.5"/>
				<path class="st14" d="M325.6,84.5c0,0,0-43.6,0-43.6c0-0.1,0-0.2,0.1-0.2c0.1-0.1,0.7-0.4,0.7-0.4l-2.9-1.7c0,0-0.6,0.4-0.7,0.4
					c-0.1,0.1-0.1,0.1-0.1,0.2c0,0.1,0,44.6,0,44.6"/>
				<line class="st15" x1="322.6" y1="38.8" x2="322.8" y2="38.9"/>
				<line class="st15" x1="322.5" y1="39" x2="322.7" y2="39.1"/>
				<path class="st14" d="M326.9,40.2c0,0-0.8,0.4-0.9,0.5c-0.1,0-0.1,0.1-0.1,0.2c0,0.1,0,44.6,0,44.6"/>
				<line class="st15" x1="325.8" y1="40.6" x2="326" y2="40.7"/>
				<line class="st15" x1="325.6" y1="40.8" x2="325.9" y2="40.9"/>
				<g>
					<path class="st16" d="M324.9,71.2c-0.1,0-0.2,0-0.2,0.2c0,0.2,0.1,0.5,0.3,0.6c0.2,0.1,0.4,0.1,0.4-0.1c0,0,0,0,0,0
						c0,0-0.1,0-0.2-0.1C325,71.7,324.9,71.4,324.9,71.2z"/>
					<path class="st16" d="M325.1,71.3c-0.1,0-0.1-0.1-0.2-0.1c0,0.2,0.1,0.5,0.3,0.6c0.1,0,0.1,0.1,0.2,0.1
						C325.4,71.7,325.3,71.5,325.1,71.3z"/>
				</g>
				<g>
					<path class="st16" d="M324.9,55.4c-0.1,0-0.2,0-0.2,0.2c0,0.2,0.1,0.5,0.3,0.6c0.2,0.1,0.4,0.1,0.4-0.1c0,0,0,0,0,0
						c0,0-0.1,0-0.2-0.1C325,55.9,324.9,55.6,324.9,55.4z"/>
					<path class="st16" d="M325.1,55.5c-0.1,0-0.1-0.1-0.2-0.1c0,0.2,0.1,0.5,0.3,0.6c0.1,0,0.1,0.1,0.2,0.1
						C325.4,55.9,325.3,55.7,325.1,55.5z"/>
				</g>
				<g>
					<path class="st16" d="M324.9,51.3c-0.1,0-0.2,0-0.2,0.2c0,0.2,0.1,0.5,0.3,0.6c0.2,0.1,0.4,0.1,0.4-0.1c0,0,0,0,0,0
						c0,0-0.1,0-0.2-0.1C325.1,51.8,324.9,51.5,324.9,51.3z"/>
					<path class="st16" d="M325.1,51.4c-0.1,0-0.1-0.1-0.2-0.1c0,0.2,0.1,0.5,0.3,0.6c0.1,0,0.1,0.1,0.2,0.1
						C325.4,51.8,325.3,51.6,325.1,51.4z"/>
				</g>
				<g>
					<path class="st16" d="M324.8,68.9c-0.1,0-0.2,0-0.2,0.2c0,0.2,0.1,0.5,0.3,0.6c0.2,0.1,0.4,0.1,0.4-0.1c0,0,0,0,0,0
						c0,0-0.1,0-0.2-0.1C325,69.3,324.8,69.1,324.8,68.9z"/>
					<path class="st16" d="M325,69c-0.1,0-0.1-0.1-0.2-0.1c0,0.2,0.1,0.5,0.3,0.6c0.1,0,0.1,0.1,0.2,0.1
						C325.3,69.4,325.2,69.1,325,69z"/>
				</g>
			</g>
			<g>
				<g>
					<path class="st13" d="M369.3,81.9c-0.2-0.1-55.5-32-55.6-32.1c-0.1-0.1-0.1,0-0.3,0.1l-0.1-0.1c-0.2,0.1-0.2,0.1-0.2,0.2
						s0,0.8,0,0.9s0,0.2-0.1,0.2c-0.1,0.1-0.4,0.2-0.5,0.3c-0.1,0.1-0.1,0.1-0.1,0.2c0,0.1,0,10,0,10l0.8,0.5c0,0,0,0.2,0,0.3
						s0,0.1,0.1,0.1c0.1,0,55.9,32.3,56,32.3c0.1,0,0.1,0,0.1,0c0-0.1,0-0.1,0-0.1c0.1,0,0.2-0.1,0.2-0.2c0-0.1,0-12,0-12.1
						C369.5,82.2,369.5,82,369.3,81.9z M315.4,61.3c0,0-0.4-0.2-0.5-0.3c-0.1,0-0.1-0.1-0.1-0.2c0-0.1,0-6.9,0-6.9s0.4,0.2,0.5,0.3
						c0.1,0,0.1,0.1,0.1,0.2S315.4,61.3,315.4,61.3z M319.7,63.8c0,0-0.4-0.2-0.5-0.3c-0.1,0-0.1-0.1-0.1-0.2c0-0.1,0-6.9,0-6.9
						s0.4,0.2,0.5,0.3c0.1,0,0.1,0.1,0.1,0.2C319.7,57,319.7,63.8,319.7,63.8z M324,66.3c0,0-0.4-0.2-0.5-0.3
						c-0.1,0-0.1-0.1-0.1-0.2c0-0.1,0-6.9,0-6.9s0.4,0.2,0.5,0.3c0.1,0,0.1,0.1,0.1,0.2C324,59.4,324,66.3,324,66.3z M328.3,68.7
						c0,0-0.4-0.2-0.5-0.3c-0.1,0-0.1-0.1-0.1-0.2c0-0.1,0-6.9,0-6.9s0.4,0.2,0.5,0.3c0.1,0,0.1,0.1,0.1,0.2
						C328.3,61.9,328.3,68.7,328.3,68.7z M349.8,81.2c0,0-0.4-0.2-0.5-0.3c-0.1,0-0.1-0.1-0.1-0.2c0-0.1,0-6.9,0-6.9
						s0.4,0.2,0.5,0.3c0.1,0,0.1,0.1,0.1,0.2S349.8,81.2,349.8,81.2z M353.7,83.4c-0.1,0-0.1-0.1-0.1-0.2c0-0.1,0-6.9,0-6.9
						s0.4,0.2,0.5,0.3c0.1,0,0.1,0.1,0.1,0.2s0,6.9,0,6.9S353.8,83.4,353.7,83.4z M358.5,86.1c0,0-0.4-0.2-0.5-0.3
						c-0.1,0-0.1-0.1-0.1-0.2c0-0.1,0-6.9,0-6.9s0.4,0.2,0.5,0.3c0.1,0,0.1,0.1,0.1,0.2C358.5,79.3,358.5,86.1,358.5,86.1z
						 M362.8,88.6c0,0-0.4-0.2-0.5-0.3c-0.1,0-0.1-0.1-0.1-0.2c0-0.1,0-6.9,0-6.9s0.4,0.2,0.5,0.3c0.1,0,0.1,0.1,0.1,0.2
						C362.8,81.8,362.8,88.6,362.8,88.6z M367.1,91.1c0,0-0.4-0.2-0.5-0.3c-0.1,0-0.1-0.1-0.1-0.2c0-0.1,0-6.9,0-6.9
						s0.4,0.2,0.5,0.3c0.1,0,0.1,0.1,0.1,0.2C367.1,84.3,367.1,91.1,367.1,91.1z"/>
					<line class="st17" x1="313.4" y1="49.9" x2="369.3" y2="82.2"/>
					<line class="st14" x1="313.1" y1="62.1" x2="368.4" y2="94.1"/>
					<path class="st14" d="M369.1,94.7c0,0,0-0.7,0-0.8c0-0.1,0-0.2-0.1-0.1c-0.1,0.1-0.4,0.2-0.4,0.2s-0.2,0.1-0.2-0.1s0-9.8,0-10
						s0.1-0.2,0.1-0.2c0.1,0,0.4-0.2,0.5-0.3c0.1,0,0.1-0.1,0.1-0.2s0-0.7,0-0.8c0-0.1,0-0.1,0.2-0.2v0.2l0.2-0.1"/>
					<line class="st17" x1="369.1" y1="82.4" x2="313.1" y2="50"/>
					<line class="st17" x1="313.1" y1="50.9" x2="369.1" y2="83.2"/>
					<line class="st17" x1="369" y1="83.4" x2="313" y2="51.1"/>
					<line class="st17" x1="312.5" y1="51.4" x2="368.5" y2="83.7"/>
					<line class="st17" x1="368.4" y1="83.9" x2="312.4" y2="51.6"/>
					<path class="st14" d="M369.3,83.3v10.3c0-0.1,0-0.1-0.1-0.1c-0.1,0.1-0.5,0.3-0.5,0.3c-0.1,0-0.1,0.1-0.1-0.1
						c0-0.1,0-9.6,0-9.7c0-0.1,0-0.2,0.1-0.2c0.1-0.1,0.4-0.3,0.5-0.3C369.2,83.4,369.3,83.4,369.3,83.3z"/>
					<line class="st17" x1="369.2" y1="93.5" x2="368.5" y2="93.1"/>
					<path class="st17" d="M369.1,93.6c0,0-0.6-0.3-0.6-0.3"/>
					<line class="st17" x1="368.7" y1="93.8" x2="368.5" y2="93.7"/>
					<g>
						<path class="st14" d="M366.4,83.7c0,0-0.9-0.5-1-0.6c-0.1,0-0.1,0-0.1,0.1s0,8,0,8c0,0.1,0,0.2,0.1,0.2
							c0.1,0.1,1.4,0.8,1.4,0.8c0.1,0,0.1,0,0.1-0.1s0-1.1,0-1.1"/>
						<path class="st17" d="M367.1,91.3c0,0-0.6-0.3-0.7-0.4c-0.1-0.1-0.1-0.1-0.1-0.2s0-7.1,0-7.1"/>
						<path class="st17" d="M367.1,92.2c0,0-1.4-0.8-1.4-0.8c-0.1,0-0.1-0.1-0.1-0.2c0-0.1,0-8,0-8"/>
						<path class="st17" d="M365.5,90.4c0,0.1,0.3,0.2,0.3,0s0-7.1,0-7.1"/>
						<path class="st15" d="M365.7,90.3c-0.1,0-0.1,0-0.1-0.2s0-6.9,0-6.9"/>
						<line class="st15" x1="365.5" y1="90.5" x2="365.7" y2="90.3"/>
						<line class="st15" x1="365.5" y1="90.2" x2="365.6" y2="90.2"/>
						<line class="st15" x1="366.4" y1="90.6" x2="366.3" y2="90.7"/>
						<path class="st15" d="M366.6,90.8c-0.1,0-0.2,0.1-0.2,0.1"/>
					</g>
					<g>
						<path class="st14" d="M362.1,81.2c0,0-0.9-0.5-1-0.6c-0.1,0-0.1,0-0.1,0.1c0,0.1,0,8,0,8c0,0.1,0,0.2,0.1,0.2
							c0.1,0.1,1.4,0.8,1.4,0.8c0.1,0,0.1,0,0.1-0.1c0-0.1,0-1.1,0-1.1"/>
						<path class="st17" d="M362.8,88.8c0,0-0.6-0.3-0.7-0.4c-0.1-0.1-0.1-0.1-0.1-0.2c0-0.1,0-7.1,0-7.1"/>
						<path class="st17" d="M362.8,89.7c0,0-1.4-0.8-1.4-0.8c-0.1,0-0.1-0.1-0.1-0.2s0-8,0-8"/>
						<path class="st17" d="M361.2,87.9c0,0.1,0.3,0.2,0.3,0c0-0.2,0-7.1,0-7.1"/>
						<path class="st15" d="M361.4,87.8c-0.1,0-0.1,0-0.1-0.2c0-0.2,0-6.9,0-6.9"/>
						<line class="st15" x1="361.2" y1="88" x2="361.4" y2="87.8"/>
						<line class="st15" x1="361.2" y1="87.7" x2="361.3" y2="87.7"/>
						<line class="st15" x1="362.1" y1="88.1" x2="362" y2="88.2"/>
						<path class="st15" d="M362.3,88.3c-0.1,0-0.2,0.1-0.2,0.1"/>
					</g>
					<g>
						<path class="st14" d="M357.8,78.7c0,0-0.9-0.5-1-0.6c-0.1,0-0.1,0-0.1,0.1c0,0.1,0,8,0,8c0,0.1,0,0.2,0.1,0.2
							c0.1,0.1,1.4,0.8,1.4,0.8s0.1,0,0.1-0.1c0-0.1,0-1.1,0-1.1"/>
						<path class="st17" d="M358.5,86.4c0,0-0.6-0.3-0.7-0.4c-0.1-0.1-0.1-0.1-0.1-0.2s0-7.1,0-7.1"/>
						<path class="st17" d="M358.5,87.2c0,0-1.4-0.8-1.4-0.8c-0.1,0-0.1-0.1-0.1-0.2c0-0.1,0-8,0-8"/>
						<path class="st17" d="M356.9,85.4c0,0.1,0.3,0.2,0.3,0s0-7.1,0-7.1"/>
						<path class="st15" d="M357.1,85.3c-0.1,0-0.1,0-0.1-0.2s0-6.9,0-6.9"/>
						<line class="st15" x1="356.9" y1="85.5" x2="357.1" y2="85.4"/>
						<line class="st15" x1="356.9" y1="85.3" x2="357" y2="85.2"/>
						<line class="st15" x1="357.8" y1="85.6" x2="357.7" y2="85.7"/>
						<path class="st15" d="M358,85.9c-0.1,0-0.2,0.1-0.2,0.1"/>
					</g>
					<g>
						<path class="st14" d="M353.5,76.2c0,0-0.9-0.5-1-0.6c-0.1,0-0.1,0-0.1,0.1c0,0.1,0,8,0,8c0,0.1,0,0.2,0.1,0.2
							c0.1,0.1,1.4,0.8,1.4,0.8c0.1,0,0.1,0,0.1-0.1c0-0.1,0-1.1,0-1.1"/>
						<path class="st17" d="M354.1,83.9c0,0-0.6-0.3-0.7-0.4s-0.1-0.1-0.1-0.2c0-0.1,0-7.1,0-7.1"/>
						<path class="st17" d="M354.1,84.8c0,0-1.4-0.8-1.4-0.8c-0.1,0-0.1-0.1-0.1-0.2s0-8,0-8"/>
						<path class="st17" d="M352.6,82.9c0,0.1,0.3,0.2,0.3,0c0-0.2,0-7.1,0-7.1"/>
						<path class="st15" d="M352.8,82.8c-0.1,0-0.1,0-0.1-0.2c0-0.2,0-6.9,0-6.9"/>
						<line class="st15" x1="352.6" y1="83" x2="352.8" y2="82.9"/>
						<line class="st15" x1="352.6" y1="82.8" x2="352.7" y2="82.7"/>
						<line class="st15" x1="353.5" y1="83.1" x2="353.4" y2="83.2"/>
						<path class="st15" d="M353.7,83.4c-0.1,0-0.2,0.1-0.2,0.1"/>
					</g>
					<g>
						<path class="st14" d="M349.2,73.8c0,0-0.9-0.5-1-0.6c-0.1,0-0.1,0-0.1,0.1c0,0.1,0,8,0,8c0,0.1,0,0.2,0.1,0.2
							c0.1,0.1,1.4,0.8,1.4,0.8s0.1,0,0.1-0.1s0-1.1,0-1.1"/>
						<path class="st17" d="M349.8,81.4c0,0-0.6-0.3-0.7-0.4c-0.1-0.1-0.1-0.1-0.1-0.2s0-7.1,0-7.1"/>
						<path class="st17" d="M349.8,82.3c0,0-1.4-0.8-1.4-0.8c-0.1,0-0.1-0.1-0.1-0.2c0-0.1,0-8,0-8"/>
						<path class="st17" d="M348.2,80.5c0,0.1,0.3,0.2,0.3,0s0-7.1,0-7.1"/>
						<path class="st15" d="M348.5,80.4c-0.1,0-0.1,0-0.1-0.2s0-6.9,0-6.9"/>
						<line class="st15" x1="348.3" y1="80.6" x2="348.5" y2="80.4"/>
						<line class="st15" x1="348.2" y1="80.3" x2="348.4" y2="80.3"/>
						<line class="st15" x1="349.2" y1="80.7" x2="349" y2="80.8"/>
						<path class="st15" d="M349.3,80.9c-0.1,0-0.2,0.1-0.2,0.1"/>
					</g>
					<g>
						<path class="st14" d="M327.7,61.3c0,0-0.9-0.5-1-0.6c-0.1,0-0.1,0-0.1,0.1s0,8,0,8c0,0.1,0,0.2,0.1,0.2
							c0.1,0.1,1.4,0.8,1.4,0.8c0.1,0,0.1,0,0.1-0.1c0-0.1,0-1.1,0-1.1"/>
						<path class="st17" d="M328.3,69c0,0-0.6-0.3-0.7-0.4c-0.1-0.1-0.1-0.1-0.1-0.2s0-7.1,0-7.1"/>
						<path class="st17" d="M328.3,69.9c0,0-1.4-0.8-1.4-0.8c-0.1,0-0.1-0.1-0.1-0.2s0-8,0-8"/>
						<path class="st17" d="M326.7,68c0,0.1,0.3,0.2,0.3,0c0-0.2,0-7.1,0-7.1"/>
						<path class="st15" d="M327,67.9c-0.1,0-0.1,0-0.1-0.2c0-0.2,0-6.9,0-6.9"/>
						<line class="st15" x1="326.8" y1="68.1" x2="327" y2="68"/>
						<line class="st15" x1="326.7" y1="67.9" x2="326.9" y2="67.8"/>
						<line class="st15" x1="327.7" y1="68.2" x2="327.5" y2="68.3"/>
						<path class="st15" d="M327.8,68.5c-0.1,0-0.2,0.1-0.2,0.1"/>
					</g>
					<g>
						<path class="st14" d="M323.4,58.8c0,0-0.9-0.5-1-0.6s-0.1,0-0.1,0.1c0,0.1,0,8,0,8c0,0.1,0,0.2,0.1,0.2
							c0.1,0.1,1.4,0.8,1.4,0.8c0.1,0,0.1,0,0.1-0.1c0-0.1,0-1.1,0-1.1"/>
						<path class="st17" d="M324,66.5c0,0-0.6-0.3-0.7-0.4c-0.1-0.1-0.1-0.1-0.1-0.2c0-0.1,0-7.1,0-7.1"/>
						<path class="st17" d="M324,67.4c0,0-1.4-0.8-1.4-0.8c-0.1,0-0.1-0.1-0.1-0.2s0-8,0-8"/>
						<path class="st17" d="M322.4,65.5c0,0.1,0.3,0.2,0.3,0c0-0.2,0-7.1,0-7.1"/>
						<path class="st15" d="M322.7,65.4c-0.1,0-0.1,0-0.1-0.2s0-6.9,0-6.9"/>
						<line class="st15" x1="322.5" y1="65.6" x2="322.7" y2="65.5"/>
						<line class="st15" x1="322.4" y1="65.4" x2="322.6" y2="65.3"/>
						<line class="st15" x1="323.4" y1="65.7" x2="323.2" y2="65.9"/>
						<path class="st15" d="M323.5,66c-0.1,0-0.2,0.1-0.2,0.1"/>
					</g>
					<g>
						<path class="st14" d="M319.1,56.4c0,0-0.9-0.5-1-0.6c-0.1,0-0.1,0-0.1,0.1c0,0.1,0,8,0,8s0,0.2,0.1,0.2
							c0.1,0.1,1.4,0.8,1.4,0.8c0.1,0,0.1,0,0.1-0.1c0-0.1,0-1.1,0-1.1"/>
						<path class="st17" d="M319.7,64c0,0-0.6-0.3-0.7-0.4c-0.1-0.1-0.1-0.1-0.1-0.2s0-7.1,0-7.1"/>
						<path class="st17" d="M319.7,64.9c0,0-1.4-0.8-1.4-0.8c-0.1,0-0.1-0.1-0.1-0.2c0-0.1,0-8,0-8"/>
						<path class="st17" d="M318.1,63.1c0,0.1,0.3,0.2,0.3,0c0-0.2,0-7.1,0-7.1"/>
						<path class="st15" d="M318.4,63c-0.1,0-0.1,0-0.1-0.2c0-0.2,0-6.9,0-6.9"/>
						<line class="st15" x1="318.2" y1="63.2" x2="318.4" y2="63"/>
						<line class="st15" x1="318.1" y1="62.9" x2="318.3" y2="62.9"/>
						<line class="st15" x1="319.1" y1="63.3" x2="318.9" y2="63.4"/>
						<path class="st15" d="M319.2,63.5c-0.1,0-0.2,0.1-0.2,0.1"/>
					</g>
					<g>
						<path class="st14" d="M314.8,53.9c0,0-0.9-0.5-1-0.6s-0.1,0-0.1,0.1c0,0.1,0,8,0,8s0,0.2,0.1,0.2c0.1,0.1,1.4,0.8,1.4,0.8
							s0.1,0,0.1-0.1c0-0.1,0-1.1,0-1.1"/>
						<path class="st17" d="M315.4,61.5c0,0-0.6-0.3-0.7-0.4c-0.1-0.1-0.1-0.1-0.1-0.2c0-0.1,0-7.1,0-7.1"/>
						<path class="st17" d="M315.4,62.4c0,0-1.4-0.8-1.4-0.8c-0.1,0-0.1-0.1-0.1-0.2c0-0.1,0-8,0-8"/>
						<path class="st17" d="M313.8,60.6c0,0.1,0.3,0.2,0.3,0c0-0.2,0-7.1,0-7.1"/>
						<path class="st15" d="M314.1,60.5c-0.1,0-0.1,0-0.1-0.2c0-0.2,0-6.9,0-6.9"/>
						<line class="st15" x1="313.9" y1="60.7" x2="314.1" y2="60.5"/>
						<line class="st15" x1="313.8" y1="60.4" x2="314" y2="60.4"/>
						<line class="st15" x1="314.8" y1="60.8" x2="314.6" y2="60.9"/>
						<path class="st15" d="M314.9,61c-0.1,0-0.2,0.1-0.2,0.1"/>
					</g>
					<line class="st16" x1="369.2" y1="82.1" x2="369.4" y2="82"/>
				</g>
				<g>
					<ellipse transform="matrix(0.866 -0.5 0.5 0.866 8.4259 194.3855)" class="st18" cx="366.9" cy="81.5" rx="0.2" ry="0.3"/>
					<ellipse transform="matrix(0.866 -0.5 0.5 0.866 9.0954 191.8999)" class="st18" cx="362.6" cy="79" rx="0.2" ry="0.3"/>
					<ellipse transform="matrix(0.866 -0.5 0.5 0.866 9.4648 190.5209)" class="st18" cx="360.2" cy="77.6" rx="0.2" ry="0.3"/>
					<ellipse transform="matrix(0.866 -0.5 0.5 0.866 9.761 189.4153)" class="st18" cx="358.3" cy="76.5" rx="0.2" ry="0.3"/>
					<ellipse transform="matrix(0.866 -0.5 0.5 0.866 10.4267 186.9307)" class="st18" cx="354" cy="74" rx="0.2" ry="0.3"/>
					<ellipse transform="matrix(0.866 -0.5 0.5 0.866 11.0923 184.4461)" class="st18" cx="349.7" cy="71.5" rx="0.2" ry="0.3"/>
					<ellipse transform="matrix(0.866 -0.5 0.5 0.866 14.4034 172.0511)" class="st18" cx="328.3" cy="59.1" rx="0.2" ry="0.3"/>
					<ellipse transform="matrix(0.866 -0.5 0.5 0.866 15.073 169.542)" class="st18" cx="323.9" cy="56.6" rx="0.2" ry="0.3"/>
					<ellipse transform="matrix(0.866 -0.5 0.5 0.866 15.3588 168.4391)" class="st18" cx="322" cy="55.6" rx="0.2" ry="0.3"/>
					<ellipse transform="matrix(0.866 -0.5 0.5 0.866 15.7516 167.0539)" class="st18" cx="319.6" cy="54.1" rx="0.2" ry="0.3"/>
					<ellipse transform="matrix(0.866 -0.5 0.5 0.866 16.4041 164.5728)" class="st18" cx="315.3" cy="51.7" rx="0.2" ry="0.3"/>
				</g>
			</g>
			<g>
				<polygon class="st19" points="333.5,60.1 344.8,66.7 344.8,84.3 333.5,77.8 				"/>
				<line class="st20" x1="333.5" y1="60.5" x2="344.8" y2="67"/>
			</g>
			<g>
				<path class="st13" d="M349.4,90.9c0,0,0-24.8,0-24.9s0-0.1-0.1-0.1c-0.1,0-2.6-1.5-2.6-1.5s-0.2-0.1-0.3,0
					c-0.1,0.1-0.3,0.2-0.5,0.3s-0.8,0.6-1.1,1.6c-0.2,1-0.6,3.4-3.5,6c0,0-1.3,0.7-1.5,0.8c-0.2,0.1-0.3,0.3-0.3,0.5
					c0,0.2,0,0.9,0,0.9c0,0,0,0.1,0,0.1c0.1,0,1.1,0.6,1.1,0.6v10c-0.1,0.1-0.3,0.8-0.2,1.1c0,0-0.5,0.3-0.6,0.4
					c-0.1,0-0.1,0.1-0.1,0.1s0,0.1,0,0.2c0,0,0,0,0,0c0,0,0.9,0.5,0.9,0.5s0,0.5,0,0.5c0,0.1,0,0.1,0.1,0.2s2.4,1.4,2.4,1.4
					c0.1,0,0.1,0,0.2,0c0.1,0,1-0.6,1.1-0.6c0.1,0,0.2-0.1,0.2-0.3c0,0.1,0,0.3,0,0.4c0,0.1,0.1,0.3,0.3,0.5
					c0.2,0.1,0.3,0.2,0.5,0.2c0.2,0,0.3,0,0.4-0.1s0.6-0.3,0.6-0.3l0.6,0.4c0.1,0.2,0.3,0.6,0.3,0.9c0,0.2,0.2,0.4,0.3,0.5
					c0.1,0.1,0.2,0.1,0.3,0.2c0.1,0,0.3,0.1,0.5,0C348.8,91.3,349.4,90.9,349.4,90.9z"/>
				<path class="st14" d="M348.2,91.4c-0.2-0.2-0.3-0.3-0.4-0.5c-0.1-0.2-0.2-0.8-0.4-1c-0.1-0.2-0.5-0.6-0.8-0.8
					c-0.3-0.2-0.8-0.4-1.8-0.3c-0.6,0.1-0.7,0.2-1.2-0.1c-0.1-0.1-0.2-0.2-0.3-0.4c-0.1-0.2-0.1-0.3-0.1-0.5s0.1-1.6,1.4-2.4
					c1.4-0.9,2.2-1.3,2.5-1.4c0.4-0.2,0.5-0.6,0.5-0.9c0-0.3,0-7.4,0-7.6s-0.1-0.3-0.3-0.2"/>
				<path class="st14" d="M343.9,88.8c-0.2-0.2-0.4-0.5-0.4-0.9c0-0.4,0.1-1.6,1.4-2.4s2.3-1.3,2.5-1.4c0.3-0.1,0.5-0.5,0.5-0.9
					s0-7.2,0-7.6c0-0.3-0.2-0.4-0.3-0.4c-0.1,0-0.4,0.2-1,0.5c-0.6,0.3-1.3,0.8-1.7,1c-0.4,0.2-0.7,0.3-1,0.1s-0.4-0.3-0.5-0.4
					s-0.2-0.4-0.1-0.7c0-0.2,0.1-1.4,1-2.1c0.9-0.8,1.9-2.1,2.3-3c0.4-0.9,0.9-1.9,0.9-2.8c0.1-0.8,0.7-1.4,1.1-1.6
					c0.3-0.2,0.4-0.3,0.4-0.3l-2.4-1.4c0,0-0.2,0.1-0.4,0.3c-0.2,0.2-0.8,0.6-1.1,1.6c-0.2,1-0.5,2.9-2.8,5.4"/>
				<path class="st14" d="M343.8,76.7c-0.2-0.4-0.3-0.5-0.3-0.8c0-0.3,0.1-1.4,1-2.2c0.9-0.7,2.8-3,3.2-5.8c0.2-1.1,0.9-1.5,1.1-1.6
					c0.2-0.1,0.6-0.3,0.6-0.3"/>
				<line class="st15" x1="343.3" y1="87.7" x2="343.5" y2="87.9"/>
				<line class="st15" x1="344.6" y1="85.4" x2="344.9" y2="85.5"/>
				<line class="st15" x1="347.1" y1="84" x2="347.3" y2="84.1"/>
				<line class="st15" x1="347.7" y1="83" x2="347.9" y2="83.1"/>
				<line class="st15" x1="347.7" y1="75.4" x2="347.9" y2="75.6"/>
				<line class="st15" x1="343.3" y1="75.7" x2="343.5" y2="75.9"/>
				<line class="st15" x1="344.3" y1="73.6" x2="344.5" y2="73.7"/>
				<line class="st15" x1="347.6" y1="67.8" x2="347.8" y2="67.9"/>
				<line class="st15" x1="348.6" y1="66.2" x2="348.9" y2="66.3"/>
				<line class="st15" x1="346" y1="64.7" x2="346.2" y2="64.8"/>
				<line class="st15" x1="344.9" y1="66.3" x2="345.1" y2="66.4"/>
				<path class="st14" d="M343.4,89.7c-0.1-0.1-0.1-0.2-0.1-0.3c0-0.1,0-14.2,0-14.4c0-0.1-0.1-0.3-0.3-0.2
					c-0.2,0.1-0.3,0.1-0.3,0.2c0,0.1-0.1,0-0.1,0.2c0,0.1,0,0.3,0,0.4c0,0.1-0.1,0.2-0.1,0.2c-0.1,0-0.2,0.1-0.2,0.1s-0.1,0-0.2-0.1
					c-0.1-0.1-1.2-0.7-1.2-0.7"/>
				<path class="st14" d="M341.4,72.3c0,0,0.7-0.4,0.8-0.4c0.1,0,0.1-0.1,0.2,0c0.1,0.1,2.3,1.3,2.3,1.3"/>
				<path class="st14" d="M342.1,76c0,0,0-0.8,0-1s0.1-0.4,0.3-0.5c0.2-0.1,2.1-1.2,2.1-1.2"/>
				<line class="st15" x1="340" y1="73.1" x2="342.4" y2="74.5"/>
				<line class="st15" x1="339.7" y1="73.6" x2="342.1" y2="75"/>
				<path class="st14" d="M340.8,85.2c0,0,0,0.7,0,0.8s-0.1,0.2-0.2,0.3"/>
				<path class="st14" d="M343.3,88.3c0-0.1-0.1-0.3-0.3-0.2c-0.2,0.1-0.6,0.3-0.6,0.3l-1.5-0.9"/>
				<path class="st14" d="M342.4,88.4c0-0.1,0-0.1,0-0.2s0-0.1,0-0.1c0,0,0.7-0.4,0.7-0.4c0,0,0.1-0.1,0.1-0.3"/>
				<line class="st15" x1="340" y1="86.7" x2="342.4" y2="88.1"/>
				<line class="st15" x1="339.9" y1="86.8" x2="342.4" y2="88.2"/>
				<line class="st15" x1="340.7" y1="86.3" x2="343.1" y2="87.7"/>
				<line class="st15" x1="340.8" y1="86" x2="343.2" y2="87.4"/>
				<line class="st15" x1="340.8" y1="88.1" x2="343.3" y2="89.5"/>
				<line class="st17" x1="346.6" y1="64.5" x2="346.6" y2="70.6"/>
				<line class="st17" x1="346.6" y1="75.7" x2="346.6" y2="84.2"/>
				<line class="st17" x1="344.9" y1="76.6" x2="344.9" y2="85.2"/>
				<path class="st17" d="M345.2,76.5c0,0,0,4.9,0,5.1s-0.1,0.5-0.2,0.7"/>
				<line class="st17" x1="344.9" y1="81.4" x2="345.2" y2="81.6"/>
				<path class="st17" d="M344.9,88.8c0.2,0.2,0.3,0.6,0.3,0.9"/>
				<line class="st17" x1="346.6" y1="89" x2="346.6" y2="89.5"/>
				<g>
					
						<ellipse transform="matrix(0.4659 -0.8849 0.8849 0.4659 107.1187 351.6849)" class="st17" cx="344.9" cy="87.1" rx="0.8" ry="0.4"/>
					<path class="st17" d="M345,86.4c0.1,0,0.3,0.3,0,0.9s-0.6,0.5-0.7,0.3"/>
					<line class="st17" x1="344.9" y1="86.4" x2="344.9" y2="87.4"/>
				</g>
				<g>
					
						<ellipse transform="matrix(0.4659 -0.8849 0.8849 0.4659 117.75 345.2581)" class="st17" cx="344.9" cy="75.1" rx="0.8" ry="0.4"/>
					<path class="st17" d="M345,74.4c0.1,0,0.3,0.3,0,0.9c-0.4,0.6-0.6,0.5-0.7,0.3"/>
					<line class="st17" x1="344.9" y1="74.4" x2="344.9" y2="75.4"/>
				</g>
			</g>
			<g>
				<path class="st13" d="M333.5,81.7c0,0,0-24.8,0-24.9c0-0.1,0-0.1-0.1-0.1s-2.6-1.5-2.6-1.5c-0.1,0-0.2-0.1-0.3,0
					c-0.1,0.1-0.3,0.2-0.5,0.3c-0.3,0.1-0.8,0.6-1.1,1.6s-0.6,3.4-3.5,6c0,0-1.3,0.7-1.5,0.8c-0.2,0.1-0.3,0.3-0.3,0.5
					c0,0.2,0,0.9,0,0.9c0,0,0,0.1,0,0.1c0.1,0,1.1,0.6,1.1,0.6v10c-0.1,0.1-0.3,0.8-0.2,1.1c0,0-0.5,0.3-0.6,0.4
					c-0.1,0-0.1,0.1-0.1,0.1c0,0.1,0,0.1,0,0.2c0,0,0,0,0,0c0,0,0.9,0.5,0.9,0.5s0,0.5,0,0.5c0,0.1,0,0.1,0.1,0.2
					c0.1,0.1,2.4,1.4,2.4,1.4c0.1,0,0.1,0,0.2,0c0.1,0,1-0.6,1.1-0.6c0.1,0,0.2-0.1,0.2-0.3c0,0.1,0,0.3,0,0.4
					c0,0.1,0.1,0.3,0.3,0.5c0.2,0.1,0.3,0.2,0.5,0.2c0.2,0,0.3,0,0.4-0.1s0.6-0.3,0.6-0.3l0.6,0.4c0.1,0.2,0.3,0.6,0.3,0.9
					c0,0.2,0.2,0.4,0.3,0.5c0.1,0.1,0.2,0.1,0.3,0.2c0.1,0,0.3,0.1,0.5,0C332.8,82.1,333.5,81.7,333.5,81.7z"/>
				<path class="st14" d="M332.2,82.2c-0.2-0.2-0.3-0.3-0.4-0.5c-0.1-0.2-0.2-0.8-0.4-1s-0.5-0.6-0.8-0.8c-0.3-0.2-0.8-0.4-1.8-0.3
					c-0.6,0.1-0.7,0.2-1.2-0.1c-0.1-0.1-0.2-0.2-0.3-0.4c-0.1-0.2-0.1-0.3-0.1-0.5c0-0.2,0.1-1.6,1.4-2.4c1.4-0.9,2.2-1.3,2.5-1.4
					c0.4-0.2,0.5-0.6,0.5-0.9c0-0.3,0-7.4,0-7.6s-0.1-0.3-0.3-0.2"/>
				<path class="st14" d="M327.9,79.6c-0.2-0.2-0.4-0.5-0.4-0.9c0-0.4,0.1-1.6,1.4-2.4c1.3-0.7,2.3-1.3,2.5-1.4
					c0.3-0.1,0.5-0.5,0.5-0.9s0-7.2,0-7.6s-0.2-0.4-0.3-0.4c-0.1,0-0.4,0.2-1,0.5c-0.6,0.3-1.3,0.8-1.7,1c-0.4,0.2-0.7,0.3-1,0.1
					c-0.3-0.2-0.4-0.3-0.5-0.4s-0.2-0.4-0.1-0.7c0-0.2,0.1-1.4,1-2.1c0.9-0.8,1.9-2.1,2.3-3c0.4-0.9,0.9-1.9,0.9-2.8
					s0.7-1.4,1.1-1.6c0.3-0.2,0.4-0.3,0.4-0.3l-2.4-1.4c0,0-0.2,0.1-0.4,0.3c-0.2,0.2-0.8,0.6-1.1,1.6c-0.2,1-0.5,2.9-2.8,5.4"/>
				<path class="st14" d="M327.8,67.5c-0.2-0.4-0.3-0.5-0.3-0.8c0-0.3,0.1-1.4,1-2.2c0.9-0.7,2.8-3,3.2-5.8c0.2-1.1,0.9-1.5,1.1-1.6
					c0.2-0.1,0.6-0.3,0.6-0.3"/>
				<line class="st15" x1="327.3" y1="78.6" x2="327.5" y2="78.7"/>
				<line class="st15" x1="328.7" y1="76.2" x2="328.9" y2="76.3"/>
				<line class="st15" x1="331.1" y1="74.8" x2="331.4" y2="74.9"/>
				<line class="st15" x1="331.7" y1="73.8" x2="331.9" y2="74"/>
				<line class="st15" x1="331.7" y1="66.3" x2="331.9" y2="66.4"/>
				<line class="st15" x1="327.3" y1="66.5" x2="327.5" y2="66.7"/>
				<line class="st15" x1="328.3" y1="64.4" x2="328.6" y2="64.5"/>
				<line class="st15" x1="331.6" y1="58.6" x2="331.8" y2="58.8"/>
				<line class="st15" x1="332.7" y1="57" x2="332.9" y2="57.1"/>
				<line class="st15" x1="330" y1="55.5" x2="330.2" y2="55.6"/>
				<line class="st15" x1="328.9" y1="57.1" x2="329.1" y2="57.2"/>
				<path class="st14" d="M327.4,80.5c-0.1-0.1-0.1-0.2-0.1-0.3c0-0.1,0-14.2,0-14.4c0-0.1-0.1-0.3-0.3-0.2
					c-0.2,0.1-0.3,0.1-0.3,0.2c0,0.1-0.1,0-0.1,0.2s0,0.3,0,0.4c0,0.1-0.1,0.2-0.1,0.2c-0.1,0-0.2,0.1-0.2,0.1c-0.1,0-0.1,0-0.2-0.1
					s-1.2-0.7-1.2-0.7"/>
				<path class="st14" d="M325.5,63.1c0,0,0.7-0.4,0.8-0.4c0.1,0,0.1-0.1,0.2,0c0.1,0.1,2.3,1.3,2.3,1.3"/>
				<path class="st14" d="M326.2,66.8c0,0,0-0.8,0-1s0.1-0.4,0.3-0.5c0.2-0.1,2.1-1.2,2.1-1.2"/>
				<line class="st15" x1="324" y1="63.9" x2="326.4" y2="65.3"/>
				<line class="st15" x1="323.7" y1="64.4" x2="326.2" y2="65.8"/>
				<path class="st14" d="M324.9,76c0,0,0,0.7,0,0.8c0,0.1-0.1,0.2-0.2,0.3"/>
				<path class="st14" d="M327.3,79.1c0-0.1-0.1-0.3-0.3-0.2c-0.2,0.1-0.6,0.3-0.6,0.3l-1.5-0.9"/>
				<path class="st14" d="M326.4,79.3c0-0.1,0-0.1,0-0.2s0-0.1,0-0.1c0,0,0.7-0.4,0.7-0.4c0,0,0.1-0.1,0.1-0.3"/>
				<line class="st15" x1="324" y1="77.5" x2="326.4" y2="78.9"/>
				<line class="st15" x1="323.9" y1="77.6" x2="326.4" y2="79"/>
				<line class="st15" x1="324.7" y1="77.1" x2="327.2" y2="78.5"/>
				<line class="st15" x1="324.9" y1="76.9" x2="327.3" y2="78.3"/>
				<line class="st15" x1="324.9" y1="78.9" x2="327.3" y2="80.3"/>
				<line class="st17" x1="330.7" y1="55.3" x2="330.7" y2="61.4"/>
				<line class="st17" x1="330.7" y1="66.5" x2="330.7" y2="75"/>
				<line class="st17" x1="328.9" y1="67.4" x2="328.9" y2="76"/>
				<path class="st17" d="M329.2,67.3c0,0,0,4.9,0,5.1s-0.1,0.5-0.2,0.7"/>
				<line class="st17" x1="328.9" y1="72.2" x2="329.2" y2="72.4"/>
				<path class="st17" d="M328.9,79.6c0.2,0.2,0.3,0.6,0.3,0.9"/>
				<line class="st17" x1="330.7" y1="79.8" x2="330.7" y2="80.3"/>
				<g>
					
						<ellipse transform="matrix(0.4659 -0.8849 0.8849 0.4659 106.7168 332.6455)" class="st17" cx="328.9" cy="77.9" rx="0.8" ry="0.4"/>
					<path class="st17" d="M329.1,77.2c0.1,0,0.3,0.3,0,0.9c-0.4,0.6-0.6,0.5-0.7,0.3"/>
					<line class="st17" x1="328.9" y1="77.2" x2="328.9" y2="78.2"/>
				</g>
				<g>
					
						<ellipse transform="matrix(0.4659 -0.8849 0.8849 0.4659 117.3481 326.2188)" class="st17" cx="328.9" cy="65.9" rx="0.8" ry="0.4"/>
					<path class="st17" d="M329.1,65.2c0.1,0,0.3,0.3,0,0.9c-0.4,0.6-0.6,0.5-0.7,0.3"/>
					<line class="st17" x1="328.9" y1="65.2" x2="328.9" y2="66.2"/>
				</g>
			</g>
		</g>
		<g>
			<g id="Mast_1_">
				<g>
					<path class="st21" d="M323.1,68.7c0,0,0-5.1,0-5.1l0.3-0.2l0.6,0.3v0.5l2.2,1.3v-0.2l0.3-0.2l1.1,0.6L329,65v-0.4l0.9-0.5
						c0,0,10.7,6,10.9,6.1c0.3,0.2,0.4,0.3,0.4,0.5c0,0.2,0,0.4,0,0.4c0.3,0,0.3,0.3,0.3,0.6c0,0.2,0,2.6,0,2.6l1.5,0.9v-0.4
						l0.3-0.1l0.6,0.5v14l-0.3,0.2l-4-2.3v-0.3H339l-1.4,0.8l-1.8-1"/>
					<polyline class="st22" points="337.6,87.6 337.6,73 326.6,66.7 					"/>
					<polyline class="st22" points="326.6,67.8 326.6,66.7 327.6,66.1 					"/>
					<polyline class="st22" points="339,86.8 339,72.2 337.8,70.6 					"/>
					<polyline class="st22" points="329,64.6 331.6,69.1 339.9,70.9 341,70.4 					"/>
					<line class="st22" x1="328" y1="65.9" x2="330" y2="66.4"/>
					<line class="st22" x1="329.6" y1="65.6" x2="329.6" y2="66.2"/>
					<path class="st22" d="M341.1,70.5l-1.3,0.7l-8.2-1.8c-0.2-0.2-0.3-0.4-0.1-0.6"/>
					<path class="st22" d="M332.7,70.2c0.7,0.1,1.5,0.1,1.8-0.1"/>
					<polyline class="st22" points="335,72.6 335.4,72.4 337.3,73.5 337.3,87.4 					"/>
					<line class="st22" x1="337.2" y1="73.8" x2="335.2" y2="72.6"/>
					<polyline class="st22" points="326.6,67.2 328.8,68.5 328.8,69 					"/>
					<polyline class="st22" points="339.6,86.8 339.6,72.9 341.5,71.8 					"/>
					<polyline class="st22" points="341.5,71.3 339.4,72.5 339.3,86.8 					"/>
					<polyline class="st22" points="341.3,74.4 340.7,74 340.7,73.5 339.6,72.9 					"/>
					<line class="st22" x1="339" y1="71.1" x2="340.4" y2="72"/>
					<polyline class="st22" points="337.6,73 339,72.2 339.4,72.5 					"/>
					<ellipse class="st22" cx="333.6" cy="68.1" rx="1.7" ry="1"/>
					<path class="st22" d="M335.2,68.1v0.5c-0.3,0.4-0.6,0.8-1.7,0.8c-1.1,0-1.5-0.6-1.6-0.7v-0.5"/>
					
						<ellipse transform="matrix(0.7562 -0.6544 0.6544 0.7562 33.1966 238.2391)" class="st22" cx="336.3" cy="74.6" rx="0.2" ry="0.4"/>
					
						<ellipse transform="matrix(0.7562 -0.6544 0.6544 0.7562 27.0764 240.5424)" class="st22" cx="336.3" cy="83.9" rx="0.2" ry="0.4"/>
					
						<ellipse transform="matrix(0.7562 -0.6544 0.6544 0.7562 26.2501 240.8502)" class="st22" cx="336.3" cy="85.2" rx="0.2" ry="0.4"/>
				</g>
				<g>
					<path class="st2" d="M335.7,133.8c0,0,0-59.5,0-60.1s-0.1-0.5-0.6-0.8c-0.5-0.3-8.5-5.1-8.8-5.3c-0.4-0.3-0.7-0.4-1-0.2
						s-6,3.5-6.3,3.7c-0.3,0.2-0.6,0.3-0.6,0.6c0,0.3,0,52,0,52L335.7,133.8z"/>
					<path class="st22" d="M319,71.1c0,0-0.2,3.3,0,3.5c0.2,0.2,3.7,2.1,3.7,2.1l5.9,0l6.6-3.8"/>
					<path class="st22" d="M335.7,73.7c0,0-6.5,3.7-6.7,3.8c-0.2,0.1-0.3,0.1-0.4,0.1c-0.1,0-5.7,0-5.9,0s-0.4,0-0.5-0.1
						s-3.8-2.2-3.8-2.2"/>
					<path class="st22" d="M319,74.6c-0.1,0.1-0.4,0.3-0.5,0.7"/>
					<path class="st22" d="M318.4,75.8c0,0,3.7,2.1,3.8,2.2s0.3,0.1,0.5,0.1s5.7,0,5.9,0c0.1,0,0.3,0,0.4-0.1s6.7-3.9,6.7-3.9"/>
					<path class="st22" d="M329,129.9c0,0,0-52.1,0-52.4c0-0.2,0-0.5-0.5-0.8c0,0.3,0,52.9,0,52.9"/>
					<path class="st22" d="M322.2,126c0,0,0-48.1,0-48.4s0.2-0.7,0.5-0.8v49.5"/>
					<line class="st22" x1="321.1" y1="77.5" x2="321.1" y2="125.3"/>
					<line class="st22" x1="319.9" y1="76.7" x2="319.9" y2="124.5"/>
					<line class="st22" x1="319.6" y1="124.4" x2="319.6" y2="76.6"/>
					<line class="st22" x1="330.7" y1="77.1" x2="330.7" y2="130.8"/>
					<line class="st22" x1="331.8" y1="76.5" x2="331.8" y2="131.5"/>
					<line class="st22" x1="332.1" y1="131.5" x2="332.1" y2="76.3"/>
				</g>
			</g>
			<g>
				<g>
					<g>
						<path class="st23" d="M334.3,138c0,0.4-0.3,0.8-0.6,1c-0.4,0.2-3.3,1.9-3.5,2c-0.2,0.1-0.3,0.1-0.4,0
							c-0.2-0.1-0.3-0.2-0.6-0.3c-0.1-0.1-0.2-0.2-0.2-0.4s0-15.7,0-15.9c0-0.4,0.3-0.8,0.6-1c0.3-0.2,3.2-1.9,3.5-2
							c0.2-0.1,0.2-0.1,0.4,0c0.1,0.1,0.4,0.2,0.5,0.3c0.2,0.1,0.2,0.2,0.2,0.4S334.3,137.4,334.3,138z"/>
						<path class="st24" d="M334.2,121.8c-0.1-0.2-0.3-0.2-0.5-0.1c-0.2,0.1-3.3,1.9-3.5,2c-0.2,0.1-0.6,0.4-0.6,1
							c0,0.6,0,15.8,0,15.9c0,0.2,0.2,0.5,0.4,0.4"/>
						<line class="st22" x1="329.1" y1="140.3" x2="329.7" y2="140.6"/>
						<line class="st22" x1="329.1" y1="124.4" x2="329.7" y2="124.8"/>
						<line class="st22" x1="329.7" y1="123.4" x2="330.3" y2="123.8"/>
						<line class="st22" x1="333.2" y1="121.4" x2="333.7" y2="121.8"/>
						<g>
							
								<ellipse transform="matrix(0.5872 -0.8095 0.8095 0.5872 36.0553 320.2508)" class="st25" cx="332" cy="124.8" rx="0.6" ry="0.4"/>
							
								<ellipse transform="matrix(0.5872 -0.8095 0.8095 0.5872 33.3713 321.619)" class="st25" cx="332" cy="128.1" rx="0.6" ry="0.4"/>
							
								<ellipse transform="matrix(0.5872 -0.8095 0.8095 0.5872 30.6874 322.9872)" class="st25" cx="332" cy="131.4" rx="0.6" ry="0.4"/>
							
								<ellipse transform="matrix(0.5872 -0.8095 0.8095 0.5872 28.0034 324.3554)" class="st25" cx="332" cy="134.7" rx="0.6" ry="0.4"/>
							
								<ellipse transform="matrix(0.5872 -0.8095 0.8095 0.5872 25.3195 325.7236)" class="st25" cx="332" cy="138" rx="0.6" ry="0.4"/>
						</g>
					</g>
					<g>
						<path class="st23" d="M332,133.2l22.2,12.8c-1-1.1,0.5-3.3,1.6-2.8l-22.2-12.8c0.1-0.7-0.4-1-0.7-1.1c-0.5-0.1-1.2,0.1-2,1.4
							c-0.8,1.3-0.5,2.3,0,2.6C331.4,133.7,331.6,133.4,332,133.2z"/>
						<path class="st22" d="M332,133.2c-0.6-0.4-1-0.9-0.3-2c0.7-1.1,1.3-1.1,2-0.8"/>
					</g>
				</g>
				<g>
					<path class="st23" d="M318.1,121.5c0,0-18.4-10.4-20.3-11.6c-2.3-1.3-8-2.7-12.7,0c-5.4,3.2-25.4,14.6-25.4,14.6
						c1.1-0.1,2.5,1.2,1.8,2.7c0,0,23.5-13.3,25.6-14.6c2.1-1.2,6-2.1,8.9-0.5s22.1,12.3,22.1,12.3L318.1,121.5z"/>
					<path class="st24" d="M285.2,110c2-0.1,2,2.8,2,2.8"/>
					<path class="st24" d="M297.9,110c-1.1,0.3-1.7,1.6-1.2,2.7"/>
				</g>
			</g>
			<g id="Cart_2_">
				<g>
					<g>
						<path class="st2" d="M294.5,110c0,0,50.5,29.1,52.4,30.3c1.8,1.1,2.5,2.2,2.5,4.7s0,70.6,0,71.7c0,1,0,1.9-1,2.4
							c-1,0.6-11.9,6.8-11.9,6.8s-0.1,9.4-0.1,10.6c0,1.2,0.2,2.1-0.5,2.6c-0.7,0.5-23.6,13.4-24.7,14c-1.1,0.6-1.7,0.6-2.7,0
							c-0.8-0.5-28.9-18-28.9-18s0.2-13.8,0.2-19.3c0-5.1,0.3-6.8-2.7-8.7c-3.1-1.9-7.4-4.4-8.8-5.4c-1.4-1-2.1-2-2.1-5
							c-0.1-3,0-67.9,0-71.5c0-1.2,0.5-1.6,1.1-2c2.2-1.3,17.9-10.2,23.3-13.3C291.7,109,292.6,109,294.5,110z"/>
						<path class="st26" d="M336.3,225.9c-1.8,1-10.7,6.4-11.4,6.9c-1.2,0.7-2.1,0.8-3,0.3c-2.1-1.3-7.2-4.2-8.3-4.9
							c-1.7-1-2.8-0.9-2.8,1.3c0,1.9,0.2,20.2,0.2,21.2c0,1.6-0.6,3.3-2.2,2.4"/>
						<line class="st27" x1="336.2" y1="237.5" x2="310.7" y2="252.2"/>
						<path class="st27" d="M336.2,231c0,0-22.9,13.5-23.8,14c-0.9,0.5-1.7,0.3-2.2,0c-0.5-0.3-1.3-0.8-1.3-0.8"/>
						<path class="st27" d="M346.8,140.2"/>
						<path class="st27" d="M322,233c2,0.5,2-1.3,2-2s0.1-72.3,0.1-72.3c0-0.9-0.5-2.7-2.1-3.7c-1.6-0.9-52.6-30.4-53.8-31
							c-1.1-0.6-1.9-0.4-2,0.3"/>
						<path class="st27" d="M349.3,217.4c0,0-24.1,13.9-24.5,14.2c-0.3,0.2-0.5,0.2-0.7,0.1"/>
						<path class="st27" d="M281.1,211.7c0-4-2.7-6-4.4-7.1c-0.8-0.5-6.8-3.9-7.9-4.6c-0.4-0.3-0.6-0.8-0.6-1.9c0-0.7,0-70.3,0-70.6
							c0-0.3-0.1-0.5,0.2-0.7c0.3-0.2,0.8,0.1,1.2,0.3c0.4,0.2,50.5,29.1,51.4,29.7c1,0.6,1.2,1.4,1.2,2c0,0,0,69.7,0,70.5
							c0,1.3-0.9,0.8-1.4,0.5c-0.6-0.3-6.7-3.8-7.6-4.4c-1.7-1-4.1,0.2-4.1,2.1c0,2.8,0,20.5,0,21.4c0,0.9-0.2,1.8-1.8,0.8
							c-1.5-0.9-12-6.9-12-6.9s-11.8-6.5-12.7-7c-0.9-0.5-1.2-1.1-1.2-2C281.3,232.9,281.1,211.7,281.1,211.7z"/>
						<path class="st27" d="M294.5,241.8c0,0,10.5,6,12,6.9c1.5,0.9,1.8,1.1,1.8-0.7c0-0.9,0-18.1,0-20.9c0-2.1,2.5-3.6,4.5-2.5
							c1,0.5,6.8,3.9,7.5,4.3c0.8,0.4,1.2,0.7,1.2,0c0-0.8,0.1-70.3,0.1-70.3c0-0.9-0.4-1.2-0.8-1.3c-0.3-0.2-51.2-29.6-51.4-29.7
							c-0.2-0.1-0.9-0.6-0.9,0.3s0,12.5,0,12.5s0,55.6,0,56.9c0,1.7,0,1.9,1.5,2.8c0.8,0.5,5.1,2.9,7.1,4c2.1,1.2,4.6,3.6,4.6,7.7
							c0,0,0,20.6,0,21.4s0.1,1.4,1.1,2C283.9,235.7,294.5,241.8,294.5,241.8z"/>
						<g>
							<g>
								<path class="st27" d="M333.6,179.7c1.4-0.8,6.5-3.6,7-3.9c0.8-0.5,2.4,0.4,0.8,1.4c-2.4,1.5-6.1,3.5-6.9,3.9
									c-0.8,0.4-1.3,0.4-1.8,0.3C332.8,180.8,333.1,180,333.6,179.7z"/>
								<path class="st27" d="M333.6,179.7c0.5,0.2,0.8,0.8,0.9,1.4"/>
								<path class="st27" d="M340.6,175.8c0.6,0.4,0.7,0.7,0.8,1.4"/>
							</g>
							<g>
								<path class="st27" d="M333.6,185.6c1.4-0.8,6.5-3.6,7-3.9c0.8-0.5,2.4,0.4,0.8,1.4c-2.4,1.5-6.1,3.5-6.9,3.9
									c-0.8,0.4-1.3,0.4-1.8,0.3C332.8,186.6,333.1,185.9,333.6,185.6z"/>
								<path class="st27" d="M333.6,185.6c0.5,0.2,0.8,0.8,0.9,1.4"/>
								<path class="st27" d="M340.6,181.7c0.6,0.4,0.7,0.7,0.8,1.4"/>
							</g>
							<g>
								<path class="st27" d="M333.6,191.5c1.4-0.8,6.5-3.6,7-3.9c0.8-0.5,2.4,0.4,0.8,1.4c-2.4,1.5-6.1,3.5-6.9,3.9
									c-0.8,0.4-1.3,0.4-1.8,0.3C332.8,192.5,333.1,191.8,333.6,191.5z"/>
								<path class="st27" d="M333.6,191.5c0.5,0.2,0.8,0.8,0.9,1.4"/>
								<path class="st27" d="M340.6,187.6c0.6,0.4,0.7,0.7,0.8,1.4"/>
							</g>
							<g>
								<path class="st27" d="M333.6,197.4c1.4-0.8,6.5-3.6,7-3.9c0.8-0.5,2.4,0.4,0.8,1.4c-2.4,1.5-6.1,3.5-6.9,3.9
									c-0.8,0.4-1.3,0.4-1.8,0.3C332.8,198.4,333.1,197.7,333.6,197.4z"/>
								<path class="st27" d="M333.6,197.4c0.5,0.2,0.8,0.8,0.9,1.4"/>
								<path class="st27" d="M340.6,193.5c0.6,0.4,0.7,0.7,0.8,1.4"/>
							</g>
							<g>
								<path class="st27" d="M333.6,203.3c1.4-0.8,6.5-3.6,7-3.9c0.8-0.5,2.4,0.4,0.8,1.4c-2.4,1.5-6.1,3.5-6.9,3.9
									c-0.8,0.4-1.3,0.4-1.8,0.3C332.8,204.3,333.1,203.6,333.6,203.3z"/>
								<path class="st27" d="M333.6,203.3c0.5,0.2,0.8,0.8,0.9,1.4"/>
								<path class="st27" d="M340.6,199.4c0.6,0.4,0.7,0.7,0.8,1.4"/>
							</g>
							<g>
								<path class="st27" d="M333.6,209.1c1.4-0.8,6.5-3.6,7-3.9c0.8-0.5,2.4,0.4,0.8,1.4c-2.4,1.5-6.1,3.5-6.9,3.9
									c-0.8,0.4-1.3,0.4-1.8,0.3C332.8,210.2,333.1,209.5,333.6,209.1z"/>
								<path class="st27" d="M333.6,209.1c0.5,0.2,0.8,0.8,0.9,1.4"/>
								<path class="st27" d="M340.6,205.2c0.6,0.4,0.7,0.7,0.8,1.4"/>
							</g>
							<g>
								<path class="st27" d="M333.6,215c1.4-0.8,6.5-3.6,7-3.9c0.8-0.5,2.4,0.4,0.8,1.4c-2.4,1.5-6.1,3.5-6.9,3.9
									c-0.8,0.4-1.3,0.4-1.8,0.3C332.8,216.1,333.1,215.4,333.6,215z"/>
								<path class="st27" d="M333.6,215c0.5,0.2,0.8,0.8,0.9,1.4"/>
								<path class="st27" d="M340.6,211.1c0.6,0.4,0.7,0.7,0.8,1.4"/>
							</g>
						</g>
						<path class="st27" d="M267.2,123c0.6-0.1,1.1,0.3,1.3,0.4c0.2,0.1,52.7,30.5,53.8,31c1,0.5,2.5,2.2,2.5,4.1s0,72.4,0,72.9
							c0,0.5-0.1,1.2-0.8,1.6"/>
						<path class="st24" d="M326.8,200c0-0.4,0.3-1.5,1-1.9c0.8-0.4,18-10.2,18.4-10.5c0.4-0.2,1.2-0.4,1.2,0.5s0,25.8,0,26.6
							c0,0.8-0.3,1.4-1.2,1.9c-0.8,0.5-17.8,10.3-18.4,10.6c-0.6,0.3-1,0.2-1-0.6S326.8,200,326.8,200z"/>
					</g>
					<path class="st27" d="M310.7,229.4c0.2,0.1,0.4,0.2,0.7,0c0.3-0.2,2.1-1.2,2.1-1.2"/>
					<path class="st27" d="M312.9,227.8c-0.7-0.1-1.4,0.3-1.4,1.6c0,1.3,0,21.9,0,22.3s-0.1,1-0.4,1.3"/>
					<path class="st24" d="M322.1,172c0,0,1.8,1,2,1.1c0.2,0.1,0.5,0.2,0.7,0s24.6-14.2,24.6-14.2"/>
					<path class="st22" d="M321.9,155c0-0.4,0.3-0.6,0.3-0.6l24.6-14.3"/>
					<path class="st22" d="M324.1,158.7c0.3,0.3,0.7-0.1,0.7-0.1l24.6-14.2"/>
					<path class="st22" d="M268.2,124c0-0.2,0.1-0.4,0.3-0.6c0.2-0.1,24.5-14.1,24.5-14.1"/>
					<path class="st28" d="M296.2,136.7c0,0,20.5,12,21.9,12.8c1.4,0.8,2.9,1,4.5,0.1s14.8-8.5,15.8-9.2s1.1-1.7-0.3-2.5
						c-1.4-0.8-40.1-23.1-40.6-23.4c-1.4-0.8-3.2-1.1-4.8-0.1c-0.9,0.5-15.1,8.5-15.6,8.8c-0.5,0.4-1.6,1.6,0,2.5
						C278.7,126.6,296.2,136.7,296.2,136.7z"/>
					<path class="st24" d="M302.3,140.5c0,0,0.8-0.4,1-0.6c0.3-0.2,0.5-0.6,0-0.9c-0.5-0.3-7.1-4.1-7.6-4.4c-0.5-0.3-1.1-0.3-1.7,0
						c-0.6,0.3-0.9,0.5-0.9,0.5"/>
					<path class="st24" d="M294,135.3c0.4-0.3,1.1-0.5,1.7-0.1c0.7,0.4,7.7,4.5,7.7,4.5"/>
					<line class="st22" x1="303.3" y1="139" x2="303.3" y2="139.5"/>
					<line class="st22" x1="295.7" y1="134.6" x2="295.7" y2="135.2"/>
					<line class="st22" x1="294" y1="134.6" x2="294" y2="135.3"/>
					<line class="st22" x1="299.6" y1="137.5" x2="298.7" y2="138"/>
				</g>
				<g>
					<polyline class="st22" points="330.7,223 330.7,223.3 329.3,224.2 					"/>
					<g>
						<path class="st22" d="M329.3,221.7c0-0.4,0.2-0.8,0.6-1c0.4-0.2,14.1-8.1,14.4-8.3s0.6-0.1,0.6,0.3c0,0.4,0,2.2,0,2.7
							s-0.1,0.7-0.6,1c-0.5,0.3-14,8.1-14.4,8.3s-0.6,0-0.6-0.3C329.3,224,329.3,221.7,329.3,221.7z"/>
						<line class="st22" x1="329.4" y1="224.7" x2="344.7" y2="215.9"/>
						<polyline class="st22" points="329.3,223 343,215.1 343,213.1 						"/>
						<path class="st22" d="M343.3,213c0,0,0,1.7,0,1.9c0,0.2,0,0.4-0.3,0.6c-0.3,0.2-13.7,7.9-13.7,7.9"/>
						<path class="st25" d="M339.3,217.2c0,0,0.2,0.2,0.3,0.3c0,0.2,0.1,0.2-0.1,0.3s-8.8,5.1-8.8,5.1l-0.6-0.4L339.3,217.2z"/>
						<polyline class="st22" points="339.6,217.1 340.2,217.5 340.8,217.5 344.6,215.3 344.6,212.4 						"/>
						<g>
							<path class="st22" d="M333.7,218.5c0,0,0,0.5,0,0.7c0,0.2,0,0.5,0.2,0.4c0.2-0.1,0.8-0.5,1.1-0.6c0.3-0.1,0.2-0.2,0.2-0.4
								s0-0.9,0-0.9"/>
							<path class="st22" d="M333.7,219.2c0,0,0.7-0.4,0.9-0.5c0.1-0.1,0.2-0.1,0.2-0.3c0-0.2,0-0.5,0-0.5"/>
							<line class="st22" x1="334.6" y1="218.7" x2="335.1" y2="218.9"/>
							<line class="st22" x1="334.8" y1="218.3" x2="335.2" y2="218.5"/>
						</g>
						<g>
							<path class="st22" d="M335.7,217.3c0,0,0,0.5,0,0.7c0,0.2,0,0.5,0.2,0.4c0.2-0.1,0.8-0.5,1.1-0.6c0.3-0.1,0.2-0.2,0.2-0.4
								s0-0.9,0-0.9"/>
							<path class="st22" d="M335.7,218c0,0,0.7-0.4,0.9-0.5c0.1-0.1,0.2-0.1,0.2-0.3s0-0.5,0-0.5"/>
							<line class="st22" x1="336.6" y1="217.5" x2="337.1" y2="217.7"/>
							<line class="st22" x1="336.8" y1="217.2" x2="337.2" y2="217.3"/>
						</g>
						
							<ellipse transform="matrix(0.4632 -0.8862 0.8862 0.4632 -7.1311 417.8793)" class="st22" cx="341.4" cy="214.8" rx="0.5" ry="0.3"/>
						
							<ellipse transform="matrix(0.4632 -0.8862 0.8862 0.4632 -8.3872 417.1868)" class="st22" cx="340.2" cy="215.5" rx="0.5" ry="0.3"/>
						
							<ellipse transform="matrix(0.4632 -0.8862 0.8862 0.4632 -9.7536 416.452)" class="st22" cx="338.9" cy="216.3" rx="0.3" ry="0.2"/>
						
							<ellipse transform="matrix(0.4632 -0.8862 0.8862 0.4632 -9.1309 416.7715)" class="st22" cx="339.5" cy="215.9" rx="0.3" ry="0.2"/>
					</g>
				</g>
				<g>
					<path class="st22" d="M315,229c-0.7,0.4-1.2,0.8-1.4,1.3c-0.2,0.5-0.2,0.7-0.2,1.1s0,2,0,2.4c0,0.5,0.4,1,0.8,0.8
						s2.8-1.5,3.3-1.8c0.4-0.2,1.1-0.7,1.1-1.7"/>
					<path class="st22" d="M313.6,234.3c0.2,0.2,0.4,0.4,0.9,0.1c0.5-0.3,2.4-1.4,2.9-1.7c0.5-0.3,1.1-0.7,1.1-1.6"/>
					<path class="st22" d="M313.5,232.1c0,0,1.8-1.1,1.8-1.1l-0.2-1.8"/>
					<line class="st22" x1="313.7" y1="230.3" x2="313.9" y2="231.8"/>
					<line class="st22" x1="315.3" y1="231" x2="315.3" y2="229.3"/>
				</g>
				<g>
					<path class="st23" d="M284.2,227.3c0.9-5.6,5.1-5.7,8.6-3.7c3.2,1.8,6.5,5.7,7.5,9.9c0.7,3,0.8,5,0.4,6.8s-1.6,2.9-4.3,3.6"/>
					<path class="st23" d="M289.9,223c-5.1-0.6-5.7,4-5.6,5.7c0.1,1.7,0.9,8.2,6.1,12.7c5.2,4.5,8.5,2.1,9.4,0.3
						c1-1.9,0.9-7.7-1.8-11.9C294.8,224.7,291.4,223.1,289.9,223z"/>
				</g>
				<g>
					<path class="st24" d="M282.1,164.5c0-6.7,4.2-7.2,6.4-7c4.9,0.4,14.1,8.6,14,17.6c-0.2,11.8,0,31.9,0,35.1
						c0,2.5-3.2,7.6-9.6,4.4c-6.3-3.2-10.8-11.7-10.8-17.8C282.1,190.8,282.1,164.5,282.1,164.5z"/>
					<path class="st29" d="M298.1,215.5c2.4-0.5,4.7-2.7,4.7-5.8c0-3.1,0-32,0-34.5s-0.8-9-8-14.9c-5-4.1-8.4-2.8-9.7-2.1"/>
					<path class="st24" d="M297.1,173.1c0-3.2-2.5-7.4-5.1-8.2s-4.4,0.4-4.4,3s0,28.8,0,32.3c0,2.6,3.2,6.9,5.5,7.8
						c2.4,0.9,3.9-0.1,3.9-2.2S297.1,173.1,297.1,173.1z"/>
					<path class="st24" d="M290.8,164.7c-0.6,0.4-0.3,1.2-0.3,1.7c0,0.5,0,30.5,0,31.9s1.4,7.3,6.4,8.6"/>
					<line class="st24" x1="290.5" y1="166.4" x2="287.6" y2="168.1"/>
					<line class="st24" x1="290.5" y1="198.3" x2="287.6" y2="200"/>
				</g>
			</g>
			<g id="Front_Handle_1_">
				<path class="st23" d="M355.8,143.3c1.7,1.1,3,2.3,3.2,4.2c0.2,2.3-1.1,4.1-2.8,5.1c-1.9,1.1-23.1,13.3-25.7,14.8
					c-2.6,1.5-8.6,2.6-13.1,0c-4.5-2.6-55.8-32.4-57.9-33.4c-2.1-1.1-5.3-6,0.3-9.3c1.9,0,2.2,2.1,1.8,2.7c-1.1,0.8-3.2,2.2-0.1,3.9
					c3.1,1.8,55.5,32.1,57.3,33.2s6.6,2.1,9.8,0.3s24.5-14.1,25.8-14.9c1.4-0.8,2.5-2.3-0.1-3.8C353.4,145,354.5,143,355.8,143.3z"
					/>
				<path class="st24" d="M354.3,149.9c1.2,0,2.3,1.6,1.7,2.8"/>
				<path class="st24" d="M328.9,164.5c1.4-0.1,2.4,1.9,1.6,2.8"/>
				<path class="st24" d="M318.7,164.5c-0.9,0-2,1.5-1.3,2.9"/>
				<path class="st24" d="M261.4,131.3c-1.1-0.2-2.1,1-1.9,2.6"/>
			</g>
		</g>
		<g>
			<path class="st14" d="M326.3,62.6"/>
			<path class="st13" d="M327.3,65.8c0-0.1-0.1-0.3-0.3-0.2c-0.2,0.1-0.3,0.1-0.3,0.2c0,0.1-0.1,0-0.1,0.2s0,0.3,0,0.4
				c0,0.1-0.1,0.2-0.1,0.2c-0.1,0-0.2,0.1-0.2,0.1c-0.1,0-0.1,0-0.2-0.1s-1.2-0.7-1.2-0.7s-1-0.6-1.1-0.6c-0.1,0,0,0,0-0.1
				c0,0,0-0.7,0-0.9c0-0.2,0.1-0.4,0.3-0.5c0.2-0.1,1.5-0.8,1.5-0.8"/>
			<path class="st14" d="M325.5,63.1c0,0,0.7-0.4,0.8-0.4c0.1,0,0.1-0.1,0.2,0c0.1,0.1,2.3,1.3,2.3,1.3"/>
			<path class="st14" d="M326.2,66.8c0,0,0-0.8,0-1s0.1-0.4,0.3-0.5c0.2-0.1,2.1-1.2,2.1-1.2"/>
			<line class="st15" x1="324" y1="63.9" x2="326.4" y2="65.3"/>
			<line class="st15" x1="323.7" y1="64.4" x2="326.2" y2="65.8"/>
		</g>
		<g>
			<path class="st14" d="M342.3,71.8"/>
			<path class="st13" d="M344.7,73.2c0,0-2.1-1.2-2.2-1.3c-0.1-0.1-0.2,0-0.2,0s-0.8,0.4-0.8,0.4s-1.3,0.7-1.5,0.8
				c-0.2,0.1-0.3,0.3-0.3,0.5c0,0.2,0,0.9,0,0.9c0,0,0,0.1,0,0.1c0.1,0,1.1,0.6,1.1,0.6s1.1,0.6,1.2,0.7s0.2,0.1,0.2,0.1
				c0.1,0,0.2-0.1,0.2-0.1c0.1,0,0.1-0.2,0.1-0.2c0-0.1,0-0.3,0-0.4s0-0.1,0.1-0.2c0-0.1,0.2-0.1,0.4-0.2c0.1-0.1,0.2,0,0.2,0.1
				l0.1,0c0.2-0.5,0.7-1.3,1.3-1.7"/>
			<path class="st14" d="M342.2,76c0,0,0-0.8,0-1s0.1-0.4,0.3-0.5c0.2-0.1,2.1-1.2,2.1-1.2"/>
			<line class="st15" x1="340" y1="73.2" x2="342.4" y2="74.6"/>
			<line class="st15" x1="339.7" y1="73.6" x2="342.2" y2="75"/>
		</g>
	</g>
	<g>
		<g>
			<path class="st30" d="M66.9,231.4v7.7h1.2c-0.6,2.1-0.3,5.4,0.3,6.3c-0.6,1-0.6,2.4-0.3,3.1s2.7,0.7,3.5,0.4
				c0.8-0.3,0.8-0.1,1.8,0.2c0.9,0.3,3.7,0.4,4.6,0c0.9-0.4,1.8-0.5,2.4-0.2c0.6,0.3,2.3,0.2,2.8-0.1c0.5-0.4,1-1.6,0-3.2
				c0.6-1.5,1.3-4.8,0.1-6.5c1.5-0.7,3.5-1.1,3.5-2.7c0-1.5,0.2-2.6-1.5-2.6s-1.7,0.2-2.1,0.7l-0.1-3"/>
			<ellipse class="st31" cx="75.6" cy="242.8" rx="6.9" ry="5.5"/>
			<path class="st31" d="M83.2,239.1c-3.3-4.4-10.8-5.3-15.2-0.1"/>
			<path class="st31" d="M75.4,231.5c-0.9,1.4-3.6,3.8-5.1,4.6c-1.5,0.8-1.8,0.1-2,0.6c-0.2,0.4-0.7,1-0.8,2.4"/>
			<path class="st31" d="M86.5,237.3c-1.6-0.1-3.3-0.7-3.3,1.8"/>
			<line class="st32" x1="85.3" y1="233.9" x2="85.3" y2="237.2"/>
			<line class="st32" x1="84.3" y1="234.3" x2="84.3" y2="237.3"/>
			<path class="st32" d="M83.2,238.7v-4.1c-1.3-1.1-3-2.6-4.9-3.2"/>
			<path class="st32" d="M83.2,237.2c-1-1.2-5.1-6.2-8.8-4.5"/>
			<path class="st32" d="M83.2,237.8c-1.4-1.2-5-4.9-11.6-2.6"/>
			<path class="st32" d="M83.2,236.1c-0.7-1.2-4.6-4.6-7.8-4.6"/>
			<path class="st32" d="M82.2,246.3c-0.2,0.3-0.8,1.1-1.3,1.3c0.6,0.2,1.3,0.1,1.5,0C82.6,247.4,82.3,246.5,82.2,246.3z"/>
			<path class="st32" d="M70.5,247.6c-0.3-0.2-1.1-0.8-1.3-1.3c-0.2,0.6-0.1,1.3,0,1.5C69.3,248,70.2,247.7,70.5,247.6z"/>
		</g>
		<g>
			<path class="st30" d="M190.7,231.4v7.7h-1.2c0.6,2.1,0.3,5.4-0.3,6.3c0.6,1,0.6,2.4,0.3,3.1s-2.7,0.7-3.5,0.4
				c-0.8-0.3-0.8-0.1-1.8,0.2c-0.9,0.3-3.7,0.4-4.6,0c-0.9-0.4-1.8-0.5-2.4-0.2c-0.6,0.3-2.3,0.2-2.8-0.1s-1-1.6,0-3.2
				c-0.6-1.5-1.3-4.8-0.1-6.5c-1.5-0.7-3.5-1.1-3.5-2.7c0-1.5-0.2-2.6,1.5-2.6s1.7,0.2,2.1,0.7l0.1-3"/>
			<ellipse class="st31" cx="181.9" cy="242.8" rx="6.9" ry="5.5"/>
			<path class="st31" d="M174.3,239.2c3.3-4.4,10.8-5.3,15.2-0.1"/>
			<path class="st31" d="M182.1,231.6c0.9,1.4,3.6,3.8,5.1,4.6s1.8,0.1,2,0.6s0.7,1,0.8,2.4"/>
			<path class="st31" d="M171,237.4c1.6-0.1,3.3-0.7,3.3,1.8"/>
			<line class="st32" x1="172.2" y1="234" x2="172.2" y2="237.3"/>
			<line class="st32" x1="173.2" y1="234.3" x2="173.2" y2="237.4"/>
			<path class="st32" d="M174.3,238.8v-4.1c1.3-1.1,3-2.6,4.9-3.2"/>
			<path class="st32" d="M174.3,237.3c1-1.2,5.1-6.2,8.8-4.5"/>
			<path class="st32" d="M174.3,237.9c1.4-1.2,5-4.9,11.6-2.6"/>
			<path class="st32" d="M174.3,236.2c0.7-1.2,4.6-4.6,7.8-4.6"/>
			<path class="st32" d="M175.4,246.3c0.2,0.3,0.8,1.1,1.3,1.3c-0.6,0.2-1.3,0.1-1.5,0C175,247.5,175.3,246.6,175.4,246.3z"/>
			<path class="st32" d="M187.1,247.7c0.3-0.2,1.1-0.8,1.3-1.3c0.2,0.6,0.1,1.3,0,1.5S187.3,247.8,187.1,247.7z"/>
		</g>
		<g>
			<path class="st30" d="M135.6,259.7c0.8,1.2,0.8,1.9,0.8,2.8c0,0.9,0,15.9,0,16.7s-1.9,0.8-1.9,0c0-0.8,0-2.4,0-2.4
				c-0.2,1.3-2.7,1.2-2.9,0.2c-0.2-1.1-0.6-3-0.6-3h-3.6c0,0-0.3,2.4-0.5,3.2c-0.2,0.8-2.7,0.9-3.2,0c0,0,0-0.1,0,2
				c0,1-1.7,0.9-1.7,0c0-1.1,0-15.5,0-16.7s0.5-2.5,0.7-2.8C122.9,259.4,135.6,259.7,135.6,259.7z"/>
			<line class="st32" x1="134.4" y1="276.8" x2="134.4" y2="264"/>
			<path class="st32" d="M132.6,265c0,1.5-1,7.7-1.7,8.9"/>
			<path class="st32" d="M125.1,265.3c0.1,1.7,1.3,7.1,2.2,8.6"/>
			<path class="st32" d="M130.9,265.3c-1.1,0.7-2.4,0.7-3.8,0"/>
			<line class="st32" x1="129" y1="265.8" x2="129" y2="273.9"/>
			<line class="st32" x1="123.7" y1="277.1" x2="123.7" y2="264.2"/>
			<path class="st32" d="M126.2,277.6c-0.2-0.4,0-6.9,0-6.9"/>
			<line class="st32" x1="124.5" y1="277.6" x2="124.5" y2="265.3"/>
			<line class="st32" x1="133.6" y1="277.6" x2="133.6" y2="264.6"/>
			<line class="st32" x1="131.7" y1="271" x2="131.7" y2="277.5"/>
		</g>
		<path class="st2" d="M190.1,223c-3.2,0-15.4,0-17,0c-1.5,0-4.8,0.9-4.8,3.1c0,2.2,0,5.1,0,6.9c0,1.8-0.9,2.6-3.2,2.6
			s-70.7,0-72.4,0s-2.8-0.8-2.8-2.1c0-1.4,0-4.7,0-6.5c0-1.8-1.4-4-5.2-4s-13.8,0-16.1,0c-2.3,0-4.6,1.1-4.6,2.5s0,2,0,3.2
			s0.9,2.9,4.7,2.9s14.4,0,16.1,0s3.3,1.4,3.3,2.7c0,1.3,0,3.8,0,5.4c0,1.6,1.1,4.5,4.5,4.5c3.4,0,70,0,72.3,0c3.1,0,4.8-1,4.8-3.9
			c0-2.3,0-4.2,0-5.8s1.4-2.6,3-2.6s14.3,0,16.6,0c2.3,0,4.9-0.9,4.9-3.4S194.6,223,190.1,223z"/>
		<path class="st30" d="M143.5,244.1l-8,4.9c0,0,0,9.5,0,11.8s-1.1,4.6-5.1,4.6c-3.9,0-1.8,0-3.4,0c-1.6,0-4.4,0.1-4.4-4.3
			c0-4.4,0-9.1,0-9.1l-14.8-7.8"/>
		<path class="st32" d="M194.2,226c0,2.3-1.1,4.4-4.9,4.4s-13.8,0-16.2,0c-3,0-4.7,1.4-4.7,4c0,2.2,0,4.2,0,5.5
			c0,1.3-0.8,2.7-3.5,2.7c-2.5,0-69.6,0-72.1,0c-1.6,0-2.8-1.1-2.8-2.8s0-3.8,0-5.5c0-1.7-1.3-4.2-5.3-4.2s-13.4,0-16,0
			s-4.7-0.5-4.7-3.2"/>
		<line class="st32" x1="84.7" y1="223" x2="84.7" y2="231.5"/>
		<line class="st32" x1="68.7" y1="230" x2="68.7" y2="231.5"/>
		<line class="st32" x1="92.7" y1="235.6" x2="92.7" y2="244.1"/>
		<line class="st32" x1="90" y1="239.8" x2="88.1" y2="239.8"/>
		<line class="st32" x1="90" y1="234.3" x2="88.1" y2="234.3"/>
		<line class="st32" x1="165.1" y1="235.6" x2="165.1" y2="244.1"/>
		<line class="st32" x1="168.4" y1="239.9" x2="170.1" y2="239.9"/>
		<line class="st32" x1="168.4" y1="234.4" x2="169.7" y2="234.4"/>
		<line class="st32" x1="173.1" y1="223" x2="173.1" y2="231.8"/>
		<line class="st32" x1="189.3" y1="230.4" x2="189.3" y2="231.8"/>
		<path class="st32" d="M141.9,244.1c-0.9,0-11.8,7.2-11.8,7.2h-7.4l-13.5-7.2"/>
		<path class="st32" d="M135.6,249c-0.6,0.4-4,2.4-4,2.4"/>
		<line class="st32" x1="135.6" y1="251.4" x2="121.6" y2="251.4"/>
		<line class="st32" x1="135.6" y1="252.6" x2="122.7" y2="252.6"/>
		<path class="st32" d="M135.6,260.8c0,2.1-2.2,3.5-5.1,3.5c-3,0-1.8,0-3,0s-4.8-0.1-4.8-3.2"/>
		<line class="st32" x1="86.2" y1="234" x2="86.2" y2="237.2"/>
		<path class="st32" d="M135.6,279.9"/>
		<g>
			<path class="st30" d="M128.6,228.6c0.2,0.2,3,1.8,3,1.8v12.5l-0.6,0.4v1.5c0,0-7.9,4.6-8.3,4.8c-0.4,0.3-2.1,0.5-3-0.1
				c-0.9-0.6-0.9-0.6-0.9-0.6v-10.8l2.4-1.3l0.6,0l3.5-2v-0.6l1.2-0.6l0.4,0.2l1.7-1L128.6,228.6z"/>
			<polyline class="st32" points="131.2,230.1 131.2,233.7 122.8,238.3 118.8,238.1 			"/>
			<path class="st32" d="M118.8,245.3c0,0,0.3,0.3,0.4,0.3c0.1,0,3.1,0,3.1,0s0.5-0.1,0.6-0.2c0.1-0.1,0.8-0.7,0.8-0.7v4.2"/>
			<line class="st32" x1="122.9" y1="245.4" x2="122.9" y2="249.5"/>
			<line class="st32" x1="119.8" y1="245.6" x2="119.8" y2="249.5"/>
			<line class="st32" x1="130.5" y1="234.2" x2="130.5" y2="245.1"/>
			<line class="st32" x1="122.8" y1="238.3" x2="122.8" y2="245.4"/>
			<line class="st32" x1="122.3" y1="238.3" x2="122.3" y2="245.6"/>
		</g>
		<path class="st32" d="M144.4,227.2c0,0.6,0,2.6,0,2.9c0,0.6,0.2,0.7,0.6,0.5c0.3-0.1,2.2-1.3,2.6-1.5c0.4-0.2,0.5-0.4,0.5-1
			s0-2.4,0-2.9c0-0.4-0.2-0.7-0.6-0.5c-0.4,0.2-2.2,1.3-2.6,1.5C144.6,226.5,144.4,226.6,144.4,227.2z"/>
		<g>
			<g>
				<path class="st33" d="M185.8,138.6c0,0-55.9-32.2-57.8-33.3c-2.3-1.3-8-2.7-12.7,0C110,108.6,90.1,120,90.1,120
					c1.1-0.1,2.5,1.2,1.8,2.7c0,0,23.4-13.3,25.6-14.5c2.1-1.2,6-2.1,8.9-0.5c2.9,1.6,57.9,33.7,57.9,33.7L185.8,138.6z"/>
				<path class="st34" d="M115.4,105.4c2-0.1,2,2.8,2,2.8"/>
				<path class="st34" d="M128.1,105.4c-1.1,0.3-1.7,1.6-1.2,2.7"/>
			</g>
			<g>
				<g>
					<path class="st2" d="M125.7,105.9c0,0,49.5,28.6,51.4,29.7c1.8,1.1,2.5,2.2,2.5,4.7c0,2.5,0,70.5,0,71.6c0,1,0,1.9-1,2.4
						c-1,0.6-11.9,6.8-11.9,6.8s-0.1,9.4-0.1,10.6c0,1.2,0.2,2.1-0.5,2.6s-23.5,13.4-24.6,14c-1.1,0.6-1.7,0.6-2.7,0
						c-0.8-0.5-28.8-18-28.8-18s0.2-13.8,0.2-19.3c0-5.1,0.3-6.8-2.7-8.7c-3-1.9-7.4-4.4-8.8-5.4s-2.1-2-2.1-5c-0.1-3,0-67.9,0-71.4
						c0-1.2,0.5-1.6,1.1-2c2.2-1.3,16.7-9.8,21.9-12.6C122.4,104.3,122.9,104.4,125.7,105.9z"/>
					<path class="st35" d="M166.6,221.2c-1.8,1-10.6,6.4-11.4,6.9c-1.2,0.7-2.1,0.8-3,0.3c-2.1-1.3-7.2-4.2-8.3-4.9
						c-1.7-1-2.8-0.9-2.8,1.3c0,1.9,0.2,20.1,0.2,21.2c0,1.6-0.6,3.3-2.2,2.4"/>
					<line class="st36" x1="166.5" y1="232.8" x2="141" y2="247.4"/>
					<path class="st36" d="M166.5,226.2c0,0-22.8,13.5-23.8,14c-0.9,0.5-1.7,0.3-2.2,0s-1.3-0.8-1.3-0.8"/>
					<path class="st36" d="M177.1,135.6"/>
					<path class="st36" d="M152.3,228.3c2,0.5,2-1.3,2-2s0.1-72.2,0.1-72.2c0-0.9-0.5-2.7-2.1-3.7s-52.6-30.4-53.7-31
						c-1.1-0.6-1.9-0.4-2,0.3"/>
					<path class="st36" d="M179.6,212.7c0,0-24,13.9-24.5,14.2c-0.3,0.2-0.5,0.2-0.7,0.1"/>
					<path class="st36" d="M125.4,238c0,0,10.5,6,12,6.9c1.6,0.9,1.8,0,1.8-0.8s0-18.5,0-21.3c0-1.9,2.5-3,4.1-2.1
						c1,0.6,7,4,7.6,4.4c0.5,0.3,1.4,0.8,1.4-0.5c0-0.8,0-70.4,0-70.4c0-0.6-0.2-1.4-1.1-2c-1-0.6-51-29.4-51.4-29.7
						c-0.4-0.2-0.9-0.5-1.2-0.3c-0.3,0.2-0.2,0.4-0.2,0.7c0,0.3,0,69.9,0,70.5c0,0.7,0,1.2,0.9,1.7c0.9,0.6,7.1,4.2,7.9,4.6
						c0.8,0.5,2.6,2.1,2.8,3.6"/>
					<path class="st36" d="M124.8,237.1c0,0,10.5,6,12,6.9c1.5,0.9,1.8,1.1,1.8-0.7c0-0.9,0-18.1,0-20.9c0-2.1,2.5-3.6,4.5-2.5
						c1,0.5,6.8,3.9,7.5,4.3c0.8,0.4,1.2,0.7,1.2,0c0-0.8,0.1-70.2,0.1-70.2c0-0.9-0.4-1.2-0.8-1.3S100,123,99.8,122.9
						c-0.2-0.1-0.9-0.6-0.9,0.3c0,0.9,0,12.5,0,12.5s0,55.6,0,56.8c0,1.7,0,1.9,1.5,2.8c0.8,0.5,5.1,2.9,7.1,4c2,1.2,3,2.7,3.2,4.6"
						/>
					<g>
						<g>
							<path class="st36" d="M163.9,175.1c1.4-0.8,6.5-3.6,7-3.9c0.8-0.5,2.4,0.4,0.8,1.4c-2.4,1.5-6.1,3.5-6.9,3.9
								c-0.8,0.4-1.3,0.4-1.8,0.3C163.1,176.1,163.3,175.4,163.9,175.1z"/>
							<path class="st36" d="M163.9,175.1c0.5,0.2,0.8,0.8,0.9,1.4"/>
							<path class="st36" d="M170.8,171.2c0.6,0.4,0.7,0.6,0.8,1.4"/>
						</g>
						<g>
							<path class="st36" d="M163.9,180.9c1.4-0.8,6.5-3.6,7-3.9c0.8-0.5,2.4,0.4,0.8,1.4c-2.4,1.5-6.1,3.5-6.9,3.9
								c-0.8,0.4-1.3,0.4-1.8,0.3C163.1,181.9,163.3,181.2,163.9,180.9z"/>
							<path class="st36" d="M163.9,180.9c0.5,0.2,0.8,0.8,0.9,1.4"/>
							<path class="st36" d="M170.8,177c0.6,0.4,0.7,0.6,0.8,1.4"/>
						</g>
						<g>
							<path class="st36" d="M163.9,186.7c1.4-0.8,6.5-3.6,7-3.9c0.8-0.5,2.4,0.4,0.8,1.4c-2.4,1.5-6.1,3.5-6.9,3.9
								c-0.8,0.4-1.3,0.4-1.8,0.3C163.1,187.7,163.3,187,163.9,186.7z"/>
							<path class="st36" d="M163.9,186.7c0.5,0.2,0.8,0.8,0.9,1.4"/>
							<path class="st36" d="M170.8,182.8c0.6,0.4,0.7,0.6,0.8,1.4"/>
						</g>
						<g>
							<path class="st36" d="M163.9,192.5c1.4-0.8,6.5-3.6,7-3.9c0.8-0.5,2.4,0.4,0.8,1.4c-2.4,1.5-6.1,3.5-6.9,3.9
								c-0.8,0.4-1.3,0.4-1.8,0.3C163.1,193.5,163.3,192.8,163.9,192.5z"/>
							<path class="st36" d="M163.9,192.5c0.5,0.2,0.8,0.8,0.9,1.4"/>
							<path class="st36" d="M170.8,188.6c0.6,0.4,0.7,0.6,0.8,1.4"/>
						</g>
						<g>
							<path class="st36" d="M163.9,198.3c1.4-0.8,6.5-3.6,7-3.9c0.8-0.5,2.4,0.4,0.8,1.4c-2.4,1.5-6.1,3.5-6.9,3.9
								c-0.8,0.4-1.3,0.4-1.8,0.3C163.1,199.3,163.3,198.6,163.9,198.3z"/>
							<path class="st36" d="M163.9,198.3c0.5,0.2,0.8,0.8,0.9,1.4"/>
							<path class="st36" d="M170.8,194.4c0.6,0.4,0.7,0.6,0.8,1.4"/>
						</g>
						<g>
							<path class="st36" d="M163.9,204.1c1.4-0.8,6.5-3.6,7-3.9c0.8-0.5,2.4,0.4,0.8,1.4c-2.4,1.5-6.1,3.5-6.9,3.9
								c-0.8,0.4-1.3,0.4-1.8,0.3C163.1,205.2,163.3,204.4,163.9,204.1z"/>
							<path class="st36" d="M163.9,204.1c0.5,0.2,0.8,0.8,0.9,1.4"/>
							<path class="st36" d="M170.8,200.2c0.6,0.4,0.7,0.6,0.8,1.4"/>
						</g>
						<g>
							<path class="st36" d="M163.9,209.9c1.4-0.8,6.5-3.6,7-3.9c0.8-0.5,2.4,0.4,0.8,1.4c-2.4,1.5-6.1,3.5-6.9,3.9
								c-0.8,0.4-1.3,0.4-1.8,0.3C163.1,211,163.3,210.2,163.9,209.9z"/>
							<path class="st36" d="M163.9,209.9c0.5,0.2,0.8,0.8,0.9,1.4"/>
							<path class="st36" d="M170.8,206c0.6,0.4,0.7,0.6,0.8,1.4"/>
						</g>
					</g>
					<path class="st34" d="M173.7,165.8c0.8-0.5,1.5-0.4,1.5,0.4c0,1.3,0,39.7,0,40.6s-0.1,1.5-0.8,2c-0.6,0.5-12.7,7.4-13.2,7.7
						c-1,0.6-1.7,0.5-1.7-0.4c0-1,0-38.7,0-39.6c0-1.5-0.1-2.5,1.4-3.3C161.6,172.7,173.7,165.8,173.7,165.8z"/>
					<g>
						<polygon class="st37" points="146.3,166 146.3,167.2 146,167 146,165.8 						"/>
						<line class="st36" x1="146" y1="167" x2="146.3" y2="166.6"/>
					</g>
					<g>
						<polygon class="st37" points="145.6,165.5 145.6,166.6 145.2,166.4 145.2,165.3 						"/>
						<line class="st36" x1="145.2" y1="166.4" x2="145.6" y2="166.1"/>
					</g>
					<g>
						<polyline class="st38" points="145.2,168.8 145.4,168.6 145.8,168.3 146.4,168.7 146.7,169.4 146.6,170 145.9,170.2 
							145.8,170.1 						"/>
						<path class="st38" d="M144.7,169.1l0.6-0.3c0.6-0.2,1.1,1,0.7,1.2c-0.3,0.2-0.5,0.3-0.5,0.3"/>
						<line class="st39" x1="146.4" y1="168.7" x2="145.8" y2="169"/>
						<line class="st39" x1="146.7" y1="169.4" x2="146.2" y2="169.6"/>
						<ellipse transform="matrix(0.866 -0.5 0.5 0.866 -65.4265 95.3003)" class="st38" cx="145.1" cy="169.7" rx="0.4" ry="0.7"/>
					</g>
					<path class="st36" d="M146.7,171.9c-0.1,0-1.5-0.9-1.5-0.9c0,0.2,0.1,0.2,0.1,0.4s0,0.2,0.2,0.3c0.2,0.2,0.6,0.4,0.7,0.4
						c0.2,0.1,0.2,0.1,0.4,0.1c0.1,0,0.3-0.1,0.4,0C147.3,172.3,146.7,171.9,146.7,171.9z"/>
					<path class="st39" d="M173.4,183.7c0,0.3,0,1.7,0,2.3s0.2,0.5,0.4,0.3c0.2-0.1,0.5-0.2,0.8-0.4c0.3-0.2,0.5,0.2,0.5,0.6
						c0,0.4,0-5.6,0-4.9c0,0.7-0.3,0.8-0.6,1c-0.3,0.2-0.3,0.2-0.6,0.4C173.5,183.1,173.4,183.4,173.4,183.7z"/>
					<line class="st39" x1="174.7" y1="182.5" x2="174.7" y2="186"/>
					<path class="st36" d="M97.5,118.5c0.6-0.1,1.1,0.3,1.3,0.4c0.2,0.1,52.7,30.5,53.7,31c1,0.5,2.5,2.2,2.5,4.1s0,72.3,0,72.8
						s-0.1,1.2-0.8,1.6"/>
				</g>
				<path class="st36" d="M141,224.7c0.2,0.1,0.4,0.2,0.7,0s2.1-1.2,2.1-1.2"/>
				<path class="st36" d="M143.2,223.1c-0.7-0.1-1.4,0.3-1.4,1.6s0,21.9,0,22.2c0,0.3-0.1,1-0.4,1.3"/>
				<path class="st34" d="M152.4,167.4c0,0,1.8,1,2,1.1c0.2,0.1,0.5,0.2,0.7,0s24.6-14.2,24.6-14.2"/>
				<path class="st39" d="M152.2,150.4c0-0.4,0.3-0.6,0.3-0.6l24.5-14.2"/>
				<path class="st39" d="M154.4,154.1c0.3,0.3,0.7-0.1,0.7-0.1l24.6-14.2"/>
				<path class="st39" d="M98.5,119.4c0-0.2,0.1-0.4,0.3-0.6s24.5-14.1,24.5-14.1"/>
				<path class="st40" d="M126.5,132.1c0,0,20.5,12,21.9,12.8s2.9,1,4.5,0.1c1.6-0.9,14.7-8.5,15.8-9.1c1.1-0.7,1.1-1.7-0.3-2.5
					s-41.1-23.7-41.7-24c-0.5-0.3-1.8-1-2.7-0.5c-0.9,0.5-16.1,9.5-16.6,9.9c-0.5,0.4-1.6,1.6,0,2.5
					C109,122.1,126.5,132.1,126.5,132.1z"/>
				<path class="st34" d="M143.4,118.9c0,0-0.7,0.5-1,0.6c-0.3,0.1-0.4,0.5,0,0.8c0.4,0.3,7.1,4.1,7.6,4.4s1.1,0.3,1.7,0
					c0.6-0.3,0.9-0.5,0.9-0.5"/>
				<polyline class="st34" points="143.2,119.1 143.2,119.6 142.2,120.1 				"/>
				<line class="st34" x1="142.5" y1="119.4" x2="142.5" y2="119.9"/>
				<g>
					<path class="st41" d="M136,160.6L136,160.6c0,0.6-0.5,0.8-1.1,0.4l-2.7-1.7c-0.6-0.4-1.1-1.2-1.1-1.8l0,0
						c0-0.6,0.5-0.8,1.1-0.4l2.7,1.7C135.5,159.1,136,160,136,160.6z"/>
					<path class="st42" d="M131.6,156.9c-0.8,0.2-0.2,1.9,0.4,2.3c0.9,0.5,3.4,2,3.4,2"/>
				</g>
			</g>
			<g>
				<path class="st2" d="M118.1,250.5c0,0-3.2,1.6-5.5,0.4s-9.9-5.5-10.7-6.1c-0.8-0.6-2.9-2.7-2.9-5.9c0-3.2,2.1-15.5,11-22.1
					c0,0,0-126.7,0-127.1c0-0.4,0.2-0.5,0.6-0.8c0.4-0.2,6.6-3.8,6.6-3.8l5.8,0c0,0,3.2,1.9,3.7,2.1c0.3,0.1,0.6,0.4,0.6,0.7
					c0,0.1,0,141.7,0,141.7c1.2,0.7,2.1,1.2,2.7,1.6c0.6,0.3,1,1.1,1,1.9s0,10.7,0,10.7l-1.1,0c0,0,0,1,0,1.4s-0.1,0.8-0.7,1.1
					c-0.6,0.3-6.2,3.6-6.7,3.9c-0.3,0.1-0.5,0.1-0.9,0.1c-0.4,0-3.2,0-3.2,0L118.1,250.5z"/>
				<path class="st34" d="M111.3,250.1c-1.3-0.8-2.3-3.6-2.5-5.6s1.2-13.9,11-22.1"/>
				<path class="st39" d="M99,238.9l9.8,5.6l11-6.4c0.3,0.2,0.6,0.1,0.8-0.1c0.2-0.1,3.5-2,3.5-2v-0.6l1.3-0.8v0.5l2-1.1v-4.5"/>
				<polyline class="st34" points="110,216.8 119.8,222.4 119.8,238.1 				"/>
				<path class="st39" d="M120.6,238.1V95.7c0,0,0-0.3,0-0.5s-0.1-0.6-0.5-0.8c-0.3-0.2-9.5-5.5-9.5-5.5"/>
				<path class="st39" d="M127.2,90.8c-0.1-0.2-0.3-0.4-0.5-0.2c-0.2,0.1-6.2,3.6-6.6,3.8c-0.4,0.2-0.5,0.5-0.5,0.8s0,127.3,0,127.3
					"/>
				<path class="st39" d="M110,90.2c0,0,9.4,5.4,9.6,5.5c0.3,0.2,0.6,0.2,0.9,0c0.3-0.2,6.7-3.8,6.7-3.8"/>
				<path class="st39" d="M126.8,87.2v3.4c0.5,0.2,0.5,0.7,0.5,0.7s-6.4,3.7-6.7,3.9c-0.3,0.2-0.6,0.2-0.9,0
					c-0.3-0.2-9.6-5.6-9.6-5.6"/>
				<line class="st39" x1="124.1" y1="93.8" x2="124.1" y2="235.4"/>
				<line class="st39" x1="125.3" y1="234.7" x2="125.3" y2="93"/>
				<line class="st39" x1="125" y1="93.1" x2="125" y2="234.8"/>
				<line class="st39" x1="125.3" y1="235.2" x2="125" y2="234.9"/>
				<line class="st39" x1="130.1" y1="234" x2="130.1" y2="243.8"/>
				<path class="st39" d="M130.1,239.1c0.5,0.2,0.8,0.9,0,1.2"/>
				<line class="st39" x1="130.6" y1="239.7" x2="130.6" y2="243.8"/>
				<line class="st39" x1="129.3" y1="234.9" x2="129.3" y2="246.3"/>
				<line class="st39" x1="116.6" y1="240" x2="116.6" y2="250.9"/>
				<line class="st39" x1="117.2" y1="239.7" x2="117.2" y2="250.9"/>
				<path class="st39" d="M122.6,250.2v-4.1c0,0-0.8,0.5-0.9,0.5c-0.2,0.1-0.4,0.2-0.7,0.2s-3.2-0.2-3.3-0.2s-0.2,0-0.2,0.2
					s0,3.9,0,3.9"/>
				<line class="st39" x1="121.7" y1="250.4" x2="121.7" y2="246.7"/>
				<line class="st39" x1="121.5" y1="239.4" x2="121.5" y2="246.8"/>
				<line class="st39" x1="121" y1="239.5" x2="121" y2="246.9"/>
				<path class="st39" d="M117.7,246.7v-7.3c0,0,3.2,0.2,3.3,0.2c0.3,0,0.4,0,0.5-0.1c0.3-0.2,7.3-4.2,7.8-4.5s0.8-0.5,0.8-1
					c0-0.4,0-2.8,0-2.8"/>
				<line class="st39" x1="118.5" y1="246.7" x2="118.5" y2="250.4"/>
				<path class="st39" d="M118.8,246.8c0.4,0.2,1.5,0.7,2.5,0"/>
			</g>
			<path class="st43" d="M159,159.9c1.3-0.1,2.4,1.7,1.7,2.7"/>
			<g>
				<g>
					<path class="st33" d="M109.7,137.1c0,0-17.3-9.9-18.1-10.5s-3.1-2.1,0.1-3.9c0.7-1.1-0.6-2.9-1.8-2.7c-2.4,1.1-5.6,5.9-0.3,9.3
						c5.6,3.6,20.1,11.6,20.1,11.6V137.1z"/>
					<path class="st34" d="M91.6,126.7c-1-0.2-2.3,1.1-1.9,2.6"/>
				</g>
				<g>
					<g>
						<g>
							<path class="st33" d="M127.6,154.6c0,0.4-0.3,0.8-0.6,1c-0.4,0.2-3.3,1.9-3.4,2c-0.2,0.1-0.3,0.1-0.4,0
								c-0.2-0.1-0.3-0.2-0.6-0.3c-0.1-0.1-0.2-0.2-0.2-0.4c0-0.2,0-15.7,0-15.9c0-0.4,0.3-0.8,0.6-1c0.3-0.2,3.2-1.9,3.4-2
								c0.2-0.1,0.2-0.1,0.4,0c0.1,0.1,0.4,0.2,0.5,0.3c0.2,0.1,0.2,0.2,0.2,0.4S127.6,154,127.6,154.6z"/>
							<path class="st34" d="M127.5,138.5c-0.1-0.2-0.3-0.2-0.5-0.1c-0.2,0.1-3.3,1.9-3.4,2s-0.6,0.4-0.6,1s0,15.8,0,15.9
								c0,0.2,0.2,0.5,0.4,0.4"/>
							<line class="st39" x1="122.4" y1="156.9" x2="123" y2="157.2"/>
							<line class="st39" x1="122.4" y1="141" x2="123" y2="141.4"/>
							<line class="st39" x1="123" y1="140" x2="123.6" y2="140.4"/>
							<line class="st39" x1="126.4" y1="138.1" x2="127" y2="138.4"/>
							<g>
								
									<ellipse transform="matrix(0.5872 -0.8095 0.8095 0.5872 -62.7354 159.7735)" class="st38" cx="125.3" cy="141.4" rx="0.6" ry="0.4"/>
								
									<ellipse transform="matrix(0.5872 -0.8095 0.8095 0.5872 -65.4156 161.1398)" class="st38" cx="125.3" cy="144.7" rx="0.6" ry="0.4"/>
								
									<ellipse transform="matrix(0.5872 -0.8095 0.8095 0.5872 -68.0957 162.5061)" class="st38" cx="125.3" cy="148" rx="0.6" ry="0.4"/>
								
									<ellipse transform="matrix(0.5872 -0.8095 0.8095 0.5872 -70.7759 163.8724)" class="st38" cx="125.3" cy="151.3" rx="0.6" ry="0.4"/>
								
									<ellipse transform="matrix(0.5872 -0.8095 0.8095 0.5872 -73.4561 165.2387)" class="st38" cx="125.3" cy="154.6" rx="0.6" ry="0.4"/>
							</g>
						</g>
						<g>
							<path class="st33" d="M125.2,149.9l22.2,12.8c-1-1.1,0.5-3.3,1.6-2.8L126.9,147c0.1-0.7-0.4-1-0.7-1.1
								c-0.5-0.1-1.2,0.1-2,1.4c-0.8,1.3-0.5,2.3,0,2.6C124.6,150.3,124.9,150,125.2,149.9z"/>
							<path class="st39" d="M125.2,149.9c-0.6-0.4-1-0.9-0.3-2c0.7-1.1,1.3-1.1,2-0.8"/>
						</g>
					</g>
					<path class="st33" d="M184.2,145.3c1.1-0.6,2.9-2.1,0-3.8c-0.9-1.3,0.6-3.1,1.6-2.8c3.2,1.6,5.2,6.3,0,9.4L184.2,145.3z"/>
					<path class="st33" d="M149.1,159.9c1.9,1.1,6.4,2,9.9,0c3.5-2,25.3-14.6,25.3-14.6c1-0.2,2.7,1.5,1.6,2.8
						c0,0-23.4,13.5-25.2,14.5c-3.6,2-9.1,2.5-13.2,0.1C146.9,161.5,147.6,159.9,149.1,159.9z"/>
				</g>
			</g>
		</g>
		<g>
			<path class="st2" d="M151.1,60.1c3.1,1.8,5.7,3,5.7,6.5c0,3.5,0,65.1,0,66.3s0.2,2.5-1.6,3.4c-1.8,0.9-1.5,0.8-2.6,1.3
				s-1.6,0.9-4.1-0.5c-1.9-1.1-101.7-58.7-102.9-59.5c-1.2-0.8-3.1-1.8-3.1-4.4c0-2.5,0-65.5,0-67.7s0-2.3,1.1-3
				C44.9,2,46.5,1.1,47,0.8c0.9-0.5,1.4-0.5,2.4,0.1C50,1.3,151.1,60.1,151.1,60.1z"/>
			<path class="st31" d="M42.9,3.9c0.9-0.5,1-0.9,3,0.4s102,58.9,103.6,59.9s2.2,1.7,2.2,4c0,2.3,0,66.6,0,68.2s-2,1.5-3.1,0.8"/>
			<line class="st32" x1="156.8" y1="134.2" x2="151.6" y2="137"/>
			<line class="st31" x1="156.8" y1="66.6" x2="151.7" y2="69.3"/>
			<line class="st31" x1="154.2" y1="61.9" x2="149.5" y2="64.1"/>
			<line class="st31" x1="49.4" y1="1" x2="44.7" y2="3.6"/>
			<polygon class="st31" points="149.5,66.6 149.5,134.2 45.6,74.3 45.6,6.7 			"/>
		</g>
	</g>
	<g>
		<path class="st2" d="M129.6,126.1c-0.1-0.1-4,2.2-4,2.2l8.6,6.2l4.9-2.8L129.6,126.1z"/>
		<g>
			<path class="st2" d="M122.8,127.4c-1.4,0.8-6.9,4-7.6,4.4c-0.7,0.4-1,0.8-1,1.5c0,0.7,0,1.1,0.7,1.5c0.7,0.4,8.2,4.7,8.8,5.1
				c0.6,0.3,1.8,0.9,3.2,0c1.4-0.9,7.2-4.3,7.8-4.7c0.6-0.4,0.9-1.5-0.4-2.4c-1.5-1-8-5.1-8.7-5.5
				C124.8,126.9,124.1,126.7,122.8,127.4z"/>
			<path class="st4" d="M134.5,132.7c0.6,0.5,0.8,0.9,0,1.4c-0.8,0.5-6.9,4-7.9,4.5s-2,0.4-2.7,0c-0.7-0.4-8.2-4.7-8.9-5.2
				c-0.7-0.5-0.5-1,0-1.4"/>
			<line class="st4" x1="126.6" y1="138.7" x2="126.6" y2="140.1"/>
			<line class="st4" x1="123.9" y1="138.7" x2="123.9" y2="139.9"/>
			<line class="st4" x1="115" y1="133.4" x2="115" y2="134.9"/>
			<path class="st4" d="M126.6,136.8c-1-0.6-7.6-4.4-8.3-4.8c-0.4-0.2-0.6-0.8,0.3-1.3c0.7-0.4,4.6-2.6,5.2-2.9c0.6-0.3,1-0.3,1.4,0
				c0.4,0.3,7.6,4.8,8.2,5.2c0.6,0.3,0.7,0.5,0.2,0.8c-0.4,0.3-4.8,2.9-5.3,3.1C127.8,137.1,127.3,137.3,126.6,136.8z"/>
			<path class="st4" d="M118.7,132.2c-0.3-0.3-0.4-0.8,0-1.1c0.3-0.2,5.1-2.9,5.4-3.1s0.7-0.2,1,0c0.3,0.2,8.8,5.4,8.8,5.4"/>
			<line class="st4" x1="125.2" y1="127.7" x2="125.2" y2="128.2"/>
			<line class="st4" x1="123.8" y1="127.7" x2="123.8" y2="128.2"/>
			<line class="st4" x1="118.4" y1="130.8" x2="118.4" y2="131.5"/>
		</g>
	</g>
</g>
<g id="Layer_2">
	<g>
		<line class="st44" x1="287.6" y1="125.7" x2="440.5" y2="125.7"/>
	</g>
	<g>
		<line class="st44" x1="110" y1="228.6" x2="11.1" y2="228.6"/>
	</g>
	<g>
		<line class="st44" x1="295" y1="173.2" x2="440.4" y2="173.2"/>
	</g>
	<g>
		<line class="st44" x1="439.9" y1="192.3" x2="295.4" y2="192.3"/>
	</g>
	<g>
		<path d="M452.1,190.4c0.7,0,1.2,0.2,1.6,0.6c0.4,0.4,0.6,0.9,0.6,1.6c0,0.8-0.2,1.4-0.7,1.8c-0.5,0.4-1.2,0.6-2.1,0.6
			c-0.8,0-1.4-0.1-1.9-0.4v-1.3c0.3,0.1,0.6,0.2,0.9,0.3s0.7,0.1,1,0.1c0.9,0,1.4-0.4,1.4-1.1c0-0.7-0.5-1.1-1.4-1.1
			c-0.2,0-0.4,0-0.6,0.1c-0.2,0-0.4,0.1-0.5,0.1l-0.6-0.3l0.3-3.6h3.9v1.3h-2.5l-0.1,1.4l0.2,0C451.6,190.4,451.8,190.4,452.1,190.4
			z"/>
	</g>
	<g>
		<path d="M3.5,231.2H2V227l0-0.7l0-0.7c-0.3,0.3-0.4,0.4-0.5,0.5l-0.8,0.7L0,225.9l2.3-1.8h1.2V231.2z"/>
	</g>
	<g>
		<path d="M455,73.7h-5v-1l1.8-1.8c0.5-0.5,0.9-0.9,1-1.1c0.2-0.2,0.3-0.4,0.4-0.6c0.1-0.2,0.1-0.4,0.1-0.6c0-0.3-0.1-0.5-0.2-0.6
			c-0.2-0.1-0.4-0.2-0.6-0.2c-0.3,0-0.5,0.1-0.8,0.2c-0.3,0.1-0.5,0.3-0.8,0.5l-0.8-1c0.4-0.3,0.6-0.5,0.9-0.6
			c0.2-0.1,0.5-0.2,0.8-0.3s0.6-0.1,0.9-0.1c0.4,0,0.8,0.1,1.2,0.2s0.6,0.4,0.8,0.7c0.2,0.3,0.3,0.6,0.3,1c0,0.3-0.1,0.6-0.2,0.9
			c-0.1,0.3-0.3,0.6-0.5,0.9c-0.2,0.3-0.7,0.7-1.3,1.3l-0.9,0.9v0.1h3.1V73.7z"/>
	</g>
	<g>
		<path d="M454.8,123c0,0.4-0.1,0.8-0.4,1.1s-0.6,0.5-1.1,0.6v0c0.6,0.1,1,0.2,1.3,0.5s0.4,0.7,0.4,1.1c0,0.7-0.2,1.2-0.7,1.6
			s-1.2,0.6-2.1,0.6c-0.8,0-1.5-0.1-2.1-0.4v-1.3c0.3,0.1,0.6,0.3,0.9,0.3s0.7,0.1,1,0.1c0.5,0,0.9-0.1,1.1-0.3s0.4-0.4,0.4-0.8
			c0-0.3-0.1-0.6-0.4-0.7s-0.7-0.2-1.3-0.2h-0.5v-1.2h0.6c0.6,0,1-0.1,1.2-0.2c0.3-0.1,0.4-0.4,0.4-0.7c0-0.5-0.3-0.8-1-0.8
			c-0.2,0-0.5,0-0.7,0.1c-0.2,0.1-0.5,0.2-0.8,0.4l-0.7-1c0.7-0.5,1.4-0.7,2.3-0.7c0.7,0,1.3,0.1,1.8,0.4
			C454.5,122,454.8,122.4,454.8,123z"/>
	</g>
	<g>
		<line class="st44" x1="301.8" y1="70.6" x2="440.5" y2="70.6"/>
	</g>
	<g>
		<path d="M455.1,175.3h-0.9v1.5h-1.5v-1.5h-3v-1l3.1-4.6h1.4v4.5h0.9V175.3z M452.8,174.1v-1.2c0-0.2,0-0.5,0-0.9s0-0.6,0-0.7h0
			c-0.1,0.3-0.3,0.5-0.4,0.8l-1.3,2H452.8z"/>
	</g>
</g>
</svg>
