<?xml version="1.0" encoding="utf-8"?>
<!-- Generator: Adobe Illustrator 25.2.0, SVG Export Plug-In . SVG Version: 6.00 Build 0)  -->
<svg version="1.1" xmlns="http://www.w3.org/2000/svg" xmlns:xlink="http://www.w3.org/1999/xlink" x="0px" y="0px" width="546.2px"
	 height="141.1px" viewBox="0 0 546.2 141.1" style="enable-background:new 0 0 546.2 141.1;" xml:space="preserve">
<style type="text/css">
	.st0{display:none;}
	.st1{display:inline;}
	.st2{fill:none;}
	.st3{fill:#3B6F90;}
	.st4{display:inline;fill:#3B6F90;}
	.st5{font-family:'MyriadPro-Regular';}
	.st6{font-size:5.9094px;}
	.st7{font-family:'MyriadPro-Bold';}
	.st8{font-size:44px;}
	.st9{font-size:74px;}
	.st10{font-size:37px;}
	.st11{display:inline;fill:none;stroke:#3B6F90;stroke-miterlimit:10;}
	.st12{fill:#1E4286;}
	.st13{fill:none;stroke:#1E4286;stroke-miterlimit:10;}
</style>
<g id="Layer_1" class="st0">
	<g class="st1">
		
			<image style="overflow:visible;" width="2690" height="692" xlink:href="BFEE9ED8CD35AC21.png"  transform="matrix(0.2023 0 0 0.2023 0 0)">
		</image>
	</g>
</g>
<g id="Centurion_Blue" class="st0">
	<g class="st1">
		<path class="st2" d="M121.7,87.1c0,0-17.9-5.6-21.3-6.9c-3.4-1.3-7.2-1-9.9,0c-1.4,0.5-6.7,2.8-11.7,5c-1.4,0.9-2.9,1.6-4.6,2
			c-2.8,1.2-4.8,2.1-4.8,2.1s-1.8-0.9-4.5-2.1c-1.9-0.5-3.6-1.4-5.2-2.5c-6.4-3.1-13.9-6.6-15.7-7.5c-4.6-2.2-7.4,3.8-3.7,5.9
			c2.4,1.4,29.5,17.8,32.3,19.5c2.7,1.7,4.9,1.6,7.4,1c2.5-0.6,23.5-7.1,24.1-7.1c0.4,0,6.8,2.4,11.2,4.1l16-16
			c1.2-1.2,2.2-2.5,3-3.9l-9.5-3.2L121.7,87.1z"/>
		<path class="st2" d="M21.1,55.3c0,0,14.1,4.9,17.5,6.1c3.4,1.3,7.8,0.4,10.6-0.6c1.4-0.5,6.8-2.9,11.8-5.1
			c1.2-0.7,2.5-1.3,3.8-1.7c3.1-1.3,5.4-2.3,5.4-2.3s2.4,1.2,5.8,2.8c0.8,0.3,1.6,0.7,2.4,1.2c6.6,3.2,15,7.3,17,8.2
			c4.6,2.2,7.5-3.9,3.9-6.1C96.8,56.5,69.6,39.7,66.9,38c-2.7-1.7-5.1-1.7-7.6-1.1c-2.5,0.6-23.2,7.6-23.8,7.6
			c-0.4,0-6.7-2.4-11.1-4L8.9,55.9c-1.5,1.5-2.7,3.2-3.7,5.1l12.7,4.2L21.1,55.3z"/>
		<path class="st3" d="M64.9,87.2c2.7,1.3,4.5,2.1,4.5,2.1s2-0.9,4.8-2.1c-1.4,0.4-2.9,0.6-4.5,0.6C68,87.9,66.5,87.6,64.9,87.2z"/>
		<path class="st3" d="M76,54.6c-3.4-1.6-5.8-2.8-5.8-2.8s-2.3,1-5.4,2.3c1.5-0.5,3.2-0.7,4.9-0.7C71.9,53.4,74,53.8,76,54.6z"/>
		<path class="st3" d="M131.5,55.9l-47-47c-7.9-7.9-20.8-7.9-28.7,0L24.3,40.5c4.4,1.7,10.7,4,11.1,4c0.6,0,21.3-7,23.8-7.6
			c2.5-0.6,4.9-0.6,7.6,1.1c2.7,1.7,30,18.5,32.4,19.9c3.7,2.1,0.8,8.2-3.9,6.1c-1.9-0.9-10.4-5-17-8.2c5.1,3,8.5,8.5,8.5,14.9
			c0,6.2-3.3,11.6-8.2,14.6c5-2.2,10.3-4.5,11.7-5c2.7-1.1,6.6-1.3,9.9,0c3.4,1.3,21.3,6.9,21.3,6.9l3.3-9.5l9.5,3.2
			C139.1,72.9,138.2,62.6,131.5,55.9z"/>
		<path class="st3" d="M80,103.6c-2.5,0.6-4.6,0.7-7.4-1c-2.7-1.7-29.9-18.1-32.3-19.5c-3.7-2.1-0.9-8.1,3.7-5.9
			c1.8,0.8,9.3,4.4,15.7,7.5c-4.4-3.1-7.3-8.3-7.3-14.1c0-6.3,3.4-11.9,8.5-14.9c-5,2.2-10.4,4.5-11.8,5.1
			c-2.7,1.1-7.2,1.9-10.6,0.6c-3.4-1.3-17.5-6.1-17.5-6.1l-3.2,9.9L5.2,61c-3.9,7.6-2.7,17.2,3.7,23.6l47,47
			c7.9,7.9,20.8,7.9,28.7,0l30.9-30.9c-4.4-1.7-10.8-4.1-11.2-4.1C103.6,96.5,82.6,103,80,103.6z"/>
		<path class="st2" d="M64.9,87.2c-1.5-0.7-3.3-1.6-5.2-2.5C61.3,85.8,63.1,86.6,64.9,87.2z"/>
		<path class="st2" d="M78.8,85.2c-1.6,0.7-3.2,1.4-4.6,2C75.8,86.8,77.4,86.1,78.8,85.2z"/>
		<path class="st2" d="M78.4,55.7c-0.8-0.4-1.6-0.8-2.4-1.2C76.8,54.9,77.6,55.3,78.4,55.7z"/>
		<path class="st2" d="M61,55.7c1.3-0.6,2.7-1.2,3.8-1.7C63.4,54.5,62.2,55,61,55.7z"/>
		<path class="st2" d="M69.7,53.4c-1.7,0-3.3,0.3-4.9,0.7c-1.2,0.5-2.5,1.1-3.8,1.7c-5.1,3-8.5,8.5-8.5,14.9c0,5.8,2.9,11,7.3,14.1
			c1.9,0.9,3.7,1.8,5.2,2.5c1.5,0.4,3.1,0.7,4.7,0.7c1.6,0,3.1-0.2,4.5-0.6c1.4-0.6,3-1.3,4.6-2c4.9-3,8.2-8.5,8.2-14.6
			c0-6.3-3.4-11.9-8.5-14.9c-0.8-0.4-1.6-0.8-2.4-1.2C74,53.8,71.9,53.4,69.7,53.4z M78.9,70.8c0,5-4.1,9.1-9.1,9.1
			c-5,0-9.1-4.1-9.1-9.1c0-1.3,0.3-2.5,0.7-3.6c-0.3-0.6-0.5-1.2-0.5-1.9c0-2,1.7-3.7,3.7-3.7c0.8,0,1.5,0.2,2.1,0.6
			c1-0.4,2-0.6,3.1-0.6C74.8,61.7,78.9,65.8,78.9,70.8z"/>
		<path class="st3" d="M66.7,62.3c1,0.7,1.6,1.8,1.6,3.1c0,2-1.7,3.7-3.7,3.7c-1.4,0-2.5-0.7-3.2-1.8c-0.5,1.1-0.7,2.3-0.7,3.6
			c0,5,4.1,9.1,9.1,9.1c5,0,9.1-4.1,9.1-9.1c0-5-4.1-9.1-9.1-9.1C68.7,61.7,67.7,61.9,66.7,62.3z"/>
		<path class="st2" d="M64.6,69c2,0,3.7-1.7,3.7-3.7c0-1.3-0.6-2.4-1.6-3.1c-2.4,0.9-4.2,2.6-5.2,4.9C62.1,68.3,63.3,69,64.6,69z"/>
	</g>
	<text transform="matrix(1 0 0 1 89.8587 133.1841)" class="st4 st5 st6">TM</text>
	<text transform="matrix(0.75 0 0 1 150.2534 39.8648)" class="st4 st7 st8">Clinical and Technical</text>
	<text transform="matrix(0.76 0 0 1 228.4131 97.8648)" class="st4 st7 st9">Services</text>
	<text transform="matrix(0.75 0 0 1 191.6098 131.8653)" class="st4 st7 st10">Support Like No Other</text>
	<line class="st11" x1="511" y1="119.3" x2="542.3" y2="119.3"/>
	<line class="st11" x1="152.3" y1="119.3" x2="183.6" y2="119.3"/>
</g>
<g id="Alcon_Blue">
	<g>
		<path class="st2" d="M121.7,87.1c0,0-17.9-5.6-21.3-6.9c-3.4-1.3-7.2-1-9.9,0c-1.4,0.5-6.7,2.8-11.7,5c-1.4,0.9-2.9,1.6-4.6,2
			c-2.8,1.2-4.8,2.1-4.8,2.1s-1.8-0.9-4.5-2.1c-1.9-0.5-3.6-1.4-5.2-2.5c-6.4-3.1-13.9-6.6-15.7-7.5c-4.6-2.2-7.4,3.8-3.7,5.9
			c2.4,1.4,29.5,17.8,32.3,19.5c2.7,1.7,4.9,1.6,7.4,1c2.5-0.6,23.5-7.1,24.1-7.1c0.4,0,6.8,2.4,11.2,4.1l16-16
			c1.2-1.2,2.2-2.5,3-3.9l-9.5-3.2L121.7,87.1z"/>
		<path class="st2" d="M21.1,55.3c0,0,14.1,4.9,17.5,6.1c3.4,1.3,7.8,0.4,10.6-0.6c1.4-0.5,6.8-2.9,11.8-5.1
			c1.2-0.7,2.5-1.3,3.8-1.7c3.1-1.3,5.4-2.3,5.4-2.3s2.4,1.2,5.8,2.8c0.8,0.3,1.6,0.7,2.4,1.2c6.6,3.2,15,7.3,17,8.2
			c4.6,2.2,7.5-3.9,3.9-6.1C96.8,56.5,69.6,39.7,66.9,38c-2.7-1.7-5.1-1.7-7.6-1.1c-2.5,0.6-23.2,7.6-23.8,7.6
			c-0.4,0-6.7-2.4-11.1-4L8.9,55.9c-1.5,1.5-2.7,3.2-3.7,5.1l12.7,4.2L21.1,55.3z"/>
		<path class="st12" d="M64.9,87.2c2.7,1.3,4.5,2.1,4.5,2.1s2-0.9,4.8-2.1c-1.4,0.4-2.9,0.6-4.5,0.6C68,87.9,66.5,87.6,64.9,87.2z"
			/>
		<path class="st12" d="M76,54.6c-3.4-1.6-5.8-2.8-5.8-2.8s-2.3,1-5.4,2.3c1.5-0.5,3.2-0.7,4.9-0.7C71.9,53.4,74,53.8,76,54.6z"/>
		<path class="st12" d="M131.5,55.9l-47-47c-7.9-7.9-20.8-7.9-28.7,0L24.3,40.5c4.4,1.7,10.7,4,11.1,4c0.6,0,21.3-7,23.8-7.6
			c2.5-0.6,4.9-0.6,7.6,1.1c2.7,1.7,30,18.5,32.4,19.9c3.7,2.1,0.8,8.2-3.9,6.1c-1.9-0.9-10.4-5-17-8.2c5.1,3,8.5,8.5,8.5,14.9
			c0,6.2-3.3,11.6-8.2,14.6c5-2.2,10.3-4.5,11.7-5c2.7-1.1,6.6-1.3,9.9,0c3.4,1.3,21.3,6.9,21.3,6.9l3.3-9.5l9.5,3.2
			C139.1,72.9,138.2,62.6,131.5,55.9z"/>
		<path class="st12" d="M80,103.6c-2.5,0.6-4.6,0.7-7.4-1c-2.7-1.7-29.9-18.1-32.3-19.5c-3.7-2.1-0.9-8.1,3.7-5.9
			c1.8,0.8,9.3,4.4,15.7,7.5c-4.4-3.1-7.3-8.3-7.3-14.1c0-6.3,3.4-11.9,8.5-14.9c-5,2.2-10.4,4.5-11.8,5.1
			c-2.7,1.1-7.2,1.9-10.6,0.6c-3.4-1.3-17.5-6.1-17.5-6.1l-3.2,9.9L5.2,61c-3.9,7.6-2.7,17.2,3.7,23.6l47,47
			c7.9,7.9,20.8,7.9,28.7,0l30.9-30.9c-4.4-1.7-10.8-4.1-11.2-4.1C103.6,96.5,82.6,103,80,103.6z"/>
		<path class="st2" d="M64.9,87.2c-1.5-0.7-3.3-1.6-5.2-2.5C61.3,85.8,63.1,86.6,64.9,87.2z"/>
		<path class="st2" d="M78.8,85.2c-1.6,0.7-3.2,1.4-4.6,2C75.8,86.8,77.4,86.1,78.8,85.2z"/>
		<path class="st2" d="M78.4,55.7c-0.8-0.4-1.6-0.8-2.4-1.2C76.8,54.9,77.6,55.3,78.4,55.7z"/>
		<path class="st2" d="M61,55.7c1.3-0.6,2.7-1.2,3.8-1.7C63.4,54.5,62.2,55,61,55.7z"/>
		<path class="st2" d="M69.7,51.7c-1.7,0-3.3,0.3-4.9,0.7c-1.2,0.5-2.5,1.1-3.8,1.8c-5.1,3.1-8.5,8.9-8.5,15.6
			c0,6.1,2.9,11.5,7.3,14.8c1.9,0.9,3.7,1.8,5.2,2.6c1.5,0.5,3.1,0.7,4.7,0.7c1.6,0,3.1-0.2,4.5-0.6c1.4-0.6,3-1.4,4.6-2.1
			c4.9-3.2,8.2-8.9,8.2-15.3c0-6.6-3.4-12.4-8.5-15.6c-0.8-0.4-1.6-0.8-2.4-1.2C74,52.2,71.9,51.7,69.7,51.7z M78.9,70
			c0,5.2-4.1,9.5-9.1,9.5c-5,0-9.1-4.3-9.1-9.5c0-1.3,0.3-2.6,0.7-3.8c-0.3-0.6-0.5-1.2-0.5-2c0-2.1,1.7-3.9,3.7-3.9
			c0.8,0,1.5,0.2,2.1,0.7c1-0.4,2-0.6,3.1-0.6C74.8,60.5,78.9,64.7,78.9,70z"/>
		<path class="st12" d="M66.7,62.3c1,0.7,1.6,1.8,1.6,3.1c0,2-1.7,3.7-3.7,3.7c-1.4,0-2.5-0.7-3.2-1.8c-0.5,1.1-0.7,2.3-0.7,3.6
			c0,5,4.1,9.1,9.1,9.1c5,0,9.1-4.1,9.1-9.1c0-5-4.1-9.1-9.1-9.1C68.7,61.7,67.7,61.9,66.7,62.3z"/>
		<path class="st2" d="M64.6,69c2,0,3.7-1.7,3.7-3.7c0-1.3-0.6-2.4-1.6-3.1c-2.4,0.9-4.2,2.6-5.2,4.9C62.1,68.3,63.3,69,64.6,69z"/>
	</g>
	<text transform="matrix(1 0 0 1 89.8587 133.1841)" class="st12 st5 st6">TM</text>
	<g>
		<path class="st12" d="M169.1,39c-0.9,0.6-3,1.3-5.7,1.3c-7.7,0-11.7-6.4-11.7-14.8c0-10.1,5.4-15.8,12.1-15.8
			c2.6,0,4.6,0.7,5.5,1.3l-1,5.3c-1-0.6-2.4-1.1-4.2-1.1c-4,0-7.1,3.2-7.1,9.8c0,5.9,2.6,9.7,7.1,9.7c1.5,0,3.2-0.4,4.2-1L169.1,39z
			"/>
		<path class="st12" d="M172.9,10.2h5v24h8.8v5.6h-13.9V10.2z"/>
		<path class="st12" d="M195.3,10.2v29.7h-5V10.2H195.3z"/>
		<path class="st12" d="M200.1,39.9V10.2h5.9l4.6,10.9c1.3,3.1,2.6,6.8,3.6,10.2h0.1c-0.3-3.9-0.4-7.9-0.4-12.4v-8.7h4.6v29.7h-5.3
			l-4.8-11.4c-1.3-3.2-2.8-7-3.9-10.5l-0.1,0c0.1,3.9,0.2,8.1,0.2,12.9v8.9H200.1z"/>
		<path class="st12" d="M228.4,10.2v29.7h-5V10.2H228.4z"/>
		<path class="st12" d="M249.6,39c-0.9,0.6-3,1.3-5.7,1.3c-7.7,0-11.7-6.4-11.7-14.8c0-10.1,5.4-15.8,12.1-15.8
			c2.6,0,4.6,0.7,5.5,1.3l-1,5.3c-1-0.6-2.4-1.1-4.2-1.1c-4,0-7.1,3.2-7.1,9.8c0,5.9,2.6,9.7,7.1,9.7c1.5,0,3.2-0.4,4.2-1L249.6,39z
			"/>
		<path class="st12" d="M258.9,32.3l-1.6,7.6h-5.2l6.8-29.7h6.6l6.9,29.7H267l-1.7-7.6H258.9z M264.6,27.2l-1.4-6.3
			c-0.4-1.8-0.8-4-1.1-5.7H262c-0.3,1.8-0.7,4-1,5.7l-1.3,6.3H264.6z"/>
		<path class="st12" d="M275.9,10.2h5v24h8.8v5.6h-13.9V10.2z"/>
		<path class="st12" d="M305.6,32.3l-1.6,7.6h-5.2l6.8-29.7h6.6l6.9,29.7h-5.4l-1.7-7.6H305.6z M311.2,27.2l-1.4-6.3
			c-0.4-1.8-0.8-4-1.1-5.7h-0.1c-0.3,1.8-0.7,4-1,5.7l-1.3,6.3H311.2z"/>
		<path class="st12" d="M322.6,39.9V10.2h5.9l4.6,10.9c1.3,3.1,2.6,6.8,3.6,10.2h0.1c-0.3-3.9-0.4-7.9-0.4-12.4v-8.7h4.6v29.7h-5.3
			l-4.8-11.4c-1.3-3.2-2.8-7-3.9-10.5l-0.1,0c0.1,3.9,0.2,8.1,0.2,12.9v8.9H322.6z"/>
		<path class="st12" d="M345.8,10.6c1.8-0.4,4.3-0.6,6.8-0.6c4.2,0,7,1,9.1,3.2c2.3,2.3,3.8,5.9,3.8,11.2c0,5.7-1.6,9.6-3.7,12
			c-2.3,2.6-5.9,3.8-10.3,3.8c-2.6,0-4.5-0.2-5.7-0.4V10.6z M350.9,34.8c0.4,0.1,1.1,0.1,1.7,0.1c4.6,0,7.5-3.3,7.5-10.4
			c0-6.2-2.7-9.4-7-9.4c-1.1,0-1.8,0.1-2.3,0.3V34.8z"/>
		<path class="st12" d="M379.5,15.8h-6v-5.6h17.1v5.6h-6.1v24h-5V15.8z"/>
		<path class="st12" d="M407,27.3h-8.2v7h9.1v5.5h-14.2V10.2h13.7v5.5h-8.7v6.2h8.2V27.3z"/>
		<path class="st12" d="M428.2,39c-0.9,0.6-3,1.3-5.7,1.3c-7.7,0-11.7-6.4-11.7-14.8c0-10.1,5.4-15.8,12.1-15.8
			c2.6,0,4.6,0.7,5.5,1.3l-1,5.3c-1-0.6-2.4-1.1-4.2-1.1c-4,0-7.1,3.2-7.1,9.8c0,5.9,2.6,9.7,7.1,9.7c1.5,0,3.2-0.4,4.2-1L428.2,39z
			"/>
		<path class="st12" d="M437,10.2v11.4h8.3V10.2h5v29.7h-5V27.5H437v12.4h-5V10.2H437z"/>
		<path class="st12" d="M455.2,39.9V10.2h5.9l4.6,10.9c1.3,3.1,2.6,6.8,3.6,10.2h0.1c-0.3-3.9-0.4-7.9-0.4-12.4v-8.7h4.6v29.7h-5.3
			l-4.8-11.4c-1.3-3.2-2.8-7-3.9-10.5l-0.1,0c0.1,3.9,0.2,8.1,0.2,12.9v8.9H455.2z"/>
		<path class="st12" d="M483.5,10.2v29.7h-5V10.2H483.5z"/>
		<path class="st12" d="M504.7,39c-0.9,0.6-3,1.3-5.7,1.3c-7.7,0-11.7-6.4-11.7-14.8c0-10.1,5.4-15.8,12.1-15.8
			c2.6,0,4.6,0.7,5.5,1.3l-1,5.3c-1-0.6-2.4-1.1-4.2-1.1c-4,0-7.1,3.2-7.1,9.8c0,5.9,2.6,9.7,7.1,9.7c1.5,0,3.2-0.4,4.2-1L504.7,39z
			"/>
		<path class="st12" d="M514,32.3l-1.6,7.6h-5.2l6.8-29.7h6.6l6.9,29.7h-5.4l-1.7-7.6H514z M519.7,27.2l-1.4-6.3
			c-0.4-1.8-0.8-4-1.1-5.7h-0.1c-0.3,1.8-0.7,4-1,5.7l-1.3,6.3H519.7z"/>
		<path class="st12" d="M531,10.2h5v24h8.8v5.6H531V10.2z"/>
		<path class="st12" d="M232.6,86.2c2.3,1.6,5.8,3.1,9.5,3.1c3.9,0,6-2.1,6-5.4c0-3.1-1.8-4.9-6.4-7c-6.3-2.9-10.4-7.5-10.4-14.7
			c0-8.5,5.4-15,14.3-15c4.3,0,7.4,1.2,9.7,2.5l-1.9,9.1c-1.5-1-4.2-2.4-7.9-2.4c-3.7,0-5.5,2.2-5.5,4.8c0,3.2,2.1,4.6,7,7
			c6.7,3.3,9.8,7.8,9.8,14.9c0,8.4-4.9,15.5-15.3,15.5c-4.3,0-8.6-1.5-10.7-3L232.6,86.2z"/>
		<path class="st12" d="M285.2,76.8h-13.9v11.8h15.6v9.3h-24.2V48h23.4v9.3h-14.8v10.4h13.9V76.8z"/>
		<path class="st12" d="M292.7,48.7c2.8-0.6,6.9-1,11.4-1c5.6,0,9.6,1.1,12.3,3.9c2.2,2.4,3.5,5.8,3.5,10.4c0,6.4-3.4,10.7-6.7,12.3
			v0.2c2.6,1.4,4.1,4.7,5.1,9.3c1.2,5.6,2.4,12.1,3.1,14.1h-8.8c-0.6-1.4-1.5-5.5-2.6-11.6c-1-6.2-2.6-7.9-6.1-8h-2.6v19.6h-8.5
			V48.7z M301.2,70.1h3.4c4.3,0,6.8-2.8,6.8-7.2c0-4.6-2.4-6.9-6.3-7c-2.1,0-3.3,0.2-3.9,0.4V70.1z"/>
		<path class="st12" d="M334.6,97.9L322.5,48h9.4l4.6,21.1c1.3,5.9,2.5,11.6,3.4,17.8h0.2c1-6,2.1-11.9,3.4-17.6l4.8-21.3h9.1
			l-12.8,49.9H334.6z"/>
		<path class="st12" d="M370.1,48v49.9h-8.6V48H370.1z"/>
		<path class="st12" d="M405.3,96.5c-1.6,1-5.1,2.1-9.7,2.1c-13.1,0-19.9-10.7-19.9-24.9c0-17,9.2-26.5,20.7-26.5
			c4.4,0,7.8,1.2,9.3,2.2l-1.7,9c-1.7-1-4.2-1.9-7.2-1.9c-6.8,0-12.1,5.4-12.1,16.5c0,10,4.5,16.3,12.1,16.3c2.6,0,5.5-0.7,7.1-1.6
			L405.3,96.5z"/>
		<path class="st12" d="M433.5,76.8h-13.9v11.8h15.6v9.3H411V48h23.4v9.3h-14.8v10.4h13.9V76.8z"/>
		<path class="st12" d="M441.3,86.2c2.3,1.6,5.8,3.1,9.5,3.1c3.9,0,6-2.1,6-5.4c0-3.1-1.8-4.9-6.4-7C444.1,74,440,69.4,440,62.2
			c0-8.5,5.4-15,14.3-15c4.3,0,7.4,1.2,9.7,2.5l-1.9,9.1c-1.5-1-4.2-2.4-7.9-2.4s-5.5,2.2-5.5,4.8c0,3.2,2.1,4.6,7,7
			c6.7,3.3,9.8,7.8,9.8,14.9c0,8.4-4.9,15.5-15.3,15.5c-4.3,0-8.6-1.5-10.7-3L441.3,86.2z"/>
		<path class="st12" d="M194,126.1c1.1,0.8,2.9,1.6,4.7,1.6c1.9,0,3-1.1,3-2.7c0-1.6-0.9-2.4-3.1-3.5c-3.1-1.4-5.1-3.7-5.1-7.4
			c0-4.3,2.7-7.5,7.1-7.5c2.1,0,3.7,0.6,4.8,1.3l-0.9,4.6c-0.7-0.5-2.1-1.2-3.9-1.2s-2.7,1.1-2.7,2.4c0,1.6,1.1,2.3,3.5,3.5
			c3.3,1.6,4.9,3.9,4.9,7.4c0,4.2-2.4,7.7-7.5,7.7c-2.1,0-4.2-0.7-5.3-1.5L194,126.1z"/>
		<path class="st12" d="M213,106.9v14.4c0,4.3,1.2,6.5,3.4,6.5c2.2,0,3.4-2.1,3.4-6.5v-14.4h4.2v14c0,7.7-2.9,11.4-7.8,11.4
			c-4.7,0-7.5-3.5-7.5-11.4v-13.9H213z"/>
		<path class="st12" d="M227.7,107.3c1.3-0.3,3.1-0.5,5.7-0.5c2.6,0,4.5,0.7,5.7,2c1.2,1.3,2,3.3,2,5.8c0,2.4-0.6,4.5-1.7,5.9
			c-1.4,1.8-3.6,2.6-6.1,2.6c-0.6,0-1.1,0-1.4-0.1v8.9h-4.2V107.3z M231.9,118.6c0.4,0.1,0.8,0.1,1.4,0.1c2.2,0,3.6-1.5,3.6-4.1
			c0-2.3-1.2-3.7-3.3-3.7c-0.9,0-1.4,0.1-1.7,0.2V118.6z"/>
		<path class="st12" d="M243.9,107.3c1.3-0.3,3.1-0.5,5.7-0.5c2.6,0,4.5,0.7,5.7,2c1.2,1.3,2,3.3,2,5.8c0,2.4-0.6,4.5-1.7,5.9
			c-1.4,1.8-3.6,2.6-6.1,2.6c-0.6,0-1.1,0-1.4-0.1v8.9h-4.2V107.3z M248.1,118.6c0.4,0.1,0.8,0.1,1.4,0.1c2.2,0,3.6-1.5,3.6-4.1
			c0-2.3-1.2-3.7-3.3-3.7c-0.9,0-1.4,0.1-1.7,0.2V118.6z"/>
		<path class="st12" d="M277.1,119.1c0,8.2-3.7,13.1-9.2,13.1c-5.6,0-8.8-5.6-8.8-12.7c0-7.5,3.6-13.1,9.1-13.1
			C274,106.5,277.1,112.3,277.1,119.1z M263.6,119.5c0,4.9,1.7,8.3,4.6,8.3c2.9,0,4.5-3.6,4.5-8.5c0-4.5-1.6-8.3-4.5-8.3
			C265.3,111,263.6,114.6,263.6,119.5z"/>
		<path class="st12" d="M279.9,107.3c1.4-0.3,3.4-0.5,5.6-0.5c2.8,0,4.7,0.6,6.1,2c1.1,1.2,1.7,2.9,1.7,5.2c0,3.2-1.7,5.4-3.3,6.1
			v0.1c1.3,0.7,2,2.4,2.5,4.7c0.6,2.8,1.2,6.1,1.5,7h-4.3c-0.3-0.7-0.7-2.7-1.3-5.8c-0.5-3.1-1.3-4-3-4h-1.3v9.8h-4.2V107.3z
			 M284.1,118h1.7c2.1,0,3.4-1.4,3.4-3.6c0-2.3-1.2-3.4-3.1-3.5c-1,0-1.6,0.1-1.9,0.2V118z"/>
		<path class="st12" d="M299.9,111.7h-5v-4.7h14.4v4.7h-5.1v20.2h-4.2V111.7z"/>
		<path class="st12" d="M317.1,106.9h4.2v20.2h7.4v4.7h-11.7V106.9z"/>
		<path class="st12" d="M335.6,106.9v24.9h-4.2v-24.9H335.6z"/>
		<path class="st12" d="M339.2,106.9h4.2v11h0.1c0.4-1,0.9-1.8,1.3-2.7l4.2-8.3h5.2l-6.2,10.6l6.5,14.3h-4.9l-4.6-10.8l-1.6,2.6v8.1
			h-4.2V106.9z"/>
		<path class="st12" d="M367.4,121.3h-6.9v5.9h7.7v4.6h-11.9v-24.9h11.5v4.6h-7.3v5.2h6.9V121.3z"/>
		<path class="st12" d="M376.7,131.9v-24.9h4.9l3.9,9.1c1.1,2.6,2.2,5.7,3.1,8.5h0.1c-0.3-3.3-0.4-6.7-0.4-10.4v-7.3h3.9v24.9h-4.4
			l-4-9.6c-1.1-2.7-2.3-5.9-3.2-8.8l-0.1,0c0.1,3.3,0.2,6.8,0.2,10.9v7.5H376.7z"/>
		<path class="st12" d="M413,119.1c0,8.2-3.7,13.1-9.2,13.1c-5.6,0-8.8-5.6-8.8-12.7c0-7.5,3.6-13.1,9.1-13.1
			C409.8,106.5,413,112.3,413,119.1z M399.5,119.5c0,4.9,1.7,8.3,4.6,8.3c2.9,0,4.5-3.6,4.5-8.5c0-4.5-1.6-8.3-4.5-8.3
			C401.1,111,399.5,114.6,399.5,119.5z"/>
		<path class="st12" d="M438.5,119.1c0,8.2-3.7,13.1-9.2,13.1c-5.6,0-8.8-5.6-8.8-12.7c0-7.5,3.6-13.1,9.1-13.1
			C435.3,106.5,438.5,112.3,438.5,119.1z M425,119.5c0,4.9,1.7,8.3,4.6,8.3c2.9,0,4.5-3.6,4.5-8.5c0-4.5-1.6-8.3-4.5-8.3
			C426.6,111,425,114.6,425,119.5z"/>
		<path class="st12" d="M444.1,111.7h-5v-4.7h14.4v4.7h-5.1v20.2h-4.2V111.7z"/>
		<path class="st12" d="M459.9,106.9v9.6h7v-9.6h4.2v24.9h-4.2v-10.4h-7v10.4h-4.2v-24.9H459.9z"/>
		<path class="st12" d="M485.9,121.3H479v5.9h7.7v4.6h-11.9v-24.9h11.5v4.6H479v5.2h6.9V121.3z"/>
		<path class="st12" d="M489.6,107.3c1.4-0.3,3.4-0.5,5.6-0.5c2.8,0,4.7,0.6,6.1,2c1.1,1.2,1.7,2.9,1.7,5.2c0,3.2-1.7,5.4-3.3,6.1
			v0.1c1.3,0.7,2,2.4,2.5,4.7c0.6,2.8,1.2,6.1,1.5,7h-4.3c-0.3-0.7-0.8-2.7-1.3-5.8c-0.5-3.1-1.3-4-3-4h-1.3v9.8h-4.2V107.3z
			 M493.8,118h1.7c2.1,0,3.4-1.4,3.4-3.6c0-2.3-1.2-3.4-3.1-3.5c-1,0-1.6,0.1-1.9,0.2V118z"/>
	</g>
	<line class="st13" x1="511" y1="119.3" x2="542.3" y2="119.3"/>
	<line class="st13" x1="152.3" y1="119.3" x2="183.6" y2="119.3"/>
</g>
</svg>
