<?xml version="1.0" encoding="utf-8"?>
<!-- Generator: Adobe Illustrator 25.2.0, SVG Export Plug-In . SVG Version: 6.00 Build 0)  -->
<svg version="1.1" id="Layer_2_1_" xmlns="http://www.w3.org/2000/svg" xmlns:xlink="http://www.w3.org/1999/xlink" x="0px" y="0px"
	 width="19.4px" height="18px" viewBox="0 0 19.4 18" style="enable-background:new 0 0 19.4 18;" xml:space="preserve">
<style type="text/css">
	.st0{fill:#FFFFFF;}
	.st1{fill:#010101;}
</style>
<g>
	<polygon class="st0" points="0.5,17.5 0.5,11.5 2.9,7.5 5.3,11.2 7.4,7.5 9.7,11.1 12,7.5 14.7,12 14.7,0.5 18.9,0.5 18.9,17.5 	
		"/>
	<path class="st1" d="M18.4,1v16H1v-5.3l1.9-3.3l1.5,2.3l0.9,1.4l0.8-1.4l1.3-2.3l1.4,2.3l0.9,1.4l0.8-1.4L12,8.4l1.4,2.3l1.9,3
		v-3.5V1H18.4 M19.4,0h-5.2v10.2L12,6.5l-2.3,3.7L7.4,6.5l-2.1,3.7L2.9,6.5L0,11.4V18h19.4V0L19.4,0z"/>
</g>
<rect x="13.5" y="12.2" class="st0" width="2.3" height="3.1"/>
</svg>
