<?xml version="1.0" encoding="utf-8"?>
<!-- Generator: Adobe Illustrator 24.0.3, SVG Export Plug-In . SVG Version: 6.00 Build 0)  -->
<svg version="1.1" id="Layer_1" xmlns="http://www.w3.org/2000/svg" xmlns:xlink="http://www.w3.org/1999/xlink" x="0px" y="0px"
	 viewBox="0 0 87.05 37.36" style="enable-background:new 0 0 87.05 37.36;" xml:space="preserve">
<style type="text/css">
	.st0{fill:#FFFFFF;}
</style>
<g>
	<g>
		<rect x="19.97" y="1.5" class="st0" width="65.58" height="34.36"/>
		<path d="M84.05,3v31.36H21.47V18.68V3L84.05,3 M87.05,0H18.47v18.68v18.68h68.58V0L87.05,0z"/>
	</g>
	<circle cx="18.68" cy="18.68" r="18.68"/>
	<g>
		<path class="st0" d="M17.29,8.74c0.64,0.3,1.18,0.73,1.63,1.31c0.37,0.47,0.66,1,0.88,1.57s0.32,1.23,0.32,1.97
			c0,0.89-0.21,1.76-0.63,2.62s-1.11,1.47-2.07,1.82c0.8,0.35,1.37,0.84,1.71,1.48s0.5,1.61,0.5,2.93v1.26
			c0,0.85,0.03,1.43,0.1,1.74c0.1,0.48,0.32,0.84,0.67,1.07v0.47h-4.01c-0.11-0.42-0.19-0.75-0.24-1C16.06,25.45,16,24.92,16,24.37
			l-0.02-1.74c-0.02-1.19-0.21-1.99-0.58-2.39s-1.06-0.6-2.07-0.6H9.78v7.34H6.23V8.27h8.32C15.74,8.28,16.65,8.44,17.29,8.74z
			 M9.78,11.51v5.03h3.91c0.78,0,1.36-0.1,1.75-0.3c0.69-0.36,1.03-1.06,1.03-2.11c0-1.13-0.33-1.9-1-2.29
			c-0.37-0.22-0.93-0.33-1.68-0.33L9.78,11.51L9.78,11.51z"/>
		<path class="st0" d="M21.11,26.97l4.39-7.01l-4.2-6.8h4.12l2.15,4.01l2.1-4.01h4l-4.23,6.74l4.39,7.07h-4.19l-2.21-4.16
			l-2.24,4.16H21.11z"/>
	</g>
	<g>
		<path d="M49.31,25.28c-0.85,1.44-2.15,2.16-3.88,2.16s-3.03-0.72-3.88-2.16s-1.28-3.18-1.28-5.21c0-2,0.43-3.73,1.28-5.19
			s2.15-2.19,3.88-2.19s3.03,0.73,3.88,2.19s1.28,3.19,1.28,5.19C50.58,22.1,50.16,23.84,49.31,25.28z M47.19,23.28
			c0.41-0.75,0.62-1.82,0.62-3.21c0-1.39-0.21-2.45-0.62-3.2s-1.01-1.12-1.78-1.12s-1.37,0.37-1.78,1.12
			c-0.42,0.75-0.63,1.81-0.63,3.2s0.21,2.46,0.63,3.21s1.01,1.13,1.78,1.13S46.78,24.03,47.19,23.28z"/>
		<path d="M60.62,13.93c0.66,0.75,0.99,1.99,0.99,3.73v9.32H58.9v-8.42c0-0.73-0.07-1.29-0.21-1.68c-0.26-0.71-0.75-1.07-1.47-1.07
			c-0.89,0-1.5,0.52-1.83,1.56c-0.17,0.55-0.26,1.25-0.26,2.11v7.49h-2.64V13.16h2.56v2.02c0.34-0.71,0.66-1.22,0.96-1.54
			c0.54-0.56,1.23-0.84,2.06-0.84C59.11,12.8,59.96,13.18,60.62,13.93z"/>
		<path d="M66.77,26.97h-2.64V8.26h2.64V26.97z"/>
		<path d="M69.74,29.62l0.33,0.03c0.26,0.02,0.51,0,0.74-0.04c0.23-0.04,0.43-0.14,0.59-0.29c0.16-0.14,0.3-0.44,0.43-0.9
			s0.19-0.74,0.17-0.84l-3.71-14.45h2.94l2.21,10.21l2.09-10.21h2.81l-3.46,13.61c-0.67,2.62-1.2,4.25-1.59,4.88
			c-0.39,0.63-1.17,0.95-2.34,0.95c-0.23,0-0.42,0-0.57-0.01c-0.14,0-0.36-0.02-0.64-0.04L69.74,29.62L69.74,29.62z"/>
	</g>
</g>
</svg>
