<?xml version="1.0" encoding="utf-8"?>
<!-- Generator: Adobe Illustrator 25.2.0, SVG Export Plug-In . SVG Version: 6.00 Build 0)  -->
<svg version="1.1" id="Layer_1" xmlns="http://www.w3.org/2000/svg" xmlns:xlink="http://www.w3.org/1999/xlink" x="0px" y="0px"
	 width="19px" height="13.8px" viewBox="0 0 19 13.8" style="enable-background:new 0 0 19 13.8;" xml:space="preserve">
<style type="text/css">
	.st0{fill-rule:evenodd;clip-rule:evenodd;}
</style>
<path class="st0" d="M7.2,11.8c-0.1,0-0.2,0-0.3,0C4.2,11.8,2,9.6,2,6.8c0-2.7,2.2-4.9,4.9-4.9c0.1,0,0.2,0,0.3,0l0-1.9
	C7.1,0,7,0,6.9,0C3.1,0,0,3.1,0,6.9c0,3.8,3,6.8,6.9,6.9c0.1,0,0.2,0,0.3,0L7.2,11.8z"/>
<path class="st0" d="M19,11.8c-0.1,0-0.2,0-0.3,0c-2.5,0-4.5-1.8-4.9-4.3h3.9V5.6c0,0-2.5,0-3.8,0c0.7-2.2,2.3-3.7,4.8-3.7
	c0.1,0,0.2,0,0.3,0L19,0c-0.1,0-0.2,0-0.3,0c-3.8,0-6.9,3.1-6.9,6.9c0,3.8,3.1,6.9,6.9,6.9c0.1,0,0.2,0,0.3,0L19,11.8z"/>
</svg>
