<?xml version="1.0" encoding="utf-8"?>
<!-- Generator: Adobe Illustrator 24.0.3, SVG Export Plug-In . SVG Version: 6.00 Build 0)  -->
<svg version="1.1" id="Layer_1" xmlns="http://www.w3.org/2000/svg" xmlns:xlink="http://www.w3.org/1999/xlink" x="0px" y="0px"
	 viewBox="0 0 59.33 69.65" style="enable-background:new 0 0 59.33 69.65;" xml:space="preserve">
<style type="text/css">
	.st0{display:none;fill:none;stroke:#000000;stroke-width:0.5069;}
	.st1{fill:none;}
	.st2{display:none;enable-background:new    ;}
	.st3{font-family:'MyriadPro-Bold';}
	.st4{font-size:6.1232px;}
	.st5{font-family:'ArialNarrow';}
	.st6{font-size:4.5px;}
</style>
<g>
	<rect x="-0.75" y="-2.09" class="st0" width="60.64" height="72.18"/>
	<g>
		<g>
			<g>
				<g>
					<rect x="9.21" y="43.05" width="1.52" height="8.12"/>
					<path d="M12.05,45.49h1.35v1.08l0.73-1.03c0.45-0.16,0.93-0.19,1.15-0.19c1.63,0,1.95,1.04,1.95,2.22v3.6h-1.35v-3.23
						c0-0.86-0.16-1.54-1.21-1.54c-0.41,0-0.9,0.15-1.29,0.42v4.35h-1.35v-5.68H12.05z"/>
					<path d="M20.84,51.23c-0.16,0.04-0.37,0.08-0.68,0.08c-0.32,0-0.78-0.05-1.14-0.44c-0.34-0.39-0.34-0.79-0.33-1.3l0.02-3.12
						h-0.73l0.61-0.98h0.15V44.4l1.33-0.41v1.48h1.28v0.98h-1.3l-0.02,2.49c0,0.62,0,0.86,0.14,1.07c0.1,0.15,0.32,0.31,0.7,0.31
						c0.25,0,0.52-0.07,0.76-0.15L20.84,51.23z"/>
					<path d="M26.2,51.13c-0.45,0.12-0.91,0.18-1.37,0.18c-2.05,0-3.08-1.24-3.08-2.96c0-1.76,1.08-3.01,2.74-3.01
						c0.41,0,0.8,0.07,1.17,0.24c1.37,0.63,1.38,2.14,1.39,2.83H23.2c0.03,0.37,0.08,0.98,0.55,1.43c0.39,0.37,0.94,0.49,1.48,0.49
						c0.77,0,1.39-0.25,1.62-0.35L26.2,51.13z M25.67,47.56c-0.01-0.2-0.03-0.63-0.33-0.95c-0.21-0.22-0.49-0.34-0.83-0.34
						c-0.7,0-1.15,0.55-1.29,1.3L25.67,47.56L25.67,47.56z"/>
					<path d="M29.23,51.17h-1.38v-5.68h1.38v0.99l0.66-0.92c0.23-0.09,0.57-0.18,1.06-0.18c0.25,0,0.38,0.03,0.54,0.08v1.31
						c-0.3-0.15-0.63-0.32-1.1-0.32c-0.26,0-0.7,0.06-1.15,0.34v4.38H29.23z"/>
					<path d="M34.72,51.23c-0.16,0.04-0.37,0.08-0.68,0.08c-0.32,0-0.78-0.05-1.14-0.44c-0.34-0.39-0.34-0.79-0.33-1.3l0.02-3.12
						h-0.74l0.61-0.98h0.15V44.4l1.33-0.41v1.48h1.28v0.98h-1.3l-0.02,2.49c0,0.62,0,0.86,0.14,1.07c0.1,0.15,0.32,0.31,0.7,0.31
						c0.25,0,0.52-0.07,0.76-0.15L34.72,51.23z"/>
					<path d="M40.08,51.13c-0.45,0.12-0.91,0.18-1.37,0.18c-2.04,0-3.08-1.24-3.08-2.96c0-1.76,1.08-3.01,2.74-3.01
						c0.4,0,0.8,0.07,1.17,0.24c1.37,0.63,1.38,2.14,1.39,2.83h-3.85c0.04,0.37,0.08,0.98,0.55,1.43c0.39,0.37,0.94,0.49,1.48,0.49
						c0.77,0,1.39-0.25,1.62-0.35L40.08,51.13z M39.55,47.56c-0.01-0.2-0.03-0.63-0.33-0.95c-0.21-0.22-0.49-0.34-0.83-0.34
						c-0.7,0-1.15,0.55-1.29,1.3L39.55,47.56L39.55,47.56z"/>
					<polygon points="47.29,51.17 45.62,51.17 43.09,48.17 43.09,51.17 41.73,51.17 41.73,43.05 43.09,43.05 43.09,47.91 
						45.39,45.49 46.96,45.49 44.58,48.01 					"/>
				</g>
				<rect x="9.21" y="39.93" width="38.08" height="0.95"/>
			</g>
			<path d="M7.95,30.45c-0.18,0.23-0.44,0.35-0.78,0.35c-0.33,0-0.61-0.13-0.82-0.4c-0.22-0.27-0.32-0.67-0.32-1.2
				c0-0.54,0.1-0.95,0.31-1.24c0.21-0.29,0.49-0.44,0.84-0.44s0.61,0.1,0.79,0.31c0.1,0.12,0.18,0.29,0.24,0.52h1
				c-0.02-0.3-0.13-0.6-0.33-0.89c-0.37-0.53-0.95-0.79-1.74-0.79c-0.59,0-1.08,0.2-1.47,0.59c-0.44,0.45-0.66,1.09-0.66,1.93
				c0,0.77,0.19,1.38,0.58,1.82c0.39,0.44,0.92,0.66,1.6,0.66c0.55,0,1-0.16,1.35-0.49c0.35-0.32,0.57-0.75,0.65-1.27h-1
				C8.13,30.14,8.05,30.33,7.95,30.45z"/>
			<g>
				<path d="M50.11,29.73c0,0.33-0.04,0.57-0.12,0.72c-0.12,0.27-0.38,0.4-0.78,0.4s-0.67-0.13-0.79-0.4
					c-0.08-0.15-0.12-0.39-0.12-0.72V26.8h-1.02v2.94c0,0.51,0.08,0.9,0.24,1.19c0.3,0.52,0.86,0.78,1.69,0.78
					c0.83,0,1.39-0.26,1.68-0.78c0.16-0.28,0.24-0.68,0.24-1.19V26.8h-1.02V29.73z"/>
				<path d="M55.17,29.21c-0.18-0.14-0.46-0.26-0.82-0.35l-0.83-0.2c-0.32-0.08-0.53-0.14-0.63-0.2c-0.15-0.08-0.23-0.21-0.23-0.38
					c0-0.19,0.08-0.33,0.23-0.44c0.15-0.1,0.36-0.16,0.62-0.16c0.23,0,0.43,0.04,0.59,0.12c0.24,0.12,0.36,0.33,0.38,0.62h0.96
					c-0.02-0.51-0.21-0.9-0.56-1.16c-0.36-0.27-0.79-0.4-1.3-0.4c-0.61,0-1.07,0.14-1.38,0.43c-0.32,0.28-0.47,0.64-0.47,1.07
					c0,0.47,0.16,0.82,0.48,1.04c0.19,0.13,0.54,0.25,1.04,0.37l0.51,0.11c0.3,0.07,0.52,0.14,0.66,0.22
					c0.14,0.09,0.21,0.21,0.21,0.37c0,0.27-0.14,0.45-0.42,0.55c-0.15,0.05-0.34,0.08-0.58,0.08c-0.4,0-0.68-0.1-0.84-0.29
					c-0.09-0.11-0.15-0.27-0.18-0.49h-0.96c0,0.5,0.18,0.89,0.54,1.18c0.36,0.28,0.85,0.42,1.48,0.42c0.61,0,1.09-0.15,1.42-0.43
					c0.34-0.29,0.51-0.65,0.51-1.09C55.59,29.76,55.45,29.43,55.17,29.21z"/>
			</g>
			<path d="M28.25,0C17.73,0,9.21,8.52,9.21,19.04c0,7.74,4.62,14.4,11.25,17.38l1.04-2.32c-1.84-0.83-3.51-1.98-4.92-3.4
				c-2.99-2.99-4.83-7.1-4.83-11.66s1.85-8.67,4.83-11.66c2.99-2.99,7.1-4.83,11.66-4.83s8.67,1.84,11.66,4.83s4.83,7.1,4.83,11.66
				s-1.84,8.67-4.83,11.66c-1.41,1.41-3.07,2.57-4.92,3.4l1.04,2.32c6.63-2.97,11.25-9.64,11.25-17.38C47.28,8.53,38.76,0,28.25,0z"
				/>
			<g>
				<g>
					<g>
						<g>
							<path d="M41.78,17.79h-3.54c0.06,0.46,0.1,0.93,0.1,1.41c0,2.43-0.85,4.65-2.27,6.4L36.06,7.99
								c-0.99-0.71-2.01-1.21-3.17-1.64v25.69c5.23-1.92,8.97-6.95,8.97-12.85C41.85,18.72,41.83,18.25,41.78,17.79z"/>
							<path d="M24.54,6.01V9.7c0.69-0.26,1.41-0.45,2.17-0.56V32.8c0.48,0.05,0.97,0.08,1.46,0.08c0.61,0,1.2-0.04,1.78-0.11V9.2
								c0.78,0.14,1.52,0.36,2.23,0.66V6.12c-1.27-0.39-2.62-0.6-4.01-0.6C26.92,5.52,25.7,5.69,24.54,6.01z"/>
							<path d="M14.49,19.2c0,6.04,3.92,11.17,9.35,12.98V28.4c-2.99-1.41-5.18-4.24-5.71-7.61h5.52v-3.38h-5.49
								c0.58-3.28,2.75-6.02,5.68-7.41V6.22C18.41,8.03,14.49,13.16,14.49,19.2z"/>
						</g>
					</g>
				</g>
			</g>
			<g>
				<path d="M39.23,16.82c-0.06,0.05-0.13,0.08-0.21,0.08c-0.11,0-0.21-0.04-0.28-0.12s-0.11-0.22-0.11-0.42
					c0-0.18,0.04-0.32,0.11-0.4c0.07-0.08,0.17-0.12,0.28-0.12c0.08,0,0.15,0.02,0.21,0.07c0.06,0.04,0.1,0.11,0.12,0.19l0.31-0.08
					c-0.04-0.12-0.09-0.22-0.16-0.29c-0.12-0.11-0.27-0.17-0.46-0.17c-0.22,0-0.39,0.07-0.53,0.21c-0.13,0.14-0.2,0.35-0.2,0.6
					c0,0.24,0.07,0.44,0.2,0.58c0.13,0.14,0.3,0.21,0.51,0.21c0.17,0,0.31-0.04,0.41-0.12c0.11-0.08,0.18-0.21,0.23-0.38l-0.31-0.1
					C39.33,16.68,39.29,16.77,39.23,16.82z"/>
				<polygon points="40.92,15.59 40.64,16.65 40.36,15.59 39.89,15.59 39.89,17.14 40.18,17.14 40.18,15.92 40.48,17.14 
					40.79,17.14 41.09,15.92 41.1,17.14 41.39,17.14 41.39,15.59 				"/>
			</g>
			<g>
				<polygon points="22.69,34.59 22.05,34.37 21.24,36.76 21.3,36.78 23.16,37.41 23.33,36.9 22.06,36.46 				"/>
				<polygon points="23.62,37.5 23.69,37.51 24.28,37.65 24.85,35.18 24.19,35.02 				"/>
				<path d="M26.24,35.36c-0.08-0.01-0.16-0.02-0.24-0.02c-0.12,0-0.22,0.01-0.32,0.04c-0.16,0.04-0.3,0.11-0.4,0.22
					c-0.1,0.11-0.16,0.23-0.17,0.36c0,0.03-0.01,0.06-0.01,0.08c0,0.18,0.07,0.34,0.21,0.49c0.12,0.12,0.32,0.22,0.61,0.32
					c0.22,0.08,0.36,0.13,0.42,0.15c0.08,0.04,0.13,0.08,0.15,0.1c0.02,0.03,0.03,0.05,0.03,0.08c0,0.01,0,0.01,0,0.02
					c-0.01,0.06-0.04,0.11-0.13,0.16c-0.06,0.03-0.14,0.05-0.24,0.05c-0.04,0-0.08,0-0.13-0.01c-0.15-0.02-0.26-0.07-0.34-0.14
					c-0.07-0.08-0.12-0.18-0.13-0.33v-0.06l-0.66-0.02v0.07c0,0.28,0.09,0.52,0.27,0.7c0.18,0.18,0.44,0.28,0.79,0.32
					c0.1,0.01,0.19,0.02,0.28,0.02c0.12,0,0.24-0.01,0.34-0.04c0.17-0.04,0.32-0.12,0.42-0.24c0.11-0.12,0.17-0.25,0.19-0.4
					c0-0.04,0.01-0.08,0.01-0.11c0-0.12-0.02-0.23-0.08-0.32c-0.07-0.12-0.16-0.22-0.29-0.3s-0.32-0.16-0.58-0.25
					c-0.25-0.08-0.41-0.16-0.45-0.2c-0.03-0.03-0.04-0.06-0.04-0.08v-0.01c0.01-0.04,0.02-0.06,0.07-0.08
					c0.06-0.03,0.13-0.04,0.22-0.04c0.04,0,0.08,0,0.12,0.01c0.14,0.02,0.24,0.05,0.29,0.1c0.05,0.05,0.09,0.12,0.1,0.24v0.06
					l0.67,0.05v-0.07c0-0.02,0-0.05,0-0.07c0-0.21-0.08-0.39-0.23-0.54C26.84,35.5,26.58,35.4,26.24,35.36z"/>
				<polygon points="29.72,35.5 27.45,35.54 27.46,36.08 28.26,36.07 28.3,38.06 28.37,38.06 28.98,38.05 28.94,36.05 29.74,36.04 
									"/>
				<polygon points="30.87,37.34 30.78,36.83 32.12,36.61 32.03,36.08 30.7,36.3 30.63,35.9 32.07,35.67 31.98,35.13 29.88,35.48 
					30.28,37.98 30.35,37.97 32.44,37.63 32.35,37.1 				"/>
				<path d="M34.96,35.55c-0.07-0.22-0.16-0.4-0.27-0.53s-0.24-0.24-0.39-0.31c-0.13-0.06-0.27-0.09-0.42-0.09
					c-0.02,0-0.04,0-0.07,0c-0.13,0.01-0.3,0.05-0.52,0.12l-1.01,0.33l0.02,0.06l0.77,2.35l1.04-0.34c0.2-0.06,0.35-0.13,0.46-0.2
					c0.14-0.1,0.25-0.2,0.32-0.32c0.09-0.15,0.14-0.33,0.15-0.52c0-0.02,0-0.04,0-0.06C35.04,35.88,35.01,35.72,34.96,35.55z
					 M33.55,36.76l-0.46-1.38l0.17-0.06c0.21-0.07,0.35-0.11,0.42-0.11c0.03,0,0.05,0,0.08,0c0.06,0,0.12,0.01,0.17,0.03
					c0.07,0.03,0.13,0.08,0.19,0.15s0.12,0.2,0.17,0.37c0.05,0.17,0.08,0.3,0.08,0.4c0,0,0,0,0,0.01c0,0.1-0.02,0.18-0.05,0.23
					c-0.03,0.05-0.08,0.1-0.16,0.14c-0.05,0.03-0.15,0.07-0.29,0.12L33.55,36.76z"/>
			</g>
		</g>
		<rect x="9.21" y="53.54" class="st1" width="38.07" height="4.93"/>
		<text transform="matrix(1 0 0 1 13.5972 57.8948)" class="st2 st3 st4">4002311</text>
	</g>
	<rect y="60.04" class="st1" width="59.33" height="9.61"/>
	<text transform="matrix(0.98 0 0 1 5.3496 63.2625)" class="st5 st6">Conforms to AAMI ES60601-1</text>
	<text transform="matrix(0.98 0 0 1 1.4297 68.2625)" class="st5 st6">Certified to CSA C22.2 No.60601-1</text>
</g>
</svg>
