<?xml version="1.0" encoding="utf-8"?>
<!-- Generator: Adobe Illustrator 25.2.0, SVG Export Plug-In . SVG Version: 6.00 Build 0)  -->
<svg version="1.1" id="Layer_1" xmlns="http://www.w3.org/2000/svg" xmlns:xlink="http://www.w3.org/1999/xlink" x="0px" y="0px"
	 width="54.8px" height="36px" viewBox="0 0 54.8 36" style="enable-background:new 0 0 54.8 36;" xml:space="preserve">
<style type="text/css">
	.st0{fill:#FFFFFF;}
</style>
<g>
	<rect x="0.9" y="0.9" class="st0" width="53.1" height="34.3"/>
	<path d="M53.1,1.7v32.6H1.7V1.7H53.1 M54.8,0H0v36h54.8V0L54.8,0z"/>
</g>
<g>
	<path d="M5.7,28.6V7h6.5l3.9,14.8L20,7h6.6v21.7h-4.1V11.6l-4.3,17.1H14L9.7,11.6v17.1h-4V28.6z"/>
	<path d="M30.9,7h8c1.8,0,3.2,0.1,4.1,0.4c1.3,0.4,2.4,1,3.3,2c0.9,1,1.6,2.1,2.1,3.5s0.7,3.1,0.7,5.1c0,1.8-0.2,3.3-0.7,4.6
		c-0.5,1.6-1.3,2.9-2.3,3.8c-0.8,0.7-1.8,1.3-3.1,1.7c-1,0.3-2.3,0.5-3.9,0.5h-8.2C30.9,28.6,30.9,7,30.9,7z M35.3,10.6V25h3.3
		c1.2,0,2.1-0.1,2.6-0.2c0.7-0.2,1.3-0.5,1.8-0.9s0.8-1.1,1.1-2.1s0.4-2.3,0.4-4s-0.1-3-0.4-3.9c-0.3-0.9-0.7-1.6-1.2-2.1
		s-1.2-0.8-2-1c-0.6-0.1-1.8-0.2-3.6-0.2C37.3,10.6,35.3,10.6,35.3,10.6z"/>
</g>
</svg>
