<?xml version="1.0" encoding="utf-8"?>
<!-- Generator: Adobe Illustrator 24.0.3, SVG Export Plug-In . SVG Version: 6.00 Build 0)  -->
<svg version="1.1" id="Layer_1" xmlns="http://www.w3.org/2000/svg" xmlns:xlink="http://www.w3.org/1999/xlink" x="0px" y="0px"
	 viewBox="0 0 24.73 24.73" style="enable-background:new 0 0 24.73 24.73;" xml:space="preserve">
<style type="text/css">
	.st0{fill:#005596;stroke:#FFFFFF;stroke-width:1.2663;}
	.st1{fill:#FFFFFF;}
	.st2{fill:#005596;}
</style>
<g>
	<path class="st0" d="M0.63,12.36c0-6.48,5.25-11.73,11.73-11.73s11.73,5.25,11.73,11.73s-5.25,11.73-11.73,11.73
		C5.88,24.09,0.63,18.84,0.63,12.36z"/>
	<polygon class="st1" points="14.4,13.02 10.44,14.53 9.52,12.18 13.22,10.73 	"/>
	<path class="st1" d="M4.85,7.05c0-1.44,1.17-2.61,2.61-2.61c1.44,0,2.61,1.17,2.61,2.61c0,1.44-1.17,2.61-2.61,2.61
		C6.01,9.66,4.85,8.49,4.85,7.05z"/>
	<polygon class="st1" points="18.17,10.31 14.23,12.94 18.81,14.95 22.4,11.97 	"/>
	<path class="st1" d="M17.75,14.24c-0.44-0.78-1.42-1.05-2.2-0.61l-2.99,1.68c0,0-2.45-4.42-2.66-4.64
		c-0.23-0.25-0.57-0.41-0.94-0.41H5.19c-0.71,0-1.29,0.58-1.29,1.29v5.91c1.38,2.28,3.65,3.96,6.33,4.55
		c0.03,0.01,0.03,0.01,0.03,0.01v-4.36l0.47,0.64c0.31,0.47,0.79,0.77,1.32,0.77c0.27,0,0.54-0.07,0.79-0.21l4.31-2.42
		C17.91,15.99,18.19,15.01,17.75,14.24z"/>
	<polygon class="st2" points="11.1,9.2 14.25,12.77 17.99,10.27 15.54,6.53 	"/>
	<polygon class="st1" points="18.17,10.31 14.23,12.94 12.38,9.19 16.62,6.86 	"/>
</g>
</svg>
