<?xml version="1.0" encoding="utf-8"?>
<!-- Generator: Adobe Illustrator 25.2.0, SVG Export Plug-In . SVG Version: 6.00 Build 0)  -->
<svg version="1.1" id="Layer_1" xmlns="http://www.w3.org/2000/svg" xmlns:xlink="http://www.w3.org/1999/xlink" x="0px" y="0px"
	 width="223px" height="318.9px" viewBox="0 0 223 318.9" style="enable-background:new 0 0 223 318.9;" xml:space="preserve">
<style type="text/css">
	.st0{display:none;}
	.st1{display:inline;opacity:0.3;}
	.st2{fill:none;stroke:#6ABD45;stroke-miterlimit:10;}
	.st3{display:inline;}
	.st4{fill:#FFFFFF;stroke:#000000;stroke-linecap:round;stroke-linejoin:round;stroke-miterlimit:10;}
	.st5{fill:none;stroke:#000000;stroke-width:0.5;stroke-linecap:round;stroke-linejoin:round;stroke-miterlimit:10;}
	.st6{fill:none;stroke:#000000;stroke-width:0.25;stroke-linecap:round;stroke-linejoin:round;stroke-miterlimit:10;}
	.st7{display:inline;fill:#FFFFFF;stroke:#000000;stroke-linecap:round;stroke-linejoin:round;stroke-miterlimit:10;}
	
		.st8{display:inline;fill:none;stroke:#000000;stroke-width:0.25;stroke-linecap:round;stroke-linejoin:round;stroke-miterlimit:10;}
	.st9{fill:none;stroke:#000000;stroke-linecap:round;stroke-linejoin:round;stroke-miterlimit:10;}
	.st10{fill:#FFFFFF;stroke:#000000;stroke-width:0.9664;stroke-linecap:round;stroke-linejoin:round;stroke-miterlimit:10;}
	.st11{fill:none;stroke:#000000;stroke-width:0.4832;stroke-linecap:round;stroke-linejoin:round;stroke-miterlimit:10;}
	.st12{fill:none;stroke:#000000;stroke-width:0.2416;stroke-linecap:round;stroke-linejoin:round;stroke-miterlimit:10;}
	.st13{fill:#FFFFFF;stroke:#000000;stroke-width:0.1623;stroke-linecap:round;stroke-linejoin:round;stroke-miterlimit:10;}
	.st14{fill:none;stroke:#000000;stroke-width:0.1623;stroke-linecap:round;stroke-linejoin:round;stroke-miterlimit:10;}
	.st15{fill:none;stroke:#000000;stroke-width:4.060000e-02;stroke-linecap:round;stroke-linejoin:round;stroke-miterlimit:10;}
	.st16{fill:#FFFFFF;stroke:#000000;stroke-width:4.060000e-02;stroke-linecap:round;stroke-linejoin:round;stroke-miterlimit:10;}
	.st17{fill:none;stroke:#000000;stroke-width:8.120000e-02;stroke-linecap:round;stroke-linejoin:round;stroke-miterlimit:10;}
	
		.st18{fill:#FFFFFF;stroke:#000000;stroke-width:8.119643e-02;stroke-linecap:round;stroke-linejoin:round;stroke-miterlimit:9.9994;}
	.st19{fill:#FFFFFF;stroke:#000000;stroke-width:0.1623;stroke-miterlimit:10;}
	.st20{fill:none;stroke:#000000;stroke-width:8.120000e-02;stroke-miterlimit:10;}
	.st21{fill:none;stroke:#000000;stroke-width:8.120900e-02;stroke-linecap:round;stroke-linejoin:round;stroke-miterlimit:10.0018;}
	.st22{fill:#FFFFFF;stroke:#000000;stroke-width:0.25;stroke-linecap:round;stroke-linejoin:round;stroke-miterlimit:10;}
	.st23{fill:none;stroke:#000000;stroke-width:0.1915;stroke-linecap:round;stroke-linejoin:round;stroke-miterlimit:10;}
	.st24{fill:none;stroke:#000000;stroke-width:0.1915;stroke-linecap:round;stroke-linejoin:round;stroke-miterlimit:10.0012;}
	.st25{fill:#FFFFFF;stroke:#000000;stroke-width:0.7658;stroke-linecap:round;stroke-linejoin:round;stroke-miterlimit:10;}
	.st26{fill:#FFFFFF;stroke:#000000;stroke-width:0.3829;stroke-linecap:round;stroke-linejoin:round;stroke-miterlimit:10;}
	.st27{fill:none;stroke:#000000;stroke-width:0.3829;stroke-linecap:round;stroke-linejoin:round;stroke-miterlimit:10;}
	.st28{fill:#FFFFFF;stroke:#000000;stroke-width:0.1915;stroke-linecap:round;stroke-linejoin:round;stroke-miterlimit:10.0015;}
	.st29{fill:#FFFFFF;stroke:#000000;stroke-width:0.8556;stroke-linecap:round;stroke-linejoin:round;stroke-miterlimit:10;}
	.st30{fill:none;stroke:#000000;stroke-width:0.8556;stroke-linecap:round;stroke-linejoin:round;stroke-miterlimit:10;}
	.st31{fill:none;stroke:#000000;stroke-width:0.2139;stroke-linecap:round;stroke-linejoin:round;stroke-miterlimit:10;}
	.st32{fill:none;stroke:#000000;stroke-width:0.7658;stroke-linecap:round;stroke-linejoin:round;stroke-miterlimit:10;}
	.st33{fill:#FFFFFF;stroke:#000000;stroke-width:0.1915;stroke-linecap:round;stroke-linejoin:round;stroke-miterlimit:10;}
	.st34{fill:none;stroke:#000000;stroke-width:0.1915;stroke-linecap:round;stroke-linejoin:round;stroke-miterlimit:9.9985;}
	.st35{fill:none;stroke:#000000;stroke-width:0.5744;stroke-linecap:round;stroke-linejoin:round;stroke-miterlimit:10;}
	.st36{fill:#FFFFFF;stroke:#000000;stroke-width:0.5;stroke-linecap:round;stroke-linejoin:round;stroke-miterlimit:10;}
	.st37{fill:none;stroke:#000000;stroke-width:3;stroke-linecap:round;stroke-linejoin:round;stroke-miterlimit:10;}
	.st38{fill:#FFFFFF;stroke:#000000;stroke-miterlimit:10;}
	.st39{fill:none;stroke:#000000;stroke-width:0.5;stroke-miterlimit:10;}
	.st40{fill:none;stroke:#000000;stroke-width:0.25;stroke-miterlimit:10;}
	.st41{fill:none;}
	.st42{display:none;fill:none;stroke:#FFFFFF;stroke-width:4;stroke-linecap:round;stroke-linejoin:round;stroke-miterlimit:10;}
	.st43{fill:none;stroke:#00AEEF;stroke-linecap:round;stroke-linejoin:round;}
	.st44{fill:none;stroke:#00AEEF;stroke-linecap:round;stroke-linejoin:round;stroke-dasharray:2.9293,2.9293;}
</style>
<g id="Grid" class="st0">
	<g class="st1">
		<polygon class="st2" points="81.9,-30.2 515,219.8 81.9,469.8 -351.1,219.8 		"/>
		<line class="st2" x1="-337.1" y1="211.7" x2="95.9" y2="461.7"/>
		<line class="st2" x1="-323.1" y1="203.7" x2="109.9" y2="453.7"/>
		<line class="st2" x1="-309.2" y1="195.6" x2="123.9" y2="445.6"/>
		<line class="st2" x1="-295.2" y1="187.5" x2="137.8" y2="437.5"/>
		<line class="st2" x1="-281.2" y1="179.5" x2="151.8" y2="429.5"/>
		<line class="st2" x1="-267.2" y1="171.4" x2="165.8" y2="421.4"/>
		<line class="st2" x1="-253.3" y1="163.4" x2="179.7" y2="413.4"/>
		<line class="st2" x1="-239.3" y1="155.3" x2="193.7" y2="405.3"/>
		<line class="st2" x1="-225.4" y1="147.2" x2="207.7" y2="397.2"/>
		<line class="st2" x1="-211.4" y1="139.2" x2="221.6" y2="389.2"/>
		<line class="st2" x1="-197.4" y1="131.1" x2="235.6" y2="381.1"/>
		<line class="st2" x1="-183.4" y1="123" x2="249.6" y2="373"/>
		<line class="st2" x1="-169.5" y1="115" x2="263.5" y2="365"/>
		<line class="st2" x1="-155.5" y1="106.9" x2="277.5" y2="356.9"/>
		<line class="st2" x1="-141.5" y1="98.8" x2="291.5" y2="348.8"/>
		<line class="st2" x1="-127.6" y1="90.8" x2="305.4" y2="340.8"/>
		<line class="st2" x1="-113.6" y1="82.7" x2="319.4" y2="332.7"/>
		<line class="st2" x1="-99.6" y1="74.6" x2="333.4" y2="324.6"/>
		<line class="st2" x1="-85.7" y1="66.6" x2="347.3" y2="316.6"/>
		<line class="st2" x1="-71.7" y1="58.5" x2="361.3" y2="308.5"/>
		<line class="st2" x1="-57.7" y1="50.5" x2="375.3" y2="300.5"/>
		<line class="st2" x1="-43.8" y1="42.4" x2="389.2" y2="292.4"/>
		<line class="st2" x1="-29.8" y1="34.3" x2="403.2" y2="284.3"/>
		<line class="st2" x1="-15.8" y1="26.2" x2="417.2" y2="276.2"/>
		<line class="st2" x1="-1.9" y1="18.2" x2="431.1" y2="268.2"/>
		<line class="st2" x1="12.1" y1="10.1" x2="445.1" y2="260.1"/>
		<line class="st2" x1="26.1" y1="2.1" x2="459.1" y2="252.1"/>
		<line class="st2" x1="40" y1="-6" x2="473.1" y2="244"/>
		<line class="st2" x1="54" y1="-14.1" x2="487" y2="235.9"/>
		<line class="st2" x1="68" y1="-22.1" x2="501" y2="227.9"/>
		<line class="st2" x1="501" y1="211.7" x2="68" y2="461.7"/>
		<line class="st2" x1="487" y1="203.7" x2="54" y2="453.7"/>
		<line class="st2" x1="473.1" y1="195.6" x2="40" y2="445.6"/>
		<line class="st2" x1="459.1" y1="187.5" x2="26.1" y2="437.5"/>
		<line class="st2" x1="445.1" y1="179.5" x2="12.1" y2="429.5"/>
		<line class="st2" x1="431.1" y1="171.4" x2="-1.9" y2="421.4"/>
		<line class="st2" x1="417.2" y1="163.4" x2="-15.8" y2="413.4"/>
		<line class="st2" x1="403.2" y1="155.3" x2="-29.8" y2="405.3"/>
		<line class="st2" x1="389.2" y1="147.2" x2="-43.8" y2="397.2"/>
		<line class="st2" x1="375.3" y1="139.2" x2="-57.7" y2="389.2"/>
		<line class="st2" x1="361.3" y1="131.1" x2="-71.7" y2="381.1"/>
		<line class="st2" x1="347.3" y1="123" x2="-85.7" y2="373"/>
		<line class="st2" x1="333.4" y1="115" x2="-99.6" y2="365"/>
		<line class="st2" x1="319.4" y1="106.9" x2="-113.6" y2="356.9"/>
		<line class="st2" x1="305.4" y1="98.8" x2="-127.6" y2="348.8"/>
		<line class="st2" x1="291.5" y1="90.8" x2="-141.5" y2="340.8"/>
		<line class="st2" x1="277.5" y1="82.7" x2="-155.5" y2="332.7"/>
		<line class="st2" x1="263.5" y1="74.6" x2="-169.5" y2="324.6"/>
		<line class="st2" x1="249.6" y1="66.6" x2="-183.4" y2="316.6"/>
		<line class="st2" x1="235.6" y1="58.5" x2="-197.4" y2="308.5"/>
		<line class="st2" x1="221.6" y1="50.5" x2="-211.4" y2="300.5"/>
		<line class="st2" x1="207.7" y1="42.4" x2="-225.4" y2="292.4"/>
		<line class="st2" x1="193.7" y1="34.3" x2="-239.3" y2="284.3"/>
		<line class="st2" x1="179.7" y1="26.2" x2="-253.3" y2="276.2"/>
		<line class="st2" x1="165.8" y1="18.2" x2="-267.2" y2="268.2"/>
		<line class="st2" x1="151.8" y1="10.1" x2="-281.2" y2="260.1"/>
		<line class="st2" x1="137.8" y1="2.1" x2="-295.2" y2="252.1"/>
		<line class="st2" x1="123.8" y1="-6" x2="-309.2" y2="244"/>
		<line class="st2" x1="109.9" y1="-14.1" x2="-323.1" y2="235.9"/>
		<line class="st2" x1="95.9" y1="-22.1" x2="-337.1" y2="227.9"/>
	</g>
</g>
<g id="Layer_1_1_" class="st0">
	<g class="st3">
		<path class="st4" d="M176.4,66.1c4,2.3,7.5,4,7.5,8.6s0,85.8,0,87.4s0.3,3.2-2.1,4.5c-2.3,1.2-2,1.1-3.4,1.8s-2.2,1.2-5.3-0.6
			c-2.4-1.4-134-77.3-135.6-78.3s-4.1-2.4-4.1-5.8s0-86.3,0-89.2c0-2.8,0-3,1.5-3.9s3.6-2.1,4.2-2.4c1.2-0.7,1.8-0.6,3.2,0.2
			C43.2-11.2,176.4,66.1,176.4,66.1z"/>
		<path class="st5" d="M33.7-7.9c1.1-0.6,1.3-1.2,4,0.5s134.4,77.6,136.5,78.9s2.9,2.3,2.9,5.3s0,87.7,0,89.9s-2.6,1.9-4.1,1.1"/>
		<line class="st6" x1="183.9" y1="163.8" x2="176.9" y2="167.5"/>
		<line class="st5" x1="183.9" y1="74.8" x2="177.1" y2="78.3"/>
		<line class="st5" x1="180.4" y1="68.6" x2="174.3" y2="71.5"/>
		<line class="st5" x1="42.3" y1="-11.7" x2="36.2" y2="-8.3"/>
		<polygon class="st5" points="174.3,74.8 174.3,163.8 37.4,84.8 37.4,-4.1 		"/>
	</g>
	<polygon class="st7" points="133.6,68.7 133.6,144 128.8,141.7 128.8,65.9 	"/>
	<polygon class="st7" points="86.7,41.8 86.7,117.2 81.9,114.8 81.9,39.1 	"/>
	<g class="st3">
		<polygon class="st4" points="153.4,89.3 153.4,133.6 57.5,78.2 57.5,34 		"/>
		<g>
			<polygon class="st4" points="143.8,87.8 149.3,90.9 149.3,128.1 143.8,124.9 			"/>
			<polygon class="st4" points="133.4,81.7 138.9,84.9 138.9,122 133.4,118.8 			"/>
			<polygon class="st4" points="123,75.7 128.5,78.9 128.5,116 123,112.8 			"/>
			<polygon class="st4" points="112.6,69.7 118.1,72.8 118.1,110 112.6,106.8 			"/>
			<polygon class="st4" points="102.2,63.6 107.7,66.8 107.7,103.9 102.2,100.7 			"/>
			<polygon class="st4" points="91.8,57.6 97.3,60.8 97.3,97.9 91.8,94.7 			"/>
			<polygon class="st4" points="81.4,51.6 86.9,54.7 86.9,91.9 81.4,88.7 			"/>
			<polygon class="st4" points="71,45.5 76.5,48.7 76.5,85.8 71,82.6 			"/>
			<polygon class="st4" points="60.6,39.5 66.1,42.7 66.1,79.8 60.6,76.6 			"/>
		</g>
	</g>
	<polygon class="st7" points="122.6,78.6 122.6,95.8 94.7,79.7 94.7,63.6 	"/>
	<g class="st3">
		<path class="st4" d="M1.3,256.6v10.1h1.6c-0.8,2.8-0.3,7.2,0.3,8.2c-0.8,1.3-0.8,3.2-0.4,4.1s3.6,0.9,4.7,0.6s1.1-0.2,2.3,0.2
			s4.8,0.5,6.1,0s2.4-0.6,3.2-0.2s3,0.3,3.6-0.2s1.3-2.2,0-4.2c0.9-1.9,1.8-6.3,0.2-8.5c2-0.9,4.7-1.5,4.7-3.5s0.3-3.4-1.9-3.4
			s-2.2,0.2-2.8,0.9l-0.1-4"/>
		<ellipse class="st5" cx="12.8" cy="271.6" rx="9.1" ry="7.3"/>
		<path class="st5" d="M22.9,266.8c-4.3-5.8-14.2-6.9-20-0.1"/>
		<path class="st5" d="M12.5,256.8c-1.2,1.8-4.7,5-6.7,6s-2.4,0.2-2.6,0.8s-0.9,1.3-1,3.2"/>
		<path class="st5" d="M27.2,264.4c-2.2-0.1-4.3-1-4.3,2.4"/>
		<line class="st6" x1="25.6" y1="259.9" x2="25.6" y2="264.3"/>
		<line class="st6" x1="24.3" y1="260.4" x2="24.3" y2="264.4"/>
		<path class="st6" d="M22.9,266.2v-5.4c-1.8-1.5-3.9-3.4-6.4-4.2"/>
		<path class="st6" d="M22.9,264.3c-1.3-1.5-6.8-8.1-11.5-6"/>
		<path class="st6" d="M22.9,265.1c-1.8-1.6-6.6-6.5-15.3-3.4"/>
		<path class="st6" d="M22.9,262.9c-0.9-1.5-6-6-10.3-6"/>
		<path class="st6" d="M21.5,276.2c-0.2,0.4-1.1,1.4-1.7,1.7c0.7,0.2,1.7,0.2,2,0C22,277.7,21.6,276.5,21.5,276.2z"/>
		<path class="st6" d="M6,278c-0.4-0.2-1.4-1.1-1.7-1.7c-0.2,0.7-0.2,1.7,0,2C4.6,278.5,5.7,278.1,6,278z"/>
	</g>
	<g class="st3">
		<path class="st4" d="M164.4,256.7v10.1h-1.6c0.8,2.8,0.3,7.2-0.3,8.2c0.8,1.3,0.8,3.2,0.4,4.1c-0.3,0.9-3.6,0.9-4.7,0.6
			c-1.1-0.3-1.1-0.2-2.3,0.2s-4.9,0.5-6.1,0s-2.4-0.6-3.2-0.2s-3.1,0.3-3.6-0.2s-1.3-2.2,0-4.2c-0.9-1.9-1.8-6.3-0.2-8.5
			c-2-0.9-4.7-1.5-4.7-3.5s-0.3-3.4,1.9-3.4s2.2,0.2,2.8,0.9l0.1-4"/>
		<ellipse class="st5" cx="152.9" cy="271.7" rx="9.1" ry="7.3"/>
		<path class="st5" d="M142.8,266.9c4.3-5.8,14.2-6.9,20-0.1"/>
		<path class="st5" d="M153.1,256.9c1.2,1.8,4.7,5,6.7,6s2.4,0.2,2.6,0.8s0.9,1.3,1,3.2"/>
		<path class="st5" d="M138.5,264.5c2.2-0.1,4.3-1,4.3,2.4"/>
		<line class="st6" x1="140.1" y1="260" x2="140.1" y2="264.4"/>
		<line class="st6" x1="141.4" y1="260.5" x2="141.4" y2="264.5"/>
		<path class="st6" d="M142.8,266.3v-5.4c1.8-1.5,3.9-3.4,6.4-4.2"/>
		<path class="st6" d="M142.8,264.4c1.3-1.5,6.8-8.1,11.5-6"/>
		<path class="st6" d="M142.8,265.2c1.8-1.6,6.6-6.5,15.3-3.4"/>
		<path class="st6" d="M142.8,263c0.9-1.5,6-6,10.3-6"/>
		<path class="st6" d="M144.2,276.3c0.2,0.4,1.1,1.4,1.7,1.7c-0.7,0.2-1.7,0.2-2,0S144.1,276.6,144.2,276.3z"/>
		<path class="st6" d="M159.7,278.1c0.4-0.2,1.4-1.1,1.7-1.7c0.2,0.7,0.2,1.7,0,2C161.1,278.6,160,278.2,159.7,278.1z"/>
	</g>
	<g class="st3">
		<path class="st4" d="M91.8,293.9c1,1.5,1,2.5,1,3.7s0,20.9,0,22s-2.5,1-2.5,0s0-3.2,0-3.2c-0.2,1.7-3.6,1.5-3.8,0.2
			c-0.3-1.5-0.8-4-0.8-4H81c0,0-0.4,3.2-0.7,4.2s-3.5,1.2-4.2,0c0,0-0.1-0.1,0,2.7c0,1.3-2.2,1.1-2.2,0c0-1.4,0-20.4,0-22
			c0-1.5,0.6-3.3,0.9-3.7S91.8,293.9,91.8,293.9z"/>
		<line class="st6" x1="90.3" y1="316.5" x2="90.3" y2="299.5"/>
		<path class="st6" d="M87.8,301c0.1,2-1.3,10.1-2.2,11.7"/>
		<path class="st6" d="M78,301.3c0.1,2.2,1.7,9.3,2.9,11.4"/>
		<path class="st6" d="M85.7,301.3c-1.5,0.9-3.2,0.9-5,0"/>
		<line class="st6" x1="83.1" y1="302" x2="83.1" y2="312.7"/>
		<line class="st6" x1="76.2" y1="316.9" x2="76.2" y2="299.9"/>
		<path class="st6" d="M79.5,317.5c-0.2-0.5,0-9.1,0-9.1"/>
		<line class="st6" x1="77.2" y1="317.5" x2="77.2" y2="301.3"/>
		<line class="st6" x1="89.2" y1="317.5" x2="89.2" y2="300.4"/>
		<line class="st6" x1="86.8" y1="308.8" x2="86.8" y2="317.4"/>
	</g>
	<path class="st7" d="M163.6,245.6c-4.2,0-20.3,0-22.3,0s-6.3,1.1-6.3,4s0,6.7,0,9.1s-1.1,3.5-4.2,3.5s-93.1,0-95.4,0
		s-3.7-1-3.7-2.8s0-6.2,0-8.5s-1.8-5.3-6.8-5.3s-18.2,0-21.2,0s-6.1,1.5-6.1,3.3s0,2.7,0,4.2s1.2,3.8,6.2,3.8s19,0,21.2,0
		s4.3,1.8,4.3,3.5s0,5,0,7.2s1.5,5.9,5.9,5.9s92.2,0,95.2,0c4.1,0,6.3-1.3,6.3-5.1c0-3,0-5.5,0-7.7s1.9-3.4,4-3.4s18.8,0,21.8,0
		s6.5-1.2,6.5-4.5S169.5,245.6,163.6,245.6z"/>
	<path class="st7" d="M102.3,273.4l-10.5,6.4c0,0,0,12.5,0,15.5s-1.5,6-6.7,6s-2.3,0-4.5,0s-5.8,0.2-5.8-5.7c0-5.8,0-12,0-12
		l-19.5-10.2"/>
	<path class="st8" d="M169,249.6c0,3.1-1.4,5.7-6.4,5.7s-18.2,0-21.3,0c-4,0-6.2,1.8-6.2,5.3c0,2.9,0,5.6,0,7.2
		c0,1.7-1.1,3.5-4.6,3.5c-3.3,0-91.7,0-95,0c-2.2,0-3.6-1.5-3.6-3.6s0-5,0-7.3s-1.7-5.6-7-5.6s-17.7,0-21.1,0s-6.2-0.7-6.2-4.2"/>
	<line class="st8" x1="24.8" y1="245.6" x2="24.8" y2="256.8"/>
	<line class="st8" x1="3.7" y1="254.8" x2="3.7" y2="256.8"/>
	<line class="st8" x1="35.3" y1="262.1" x2="35.3" y2="273.4"/>
	<line class="st8" x1="31.8" y1="267.7" x2="29.3" y2="267.7"/>
	<line class="st8" x1="31.8" y1="260.4" x2="29.3" y2="260.4"/>
	<line class="st8" x1="130.7" y1="262.1" x2="130.7" y2="273.4"/>
	<line class="st8" x1="135" y1="267.8" x2="137.3" y2="267.8"/>
	<line class="st8" x1="135" y1="260.6" x2="136.8" y2="260.6"/>
	<line class="st8" x1="141.3" y1="245.6" x2="141.3" y2="257.1"/>
	<line class="st8" x1="162.6" y1="255.3" x2="162.6" y2="257.1"/>
	<path class="st8" d="M100.1,273.4c-1.2,0-15.6,9.5-15.6,9.5h-9.8l-17.8-9.5"/>
	<path class="st8" d="M91.8,279.8c-0.8,0.5-5.3,3.1-5.3,3.1"/>
	<line class="st8" x1="91.8" y1="282.9" x2="73.4" y2="282.9"/>
	<line class="st8" x1="91.8" y1="284.6" x2="74.8" y2="284.6"/>
	<path class="st8" d="M91.8,295.3c0,2.7-2.8,4.6-6.8,4.6s-2.3,0-3.9,0s-6.3-0.2-6.3-4.2"/>
	<line class="st8" x1="26.8" y1="260.1" x2="26.8" y2="264.3"/>
	<path class="st8" d="M91.8,320.5"/>
	<g class="st3">
		<path class="st4" d="M28.2,115.6c0,4.6-0.1,90.7,0,94.6s1.5,5.2,3.4,6.4c2.6,1.6,7.8,4.8,11.9,7.3c2.2,1.4,2.4,1.6,2.4,4.4
			c0,4.8,0.1,19.5,0.1,25.7c0,6.6,0.1,7.3,3.9,9.4c3.9,2.2,33.2,19.7,34.4,20.2c1.1,0.5,1.2,0,2.8-0.6s31.1-17.4,32-18
			s0.9-1,0.9-2.6s0-14.2,0-14.2s14.4-8.1,15.6-8.9c1.2-0.8,1.5-1.5,1.5-2.9s0-90.6,0-93.9c0-3.3-1-4.6-3.2-6.1S66.6,97.6,66.6,97.6
			c-5.7-3.2-7.8-3.4-13.7,0c-6.3,3.7-17.7,10.1-20.2,11.6S28.2,113.1,28.2,115.6z"/>
		<path class="st9" d="M119.8,248.1c-2.4,1.4-14.5,8.2-15.5,8.9s-2.3,0.8-3.6,0c-2.7-1.6-8.8-5.3-10.3-6s-3-0.2-3,1.8
			c0,2.5,0,27,0,28.4s-1.2,2.5-2.3,2.7"/>
		<line class="st6" x1="119.8" y1="262.3" x2="87.3" y2="281.1"/>
		<path class="st6" d="M119.8,254.3c0,0-30,17.7-31.2,18.3s-2.2,0.3-2.8,0s-1.5-0.8-1.5-0.8"/>
		<path class="st6" d="M133.7,136.3"/>
		<line class="st6" x1="133.7" y1="136.3" x2="101.8" y2="153.8"/>
		<line class="st6" x1="136.9" y1="142.4" x2="104.8" y2="160.4"/>
		<path class="st6" d="M102.4,257.5c1-0.5,1.4-1.3,1.4-2.1c0-0.9,0-94.5,0-94.5c0-3.2-1.1-5.1-3-6.2c-3.1-1.9-66.7-39.6-67.9-40.3
			c-3-1.9-4.8-0.7-4.8,4"/>
		<path class="st6" d="M103.2,257.4c1.5-0.3,1.6-1.8,1.6-2.5s0-94.6,0-94.6c0-2.6-0.7-5.2-3-6.5c-2.8-1.6-67.7-40.5-69.7-41.6
			c-1.9-1-3.9,0.9-3.9,4.5"/>
		<path class="st6" d="M136.9,236.7c0,0-31.6,18-32.1,18.3s-0.7,0.4-1,0.4"/>
		<path class="st6" d="M31.1,121.8c0,0,0,87.5,0,89.2c0,2.3,0.1,2.9,2.3,4.1c1.1,0.6,10.3,5.9,13,7.5c1.8,1,1.9,1.3,1.9,3.9
			c0,2.2,0,28.6,0,30.7s0.4,3,1.9,3.9s29.5,16.8,31.5,17.9s2.4-0.2,2.4-1.4s0-24.3,0-28s3-3.7,5.2-2.4c1.3,0.8,9.4,5.3,10.2,5.7
			c0.7,0.4,1.8,0.6,1.8-1.7c0-1.1,0-84.6,0-84.6c0-3.9,0.3-5.1-2.2-6.6s-64.7-38.9-65.8-39.5C32.3,120.1,31.1,120.4,31.1,121.8z"/>
		<path class="st6" d="M31.7,122.6c0,0,0,86.1,0,87.4c0,2.1,0,3.4,1.6,4.3c1.6,0.9,12.3,7,13.7,7.8c1.8,1,2.1,1.6,2.1,3.1
			c0,1.3,0,29.7,0,31.5c0,2.1,0.4,2.9,2,3.8c0.7,0.4,28.2,16.3,30.2,17.4s2.4,0.9,2.4-1.4c0-1.2,0-23.7,0-27.4
			c0-2.5,2.5-4.4,5.5-2.8c1.3,0.7,9.5,5.3,10.3,5.8c0.8,0.4,1.3,0.5,1.3-1.9c0-1.1,0-84.9,0-84.9c0-2.9,0.1-3.4-2.5-4.9
			S37.9,124,35.4,122.6C33,121.2,31.7,120.6,31.7,122.6z"/>
		<path class="st5" d="M136.9,160.6c-0.9,0.4-31,17.8-31.9,18.3"/>
		<g>
			<g>
				<path class="st6" d="M116,187.7c1.8-1.1,8.6-4.8,9.1-5.1c1.1-0.6,3.1,0.6,1.1,1.8c-3.2,1.9-8,4.6-9.1,5.1s-1.8,0.6-2.4,0.4
					C115,189.1,115.3,188.1,116,187.7z"/>
				<path class="st6" d="M116,187.7c0.6,0.3,1,1.1,1.1,1.8"/>
				<path class="st6" d="M125.2,182.6c0.8,0.6,0.9,0.9,1.1,1.8"/>
			</g>
			<g>
				<path class="st6" d="M116,195.3c1.8-1.1,8.6-4.8,9.1-5.1c1.1-0.6,3.1,0.6,1.1,1.8c-3.2,1.9-8,4.6-9.1,5.1s-1.8,0.6-2.4,0.4
					C115,196.7,115.3,195.7,116,195.3z"/>
				<path class="st6" d="M116,195.3c0.6,0.3,1,1.1,1.1,1.8"/>
				<path class="st6" d="M125.2,190.2c0.8,0.6,0.9,0.9,1.1,1.8"/>
			</g>
			<g>
				<path class="st6" d="M116,202.9c1.8-1.1,8.6-4.8,9.1-5.1c1.1-0.6,3.1,0.6,1.1,1.8c-3.2,1.9-8,4.6-9.1,5.1s-1.8,0.6-2.4,0.4
					C115,204.3,115.3,203.4,116,202.9z"/>
				<path class="st6" d="M116,202.9c0.6,0.3,1,1.1,1.1,1.8"/>
				<path class="st6" d="M125.2,197.8c0.8,0.6,0.9,0.9,1.1,1.8"/>
			</g>
			<g>
				<path class="st6" d="M116,210.6c1.8-1.1,8.6-4.8,9.1-5.1c1.1-0.6,3.1,0.6,1.1,1.8c-3.2,1.9-8,4.6-9.1,5.1s-1.8,0.6-2.4,0.4
					C115,211.9,115.3,211,116,210.6z"/>
				<path class="st6" d="M116,210.6c0.6,0.3,1,1.1,1.1,1.8"/>
				<path class="st6" d="M125.2,205.4c0.8,0.6,0.9,0.9,1.1,1.8"/>
			</g>
			<g>
				<path class="st6" d="M116,218.2c1.8-1.1,8.6-4.8,9.1-5.1c1.1-0.6,3.1,0.6,1.1,1.8c-3.2,1.9-8,4.6-9.1,5.1s-1.8,0.6-2.4,0.4
					C115,219.6,115.3,218.6,116,218.2z"/>
				<path class="st6" d="M116,218.2c0.6,0.3,1,1.1,1.1,1.8"/>
				<path class="st6" d="M125.2,213.1c0.8,0.6,0.9,0.9,1.1,1.8"/>
			</g>
			<g>
				<path class="st6" d="M116,225.8c1.8-1.1,8.6-4.8,9.1-5.1c1.1-0.6,3.1,0.6,1.1,1.8c-3.2,1.9-8,4.6-9.1,5.1s-1.8,0.6-2.4,0.4
					C115,227.2,115.3,226.2,116,225.8z"/>
				<path class="st6" d="M116,225.8c0.6,0.3,1,1.1,1.1,1.8"/>
				<path class="st6" d="M125.2,220.7c0.8,0.6,0.9,0.9,1.1,1.8"/>
			</g>
			<g>
				<path class="st6" d="M116,233.4c1.8-1.1,8.6-4.8,9.1-5.1c1.1-0.6,3.1,0.6,1.1,1.8c-3.2,1.9-8,4.6-9.1,5.1s-1.8,0.6-2.4,0.4
					C115,234.8,115.3,233.9,116,233.4z"/>
				<path class="st6" d="M116,233.4c0.6,0.3,1,1.1,1.1,1.8"/>
				<path class="st6" d="M125.2,228.3c0.8,0.6,0.9,0.9,1.1,1.8"/>
			</g>
		</g>
		<path class="st5" d="M107.5,145c0,0,12-6.9,14.4-8.3c2.5-1.4,1.1-2.9,0.3-3.4s-55.7-32.7-55.7-32.7c-2.1-1.2-5-2.2-7.2-0.9
			s-12.9,7.6-14.9,8.7s-1.6,2.8,0,3.9c2.2,1.5,53.8,31,56.7,32.7C103.4,146.4,104.6,146.7,107.5,145z"/>
		<g>
			<path class="st5" d="M66.4,227.3L66.4,227.3c-4.6-1.1-8.4-5.8-8.4-12.3l-0.3-50.1c0-6.5,3-11.8,8.1-9.9l0,0
				c5.4,2,8.2,10.7,8.2,17.2l0.5,44.7C74.5,226.4,71,227.7,66.4,227.3z"/>
			<path class="st5" d="M65.3,220.8L65.3,220.8c-3.5-1.7-3.8-5.6-3.8-10.6l-0.2-41.9c0.1-3.6,1.1-6.1,3.6-5.3l0,0
				c3.7,1.5,4.7,6.1,4.7,11.1l0.2,42.4C69.7,220.1,68.2,222.2,65.3,220.8z"/>
			<path class="st5" d="M62.1,216.7l1.2-0.7c1.4,2.6,4.7,5,6,3.2"/>
		</g>
		<path class="st5" d="M58.4,236.4c1.6-3.1,3.8-4.4,6-4l0.1,2.8l1,0.6l-0.1-3.1c1.8,0.7,3.5,2.4,4.9,5.1c3.5,6.7,3.9,17,0.9,22.9
			c-3.1,5.9-8.4,5.3-11.9-1.5C55.8,252.6,55.4,242.4,58.4,236.4z"/>
		<path class="st5" d="M64.5,232.5l0.4-0.3c-0.6-0.1-2.9-0.2-4.7,1.8"/>
		<path class="st5" d="M59.6,232.8"/>
		<polyline class="st5" points="64.5,235.3 64.9,235 65.5,235.3 		"/>
		<path class="st5" d="M65.4,232.8l0.3-0.3c3.1,1.1,7.8,7.6,7.8,17.1c0,6.9-0.9,9.9-3.6,13.4"/>
		<line class="st5" x1="64.9" y1="232.2" x2="64.9" y2="234.9"/>
	</g>
	<g class="st3">
		<path class="st4" d="M90.9,111V78.1l22.2,0.1c0,0,0.3,0.4,0.3,1.5c0,0.8,0,44.4,0,44.4"/>
		<path class="st6" d="M103.3,83.8c0.4,0.4,0.4,1.3,0.4,1.3V119"/>
		<path class="st6" d="M104.1,83.3c0.5,0.4,0.5,1.3,0.5,1.3v34.8"/>
		<path class="st6" d="M108.6,80.7c0.5,0.4,0.5,1.3,0.5,1.3v40"/>
		<path class="st6" d="M110.9,79.4c0.4,0.3,0.4,1.3,0.4,1.3v42.6"/>
		<path class="st6" d="M110.4,79.7c0.5,0.3,0.5,1.3,0.5,1.3v42.1"/>
		<polygon class="st4" points="102,71.6 113,77.9 102,84.2 95.1,85.1 92,83.3 91.1,77.9 		"/>
		<path class="st6" d="M95.4,85c-0.4,0.3-0.3,2-0.3,2v27"/>
		<path class="st6" d="M101.9,84.6c0.3,0.3,0.3,1.5,0.3,1.5v32.3"/>
		<path class="st6" d="M113.5,79.4c0,0.3-11.3,6.6-11.3,6.6l-7.1,1l-4.2-2.2"/>
		<path class="st6" d="M92,83.1c-0.4,0.5-0.3,1.5-0.3,2s0,26.4,0,26.9"/>
	</g>
	<g class="st3">
		<polyline class="st4" points="139.2,156.5 136.9,155.1 136.9,150.8 141.6,153.5 		"/>
		<g>
			<path class="st4" d="M27.7,129.2c-3.5,2.1-4.8,3.7-1.3,5.9c5,3.1,68.8,43,73.6,45.6c1.7,0.9,3.9,1.7,7.6-0.4
				c3.7-2.1,31-18,32.5-19.1s2.8-2.8-0.9-4.8c-0.2-1.3,0.9-2.9,2.4-3c1.6,0.9,9.7,6.1,0.5,11.6c-10.6,6.2-30.4,17.8-32.7,19
				s-4.8,3.3-9.4,1.2c-6.5-3.6-73.7-44.6-77-46.7c-3.8-2.5-5.5-8.7-0.9-11.8c2.3-1.6,2.4-1.6,5.5-3.6"/>
			<path class="st6" d="M140.1,161.3c1.5,0.4,2.4,2.1,2,3.8"/>
			<path class="st6" d="M107.6,180.4c1.1,0.5,2,2.3,1.8,3.8"/>
		</g>
		<path class="st6" d="M100,180.8c-1,1.2-1.7,2.2-1.4,3.7"/>
		<path class="st6" d="M26.4,135.2c-1.8,1-2.6,2.6-1.9,4.3"/>
		<path class="st6" d="M25.3,130.9c-0.4-1.4-1.6-3.9-3.3-4.2"/>
	</g>
	<path class="st8" d="M132.4,198.7c1-0.6,2-1,2,0.5c0,1.8,0,33,0,34.2s-0.2,2-1,2.6s-22.9,13.3-23.7,13.7s-2.2,0.4-2.2-0.8
		s0-32.8,0-34s0.9-2.6,1.8-3.1C110.2,211.2,132.4,198.7,132.4,198.7z"/>
	<path class="st8" d="M129.8,231c0.6-0.4,1.3-0.5,1.3,0.3s0,2.8,0,3.2s0.2,1-0.9,1.6s-17.6,10.1-18,10.4s-1.3,0.6-1.3-0.4
		s0-3.2,0-3.6s0.3-0.8,0.9-1.2S129.8,231,129.8,231z"/>
	<polyline class="st8" points="130.8,235.6 128.8,234.4 128.8,231.8 	"/>
	<line class="st8" x1="128.8" y1="234.4" x2="110.9" y2="244.6"/>
	<line class="st8" x1="129.7" y1="235" x2="110.9" y2="246"/>
	<path class="st8" d="M89.3,256.9c0,0.7,0,3.4,0,3.8c0,0.8,0.3,0.9,0.8,0.6c0.4-0.2,2.9-1.7,3.4-2c0.6-0.3,0.7-0.5,0.7-1.3
		s0-3.2,0-3.8s-0.2-0.9-0.8-0.6s-2.9,1.7-3.4,2C89.5,256,89.3,256.1,89.3,256.9z"/>
</g>
<g id="Layer_5">
	<g>
		<g>
			<path class="st10" d="M172.3,67.4c3.4,2,6.4,3.4,6.4,7.3s0,73.1,0,74.4s0.2,2.8-1.8,3.8s-1.7,0.9-2.9,1.5s-1.9,1-4.6-0.6
				c-2-1-114.1-65.7-115.4-66.5s-3.5-2.1-3.5-4.9s0-73.5,0-75.9s0-2.5,1.3-3.3s3.1-1.8,3.6-2.1c1-0.6,1.5-0.5,2.7,0.1
				C58.8,1.6,172.3,67.4,172.3,67.4z"/>
			<path class="st11" d="M50.8,4.4c1-0.5,1.1-1,3.4,0.4S168.7,71,170.5,72s2.4,2,2.4,4.5s0,74.7,0,76.5s-2.2,1.7-3.5,0.9"/>
			<line class="st12" x1="178.7" y1="150.6" x2="172.8" y2="153.8"/>
			<line class="st11" x1="178.7" y1="74.8" x2="172.9" y2="77.8"/>
			<line class="st11" x1="175.7" y1="69.5" x2="170.5" y2="72"/>
			<line class="st11" x1="58.1" y1="1.2" x2="52.9" y2="4.1"/>
			<polygon class="st11" points="170.5,74.8 170.5,150.6 53.9,83.4 53.9,7.6 			"/>
		</g>
		<g>
			<path class="st10" d="M3.8,261.3v8.6h1.3c-0.7,2.3-0.3,6.1,0.3,7c-0.7,1.1-0.6,2.7-0.3,3.5c0.3,0.8,3.1,0.8,4,0.5s0.9-0.1,2,0.2
				s4.1,0.4,5.2,0s2.1-0.5,2.7-0.2s2.6,0.3,3.1-0.1s1.1-1.8,0-3.5c0.7-1.6,1.5-5.4,0.2-7.2c1.7-0.8,4-1.3,4-3s0.2-2.9-1.6-2.9
				c-1.9,0-1.9,0.2-2.3,0.8l-0.1-3.4"/>
			<ellipse class="st11" cx="13.6" cy="274.1" rx="7.8" ry="6.2"/>
			<path class="st11" d="M22.2,270c-3.7-5-12.1-5.9-17-0.1"/>
			<path class="st11" d="M13.4,261.5c-1.1,1.6-4,4.3-5.7,5.1c-1.7,0.9-2,0.1-2.2,0.6s-0.8,1.1-0.8,2.7"/>
			<path class="st11" d="M25.9,268c-1.8-0.1-3.7-0.8-3.7,2"/>
			<line class="st12" x1="24.5" y1="264.1" x2="24.5" y2="267.9"/>
			<line class="st12" x1="23.4" y1="264.6" x2="23.4" y2="268"/>
			<path class="st12" d="M22.2,269.5v-4.6c-1.5-1.3-3.4-2.9-5.5-3.6"/>
			<path class="st12" d="M22.2,267.9c-1.1-1.3-5.8-6.9-9.8-5.1"/>
			<path class="st12" d="M22.2,268.5c-1.6-1.4-5.6-5.5-13-2.9"/>
			<path class="st12" d="M22.2,266.7c-0.8-1.3-5.1-5.1-8.8-5.1"/>
			<path class="st12" d="M21,278c-0.2,0.3-0.9,1.2-1.4,1.4c0.6,0.2,1.5,0.2,1.7,0S21.1,278.3,21,278z"/>
			<path class="st12" d="M7.8,279.6c-0.3-0.2-1.2-0.9-1.4-1.4c-0.2,0.6-0.2,1.5,0,1.7S7.6,279.7,7.8,279.6z"/>
		</g>
		<g>
			<path class="st10" d="M142.7,261.4v8.6h-1.3c0.7,2.3,0.3,6.1-0.3,7c0.7,1.1,0.6,2.7,0.4,3.5c-0.3,0.8-3.1,0.8-4,0.5
				s-0.9-0.1-2,0.2c-1.1,0.3-4.1,0.4-5.2,0s-2.1-0.5-2.7-0.2s-2.6,0.3-3.1-0.1s-1.1-1.8,0-3.5c-0.7-1.6-1.5-5.4-0.2-7.2
				c-1.7-0.8-4-1.3-4-3s-0.2-2.9,1.6-2.9s1.9,0.2,2.3,0.8l0.1-3.4"/>
			<ellipse class="st11" cx="132.9" cy="274.2" rx="7.8" ry="6.2"/>
			<path class="st11" d="M124.3,270.1c3.7-5,12.1-5.9,17-0.1"/>
			<path class="st11" d="M133.1,261.6c1.1,1.6,4,4.3,5.7,5.1c1.7,0.9,2,0.1,2.2,0.6s0.8,1.1,0.9,2.7"/>
			<path class="st11" d="M120.6,268.1c1.8-0.1,3.7-0.8,3.7,2"/>
			<line class="st12" x1="122" y1="264.2" x2="122" y2="267.9"/>
			<line class="st12" x1="123.1" y1="264.7" x2="123.1" y2="268.1"/>
			<path class="st12" d="M124.3,269.6V265c1.5-1.3,3.3-2.9,5.5-3.6"/>
			<path class="st12" d="M124.3,267.9c1.1-1.3,5.8-6.9,9.8-5.1"/>
			<path class="st12" d="M124.3,268.6c1.6-1.4,5.6-5.5,13-2.9"/>
			<path class="st12" d="M124.3,266.8c0.8-1.3,5.1-5.1,8.8-5.1"/>
			<path class="st12" d="M125.5,278.1c0.2,0.3,0.9,1.2,1.4,1.4c-0.6,0.2-1.5,0.2-1.7,0C125.1,279.4,125.4,278.4,125.5,278.1z"/>
			<path class="st12" d="M138.7,279.7c0.3-0.2,1.2-0.9,1.4-1.4c0.2,0.6,0.2,1.5,0,1.7S138.9,279.7,138.7,279.7z"/>
		</g>
		<g>
			<path class="st10" d="M80.9,293.1c0.8,1.3,0.8,2.1,0.8,3.1s0,17.8,0,18.8s-2.1,0.9-2.1,0s0-2.7,0-2.7c-0.2,1.4-3.1,1.3-3.3,0.2
				c-0.2-1.3-0.7-3.4-0.7-3.4h-4c0,0-0.3,2.7-0.6,3.6c-0.2,0.9-3,1.1-3.5,0c0,0-0.1-0.1,0,2.3c0,1.1-1.9,1-1.9,0
				c0-1.2,0-17.4,0-18.7s0.5-2.8,0.8-3.1S80.9,293.1,80.9,293.1z"/>
			<line class="st12" x1="79.6" y1="312.3" x2="79.6" y2="297.9"/>
			<path class="st12" d="M77.5,299.1c0.1,1.7-1.1,8.6-1.9,10"/>
			<path class="st12" d="M69.2,299.4c0.1,1.9,1.5,8,2.5,9.7"/>
			<path class="st12" d="M75.7,299.4c-1.2,0.8-2.7,0.8-4.3,0"/>
			<line class="st12" x1="73.5" y1="300" x2="73.5" y2="309.1"/>
			<line class="st12" x1="67.6" y1="312.7" x2="67.6" y2="298.2"/>
			<path class="st12" d="M70.4,313.2c-0.2-0.4,0-7.8,0-7.8"/>
			<line class="st12" x1="68.4" y1="313.2" x2="68.4" y2="299.4"/>
			<line class="st12" x1="78.7" y1="313.2" x2="78.7" y2="298.6"/>
			<line class="st12" x1="76.6" y1="305.8" x2="76.6" y2="313.1"/>
		</g>
		<path class="st10" d="M142,251.9c-3.5,0-17.3,0-19,0s-5.4,0.9-5.4,3.4s0,5.7,0,7.7s-1,3-3.6,3s-79.3,0-81.3,0s-3.1-0.8-3.1-2.4
			s0-5.2,0-7.2s-1.6-4.5-5.8-4.5s-15.5,0-18,0s-5.2,1.2-5.2,2.8c0,1.5,0,2.3,0,3.5s1.1,3.3,5.3,3.3s16.2,0,18,0s3.7,1.6,3.7,3
			s0,4.3,0,6.1c0,1.9,1.2,5,5,5s78.6,0,81.1,0c3.5,0,5.4-1.1,5.4-4.4c0-2.5,0-4.7,0-6.5s1.6-2.9,3.4-2.9s16,0,18.6,0s5.5-1,5.5-3.8
			C146.7,255.1,147.1,251.9,142,251.9z"/>
		<path class="st10" d="M89.8,275.6l-8.9,5.5c0,0,0,10.6,0,13.2s-1.3,5.1-5.7,5.1s-2,0-3.8,0s-5,0.1-5-4.8s0-10.2,0-10.2l-16.6-8.7"
			/>
		<path class="st12" d="M146.6,255.4c0,2.6-1.2,4.9-5.5,4.9s-15.5,0-18.2,0c-3.4,0-5.3,1.6-5.3,4.5c0,2.4,0,4.8,0,6.2
			c0,1.4-0.9,3-3.9,3c-2.8,0-78.1,0-80.9,0c-1.9,0-3.1-1.2-3.1-3.1s0-4.3,0-6.2s-1.4-4.8-6-4.8s-15.1,0-18,0s-5.2-0.6-5.2-3.5"/>
		<line class="st12" x1="23.8" y1="251.9" x2="23.8" y2="261.5"/>
		<line class="st12" x1="5.8" y1="259.8" x2="5.8" y2="261.5"/>
		<line class="st12" x1="32.7" y1="266.1" x2="32.7" y2="275.6"/>
		<line class="st12" x1="29.8" y1="270.8" x2="27.6" y2="270.8"/>
		<line class="st12" x1="29.8" y1="264.6" x2="27.6" y2="264.6"/>
		<line class="st12" x1="114" y1="266.1" x2="114" y2="275.6"/>
		<line class="st12" x1="117.7" y1="270.9" x2="119.6" y2="270.9"/>
		<line class="st12" x1="117.7" y1="264.7" x2="119.2" y2="264.7"/>
		<line class="st12" x1="123" y1="251.9" x2="123" y2="261.8"/>
		<line class="st12" x1="141.2" y1="260.2" x2="141.2" y2="261.8"/>
		<path class="st12" d="M88,275.6c-1,0-13.3,8.1-13.3,8.1h-8.3l-15.2-8.1"/>
		<path class="st12" d="M80.9,281.1c-0.7,0.4-4.5,2.6-4.5,2.6"/>
		<line class="st12" x1="80.9" y1="283.8" x2="65.2" y2="283.8"/>
		<line class="st12" x1="80.9" y1="285.2" x2="66.4" y2="285.2"/>
		<path class="st12" d="M80.9,294.3c0,2.3-2.4,3.9-5.8,3.9s-2,0-3.3,0s-5.4-0.1-5.4-3.6"/>
		<line class="st12" x1="25.5" y1="264.3" x2="25.5" y2="267.9"/>
		<path class="st12" d="M80.9,315.7"/>
		<g>
			<g>
				<path class="st13" d="M128.5,116.1l-0.9,0.5c0,0-0.2-0.1-0.3-0.2c0,0,0,0,0-0.1c0,0,0-50,0-50.1s0-0.2,0.2-0.3
					c0.1-0.1,0.9-0.5,0.9-0.5c0.1-0.1,0.2-0.1,0.3,0s3.4,2,3.5,2s0.1,0.1,0.1,0.2s0,50.3,0,50.3s0,0.1-0.1,0.1s-0.9,0.5-0.9,0.5
					h-0.1l-0.2-0.1c0,0,0,0,0-0.1s0-1,0-1L128.5,116.1z"/>
				<line class="st14" x1="128.5" y1="116.1" x2="128.5" y2="65.7"/>
				<path class="st14" d="M130.9,117.5c0,0,0-49,0-49.1s0-0.2,0.1-0.3c0.1-0.1,0.8-0.5,0.8-0.5l-3.3-1.9c0,0-0.7,0.4-0.8,0.5
					s-0.2,0.1-0.2,0.3s0,50.1,0,50.1"/>
				<line class="st15" x1="127.5" y1="66.1" x2="127.7" y2="66.2"/>
				<line class="st15" x1="127.3" y1="66.3" x2="127.6" y2="66.5"/>
				<path class="st14" d="M132.2,67.7c0,0-0.9,0.5-1,0.5s-0.1,0.2-0.1,0.3c0,0.2,0,50.1,0,50.1"/>
				<line class="st15" x1="131" y1="68.1" x2="131.2" y2="68.2"/>
				<line class="st15" x1="130.9" y1="68.4" x2="131.1" y2="68.5"/>
				<g>
					<path class="st16" d="M130.1,102.6c-0.1,0-0.2,0.1-0.2,0.2c0,0.2,0.1,0.5,0.3,0.7s0.4,0.1,0.4-0.1l0,0c-0.1,0-0.1,0-0.2-0.1
						C130.2,103.1,130,102.8,130.1,102.6z"/>
					<path class="st16" d="M130.2,102.7c-0.1-0.1-0.1-0.1-0.2-0.1c0,0.2,0.1,0.5,0.3,0.7c0.1,0.1,0.1,0.1,0.2,0.1
						C130.6,103.1,130.4,102.8,130.2,102.7z"/>
				</g>
				<g>
					<path class="st16" d="M130.1,84.8c-0.1,0-0.2,0.1-0.2,0.2c0,0.2,0.1,0.5,0.3,0.7s0.4,0.1,0.4-0.1l0,0c-0.1,0-0.1,0-0.2-0.1
						C130.2,85.3,130,85.1,130.1,84.8z"/>
					<path class="st16" d="M130.2,84.9c-0.1-0.1-0.1-0.1-0.2-0.1c0,0.2,0.1,0.5,0.3,0.7c0.1,0.1,0.1,0.1,0.2,0.1
						C130.6,85.4,130.4,85.1,130.2,84.9z"/>
				</g>
				<g>
					<path class="st16" d="M130.1,80.2c-0.1,0-0.2,0.1-0.2,0.2c0,0.2,0.1,0.5,0.3,0.7s0.4,0.1,0.4-0.1l0,0c-0.1,0-0.1,0-0.2-0.1
						C130.2,80.7,130.1,80.4,130.1,80.2z"/>
					<path class="st16" d="M130.3,80.3c-0.1-0.1-0.1-0.1-0.2-0.1c0,0.2,0.1,0.5,0.3,0.7c0.1,0.1,0.1,0.1,0.2,0.1
						C130.6,80.7,130.5,80.4,130.3,80.3z"/>
				</g>
				<g>
					<path class="st16" d="M130,99.9c-0.1,0-0.2,0.1-0.2,0.2c0,0.2,0.1,0.5,0.3,0.7s0.4,0.1,0.4-0.1l0,0c-0.1,0-0.1,0-0.2-0.1
						C130.1,100.5,129.9,100.2,130,99.9z"/>
					<path class="st16" d="M130.1,100c-0.1-0.1-0.1-0.1-0.2-0.1c0,0.2,0.1,0.5,0.3,0.7c0.1,0.1,0.1,0.1,0.2,0.1
						C130.5,100.5,130.3,100.2,130.1,100z"/>
				</g>
			</g>
			<g>
				<path class="st13" d="M89.7,93.8l-0.9,0.5c0,0-0.2-0.1-0.3-0.2c0,0,0,0,0-0.1c0,0,0-50,0-50.1s0-0.2,0.2-0.3
					c0.1-0.1,0.9-0.5,0.9-0.5c0.1,0,0.2-0.1,0.3,0s3.4,2,3.5,2s0.1,0.1,0.1,0.2s0,50.3,0,50.3s0,0.1-0.1,0.1s-0.9,0.5-0.9,0.5h-0.1
					l-0.2-0.1c0,0,0,0,0-0.1s0-1,0-1L89.7,93.8z"/>
				<line class="st14" x1="89.7" y1="93.8" x2="89.7" y2="43.4"/>
				<path class="st14" d="M92,95.1c0,0,0-49,0-49.1s0-0.2,0.2-0.3c0.1-0.1,0.8-0.5,0.8-0.5l-3.3-1.9c0,0-0.7,0.4-0.8,0.5
					s-0.2,0.1-0.2,0.3s0,50.1,0,50.1"/>
				<line class="st15" x1="88.6" y1="43.7" x2="88.9" y2="43.8"/>
				<line class="st15" x1="88.5" y1="44" x2="88.7" y2="44.1"/>
				<path class="st14" d="M93.4,45.3c0,0-0.9,0.5-1,0.5s-0.2,0.2-0.2,0.3c0,0.2,0,50.1,0,50.1"/>
				<line class="st15" x1="92.2" y1="45.8" x2="92.4" y2="45.9"/>
				<line class="st15" x1="92" y1="46" x2="92.3" y2="46.1"/>
				<g>
					<path class="st16" d="M91.2,80.2c-0.1,0-0.2,0.1-0.2,0.2c0,0.2,0.1,0.5,0.3,0.7s0.4,0.1,0.4-0.1l0,0c-0.1,0-0.1,0-0.2-0.1
						C91.4,80.8,91.2,80.5,91.2,80.2z"/>
					<path class="st16" d="M91.4,80.3c-0.1-0.1-0.1-0.1-0.2-0.1c0,0.2,0.1,0.5,0.3,0.7c0.1,0.1,0.1,0.1,0.2,0.1
						C91.8,80.8,91.6,80.5,91.4,80.3z"/>
				</g>
				<g>
					<path class="st16" d="M91.2,62.5c-0.1,0-0.2,0-0.2,0.2s0.1,0.5,0.3,0.7s0.4,0.1,0.4-0.1l0,0c-0.1,0-0.1,0-0.2-0.1
						C91.4,63,91.2,62.7,91.2,62.5z"/>
					<path class="st16" d="M91.4,62.5c-0.1,0-0.1-0.1-0.2-0.1c0,0.2,0.1,0.5,0.3,0.7c0.1,0,0.1,0.1,0.2,0.1
						C91.8,63,91.6,62.7,91.4,62.5z"/>
				</g>
				<g>
					<path class="st16" d="M91.2,57.8c-0.1,0-0.2,0-0.2,0.2s0.1,0.5,0.3,0.7c0.2,0.2,0.4,0.1,0.4-0.1l0,0c-0.1,0-0.1,0-0.2-0.1
						C91.4,58.4,91.2,58.1,91.2,57.8z"/>
					<path class="st16" d="M91.4,57.9c-0.1,0-0.1-0.1-0.2-0.1c0,0.2,0.1,0.5,0.3,0.7c0.1,0,0.1,0.1,0.2,0.1
						C91.8,58.4,91.6,58.1,91.4,57.9z"/>
				</g>
				<g>
					<path class="st16" d="M91.1,77.6c-0.1,0-0.2,0.1-0.2,0.2c0,0.2,0.1,0.5,0.3,0.7s0.4,0.1,0.4-0.1l0,0c-0.1,0-0.1,0-0.2-0.1
						C91.2,78.1,91.1,77.8,91.1,77.6z"/>
					<path class="st16" d="M91.3,77.7c-0.1-0.1-0.1-0.1-0.2-0.1c0,0.2,0.1,0.5,0.3,0.7c0.1,0.1,0.1,0.1,0.2,0.1
						C91.7,78.1,91.5,77.8,91.3,77.7z"/>
				</g>
			</g>
			<g>
				<g>
					<path class="st13" d="M141.1,92.2c-0.3-0.2-62.4-36-62.5-36.1s-0.2,0-0.3,0.1l-0.1-0.1C78,56.2,78,56.3,78,56.3s0,0.9,0,1
						s0,0.2-0.2,0.3s-0.4,0.2-0.5,0.3s-0.2,0.2-0.2,0.3s0,11.3,0,11.3L78,70c0,0,0,0.2,0,0.3s0,0.1,0.1,0.1s62.9,36.3,63,36.3
						s0.1,0,0.1,0v-0.2c0.1-0.1,0.2-0.1,0.2-0.2c0-0.2,0-13.5,0-13.6C141.4,92.5,141.4,92.4,141.1,92.2z M80.5,69.1
						c0,0-0.4-0.2-0.5-0.3c-0.1-0.1-0.2-0.2-0.2-0.3c0-0.2,0-7.8,0-7.8s0.4,0.2,0.5,0.3c0.1,0,0.2,0.2,0.2,0.3
						C80.5,61.4,80.5,69.1,80.5,69.1z M85.4,71.9c0,0-0.4-0.2-0.5-0.3c-0.1-0.1-0.2-0.2-0.2-0.3c0-0.2,0-7.8,0-7.8s0.4,0.2,0.5,0.3
						c0.1,0,0.2,0.2,0.2,0.3C85.4,64.2,85.4,71.9,85.4,71.9z M90.2,74.6c0,0-0.4-0.2-0.5-0.3c-0.1-0.1-0.2-0.2-0.2-0.3
						c0-0.2,0-7.8,0-7.8s0.4,0.2,0.5,0.3c0.1,0,0.2,0.2,0.2,0.3S90.2,74.6,90.2,74.6z M95,77.4c0,0-0.4-0.2-0.5-0.3
						c-0.1-0.1-0.2-0.2-0.2-0.3c0-0.2,0-7.8,0-7.8s0.4,0.2,0.5,0.3c0.1,0,0.2,0.2,0.2,0.3S95,77.4,95,77.4z M119.2,91.4
						c0,0-0.4-0.2-0.5-0.3c-0.1-0.1-0.2-0.2-0.2-0.3c0-0.2,0-7.8,0-7.8s0.4,0.2,0.5,0.3c0.1,0,0.2,0.2,0.2,0.3
						S119.2,91.4,119.2,91.4z M123.6,93.9c-0.1-0.1-0.2-0.2-0.2-0.3c0-0.2,0-7.8,0-7.8s0.4,0.2,0.5,0.3c0.1,0,0.2,0.2,0.2,0.3
						c0,0.1,0,7.8,0,7.8S123.7,93.9,123.6,93.9z M128.9,97c0,0-0.4-0.2-0.5-0.3c-0.1-0.1-0.1-0.2-0.1-0.3c0-0.2,0-7.8,0-7.8
						s0.4,0.2,0.5,0.3c0.1,0,0.1,0.2,0.1,0.3S128.9,97,128.9,97z M133.8,99.8c0,0-0.4-0.2-0.5-0.3c-0.1-0.1-0.1-0.2-0.1-0.3
						c0-0.2,0-7.8,0-7.8s0.4,0.2,0.5,0.3c0.1,0,0.1,0.2,0.1,0.3S133.8,99.8,133.8,99.8z M138.6,102.6c0,0-0.4-0.2-0.5-0.3
						c-0.1-0.1-0.1-0.2-0.1-0.3c0-0.2,0-7.8,0-7.8s0.4,0.2,0.5,0.3c0.1,0,0.1,0.2,0.1,0.3S138.6,102.6,138.6,102.6z"/>
					<line class="st17" x1="78.3" y1="56.2" x2="141.1" y2="92.5"/>
					<line class="st14" x1="78" y1="69.9" x2="140.2" y2="105.9"/>
					<path class="st14" d="M141,106.7c0,0,0-0.8,0-0.9s0-0.2-0.1-0.2s-0.4,0.2-0.5,0.3s-0.2,0.2-0.2-0.2s0-11.1,0-11.2
						c0-0.2,0.1-0.2,0.1-0.3c0.1-0.1,0.5-0.3,0.5-0.3s0.1-0.1,0.1-0.3s0-0.8,0-0.9s0-0.2,0.2-0.2v0.2l0.2-0.1"/>
					<line class="st17" x1="141" y1="92.8" x2="77.9" y2="56.3"/>
					<line class="st17" x1="77.9" y1="57.3" x2="141" y2="93.7"/>
					<line class="st17" x1="140.8" y1="93.9" x2="77.8" y2="57.6"/>
					<line class="st17" x1="77.2" y1="57.9" x2="140.3" y2="94.3"/>
					<line class="st17" x1="140.1" y1="94.5" x2="77.1" y2="58.1"/>
					<path class="st14" d="M141.1,93.8v11.6c0-0.1,0-0.1-0.1-0.1c-0.1,0.1-0.5,0.3-0.6,0.3s-0.1,0.1-0.1-0.1s0-10.8,0-10.9
						s0-0.2,0.1-0.3c0.1-0.1,0.5-0.3,0.6-0.3S141.1,93.9,141.1,93.8z"/>
					<line class="st17" x1="141.1" y1="105.3" x2="140.3" y2="104.8"/>
					<path class="st17" d="M140.9,105.3l-0.7-0.4"/>
					<line class="st17" x1="140.4" y1="105.7" x2="140.3" y2="105.6"/>
					<g>
						<path class="st14" d="M137.9,94.2c0,0-1-0.6-1.1-0.6s-0.1,0-0.1,0.1s0,8.9,0,9s0,0.2,0.1,0.3c0.1,0.1,1.5,0.9,1.6,0.9
							s0.1,0,0.1-0.1s0-1.2,0-1.2"/>
						<path class="st17" d="M138.6,102.8l-0.7-0.4c-0.1-0.1-0.1-0.1-0.1-0.3c0-0.1,0-8,0-8"/>
						<path class="st17" d="M138.6,103.8c0,0-1.5-0.9-1.6-0.9s-0.1-0.1-0.1-0.3s0-9,0-9"/>
						<path class="st17" d="M136.8,101.8c0.1,0.1,0.3,0.2,0.3,0s0-8,0-8"/>
						<path class="st15" d="M137.1,101.7c-0.1,0-0.1,0-0.1-0.2s0-7.8,0-7.8"/>
						<line class="st15" x1="136.9" y1="101.9" x2="137.1" y2="101.7"/>
						<line class="st15" x1="136.8" y1="101.6" x2="137" y2="101.6"/>
						<line class="st15" x1="137.9" y1="102" x2="137.7" y2="102.1"/>
						<path class="st15" d="M138.1,102.3c-0.1,0-0.2,0.1-0.2,0.1"/>
					</g>
					<g>
						<path class="st14" d="M133.1,91.4c0,0-1-0.6-1.1-0.6s-0.1,0-0.1,0.1s0,8.9,0,9s0,0.2,0.1,0.3s1.5,0.9,1.6,0.9s0.1,0,0.1-0.1
							s0-1.2,0-1.2"/>
						<path class="st17" d="M133.8,100l-0.7-0.4c-0.1-0.1-0.1-0.1-0.1-0.3s0-8,0-8"/>
						<path class="st17" d="M133.8,101c0,0-1.5-0.9-1.6-0.9s-0.1-0.1-0.1-0.3s0-9,0-9"/>
						<path class="st17" d="M132,99c0.1,0.1,0.3,0.2,0.3,0s0-8,0-8"/>
						<path class="st15" d="M132.3,98.8c-0.1,0-0.1,0-0.1-0.2s0-7.8,0-7.8"/>
						<line class="st15" x1="132.1" y1="99.1" x2="132.3" y2="98.9"/>
						<line class="st15" x1="132" y1="98.8" x2="132.1" y2="98.7"/>
						<line class="st15" x1="133.1" y1="99.2" x2="132.9" y2="99.3"/>
						<path class="st15" d="M133.2,99.5c-0.1,0-0.2,0.1-0.2,0.1"/>
					</g>
					<g>
						<path class="st14" d="M128.2,88.6c0,0-1-0.6-1.1-0.6s-0.2,0-0.2,0.1s0,8.9,0,9s0,0.2,0.2,0.3s1.5,0.9,1.6,0.9s0.1,0,0.1-0.1
							s0-1.2,0-1.2"/>
						<path class="st17" d="M128.9,97.3l-0.7-0.4c0,0-0.1-0.1-0.1-0.3s0-8,0-8"/>
						<path class="st17" d="M128.9,98.2c0,0-1.5-0.9-1.6-0.9s-0.2-0.1-0.2-0.3s0-9,0-9"/>
						<path class="st17" d="M127.2,96.2c0.1,0.1,0.3,0.2,0.3,0s0-8,0-8"/>
						<path class="st15" d="M127.4,96.1c-0.1,0-0.1,0-0.1-0.2s0-7.8,0-7.8"/>
						<line class="st15" x1="127.2" y1="96.3" x2="127.4" y2="96.1"/>
						<line class="st15" x1="127.2" y1="96" x2="127.3" y2="96"/>
						<line class="st15" x1="128.2" y1="96.4" x2="128.1" y2="96.5"/>
						<path class="st15" d="M128.4,96.7c-0.1,0-0.2,0.1-0.2,0.1"/>
					</g>
					<g>
						<path class="st14" d="M123.4,85.8c0,0-1-0.6-1.1-0.6s-0.2,0-0.2,0.1s0,8.9,0,9s0,0.2,0.2,0.3c0.1,0.1,1.5,0.9,1.6,0.9
							s0.2,0,0.2-0.1s0-1.2,0-1.2"/>
						<path class="st17" d="M124.1,94.5l-0.7-0.4c0,0-0.2-0.1-0.2-0.3c0-0.1,0-8,0-8"/>
						<path class="st17" d="M124.1,95.4c0,0-1.5-0.9-1.6-0.9s-0.2-0.1-0.2-0.3s0-9,0-9"/>
						<path class="st17" d="M122.3,93.4c0.1,0.1,0.3,0.2,0.3,0s0-8,0-8"/>
						<path class="st15" d="M122.6,93.3c-0.1,0-0.1,0-0.1-0.2s0-7.8,0-7.8"/>
						<line class="st15" x1="122.4" y1="93.5" x2="122.6" y2="93.3"/>
						<line class="st15" x1="122.3" y1="93.2" x2="122.5" y2="93.2"/>
						<line class="st15" x1="123.4" y1="93.6" x2="123.2" y2="93.7"/>
						<path class="st15" d="M123.6,93.9c-0.1,0-0.2,0.1-0.2,0.1"/>
					</g>
					<g>
						<path class="st14" d="M118.5,83.1c0,0-1-0.6-1.1-0.6s-0.2,0-0.2,0.1s0,8.9,0,9s0,0.2,0.2,0.3c0.1,0.1,1.5,0.9,1.6,0.9
							s0.2,0,0.2-0.1s0-1.2,0-1.2"/>
						<path class="st17" d="M119.2,91.7l-0.7-0.4c-0.1-0.1-0.2-0.1-0.2-0.3s0-8,0-8"/>
						<path class="st17" d="M119.2,92.7c0,0-1.5-0.9-1.6-0.9s-0.2-0.1-0.2-0.3s0-9,0-9"/>
						<path class="st17" d="M117.4,90.6c0.1,0.1,0.3,0.2,0.3,0s0-8,0-8"/>
						<path class="st15" d="M117.7,90.5c-0.1,0-0.1,0-0.1-0.2s0-7.8,0-7.8"/>
						<line class="st15" x1="117.5" y1="90.7" x2="117.7" y2="90.6"/>
						<line class="st15" x1="117.4" y1="90.5" x2="117.6" y2="90.4"/>
						<line class="st15" x1="118.5" y1="90.9" x2="118.3" y2="91"/>
						<path class="st15" d="M118.7,91.1c-0.1,0-0.2,0.1-0.2,0.1"/>
					</g>
					<g>
						<path class="st14" d="M94.3,69.1c0,0-1-0.6-1.1-0.6s-0.2,0-0.2,0.1s0,8.9,0,9s0,0.2,0.2,0.3c0.1,0.1,1.5,0.9,1.6,0.9
							s0.2,0,0.2-0.1s0-1.2,0-1.2"/>
						<path class="st17" d="M95,77.7l-0.7-0.4c-0.1-0.1-0.2-0.1-0.2-0.3s0-8,0-8"/>
						<path class="st17" d="M95,78.7c0,0-1.5-0.9-1.6-0.9s-0.2-0.1-0.2-0.3s0-9,0-9"/>
						<path class="st17" d="M93.2,76.6c0.1,0.1,0.3,0.2,0.3,0s0-8,0-8"/>
						<path class="st15" d="M93.5,76.5c-0.1,0-0.1,0-0.1-0.2s0-7.8,0-7.8"/>
						<line class="st15" x1="93.3" y1="76.7" x2="93.5" y2="76.6"/>
						<line class="st15" x1="93.2" y1="76.5" x2="93.4" y2="76.4"/>
						<line class="st15" x1="94.3" y1="76.8" x2="94.1" y2="77"/>
						<path class="st15" d="M94.5,77.1c-0.1,0-0.2,0.1-0.2,0.1"/>
					</g>
					<g>
						<path class="st14" d="M89.5,66.3c0,0-1-0.6-1.1-0.6s-0.2,0-0.2,0.1s0,8.9,0,9s0,0.2,0.2,0.3c0.1,0.1,1.5,0.9,1.6,0.9
							s0.1,0,0.1-0.1s0-1.2,0-1.2"/>
						<path class="st17" d="M90.2,74.9l-0.7-0.4c-0.1-0.1-0.2-0.1-0.2-0.3c0-0.1,0-8,0-8"/>
						<path class="st17" d="M90.2,75.9c0,0-1.5-0.9-1.6-0.9s-0.2-0.1-0.2-0.3s0-9,0-9"/>
						<path class="st17" d="M88.4,73.8c0.1,0.1,0.3,0.2,0.3,0s0-8,0-8"/>
						<path class="st15" d="M88.7,73.7c-0.1,0-0.1,0-0.1-0.2s0-7.8,0-7.8"/>
						<line class="st15" x1="88.5" y1="73.9" x2="88.7" y2="73.8"/>
						<line class="st15" x1="88.4" y1="73.7" x2="88.6" y2="73.6"/>
						<line class="st15" x1="89.5" y1="74.1" x2="89.3" y2="74.2"/>
						<path class="st15" d="M89.7,74.3c-0.1,0-0.2,0.1-0.2,0.1"/>
					</g>
					<g>
						<path class="st14" d="M84.7,63.5c0,0-1-0.6-1.1-0.6s-0.2,0-0.2,0.1s0,8.9,0,9s0,0.2,0.2,0.3c0.1,0.1,1.5,0.9,1.6,0.9
							s0.2,0,0.2-0.1s0-1.2,0-1.2"/>
						<path class="st17" d="M85.4,72.1l-0.7-0.4c-0.1-0.1-0.2-0.1-0.2-0.3s0-8,0-8"/>
						<path class="st17" d="M85.4,73.1c0,0-1.5-0.9-1.6-0.9s-0.2-0.1-0.2-0.3s0-9,0-9"/>
						<path class="st17" d="M83.6,71.1c0.1,0.1,0.3,0.2,0.3,0s0-8,0-8"/>
						<path class="st15" d="M83.9,70.9c-0.1,0-0.1,0-0.1-0.2s0-7.8,0-7.8"/>
						<line class="st15" x1="83.6" y1="71.2" x2="83.9" y2="71"/>
						<line class="st15" x1="83.6" y1="70.9" x2="83.7" y2="70.8"/>
						<line class="st15" x1="84.7" y1="71.3" x2="84.5" y2="71.4"/>
						<path class="st15" d="M84.8,71.6c-0.1,0-0.2,0.1-0.2,0.1"/>
					</g>
					<g>
						<path class="st14" d="M79.8,60.7c0,0-1-0.6-1.1-0.6s-0.2,0-0.2,0.1s0,8.9,0,9s0,0.2,0.2,0.3s1.5,0.9,1.6,0.9s0.2,0,0.2-0.1
							s0-1.2,0-1.2"/>
						<path class="st17" d="M80.5,69.3l-0.7-0.4c-0.1-0.1-0.2-0.1-0.2-0.3s0-8,0-8"/>
						<path class="st17" d="M80.5,70.3c0,0-1.5-0.9-1.6-0.9s-0.2-0.1-0.2-0.3s0-9,0-9"/>
						<path class="st17" d="M78.7,68.2c0.1,0.1,0.3,0.2,0.3,0s0-8,0-8"/>
						<path class="st15" d="M79,68.1c-0.1,0-0.1,0-0.1-0.2s0-7.8,0-7.8"/>
						<line class="st15" x1="78.8" y1="68.3" x2="79" y2="68.2"/>
						<line class="st15" x1="78.7" y1="68.1" x2="78.9" y2="68"/>
						<line class="st15" x1="79.8" y1="68.5" x2="79.6" y2="68.6"/>
						<path class="st15" d="M80,68.7c-0.1,0-0.2,0.1-0.2,0.1"/>
					</g>
					<line class="st15" x1="141" y1="92.5" x2="141.2" y2="92.4"/>
				</g>
				<g>
					<ellipse transform="matrix(0.866 -0.5 0.5 0.866 -27.2993 81.5265)" class="st18" cx="138.5" cy="91.7" rx="0.2" ry="0.4"/>
					<ellipse transform="matrix(0.866 -0.5 0.5 0.866 -26.5641 78.7078)" class="st18" cx="133.6" cy="88.9" rx="0.2" ry="0.4"/>
					<ellipse transform="matrix(0.866 -0.5 0.5 0.866 -26.1375 77.2081)" class="st18" cx="131" cy="87.4" rx="0.2" ry="0.4"/>
					<ellipse transform="matrix(0.866 -0.5 0.5 0.866 -25.801 75.9272)" class="st18" cx="128.8" cy="86.1" rx="0.2" ry="0.4"/>
					<ellipse transform="matrix(0.866 -0.5 0.5 0.866 -25.0333 73.1447)" class="st18" cx="124" cy="83.3" rx="0.2" ry="0.4"/>
					<ellipse transform="matrix(0.866 -0.5 0.5 0.866 -24.3068 70.3275)" class="st18" cx="119.1" cy="80.5" rx="0.2" ry="0.4"/>
					<ellipse transform="matrix(0.866 -0.5 0.5 0.866 -20.5675 56.4144)" class="st18" cx="95" cy="66.6" rx="0.2" ry="0.4"/>
					<ellipse transform="matrix(0.866 -0.5 0.5 0.866 -19.8208 53.5935)" class="st18" cx="90.1" cy="63.8" rx="0.2" ry="0.4"/>
					<ellipse transform="matrix(0.866 -0.5 0.5 0.866 -19.5247 52.3443)" class="st18" cx="87.9" cy="62.6" rx="0.2" ry="0.4"/>
					<ellipse transform="matrix(0.866 -0.5 0.5 0.866 -19.0889 50.781)" class="st18" cx="85.2" cy="61" rx="0.2" ry="0.4"/>
					<ellipse transform="matrix(0.866 -0.5 0.5 0.866 -18.3266 47.9939)" class="st18" cx="80.4" cy="58.2" rx="0.2" ry="0.4"/>
				</g>
			</g>
			<g>
				<polygon class="st19" points="100.8,67.7 113.6,75.1 113.6,95 100.8,87.6 				"/>
				<line class="st20" x1="100.8" y1="68.1" x2="113.5" y2="75.4"/>
			</g>
			<g>
				<path class="st13" d="M118.8,102.3c0,0,0-27.9,0-28s0-0.1-0.1-0.2s-2.9-1.7-2.9-1.7c-0.1,0-0.2-0.1-0.3,0
					c-0.1,0.1-0.3,0.2-0.6,0.3s-0.9,0.7-1.2,1.8s-0.7,3.9-3.9,6.7c0,0-1.4,0.8-1.6,0.9s-0.3,0.3-0.3,0.5s0,1,0,1s0,0.1,0.1,0.1
					s1.2,0.7,1.2,0.7V96c-0.1,0.1-0.3,0.9-0.2,1.2c0,0-0.6,0.4-0.7,0.4s-0.1,0.1-0.1,0.1v0.2c0,0,0,0,0,0.1l1,0.6c0,0,0,0.5,0,0.6
					s0,0.1,0.1,0.2s2.7,1.5,2.8,1.6c0.1,0.1,0.2,0,0.2,0c0.1,0,1.2-0.7,1.2-0.7c0.1,0,0.2-0.1,0.2-0.3c0,0.2,0,0.3,0,0.5
					s0.1,0.4,0.3,0.5c0.3,0.1,0.3,0.2,0.5,0.2s0.3,0,0.4-0.1s0.7-0.4,0.7-0.4l0.7,0.4c0.1,0.3,0.3,0.6,0.3,1c0,0.2,0.2,0.5,0.3,0.5
					c0.1,0.1,0.3,0.2,0.3,0.2c0.1,0,0.4,0.1,0.6,0C118.1,102.8,118.8,102.3,118.8,102.3z"/>
				<path class="st14" d="M117.4,102.9c-0.3-0.2-0.4-0.3-0.4-0.6s-0.2-0.9-0.4-1.2c-0.2-0.2-0.5-0.7-0.9-0.9c-0.4-0.2-0.9-0.5-2-0.3
					c-0.7,0.1-0.8,0.2-1.3-0.1c-0.1-0.1-0.3-0.2-0.4-0.5c-0.1-0.2-0.1-0.4-0.1-0.6s0.1-1.8,1.5-2.7c1.6-1,2.4-1.4,2.8-1.6
					c0.4-0.3,0.6-0.7,0.6-1.1c0-0.3,0-8.3,0-8.5s-0.1-0.4-0.4-0.2"/>
				<path class="st14" d="M112.6,99.9c-0.3-0.2-0.5-0.6-0.4-1c0-0.4,0.1-1.8,1.5-2.7c1.4-0.8,2.6-1.5,2.8-1.6
					c0.3-0.2,0.6-0.6,0.6-1.1s0-8.1,0-8.5s-0.2-0.4-0.3-0.4s-0.5,0.2-1.1,0.5s-1.5,0.9-1.9,1.1s-0.8,0.3-1.2,0.1s-0.4-0.3-0.5-0.4
					s-0.2-0.5-0.2-0.8s0.2-1.5,1.2-2.4s2.2-2.4,2.6-3.4s1-2.2,1.1-3.1s0.8-1.6,1.2-1.8s0.5-0.3,0.5-0.3l-2.8-1.6
					c0,0-0.2,0.1-0.5,0.3s-0.9,0.7-1.2,1.8s-0.5,3.3-3.2,6.1"/>
				<path class="st14" d="M112.4,86.4c-0.2-0.4-0.4-0.6-0.3-0.9c0-0.4,0.2-1.6,1.2-2.4s3.1-3.3,3.7-6.5c0.2-1.3,1-1.7,1.2-1.8
					s0.7-0.4,0.7-0.4"/>
				<line class="st15" x1="111.9" y1="98.8" x2="112.1" y2="98.9"/>
				<line class="st15" x1="113.4" y1="96.1" x2="113.7" y2="96.3"/>
				<line class="st15" x1="116.2" y1="94.6" x2="116.4" y2="94.7"/>
				<line class="st15" x1="116.8" y1="93.5" x2="117" y2="93.6"/>
				<line class="st15" x1="116.8" y1="85" x2="117" y2="85.1"/>
				<line class="st15" x1="111.9" y1="85.3" x2="112.1" y2="85.5"/>
				<line class="st15" x1="113" y1="82.9" x2="113.3" y2="83"/>
				<line class="st15" x1="116.7" y1="76.4" x2="116.9" y2="76.5"/>
				<line class="st15" x1="117.9" y1="74.6" x2="118.1" y2="74.7"/>
				<line class="st15" x1="114.9" y1="72.8" x2="115.1" y2="73"/>
				<line class="st15" x1="113.7" y1="74.7" x2="113.9" y2="74.8"/>
				<path class="st14" d="M112,101c-0.1-0.1-0.1-0.2-0.1-0.3s0-16,0-16.2s-0.1-0.3-0.3-0.2s-0.3,0.2-0.3,0.2s-0.1,0-0.1,0.2
					s0,0.4,0,0.5s-0.1,0.2-0.2,0.3c-0.1,0.1-0.2,0.2-0.3,0.2s-0.1,0-0.3-0.1s-1.4-0.8-1.4-0.8"/>
				<path class="st14" d="M109.8,81.4c0,0,0.8-0.5,0.9-0.5s0.1-0.1,0.3,0s2.6,1.5,2.6,1.5"/>
				<path class="st14" d="M110.6,85.6c0,0,0-0.9,0-1.1s0.1-0.4,0.3-0.5s2.4-1.4,2.4-1.4"/>
				<line class="st15" x1="108.1" y1="82.3" x2="110.9" y2="83.9"/>
				<line class="st15" x1="107.8" y1="82.9" x2="110.6" y2="84.5"/>
				<path class="st14" d="M109.1,96c0,0,0,0.8,0,0.9s-0.1,0.2-0.2,0.3"/>
				<path class="st14" d="M111.9,99.4c0-0.1-0.1-0.3-0.3-0.2s-0.7,0.4-0.7,0.4l-1.7-1"/>
				<path class="st14" d="M110.8,99.6c0-0.1,0-0.2,0-0.2s0-0.1,0.1-0.1s0.8-0.4,0.8-0.5s0.2-0.1,0.2-0.4"/>
				<line class="st15" x1="108.1" y1="97.6" x2="110.9" y2="99.2"/>
				<line class="st15" x1="108.1" y1="97.8" x2="110.8" y2="99.3"/>
				<line class="st15" x1="109" y1="97.2" x2="111.7" y2="98.8"/>
				<line class="st15" x1="109.1" y1="96.9" x2="111.8" y2="98.5"/>
				<line class="st15" x1="109.1" y1="99.2" x2="111.9" y2="100.7"/>
				<line class="st17" x1="115.6" y1="72.7" x2="115.6" y2="79.5"/>
				<line class="st17" x1="115.6" y1="85.2" x2="115.6" y2="94.8"/>
				<line class="st17" x1="113.7" y1="86.3" x2="113.7" y2="95.9"/>
				<path class="st17" d="M114,86.1c0,0,0,5.5,0,5.8s-0.1,0.6-0.3,0.8"/>
				<line class="st17" x1="113.7" y1="91.6" x2="114" y2="91.9"/>
				<path class="st17" d="M113.7,99.9c0.2,0.2,0.3,0.7,0.4,1"/>
				<line class="st17" x1="115.6" y1="100.2" x2="115.6" y2="100.7"/>
				<g>
					
						<ellipse transform="matrix(0.4659 -0.8849 0.8849 0.4659 -26.0632 153.003)" class="st21" cx="113.7" cy="98.1" rx="0.9" ry="0.5"/>
					<path class="st17" d="M113.8,97.3c0.2,0,0.4,0.3,0,1c-0.4,0.6-0.7,0.5-0.8,0.4"/>
					<line class="st17" x1="113.7" y1="97.3" x2="113.7" y2="98.4"/>
				</g>
				<g>
					
						<ellipse transform="matrix(0.4659 -0.8849 0.8849 0.4659 -14.074 145.7958)" class="st21" cx="113.7" cy="84.6" rx="0.9" ry="0.5"/>
					<path class="st17" d="M113.8,83.8c0.2,0,0.4,0.3,0,1c-0.4,0.6-0.7,0.5-0.8,0.4"/>
					<line class="st17" x1="113.7" y1="83.8" x2="113.7" y2="84.9"/>
				</g>
			</g>
			<g>
				<path class="st13" d="M100.8,92c0,0,0-27.9,0-28s0-0.1-0.1-0.2c-0.1,0-2.9-1.7-2.9-1.7c-0.1,0-0.2-0.1-0.3,0
					c-0.1,0.1-0.3,0.2-0.6,0.3s-0.9,0.7-1.2,1.8c-0.3,1.1-0.7,3.9-3.9,6.7c0,0-1.4,0.8-1.6,0.9s-0.3,0.3-0.3,0.5s0,1,0,1
					s0,0.1,0.1,0.1s1.2,0.7,1.2,0.7v11.2c-0.1,0.1-0.3,0.9-0.2,1.2c0,0-0.6,0.4-0.7,0.4S90.2,87,90.2,87v0.2c0,0,0,0,0,0.1l1,0.6
					c0,0,0,0.5,0,0.6s0,0.1,0.1,0.2s2.7,1.5,2.8,1.6c0.1,0.1,0.2,0,0.2,0c0.1,0,1.2-0.7,1.2-0.7c0.1,0,0.2-0.1,0.2-0.3
					c0,0.2,0,0.3,0,0.5s0.1,0.4,0.3,0.5c0.3,0.1,0.3,0.2,0.5,0.2s0.3,0,0.4-0.1s0.7-0.4,0.7-0.4l0.7,0.4c0.1,0.3,0.3,0.6,0.3,1
					c0,0.2,0.2,0.5,0.3,0.5c0.1,0.1,0.3,0.2,0.3,0.2c0.1,0,0.4,0.1,0.6,0C100.1,92.4,100.8,92,100.8,92z"/>
				<path class="st14" d="M99.4,92.5C99.1,92.3,99,92.2,99,92s-0.2-0.9-0.4-1.2s-0.5-0.7-0.9-0.9c-0.4-0.2-0.9-0.5-2-0.3
					c-0.7,0.1-0.8,0.2-1.3-0.1c-0.1-0.1-0.3-0.2-0.4-0.5c-0.1-0.2-0.1-0.4-0.1-0.6s0.1-1.8,1.5-2.7c1.6-1,2.4-1.4,2.8-1.6
					c0.4-0.3,0.6-0.7,0.6-1.1c0-0.3,0-8.3,0-8.5s-0.1-0.4-0.4-0.2"/>
				<path class="st14" d="M94.6,89.6c-0.3-0.2-0.5-0.6-0.4-1c0-0.4,0.1-1.8,1.5-2.7c1.4-0.8,2.6-1.5,2.8-1.6
					c0.3-0.2,0.6-0.6,0.6-1.1s0-8.1,0-8.5s-0.2-0.4-0.3-0.4c-0.1,0-0.5,0.2-1.1,0.5s-1.5,0.9-1.9,1.1S95,76.2,94.6,76
					s-0.4-0.3-0.5-0.4s-0.2-0.5-0.2-0.8s0.2-1.5,1.2-2.4s2.2-2.4,2.6-3.4s1-2.2,1.1-3.1s0.8-1.6,1.2-1.8s0.5-0.3,0.5-0.3l-2.8-1.6
					c0,0-0.2,0.1-0.5,0.3s-0.9,0.7-1.2,1.8c-0.3,1.1-0.5,3.3-3.2,6.1"/>
				<path class="st14" d="M94.5,76c-0.2-0.4-0.4-0.6-0.3-0.9c0-0.4,0.2-1.6,1.2-2.4s3.1-3.3,3.7-6.5c0.2-1.3,1-1.7,1.2-1.8
					S101,64,101,64"/>
				<line class="st15" x1="93.9" y1="88.5" x2="94.2" y2="88.6"/>
				<line class="st15" x1="95.4" y1="85.8" x2="95.7" y2="85.9"/>
				<line class="st15" x1="98.2" y1="84.2" x2="98.4" y2="84.3"/>
				<line class="st15" x1="98.8" y1="83.1" x2="99.1" y2="83.3"/>
				<line class="st15" x1="98.8" y1="74.6" x2="99.1" y2="74.8"/>
				<line class="st15" x1="93.9" y1="74.9" x2="94.2" y2="75.1"/>
				<line class="st15" x1="95.1" y1="72.5" x2="95.3" y2="72.7"/>
				<line class="st15" x1="98.7" y1="66.1" x2="99" y2="66.2"/>
				<line class="st15" x1="99.9" y1="64.2" x2="100.2" y2="64.4"/>
				<line class="st15" x1="96.9" y1="62.5" x2="97.2" y2="62.6"/>
				<line class="st15" x1="95.7" y1="64.3" x2="96" y2="64.5"/>
				<path class="st14" d="M94,90.6c-0.1-0.1-0.1-0.2-0.1-0.3s0-16,0-16.2s-0.1-0.3-0.3-0.2s-0.3,0.2-0.3,0.2s-0.1,0-0.1,0.2
					s0,0.4,0,0.5S93.1,75,93,75.1c-0.1,0.1-0.2,0.2-0.3,0.2s-0.1,0-0.3-0.1S91,74.4,91,74.4"/>
				<path class="st14" d="M91.8,71.1c0,0,0.8-0.5,0.9-0.5s0.1-0.1,0.3,0s2.6,1.5,2.6,1.5"/>
				<path class="st14" d="M92.6,75.2c0,0,0-0.9,0-1.1s0.1-0.4,0.3-0.5s2.4-1.4,2.4-1.4"/>
				<line class="st15" x1="90.2" y1="72" x2="92.9" y2="73.6"/>
				<line class="st15" x1="89.9" y1="72.5" x2="92.6" y2="74.1"/>
				<path class="st14" d="M91.2,85.6c0,0,0,0.8,0,0.9s-0.1,0.2-0.2,0.3"/>
				<path class="st14" d="M93.9,89.1c0-0.1-0.1-0.3-0.3-0.2c-0.2,0.1-0.7,0.4-0.7,0.4l-1.7-1"/>
				<path class="st14" d="M92.9,89.2c0-0.1,0-0.2,0-0.2s0-0.1,0.1-0.1s0.8-0.4,0.8-0.5S94,88.3,94,88"/>
				<line class="st15" x1="90.2" y1="87.3" x2="92.9" y2="88.9"/>
				<line class="st15" x1="90.1" y1="87.4" x2="92.9" y2="89"/>
				<line class="st15" x1="91" y1="86.8" x2="93.8" y2="88.4"/>
				<line class="st15" x1="91.2" y1="86.6" x2="93.9" y2="88.1"/>
				<line class="st15" x1="91.2" y1="88.8" x2="93.9" y2="90.4"/>
				<line class="st17" x1="97.7" y1="62.3" x2="97.7" y2="69.2"/>
				<line class="st17" x1="97.7" y1="74.9" x2="97.7" y2="84.4"/>
				<line class="st17" x1="95.8" y1="76" x2="95.8" y2="85.6"/>
				<path class="st17" d="M96.1,75.8c0,0,0,5.5,0,5.8s-0.1,0.6-0.3,0.8"/>
				<line class="st17" x1="95.7" y1="81.3" x2="96.1" y2="81.6"/>
				<path class="st17" d="M95.7,89.6c0.2,0.2,0.3,0.7,0.4,1"/>
				<line class="st17" x1="97.7" y1="89.9" x2="97.7" y2="90.4"/>
				<g>
					
						<ellipse transform="matrix(0.4659 -0.8849 0.8849 0.4659 -26.5371 131.6187)" class="st21" cx="95.8" cy="87.8" rx="0.9" ry="0.5"/>
					<path class="st17" d="M95.9,86.9c0.2,0,0.4,0.3,0,1c-0.4,0.6-0.7,0.5-0.8,0.4"/>
					<line class="st17" x1="95.8" y1="87" x2="95.8" y2="88.1"/>
				</g>
				<g>
					
						<ellipse transform="matrix(0.4659 -0.8849 0.8849 0.4659 -14.5667 124.3185)" class="st21" cx="95.7" cy="74.2" rx="0.9" ry="0.5"/>
					<path class="st17" d="M95.9,73.4c0.2,0,0.4,0.3,0,1c-0.4,0.6-0.7,0.5-0.8,0.4"/>
					<line class="st17" x1="95.7" y1="73.5" x2="95.7" y2="74.5"/>
				</g>
			</g>
		</g>
		<g>
			<g id="Mast_1_">
				<g>
					<path class="st22" d="M89.1,78.1v-5.7l0.3-0.2l0.7,0.4v0.6l2.5,1.4v-0.2l0.4-0.2l1.2,0.7l1.5-0.9v-0.4l1-0.6
						c0,0,11.9,6.7,12.3,6.9c0.3,0.2,0.5,0.3,0.5,0.6s0,0.4,0,0.4c0.4,0,0.3,0.4,0.3,0.7s0,2.9,0,2.9l1.7,1v-0.4l0.3-0.1l0.7,0.5
						v15.7l-0.3,0.2l-4.5-2.6v-0.3H107l-1.6,0.9l-2-1.2"/>
					<polyline class="st23" points="105.3,99.3 105.3,83 93.1,75.9 					"/>
					<polyline class="st23" points="93.1,77.1 93.1,75.9 94.2,75.2 					"/>
					<polyline class="st23" points="106.9,98.4 106.9,82.1 105.6,80.3 					"/>
					<polyline class="st23" points="95.7,73.6 98.7,78.6 107.9,80.6 109.1,80 					"/>
					<line class="st23" x1="94.6" y1="75" x2="96.8" y2="75.5"/>
					<line class="st23" x1="96.3" y1="74.7" x2="96.3" y2="75.4"/>
					<path class="st23" d="M109.3,80.2l-1.4,0.8l-9.2-2c-0.3-0.2-0.3-0.5-0.2-0.6"/>
					<path class="st23" d="M99.9,79.8c0.8,0.2,1.7,0.1,2-0.1"/>
					<polyline class="st23" points="102.5,82.6 102.9,82.3 105,83.5 105,99.1 					"/>
					<line class="st23" x1="104.9" y1="83.8" x2="102.7" y2="82.5"/>
					<polyline class="st23" points="93.1,76.4 95.5,77.9 95.5,78.5 					"/>
					<polyline class="st23" points="107.6,98.4 107.6,82.8 109.8,81.6 					"/>
					<polyline class="st23" points="109.7,81.1 107.4,82.4 107.3,98.4 					"/>
					<polyline class="st23" points="109.5,84.5 108.8,84.1 108.8,83.5 107.6,82.8 					"/>
					<line class="st23" x1="107" y1="80.8" x2="108.5" y2="81.8"/>
					<polyline class="st23" points="105.3,83 106.9,82.1 107.4,82.4 					"/>
					<ellipse class="st23" cx="100.8" cy="77.5" rx="1.9" ry="1.1"/>
					<path class="st23" d="M102.7,77.5V78c-0.4,0.5-0.7,0.8-1.9,0.8c-1.3,0-1.7-0.7-1.8-0.8v-0.6"/>
					
						<ellipse transform="matrix(0.7562 -0.6544 0.6544 0.7562 -30.1066 88.633)" class="st24" cx="103.9" cy="84.7" rx="0.3" ry="0.5"/>
					
						<ellipse transform="matrix(0.7562 -0.6544 0.6544 0.7562 -36.9886 91.2079)" class="st24" cx="103.9" cy="95.2" rx="0.3" ry="0.5"/>
					
						<ellipse transform="matrix(0.7562 -0.6544 0.6544 0.7562 -37.9067 91.5458)" class="st24" cx="103.9" cy="96.6" rx="0.3" ry="0.5"/>
				</g>
				<g>
					<path class="st25" d="M103.3,151.1c0,0,0-66.8,0-67.4s-0.1-0.6-0.7-0.9s-9.5-5.8-9.8-5.9c-0.5-0.3-0.8-0.5-1.2-0.3
						c-0.4,0.2-6.7,3.9-7.1,4.2s-0.7,0.3-0.7,0.7s0,58.3,0,58.3L103.3,151.1z"/>
					<path class="st23" d="M84.5,80.8c0,0-0.2,3.7,0,3.9s4.1,2.4,4.1,2.4h6.6l7.4-4.3"/>
					<path class="st23" d="M103.3,83.7c0,0-7.3,4.2-7.6,4.3s-0.3,0.1-0.5,0.1s-6.3,0-6.6,0s-0.4,0-0.5-0.1s-4.3-2.5-4.3-2.5"/>
					<path class="st23" d="M84.5,84.8c-0.1,0.1-0.5,0.4-0.5,0.7"/>
					<path class="st23" d="M83.8,86.1c0.1,0.1,4.1,2.4,4.3,2.5s0.3,0.1,0.5,0.1s6.4,0,6.6,0s0.3,0,0.5-0.1s7.6-4.3,7.6-4.3"/>
					<path class="st23" d="M95.7,146.7c0,0,0-58.5,0-58.7s0-0.6-0.5-0.9c0,0.3,0,59.3,0,59.3"/>
					<path class="st23" d="M88.1,142.4c0,0,0-53.9,0-54.3s0.2-0.8,0.5-0.9v55.4"/>
					<line class="st23" x1="86.9" y1="87.9" x2="86.9" y2="141.6"/>
					<line class="st23" x1="85.5" y1="87.2" x2="85.5" y2="140.7"/>
					<line class="st23" x1="85.2" y1="140.6" x2="85.2" y2="87"/>
					<line class="st23" x1="97.7" y1="87.6" x2="97.7" y2="147.7"/>
					<line class="st23" x1="98.9" y1="86.9" x2="98.9" y2="148.5"/>
					<line class="st23" x1="99.2" y1="148.6" x2="99.2" y2="86.7"/>
				</g>
			</g>
			<g>
				<g>
					<g>
						<path class="st26" d="M101.7,155.9c0,0.4-0.3,0.9-0.6,1.1c-0.5,0.3-3.7,2.1-3.9,2.2c-0.2,0.1-0.3,0.1-0.5,0.1
							c-0.2-0.1-0.4-0.2-0.6-0.4c-0.2-0.1-0.2-0.2-0.2-0.4s0-17.6,0-17.9c0-0.4,0.3-0.9,0.6-1.1s3.6-2.1,3.9-2.2
							c0.2-0.1,0.3-0.1,0.5-0.1c0.1,0.1,0.4,0.2,0.6,0.4c0.2,0.1,0.2,0.2,0.2,0.4S101.7,155.2,101.7,155.9z"/>
						<path class="st27" d="M101.6,137.7c-0.1-0.2-0.3-0.2-0.6-0.1s-3.7,2.1-3.9,2.2c-0.2,0.1-0.6,0.4-0.6,1.1s0,17.7,0,17.9
							c0,0.3,0.2,0.6,0.4,0.4"/>
						<line class="st23" x1="95.9" y1="158.4" x2="96.5" y2="158.7"/>
						<line class="st23" x1="95.9" y1="140.6" x2="96.5" y2="141"/>
						<line class="st23" x1="96.5" y1="139.5" x2="97.2" y2="139.9"/>
						<line class="st23" x1="100.4" y1="137.3" x2="101" y2="137.6"/>
						<g>
							
								<ellipse transform="matrix(0.5872 -0.8095 0.8095 0.5872 -73.2333 138.4538)" class="st28" cx="99.1" cy="141" rx="0.7" ry="0.4"/>
							
								<ellipse transform="matrix(0.5872 -0.8095 0.8095 0.5872 -76.2333 139.9677)" class="st28" cx="99.1" cy="144.7" rx="0.7" ry="0.4"/>
							
								<ellipse transform="matrix(0.5872 -0.8095 0.8095 0.5872 -79.2414 141.4947)" class="st28" cx="99.1" cy="148.4" rx="0.7" ry="0.4"/>
							
								<ellipse transform="matrix(0.5872 -0.8095 0.8095 0.5872 -82.252 143.0137)" class="st28" cx="99.1" cy="152.1" rx="0.7" ry="0.4"/>
							
								<ellipse transform="matrix(0.5872 -0.8095 0.8095 0.5872 -85.2662 144.6173)" class="st28" cx="99.1" cy="155.9" rx="0.7" ry="0.4"/>
						</g>
					</g>
					<g>
						<path class="st26" d="M99,150.5l24.9,14.4c-1.1-1.2,0.5-3.7,1.8-3.2l-24.9-14.4c0.1-0.7-0.5-1.1-0.8-1.2
							c-0.5-0.1-1.3,0.1-2.2,1.6c-0.9,1.4-0.5,2.5,0,2.9C98.4,151,98.7,150.7,99,150.5z"/>
						<path class="st23" d="M99,150.5c-0.7-0.4-1.1-1.1-0.4-2.3s1.5-1.3,2.2-0.9"/>
					</g>
				</g>
				<g>
					<path class="st26" d="M83.6,137.4c0,0-20.6-11.7-22.7-12.9c-2.5-1.5-9-3-14.2,0.1c-6.1,3.6-28.4,16.4-28.4,16.4
						c1.2-0.1,2.8,1.3,2,3c0,0,26.3-14.9,28.7-16.3s6.7-2.3,10-0.5S83.8,141,83.8,141L83.6,137.4z"/>
					<path class="st27" d="M46.6,124.5c2.2-0.1,2.2,3.1,2.2,3.1"/>
					<path class="st27" d="M60.8,124.4c-1.2,0.3-1.9,1.8-1.4,3"/>
				</g>
			</g>
			<g id="Cart_2_">
				<g>
					<g>
						<path class="st29" d="M57,124.4c0,0,56.6,32.7,58.7,33.9c2,1.2,2.8,2.4,2.8,5.2s0,79.2,0,80.3s-0.1,2.1-1.1,2.7
							s-13.4,7.6-13.4,7.6s-0.2,10.5-0.2,11.9s0.2,2.4-0.6,2.9s-26.4,15-27.6,15.7c-1.2,0.6-1.9,0.6-3,0
							c-0.9-0.5-32.3-20.2-32.3-20.2s0.2-15.5,0.2-21.6c0-5.7,0.3-7.6-3.1-9.8s-8.3-5-9.9-6c-1.6-1.1-2.3-2.3-2.4-5.7s0-76.2,0-80.1
							c0-1.4,0.6-1.8,1.3-2.2c2.4-1.5,20.1-11.4,26.1-14.9C54,123.3,54.9,123.3,57,124.4z"/>
						<path class="st30" d="M103.9,254.3c-2,1.2-11.9,7.2-12.8,7.7c-1.4,0.8-2.4,0.9-3.4,0.3c-2.4-1.4-8.1-4.8-9.3-5.5
							c-1.9-1.1-3.1-1-3.1,1.5c0,2.2,0.2,22.6,0.2,23.8c0,1.8-0.6,3.7-2.5,2.8"/>
						<line class="st31" x1="103.8" y1="267.4" x2="75.2" y2="283.8"/>
						<path class="st31" d="M103.8,260c0,0-25.7,15.1-26.7,15.7c-1.1,0.6-1.8,0.3-2.4,0s-1.5-0.9-1.5-0.9"/>
						<path class="st31" d="M115.7,158.3"/>
						<path class="st31" d="M87.9,262.3c2.2,0.5,2.2-1.4,2.2-2.2c0-0.8,0.1-81.1,0.1-81.1c0-1-0.6-3.1-2.4-4.1s-59-34.1-60.3-34.8
							s-2.2-0.4-2.3,0.4"/>
						<path class="st31" d="M118.5,244.8c0,0-27,15.6-27.5,15.9c-0.3,0.2-0.6,0.2-0.8,0.1"/>
						<path class="st31" d="M42.1,238.5c0-4.5-3-6.7-5-8c-0.9-0.6-7.7-4.4-8.9-5.2c-0.5-0.3-0.7-0.9-0.7-2.1c0-0.7,0-78.9,0-79.2
							s-0.1-0.6,0.2-0.8s0.9,0.1,1.3,0.3s56.6,32.7,57.7,33.3s1.3,1.6,1.3,2.2c0,0,0,78.1,0,79.1c0,1.5-1,0.9-1.6,0.5
							c-0.7-0.4-7.5-4.3-8.6-4.9c-1.9-1.1-4.6,0.2-4.6,2.3c0,3.1,0,23,0,24s-0.2,2-2,0.9c-1.7-1-13.4-7.8-13.4-7.8
							s-13.2-7.3-14.2-7.9s-1.3-1.3-1.3-2.2C42.2,262.2,42.1,238.5,42.1,238.5z"/>
						<path class="st31" d="M57.1,272.2c0,0,11.7,6.8,13.4,7.8c1.7,1,2.1,1.2,2.1-0.8c0-1,0-20.3,0-23.4c0-2.3,2.8-4,5-2.9
							c1.1,0.6,7.7,4.4,8.4,4.8c0.9,0.5,1.4,0.8,1.4,0c0-1,0.1-78.9,0.1-78.9c0-1-0.5-1.3-0.8-1.5c-0.4-0.2-57.4-33.1-57.6-33.3
							s-1-0.7-1,0.3s0,14,0,14s0,62.4,0,63.8c0,1.9,0,2.2,1.7,3.2c0.9,0.6,5.7,3.2,8,4.5s5.2,4,5.2,8.7c0,0,0,23.1,0,24
							s0.1,1.6,1.2,2.2C45.1,265.4,57.1,272.2,57.1,272.2z"/>
						<g>
							<g>
								<path class="st31" d="M100.9,202.6c1.6-0.9,7.3-4.1,7.8-4.4c0.9-0.5,2.7,0.5,0.9,1.5c-2.7,1.6-6.8,3.9-7.8,4.4
									s-1.5,0.5-2,0.3C100,203.8,100.3,202.9,100.9,202.6z"/>
								<path class="st31" d="M100.9,202.6c0.5,0.3,0.9,0.9,1,1.6"/>
								<path class="st31" d="M108.7,198.2c0.7,0.5,0.8,0.7,0.9,1.5"/>
							</g>
							<g>
								<path class="st31" d="M100.9,209.2c1.6-0.9,7.3-4.1,7.8-4.4c0.9-0.5,2.7,0.5,0.9,1.5c-2.7,1.6-6.8,3.9-7.8,4.4
									s-1.5,0.5-2,0.3C100,210.4,100.3,209.6,100.9,209.2z"/>
								<path class="st31" d="M100.9,209.2c0.5,0.3,0.9,0.9,1,1.6"/>
								<path class="st31" d="M108.7,204.8c0.7,0.5,0.8,0.7,0.9,1.5"/>
							</g>
							<g>
								<path class="st31" d="M100.9,215.8c1.6-0.9,7.3-4.1,7.8-4.4c0.9-0.5,2.7,0.5,0.9,1.5c-2.7,1.6-6.8,3.9-7.8,4.4
									s-1.5,0.5-2,0.3C100,217,100.3,216.1,100.9,215.8z"/>
								<path class="st31" d="M100.9,215.8c0.5,0.3,0.9,0.9,1,1.6"/>
								<path class="st31" d="M108.7,211.4c0.7,0.5,0.8,0.7,0.9,1.5"/>
							</g>
							<g>
								<path class="st31" d="M100.9,222.4c1.6-0.9,7.3-4.1,7.8-4.4c0.9-0.5,2.7,0.5,0.9,1.5c-2.7,1.6-6.8,3.9-7.8,4.4
									s-1.5,0.5-2,0.3C100,223.6,100.3,222.8,100.9,222.4z"/>
								<path class="st31" d="M100.9,222.4c0.5,0.3,0.9,0.9,1,1.6"/>
								<path class="st31" d="M108.7,218c0.7,0.5,0.8,0.7,0.9,1.5"/>
							</g>
							<g>
								<path class="st31" d="M100.9,229c1.6-0.9,7.3-4.1,7.8-4.4c0.9-0.5,2.7,0.5,0.9,1.5c-2.7,1.6-6.8,3.9-7.8,4.4s-1.5,0.5-2,0.3
									C100,230.2,100.3,229.4,100.9,229z"/>
								<path class="st31" d="M100.9,229c0.5,0.3,0.9,0.9,1,1.6"/>
								<path class="st31" d="M108.7,224.6c0.7,0.5,0.8,0.7,0.9,1.5"/>
							</g>
							<g>
								<path class="st31" d="M100.9,235.6c1.6-0.9,7.3-4.1,7.8-4.4c0.9-0.5,2.7,0.5,0.9,1.5c-2.7,1.6-6.8,3.9-7.8,4.4
									s-1.5,0.5-2,0.3C100,236.8,100.3,235.9,100.9,235.6z"/>
								<path class="st31" d="M100.9,235.6c0.5,0.3,0.9,0.9,1,1.6"/>
								<path class="st31" d="M108.7,231.2c0.7,0.5,0.8,0.7,0.9,1.5"/>
							</g>
							<g>
								<path class="st31" d="M100.9,242.2c1.6-0.9,7.3-4.1,7.8-4.4c0.9-0.5,2.7,0.5,0.9,1.5c-2.7,1.6-6.8,3.9-7.8,4.4
									s-1.5,0.5-2,0.3C100,243.4,100.3,242.6,100.9,242.2z"/>
								<path class="st31" d="M100.9,242.2c0.5,0.3,0.9,0.9,1,1.6"/>
								<path class="st31" d="M108.7,237.8c0.7,0.5,0.8,0.7,0.9,1.5"/>
							</g>
						</g>
						<path class="st31" d="M26.4,139c0.7-0.1,1.2,0.3,1.5,0.4s59.1,34.2,60.3,34.8s2.8,2.4,2.8,4.6s0,81.2,0,81.8s-0.1,1.4-0.8,1.8
							"/>
						<path class="st27" d="M93.3,225.3c0-0.4,0.3-1.7,1.2-2.2s20.2-11.5,20.6-11.8s1.3-0.4,1.3,0.6s0,28.9,0,29.8s-0.3,1.6-1.3,2.1
							s-20,11.6-20.6,11.9s-1.2,0.2-1.2-0.7S93.3,225.3,93.3,225.3z"/>
					</g>
					<path class="st31" d="M75.3,258.3c0.2,0.1,0.5,0.2,0.8,0s2.4-1.4,2.4-1.4"/>
					<path class="st31" d="M77.7,256.5c-0.8-0.1-1.6,0.4-1.6,1.8s0,24.6,0,25s-0.2,1.1-0.4,1.4"/>
					<path class="st27" d="M87.9,194c0,0,2,1.1,2.2,1.2s0.6,0.2,0.8,0s27.6-16,27.6-16"/>
					<path class="st23" d="M87.8,174.9c0-0.5,0.4-0.6,0.4-0.6l27.5-16"/>
					<path class="st23" d="M90.2,179c0.3,0.3,0.8-0.1,0.8-0.1l27.6-16"/>
					<path class="st23" d="M27.5,140.1c0-0.2,0.1-0.5,0.4-0.6s27.5-15.8,27.5-15.8"/>
					<path class="st32" d="M59,154.4c0,0,23,13.5,24.5,14.4c1.6,0.9,3.2,1.1,5,0.1s16.6-9.5,17.8-10.3s1.3-1.9-0.3-2.8
						c-1.6-0.9-44.9-25.9-45.5-26.2c-1.5-0.9-3.5-1.2-5.4-0.1c-1,0.6-17,9.5-17.5,9.9s-1.7,1.8,0,2.8C39.3,143.1,59,154.4,59,154.4z
						"/>
					<path class="st27" d="M65.8,158.6c0,0,0.8-0.5,1.2-0.7c0.3-0.2,0.5-0.7,0-1s-8-4.6-8.5-4.9c-0.5-0.3-1.3-0.4-1.9,0
						c-0.7,0.4-1,0.6-1,0.6"/>
					<path class="st27" d="M56.5,152.8c0.5-0.4,1.2-0.5,1.9-0.1c0.8,0.4,8.7,5,8.7,5"/>
					<line class="st23" x1="66.9" y1="157" x2="66.9" y2="157.6"/>
					<line class="st23" x1="58.4" y1="152" x2="58.4" y2="152.7"/>
					<line class="st23" x1="56.5" y1="152" x2="56.5" y2="152.8"/>
					<line class="st23" x1="62.8" y1="155.2" x2="61.7" y2="155.8"/>
				</g>
				<g>
					<polyline class="st23" points="97.6,251.1 97.6,251.5 96.1,252.4 					"/>
					<g>
						<path class="st23" d="M96.1,249.6c0-0.4,0.2-0.9,0.6-1.1s15.8-9.1,16.1-9.3s0.6-0.1,0.6,0.4s0,2.5,0,3s-0.1,0.8-0.6,1.1
							s-15.7,9-16.1,9.3s-0.6,0-0.6-0.4C96.1,252.2,96.1,249.6,96.1,249.6z"/>
						<line class="st23" x1="96.2" y1="253" x2="113.3" y2="243.1"/>
						<polyline class="st23" points="96.1,251.1 111.4,242.2 111.4,240.1 						"/>
						<path class="st23" d="M111.7,239.9c0,0,0,1.9,0,2.1s0,0.4-0.3,0.7S96,251.5,96,251.5"/>
						<path class="st33" d="M107.3,244.6c0,0,0.3,0.2,0.3,0.4s0.1,0.3-0.1,0.4s-9.9,5.7-9.9,5.7l-0.7-0.5L107.3,244.6z"/>
						<polyline class="st23" points="107.6,244.5 108.3,245 108.9,245 113.2,242.5 113.2,239.2 						"/>
						<g>
							<path class="st23" d="M101,246.1c0,0,0,0.6,0,0.8s0,0.5,0.2,0.4s0.9-0.5,1.2-0.7c0.3-0.2,0.2-0.3,0.2-0.4s0-1,0-1"/>
							<path class="st23" d="M101,246.8c0,0,0.8-0.5,1-0.6c0.1-0.1,0.2-0.2,0.2-0.4s0-0.6,0-0.6"/>
							<line class="st23" x1="102" y1="246.2" x2="102.5" y2="246.5"/>
							<line class="st23" x1="102.2" y1="245.9" x2="102.7" y2="246"/>
						</g>
						<g>
							<path class="st23" d="M103.3,244.8c0,0,0,0.6,0,0.8s0,0.5,0.2,0.4s0.9-0.5,1.2-0.7c0.3-0.2,0.2-0.3,0.2-0.4s0-1,0-1"/>
							<path class="st23" d="M103.3,245.5c0,0,0.8-0.5,1-0.6c0.1-0.1,0.2-0.2,0.2-0.4s0-0.6,0-0.6"/>
							<line class="st23" x1="104.3" y1="244.9" x2="104.8" y2="245.2"/>
							<line class="st23" x1="104.5" y1="244.6" x2="105" y2="244.7"/>
						</g>
						
							<ellipse transform="matrix(0.4632 -0.8862 0.8862 0.4632 -155.6113 227.0279)" class="st34" cx="109.6" cy="242" rx="0.6" ry="0.3"/>
						
							<ellipse transform="matrix(0.4632 -0.8862 0.8862 0.4632 -157.0739 226.1682)" class="st34" cx="108.2" cy="242.8" rx="0.6" ry="0.3"/>
						
							<ellipse transform="matrix(0.4632 -0.8862 0.8862 0.4632 -158.5549 225.3927)" class="st34" cx="106.8" cy="243.6" rx="0.4" ry="0.2"/>
						
							<ellipse transform="matrix(0.4632 -0.8862 0.8862 0.4632 -157.9117 225.7517)" class="st34" cx="107.4" cy="243.2" rx="0.4" ry="0.2"/>
					</g>
				</g>
				<g>
					<path class="st23" d="M80.1,257.8c-0.7,0.4-1.3,0.9-1.5,1.5s-0.2,0.8-0.2,1.2s0,2.2,0,2.7s0.4,1.1,0.8,0.9s3.1-1.7,3.7-2
						c0.4-0.2,1.3-0.8,1.2-1.9"/>
					<path class="st23" d="M78.4,263.8c0.2,0.2,0.4,0.4,1,0.1s2.7-1.5,3.2-1.9c0.6-0.3,1.2-0.8,1.2-1.8"/>
					<path class="st23" d="M78.4,261.4c0.1,0,2-1.3,2-1.3l-0.2-2"/>
					<line class="st23" x1="78.5" y1="259.3" x2="78.8" y2="261"/>
					<line class="st23" x1="80.4" y1="260.1" x2="80.4" y2="258.2"/>
				</g>
				<g>
					<path class="st26" d="M45.5,255.9c1-6.3,5.7-6.4,9.6-4.2c3.5,2,7.3,6.4,8.5,11.1c0.8,3.4,0.9,5.6,0.5,7.6c-0.5,2-1.8,3.3-4.9,4
						"/>
					<path class="st26" d="M51.9,251.1c-5.7-0.7-6.4,4.5-6.3,6.4c0.1,1.9,1,9.2,6.9,14.2c5.8,5,9.5,2.3,10.5,0.4
						c1.1-2.1,1-8.6-2-13.4C57.3,253,53.6,251.3,51.9,251.1z"/>
				</g>
				<g>
					<path class="st27" d="M43.2,185.6c0-7.5,4.7-8.1,7.1-7.9c5.5,0.4,15.8,9.6,15.7,19.8c-0.2,13.2,0,35.7,0,39.4
						c0,2.8-3.6,8.5-10.7,4.9s-12.1-13.1-12.1-19.9S43.2,185.6,43.2,185.6z"/>
					<path class="st35" d="M61.1,242.7c2.7-0.6,5.3-3,5.3-6.5s0-35.9,0-38.7s-0.9-10.1-9-16.8c-5.6-4.6-9.4-3.1-10.9-2.4"/>
					<path class="st27" d="M60,195.1c0-3.6-2.8-8.3-5.7-9.1s-4.9,0.4-4.9,3.3s0,32.2,0,36.3c0,2.9,3.5,7.7,6.2,8.7s4.4-0.1,4.4-2.5
						C59.9,229.4,60,195.1,60,195.1z"/>
					<path class="st27" d="M52.9,185.8c-0.6,0.5-0.4,1.3-0.4,1.9s0,34.1,0,35.7s1.6,8.2,7.2,9.6"/>
					<line class="st27" x1="52.6" y1="187.7" x2="49.3" y2="189.6"/>
					<line class="st27" x1="52.6" y1="223.4" x2="49.3" y2="225.3"/>
				</g>
			</g>
			<g id="Front_Handle_1_">
				<path class="st26" d="M125.8,161.7c1.8,1.2,3.3,2.6,3.5,4.7c0.2,2.6-1.2,4.6-3.1,5.7c-2.1,1.2-25.8,14.9-28.8,16.6
					c-2.9,1.7-9.7,2.9-14.7,0s-62.5-36.3-64.9-37.5s-6-6.7,0.4-10.4c2.1,0,2.5,2.4,2,3c-1.2,0.9-3.6,2.4-0.2,4.4s62.2,36,64.2,37.2
					s7.4,2.4,10.9,0.3s27.4-15.8,29-16.7s2.8-2.6-0.1-4.2C123,163.7,124.3,161.4,125.8,161.7z"/>
				<path class="st27" d="M124.1,169.1c1.3,0,2.5,1.7,1.9,3.1"/>
				<path class="st27" d="M95.6,185.6c1.6-0.1,2.7,2.1,1.8,3.2"/>
				<path class="st27" d="M84.2,185.5c-1,0.1-2.3,1.7-1.5,3.2"/>
				<path class="st27" d="M20,148.3c-1.2-0.2-2.3,1.1-2.2,2.9"/>
			</g>
		</g>
		<g>
			<path class="st14" d="M92.8,70.5"/>
			<path class="st13" d="M93.9,74.1c0-0.2-0.1-0.3-0.3-0.2s-0.3,0.2-0.3,0.2s-0.1,0-0.1,0.2s0,0.4,0,0.5S93.1,75,93,75.1
				c-0.1,0.1-0.2,0.2-0.3,0.2s-0.1,0-0.3-0.1S91,74.4,91,74.4l-1.2-0.7c-0.1,0-0.1-0.1-0.1-0.1c0-0.1,0-0.8,0-1s0.1-0.4,0.3-0.5
				c0.2-0.1,1.6-0.9,1.6-0.9"/>
			<path class="st14" d="M91.8,71.1c0,0,0.8-0.5,0.9-0.5s0.1-0.1,0.3,0s2.6,1.5,2.6,1.5"/>
			<path class="st14" d="M92.6,75.2c0,0,0-0.9,0-1.1s0.1-0.4,0.3-0.5s2.4-1.4,2.4-1.4"/>
			<line class="st15" x1="90.2" y1="72" x2="92.9" y2="73.6"/>
			<line class="st15" x1="89.9" y1="72.5" x2="92.6" y2="74.1"/>
		</g>
		<g>
			<path class="st14" d="M110.8,80.9"/>
			<path class="st13" d="M113.4,82.4c0,0-2.3-1.4-2.5-1.4s-0.2-0.1-0.3,0c-0.1,0-0.9,0.5-0.9,0.5s-1.4,0.8-1.6,0.9s-0.3,0.3-0.3,0.5
				s0,1,0,1s0,0.1,0.1,0.1s1.2,0.7,1.2,0.7s1.2,0.7,1.4,0.8s0.2,0.1,0.3,0.1s0.2-0.1,0.3-0.2s0.2-0.2,0.2-0.3s0-0.3,0-0.5
				s0-0.1,0.1-0.2c0-0.1,0.2-0.1,0.4-0.3c0.1-0.1,0.2,0,0.2,0.2h0.2c0.2-0.6,0.8-1.5,1.4-1.9"/>
			<path class="st14" d="M110.6,85.6c0,0,0-0.9,0-1.1s0.1-0.4,0.3-0.5s2.4-1.4,2.4-1.4"/>
			<line class="st15" x1="108.2" y1="82.4" x2="110.9" y2="84"/>
			<line class="st15" x1="107.9" y1="82.9" x2="110.6" y2="84.5"/>
		</g>
	</g>
</g>
<g id="Layer_2_1_">
	<g>
		<g>
			<polygon class="st36" points="165.6,282.2 168.1,283.6 168.1,284.1 166,285.3 163.6,283.9 163.6,283.4 			"/>
			<polyline class="st6" points="163.6,283.4 166,284.8 168.1,283.6 			"/>
			<line class="st6" x1="166" y1="285.3" x2="166" y2="284.8"/>
		</g>
		<g>
			<path class="st4" d="M173.2,289.5c-0.9,0.1-2.1,0.3-3.7-0.6s-4.6-2.7-4.6-2.7v-1l3.9-2.1c0,0,5.2,2.8,5.7,3.1
				c0.7,0.5,0.5,1.9,0,2.5L173.2,289.5z"/>
			<path class="st6" d="M165,285.2c0,0,5,2.8,5.5,3s1.4,0.7,2.7,0.3c1.4-0.4,1.5-1.4,1.2-2.2"/>
			<line class="st6" x1="171.1" y1="288.6" x2="171.1" y2="289.5"/>
			<line class="st6" x1="172.7" y1="288.6" x2="172.7" y2="289.5"/>
		</g>
		<line class="st37" x1="189" y1="297.1" x2="175.1" y2="289"/>
	</g>
	<g>
		<path class="st38" d="M199.2,293.9c-1.2-0.7-2-0.8-3.4,0s-8.9,5.1-10.9,6.3c-1.3,0.8-1.3,1.2-1.3,2.2s0,0.7,0,1.4s0.5,0.9,1.5,1.5
			c1.9,1.1,18.8,10.9,21.9,12.8c1,0.6,2.1,0.5,3.1-0.1c0.9-0.6,10.9-6.1,11.6-6.6s0.9-0.9,0.9-1.4s0-1.2,0-2c0-0.5-0.3-0.7-1-1.1
			C220.6,306.2,200.3,294.5,199.2,293.9z"/>
		<path class="st39" d="M183.8,301.1c0,0,22.7,13.1,23.4,13.5s1.7,0.6,2.7,0s11.2-6,11.2-6c0.5-0.3,1.6-1.2,0.4-1.9"/>
		<line class="st40" x1="209.9" y1="314.6" x2="209.9" y2="317.9"/>
		<line class="st40" x1="207.2" y1="314.6" x2="207.2" y2="318.1"/>
	</g>
</g>
<g id="Layer_4">
	<g>
		<line class="st41" x1="105.1" y1="248.3" x2="160.9" y2="280.6"/>
		<line class="st42" x1="105.1" y1="248.3" x2="160.9" y2="280.6"/>
		<g>
			<line class="st43" x1="105.1" y1="248.3" x2="106.3" y2="249.1"/>
			<line class="st44" x1="108.9" y1="250.6" x2="158.4" y2="279.1"/>
			<line class="st43" x1="159.6" y1="279.8" x2="160.9" y2="280.6"/>
		</g>
	</g>
</g>
</svg>
