<?xml version="1.0" encoding="utf-8"?>
<!-- Generator: Adobe Illustrator 25.2.0, SVG Export Plug-In . SVG Version: 6.00 Build 0)  -->
<svg version="1.1" id="Layer_1" xmlns="http://www.w3.org/2000/svg" xmlns:xlink="http://www.w3.org/1999/xlink" x="0px" y="0px"
	 width="99.6px" height="37.7px" viewBox="0 0 99.6 37.7" style="enable-background:new 0 0 99.6 37.7;" xml:space="preserve">
<style type="text/css">
	.st0{fill:#FFFFFF;}
	.st1{fill:#FFFFFF;stroke:#000000;stroke-width:2;}
</style>
<g>
	<rect x="1" y="1" class="st0" width="97.6" height="35.6"/>
	<path d="M97.6,2.1v33.6H2.1V2.1H97.6 M99.6,0H0v37.7h99.6V0L99.6,0z"/>
</g>
<line class="st1" x1="49.5" y1="0.5" x2="49.5" y2="37.2"/>
<g>
	<path d="M15.1,24.6V13.1h8.5v1.9h-6.2v2.5h5.8v1.9h-5.8v3.1h6.4v1.9H15.1z"/>
	<path d="M33.1,20.4l2.2,0.7c-0.3,1.2-0.9,2.2-1.7,2.8c-0.8,0.6-1.8,0.9-3,0.9c-1.5,0-2.8-0.5-3.8-1.6c-1-1-1.5-2.5-1.5-4.3
		c0-1.9,0.5-3.4,1.5-4.4s2.3-1.6,3.9-1.6c1.4,0,2.5,0.4,3.4,1.2c0.5,0.5,0.9,1.2,1.2,2.1L33,16.8c-0.1-0.6-0.4-1.1-0.8-1.4
		s-1-0.5-1.6-0.5c-0.8,0-1.5,0.3-2.1,0.9c-0.5,0.6-0.8,1.6-0.8,3c0,1.4,0.3,2.5,0.8,3.1c0.5,0.6,1.2,0.9,2,0.9
		c0.6,0,1.1-0.2,1.6-0.6C32.5,21.8,32.9,21.2,33.1,20.4z"/>
	<path d="M59.4,24.6V13.1h4.9c1.2,0,2.1,0.1,2.7,0.3s1,0.6,1.3,1.1c0.3,0.5,0.5,1.1,0.5,1.8c0,0.9-0.3,1.6-0.8,2.1
		c-0.5,0.6-1.3,0.9-2.3,1.1c0.5,0.3,0.9,0.6,1.2,1c0.3,0.3,0.8,1,1.3,1.9l1.4,2.2h-2.8l-1.7-2.5c-0.6-0.9-1-1.5-1.2-1.7
		s-0.5-0.4-0.7-0.5c-0.2-0.1-0.6-0.1-1.2-0.1h-0.5v4.8H59.4z M61.7,18h1.7c1.1,0,1.8,0,2.1-0.1c0.3-0.1,0.5-0.3,0.6-0.5
		s0.2-0.5,0.2-0.9c0-0.4-0.1-0.7-0.3-0.9c-0.2-0.2-0.5-0.4-0.9-0.4c-0.2,0-0.8,0-1.7,0h-1.8V18z"/>
	<path d="M70.9,24.6V13.1h8.5v1.9h-6.2v2.5H79v1.9h-5.8v3.1h6.4v1.9H70.9z"/>
	<path d="M81.6,24.6V13.1h3.7c1.4,0,2.3,0.1,2.8,0.2c0.7,0.2,1.2,0.5,1.6,1.1c0.4,0.6,0.7,1.3,0.7,2.2c0,0.7-0.1,1.3-0.4,1.8
		c-0.3,0.5-0.6,0.9-1,1.1c-0.4,0.3-0.8,0.5-1.2,0.5c-0.6,0.1-1.4,0.2-2.4,0.2h-1.5v4.3H81.6z M83.9,15.1v3.2h1.3
		c0.9,0,1.5-0.1,1.8-0.2c0.3-0.1,0.5-0.3,0.7-0.6c0.2-0.3,0.3-0.6,0.3-0.9c0-0.4-0.1-0.8-0.4-1c-0.2-0.3-0.6-0.4-0.9-0.5
		c-0.3-0.1-0.8-0.1-1.7-0.1H83.9z"/>
</g>
</svg>
