<?xml version="1.0" encoding="utf-8"?>
<!-- Generator: Adobe Illustrator 25.2.0, SVG Export Plug-In . SVG Version: 6.00 Build 0)  -->
<svg version="1.1" id="Layer_1" xmlns="http://www.w3.org/2000/svg" xmlns:xlink="http://www.w3.org/1999/xlink" x="0px" y="0px"
	 width="30.6px" height="18.8px" viewBox="0 0 30.6 18.8" style="enable-background:new 0 0 30.6 18.8;" xml:space="preserve">
<style type="text/css">
	.st0{fill:#FFFFFF;stroke:#000000;stroke-width:0.8377;stroke-miterlimit:10;}
</style>
<rect x="0.4" y="0.4" class="st0" width="29.8" height="18"/>
<g>
	<path d="M6,12.7V5.5H9c0.8,0,1.3,0.1,1.7,0.2c0.3,0.1,0.6,0.4,0.8,0.7c0.2,0.3,0.3,0.7,0.3,1.1c0,0.5-0.2,1-0.5,1.3
		S10.6,9.4,10,9.5c0.3,0.2,0.6,0.4,0.8,0.6c0.2,0.2,0.5,0.6,0.8,1.2l0.9,1.4h-1.7l-1.1-1.6c-0.4-0.6-0.6-0.9-0.8-1.1
		C8.8,9.9,8.6,9.8,8.5,9.8C8.3,9.7,8.1,9.7,7.7,9.7H7.4v3H6z M7.4,8.5h1.1c0.7,0,1.1,0,1.3-0.1c0.2-0.1,0.3-0.2,0.4-0.3
		c0.1-0.1,0.1-0.3,0.1-0.5c0-0.2-0.1-0.4-0.2-0.6c-0.1-0.1-0.3-0.2-0.5-0.3c-0.1,0-0.5,0-1.1,0H7.4V8.5z"/>
	<path d="M13.2,12.7V5.5h5.3v1.2h-3.9v1.6h3.6v1.2h-3.6v2h4v1.2H13.2z"/>
	<path d="M21.8,12.7l-2.6-7.2h1.6l1.8,5.3l1.8-5.3h1.5l-2.6,7.2H21.8z"/>
</g>
</svg>
