<?xml version="1.0" encoding="utf-8"?>
<!-- Generator: Adobe Illustrator 25.2.0, SVG Export Plug-In . SVG Version: 6.00 Build 0)  -->
<svg version="1.1" id="Layer_1" xmlns="http://www.w3.org/2000/svg" xmlns:xlink="http://www.w3.org/1999/xlink" x="0px" y="0px"
	 width="10.9px" height="17.1px" viewBox="0 0 10.9 17.1" style="enable-background:new 0 0 10.9 17.1;" xml:space="preserve">
<style type="text/css">
	.st0{fill:#FFFFFF;}
	.st1{fill:#FFFFFF;stroke:#000000;stroke-width:0.106;}
	.st2{fill:none;stroke:#000000;stroke-width:0.106;}
	.st3{fill:none;stroke:#000000;stroke-width:0.2121;}
</style>
<path class="st0" d="M6.6,8.9H4.3C4.1,8.9,4,8.7,4,8.6l-0.6-6c0-0.3,0.3-0.3,1.2-0.3h1.9c0.6,0,1.3,0.2,1.1,0.3L7,8.6
	C6.9,8.7,6.8,8.9,6.6,8.9z"/>
<rect x="0.1" y="12.3" width="10.6" height="1.8"/>
<path class="st1" d="M7.6,2.7C7.6,2.8,7.6,2.8,7.6,2.7L3.1,2.8c0,0-0.1,0-0.1-0.1V2.6c0-0.1,0-0.1,0.1-0.1h4.4
	C7.6,2.5,7.6,2.6,7.6,2.7L7.6,2.7z"/>
<path class="st2" d="M3.3,2.5c0,0,0-0.3,0.4-0.3L5,2.1c0,0,2-0.1,2.5,0.2"/>
<path d="M4,2.4C4,2.5,3.9,2.5,4,2.4L3.8,2.5c-0.1,0-0.1,0-0.1-0.1V2.1C3.7,2,3.7,2,3.8,2h0.1C3.9,2,4,2,4,2.1V2.4z"/>
<rect x="5" y="2" width="1" height="0.3"/>
<path d="M7.9,2.5c0,0.2-0.1,0.3-0.3,0.3c-0.2,0-0.3-0.1-0.3-0.3s0.1-0.3,0.3-0.3S7.9,2.4,7.9,2.5z"/>
<polyline class="st1" points="7.5,3.1 7.9,3.1 7.9,3.7 7.4,3.7 "/>
<rect x="5" y="4.3" width="1.3" height="0.3"/>
<path class="st2" d="M3.3,2.8l0.6,5.8c0,0,0,0.3,0.3,0.3s2.1,0,2.1,0"/>
<line class="st2" x1="7.5" y1="2.8" x2="7" y2="8.3"/>
<line class="st3" x1="0.1" y1="0.1" x2="10.8" y2="11"/>
<line class="st3" x1="0.1" y1="11" x2="10.8" y2="0.1"/>
<path d="M7,8.8C7,8.9,6.9,9,6.7,9C6.6,9,6.5,8.9,6.5,8.8c0-0.1,0.1-0.2,0.2-0.2C6.9,8.5,7,8.6,7,8.8z"/>
<path d="M7.3,8.8c0,0.3-0.2,0.6-0.6,0.6c-0.3,0-0.6-0.2-0.6-0.6c0-0.3,0.2-0.6,0.6-0.6C7.1,8.2,7.3,8.5,7.3,8.8z M6.7,8.4
	c-0.2,0-0.3,0.1-0.3,0.3S6.5,9,6.7,9C6.9,9,7,8.9,7,8.7C7.1,8.6,6.9,8.4,6.7,8.4z"/>
<rect x="4.1" y="8.9" width="0.3" height="0.4"/>
<g>
	<path d="M3.9,17.1v-1.8h0.6c0.2,0,0.4,0,0.4,0c0.1,0,0.2,0.1,0.3,0.2s0.1,0.2,0.1,0.4c0,0.1,0,0.2-0.1,0.3c0,0.1-0.1,0.1-0.2,0.2
		c-0.1,0-0.1,0.1-0.2,0.1s-0.2,0-0.4,0H4.3v0.7H3.9V17.1z M4.3,15.6v0.5h0.2c0.1,0,0.2,0,0.3,0c0,0,0.1,0,0.1-0.1v-0.1
		c0-0.1,0-0.1-0.1-0.2l-0.1-0.1C4.7,15.6,4.6,15.6,4.3,15.6C4.4,15.6,4.3,15.6,4.3,15.6z"/>
	<path d="M5.6,17.1v-1.8h0.3V16c0.1-0.1,0.2-0.2,0.4-0.2c0.2,0,0.3,0.1,0.4,0.2c0.1,0.1,0.2,0.3,0.2,0.5S6.8,16.9,6.7,17
		s-0.2,0.2-0.4,0.2c-0.1,0-0.1,0-0.2-0.1C6,17.1,6,17,5.9,16.9v0.2H5.6z M5.9,16.4c0,0.1,0,0.2,0.1,0.3c0.1,0.1,0.1,0.1,0.2,0.1
		s0.1,0,0.2-0.1s0.1-0.2,0.1-0.3c0-0.2,0-0.3-0.1-0.3S6.3,16,6.2,16C6.1,16,6,16,6,16.1S5.9,16.3,5.9,16.4z"/>
</g>
</svg>
