<?xml version="1.0" encoding="utf-8"?>
<!-- Generator: Adobe Illustrator 25.2.0, SVG Export Plug-In . SVG Version: 6.00 Build 0)  -->
<svg version="1.1" id="Layer_2" xmlns="http://www.w3.org/2000/svg" xmlns:xlink="http://www.w3.org/1999/xlink" x="0px" y="0px"
	 width="108.6px" height="88.6px" viewBox="0 0 108.6 88.6" style="enable-background:new 0 0 108.6 88.6;" xml:space="preserve">
<style type="text/css">
	.st0{fill:#FFFFFF;}
	.st1{fill:none;stroke:#000000;stroke-width:0.6079;stroke-miterlimit:10;stroke-dasharray:1.8262,1.8262;}
	.st2{fill:none;stroke:#000000;stroke-width:0.6079;stroke-miterlimit:10;}
	.st3{fill:none;stroke:#000000;stroke-width:0.6079;stroke-linecap:round;stroke-linejoin:round;stroke-miterlimit:10;}
	.st4{fill:none;stroke:#00AEEF;stroke-width:0.6079;stroke-linecap:round;stroke-linejoin:round;stroke-miterlimit:10;}
</style>
<g>
	<path class="st0" d="M90.7,88.3H17.9c-9.7,0-17.6-7.9-17.6-17.6V17.9c0-9.7,7.9-17.6,17.6-17.6h72.7c9.7,0,17.6,7.9,17.6,17.6v52.7
		C108.3,80.3,100.4,88.3,90.7,88.3z"/>
	<path class="st1" d="M90.7,88.3H17.9c-9.7,0-17.6-7.9-17.6-17.6V17.9c0-9.7,7.9-17.6,17.6-17.6h72.7c9.7,0,17.6,7.9,17.6,17.6v52.7
		C108.3,80.3,100.4,88.3,90.7,88.3z"/>
</g>
<rect x="28" y="25.2" class="st2" width="53.7" height="36.7"/>
<circle class="st3" cx="70.2" cy="43.6" r="2.6"/>
<path class="st3" d="M67.6,43.6c0-1.5,0.7-4.5-3.4-4.5S52.5,39.6,50.9,41c-5.3,0-9.2,0-12.3,0.9c-0.5-0.8-1.9-1.5-2.8-1.3
	c0.6,1.1,1.6,2.1,2.1,3"/>
<path class="st3" d="M50.9,41c2.3,0,8.4-0.3,12.6,0.3"/>
<path class="st3" d="M50.9,46.5c3.2,0.2,9.1,0.3,12.1-0.3"/>
<path class="st3" d="M54.9,43.9H38c-0.5,0.9-1.5,1.9-2.1,3c0.8,0.2,2.3-0.5,2.8-1.3c3.2,0.9,7.1,0.9,12.3,0.9
	c1.5,1.4,9.1,1.9,13.2,1.9s3.4-3,3.4-4.5"/>
<line class="st4" x1="81.8" y1="25.2" x2="101.9" y2="4.4"/>
<g>
	<path d="M47.7,9.4c0.2,0,0.5,0,0.6,0.1l-0.1,0.8c-0.2,0-0.4-0.1-0.6-0.1c-0.4,0-0.8,0.2-1.1,0.5c-0.3,0.4-0.5,0.8-0.5,1.3v2.9h-0.8
		V9.5h0.7l0.1,1h0c0.2-0.3,0.4-0.6,0.7-0.8S47.4,9.4,47.7,9.4z"/>
	<path d="M51.6,10.6V9.9h4.5v0.7H51.6z M51.6,12.6v-0.7h4.5v0.7H51.6z"/>
	<path d="M62.9,14.8h-0.8V9.7c0-0.4,0-0.8,0-1.2c-0.1,0.1-0.1,0.1-0.2,0.2s-0.5,0.4-1.2,1l-0.4-0.6l1.9-1.5h0.7V14.8z"/>
	<path d="M65.8,14.3c0-0.2,0-0.4,0.1-0.5c0.1-0.1,0.2-0.2,0.4-0.2c0.2,0,0.3,0.1,0.4,0.2c0.1,0.1,0.2,0.3,0.2,0.5
		c0,0.2-0.1,0.4-0.2,0.5s-0.3,0.2-0.4,0.2c-0.2,0-0.3-0.1-0.4-0.2C65.9,14.7,65.8,14.5,65.8,14.3z"/>
	<path d="M70.5,10.4c0.8,0,1.3,0.2,1.8,0.6c0.4,0.4,0.6,0.9,0.6,1.5c0,0.7-0.2,1.3-0.7,1.7c-0.5,0.4-1.1,0.6-1.9,0.6
		c-0.8,0-1.4-0.1-1.8-0.4v-0.8c0.2,0.1,0.5,0.3,0.8,0.3s0.7,0.1,1,0.1c0.6,0,1-0.1,1.3-0.4c0.3-0.3,0.5-0.7,0.5-1.2
		c0-1-0.6-1.5-1.8-1.5c-0.3,0-0.7,0-1.2,0.1L68.6,11l0.3-3.3h3.5v0.7h-2.9l-0.2,2.1C69.7,10.5,70.1,10.4,70.5,10.4z"/>
	<path d="M83.8,14.8v-3.5c0-0.4-0.1-0.7-0.3-1S83,10,82.6,10c-0.5,0-0.9,0.1-1.1,0.4c-0.2,0.3-0.4,0.7-0.4,1.3v3h-0.8v-3.5
		c0-0.4-0.1-0.7-0.3-1S79.6,10,79.2,10c-0.5,0-0.9,0.2-1.1,0.5c-0.2,0.3-0.4,0.8-0.4,1.5v2.8h-0.8V9.5h0.7l0.1,0.7h0
		c0.2-0.3,0.4-0.5,0.6-0.6c0.3-0.1,0.6-0.2,0.9-0.2c0.8,0,1.4,0.3,1.6,0.9h0c0.2-0.3,0.4-0.5,0.7-0.7s0.6-0.2,1-0.2
		c0.6,0,1.1,0.2,1.4,0.5c0.3,0.3,0.5,0.8,0.5,1.5v3.5H83.8z"/>
</g>
<line class="st4" x1="78.6" y1="22.1" x2="84.9" y2="28.4"/>
<line class="st4" x1="98.7" y1="1.2" x2="105.1" y2="7.5"/>
</svg>
