<?xml version="1.0" encoding="utf-8"?>
<!-- Generator: Adobe Illustrator 25.2.0, SVG Export Plug-In . SVG Version: 6.00 Build 0)  -->
<svg version="1.1" id="Layer_1" xmlns="http://www.w3.org/2000/svg" xmlns:xlink="http://www.w3.org/1999/xlink" x="0px" y="0px"
	 viewBox="0 0 106.8 29.2" style="enable-background:new 0 0 106.8 29.2;" xml:space="preserve">
<g>
	<g>
		<g>
			<g>
				<path style="fill:#1E4286;" d="M106.4,13.1c-0.3-1-0.7-1.9-1.3-2.7c-0.6-0.8-1.4-1.4-2.3-1.9c-1-0.5-2.1-0.7-3.5-0.7
					c-0.7,0-1.4,0.1-2,0.3c-0.6,0.2-1.2,0.4-1.7,0.7c-0.5,0.3-1,0.7-1.4,1.1c-0.1,0.2-0.3,0.3-0.4,0.5V8.3h-7v20.3h7.2v-11
					c0-0.5,0.1-1,0.2-1.5c0.1-0.5,0.3-0.9,0.6-1.2c0.3-0.3,0.6-0.6,1-0.8c0.4-0.2,0.8-0.3,1.4-0.3c0.5,0,0.9,0.1,1.3,0.3
					c0.3,0.2,0.6,0.4,0.8,0.8c0.2,0.3,0.3,0.8,0.4,1.2c0.1,0.5,0.1,1,0.1,1.5v11.1h7.2V16.1C106.8,15.1,106.7,14.1,106.4,13.1z"/>
			</g>
		</g>
		<path style="fill:#1E4286;" d="M77.5,18.4c0,2.4-1.9,4.3-4.3,4.3c-2.4,0-4.3-1.9-4.3-4.3s1.9-4.3,4.3-4.3
			C75.6,14.1,77.5,16,77.5,18.4z M73.2,7.6c-6,0-10.8,4.8-10.8,10.8s4.8,10.8,10.8,10.8S84,24.4,84,18.4S79.2,7.6,73.2,7.6z"/>
		<path style="fill:#1E4286;" d="M53.6,22.7c-2.4,0-4.3-1.9-4.3-4.3s1.9-4.3,4.3-4.3c1.5,0,2.8,0.8,3.6,1.9l4.3-5
			c-2-2.1-4.8-3.4-7.9-3.4c-6,0-10.8,4.8-10.8,10.8c0,6,4.8,10.8,10.8,10.8c3.1,0,5.9-1.3,7.9-3.4l-4.2-5.1
			C56.5,21.9,55.2,22.7,53.6,22.7z"/>
		<path style="fill:#1E4286;" d="M12,0L0,28.6h8.1l2.1-5.5h10.3l2.2,5.5h8.2L19,0H12z M18.4,17h-6.1l3.1-8.2L18.4,17z"/>
		<rect x="32.9" style="fill:#1E4286;" width="7.3" height="28.6"/>
	</g>
</g>
</svg>
