<?xml version="1.0" encoding="utf-8"?>
<!-- Generator: Adobe Illustrator 25.2.0, SVG Export Plug-In . SVG Version: 6.00 Build 0)  -->
<svg version="1.1" id="Layer_4" xmlns="http://www.w3.org/2000/svg" xmlns:xlink="http://www.w3.org/1999/xlink" x="0px" y="0px"
	 width="256.5px" height="61.1px" viewBox="0 0 256.5 61.1" style="enable-background:new 0 0 256.5 61.1;" xml:space="preserve">
<style type="text/css">
	.st0{fill:#FFFFFF;stroke:#000000;stroke-linecap:round;stroke-linejoin:round;stroke-miterlimit:10;}
	.st1{fill:none;stroke:#000000;stroke-linecap:round;stroke-linejoin:round;stroke-miterlimit:10;}
	.st2{fill:none;stroke:#000000;stroke-width:0.25;stroke-linecap:round;stroke-linejoin:round;stroke-miterlimit:10;}
	.st3{fill:none;stroke:#000000;stroke-width:0.5;stroke-linecap:round;stroke-linejoin:round;stroke-miterlimit:10;}
	.st4{fill:none;stroke:#000000;stroke-width:1.5;stroke-linecap:round;stroke-linejoin:round;stroke-miterlimit:10;}
</style>
<g>
	<path class="st0" d="M110.5,23.1c0-17.3-30.4-22.6-47.7-22.6C37.6,0.5,24.2,6,19.7,8.8v2.9l-6,3.1l-3.5-1.5
		c-3.1,2.6-9.7,9.1-9.7,16c0,7,4.4,11.3,7.7,13.3c1.6,5.1,11.1,18,42.8,18c38.9,0,52.5-17.2,54.3-22.5c0.3-0.9,0.1-1.4,0.1-3.2
		C107.8,32.1,110.5,28.9,110.5,23.1z M82.5,31v2.3l-5.2,3.3l-3-1.3c0,0-11.1,6.6-13.5,7.9c-2.4,1.3-5.5,1.8-12.6,1.8
		s-24.4-0.4-33.8-11.7l23.5-13.4c14.1-3.8,43.5-4.5,56.2,4.4L82.5,31z"/>
	<path class="st1" d="M0.5,29.3c0,4.5,8.3,21.1,47.1,21.1c25.5,0,39.3-5.4,44.4-8.3v2.1c3.1-0.9,7.1-3.6,7.9-4.7l0-1.9
		c4.3-2.4,11-9.7,10.4-17.3"/>
	<path class="st2" d="M1.3,34.2c5.3,8.6,18.3,18,45.3,18c25.6,0,41.2-6,45.3-8"/>
	<path class="st3" d="M100,39.4c2.7-2,3.7-2.9,5.4-4.8"/>
	<path class="st2" d="M8.2,42.6c6.7,9.6,24.1,14.5,42.8,14.5s47.6-7.3,53-21.1"/>
	<line class="st1" x1="77.3" y1="36.6" x2="92" y2="42.1"/>
	<line class="st1" x1="82.5" y1="31" x2="99.8" y2="37.6"/>
	<line class="st1" x1="82.5" y1="33.3" x2="99.9" y2="39.5"/>
	<path class="st1" d="M14.4,33.3c-1.2-1.6-1.3-2.2-1.5-3c-0.2-0.8,0.3-2,1.5-2.6c1.2-0.6,14-8,14-8v2.6l8.6-4.5v-2.6
		c0,0,12.1-7.1,13.7-7.9s8.2-1.9,15.4-1.5c10.1,0.6,26.3,3.1,31.5,13.1c0.7,1.4,0.2,3.2-0.4,3.6c-0.6,0.4-3.1,1.8-3.1,1.8"/>
	<path class="st1" d="M37.9,19.9c0,0,13.7-7.6,14.9-8.1s9.2-1.9,16.1-0.9s21.8,3.3,28.3,11.6"/>
	<line class="st1" x1="19.7" y1="8.8" x2="37" y2="15.2"/>
	<line class="st1" x1="19.7" y1="11.7" x2="37" y2="17.8"/>
	<line class="st1" x1="13.7" y1="14.8" x2="28.4" y2="19.7"/>
	<g>
		<path class="st2" d="M21,23c0-1.4-2.5-2.5-5.6-2.5S9.8,21.7,9.8,23c0,0.9,1.2,1.8,3,2.2c0,0,0,0,0,0c0-0.8,1.3-1.4,2.9-1.4
			c1.5,0,2.7,0.6,2.9,1.3C20.1,24.6,21,23.9,21,23z"/>
		<path class="st2" d="M15.7,23.8c-1.6,0-2.9,0.6-2.9,1.4c0,0,0,0,0,0c0.8,0.2,1.7,0.3,2.6,0.3c1.2,0,2.3-0.2,3.2-0.4
			C18.5,24.4,17.3,23.8,15.7,23.8z"/>
	</g>
	<g>
		<path class="st2" d="M46.6,8.8c0-1.4-2.5-2.5-5.6-2.5s-5.6,1.1-5.6,2.5c0,0.9,1.2,1.8,3,2.2c0,0,0,0,0,0c0-0.8,1.3-1.4,2.9-1.4
			c1.5,0,2.7,0.6,2.9,1.3C45.7,10.3,46.6,9.6,46.6,8.8z"/>
		<path class="st2" d="M41.3,9.5c-1.6,0-2.9,0.6-2.9,1.4c0,0,0,0,0,0c0.8,0.2,1.7,0.3,2.6,0.3c1.2,0,2.3-0.2,3.2-0.4
			C44.1,10.1,42.8,9.5,41.3,9.5z"/>
	</g>
	<g>
		<path class="st2" d="M75.9,42.1c0-1.4-2.5-2.5-5.6-2.5s-5.6,1.1-5.6,2.5c0,0.9,1.2,1.8,3,2.2c0,0,0,0,0,0c0-0.8,1.3-1.4,2.9-1.4
			c1.5,0,2.7,0.6,2.9,1.3C75,43.7,75.9,42.9,75.9,42.1z"/>
		<path class="st2" d="M70.7,42.8c-1.6,0-2.9,0.6-2.9,1.4c0,0,0,0,0,0c0.8,0.2,1.7,0.3,2.6,0.3c1.2,0,2.3-0.2,3.2-0.4
			C73.4,43.4,72.2,42.8,70.7,42.8z"/>
	</g>
	<g>
		<path class="st2" d="M101.2,27.9c0-1.4-2.5-2.5-5.6-2.5s-5.6,1.1-5.6,2.5c0,0.9,1.2,1.8,3,2.2c0,0,0,0,0,0c0-0.8,1.3-1.4,2.9-1.4
			c1.5,0,2.7,0.6,2.9,1.3C100.2,29.5,101.2,28.8,101.2,27.9z"/>
		<path class="st2" d="M95.9,28.7c-1.6,0-2.9,0.6-2.9,1.4c0,0,0,0,0,0c0.8,0.2,1.7,0.3,2.6,0.3c1.2,0,2.3-0.2,3.2-0.4
			C98.6,29.3,97.4,28.7,95.9,28.7z"/>
	</g>
	<ellipse class="st2" cx="90.5" cy="40" rx="0.9" ry="0.6"/>
	<polyline class="st4" points="82.2,38.1 84.9,36.4 85.8,39.5 88.6,37.6 	"/>
</g>
<g>
	<path class="st0" d="M256,23.1c0-17.3-30.4-22.6-47.7-22.6c-25.2,0-38.5,5.5-43.1,8.3v2.9l-6,3.1l-3.5-1.5c-3.1,2.6-9.7,9.1-9.7,16
		c0,7,4.4,11.3,7.7,13.3c1.6,5.1,11.1,18,42.8,18c38.9,0,52.5-17.2,54.3-22.5c0.3-0.9,0.1-1.4,0.1-3.2C253.4,32.1,256,28.9,256,23.1
		z M228,31v2.3l-5.2,3.3l-3-1.3c0,0-11.1,6.6-13.5,7.9c-2.4,1.3-5.5,1.8-12.6,1.8s-24.4-0.4-33.8-11.7l23.5-13.4
		c14.1-3.8,43.5-4.5,56.2,4.4L228,31z"/>
	<path class="st1" d="M146,29.3c0,4.5,8.3,21.1,47.1,21.1c25.5,0,39.3-5.4,44.4-8.3v2.1c3.1-0.9,7.1-3.6,7.9-4.7l0-1.9
		c4.3-2.4,11-9.7,10.4-17.3"/>
	<path class="st2" d="M146.8,34.2c5.3,8.6,18.3,18,45.3,18c25.6,0,41.2-6,45.3-8"/>
	<path class="st3" d="M245.5,39.4c2.7-2,3.7-2.9,5.4-4.8"/>
	<path class="st2" d="M153.8,42.6c6.7,9.6,24.1,14.5,42.8,14.5s47.6-7.3,53-21.1"/>
	<line class="st1" x1="222.8" y1="36.6" x2="237.5" y2="42.1"/>
	<line class="st1" x1="228" y1="31" x2="245.4" y2="37.6"/>
	<line class="st1" x1="228" y1="33.3" x2="245.4" y2="39.5"/>
	<path class="st1" d="M159.9,33.3c-1.2-1.6-1.3-2.2-1.5-3c-0.2-0.8,0.3-2,1.5-2.6c1.2-0.6,14-8,14-8v2.6l8.6-4.5v-2.6
		c0,0,12.1-7.1,13.7-7.9c1.6-0.8,8.2-1.9,15.4-1.5c10.1,0.6,26.3,3.1,31.5,13.1c0.7,1.4,0.2,3.2-0.4,3.6c-0.6,0.4-3.1,1.8-3.1,1.8"
		/>
	<path class="st1" d="M183.4,19.9c0,0,13.7-7.6,14.9-8.1s9.2-1.9,16.1-0.9c6.9,1,21.8,3.3,28.3,11.6"/>
	<line class="st1" x1="165.2" y1="8.8" x2="182.5" y2="15.2"/>
	<line class="st1" x1="165.2" y1="11.7" x2="182.5" y2="17.8"/>
	<line class="st1" x1="159.2" y1="14.8" x2="173.9" y2="19.7"/>
	<g>
		<path class="st2" d="M166.6,23c0-1.4-2.5-2.5-5.6-2.5s-5.6,1.1-5.6,2.5c0,0.9,1.2,1.8,3,2.2c0,0,0,0,0,0c0-0.8,1.3-1.4,2.9-1.4
			c1.5,0,2.7,0.6,2.9,1.3C165.6,24.6,166.6,23.9,166.6,23z"/>
		<path class="st2" d="M161.3,23.8c-1.6,0-2.9,0.6-2.9,1.4c0,0,0,0,0,0c0.8,0.2,1.7,0.3,2.6,0.3c1.2,0,2.3-0.2,3.2-0.4
			C164,24.4,162.8,23.8,161.3,23.8z"/>
	</g>
	<g>
		<path class="st2" d="M192.2,8.8c0-1.4-2.5-2.5-5.6-2.5s-5.6,1.1-5.6,2.5c0,0.9,1.2,1.8,3,2.2c0,0,0,0,0,0c0-0.8,1.3-1.4,2.9-1.4
			c1.5,0,2.7,0.6,2.9,1.3C191.2,10.3,192.2,9.6,192.2,8.8z"/>
		<path class="st2" d="M186.9,9.5c-1.6,0-2.9,0.6-2.9,1.4c0,0,0,0,0,0c0.8,0.2,1.7,0.3,2.6,0.3c1.2,0,2.3-0.2,3.2-0.4
			C189.6,10.1,188.4,9.5,186.9,9.5z"/>
	</g>
	<g>
		<path class="st2" d="M221.5,42.1c0-1.4-2.5-2.5-5.6-2.5s-5.6,1.1-5.6,2.5c0,0.9,1.2,1.8,3,2.2c0,0,0,0,0,0c0-0.8,1.3-1.4,2.9-1.4
			c1.5,0,2.7,0.6,2.9,1.3C220.5,43.7,221.5,42.9,221.5,42.1z"/>
		<path class="st2" d="M216.2,42.8c-1.6,0-2.9,0.6-2.9,1.4c0,0,0,0,0,0c0.8,0.2,1.7,0.3,2.6,0.3c1.2,0,2.3-0.2,3.2-0.4
			C218.9,43.4,217.7,42.8,216.2,42.8z"/>
	</g>
	<g>
		<path class="st2" d="M246.7,27.9c0-1.4-2.5-2.5-5.6-2.5s-5.6,1.1-5.6,2.5c0,0.9,1.2,1.8,3,2.2c0,0,0,0,0,0c0-0.8,1.3-1.4,2.9-1.4
			c1.5,0,2.7,0.6,2.9,1.3C245.8,29.5,246.7,28.8,246.7,27.9z"/>
		<path class="st2" d="M241.4,28.7c-1.6,0-2.9,0.6-2.9,1.4c0,0,0,0,0,0c0.8,0.2,1.7,0.3,2.6,0.3c1.2,0,2.3-0.2,3.2-0.4
			C244.2,29.3,242.9,28.7,241.4,28.7z"/>
	</g>
	<ellipse class="st2" cx="236" cy="40" rx="0.9" ry="0.6"/>
	<polyline class="st4" points="227.6,38 230,36.4 234.7,38.3 	"/>
</g>
</svg>
