<?xml version="1.0" encoding="utf-8"?>
<!-- Generator: Adobe Illustrator 25.2.0, SVG Export Plug-In . SVG Version: 6.00 Build 0)  -->
<svg version="1.1" xmlns="http://www.w3.org/2000/svg" xmlns:xlink="http://www.w3.org/1999/xlink" x="0px" y="0px" width="181.2px"
	 height="310.8px" viewBox="0 0 181.2 310.8" style="enable-background:new 0 0 181.2 310.8;" xml:space="preserve">
<style type="text/css">
	.st0{fill:#FFFFFF;stroke:#010101;stroke-width:0.5;stroke-linecap:round;stroke-linejoin:round;stroke-miterlimit:10;}
	.st1{fill:none;stroke:#010101;stroke-width:0.25;stroke-linecap:round;stroke-linejoin:round;stroke-miterlimit:10;}
	.st2{fill:#FFFFFF;stroke:#010101;stroke-linecap:round;stroke-linejoin:round;stroke-miterlimit:10;}
	.st3{fill:none;stroke:#010101;stroke-width:0.5;stroke-linecap:round;stroke-linejoin:round;stroke-miterlimit:10;}
	.st4{fill:none;stroke:#010101;stroke-width:0.2308;stroke-linecap:round;stroke-linejoin:round;stroke-miterlimit:10;}
	.st5{fill:#FFFFFF;stroke:#000000;stroke-width:0.5;stroke-linecap:round;stroke-linejoin:round;stroke-miterlimit:10;}
	.st6{fill:#FFFFFF;stroke:#000000;stroke-width:0.3169;stroke-linecap:round;stroke-linejoin:round;stroke-miterlimit:10;}
	.st7{fill:none;stroke:#000000;stroke-width:0.3169;stroke-linecap:round;stroke-linejoin:round;stroke-miterlimit:10;}
	.st8{fill:#FFFFFF;stroke:#000000;stroke-width:0.25;stroke-linecap:round;stroke-linejoin:round;stroke-miterlimit:10;}
	.st9{fill:none;stroke:#000000;stroke-width:0.25;stroke-linecap:round;stroke-linejoin:round;stroke-miterlimit:10;}
	.st10{fill:none;stroke:#000000;stroke-width:0.2421;stroke-linecap:round;stroke-linejoin:round;stroke-miterlimit:10;}
	.st11{display:none;}
	.st12{display:inline;fill:#FFFFFF;stroke:#000000;stroke-miterlimit:10;}
	.st13{display:inline;fill:none;stroke:#000000;stroke-linecap:round;stroke-linejoin:round;stroke-miterlimit:10;}
	.st14{display:inline;fill:#FFFFFF;stroke:#000000;stroke-linecap:round;stroke-linejoin:round;stroke-miterlimit:10;}
	
		.st15{display:inline;fill:none;stroke:#000000;stroke-width:0.25;stroke-linecap:round;stroke-linejoin:round;stroke-miterlimit:10;}
	.st16{fill:#FFFFFF;stroke:#000000;stroke-linecap:round;stroke-linejoin:round;stroke-miterlimit:10;}
	.st17{fill:none;stroke:#000000;stroke-width:0.5;stroke-linecap:round;stroke-linejoin:round;stroke-miterlimit:10;}
	.st18{fill:none;stroke:#000000;stroke-linecap:round;stroke-linejoin:round;stroke-miterlimit:10;}
	.st19{fill:none;stroke:#000000;stroke-width:1.0043;stroke-linecap:round;stroke-linejoin:round;stroke-miterlimit:10;}
	.st20{display:inline;fill:none;stroke:#000000;stroke-miterlimit:10;}
	.st21{display:inline;fill:none;stroke:#000000;stroke-width:0.25;stroke-miterlimit:10;}
	.st22{display:inline;}
	.st23{fill:#FFFFFF;stroke:#000000;stroke-width:0.25;stroke-miterlimit:10;}
	.st24{fill:none;stroke:#000000;stroke-width:0.25;stroke-miterlimit:10;}
	.st25{display:inline;fill:none;stroke:#000000;stroke-width:0.5;stroke-miterlimit:10;}
	.st26{font-family:'OpenSans-Bold';}
	.st27{font-size:2.2544px;}
	.st28{font-size:1.1272px;}
	.st29{fill:#FFFFFF;}
	.st30{display:none;fill:none;stroke:#000000;stroke-width:3;stroke-linecap:round;stroke-linejoin:round;stroke-miterlimit:10;}
	
		.st31{display:inline;fill:none;stroke:#000000;stroke-width:0.5;stroke-linecap:round;stroke-linejoin:round;stroke-miterlimit:10;}
	.st32{fill:#FFFFFF;stroke:#000000;stroke-width:0.3;stroke-linecap:round;stroke-linejoin:round;stroke-miterlimit:10;}
	.st33{fill:#FFFFFF;stroke:#000000;stroke-width:7.500000e-02;stroke-linecap:round;stroke-linejoin:round;stroke-miterlimit:10;}
	.st34{fill:none;stroke:#000000;stroke-width:7.500000e-02;stroke-linecap:round;stroke-linejoin:round;stroke-miterlimit:10;}
	.st35{fill:none;stroke:#00AEEF;stroke-linecap:round;stroke-linejoin:round;stroke-miterlimit:10;stroke-dasharray:3,3;}
	.st36{fill:none;stroke:#00AEEF;stroke-linecap:round;stroke-linejoin:round;}
	.st37{fill:none;stroke:#00AEEF;stroke-linecap:round;stroke-linejoin:round;stroke-dasharray:2.8467,2.8467;}
	.st38{fill:none;stroke:#00AEEF;stroke-linecap:round;stroke-linejoin:round;stroke-dasharray:2.9942,2.9942;}
	.st39{fill:none;stroke:#00AEEF;stroke-linecap:round;stroke-linejoin:round;stroke-dasharray:3.4007,3.4007;}
	.st40{fill:none;stroke:#00AEEF;stroke-linecap:round;stroke-linejoin:round;stroke-dasharray:2.8518,2.8518;}
	.st41{fill:none;stroke:#00AEEF;stroke-linecap:round;stroke-linejoin:round;stroke-dasharray:2.6286,2.6286;}
	.st42{fill:none;stroke:#00AEEF;stroke-linecap:round;stroke-linejoin:round;stroke-dasharray:3.1462,3.1462;}
	.st43{fill:none;stroke:#00AEEF;stroke-linecap:round;stroke-linejoin:round;stroke-dasharray:2.5051,2.5051;}
	.st44{fill:none;stroke:#00AEEF;stroke-linecap:round;stroke-linejoin:round;stroke-dasharray:2.8408,2.8408;}
	.st45{fill:none;stroke:#00AEEF;stroke-linecap:round;stroke-linejoin:round;stroke-dasharray:2.5218,2.5218;}
	.st46{fill:none;stroke:#00AEEF;stroke-linecap:round;stroke-linejoin:round;stroke-dasharray:2.6923,2.6923;}
	.st47{fill:none;stroke:#00AEEF;stroke-linecap:round;stroke-linejoin:round;stroke-dasharray:2.5075,2.5075;}
	.st48{fill:none;stroke:#007481;stroke-linecap:round;stroke-linejoin:round;}
	.st49{fill:#FFFFFF;stroke:#000000;stroke-miterlimit:10;}
	.st50{display:none;fill:#FFFFFF;stroke:#000000;stroke-miterlimit:10;}
</style>
<g id="Microscope">
	<g>
		<g>
			<path class="st0" d="M61.9,240.1c0,0-30.3,7.2-31.5,7.5c-1.2,0.3-1,4.9-0.7,6.9c0.3,2,1.8,7.8,4.6,7.4s31.5-5.4,31.5-5.4
				L61.9,240.1z"/>
			<line class="st1" x1="29.7" y1="254.6" x2="62.4" y2="248.1"/>
			<line class="st1" x1="58.5" y1="240.9" x2="59.3" y2="248.7"/>
			<path class="st1" d="M40,252.5c-1.9,1.2-4.8,6.6,2.9,8.1"/>
			
				<ellipse transform="matrix(0.9858 -0.1678 0.1678 0.9858 -42.0117 11.9323)" class="st1" cx="49.6" cy="254.6" rx="4.8" ry="2.4"/>
			<path class="st1" d="M52.2,250.1c3.2-0.6,9.1,4.5,0.4,8.8"/>
		</g>
		<g>
			<path class="st0" d="M83.2,238.7c0,0-18.1,0-19.4,0c-1.3,0-1.7,0.8-1.9,1.4c-0.4,1-0.3,3.4,0.5,7.9c0.7,4.1,2.7,7.9,3.4,8.6
				c0.7,0.7,1.6,0.5,2.7,0s15.7-8.4,16.2-8.7C85.3,247.6,83.2,238.7,83.2,238.7z"/>
			<path class="st1" d="M80.7,238.7c-0.1,1.4-0.4,7,1.9,10.4"/>
			<path class="st1" d="M77,238.7c-0.5,3-0.4,8.1,2.5,12"/>
			<polyline class="st1" points="62.1,239.8 80.6,240.1 83.3,239.2 			"/>
			<circle class="st1" cx="78.3" cy="245.1" r="1.2"/>
		</g>
		<path class="st2" d="M94,160.9c3.5-2.3,15.6-9.9,18.3-11.5c2-1.2,2.8-0.8,4.2,0c1.3,0.8,51.2,28.3,54.2,30c3,1.7,2.5,3,3.4,4.6
			s2.2,6.2,2.4,11.2s0.7,31.8,0.7,31.8c1.6,1.1,2.2,1.9,2.2,3.8s0,19.8,0,21.1c0,0.7-0.4,1.2-1.2,1.6c-1,0.6-23.5,13.1-24.7,13.8
			s-1.4,0.8-2.8,0.8s-9.1,0-10.4,0s-2.2,0.1-3,0.8c-1.3,1-6.7,5.1-8.4,6.2c-4,2.7-15.4,2.1-20.6,0.7c-5.2-1.4-16.6-5.7-15.6-15.6
			c-5.3-3.8-9-9.9-9.3-13.6c-0.3-3.7,0-8.5,0-10.2s1.6-4.9,7-6.7c0-2.3,0-3.1,0-3.9s0.7-2,2-2.2c0-1.2,0-6.4,0-6.4
			c-1.2,0.1-2.9-1.9-2.9-3.5s0-43.3,0-45.2C89.3,164.9,90.5,163.3,94,160.9z"/>
		<path class="st1" d="M125,154.1c-6.1,3.2-18.5,10.3-21.6,12.3c-2.8,1.7-3.7,4.7-3.7,7.5c0,2.8,0,5,0,7.5"/>
		<path class="st1" d="M112.4,149.4c1.6,0.4,2.1,0.6,3,1.2c1.3,0.8,7.8,4.5,7.8,4.5"/>
		<path class="st1" d="M123.2,155.1c0,0,43.8,24.3,45.4,25.2s3,2.6,3,4.3c1.4,0.4,3.8,6.4,3.8,11.6l-1.3,0.6l0.2,3.9l1.1-0.4v14.3
			c0.6,0.3,0.5,3.9,0.5,5.7s0,7.3,0,7.3"/>
		<ellipse class="st3" cx="113.8" cy="189.3" rx="19.8" ry="11.4"/>
		<ellipse class="st1" cx="113.9" cy="189.5" rx="17.8" ry="9.8"/>
		<ellipse class="st1" cx="114" cy="191.1" rx="16.8" ry="8.2"/>
		<ellipse class="st1" cx="113.7" cy="192.3" rx="14.3" ry="7"/>
		<path class="st1" d="M94.1,189.3c0,3.3,0,5.7,0,7.4s1.4,10.6,20.9,10.6c13.1,0,18.6-8.4,18.6-10.2c0-1.2,0-6.8,0-8.4"/>
		<ellipse class="st4" cx="108.9" cy="191.1" rx="5.4" ry="2.8"/>
		<ellipse class="st1" cx="118.1" cy="196.3" rx="5.6" ry="2.5"/>
		<path class="st4" d="M94,160.9l9.3,5.5c0,0,3.4,2.2,4.7,3s2.8,2.4,2.8,3.4s0,5,0,5"/>
		<polyline class="st4" points="104.4,175.7 99.7,173.9 89.3,168.2 		"/>
		<path class="st4" d="M108.9,170c-4.5,2-4.5,4.3-4.5,9.2"/>
		<path class="st4" d="M110.9,172.8c-1.4,0.8-4.6,1.1-4.6,5.9"/>
		<path class="st4" d="M158.8,172.8c-1.3,0.4-2.4,0.7-2.4,0.7l-23.2,13.5"/>
		<path class="st4" d="M171.1,179.7l-2.5,0.7l-30.8,18.4c-1.5,1.6-5.3,5.4-10.2,5.2"/>
		<path class="st4" d="M174.1,184c-0.9,0.2-1.5,0.2-2.4,0.6c-0.9,0.4-28.8,16.7-31.6,18.3c-2.8,1.6-8.2,2.9-13,1.4"/>
		<path class="st4" d="M94.1,196.7c-0.8,1.4-1.4,3.4-1.4,6.2c0,2.8-0.5,14-0.5,14"/>
		<path class="st4" d="M127,204.3c2.3,0.7,1.9,21,1.9,32.1"/>
		<path class="st4" d="M174.1,196.9c0,0-34.1,19.7-36.2,20.9c-3.6,2-4.3,4.6-4.3,7.5c0,2.9,0,8.7,0,8.7"/>
		<path class="st4" d="M174.4,200.7c0,0-32.1,18.5-35.5,20.6c-1.1,0.7-1.6,2.4-1.6,3.5s0,7.8,0,7.8"/>
		<path class="st4" d="M175.4,214.7c0,0-23.4,13.6-24.4,14.2c-1,0.6-1.5,2-1.5,3.2"/>
		<polyline class="st4" points="175.9,220.4 153.3,233.4 151,233.9 		"/>
		<path class="st4" d="M137.9,217.7c0.8,1,1.2,2.4,0.9,3.6c0,0,10.8,6.8,12.2,7.6c1.3,0.8,2.2,1.7,2.2,4.5c0,2.2,0,7.5,0,7.5
			c0.3,1,0,22,0,26.3"/>
		<path class="st4" d="M133.6,225.2c1-0.4,2.8-0.8,3.7-0.4s11.3,6.5,12.3,7.2c0.6,0.4,1.5,1,1.5,1.8c0,1.6,0,6.6,0,7.5
			c-0.4,0.7,0,22.6,0,26.5"/>
		<polyline class="st4" points="177.1,227 153.3,240.9 151,241.4 141.2,241.4 		"/>
		<path class="st1" d="M181.2,226.5"/>
		<path class="st1" d="M133.6,191.8c2.2,1.3,3.8,4.1,4.2,6.9l2.2,4.2"/>
		<line class="st4" x1="99.7" y1="197.3" x2="99.7" y2="204.2"/>
		<path class="st4" d="M91.8,223.4c-1.1,0.9-1.1,2.5-0.9,4.5c0.5,5.6,12,15,28,12.2c2.7-0.5,5.3-2.3,9.4-1.4v8.8
			c-2.1-0.3-5,0.4-9.3,1.3c-7.3,1.5-15.2-0.1-21.1-3.4c-5.3-3-7.6-6.2-7.6-9.9c0-2.4,0-6,0-6"/>
		<line class="st4" x1="118.9" y1="240.1" x2="118.9" y2="248.8"/>
		<path class="st4" d="M124.6,238.6c2.6-1,7.9-4,9-4.7c1.1-0.6,2.7-1.9,5.5-1c2.1,0.6,2.1,2.3,2.1,3.6c0,1.3,0,5,0,5l-1.6,0.3v7.1
			c0.9,0.6,0.9,1.1,0.9,1.7s0,2.1,0,2.8s-0.2,1.9-2.8,3.6c-2.6,1.7-8.9,6.3-10.2,7c-3,1.6-7.3,1.4-10.5,1.6
			c-3.2,0.2-10.4-0.1-14-1.1c-3.6-1-6.8-2.4-10.4-4.4"/>
		<path class="st4" d="M128.3,242.1c2.2-1.4,5.8-3.8,6.8-4.4s1.8-0.2,1.8,1.2s0,8.3,0,8.3s-11.4,6.3-12.8,7.2
			c-2.8,1.7-14.5,1.7-16.8-0.1c-1.9-1.5-3.7-1.8-6.9-2.5c-8.3-1.8-13.5-8-15.1-10.5c-1.4-2.3-1.8-9.3,2.8-11"/>
		<path class="st4" d="M139.6,248.8c-1.4-0.7-2.1-0.3-3.6,0.6c-1.5,0.9-10.3,6.1-11.8,6.8c-4.5,2.1-14.3,2.3-17,0.1
			c-2.3-1.9-6.9-2.4-8.5-2.8c-6.4-1.6-12-7-13.8-9.6c-1-1.5-1.7-3.4-1.7-5.6"/>
		<polyline class="st4" points="103.2,252.6 103.2,254.4 103.2,264.4 		"/>
		<polyline class="st4" points="106.3,253.7 106.3,255.7 106.3,265 		"/>
		<line class="st4" x1="108.3" y1="254.9" x2="108.3" y2="256.9"/>
		<line class="st4" x1="124" y1="254.5" x2="124" y2="256.2"/>
		<line class="st4" x1="136" y1="247.8" x2="136" y2="249.4"/>
		<path class="st4" d="M139.6,247.3c0-0.2-2.8-1.5-2.8-1.5l-9.1,5.1v-3.4"/>
		<polyline class="st4" points="128.3,247.1 136.8,242.2 139.6,241.7 		"/>
		<path class="st4" d="M136.8,238.3c1-0.8,2.5-2.1,4.4-1.9"/>
		<path class="st4" d="M134.7,237.9c0.3-1.5,1.2-4.7,2.9-5.3"/>
		<path class="st4" d="M134.2,233.6c-0.2,1-0.1,3.3,0,4.7"/>
		<path class="st4" d="M106.8,265.1c0.5-2.5,3.1-6.6,8.8-6.6s8.5,1.4,10.4,5.9"/>
		<line class="st4" x1="124.6" y1="255.9" x2="124.6" y2="261.7"/>
		<path class="st4" d="M127.7,263.7c0,0,0.3,7.6,0.3,7.6"/>
		<line class="st4" x1="130.9" y1="269.6" x2="124.6" y2="273.4"/>
		<ellipse class="st1" cx="89.1" cy="252.2" rx="1.7" ry="2.7"/>
		<ellipse class="st1" cx="99" cy="258.1" rx="2.6" ry="3.2"/>
		<g>
			
				<ellipse transform="matrix(0.4206 -0.9073 0.9073 0.4206 -107.9418 251.5431)" class="st5" cx="143" cy="210.3" rx="8.4" ry="5.3"/>
			<path class="st6" d="M154.1,209.4c0,0-7.2-4-7.9-4.3c-1.9-0.8-3.6,0.2-5.2,2.5c-1.6,2.3-2.7,5.9-1.1,7c1.5,1.1,8.9,5.1,8.9,5.1"
				/>
			<line class="st7" x1="142.7" y1="205.7" x2="151.2" y2="210.1"/>
			<line class="st7" x1="141.3" y1="207.1" x2="149.8" y2="211.5"/>
			<line class="st7" x1="139.7" y1="209.9" x2="148.3" y2="214.2"/>
			<line class="st7" x1="139.1" y1="211.8" x2="147.7" y2="216.6"/>
			
				<ellipse transform="matrix(0.4517 -0.8922 0.8922 0.4517 -108.4393 252.8076)" class="st6" cx="151.5" cy="214.6" rx="5.9" ry="3.1"/>
		</g>
		<g>
			
				<ellipse transform="matrix(0.4206 -0.9073 0.9073 0.4206 -161.275 278.493)" class="st5" cx="137.4" cy="265.5" rx="8.4" ry="5.3"/>
			<path class="st6" d="M148.5,264.6c0,0-7.2-4-7.9-4.3c-1.9-0.8-3.6,0.2-5.2,2.5c-1.6,2.3-2.7,5.9-1.1,7s8.9,5.1,8.9,5.1"/>
			<line class="st7" x1="137.1" y1="260.9" x2="145.6" y2="265.3"/>
			<line class="st7" x1="135.7" y1="262.3" x2="144.2" y2="266.8"/>
			<line class="st7" x1="134.1" y1="265.1" x2="142.7" y2="269.4"/>
			<line class="st7" x1="133.5" y1="267" x2="142.1" y2="271.8"/>
			
				<ellipse transform="matrix(0.4517 -0.8922 0.8922 0.4517 -160.7663 278.123)" class="st6" cx="145.9" cy="269.9" rx="5.9" ry="3.1"/>
		</g>
		<g>
			<path class="st5" d="M115.5,258.6c4.6,0,5.8,2.1,5.8,5.5c1.2,2.4,4,9.2,4.9,11.6c1.2,3.5-0.1,6.6-8.2,7s-10.9-0.6-10.1-5.2
				s2.4-12.4,2.4-12.4C109.1,264.2,109.6,258.6,115.5,258.6z"/>
			<path class="st8" d="M110.1,265.1c2.1-1.2,3.9-2,5.8-2s4,0.1,5.4,1"/>
			<path class="st8" d="M109.7,263.1c1.5-1.1,3.4-2.5,5.9-2.5c2.6,0,3.5,0.2,5.3,1.2"/>
			<path class="st9" d="M107.7,277.5c0.5-2.9,3.7-5,9.3-5.2c5.6-0.2,7.6,1.8,9.1,3.5"/>
			<polyline class="st8" points="115.5,258.6 115.7,260.6 115.9,263.1 117,272.2 			"/>
		</g>
		<g>
			<path class="st5" d="M116.7,273.5c3.2-0.2,7.7,1.9,7.8,4.7c0.1,2.8,1.6,23.6,1.8,26.8s-1.3,5.1-5.2,5.5s-7.7-0.2-8.2-4.2
				s-2.8-25.4-3-27.8S113,273.7,116.7,273.5z"/>
			<ellipse class="st5" cx="119.8" cy="306.7" rx="6.6" ry="3.9"/>
			<ellipse class="st10" cx="119.8" cy="306.2" rx="6.8" ry="4.4"/>
			<path class="st10" d="M110,279c1.1-1.4,4.1-2.6,6.5-2.7c2.5-0.1,5.6,0.3,8,1.9"/>
			<path class="st10" d="M110.2,277.9c1.2-2.4,4.2-2.9,6.4-3.1c2.2-0.1,4.9,0,7.6,2.2"/>
		</g>
	</g>
</g>
<g id="Ring">
	<g class="st11">
		<path class="st12" d="M100.7,118.6l10.2-5.7c3.7-0.6,10.1-1.7,17,4.4l1.6-4.5c-5-4.9-12.5-7.6-19.9-6.1c-7.4,1.5-10.1,3.8-11,7.5
			C98,117.1,100.7,118.6,100.7,118.6z"/>
		<path class="st13" d="M96,114.5c0,5.7,8.1,10.2,18,10.2s18-4.6,18-10.2"/>
		<path class="st14" d="M131.6,112.3c-1.3,3.4-3.7,6.1-6.8,7.8c-3.1,1.7-6.5,2.1-11.4,2.2c-4.9,0.1-9.4-1.7-11.3-2.8
			c-1.9-1.1-4.6-5.5-5.4-7.8l-2.2,5.1c0,0-0.5,1.3-0.5,2.4c0.1,6.2,8.9,11.3,19.9,11.3c11,0,19.9-5,19.9-11.3c0-1.3-0.7-3-0.7-3
			L131.6,112.3z"/>
		<path class="st12" d="M132.1,114.4c-0.1-5.6-8.1-10.2-18-10.2c-9.8,0-17.8,4.5-18,10c0,0.1,0,0.2,0,0.2c0,5.7,8.1,10.2,18,10.2
			S132.1,120.2,132.1,114.4C132.1,114.5,132.1,114.5,132.1,114.4z M114,121.1c-7.7,0-13.9-3.1-13.9-6.9s6.2-6.9,13.9-6.9
			s13.9,3.1,13.9,6.9S121.7,121.1,114,121.1z"/>
		<path class="st13" d="M127.1,116.5c-5.2-4.9-11.6-4.2-15.8-3.7l-8.9,5.3"/>
		<line class="st15" x1="111.3" y1="109.5" x2="111.3" y2="107.5"/>
		<path class="st15" d="M101.6,117.3c-2-3.9,3.4-6.9,9.7-7.8c5-0.7,12.6-0.1,16.6,4.7"/>
		<line class="st15" x1="111.3" y1="112.8" x2="107.3" y2="110.4"/>
	</g>
	<g>
		<polygon class="st16" points="98.2,126.8 99.1,126.2 98.3,125.6 97.9,126.2 		"/>
		<path class="st16" d="M134.6,118.1c0-1.3-0.6-3.1-2.4-4.8c-0.8-5.5-8.8-9.6-17.7-9.6s-17.4,3.5-18.4,9.4c-5.8,6.5,0,12.8,2.1,13.7
			V126l0.2-0.4c0.4,0.4,1.9,1.5,3.2,1.9l-0.2,0.5v0.7c1.2,0.5,7.6,3.2,14.4,2.5C135.3,129.4,134.6,119.8,134.6,118.1z M114.1,124
			c-2.9,0-4.2-0.3-5.2-0.5l-10.5-6.1c0.9-2.8,4.1-4.5,4.9-4.9c1.5-0.7,4.9-2.3,9.5-2.4c0.9,0,1.4,0.1,2,0.4c0.6,0.4,5.6,3.2,5.6,3.2
			l0.9-0.5l2.3,1.3v1.1l5.4,3.1C126.6,121.2,122.7,124.1,114.1,124z"/>
		<path class="st9" d="M96.1,113.1c-0.4,3.9,0.4,6.9,4.8,9.5c4.5,2.6,8.1,3.2,14.3,3.3c6.2,0.1,13.6-3.5,15.7-6.5
			c1.6-2.3,1.6-4.2,1.3-6.1"/>
		<path class="st17" d="M98.2,126c-5.3-3.8-4.6-7.6-4.1-9.5"/>
		<path class="st17" d="M101.4,128c6.2,2.6,10.4,2.6,13,2.6c4.5,0,12.6-1.3,16.6-5.1c2.8-2.6,3.3-3.8,3.7-6.6"/>
		<path class="st18" d="M96.1,113.1c-0.2,2.3,0.8,5.8,4.6,8.1s9,3.9,17,3.2c7.4-0.7,11-4,12.1-5c0.8-0.7,3.2-3.7,2.3-6.7"/>
		<ellipse class="st19" cx="114.1" cy="114.1" rx="17.2" ry="9.9"/>
		<path class="st18" d="M97.2,115.6c0.9-2.9,3.5-4.7,5.1-5.5c1.6-0.8,5.6-3,12.9-2.7c5.5,0.2,9.5,2,11.1,2.9c1.5,0.8,3.3,2,4.8,5.4"
			/>
		<path class="st18" d="M108.9,123.6c0,0-9.5-5.6-10.1-5.8c-0.6-0.3-0.8-1-0.6-1.7c0.2-0.6,0.9-3.2,4-5c3.1-1.8,6.7-2.9,10.7-3
			c0.7,0,1.2-0.1,2,0.4c0.9,0.5,14,8,14.4,8.3c0.4,0.3,0.7,0.6,0.8,0.9"/>
		<line class="st9" x1="129.4" y1="116.8" x2="129.4" y2="118.7"/>
		<line class="st9" x1="112.9" y1="108.1" x2="112.9" y2="110.2"/>
		<line class="st9" x1="115" y1="108.5" x2="115" y2="110.6"/>
		<path class="st18" d="M120.5,113.9c0-0.1,0-1.1,0-1.1l0.9,0.5"/>
		<ellipse class="st17" cx="118.8" cy="108.8" rx="1" ry="0.6"/>
		<ellipse class="st17" cx="128.9" cy="114.6" rx="1" ry="0.6"/>
		<path class="st17" d="M99.6,119.4c0.3,0,0.5,0.1,0.7,0.2c0.2,0.1,0.2,0.3,0.2,0.5"/>
	</g>
</g>
<g id="Camera">
	<g class="st11">
		<path class="st12" d="M113.3,1.6c-7,4-23.6,13.6-25.7,14.8C84.9,18,84.9,18,84.9,21c0,2.6,0,34.7,0,37s0.3,2.5,1.8,3.4
			c1.5,0.9,23.5,13.6,26.2,15.2s4.6,1.4,6.5,0.3c1.9-1.1,23.5-13.3,25.8-14.9c2.3-1.6,2.7-1.6,2.7-4.6c0-9,0-35.2,0-37.1
			c0-2.3-0.4-2.5-2.3-3.6c-1.5-0.9-19.3-11.1-26.3-15.2C117.5,0.4,115.2,0.5,113.3,1.6z"/>
		<path class="st20" d="M84.9,20.3"/>
		<path class="st21" d="M84.9,20.3c0,0,25.1,14.6,27.2,15.9c2.7,1.7,5.7,1.8,8.8,0c2.2-1.3,27-15.9,27-15.9"/>
		<path class="st21" d="M86.5,17.1c0,0,23.1,13.5,25.2,14.7c2.7,1.7,5.7,1.8,8.8,0c2.2-1.3,25.4-15,25.4-15"/>
		<path class="st21" d="M114.6,77.3c-0.6-0.6-0.6-0.9-0.6-2.5c0-8.5,0-36.1,0-37.5c0-1.6,0.2-3.5,1.1-4.2"/>
		<path class="st21" d="M118.2,77.4c0.4-0.4,0.5-0.9,0.5-2.6c0-8.6,0-35.5,0-37.4c0-2.2-0.7-3.8-1.4-4.5"/>
		<path class="st21" d="M84.9,58c0,0,27.7,16.1,29.1,16.8c1.4,0.8,3.8,0.5,4.7,0c0.9-0.5,29.2-16.8,29.2-16.8"/>
		<polygon class="st15" points="104.6,58.7 104.6,66.9 111.7,71 111.7,62.8 		"/>
		<path class="st21" d="M109,73.5l-15.6-9.1c-0.3-0.2-0.6-0.6-0.6-1l0,0c0-0.3,0.3-0.5,0.6-0.3l15.6,9.1c0.3,0.2,0.6,0.6,0.6,1l0,0
			C109.6,73.6,109.3,73.7,109,73.5z"/>
		<g class="st22">
			<polyline class="st8" points="95.4,64.9 95.9,64.7 102.8,68.7 101.8,69.3 			"/>
			<g>
				<path class="st23" d="M101.2,69.3l-5.5-3.2c-0.3-0.2-0.5-0.6-0.5-0.9l0,0c0-0.3,0.2-0.4,0.5-0.2l5.5,3.2
					c0.3,0.2,0.5,0.6,0.5,0.9l0,0C101.8,69.4,101.5,69.5,101.2,69.3z"/>
				<g>
					<line class="st24" x1="96.2" y1="65.3" x2="96.2" y2="66.4"/>
					<line class="st24" x1="97.3" y1="65.9" x2="97.3" y2="67"/>
					<line class="st24" x1="98.4" y1="66.6" x2="98.4" y2="67.7"/>
					<line class="st24" x1="99.5" y1="67.2" x2="99.5" y2="68.3"/>
					<line class="st24" x1="100.6" y1="67.9" x2="100.6" y2="69"/>
				</g>
			</g>
			<line class="st24" x1="101.5" y1="68.5" x2="102" y2="68.2"/>
		</g>
		<ellipse class="st25" cx="90.9" cy="52.8" rx="0.7" ry="1.2"/>
		<path class="st21" d="M103.8,69.3c0-2.3,0-3.8,0-7c0-4.9,1.1-6.1,4.4-4.1c3,1.9,4.7,3.3,4.7,9.6v6.4"/>
		<g class="st22">
			<path class="st9" d="M111,64.3l-1.2-0.7l0-0.5c0-0.3-0.2-0.6-0.4-0.7c-0.2-0.1-0.4,0-0.4,0.3l0,0.5l-1-0.6l0-0.5
				c0-0.3-0.2-0.6-0.4-0.7c-0.2-0.1-0.4,0-0.4,0.3l0,0.5l-2.1-1.2v4.4l2.1,1.2l0,0.4c0,0.3,0.2,0.6,0.4,0.7c0.2,0.1,0.4,0,0.4-0.3
				l0-0.3l1,0.6l0,0.3c0,0.3,0.2,0.6,0.4,0.7c0.2,0.1,0.4,0,0.4-0.3l0-0.3l1.2,0.7V64.3z"/>
			<polygon class="st9" points="108.1,63.1 108.1,66.7 109,67.2 109,63.6 			"/>
			<line class="st9" x1="109" y1="67.2" x2="111" y2="66"/>
			<line class="st9" x1="109" y1="63.6" x2="109.9" y2="63.1"/>
			<line class="st9" x1="108.1" y1="63.1" x2="108.5" y2="62.9"/>
			<line class="st9" x1="107.3" y1="62.2" x2="108" y2="61.8"/>
			<line class="st9" x1="105.2" y1="65.4" x2="108.1" y2="63.7"/>
			<line class="st9" x1="107.3" y1="66.6" x2="108.1" y2="66.1"/>
			<line class="st9" x1="108.1" y1="67" x2="108.4" y2="66.9"/>
			<line class="st9" x1="109.1" y1="67.6" x2="111" y2="66.5"/>
			<line class="st9" x1="109.9" y1="68.1" x2="111" y2="67.4"/>
		</g>
		<g class="st22">
			<line class="st9" x1="93.8" y1="61.8" x2="93.8" y2="63.1"/>
			<line class="st9" x1="95.6" y1="62.8" x2="95.6" y2="64.1"/>
			<line class="st9" x1="97.4" y1="63.9" x2="97.4" y2="65.2"/>
			<line class="st9" x1="99.2" y1="64.9" x2="99.2" y2="66.2"/>
			<line class="st9" x1="101" y1="65.9" x2="101" y2="67.3"/>
			<line class="st9" x1="102.8" y1="67" x2="102.8" y2="68.3"/>
		</g>
		<g class="st22">
			<line class="st9" x1="94.6" y1="62.6" x2="94.6" y2="63.6"/>
			<line class="st9" x1="96.4" y1="63.7" x2="96.4" y2="64.6"/>
			<line class="st9" x1="98.2" y1="64.8" x2="98.2" y2="65.7"/>
			<line class="st9" x1="100.1" y1="65.8" x2="100.1" y2="66.8"/>
			<line class="st9" x1="101.9" y1="66.9" x2="101.9" y2="67.8"/>
		</g>
		<path class="st15" d="M103.8,67l1.4,0.8c0.2,0.6,1.1,1.7,2.3,2.4c1.2,0.7,2.8,0.7,3.3,0.7l2,1.2"/>
		<text transform="matrix(0.8536 0.4712 5.025000e-02 0.9987 106.6725 56.3042)" class="st22 st26 st27">USB</text>
		<text transform="matrix(0.714 0.4214 6.024000e-02 0.9982 93.6618 61.3317)" class="st22 st26 st28">0</text>
		<text transform="matrix(0.7152 0.4193 6.313001e-02 0.998 96.1809 62.7857)" class="st22 st26 st28">30</text>
		<text transform="matrix(0.7122 0.4243 5.613000e-02 0.9984 99.827 65.1336)" class="st22 st26 st28">70</text>
		<text transform="matrix(0.7009 0.4428 3.001000e-02 0.9996 102.1862 66.3954)" class="st22 st26 st28">100</text>
		<polygon class="st22" points="96.4,64.6 95.9,63.3 97.1,64 		"/>
	</g>
	<g>
		<path class="st16" d="M121.6,78c2.6-1.4,20.6-11.8,23-13.2c2.9-1.7,4.1-3.5,4.4-4.9c0.4-1.5,0.5-2.2,0.5-5.8c0-10.3,0-19.5-1-33.4
			c-0.2-2.3-0.3-3.2-2.6-4.6c-2.3-1.3-24.7-14.5-25.9-15s-3-0.9-4.7-0.5c-1.7,0.4-3.4,0.9-4.9,1.8s-21.3,12.4-23,13.3
			c-1.6,0.9-2.3,2-2.3,3.7s0,35.2,0,36.8S84.5,60,86.3,61s27.4,15.8,29.6,17C118.1,79.3,120,78.9,121.6,78z"/>
		<g>
			<path class="st18" d="M104.2,68.2c0.7,0.4,1,0.4,1-0.2s0-0.9,0-1.4c0-0.4,0.2-0.4,0.4-0.5c0.3-0.1,0.6-0.3,0.9-0.4
				c0.2-0.1,0.7,0,1,0.2c0.3,0.2,0.6,0.3,0.8,0.6s1.9,2.4,3,2.9s1.9,0.7,2.6,0.7s1.3,0.5,1.3,0.5"/>
			<path class="st18" d="M105.3,66.4c0.4-0.1,1.1,0,1.6,0.3c0.4,0.2,0.3,0.3,0.4,0.5c0.5,0.8,1.4,1.9,2.6,2.7c1.2,0.8,2.2,1,3.1,0.8
				c0.4-0.1,0.5-0.1,0.9,0c0.6,0.3,1.1,0.4,1.1,1c0,0.6,0,1.6,0,1.9c0,0.3,0,1.2,0.7,1.5"/>
			<line class="st9" x1="107.2" y1="67.2" x2="108.3" y2="66.5"/>
			<line class="st9" x1="106.8" y1="66.7" x2="107.8" y2="66.1"/>
			<line class="st9" x1="113" y1="70.7" x2="113.9" y2="70.1"/>
			<line class="st9" x1="113.4" y1="70.7" x2="114.2" y2="70.1"/>
		</g>
		<g>
			<path class="st5" d="M105.3,61.1c0,2.9,0,4.4,0,4.4c0.3,0.3,0.7,0.7,1.3,0.8l1.6-0.9v-5.8"/>
			<path class="st29" d="M115.2,67.1l-1.6-1.2c0,0.8,0,3.6,0,4s0.1,0.6,0.5,0.8c0.4,0.2,1.2,0.5,1.2,0.5L115.2,67.1z"/>
			<g>
				<path class="st17" d="M115.3,71.3c0,0-0.1,0-0.2-0.1c-0.2-0.1-0.7-0.3-1-0.4c-0.4-0.2-0.5-0.5-0.5-0.8c0-0.3,0-5.3,0-6.2
					c0-0.9-0.3-1.3-1-1.7c-0.7-0.4-5.1-2.9-5.4-3c-0.3-0.2-0.7-0.2-0.7,0.4c0,0.6,0,6.9,0,6.9"/>
				<polyline class="st9" points="108.2,59.5 108.2,65.7 113.6,68.9 				"/>
				<polygon class="st9" points="108.4,60.8 108.4,64.4 109.9,65.2 110.3,65.9 110.9,66.2 110.9,66 112.5,66.9 112.5,67.3 
					113.1,67.6 113.1,63.2 112.5,62.8 112.5,63.1 111,62.2 110.9,61.8 110.3,61.4 109.9,61.6 				"/>
				<polyline class="st9" points="113.1,65.6 112.3,66.1 110.9,65.2 110.8,62.2 110.9,62.1 				"/>
				<line class="st9" x1="112.3" y1="66.1" x2="112.3" y2="63"/>
				<polyline class="st9" points="110.8,62.8 111.9,63.4 111.9,65.8 				"/>
				<line class="st9" x1="111.9" y1="63.4" x2="112.3" y2="63.1"/>
				<line class="st9" x1="108.4" y1="64.4" x2="110.8" y2="63"/>
				<line class="st9" x1="109.9" y1="65.2" x2="110.8" y2="64.7"/>
				<line class="st9" x1="110.3" y1="65.9" x2="111.2" y2="65.4"/>
				<line class="st9" x1="110.9" y1="66" x2="111.5" y2="65.6"/>
				<line class="st9" x1="112.5" y1="66.9" x2="113.1" y2="66.6"/>
			</g>
		</g>
		<path class="st18" d="M85.1,56.2c0,1,0.4,1.3,1.2,1.7c0.8,0.4,17.2,9.9,17.9,10.3s0.8-0.1,0.8-0.6c0-0.5,0-5,0-6.5
			s1.4-4.4,5.1-2.4s5.2,6.7,5.2,8.5s0,6,0,6.6c0,0.6,0,1,0.6,1.3c0.6,0.4,3.9,1.1,5.8,0c1.9-1.1,21.4-12.5,22.9-13.3
			c2.2-1.1,3.9-2.9,4.5-4.7s0.4-0.9,0.6-1.8"/>
		<g>
			<path class="st17" d="M85.1,19.1c0,0.8,0.2,1.4,1.2,2c1,0.6,28.3,16.3,29.6,17.1c1.7,1,4.1,1,5.8,0c1.7-1,21.8-12.5,22.9-13.2
				c1.1-0.7,2.5-1.6,3.6-3.1c0.4-0.6,0.4-1.1,0.4-1.1"/>
			<path class="st17" d="M87,16c0.5-0.3,1.2-0.5,2.2,0.1c1,0.6,27.9,16.1,29.6,17.1c1.4,0.8,2.9,2.7,2.9,5c0,1.8,0,39.9,0,39.9"/>
			<path class="st17" d="M115.9,78c0,0,0-38.1,0-39.9s1.3-4.1,2.9-5c1.6-0.9,21.7-12.4,22.9-13.2c1.2-0.8,2.3-1.6,2.7-2.3
				c0.3-0.6,0-1-0.4-1.3c-0.9-0.5-25.1-14.5-25.6-14.8c-0.6-0.3-1.3-0.4-2.2-0.3c-1.1,0.2-3.3,1.1-4,1.5S90.5,15.3,89.2,16.1
				c-1.4,0.8-2.9,2.8-2.9,5s0,39.9,0,39.9"/>
			<path class="st17" d="M141.7,19.9c1.7,0.9,2.9,3.1,2.9,5s0,39.9,0,39.9"/>
			<path class="st17" d="M144.4,17.6c2.3,0.5,3.5,2.4,3.8,4.2c0.2,1.8,0.8,5.6,0.8,7.5s0.1,30.6,0.1,30.6"/>
			<path class="st17" d="M143.9,16.3c0.3-0.2,1.2-0.8,2-0.2"/>
			<path class="st17" d="M118.4,1.6c0.2-0.4,1.3-0.6,2-0.2"/>
			<path class="st17" d="M116.1,1.3c0-0.4-0.4-0.5-0.8-0.6"/>
			<path class="st17" d="M110.4,2.5c0.7-0.1,1.4,0,1.7,0.4"/>
			<line class="st9" x1="106.6" y1="59.6" x2="107.5" y2="59.1"/>
		</g>
		<g>
			<g>
				
					<ellipse transform="matrix(0.8892 -0.4574 0.4574 0.8892 -13.8412 54.9187)" class="st9" cx="106.5" cy="56" rx="0.8" ry="1.4"/>
				<line class="st9" x1="106.5" y1="55.3" x2="106.5" y2="56.8"/>
				<line class="st9" x1="105.9" y1="55.7" x2="107" y2="56.4"/>
			</g>
			<g>
				
					<ellipse transform="matrix(0.8892 -0.4574 0.4574 0.8892 -19.3242 56.3058)" class="st9" cx="106.6" cy="68.1" rx="0.8" ry="1.4"/>
				<line class="st9" x1="106.7" y1="67.3" x2="106.7" y2="68.8"/>
				<line class="st9" x1="106" y1="67.7" x2="107.2" y2="68.4"/>
			</g>
			<g>
				
					<ellipse transform="matrix(0.8892 -0.4574 0.4574 0.8892 -20.3736 59.9466)" class="st9" cx="113.6" cy="72" rx="0.8" ry="1.4"/>
				<line class="st9" x1="113.6" y1="71.3" x2="113.6" y2="72.8"/>
				<line class="st9" x1="113" y1="71.7" x2="114.2" y2="72.4"/>
			</g>
			<g>
				
					<ellipse transform="matrix(0.8892 -0.4574 0.4574 0.8892 -14.963 58.6765)" class="st9" cx="113.7" cy="60.2" rx="0.8" ry="1.4"/>
				<line class="st9" x1="113.7" y1="59.5" x2="113.7" y2="61"/>
				<line class="st9" x1="113.1" y1="59.9" x2="114.2" y2="60.5"/>
			</g>
		</g>
		<g>
			<path class="st18" d="M92.2,61.9c-0.7-0.4-1,0.2-1,0.5c-0.2,0.8,0.2,0.9,0.7,1.1c1.1,0.6,17.7,10.2,18.2,10.5s0.8-0.1,0.8-0.4
				c0-0.6-0.2-1.2-0.7-1.5C109.5,71.9,93.1,62.5,92.2,61.9z"/>
			<line class="st9" x1="110" y1="74" x2="110.8" y2="73.6"/>
		</g>
		<g>
			
				<ellipse transform="matrix(0.8892 -0.4574 0.4574 0.8892 -11.3897 46.632)" class="st17" cx="90.6" cy="46.8" rx="0.8" ry="1.4"/>
			<path class="st9" d="M90.7,45.7c0,0.5,0.3,1.2,0.9,1.7"/>
			<line class="st9" x1="90.8" y1="46.4" x2="91.2" y2="46.2"/>
		</g>
		
			<ellipse transform="matrix(0.3887 -0.9214 0.9214 0.3887 24.9828 169.988)" class="st17" cx="140.6" cy="66.2" rx="1.1" ry="0.5"/>
		<g>
			<polyline class="st16" points="90.8,62.5 92.3,61.8 98.9,65.6 96.8,66.8 			"/>
			<line class="st9" x1="96.4" y1="65.4" x2="97.5" y2="64.8"/>
			<line class="st9" x1="91.2" y1="62.5" x2="92.5" y2="61.9"/>
			<path class="st16" d="M91.4,62.6c-0.5-0.3-0.8-0.1-0.8,0.3c0,0.4-0.1,0.6,0.4,0.9c0.4,0.3,4.9,2.8,5.3,3.1
				c0.4,0.2,0.7-0.1,0.7-0.3c0-0.2,0.2-0.7-0.6-1.2S92.1,63.1,91.4,62.6z"/>
			<g>
				<ellipse class="st9" cx="91.2" cy="63.3" rx="0.4" ry="0.6"/>
				<ellipse class="st9" cx="92.4" cy="63.9" rx="0.4" ry="0.6"/>
				<ellipse class="st9" cx="93.6" cy="64.6" rx="0.4" ry="0.6"/>
				<ellipse class="st9" cx="94.7" cy="65.3" rx="0.4" ry="0.6"/>
				<ellipse class="st9" cx="95.9" cy="65.9" rx="0.4" ry="0.6"/>
			</g>
		</g>
		<g>
			<g>
				<line class="st9" x1="92.8" y1="60.3" x2="92.8" y2="61.8"/>
				<line class="st9" x1="95" y1="61.5" x2="95" y2="63"/>
				<line class="st9" x1="97.1" y1="62.7" x2="97.1" y2="64.1"/>
				<line class="st9" x1="99.3" y1="63.8" x2="99.3" y2="65.3"/>
				<line class="st9" x1="101.5" y1="65" x2="101.5" y2="66.5"/>
				<line class="st9" x1="103.7" y1="66.2" x2="103.7" y2="67.7"/>
			</g>
			<g>
				<line class="st9" x1="93.8" y1="61.3" x2="93.8" y2="62.3"/>
				<line class="st9" x1="96" y1="62.5" x2="96" y2="63.5"/>
				<line class="st9" x1="98.2" y1="63.7" x2="98.2" y2="64.7"/>
				<line class="st9" x1="100.4" y1="64.9" x2="100.4" y2="65.9"/>
				<line class="st9" x1="102.6" y1="66.1" x2="102.6" y2="67.1"/>
			</g>
			<g>
				<path d="M93.1,59.6c0,0.2,0,0.3,0,0.3c0,0.1-0.1,0.1-0.2,0c-0.1,0-0.1-0.1-0.2-0.2c0-0.1-0.1-0.2-0.1-0.4c0-0.2,0-0.3,0-0.3
					c0-0.1,0.1-0.1,0.2,0c0.1,0,0.1,0.1,0.2,0.2C93.1,59.3,93.1,59.5,93.1,59.6z M92.8,59.4c0,0.1,0,0.2,0,0.3c0,0.1,0,0.1,0.1,0.1
					s0.1,0,0.1,0c0,0,0-0.1,0-0.2c0-0.1,0-0.2,0-0.3c0-0.1,0-0.1-0.1-0.1s-0.1,0-0.1,0C92.8,59.2,92.8,59.3,92.8,59.4z"/>
			</g>
			<g>
				<path d="M96.2,61c0,0.1,0,0.1,0,0.1c0,0-0.1,0-0.1,0l0,0c0.1,0,0.1,0.1,0.1,0.1c0,0.1,0,0.1,0.1,0.2c0,0.1,0,0.1-0.1,0.2
					c0,0-0.1,0-0.2,0c-0.1,0-0.1-0.1-0.2-0.2l0-0.2c0,0,0.1,0.1,0.1,0.1c0,0,0.1,0.1,0.1,0.1c0,0,0.1,0,0.1,0c0,0,0,0,0-0.1
					c0,0,0-0.1,0-0.1c0,0-0.1-0.1-0.1-0.1l-0.1,0l0-0.1l0.1,0c0.1,0,0.1,0,0.1,0c0,0,0,0,0-0.1c0-0.1,0-0.1-0.1-0.2c0,0,0,0-0.1,0
					s0,0-0.1,0l-0.1-0.2c0.1,0,0.1,0,0.2,0c0.1,0,0.1,0.1,0.2,0.2C96.1,60.9,96.2,60.9,96.2,61z"/>
				<path d="M96.8,61.6c0,0.2,0,0.3,0,0.3c0,0.1-0.1,0.1-0.2,0c-0.1,0-0.1-0.1-0.2-0.2c0-0.1-0.1-0.2-0.1-0.4c0-0.2,0-0.3,0-0.3
					c0-0.1,0.1-0.1,0.2,0c0.1,0,0.1,0.1,0.2,0.2C96.7,61.3,96.8,61.4,96.8,61.6z M96.4,61.4c0,0.1,0,0.2,0,0.3c0,0.1,0,0.1,0.1,0.1
					c0,0,0.1,0,0.1,0c0,0,0-0.1,0-0.2c0-0.1,0-0.2,0-0.3c0-0.1,0-0.1-0.1-0.1s-0.1,0-0.1,0C96.4,61.2,96.4,61.3,96.4,61.4z"/>
			</g>
			<g>
				<path d="M100.2,64.2l0.2-0.6l-0.3-0.2l0-0.2l0.5,0.3l0,0.1l-0.2,0.6L100.2,64.2z"/>
				<path d="M101.1,64.2c0,0.2,0,0.3,0,0.3c0,0.1-0.1,0.1-0.2,0c-0.1,0-0.1-0.1-0.2-0.2c0-0.1-0.1-0.2-0.1-0.4c0-0.2,0-0.3,0-0.3
					c0-0.1,0.1-0.1,0.2,0c0.1,0,0.1,0.1,0.2,0.2C101.1,64,101.1,64.1,101.1,64.2z M100.8,64.1c0,0.1,0,0.2,0,0.3
					c0,0.1,0,0.1,0.1,0.1c0,0,0.1,0,0.1,0c0,0,0-0.1,0-0.2c0-0.1,0-0.2,0-0.3c0-0.1,0-0.1-0.1-0.1c0,0-0.1,0-0.1,0
					C100.8,63.9,100.8,63.9,100.8,64.1z"/>
			</g>
			<g>
				<path d="M103.3,65.8l-0.1-0.1l0-0.5l0-0.1l0-0.1c0,0,0,0,0,0l-0.1,0l-0.1-0.2l0.2-0.1l0.1,0.1L103.3,65.8z"/>
				<path d="M103.9,65.7c0,0.2,0,0.3,0,0.3c0,0.1-0.1,0.1-0.2,0c-0.1,0-0.1-0.1-0.2-0.2c0-0.1-0.1-0.2-0.1-0.4c0-0.2,0-0.3,0-0.3
					c0-0.1,0.1-0.1,0.2,0c0.1,0,0.1,0.1,0.2,0.2C103.9,65.4,103.9,65.5,103.9,65.7z M103.6,65.5c0,0.1,0,0.2,0,0.3
					c0,0.1,0,0.1,0.1,0.1c0,0,0.1,0,0.1,0c0,0,0-0.1,0-0.2c0-0.1,0-0.2,0-0.3s0-0.1-0.1-0.1c0,0-0.1,0-0.1,0
					C103.6,65.3,103.6,65.4,103.6,65.5z"/>
				<path d="M104.5,66c0,0.2,0,0.3,0,0.3c0,0.1-0.1,0.1-0.2,0c-0.1,0-0.1-0.1-0.2-0.2c0-0.1-0.1-0.2-0.1-0.4c0-0.2,0-0.3,0-0.3
					c0-0.1,0.1-0.1,0.2,0c0.1,0,0.1,0.1,0.2,0.2C104.4,65.7,104.5,65.9,104.5,66z M104.1,65.8c0,0.1,0,0.2,0,0.3
					c0,0.1,0,0.1,0.1,0.1c0,0,0.1,0,0.1,0c0,0,0-0.1,0-0.2c0-0.1,0-0.2,0-0.3s0-0.1-0.1-0.1c0,0-0.1,0-0.1,0
					C104.1,65.6,104.1,65.7,104.1,65.8z"/>
			</g>
			<polygon points="95.9,63.5 95.4,62 96.8,62.8 			"/>
		</g>
		<g>
			<path d="M109.7,56.2l0.1,1c0,0.1,0,0.2-0.1,0.3c0,0.1-0.1,0.1-0.2,0.1c-0.1,0-0.2,0-0.3-0.1c-0.2-0.1-0.3-0.2-0.4-0.4
				c-0.1-0.2-0.2-0.3-0.2-0.5l-0.1-1l0.3,0.2l0,1c0,0.1,0,0.2,0.1,0.3c0,0.1,0.1,0.2,0.2,0.2c0.1,0.1,0.2,0.1,0.2,0
				c0,0,0.1-0.1,0.1-0.2l0-1L109.7,56.2z"/>
			<path d="M110.9,58c0,0.1,0,0.2-0.1,0.3c-0.1,0-0.2,0-0.4-0.1c-0.1-0.1-0.3-0.2-0.4-0.3l0-0.3c0.1,0.1,0.2,0.2,0.2,0.2
				s0.1,0.1,0.2,0.1c0.1,0,0.1,0,0.1,0c0,0,0,0,0-0.1c0,0,0-0.1,0-0.1c0,0,0-0.1-0.1-0.1c0,0-0.1-0.1-0.2-0.2
				c-0.1-0.1-0.2-0.2-0.2-0.2c0-0.1-0.1-0.1-0.1-0.2c0-0.1,0-0.1,0-0.2c0-0.1,0-0.2,0.1-0.3c0.1,0,0.2,0,0.3,0.1
				c0.1,0,0.1,0.1,0.2,0.1c0.1,0.1,0.1,0.1,0.2,0.2l-0.1,0.2c-0.1-0.1-0.1-0.1-0.2-0.2c0,0-0.1-0.1-0.1-0.1c-0.1,0-0.1,0-0.1,0
				c0,0,0,0,0,0.1c0,0,0,0.1,0,0.1s0,0.1,0.1,0.1c0,0,0.1,0.1,0.2,0.2c0.1,0.1,0.2,0.3,0.3,0.4C110.8,57.8,110.9,57.9,110.9,58z"/>
			<path d="M111.1,56.9l0.4,0.2c0.2,0.1,0.3,0.2,0.4,0.3c0.1,0.1,0.1,0.2,0.1,0.4c0,0.1,0,0.2,0,0.2c0,0-0.1,0-0.1,0l0,0
				c0.1,0.1,0.2,0.1,0.2,0.2c0,0.1,0.1,0.2,0.1,0.3c0,0.1,0,0.2-0.1,0.3c-0.1,0-0.2,0-0.4-0.1l-0.5-0.3L111.1,56.9z M111.4,57.7
				l0.2,0.1c0.1,0,0.1,0.1,0.2,0.1c0,0,0,0,0-0.1c0-0.1,0-0.1-0.1-0.2c0,0-0.1-0.1-0.2-0.1l-0.2-0.1L111.4,57.7z M111.4,58l0,0.4
				l0.2,0.1c0.1,0,0.1,0.1,0.2,0c0,0,0.1-0.1,0-0.1c0-0.1-0.1-0.2-0.3-0.3L111.4,58z"/>
		</g>
	</g>
</g>
<g id="Camera_Cable">
	<line class="st30" x1="38" y1="73.9" x2="24.4" y2="66"/>
	<g class="st11">
		<g class="st22">
			<polygon class="st5" points="68.1,85 73.8,88.2 73.9,92 70.6,93.9 64.9,90.6 64.9,86.8 			"/>
			<polyline class="st9" points="64.9,86.8 70.6,90 73.8,88.2 			"/>
			<line class="st9" x1="70.6" y1="90" x2="70.6" y2="93.9"/>
		</g>
		<path class="st14" d="M36.9,74.1l3.7-2.1c0,0,28.2,15.7,30.5,17.1c2.9,1.7,2.3,4.9,0.8,6.1c-1,0.7-0.7,0.6-1.9,1.3
			c-0.8,0.5-2,0.7-3.4,0c-0.5-0.3-4.1-2.4-8.7-5C55,89.8,57.2,89,53.7,87c-7.9-4.5-16.8-9.9-16.8-9.9L36.9,74.1z"/>
		<path class="st31" d="M36.9,74.1c0,0,29.8,16.7,31.3,17.5c1.5,0.8,2,4.3-0.7,5.2"/>
		<line class="st15" x1="68.2" y1="91.5" x2="71.6" y2="89.4"/>
		<g class="st22">
			<path class="st8" d="M53.5,75.6l2.2-1.2c0.7-0.1,1.5,0.5,1.2,1.2l-1.8,1L53.5,75.6z"/>
			<path class="st16" d="M51.6,74.5l1.3-0.8c1.2,0,2.2,0.2,2.9,1.3c0.6,0.9,0,2.6-0.7,3c0.3,1.2-1.1,2.5-0.3,3l-1.8,1l-9.3-5.5
				l1.9-1l3.8,2.2L51,77C50.8,75.8,51.4,74.9,51.6,74.5z"/>
			<path class="st9" d="M51.6,74.5c1.3,0.1,4.2,0.8,2.3,4.2"/>
			<path class="st17" d="M55.2,78l-1.3,0.8c-1.7,0.2-2.6-0.5-2.8-1.7"/>
			<path class="st9" d="M52.2,75.2c1.3,0,2.2,1,1.4,2.7C52,78,51.4,76.5,52.2,75.2z"/>
			<path class="st9" d="M52.2,75.2c-0.3,0-0.5,0-0.9,0"/>
			<path class="st9" d="M53.6,77.9c0.4,0,0.5-0.1,0.8-0.3"/>
		</g>
	</g>
	<g>
		<polyline class="st16" points="5,57.7 36.5,75.9 34.9,78.9 4,61 		"/>
		<g>
			<path class="st16" d="M65.7,86.7c0,0,3.5-2.1,3.7-2.2c0.2-0.1,0.4-0.1,0.6,0c0.2,0.1,1.2,0.7,1.2,0.7s0.1-0.1,0.2-0.1
				c0.1-0.1,0.1-0.1,0.3,0c0.2,0.1,1.8,1.1,2.1,1.2c0.2,0.1,0.3,0.2,0.3,0.5c0,0.2,0,0.7,0,0.7l-0.2,0.1v2l0.2-0.1c0,0,0,0.4,0,0.5
				s0,0.3-0.1,0.4c-0.1,0.1-4.4,2.5-4.4,2.5l-3.9-2.8V86.7z"/>
			<path class="st18" d="M71.2,85.3c-0.1,0.1-4.1,2.3-4.1,2.3"/>
			<path class="st9" d="M73.8,86.3c-0.1,0.1-4.4,2.5-4.4,2.5"/>
			<line class="st9" x1="74" y1="86.8" x2="69.6" y2="89.3"/>
			<path class="st9" d="M70.6,86.1L70.6,86.1c-0.1,0.1-0.1,0.2,0,0.2l1,0.6c0.1,0.1,0.3,0.1,0.4,0l0,0c0.1-0.1,0.1-0.2,0-0.2l-1-0.6
				C70.9,86.1,70.7,86.1,70.6,86.1z"/>
		</g>
		<g>
			<path class="st16" d="M38.7,81.7c0,0-2.4-1.4-3.3-1.8c-0.9-0.5-0.4-2,0.1-2.9c0.6-0.9,1.5-1.5,2.2-1.2s1.1,0.5,1.1,0.5L38.7,81.7
				z"/>
			<path class="st9" d="M36,80.3c-0.3-0.6-0.3-1.9,0.4-2.8c0.6-0.8,1.2-1.3,2-1.4"/>
			<path class="st9" d="M36.5,80.5c-0.3-0.6-0.3-1.9,0.4-2.8c0.6-0.8,1.2-1.3,2-1.4"/>
			<path class="st9" d="M37.3,81c-0.3-0.6-0.3-1.9,0.4-2.8c0.3-0.4,0.7-0.8,1-1"/>
			<path class="st9" d="M37.8,81.2c-0.3-0.6-0.3-1.9,0.4-2.8c0.2-0.2,0.4-0.5,0.6-0.6"/>
		</g>
		<g>
			<path class="st16" d="M38.7,84c0-1.2,0-7.6,0-8.7c0-1.1,0.9-1.5,1.4-1.8c0.5-0.3,5.2-3.1,5.8-3.4c0.6-0.3,1.7-0.1,2.3,0.3
				c0.6,0.5,2.4,2.1,2.4,4.3c0,2.5,0,6.1,0,6.1s9,5.2,9.7,5.6c0.6,0.4,1.5,0.7,2.2,0.2s0.9-0.6,1.3-0.8c0.3-0.2,0.5,0,0.8,0.1
				c0.3,0.2,4.2,2.5,4.6,2.8c0.4,0.3,0.4,0.4,0.4,0.8c0,0.3,0,3.9,0,4.2c0,0.5,0,0.5-0.3,0.7c-0.3,0.2-5.8,3.3-6.3,3.6
				c-0.2,0.1-0.5,0.2-0.9,0C61.5,97.9,39.5,85.1,39.2,85S38.7,84.6,38.7,84z"/>
			<g>
				<path class="st9" d="M69.5,89.5c0,0-6.3,3.7-6.6,3.8c-0.3,0.2-0.6,0.2-0.9,0S44.6,83.3,44.1,83c-0.5-0.2-0.9-0.7-0.9-1.5
					s0-1,0-2.9c0-1.9-1.6-3.6-2.2-3.9c-0.5-0.2-2.3-1-2.3,1.7"/>
				<path class="st9" d="M39.5,73.8c0.8-0.4,1.7-0.1,2.3,0.5c0.6,0.5,2.2,2.2,2.2,4.2s0,2.5,0,3s0.2,0.6,0.5,0.8
					c0.3,0.1,17.9,10.3,17.9,10.3l6.6-3.8"/>
				<path class="st9" d="M62,98c0,0,0-4.3,0-4.7s0.1-0.6,0.4-0.8c0.5,0.2,0.4,0.6,0.4,0.8c0,0.2,0,4.7,0,4.7"/>
				<path class="st9" d="M43.2,81.5c0.1,0.2,0.6,0.2,0.9,0c0.3-0.2,3.7-2.1,4-2.3c0.4-0.2,0.5-0.2,0.8,0.1c0.2,0.2,0.1,0.5,0.1,0.8"
					/>
				<path class="st9" d="M48.3,79.1c0,0.2,0,0.5,0.4,0.8c0.4,0.2,3.3,1.9,3.3,1.9"/>
				<path class="st9" d="M44.1,83c0-0.2,0.1-0.6,0.4-0.8c0.3-0.2,4.2-2.4,4.2-2.4"/>
				<path class="st9" d="M43.2,78.6c0.1,0.1,0.5,0.3,0.9,0c0.4-0.3,6.4-3.7,6.4-3.7"/>
			</g>
			<ellipse transform="matrix(0.866 -0.5 0.5 0.866 -33.1312 30.8666)" class="st5" cx="41" cy="77.3" rx="1" ry="1.8"/>
		</g>
	</g>
	<path class="st17" d="M6.7,56.2c-2,0.1-3.1,1.7-2.9,3.5c0.2,2-1.3,3.2-3.6,3.4"/>
	<g>
		<path class="st32" d="M7.8,94.7l6.8-3.9c0.5-0.2,1.2-0.3,1.6,0.3s0.5,1.3-0.6,1.9l-6.5,3.8"/>
		<g>
			<path class="st33" d="M14.6,90.8c0-0.3,0.1-0.6,0.7,0c0.4,0.4,0.7,0.9,1,1.5c0.3,0.6-0.1,0.6-0.2,0.5"/>
			<path class="st33" d="M13.7,91.2c0-0.3,0.1-0.6,0.7,0c0.4,0.4,0.7,0.9,1,1.5c0.3,0.6-0.1,0.6-0.2,0.5"/>
			<path class="st33" d="M12.9,91.7c0-0.3,0.1-0.6,0.7,0c0.4,0.4,0.7,0.9,1,1.5c0.3,0.6-0.1,0.6-0.2,0.5"/>
			<path class="st33" d="M12.1,92.2c0-0.3,0.1-0.6,0.7,0c0.4,0.4,0.7,0.9,1,1.5c0.3,0.6-0.1,0.6-0.2,0.5"/>
			<path class="st33" d="M11.2,92.6c0-0.3,0.1-0.6,0.7,0c0.4,0.4,0.7,0.9,1,1.5c0.3,0.6-0.1,0.6-0.2,0.5"/>
			<path class="st33" d="M10.4,93.1c0-0.3,0.1-0.6,0.7,0c0.4,0.4,0.7,0.9,1,1.5c0.3,0.6-0.1,0.6-0.2,0.5"/>
			<path class="st33" d="M9.5,93.6c0-0.3,0.1-0.6,0.7,0c0.4,0.4,0.7,0.9,1,1.5c0.3,0.6-0.1,0.6-0.2,0.5"/>
			<path class="st33" d="M8.7,94.1c0-0.3,0.1-0.6,0.7,0c0.4,0.4,0.7,0.9,1,1.5c0.3,0.6-0.1,0.6-0.2,0.5"/>
			<path class="st33" d="M7.9,94.5c0-0.3,0.1-0.6,0.7,0c0.4,0.4,0.7,0.9,1,1.5c0.3,0.6-0.1,0.6-0.2,0.5"/>
		</g>
		<g>
			<path class="st32" d="M5.3,95l1.4-0.8c0.7,0,1.5,0.3,2.1,1.2s1,2,0.6,2.9L8,99"/>
			<line class="st34" x1="6.1" y1="94.9" x2="7.3" y2="94.2"/>
			<line class="st34" x1="8.3" y1="98.3" x2="9.5" y2="97.6"/>
			<line class="st34" x1="6.5" y1="95.1" x2="7.7" y2="94.4"/>
			<line class="st34" x1="6.9" y1="95.3" x2="8.1" y2="94.6"/>
			<line class="st34" x1="7.2" y1="95.6" x2="8.4" y2="94.9"/>
			<line class="st34" x1="7.5" y1="95.9" x2="8.7" y2="95.2"/>
			<line class="st34" x1="7.7" y1="96.2" x2="8.9" y2="95.6"/>
			<line class="st34" x1="7.9" y1="96.6" x2="9.1" y2="95.9"/>
			<line class="st34" x1="8.1" y1="97" x2="9.3" y2="96.3"/>
			<line class="st34" x1="8.2" y1="97.4" x2="9.4" y2="96.7"/>
			<line class="st34" x1="8.3" y1="97.7" x2="9.5" y2="97.1"/>
		</g>
		<ellipse transform="matrix(0.835 -0.5503 0.5503 0.835 -52.3083 19.6283)" class="st32" cx="6.6" cy="97" rx="1.4" ry="2.4"/>
	</g>
</g>
<g id="Screws">
	<g>
		<ellipse class="st5" cx="154" cy="121.3" rx="1.7" ry="0.9"/>
		<polyline class="st5" points="152.4,121.3 153.1,119.7 155.2,119.7 155.7,121.3 		"/>
		<polyline class="st5" points="153.1,119.7 153.1,115.1 155.2,115.1 155.2,119.7 		"/>
		<g>
			<path class="st9" d="M152.9,119.3c-0.4,0.4,3.2,0.2,2.2-0.6"/>
			<path class="st9" d="M152.9,118.8c-0.4,0.4,3.2,0.2,2.2-0.6"/>
			<path class="st9" d="M153,118.3c-0.4,0.4,3.2,0.2,2.2-0.6"/>
			<path class="st9" d="M153,117.9c-0.4,0.4,3.2,0.2,2.2-0.5"/>
			<path class="st9" d="M153,117.4c-0.4,0.4,3.2,0.2,2.2-0.5"/>
			<path class="st9" d="M153,116.9c-0.4,0.4,3.2,0.2,2.2-0.5"/>
			<path class="st9" d="M153,116.5c-0.4,0.4,3.2,0.2,2.2-0.5"/>
			<path class="st9" d="M153,116c-0.4,0.4,3.2,0.2,2.2-0.5"/>
			<path class="st9" d="M153,115.5c-0.4,0.4,3.2,0.2,2.2-0.5"/>
		</g>
	</g>
	<g>
		<ellipse class="st5" cx="163.8" cy="126.3" rx="1.7" ry="0.9"/>
		<polyline class="st5" points="162.1,126.3 162.9,124.8 165,124.8 165.5,126.3 		"/>
		<polyline class="st5" points="162.9,124.8 162.9,120.2 164.9,120.2 164.9,124.8 		"/>
		<g>
			<path class="st9" d="M162.7,124.4c-0.4,0.4,3.2,0.2,2.2-0.6"/>
			<path class="st9" d="M162.7,123.9c-0.4,0.4,3.2,0.2,2.2-0.6"/>
			<path class="st9" d="M162.7,123.4c-0.4,0.4,3.2,0.2,2.2-0.6"/>
			<path class="st9" d="M162.7,123c-0.4,0.4,3.2,0.2,2.2-0.5"/>
			<path class="st9" d="M162.7,122.5c-0.4,0.4,3.2,0.2,2.2-0.5"/>
			<path class="st9" d="M162.7,122c-0.4,0.4,3.2,0.2,2.2-0.5"/>
			<path class="st9" d="M162.7,121.6c-0.4,0.4,3.2,0.2,2.2-0.5"/>
			<path class="st9" d="M162.7,121.1c-0.4,0.4,3.2,0.2,2.2-0.5"/>
			<path class="st9" d="M162.7,120.6c-0.4,0.4,3.2,0.2,2.2-0.5"/>
		</g>
	</g>
	<g>
		<ellipse class="st5" cx="65.7" cy="172.3" rx="1.7" ry="0.9"/>
		<polyline class="st5" points="64,172.3 64.7,170.8 66.8,170.8 67.3,172.3 		"/>
		<polyline class="st5" points="64.7,170.8 64.7,166.2 66.8,166.2 66.8,170.8 		"/>
		<g>
			<path class="st9" d="M64.6,170.4c-0.4,0.4,3.2,0.2,2.2-0.6"/>
			<path class="st9" d="M64.6,169.9c-0.4,0.4,3.2,0.2,2.2-0.6"/>
			<path class="st9" d="M64.6,169.4c-0.4,0.4,3.2,0.2,2.2-0.6"/>
			<path class="st9" d="M64.6,169c-0.4,0.4,3.2,0.2,2.2-0.5"/>
			<path class="st9" d="M64.6,168.5c-0.4,0.4,3.2,0.2,2.2-0.5"/>
			<path class="st9" d="M64.6,168c-0.4,0.4,3.2,0.2,2.2-0.5"/>
			<path class="st9" d="M64.6,167.6c-0.4,0.4,3.2,0.2,2.2-0.5"/>
			<path class="st9" d="M64.6,167.1c-0.4,0.4,3.2,0.2,2.2-0.5"/>
			<path class="st9" d="M64.6,166.6c-0.4,0.4,3.2,0.2,2.2-0.5"/>
		</g>
	</g>
	<g>
		<ellipse class="st5" cx="72.5" cy="176.2" rx="1.7" ry="0.9"/>
		<polyline class="st5" points="70.8,176.2 71.5,174.7 73.6,174.7 74.1,176.2 		"/>
		<polyline class="st5" points="71.5,174.7 71.5,170.1 73.6,170.1 73.6,174.7 		"/>
		<g>
			<path class="st9" d="M71.4,174.3c-0.4,0.4,3.2,0.2,2.2-0.6"/>
			<path class="st9" d="M71.4,173.8c-0.4,0.4,3.2,0.2,2.2-0.6"/>
			<path class="st9" d="M71.4,173.3c-0.4,0.4,3.2,0.2,2.2-0.6"/>
			<path class="st9" d="M71.4,172.9c-0.4,0.4,3.2,0.2,2.2-0.5"/>
			<path class="st9" d="M71.4,172.4c-0.4,0.4,3.2,0.2,2.2-0.5"/>
			<path class="st9" d="M71.4,171.9c-0.4,0.4,3.2,0.2,2.2-0.5"/>
			<path class="st9" d="M71.4,171.5c-0.4,0.4,3.2,0.2,2.2-0.5"/>
			<path class="st9" d="M71.4,171c-0.4,0.4,3.2,0.2,2.2-0.5"/>
			<path class="st9" d="M71.4,170.5c-0.4,0.4,3.2,0.2,2.2-0.5"/>
		</g>
	</g>
</g>
<g id="Leader_Lines">
	<g>
		<line class="st35" x1="112.9" y1="134.4" x2="112.9" y2="189.5"/>
	</g>
	<g>
		<line class="st35" x1="110.9" y1="119.4" x2="111" y2="78.8"/>
	</g>
	<g>
		<line class="st35" x1="100.9" y1="74.9" x2="100.9" y2="114.8"/>
	</g>
	<g>
		<line class="st35" x1="128.9" y1="111.2" x2="128.9" y2="78"/>
	</g>
	<g>
		<line class="st35" x1="118.8" y1="106.2" x2="118.8" y2="81.8"/>
	</g>
	<g>
		<g>
			<line class="st36" x1="53.3" y1="69.8" x2="54.6" y2="69.1"/>
			<line class="st37" x1="57.1" y1="67.7" x2="85.4" y2="51.3"/>
			<line class="st36" x1="86.7" y1="50.6" x2="88" y2="49.9"/>
		</g>
	</g>
	<g>
		<g>
			<line class="st36" x1="76.5" y1="84.1" x2="77.8" y2="83.3"/>
			<line class="st38" x1="80.4" y1="81.8" x2="104.9" y2="67.4"/>
			<line class="st36" x1="106.2" y1="66.7" x2="107.5" y2="65.9"/>
		</g>
	</g>
	<g>
		<g>
			<line class="st36" x1="20.3" y1="89.3" x2="21.6" y2="88.6"/>
			<line class="st39" x1="24.5" y1="86.9" x2="34.8" y2="80.9"/>
			<line class="st36" x1="36.3" y1="80.1" x2="37.6" y2="79.4"/>
		</g>
	</g>
	<g>
		<g>
			<polyline class="st36" points="100.5,129.4 100.5,132.1 99.2,132.8 			"/>
			<line class="st40" x1="96.7" y1="134.2" x2="68.2" y2="150.5"/>
			<polyline class="st36" points="67,151.2 65.7,151.9 65.7,153.4 			"/>
			<line class="st41" x1="65.7" y1="156" x2="65.7" y2="160"/>
			<line class="st36" x1="65.7" y1="161.3" x2="65.7" y2="162.8"/>
		</g>
	</g>
	<g>
		<g>
			<line class="st36" x1="110.6" y1="132.7" x2="110.6" y2="134.2"/>
			<polyline class="st36" points="110.6,134.4 110.6,135.9 109.3,136.6 			"/>
			<line class="st42" x1="106.6" y1="138.2" x2="75.1" y2="156.1"/>
			<polyline class="st36" points="73.8,156.9 72.5,157.7 72.5,159.2 			"/>
			<line class="st43" x1="72.5" y1="161.7" x2="72.5" y2="165.4"/>
			<line class="st36" x1="72.5" y1="166.7" x2="72.5" y2="168.2"/>
		</g>
	</g>
	<g>
		<g>
			<line class="st36" x1="134" y1="124.5" x2="135.3" y2="123.8"/>
			<line class="st44" x1="137.8" y1="122.4" x2="161.2" y2="109"/>
			<polyline class="st36" points="162.5,108.3 163.8,107.6 163.8,109.1 			"/>
			<line class="st45" x1="163.8" y1="111.6" x2="163.8" y2="115.4"/>
			<line class="st36" x1="163.8" y1="116.7" x2="163.8" y2="118.2"/>
		</g>
	</g>
	<g>
		<g>
			<line class="st36" x1="135.1" y1="112.4" x2="136.4" y2="111.6"/>
			<line class="st46" x1="138.7" y1="110.3" x2="151.6" y2="103"/>
			<polyline class="st36" points="152.7,102.3 154,101.6 154,103.1 			"/>
			<line class="st47" x1="154" y1="105.6" x2="154" y2="109.3"/>
			<line class="st36" x1="154" y1="110.6" x2="154" y2="112.1"/>
		</g>
	</g>
	<g>
		<g>
			<line class="st48" x1="118.8" y1="114.6" x2="118.8" y2="116.1"/>
			<polyline class="st48" points="118.8,120.1 118.8,121.6 120.1,120.9 			"/>
			<line class="st48" x1="123.7" y1="118.8" x2="125" y2="118.1"/>
		</g>
	</g>
	<line class="st49" x1="129" y1="119.8" x2="129" y2="126.8"/>
	<line class="st50" x1="79" y1="144.3" x2="169.2" y2="92.9"/>
	<line class="st50" x1="80.9" y1="150.5" x2="171" y2="99.1"/>
</g>
</svg>
