<?xml version="1.0" encoding="utf-8"?>
<!-- Generator: Adobe Illustrator 25.2.0, SVG Export Plug-In . SVG Version: 6.00 Build 0)  -->
<svg version="1.1" xmlns="http://www.w3.org/2000/svg" xmlns:xlink="http://www.w3.org/1999/xlink" x="0px" y="0px" width="204.3px"
	 height="207.6px" viewBox="0 0 204.3 207.6" style="enable-background:new 0 0 204.3 207.6;" xml:space="preserve">
<style type="text/css">
	.st0{display:none;}
	.st1{display:inline;fill:#FFFFFF;stroke:#000000;stroke-miterlimit:10;}
	.st2{display:inline;fill:none;stroke:#000000;stroke-miterlimit:10;}
	.st3{display:inline;fill:none;stroke:#000000;stroke-width:0.25;stroke-miterlimit:10;}
	
		.st4{display:inline;fill:none;stroke:#000000;stroke-width:0.25;stroke-linecap:round;stroke-linejoin:round;stroke-miterlimit:10;}
	.st5{display:inline;}
	.st6{fill:#FFFFFF;stroke:#000000;stroke-width:0.25;stroke-linecap:round;stroke-linejoin:round;stroke-miterlimit:10;}
	.st7{fill:#FFFFFF;stroke:#000000;stroke-width:0.25;stroke-miterlimit:10;}
	.st8{fill:none;stroke:#000000;stroke-width:0.25;stroke-miterlimit:10;}
	.st9{display:inline;fill:none;stroke:#000000;stroke-width:0.5;stroke-miterlimit:10;}
	.st10{fill:none;stroke:#000000;stroke-width:0.25;stroke-linecap:round;stroke-linejoin:round;stroke-miterlimit:10;}
	.st11{font-family:'OpenSans-Bold';}
	.st12{font-size:6px;}
	.st13{font-size:3px;}
	.st14{fill:#FFFFFF;stroke:#000000;stroke-linecap:round;stroke-linejoin:round;stroke-miterlimit:10;}
	.st15{fill:none;stroke:#000000;stroke-linecap:round;stroke-linejoin:round;stroke-miterlimit:10;}
	.st16{fill:#FFFFFF;stroke:#000000;stroke-width:0.5;stroke-linecap:round;stroke-linejoin:round;stroke-miterlimit:10;}
	.st17{fill:#FFFFFF;}
	.st18{fill:none;stroke:#000000;stroke-width:0.5;stroke-linecap:round;stroke-linejoin:round;stroke-miterlimit:10;}
	.st19{fill:none;stroke:#000000;stroke-width:1.5;stroke-linecap:round;stroke-linejoin:round;stroke-miterlimit:10;}
	.st20{fill:none;stroke:#00AEEF;stroke-linecap:round;stroke-linejoin:round;stroke-miterlimit:10;}
</style>
<g id="Layer_1">
	<g class="st0">
		<path class="st1" d="M109.8,4.5C91.2,15.2,47,40.7,41.4,44c-7.2,4.1-7.2,4.1-7.2,12.2c0,6.8,0,92.2,0,98.5s0.7,6.7,4.7,9
			c3.9,2.3,62.6,36.2,69.8,40.3c7.3,4.2,12.2,3.7,17.3,0.7c5.1-2.9,62.5-35.5,68.6-39.6c6.1-4.2,7.2-4.2,7.2-12.2
			c0-24,0-93.7,0-98.7c0-6.1-1.2-6.8-6.1-9.6c-4-2.3-51.4-29.7-70.1-40.5C121,1.4,114.9,1.6,109.8,4.5z"/>
		<path class="st2" d="M34.3,54.2"/>
		<path class="st3" d="M34.3,54.2c0,0,66.8,38.9,72.3,42.3c7.2,4.5,15.2,4.7,23.5,0c5.9-3.4,71.8-42.3,71.8-42.3"/>
		<path class="st3" d="M38.4,45.8c0,0,61.6,35.8,67.1,39.2c7.2,4.5,15.2,4.7,23.5,0c5.9-3.4,67.7-39.9,67.7-39.9"/>
		<path class="st3" d="M113.3,206.1c-1.5-1.5-1.5-2.4-1.5-6.6c0-22.6,0-96.1,0-99.7c0-4.3,0.5-9.3,3-11.3"/>
		<path class="st3" d="M122.8,206.3c1-1.2,1.4-2.5,1.4-6.8c0-22.8,0-94.5,0-99.4c0-5.9-1.8-10.1-3.7-11.9"/>
		<path class="st3" d="M34.3,154.7c0,0,73.8,42.8,77.5,44.8c3.8,2,10,1.2,12.4,0c2.4-1.2,77.6-44.8,77.6-44.8"/>
		<polygon class="st4" points="86.5,156.7 86.5,178.5 105.6,189.3 105.4,167.6 		"/>
		<path class="st3" d="M98.2,196.1l-41.6-24.2c-0.9-0.5-1.7-1.7-1.7-2.6l0,0c0-0.9,0.8-1.2,1.7-0.7l41.6,24.2
			c0.9,0.5,1.7,1.7,1.7,2.6v0C99.9,196.3,99.1,196.6,98.2,196.1z"/>
		<g class="st5">
			<polyline class="st6" points="62.2,173.2 63.4,172.5 81.8,183.3 79.1,184.7 			"/>
			<g>
				<path class="st7" d="M77.7,184.8l-14.6-8.5c-0.8-0.5-1.4-1.5-1.4-2.3v0c0-0.8,0.6-1.1,1.4-0.6l14.6,8.5c0.8,0.5,1.4,1.5,1.4,2.3
					l0,0C79.1,185,78.4,185.3,77.7,184.8z"/>
				<g>
					<line class="st8" x1="64.2" y1="174.1" x2="64.2" y2="177"/>
					<line class="st8" x1="67.1" y1="175.8" x2="67.1" y2="178.7"/>
					<line class="st8" x1="70" y1="177.5" x2="70.1" y2="180.4"/>
					<line class="st8" x1="73" y1="179.2" x2="73" y2="182.1"/>
					<line class="st8" x1="75.9" y1="180.9" x2="75.9" y2="183.8"/>
				</g>
			</g>
			<line class="st8" x1="78.3" y1="182.5" x2="79.6" y2="182"/>
		</g>
		<ellipse class="st9" cx="50" cy="140.9" rx="1.8" ry="3.2"/>
		<path class="st3" d="M84.4,184.7c0-6.2,0-10.2,0-18.6c0-13.2,3-16.3,11.6-10.9c7.9,5,12.5,8.8,12.5,25.4v17"/>
		<g class="st5">
			<path class="st10" d="M103.7,171.4l-3.1-1.7l0-1.4c0-0.7-0.5-1.5-1-1.7c-0.6-0.3-1,0.1-1,0.8l0,1.2l-2.7-1.5l0-1.5
				c0-0.7-0.5-1.5-1-1.7c-0.6-0.3-1,0.1-1,0.8l0,1.3l-5.5-3.2v11.7l5.5,3.3l0,0.9c0,0.7,0.5,1.5,1,1.7c0.6,0.3,1-0.1,1-0.8l0-0.7
				l2.7,1.6l0,0.9c0,0.7,0.5,1.5,1,1.7c0.6,0.3,1-0.1,1-0.8l0-0.7l3.1,1.8V171.4z"/>
			<polygon class="st10" points="96,168.2 96,177.8 98.4,179.2 98.4,169.6 			"/>
			<line class="st10" x1="98.4" y1="179.2" x2="103.7" y2="176"/>
			<line class="st10" x1="98.4" y1="169.6" x2="100.6" y2="168.3"/>
			<line class="st10" x1="96" y1="168.2" x2="97" y2="167.7"/>
			<line class="st10" x1="93.7" y1="165.8" x2="95.6" y2="164.7"/>
			<line class="st10" x1="88.2" y1="174.3" x2="96" y2="169.8"/>
			<line class="st10" x1="93.7" y1="177.6" x2="96" y2="176.3"/>
			<line class="st10" x1="95.8" y1="178.8" x2="96.8" y2="178.3"/>
			<line class="st10" x1="98.5" y1="180.4" x2="103.7" y2="177.4"/>
			<line class="st10" x1="100.6" y1="181.5" x2="103.7" y2="179.8"/>
		</g>
		<g class="st5">
			<line class="st10" x1="57.8" y1="164.8" x2="57.8" y2="168.3"/>
			<line class="st10" x1="62.6" y1="167.5" x2="62.6" y2="171"/>
			<line class="st10" x1="67.4" y1="170.3" x2="67.4" y2="173.8"/>
			<line class="st10" x1="72.2" y1="173.1" x2="72.2" y2="176.6"/>
			<line class="st10" x1="77" y1="175.8" x2="77" y2="179.3"/>
			<line class="st10" x1="81.8" y1="178.6" x2="81.8" y2="182.1"/>
		</g>
		<g class="st5">
			<line class="st10" x1="59.9" y1="167" x2="59.9" y2="169.5"/>
			<line class="st10" x1="64.8" y1="169.9" x2="64.8" y2="172.4"/>
			<line class="st10" x1="69.7" y1="172.7" x2="69.7" y2="175.2"/>
			<line class="st10" x1="74.5" y1="175.5" x2="74.5" y2="178"/>
			<line class="st10" x1="79.4" y1="178.3" x2="79.4" y2="180.8"/>
		</g>
		<path class="st4" d="M84.4,178.6l3.8,2.1c0.6,1.6,2.8,4.6,6,6.5c3.2,1.9,7.5,2,8.8,1.9l5.4,3.2"/>
		<text transform="matrix(0.8536 0.4712 5.025000e-02 0.9987 92.1054 150.1912)" class="st5 st11 st12">USB</text>
		<text transform="matrix(0.714 0.4214 6.024000e-02 0.9982 57.4311 163.5385)" class="st5 st11 st13">0</text>
		<text transform="matrix(0.7152 0.4193 6.313001e-02 0.998 64.2172 167.47)" class="st5 st11 st13">30</text>
		<text transform="matrix(0.7122 0.4243 5.613000e-02 0.9984 73.8884 173.6301)" class="st5 st11 st13">70</text>
		<text transform="matrix(0.7009 0.4428 3.001000e-02 0.9996 80.1356 177.0198)" class="st5 st11 st13">100</text>
		<polygon class="st5" points="64.7,172.3 63.5,168.8 66.7,170.7 		"/>
	</g>
	<g>
		<path class="st14" d="M130.1,205c6.9-3.8,54.4-31.2,60.6-34.8c7.5-4.4,10.7-9.2,11.7-13c1-3.8,1.4-5.9,1.4-15.3
			c0-27.1,0-51.5-2.7-88.1c-0.4-6-0.7-8.5-6.9-12S129.1,3.5,125.8,2.3c-3.3-1.2-7.8-2.4-12.3-1.3c-4.5,1.1-8.9,2.3-13,4.7
			s-56.3,32.6-60.6,35s-6.2,5.3-6.2,9.8s0,92.7,0,97s-1.5,10,3.2,12.7s72.2,41.7,78,44.9S125.7,207.4,130.1,205z"/>
		<g>
			<path class="st15" d="M84.1,179.2c1.9,1.1,2.7,1.1,2.7-0.6c0-1.7,0-2.3,0-3.7c0-1,0.6-1,1.2-1.3c0.7-0.3,1.7-0.8,2.3-1.1
				s1.8,0,2.5,0.5c0.8,0.5,1.7,0.7,2.1,1.7c0.4,0.9,4.9,6.3,7.8,7.6c2.9,1.3,5,1.9,6.9,1.7c2-0.2,3.4,1.4,3.4,1.4"/>
			<path class="st15" d="M86.9,174.4c1.1-0.2,2.9,0.1,4.1,0.7c1,0.6,0.8,0.9,1,1.2c1.3,2.2,3.7,5.1,7,7.2c3.2,2.1,5.8,2.7,8.3,2.1
				c1-0.2,1.4-0.4,2.3,0c1.7,0.8,2.9,1.1,2.9,2.6c0,1.6,0,4.2,0,5.1c0,0.8,0.1,3.1,1.8,3.9"/>
			<line class="st10" x1="92" y1="176.3" x2="94.9" y2="174.6"/>
			<line class="st10" x1="91" y1="175.1" x2="93.7" y2="173.5"/>
			<line class="st10" x1="107.3" y1="185.7" x2="109.7" y2="184"/>
			<line class="st10" x1="108.5" y1="185.5" x2="110.5" y2="184"/>
		</g>
		<g>
			<path class="st16" d="M86.9,160.3c0,7.6,0,11.5,0,11.5c0.7,0.8,1.8,1.7,3.5,2.2l4.2-2.4v-15.2"/>
			<path class="st17" d="M113.1,176.1L109,173c0,2,0,9.6,0,10.6c0,1,0.3,1.7,1.2,2.1c1,0.5,3,1.4,3,1.4L113.1,176.1z"/>
			<g>
				<path class="st18" d="M113.3,187.2c0,0-0.2-0.1-0.4-0.2c-0.6-0.3-1.8-0.8-2.6-1.2c-1.1-0.5-1.2-1.3-1.2-2.1s0-13.9,0-16.3
					s-0.8-3.4-2.6-4.6c-1.9-1.1-13.4-7.6-14.2-8s-1.7-0.5-1.7,1.1c0,1.5,0,18.2,0,18.2"/>
				<polyline class="st10" points="94.6,156.1 94.6,172.5 109,180.8 				"/>
				<polygon class="st10" points="95.3,159.6 95.3,168.9 99,171.1 100.2,173.1 101.7,173.9 101.7,173.1 106,175.7 106,176.6 
					107.6,177.6 107.6,165.8 106.1,164.8 106.1,165.7 101.9,163.3 101.8,162.1 100.1,161.1 99.1,161.7 				"/>
				<polyline class="st10" points="107.6,172.3 105.6,173.4 101.7,171.1 101.6,163.2 101.9,163 				"/>
				<line class="st10" x1="105.6" y1="173.4" x2="105.6" y2="165.4"/>
				<polyline class="st10" points="101.6,164.8 104.4,166.4 104.4,172.7 				"/>
				<line class="st10" x1="104.4" y1="166.4" x2="105.6" y2="165.6"/>
				<line class="st10" x1="95.3" y1="168.9" x2="101.6" y2="165.4"/>
				<line class="st10" x1="99" y1="171.1" x2="101.6" y2="169.7"/>
				<line class="st10" x1="100.2" y1="173.1" x2="102.5" y2="171.7"/>
				<line class="st10" x1="101.7" y1="173.1" x2="103.3" y2="172.2"/>
				<line class="st10" x1="106" y1="175.7" x2="107.6" y2="174.9"/>
			</g>
		</g>
		<path class="st15" d="M33.7,147.4c-0.1,2.5,1.1,3.3,3.1,4.5c2.1,1.2,45.4,26.2,47.3,27.3c1.9,1.1,2-0.2,2-1.5s0-13.2,0-17
			s3.7-11.5,13.4-6.2s13.6,17.6,13.6,22.5c0,4.8,0,15.8,0,17.3c0,1.5,0,2.6,1.7,3.6c1.7,1,10.2,3,15.2,0c5.1-3,56.5-32.9,60.4-35
			c5.7-3,10.2-7.7,11.7-12.5c1.6-4.8,1.1-2.4,1.6-4.8"/>
		<g>
			<path class="st18" d="M33.8,49.5c0,2.2,0.5,3.7,3.1,5.2c2.7,1.5,74.6,43,78,45c4.5,2.6,10.8,2.5,15.2,0
				c4.4-2.5,57.6-33.1,60.5-34.9c2.9-1.8,6.5-4.1,9.4-8.2c1.1-1.6,1.1-3,1.1-3"/>
			<path class="st18" d="M38.7,41.3c1.2-0.7,3.1-1.2,5.7,0.3s73.6,42.4,78,45c3.6,2.1,7.6,7.2,7.6,13.1c0,4.8,0,105.2,0,105.2"/>
			<path class="st18" d="M114.9,205c0,0,0-100.4,0-105.2c0-4.8,3.5-10.8,7.6-13.1c4.1-2.4,57.2-32.7,60.5-34.9
				c3.2-2.2,6-4.2,7.1-6.1c0.9-1.7,0.1-2.6-1.2-3.4c-2.4-1.4-66.2-38.2-67.4-38.9c-1.6-0.9-3.3-1.1-5.9-0.7c-3,0.4-8.7,3-10.6,4.1
				C103,7.8,48.1,39.4,44.4,41.6c-3.7,2.2-7.6,7.4-7.6,13.1s0,105.3,0,105.3"/>
			<path class="st18" d="M182.9,51.8c4.5,2.3,7.6,8.1,7.6,13.1c0,5,0,105.2,0,105.2"/>
			<path class="st18" d="M190,45.6c6.2,1.3,9.3,6.4,9.9,11.1s2.2,14.7,2.2,19.8c0,5.1,0.3,80.6,0.3,80.6"/>
			<path class="st18" d="M188.8,42.2c0.9-0.6,3.1-2,5.4-0.5"/>
			<path class="st18" d="M121.4,3.3c0.6-1.1,3.3-1.5,5.4-0.5"/>
			<path class="st18" d="M115.6,2.6c0-1-1.1-1.4-2-1.7"/>
			<path class="st18" d="M100.5,5.7c1.9-0.4,3.7,0.1,4.4,1.1"/>
			<line class="st10" x1="90.4" y1="156.4" x2="92.8" y2="155.1"/>
		</g>
		<g>
			<g>
				
					<ellipse transform="matrix(0.8892 -0.4574 0.4574 0.8892 -57.2458 57.5115)" class="st18" cx="90.1" cy="147" rx="2.2" ry="3.8"/>
				<line class="st19" x1="90.2" y1="145.1" x2="90.2" y2="149"/>
				<line class="st19" x1="88.6" y1="146" x2="91.6" y2="147.8"/>
			</g>
			<g>
				
					<ellipse transform="matrix(0.8892 -0.4574 0.4574 0.8892 -71.705 61.1693)" class="st18" cx="90.5" cy="178.7" rx="2.2" ry="3.8"/>
				<line class="st19" x1="90.6" y1="176.7" x2="90.6" y2="180.7"/>
				<line class="st19" x1="88.9" y1="177.7" x2="91.9" y2="179.5"/>
			</g>
			<g>
				
					<ellipse transform="matrix(0.8892 -0.4574 0.4574 0.8892 -74.4725 70.7704)" class="st18" cx="108.9" cy="189.2" rx="2.2" ry="3.8"/>
				<line class="st19" x1="109" y1="187.3" x2="109" y2="191.2"/>
				<line class="st19" x1="107.4" y1="188.2" x2="110.4" y2="190"/>
			</g>
			<g>
				
					<ellipse transform="matrix(0.8892 -0.4574 0.4574 0.8892 -60.2041 67.4211)" class="st18" cx="109.1" cy="158" rx="2.2" ry="3.8"/>
				<line class="st19" x1="109.2" y1="156.1" x2="109.2" y2="160"/>
				<line class="st19" x1="107.6" y1="157" x2="110.6" y2="158.9"/>
			</g>
		</g>
		<g>
			<path class="st15" d="M52.4,162.5c-2-1.1-2.5,0.5-2.7,1.4c-0.5,2.1,0.6,2.3,1.8,3c3,1.7,46.5,26.9,48.1,27.8s2-0.2,2-1.1
				c0-1.6-0.4-3.1-1.9-3.9C98.2,188.9,54.9,164,52.4,162.5z"/>
			<line class="st10" x1="99.3" y1="194.4" x2="101.5" y2="193.2"/>
		</g>
		<g>
			
				<ellipse transform="matrix(0.8892 -0.4574 0.4574 0.8892 -50.7811 35.6585)" class="st18" cx="48.2" cy="122.7" rx="2.2" ry="3.8"/>
			<path class="st10" d="M48.6,119.7c-0.1,1.4,0.7,3.2,2.3,4.4"/>
			<line class="st10" x1="48.8" y1="121.5" x2="49.8" y2="121.1"/>
		</g>
		
			<ellipse transform="matrix(0.3887 -0.9214 0.9214 0.3887 -49.9235 272.0921)" class="st18" cx="180.1" cy="173.7" rx="3" ry="1.4"/>
		<g>
			<polyline class="st14" points="48.8,164 52.7,162 70.1,172.1 64.7,175.4 			"/>
			<line class="st10" x1="63.4" y1="171.7" x2="66.4" y2="170"/>
			<line class="st10" x1="49.9" y1="164.1" x2="53.2" y2="162.4"/>
			<path class="st14" d="M50.3,164.3c-1.2-0.8-2.2-0.2-2.2,0.8c0,1.1-0.2,1.6,1.1,2.3c1.1,0.7,12.9,7.4,14,8.1
				c1.1,0.6,1.8-0.1,1.8-0.7c0-0.5,0.4-2-1.6-3.1C61.4,170.6,52.3,165.5,50.3,164.3z"/>
			<g>
				<ellipse class="st10" cx="49.9" cy="166" rx="0.9" ry="1.6"/>
				<ellipse class="st10" cx="53" cy="167.7" rx="0.9" ry="1.6"/>
				<ellipse class="st10" cx="56" cy="169.5" rx="0.9" ry="1.6"/>
				<ellipse class="st10" cx="59.1" cy="171.3" rx="0.9" ry="1.6"/>
				<ellipse class="st10" cx="62.2" cy="173" rx="0.9" ry="1.6"/>
			</g>
		</g>
		<g>
			<g>
				<line class="st10" x1="54" y1="158.2" x2="54" y2="162.1"/>
				<line class="st10" x1="59.8" y1="161.3" x2="59.8" y2="165.2"/>
				<line class="st10" x1="65.5" y1="164.4" x2="65.5" y2="168.3"/>
				<line class="st10" x1="71.2" y1="167.5" x2="71.2" y2="171.4"/>
				<line class="st10" x1="76.9" y1="170.6" x2="76.9" y2="174.5"/>
				<line class="st10" x1="82.7" y1="173.7" x2="82.7" y2="177.7"/>
			</g>
			<g>
				<line class="st10" x1="56.6" y1="160.7" x2="56.6" y2="163.5"/>
				<line class="st10" x1="62.4" y1="163.9" x2="62.4" y2="166.7"/>
				<line class="st10" x1="68.2" y1="167.1" x2="68.2" y2="169.9"/>
				<line class="st10" x1="74" y1="170.3" x2="74" y2="173.1"/>
				<line class="st10" x1="79.8" y1="173.4" x2="79.8" y2="176.2"/>
			</g>
			<g>
				<path d="M54.9,156.4c0,0.4,0,0.7-0.1,0.8c-0.1,0.1-0.2,0.2-0.5,0c-0.2-0.1-0.4-0.3-0.5-0.6c-0.1-0.3-0.2-0.6-0.2-1
					c0-0.4,0-0.7,0.1-0.8c0.1-0.1,0.2-0.2,0.5,0c0.2,0.1,0.4,0.3,0.5,0.6C54.8,155.6,54.9,156,54.9,156.4z M54,155.9
					c0,0.3,0.1,0.5,0.1,0.7c0,0.1,0.1,0.2,0.2,0.3c0.1,0,0.2,0,0.2-0.1c0-0.1,0-0.3,0-0.6c0-0.3-0.1-0.5-0.1-0.7
					c0-0.2-0.1-0.3-0.2-0.3c-0.1-0.1-0.2,0-0.2,0.1C54,155.4,54,155.6,54,155.9z"/>
			</g>
			<g>
				<path d="M62.9,160.1c0,0.1,0,0.3-0.1,0.3c-0.1,0.1-0.2,0.1-0.3,0.1l0,0c0.1,0.1,0.3,0.2,0.3,0.4c0.1,0.1,0.1,0.3,0.1,0.4
					c0,0.2,0,0.4-0.2,0.4c-0.1,0.1-0.3,0-0.5-0.1c-0.2-0.1-0.4-0.2-0.5-0.4l0-0.4c0.1,0.1,0.2,0.2,0.2,0.2c0.1,0.1,0.2,0.1,0.3,0.2
					c0.1,0.1,0.2,0.1,0.3,0.1c0.1,0,0.1-0.1,0.1-0.2c0-0.1,0-0.2-0.1-0.3c-0.1-0.1-0.2-0.2-0.3-0.3l-0.1-0.1l0-0.4l0.1,0.1
					c0.1,0.1,0.2,0.1,0.3,0.1c0.1,0,0.1-0.1,0.1-0.2c0-0.2-0.1-0.3-0.3-0.4c-0.1,0-0.1-0.1-0.2-0.1c-0.1,0-0.1,0-0.2,0l-0.2-0.4
					c0.2-0.1,0.3,0,0.6,0.1c0.2,0.1,0.3,0.2,0.5,0.4S62.9,159.9,62.9,160.1z"/>
				<path d="M64.5,161.6c0,0.4,0,0.7-0.1,0.8c-0.1,0.1-0.2,0.2-0.5,0c-0.2-0.1-0.4-0.3-0.5-0.6c-0.1-0.3-0.2-0.6-0.2-1
					c0-0.4,0-0.7,0.1-0.8c0.1-0.1,0.2-0.2,0.5,0c0.2,0.1,0.4,0.3,0.5,0.6C64.4,160.8,64.4,161.2,64.5,161.6z M63.6,161.1
					c0,0.3,0.1,0.5,0.1,0.7c0,0.1,0.1,0.2,0.2,0.3c0.1,0,0.2,0,0.2-0.1c0-0.1,0-0.3,0-0.6c0-0.3-0.1-0.5-0.1-0.7
					c0-0.2-0.1-0.3-0.2-0.3c-0.1-0.1-0.2,0-0.2,0.1S63.6,160.8,63.6,161.1z"/>
			</g>
			<g>
				<path d="M73.5,168.3l0.6-1.6l-0.9-0.5l0-0.4l1.3,0.7l0,0.3l-0.6,1.7L73.5,168.3z"/>
				<path d="M76,168.6c0,0.4,0,0.7-0.1,0.8c-0.1,0.1-0.2,0.2-0.5,0c-0.2-0.1-0.4-0.3-0.5-0.6c-0.1-0.3-0.2-0.6-0.2-1
					c0-0.4,0-0.7,0.1-0.8c0.1-0.1,0.2-0.2,0.5,0c0.2,0.1,0.4,0.3,0.5,0.6C75.9,167.8,75.9,168.1,76,168.6z M75.1,168.1
					c0,0.3,0.1,0.5,0.1,0.7c0,0.1,0.1,0.2,0.2,0.3c0.1,0.1,0.1,0,0.2-0.1s0-0.3,0-0.6c0-0.3-0.1-0.5-0.1-0.7c0-0.2-0.1-0.3-0.2-0.3
					c-0.1-0.1-0.2,0-0.2,0.1C75.1,167.6,75,167.8,75.1,168.1z"/>
			</g>
			<g>
				<path d="M81.7,172.6l-0.4-0.2l0-1.4l0-0.2l0-0.2c-0.1,0-0.1,0.1-0.1,0.1l-0.2,0.1l-0.2-0.4l0.6-0.3l0.3,0.2L81.7,172.6z"/>
				<path d="M83.4,172.4c0,0.4,0,0.7-0.1,0.8s-0.3,0.1-0.5,0c-0.2-0.1-0.4-0.3-0.5-0.6c-0.1-0.3-0.2-0.6-0.2-1c0-0.4,0-0.7,0.1-0.8
					c0.1-0.1,0.2-0.1,0.5,0c0.2,0.1,0.4,0.3,0.5,0.6C83.3,171.7,83.4,172,83.4,172.4z M82.5,171.9c0,0.3,0,0.5,0.1,0.7
					c0,0.2,0.1,0.3,0.2,0.3c0.1,0.1,0.1,0,0.2-0.1c0-0.1,0-0.3,0-0.6c0-0.3,0-0.5-0.1-0.7c0-0.2-0.1-0.3-0.2-0.3
					c-0.1-0.1-0.2,0-0.2,0.1C82.5,171.4,82.5,171.6,82.5,171.9z"/>
				<path d="M84.8,173.3c0,0.4,0,0.7-0.1,0.8s-0.3,0.1-0.5,0c-0.2-0.1-0.4-0.3-0.5-0.6c-0.1-0.3-0.2-0.6-0.2-1c0-0.4,0-0.7,0.1-0.8
					c0.1-0.1,0.2-0.1,0.5,0c0.2,0.1,0.4,0.3,0.5,0.6C84.8,172.5,84.8,172.9,84.8,173.3z M84,172.7c0,0.3,0,0.5,0.1,0.7
					c0,0.2,0.1,0.3,0.2,0.3c0.1,0.1,0.1,0,0.2-0.1c0-0.1,0-0.3,0-0.6c0-0.3,0-0.5-0.1-0.7c0-0.2-0.1-0.3-0.2-0.3
					c-0.1-0.1-0.2,0-0.2,0.1C84,172.2,83.9,172.4,84,172.7z"/>
			</g>
			<polygon points="62.3,166.7 60.9,162.8 64.6,164.8 			"/>
		</g>
		<g>
			<path d="M98.5,147.2l0.1,2.8c0,0.3,0,0.6-0.1,0.7c-0.1,0.2-0.3,0.3-0.5,0.3c-0.2,0-0.5-0.1-0.8-0.3c-0.5-0.3-0.8-0.6-1.1-1
				c-0.3-0.4-0.4-0.9-0.4-1.4l-0.1-2.8l0.8,0.4l0.1,2.6c0,0.3,0.1,0.6,0.2,0.8c0.1,0.2,0.3,0.4,0.6,0.5c0.3,0.1,0.4,0.2,0.5,0.1
				c0.1-0.1,0.2-0.3,0.1-0.6l-0.1-2.6L98.5,147.2z"/>
			<path d="M101.7,152c0,0.4-0.1,0.6-0.3,0.7c-0.2,0.1-0.6,0-1-0.2c-0.4-0.2-0.7-0.5-1-0.8l0-0.8c0.3,0.3,0.5,0.5,0.6,0.6
				c0.2,0.1,0.3,0.3,0.5,0.3c0.2,0.1,0.3,0.1,0.4,0.1s0.1-0.1,0.1-0.3c0-0.1,0-0.2-0.1-0.3c0-0.1-0.1-0.2-0.2-0.3
				c-0.1-0.1-0.2-0.3-0.5-0.6c-0.2-0.2-0.4-0.5-0.5-0.6c-0.1-0.2-0.2-0.4-0.3-0.5c-0.1-0.2-0.1-0.4-0.1-0.6c0-0.4,0.1-0.6,0.3-0.7
				c0.2-0.1,0.5,0,0.9,0.2c0.2,0.1,0.4,0.2,0.5,0.4c0.2,0.1,0.4,0.3,0.6,0.5l-0.2,0.6c-0.2-0.2-0.4-0.4-0.5-0.5
				c-0.1-0.1-0.3-0.2-0.4-0.3c-0.1-0.1-0.3-0.1-0.3-0.1c-0.1,0-0.1,0.1-0.1,0.2c0,0.1,0,0.2,0.1,0.2c0,0.1,0.1,0.2,0.2,0.3
				c0.1,0.1,0.2,0.3,0.5,0.6c0.4,0.4,0.6,0.7,0.7,1C101.6,151.5,101.7,151.7,101.7,152z"/>
			<path d="M102.2,149.3l1.1,0.6c0.5,0.3,0.9,0.6,1.1,0.9c0.2,0.3,0.4,0.6,0.4,1c0,0.3,0,0.4-0.1,0.5s-0.2,0.1-0.4,0.1l0,0
				c0.2,0.2,0.4,0.4,0.5,0.6c0.1,0.2,0.2,0.5,0.2,0.7c0,0.4-0.1,0.6-0.3,0.7c-0.2,0.1-0.6,0-1-0.2l-1.4-0.8L102.2,149.3z
				 M103.1,151.4l0.5,0.2c0.2,0.1,0.4,0.2,0.5,0.1c0.1,0,0.1-0.1,0.1-0.3c0-0.2-0.1-0.3-0.2-0.4c-0.1-0.1-0.3-0.3-0.5-0.4l-0.4-0.2
				L103.1,151.4z M103.1,152.1l0.1,1.1l0.5,0.3c0.2,0.1,0.4,0.2,0.5,0.1c0.1,0,0.1-0.2,0.1-0.4c0-0.4-0.2-0.7-0.7-0.9L103.1,152.1z"
				/>
		</g>
	</g>
</g>
<g id="Layer_2">
	<g>
		<line class="st20" x1="70.3" y1="96.5" x2="8.5" y2="96.5"/>
	</g>
	<g>
		<line class="st20" x1="45.9" y1="122.5" x2="8.5" y2="122.5"/>
	</g>
	<g>
		<line class="st20" x1="93.5" y1="160.7" x2="8.5" y2="160.7"/>
	</g>
	<g>
		<line class="st20" x1="57.8" y1="172.7" x2="8.5" y2="172.7"/>
	</g>
	<g>
		<path d="M4,99.6H2.5v-4.1l0-0.7l0-0.7c-0.3,0.3-0.4,0.4-0.5,0.5l-0.8,0.7l-0.7-0.9l2.3-1.8H4V99.6z"/>
	</g>
	<g>
		<path d="M5.2,125.7h-5v-1l1.8-1.8c0.5-0.5,0.9-0.9,1-1.1s0.3-0.4,0.4-0.6c0.1-0.2,0.1-0.4,0.1-0.6c0-0.3-0.1-0.5-0.2-0.6
			c-0.2-0.1-0.4-0.2-0.6-0.2c-0.3,0-0.5,0.1-0.8,0.2s-0.5,0.3-0.8,0.5l-0.8-1c0.4-0.3,0.6-0.5,0.9-0.6c0.2-0.1,0.5-0.2,0.8-0.3
			c0.3-0.1,0.6-0.1,0.9-0.1c0.4,0,0.8,0.1,1.2,0.2c0.3,0.2,0.6,0.4,0.8,0.7s0.3,0.6,0.3,1c0,0.3-0.1,0.6-0.2,0.9s-0.3,0.6-0.5,0.9
			s-0.7,0.7-1.3,1.3l-0.9,0.9v0.1h3.1V125.7z"/>
	</g>
	<g>
		<path d="M4.9,157.8c0,0.4-0.1,0.8-0.4,1.1s-0.6,0.5-1.1,0.6v0c0.6,0.1,1,0.2,1.3,0.5s0.4,0.7,0.4,1.1c0,0.7-0.2,1.2-0.7,1.6
			c-0.5,0.4-1.2,0.6-2.1,0.6c-0.8,0-1.5-0.1-2.1-0.4v-1.3c0.3,0.1,0.6,0.3,0.9,0.3c0.3,0.1,0.7,0.1,1,0.1c0.5,0,0.9-0.1,1.1-0.3
			c0.2-0.2,0.4-0.4,0.4-0.8c0-0.3-0.1-0.6-0.4-0.7c-0.3-0.1-0.7-0.2-1.3-0.2H1.3v-1.2h0.6c0.6,0,1-0.1,1.2-0.2
			c0.3-0.1,0.4-0.4,0.4-0.7c0-0.5-0.3-0.8-1-0.8c-0.2,0-0.5,0-0.7,0.1s-0.5,0.2-0.8,0.4l-0.7-1c0.7-0.5,1.4-0.7,2.3-0.7
			c0.7,0,1.3,0.2,1.8,0.4C4.7,156.9,4.9,157.3,4.9,157.8z"/>
	</g>
	<g>
		<path d="M5.4,173.8H4.5v1.5H3v-1.5H0v-1l3.1-4.6h1.4v4.5h0.9V173.8z M3,172.7v-1.2c0-0.2,0-0.5,0-0.9c0-0.4,0-0.6,0-0.7h0
			c-0.1,0.3-0.3,0.5-0.4,0.8l-1.3,2H3z"/>
	</g>
</g>
</svg>
