<?xml version="1.0" encoding="utf-8"?>
<!-- Generator: Adobe Illustrator 25.2.0, SVG Export Plug-In . SVG Version: 6.00 Build 0)  -->
<svg version="1.1" xmlns="http://www.w3.org/2000/svg" xmlns:xlink="http://www.w3.org/1999/xlink" x="0px" y="0px" width="385px"
	 height="284.6px" viewBox="0 0 385 284.6" style="enable-background:new 0 0 385 284.6;" xml:space="preserve">
<style type="text/css">
	.st0{fill:#FFFFFF;stroke:#000000;stroke-width:0.9276;stroke-linecap:round;stroke-linejoin:round;stroke-miterlimit:10;}
	.st1{fill:none;stroke:#000000;stroke-width:0.5;stroke-linecap:round;stroke-linejoin:round;stroke-miterlimit:10;}
	.st2{fill:none;stroke:#000000;stroke-width:0.2319;stroke-linecap:round;stroke-linejoin:round;stroke-miterlimit:10;}
	.st3{fill:#FFFFFF;stroke:#000000;stroke-width:0.9168;stroke-linecap:round;stroke-linejoin:round;stroke-miterlimit:10;}
	.st4{fill:none;stroke:#000000;stroke-width:0.9276;stroke-linecap:round;stroke-linejoin:round;stroke-miterlimit:10;}
	.st5{fill:none;stroke:#000000;stroke-width:0.6957;stroke-linecap:round;stroke-linejoin:round;stroke-miterlimit:10;}
	.st6{fill:#FFFFFF;stroke:#000000;stroke-width:0.625;stroke-linecap:round;stroke-linejoin:round;stroke-miterlimit:10;}
	.st7{fill:none;stroke:#00AEEF;stroke-linecap:round;stroke-linejoin:round;stroke-miterlimit:10;}
</style>
<g id="Layer_3">
	<g>
		<g>
			<g>
				<g>
					<path class="st0" d="M221.5,78.1c0,0-176.3,101.9-178.1,102.8c-1.8,0.9-1.8,2.3-1.8,3.8c0,1.5-0.8,23.3-0.8,24.3
						c0,1,0.5,1.2,1.2,1.7c0.7,0.5,124.7,72.1,125.4,72.5c1.9,1.1,4,1,5.8,0.1S351,180.7,352,180.1c1.1-0.6,1.2-0.8,1.2-1.5
						c0-0.8,0-2.8,0-3.4c0-0.8-0.5-1.8-1.4-2.1c-0.5-0.2-0.6-0.2-1-0.4c-0.6-0.3-1.1-1-1.2-1.8s-1.8-12.5-1.9-13.3
						c-0.7-3.7-1.8-6.6-5.7-10c-3.9-3.4-56.3-45.6-57.6-46.6c-1.7-1.3-2.6-1.3-3.4-0.9s-1.5,0.9-1.7,1.4c-0.1,0.4-1.7,5.3-1.7,5.3
						c-1.3-0.7-4.8-2.8-5.8-3.3c-1-0.5-3-1.1-3.8-1.4c-0.8-0.3-1.5-0.5-2.5-1.1c-1.1-0.6-39.4-22.8-40-23.1
						C224.2,77.1,223.3,77,221.5,78.1z"/>
					<path class="st1" d="M351.8,173.1c0.6,0.4,1,1.5-0.5,2.5c-1.5,1-177.5,102.4-178.8,103.2c-1.3,0.8-3.5,0.6-4.2,0
						c-0.7-0.6-1.1-1.2-1.2-2.4c-0.1-1.2-1.2-11.8-1.5-13.5c-0.3-1.7-1.3-6.7-5.6-10.2c-4.3-3.5-55.5-45.7-57-47
						c-1.5-1.3-4.1-1.4-4.8,0.7c-0.7,1.9-1.7,5-1.7,5l-8.2-4.5"/>
					<path class="st1" d="M60,189.4c0,0,24.5,14.2,26.1,15.1c1.6,0.8,1.4,2.8,3.4,4c2.1,1.2,4.4,2.6,5.8,3.2c0.5,0.2,0.8,0.1,1-0.3"
						/>
					<path class="st1" d="M61.8,190.4c-2.1,0.5-3.1,3.2-3.2,4.8c0,0,22.5,13,24,13.8c3,1.8,4.4,0.5,6.1,1.5c1.7,1,3.8,2.1,4.9,2.8
						s2.7,0.7,3.2-1c0.5-1.7,1.2-4.2,1.5-5c0.4-1,1.4-1,2.7,0.1c1.3,1.1,55.2,45.1,57.6,46.9c2.4,1.8,4.4,5.1,4.8,8.7
						s1.7,15.6,1.7,15.6c1.7,1,1.7,1.1,2.4,1.5c0.8,0.4,3.1,1.5,5.7,0c2.5-1.5,177.7-102.6,178.8-103.2c0.9-0.5,1.3-1,1.2-1.6"/>
					<path class="st2" d="M351.3,175.6c0.5,0.2,0.7,0.6,0.7,1.2c0,0.6,0,3.3,0,3.3"/>
					<path class="st2" d="M172.5,278.8c0.6,0.2,0.7,0.6,0.7,1.2c0,0.7,0,3.3,0,3.3"/>
					<path class="st2" d="M168.2,278.8c-0.6,0.2-0.7,0.7-0.7,1.2s0,3.3,0,3.3"/>
					<path class="st2" d="M165.1,278.6c0.7,0.2,2.2,0.3,2.9-0.1c0.7-0.4,1.5-0.8,2.1-1.2c0.6-0.4,0.8-1,0.6-1.4s-0.8-1.3-1.8-0.7
						c-1.1,0.7-1.1,0.7-1.8,1.1C166.3,276.8,165.4,277.7,165.1,278.6z"/>
					<path class="st2" d="M169.8,277.4c-0.6-0.5-1-1-1-2.2c-0.1-1.2-1.8-11-2.3-13c-0.5-2.1-1.7-6.7-5.9-10
						c-4.1-3.3-20.5-15.9-20.5-15.9"/>
					<path class="st2" d="M158.6,254.3c-0.1-1.1,1.3-1.7,1.3-1.7"/>
					<path class="st2" d="M163.3,263c1.1,0.1,2.3,0.2,3.1-0.8"/>
					<line class="st2" x1="169.9" y1="275.1" x2="168.7" y2="274.5"/>
					<path class="st2" d="M351.1,172.9c0,0-1.2,0.6-2.1,1.2c-0.9,0.5-2.5,0.9-4-0.1c-1.6-0.9-71.9-42.8-71.9-42.8"/>
					<path class="st2" d="M349.6,170.9c-0.5,0.4-1.3,0.8-1.9,1.1c-0.6,0.3-0.9,0.2-1.5-0.2c-0.6-0.3-72.9-43.4-72.9-43.4"/>
					<path class="st2" d="M344.9,174c1-0.4,1.5-1.5,1.3-2.2c-0.2-1-0.9-11.3-1.3-13.3s-0.8-5.9-4.9-9.2
						c-4.1-3.4-56.4-46.2-57.7-47.2c-1.1-0.9-2.6-1-3,0.3s-1.2,3.9-1.5,5.1c-0.4,1.1-1.5,1.4-2.8,0.7s-2-1.1-2-1.1"/>
					<path class="st2" d="M284.3,101c-0.7,0.1-1.5,0.6-1.5,1.4"/>
					<path class="st2" d="M340,149.3c0-0.8,1.1-1.7,2-1.7"/>
					<path class="st2" d="M344.9,158.5c0.6,0.3,2.3-0.1,2.8-1"/>
					<path class="st2" d="M349,174c-0.8-0.8-1.2-1.2-1.3-2.1c-0.1-0.8-1.2-11.4-1.3-13.6s-1.8-7.9-5.4-10.5s-56.1-45.5-57.5-46.6
						c-0.9-0.7-2.5-1.2-2.5-1.2"/>
					<path class="st2" d="M42,210.8c0,0,0.4-23.4,0.7-24.8s0.2-3.2,1-3.9c0.8-0.7,179.9-103.9,179.9-103.9s38.2,22.2,39.8,23
						s4.6,1.2,5.7,1.9c1.2,0.7,5.8,3.5,6.5,3.7c0.7,0.3,1.2,0.8,1.9-0.2"/>
					<path class="st2" d="M221.8,78c0.6-0.1,1.7-0.1,1.9,0.3c0.2-0.3,0.7-0.7,1.3-0.7"/>
					<path class="st2" d="M41.6,184.8c0,0.5,0.4,1,1.1,1.2"/>
					<path class="st1" d="M88.1,206.8l180.3-104c0,0,4,3,4.5,4.2s0.5,2,0.5,2.7c0,0.8,0,19.4,0,19.4"/>
					<path class="st2" d="M268.4,102.8c-0.4,0.9-1.3,4.3-0.9,5.6c0.2,0.6,0.2,0.8,0.2,1.4s0,16,0,16"/>
					<path class="st2" d="M273.4,109.7c-1-0.7-3.7-1.2-5.8,0S193,153,193,153"/>
					<line class="st2" x1="94.1" y1="210" x2="97.5" y2="207.9"/>
					<path class="st2" d="M88.5,206.6c1.7-0.1,6.1-0.1,6,3"/>
					<line class="st2" x1="93" y1="209.5" x2="94.3" y2="208.4"/>
					<path class="st2" d="M93.6,213.3c-0.1-0.9,0.5-1.9,1.2-1.9"/>
					<path class="st2" d="M101,207.4c0-0.7,1-1.9,1.9-1.8"/>
					<path class="st2" d="M102.3,205.2c0,0,73.5-42.3,74.5-42.9s3.9-1.1,5.8-0.1"/>
					<path class="st2" d="M176.6,178.7c0,0,0.1-16,0.1-16.5c0-0.4-0.1-0.6-0.1-1.1c-0.3-2.3,0.6-4.4,1.3-6.1c1.5,1.8,3.4,3.7,4.3,5
						c0.4,0.6,0.3,1.8,0.3,2.7s0,18.5,0,18.5"/>
					<path class="st1" d="M253.8,226c0.8-0.7,1.4-1.3,1.3-2.2s-1.2-11.7-1.5-13.1c-0.3-1.4-0.8-5.4-4.8-8.7
						c-4-3.3-56.4-45.9-57.6-46.9c-1.2-1-2.5-1-2.8,0.1c-0.3,1-1.1,4-1.5,5.1c-0.4,1.1-1.7,1.4-3,0.7c-1.2-0.7-1.8-1-1.8-1
						c-1.6-0.5-4.7,0.3-5.6,1.1"/>
					<path class="st2" d="M179.1,154.3c4.1-0.1,7.1,0.4,6.4,3.7"/>
					<path class="st2" d="M185.3,156.1c-0.5,0.1-0.8,0.5-1.2,1.1"/>
				</g>
				<path class="st1" d="M178.7,154.6c0,0,6.1,3.6,7,4c0.8,0.4,1.1-0.1,1.4-1s1-2.9,1.4-4.1c0.4-1.2,2.4-2.1,3.5-1.3
					c1,0.7,56.7,44.9,59.5,47.5c2.8,2.7,5,6.1,5.7,10s1.9,12.3,1.9,12.3c0.9,0.5,3.2,1.7,0.9,3.3c-1,0.7-0.9,0.6-1.5,0.9
					c-0.6,0.2-2.5,1.2-4.7-0.1c-2.2-1.3-19.1-11.4-19.1-11.4"/>
				<path class="st2" d="M259,221.9c0.1,0.9,0.1,1.2-1.8,2.2c-0.7,0.4-1.1,0.4-2.2-0.3C254,223.1,212,198,212,198"/>
				<path class="st2" d="M184,161.1c-0.2-1,1.1-2.5,1.7-2.5"/>
				<path class="st2" d="M177.9,155c0,0,6,3.7,6.9,4s1.3,0.7,1.9,0c0.6-0.7,1.8-3.9,1.8-3.9"/>
				<line class="st2" x1="185.7" y1="157.1" x2="187.5" y2="156"/>
				<path class="st2" d="M191.3,155.2c0.1-1,1-1.9,2.2-1.7"/>
				<path class="st2" d="M188.4,153.5c0.6-0.6,1.7-2,4.1-0.1s56.3,45.6,57.6,46.9c1.3,1.3,5.1,5.4,5.6,10.2s1.4,12.4,1.5,13.5
					s0.7,1.9,1.1,2.1"/>
				<path class="st2" d="M260,225.3c-0.8-0.3-1.2-1.3-1.3-2c-0.1-0.7-1.6-12-1.9-13.3c-0.3-1.3-1.5-6.6-5.8-10.1
					c-4.3-3.5-58-46.4-58-46.4c-0.9-0.7-2.1-2-4.1-0.6"/>
				<path class="st2" d="M253.6,210.7c1,0.6,2.4,0.4,3.2-0.8"/>
				<path class="st2" d="M248.9,202c-0.1-1.3,1.8-2,2.2-2.2"/>
			</g>
			<g>
				<path class="st3" d="M180.2,106.3c0,0-2.2,5.7-2.6,6.9s0.1,6,5.1,8.9c8.5,5,24.2,5.8,32.9-1.7c2.4-2.1,3.3-5.2,3.1-6.6
					c-0.2-1.4-2.5-9.1-2.5-9.1"/>
				<path class="st2" d="M178.8,110.1c0.4,2.7,1,3.8,3.5,5.9c8.9,7.5,26.4,6.2,32.6-0.9c2.3-2.7,2.3-4,2.5-5.8"/>
				<path class="st2" d="M179.8,107.8c0,3.3,1.9,4.9,3.3,6.1c7.9,6.4,23.6,5.8,31-0.8c1.7-1.6,2.6-3.9,2.7-5.4"/>
				<ellipse class="st3" cx="198.1" cy="106.3" rx="17.9" ry="10.4"/>
			</g>
			<g>
				<path class="st3" d="M90.2,158.3c0,0-2.2,5.7-2.6,6.9c-0.4,1.2,0.1,6,5.1,8.9c8.5,5,24.2,5.8,32.9-1.7c2.4-2.1,3.3-5.2,3.1-6.6
					c-0.2-1.4-2.5-9.1-2.5-9.1"/>
				<path class="st2" d="M88.8,162.2c0.4,2.7,1,3.8,3.5,5.9c8.9,7.5,26.4,6.2,32.6-0.9c2.3-2.7,2.3-4,2.5-5.8"/>
				<path class="st2" d="M89.8,159.8c0,3.3,1.9,4.9,3.3,6.1c7.9,6.4,23.6,5.8,31-0.8c1.7-1.6,2.6-3.9,2.7-5.4"/>
				<ellipse class="st3" cx="108.1" cy="158.3" rx="17.9" ry="10.4"/>
			</g>
		</g>
		<g>
			<path class="st0" d="M204.8,162.6c0,0,0-6.9,0-6.9c-0.9-0.4-1.5-0.6-1.5-1.3c0-0.7,0-3.4,0-4.2s0.2-1.3,1-1.8
				c0.7-0.4,49.5-28.6,49.9-28.8c0.4-0.2,0.9-0.4,1.7-0.1c0.8,0.4,18.1,9.2,20.2,10.2c0.3-0.2,0.4-0.4,0.8-0.2
				c17,8.8,39.2,25.2,46.6,31c0.8,0.7,1.2,1,1.2,1.9c0,0.9,0,3.9,0,4.2s-0.1,0.5-1.2,1.8c0,0,0,3.6,0,3.9c0,0.3,0,0.5-0.2,0.7
				c-0.2,0.3-5.9,7.2-17.9,15.1c-12.1,7.8-26.6,12.1-31.2,13.3c-1.4,0.4-1.7,0.1-2.4-0.4c-0.7-0.5-31.2-22.5-45.1-28.4
				c0,0,0.8,3.5-3.1,4.5L204.8,162.6z"/>
			<path class="st4" d="M225.2,176.4c0,0,1.8-0.8,2.5-1.3c0.6-0.5,1-1,0.9-1.5"/>
			<path class="st2" d="M204.8,155.8c16,7.9,44.2,23,66.7,40.6c1,0.8,1.4,0.6,2.4,0.4c2.4-0.4,21.7-6.4,32.2-13.7
				c10.5-7.3,15.7-11.4,17.4-14.5"/>
			<path class="st2" d="M324.7,162.6c-6.2,7.4-9.7,10.5-18.9,16.2c-10,6.1-15.5,8.5-31.8,13.5c-1,0.3-1.7,0.3-2.4-0.3
				c-14.3-11.4-28.6-20.5-47.4-31.4"/>
			<path class="st2" d="M323,160.4c-4.1,5.2-9.8,11.2-21.1,17.8c-11.3,6.6-24.2,10.6-28.6,11.4c-9.8-8.5-39.7-27.5-46.8-31"/>
			<path class="st2" d="M271.7,201.2l-0.2-9.2c0,0,0.2-1.9,1.7-2.3c0.5,0.4,0.8,2,0.8,2.7c0,0.7,0,4.4,0,4.4"/>
			<line class="st2" x1="274.2" y1="196.7" x2="274.2" y2="201.6"/>
			<path class="st2" d="M203.6,151.1l20.4,10.3c-0.3-1.2,1-2.4,2.6-2.9c1.6-0.5,20.5-6.9,31.4-14.3c10.9-7.4,15.5-11,18.1-14.3"/>
			<line class="st2" x1="205" y1="148.1" x2="225.8" y2="158.8"/>
			<path class="st4" d="M204.8,162.6l10.3,4.4c0.2,1.3,0.2,3.3,1.6,4.9"/>
			<path class="st2" d="M227.6,180.5c0,0,42.5,24.5,44,25.3c1.1,0.6,2.5,0.6,3.6,0c1.1-0.6,23.3-13.5,23.3-13.5"/>
			<line class="st2" x1="271.3" y1="200.8" x2="271.6" y2="205.8"/>
			<line class="st2" x1="275" y1="201.3" x2="275.2" y2="205.8"/>
			<path class="st2" d="M230.2,182.4c0,0,40.4,23.4,41.5,24.1c1.2,0.7,3.4,0.7,4.6,0s41.8-24.1,42.5-24.6c1.3-0.7,1-1.6,0.7-1.9
				c-0.3-0.3-1.4-1.3-1.4-1.3v2.3l-12.9,7.3"/>
			<path class="st1" d="M318.7,177.9c0,0,1.6,0.9,2.6,1.5c1,0.6,3.9,3.1,0,5.4c-3.9,2.3-40.6,23.4-42.7,24.7
				c-2.1,1.3-5.4,1.9-8.9-0.2c-3.5-2.1-28.3-17.2-28.3-17.2"/>
			<path class="st2" d="M271.7,206.5c0,0.5-0.9,2.2-2.1,2.7"/>
			<path class="st2" d="M276.3,206.5c0.1,0.9,1.4,2.7,2.2,3"/>
			<path class="st2" d="M318.9,181.9c0.1,0.9,1.2,2.4,2.4,2.9"/>
			<path class="st2" d="M319.2,179.6c0.9,0.4,1.6,0.1,2.1-0.2"/>
			<g>
				<path class="st2" d="M273.4,173.6c4.7-1.6,11.2-5,14.9-7.3c3.7-2.3,9.7-6.4,10.8-7.7c1.2-1.3,3.9-1.1,4.9-0.4
					c1,0.7,2.6,2.1,0.7,3.7c-1.9,1.6-3.4,3.3-9,6.9c-5.6,3.6-15.6,8.3-18.9,9.2c-3.3,0.9-4.4-0.2-4.9-1S270.9,174.4,273.4,173.6z"/>
				<path class="st2" d="M273.4,173.6c2,0,3.5,3.2,3.5,4.4"/>
				<path class="st2" d="M299.1,158.6c2.4-1.1,5.7,1.3,5.6,3.3"/>
			</g>
			<path class="st2" d="M234.5,134c1.3-0.8,19.3-11.1,20.2-11.7c0.6-0.3,0.7-0.3,1.1-0.2c0.4,0.1,6.6,3.2,6.9,3.3
				c0.3,0.1,0.2,0.6-0.1,0.7c-0.5,0.3-19.8,11.4-20.3,11.7c-0.4,0.3-0.8,0.3-1.2,0.1s-6.4-3.1-6.7-3.3
				C234.1,134.6,233.9,134.4,234.5,134z"/>
			<path class="st5" d="M234.5,134.5c0,0,20.2-11.6,20.4-11.8c0.3-0.2,0.4-0.3,0.9-0.1c0.5,0.2,6.6,3.2,6.6,3.2"/>
			
				<ellipse transform="matrix(0.7992 -0.6011 0.6011 0.7992 -57.5321 166.7157)" class="st6" cx="220.7" cy="169.5" rx="1.6" ry="2.7"/>
		</g>
		<g>
			<path class="st0" d="M114.5,215.3c0,0,0-6.9,0-6.9c-0.9-0.4-1.5-0.6-1.5-1.3s0-3.4,0-4.2s0.2-1.3,1-1.8s49.5-28.6,49.9-28.8
				s0.9-0.4,1.7-0.1c0.8,0.4,18.1,9.2,20.2,10.2c0.3-0.2,0.4-0.4,0.8-0.2c17,8.8,39.2,25.2,46.6,31c0.8,0.7,1.2,1,1.2,1.9
				s0,3.9,0,4.2s-0.1,0.5-1.2,1.8c0,0,0,3.6,0,3.9s0,0.5-0.2,0.7c-0.2,0.3-5.9,7.2-17.9,15.1c-12.1,7.8-26.6,12.1-31.2,13.3
				c-1.4,0.4-1.7,0.1-2.4-0.4c-0.7-0.5-31.2-22.5-45.1-28.4c0,0,0.8,3.5-3.1,4.5L114.5,215.3z"/>
			<path class="st4" d="M134.9,229.2c0,0,1.8-0.8,2.5-1.3c0.6-0.5,1-1,0.9-1.5"/>
			<path class="st2" d="M114.5,208.5c16,7.9,44.2,23,66.7,40.6c1,0.8,1.4,0.6,2.4,0.4c2.4-0.4,21.7-6.4,32.2-13.7
				c10.5-7.3,15.7-11.4,17.4-14.5"/>
			<path class="st2" d="M234.4,215.4c-6.2,7.4-9.7,10.5-18.9,16.2c-10,6.1-15.5,8.5-31.8,13.5c-1,0.3-1.7,0.3-2.4-0.3
				c-14.3-11.4-28.6-20.5-47.4-31.4"/>
			<path class="st2" d="M232.7,213.1c-4.1,5.2-9.8,11.2-21.1,17.8c-11.3,6.6-24.2,10.6-28.6,11.4c-9.8-8.5-39.7-27.5-46.8-31"/>
			<path class="st2" d="M181.4,253.9l-0.2-9.2c0,0,0.2-1.9,1.7-2.3c0.5,0.4,0.8,2,0.8,2.7c0,0.7,0,4.4,0,4.4"/>
			<line class="st2" x1="183.9" y1="249.4" x2="183.9" y2="254.3"/>
			<path class="st2" d="M113.3,203.9l20.4,10.3c-0.3-1.2,1-2.4,2.6-2.9c1.6-0.5,20.5-6.9,31.4-14.3s15.5-11,18.1-14.3"/>
			<line class="st2" x1="114.7" y1="200.9" x2="135.6" y2="211.6"/>
			<path class="st4" d="M114.5,215.3l10.3,4.4c0.2,1.3,0.2,3.3,1.6,4.9"/>
			<path class="st2" d="M134.9,232c0,0,45,25.7,46.5,26.5c1.1,0.6,2.5,0.6,3.6,0c1.1-0.6,23.3-13.5,23.3-13.5"/>
			<line class="st2" x1="181.4" y1="253.9" x2="181.4" y2="258.5"/>
			<line class="st2" x1="184.7" y1="254" x2="185" y2="258.6"/>
			<path class="st2" d="M137.3,234c0,0,42.9,24.5,44.1,25.1c1.2,0.7,3.4,0.7,4.6,0c1.2-0.7,41.8-24.1,42.5-24.6
				c1.3-0.7,1-1.6,0.7-1.9c-0.3-0.3-1.4-1.3-1.4-1.3v2.3L215,241"/>
			<path class="st1" d="M228.4,230.7c0,0,1.6,0.9,2.6,1.5c1,0.6,3.9,3.1,0,5.4c-3.9,2.3-40.6,23.4-42.7,24.7
				c-2.1,1.3-5.4,1.9-8.9-0.2S151,244.7,151,244.7"/>
			<path class="st2" d="M181.4,259.2c0,0.5-0.9,2.2-2.1,2.7"/>
			<path class="st2" d="M186,259.2c0.1,0.9,1.4,2.7,2.2,3"/>
			<path class="st2" d="M228.6,234.6c0.1,0.9,1.2,2.4,2.4,2.9"/>
			<path class="st2" d="M228.9,232.3c0.9,0.4,1.6,0.1,2.1-0.2"/>
			<g>
				<path class="st2" d="M183.1,226.3c4.7-1.6,11.2-5,14.9-7.3c3.7-2.3,9.7-6.4,10.8-7.7c1.2-1.3,3.9-1.1,4.9-0.4
					c1,0.7,2.6,2.1,0.7,3.7c-1.9,1.6-3.4,3.3-9,6.9s-15.6,8.3-18.9,9.2c-3.3,0.9-4.4-0.2-4.9-1C181.1,228.8,180.6,227.1,183.1,226.3
					z"/>
				<path class="st2" d="M183.1,226.3c2,0,3.5,3.2,3.5,4.4"/>
				<path class="st2" d="M208.8,211.3c2.4-1.1,5.7,1.3,5.6,3.3"/>
			</g>
			<path class="st2" d="M144.2,186.8c1.3-0.8,19.3-11.1,20.2-11.7c0.6-0.3,0.7-0.3,1.1-0.2s6.6,3.2,6.9,3.3c0.3,0.1,0.2,0.6-0.1,0.7
				c-0.5,0.3-19.8,11.4-20.3,11.7c-0.4,0.3-0.8,0.3-1.2,0.1c-0.4-0.2-6.4-3.1-6.7-3.3C143.9,187.3,143.6,187.1,144.2,186.8z"/>
			<path class="st5" d="M144.3,187.2c0,0,20.2-11.6,20.4-11.8c0.3-0.2,0.4-0.3,0.9-0.1s6.6,3.2,6.6,3.2"/>
			
				<ellipse transform="matrix(0.7992 -0.6011 0.6011 0.7992 -107.354 123.0355)" class="st6" cx="130.5" cy="222.2" rx="1.6" ry="2.7"/>
		</g>
		<g>
			<path class="st0" d="M139.1,125.8c0,0-1-0.6-3.1-2c-1.8-1.2-8-8.3,1.8-14.1c9.8-5.8,29-16.6,33.2-19.1c4.2-2.5,12.1-2.2,15.7-0.1
				c3.6,2.1,6.7,4,6.7,4l-7.9,4.5c0,0-0.8-0.7-2.7-1.3c-1.9-0.6-5.1-1.7-8.3,0.2c-3.2,1.8-33.6,19.4-33.6,19.4l6.3,3.8L139.1,125.8z
				"/>
			<path class="st2" d="M186.6,90.5c-1.9,1.2-4.7,3.2-3.9,7.2"/>
			<path class="st2" d="M170.9,90.6c3.5,0.4,5.7,6,3.5,7.2"/>
			<path class="st2" d="M137.7,109.7c3.9,0.5,4.9,4.5,4.3,6.7"/>
			<path class="st2" d="M136.8,124.4c-1.8-3.6,1.8-7.2,4-7.2"/>
		</g>
		<g>
			<path class="st0" d="M48.9,177.7c0,0-1-0.6-3.1-2c-1.8-1.2-8-8.3,1.8-14.1s29-16.6,33.2-19.1c4.2-2.5,12.1-2.2,15.7-0.1
				c3.6,2.1,6.7,4,6.7,4l-7.9,4.5c0,0-0.8-0.7-2.7-1.3c-1.9-0.6-5.1-1.7-8.3,0.2s-33.6,19.4-33.6,19.4l6.3,3.8L48.9,177.7z"/>
			<path class="st2" d="M96.4,142.5c-1.9,1.2-4.7,3.2-3.9,7.2"/>
			<path class="st2" d="M80.7,142.6c3.5,0.4,5.7,6,3.5,7.2"/>
			<path class="st2" d="M47.6,161.7c3.9,0.5,4.9,4.5,4.3,6.7"/>
			<path class="st2" d="M46.6,176.4c-1.8-3.6,1.8-7.2,4-7.2"/>
		</g>
		<g>
			<path class="st0" d="M225.9,78.9V13.5c0,0-140.9,81.3-151.4,87.4C63.9,107,60,119.8,60,125.9c0,6,0,65.7,0,65.7
				c-1.2,0.6-1.9,3.4-1.9,4.9c0,1.5,0.2,15.4,0.2,17s-0.4,3.4-1.9,2.6c-1.4-0.8-10.5-6.1-12-7c-1.4-0.9-1-1.8-1-3.4s0-82.2,0-86.9
				s3-20.9,16.6-28.7s147.1-85,151.4-87.4c4.3-2.4,8.7-2.9,11.7-1.2s11.8,6.9,14.4,8.3c2.7,1.4,4.1,4.8,4.4,6.7s0.4,2.8,0.4,4
				c0,1.2,0,67.2,0,67.2c-0.9-0.5-1.5-1.1-2.3-0.6L225.9,78.9z"/>
			<path class="st4" d="M225.9,13.5c10.9-5.3,14.3,1.9,14.3,8.3s0,65.3,0,65.3"/>
			<line class="st2" x1="240.1" y1="21.8" x2="225.9" y2="13.5"/>
			<path class="st2" d="M237.6,9.8c-2-1.1-5.8-2.3-11.7,1.2c-6,3.4-145.5,84-151.4,87.4c-5.9,3.4-16.6,14.4-16.6,28.7s0,79.4,0,79.4
				"/>
			<line class="st2" x1="43.5" y1="118.8" x2="57.9" y2="127.1"/>
			<line class="st2" x1="60" y1="90.1" x2="74.5" y2="98.4"/>
			<line class="st2" x1="211.4" y1="2.7" x2="225.9" y2="11"/>
		</g>
		<g>
			<path class="st0" d="M128.4,131.9l-0.9-1.2l-3.4-2l-2,0.3c0,0-25.6-13-26.9-13.6c-1.3-0.6-3.7,0.4-5.2,2.8
				c-1.5,2.4-2.2,5.8-0.4,7c1.7,1.1,23.7,15.5,23.7,15.5L128.4,131.9z"/>
			<polyline class="st4" points="122.1,129 118.1,131.3 116.6,133.2 114.5,138.6 114.5,139.8 			"/>
			<polyline class="st2" points="118.1,131.3 118.1,132.5 116.6,133.2 			"/>
			<line class="st2" x1="121.3" y1="134.3" x2="118.1" y2="132.5"/>
			<polyline class="st2" points="127.5,130.7 121.3,134.3 120.4,136.5 			"/>
			<path class="st2" d="M122.8,135.2c0.4-1.1,1.9-2.5,3.5-2"/>
			<path class="st0" d="M91,116.9l-6.3-3.7l14.8-8.4c0.8-0.6,0.5-1.8,0-2.4s-1.5-1.8-2.2-1.4c-0.8,0.5-12.2,7-14.3,8.3
				c-3.5,2.1-3.6,6-0.4,7.8c4.2,2.4,6.1,3.7,6.1,3.7L91,116.9z"/>
			<path class="st2" d="M83,109.3c1.8,0,2.7,2.3,2.4,3.5"/>
			<path class="st2" d="M82.7,117.1c-0.5-1.6,0.1-3.6,2-3.9"/>
		</g>
	</g>
</g>
<g id="Layer_2">
	<g>
		<line class="st7" x1="262.7" y1="152.1" x2="372" y2="152.1"/>
	</g>
	<g>
		<line class="st7" x1="196.7" y1="106" x2="372" y2="106"/>
	</g>
	<g>
		<line class="st7" x1="108.1" y1="159" x2="11.4" y2="159"/>
	</g>
	<g>
		<line class="st7" x1="173.7" y1="210.1" x2="11.4" y2="210.1"/>
	</g>
	<g>
		<path d="M3.5,162.8H2v-4.1l0-0.7l0-0.7c-0.3,0.3-0.4,0.4-0.5,0.5l-0.8,0.7L0,157.5l2.3-1.8h1.2V162.8z"/>
	</g>
	<g>
		<path d="M384.8,109.3h-5v-1l1.8-1.8c0.5-0.5,0.9-0.9,1-1.1c0.2-0.2,0.3-0.4,0.4-0.6c0.1-0.2,0.1-0.4,0.1-0.6
			c0-0.3-0.1-0.5-0.2-0.6c-0.2-0.1-0.4-0.2-0.6-0.2c-0.3,0-0.5,0.1-0.8,0.2c-0.3,0.1-0.5,0.3-0.8,0.5l-0.8-1
			c0.4-0.3,0.6-0.5,0.9-0.6c0.2-0.1,0.5-0.2,0.8-0.3s0.6-0.1,0.9-0.1c0.4,0,0.8,0.1,1.2,0.2s0.6,0.4,0.8,0.7c0.2,0.3,0.3,0.6,0.3,1
			c0,0.3-0.1,0.6-0.2,0.9c-0.1,0.3-0.3,0.6-0.5,0.9c-0.2,0.3-0.7,0.7-1.3,1.3l-0.9,0.9v0.1h3.1V109.3z"/>
	</g>
	<g>
		<path d="M5.6,207.2c0,0.4-0.1,0.8-0.4,1.1s-0.6,0.5-1.1,0.6v0c0.6,0.1,1,0.2,1.3,0.5s0.4,0.7,0.4,1.1c0,0.7-0.2,1.2-0.7,1.6
			c-0.5,0.4-1.2,0.6-2.1,0.6c-0.8,0-1.5-0.1-2.1-0.4v-1.3c0.3,0.1,0.6,0.3,0.9,0.3s0.7,0.1,1,0.1c0.5,0,0.9-0.1,1.1-0.3
			c0.2-0.2,0.4-0.4,0.4-0.8c0-0.3-0.1-0.6-0.4-0.7c-0.3-0.1-0.7-0.2-1.3-0.2H2v-1.2h0.6c0.6,0,1-0.1,1.2-0.2
			c0.3-0.1,0.4-0.4,0.4-0.7c0-0.5-0.3-0.8-1-0.8c-0.2,0-0.5,0-0.7,0.1c-0.2,0.1-0.5,0.2-0.8,0.4l-0.7-1c0.7-0.5,1.4-0.7,2.3-0.7
			c0.7,0,1.3,0.1,1.8,0.4C5.4,206.2,5.6,206.6,5.6,207.2z"/>
	</g>
	<g>
		<path d="M385,153.3h-0.9v1.5h-1.5v-1.5h-3v-1l3.1-4.6h1.4v4.5h0.9V153.3z M382.7,152.1v-1.2c0-0.2,0-0.5,0-0.9s0-0.6,0-0.7h0
			c-0.1,0.3-0.3,0.5-0.4,0.8l-1.3,2H382.7z"/>
	</g>
</g>
</svg>
