<?xml version="1.0" encoding="utf-8"?>
<!-- Generator: Adobe Illustrator 25.2.0, SVG Export Plug-In . SVG Version: 6.00 Build 0)  -->
<svg version="1.1" xmlns="http://www.w3.org/2000/svg" xmlns:xlink="http://www.w3.org/1999/xlink" x="0px" y="0px" width="490.9px"
	 height="115.2px" viewBox="0 0 490.9 115.2" style="enable-background:new 0 0 490.9 115.2;" xml:space="preserve">
<style type="text/css">
	.st0{fill:#FFFFFF;stroke:#000000;stroke-width:0.75;stroke-linecap:round;stroke-linejoin:round;stroke-miterlimit:10;}
	.st1{fill:none;stroke:#000000;stroke-width:0.375;stroke-linecap:round;stroke-linejoin:round;stroke-miterlimit:10;}
	.st2{fill:none;stroke:#000000;stroke-width:0.75;stroke-linecap:square;stroke-linejoin:round;stroke-miterlimit:10;}
	.st3{fill:#FFFFFF;stroke:#000000;stroke-width:0.375;stroke-linecap:round;stroke-linejoin:round;stroke-miterlimit:10;}
	.st4{fill:none;stroke:#000000;stroke-width:0.1875;stroke-linecap:round;stroke-linejoin:round;stroke-miterlimit:10;}
	.st5{display:none;}
	.st6{display:inline;}
	.st7{fill:#FFFFFF;stroke:#000000;stroke-width:0.75;stroke-miterlimit:10;}
	.st8{fill:none;stroke:#000000;stroke-width:0.375;stroke-miterlimit:10;}
	.st9{display:inline;fill:none;stroke:#000000;stroke-width:0.2498;stroke-miterlimit:10;}
	.st10{display:inline;fill:none;stroke:#000000;stroke-width:0.1249;stroke-miterlimit:10;}
	.st11{fill:none;stroke:#000000;stroke-width:0.2498;stroke-miterlimit:10;}
	.st12{fill:none;stroke:#000000;stroke-width:0.1249;stroke-miterlimit:10;}
	.st13{fill:none;}
	.st14{display:inline;fill:none;}
	.st15{fill:none;stroke:#000000;stroke-width:0.3499;stroke-miterlimit:10;}
	.st16{fill:none;stroke:#000000;stroke-width:0.175;stroke-miterlimit:10;}
	.st17{fill:none;stroke:#000000;stroke-width:8.747511e-02;stroke-miterlimit:10;}
	.st18{fill:none;stroke:#00AEEF;stroke-linecap:round;stroke-linejoin:round;stroke-miterlimit:10;}
	.st19{font-family:'OpenSans-Bold';}
	.st20{font-size:10px;}
</style>
<g id="Keyboards">
	<g id="K830">
		<g>
			<path class="st0" d="M51.6,0.8c-0.6-0.3-1.4-0.6-2.1-0.2S2.5,27.7,1.7,28.2c-1.2,0.7-1.3,1.3-1.4,2.2s0.8,3.6,2.5,4.6
				s135.5,78.2,136.5,78.8c1,0.6,1.6,0.5,3-0.3c1.1-0.6,46.1-26.6,47.3-27.3c2-1.2,0.9-5.2-1.9-6.9C184.2,77.2,55,2.7,51.6,0.8z"/>
			<path class="st1" d="M0.4,30.4c0-0.9,0.9-2.1,2.4-1.3s134.4,77.5,136.3,78.7c1.1,0.7,2.4,2.2,2.4,4.2c0,2.1-1.5,2.1-2.2,1.7"/>
			<polygon class="st1" points="129,80.1 153.5,94.2 170.9,84.2 146.3,70.1 			"/>
			<polyline class="st2" points="129.6,80.1 146.3,70.5 170.2,84.3 			"/>
			<path class="st1" d="M141.8,113.6c1.1-1.4-0.1-5.2-2.4-6.5C136.5,105.5,4.1,29,3.4,28.6c-0.5-0.3-1.2-0.7-2-0.2"/>
			<polyline class="st1" points="139.1,107.8 139.5,107.1 187.7,79.2 			"/>
			<polyline class="st1" points="2.8,29.1 3.4,28.6 51.6,0.8 			"/>
		</g>
		<g>
			<g>
				<path class="st3" d="M37.5,10.8c-0.3,0.2-4.8,2.8-5,2.9c-0.2,0.1-0.2,0.2-0.2,0.5c0,0.2,0-0.1,0,0.1s0.1,0.2,0.2,0.3
					c0.3,0.2,8.1,4.7,8.3,4.9c0.8,0.4,0.9,0.4,1.7,0c0.4-0.2,4.3-2.5,4.5-2.6c0.2-0.1,0.3-0.2,0.3-0.4s0,0,0-0.2
					c0-0.2-0.2-0.3-0.5-0.4c-0.3-0.2-8.3-4.9-8.4-5C38.1,10.6,37.8,10.6,37.5,10.8z"/>
				<path class="st4" d="M32.3,13.8c0,0,8.6,5,8.8,5.2c0.6,0.3,0.6,0.3,1.2,0c0.3-0.2,5.1-2.9,5.1-2.9"/>
			</g>
			<g>
				<g>
					<path class="st3" d="M50.7,11.1c-0.3,0.2-4.8,2.8-5,2.9c-0.2,0.1-0.2,0.2-0.2,0.5s0-0.1,0,0.1s0.1,0.2,0.2,0.3
						c0.3,0.2,4.4,2.5,4.6,2.7c0.8,0.4,0.9,0.4,1.7,0c0.4-0.2,4.3-2.5,4.5-2.6c0.2-0.1,0.3-0.2,0.3-0.4c0-0.2,0,0,0-0.2
						c0-0.2-0.2-0.3-0.5-0.4c-0.3-0.2-4.6-2.7-4.8-2.8C51.4,10.9,51.1,10.9,50.7,11.1z"/>
					<path class="st4" d="M45.5,14.1c0,0,4.9,2.8,5.1,3c0.6,0.3,0.6,0.3,1.2,0c0.3-0.2,5.1-2.9,5.1-2.9"/>
				</g>
				<g>
					<path class="st3" d="M57.5,15c-0.3,0.2-4.8,2.8-5,2.9c-0.2,0.1-0.2,0.2-0.2,0.5s0-0.1,0,0.1s0.1,0.2,0.2,0.3
						c0.3,0.2,4.4,2.5,4.6,2.7c0.8,0.4,0.9,0.4,1.7,0c0.4-0.2,4.3-2.5,4.5-2.6c0.2-0.1,0.3-0.2,0.3-0.4s0,0,0-0.2
						c0-0.2-0.2-0.3-0.5-0.4c-0.3-0.2-4.6-2.7-4.8-2.8C58.2,14.8,57.8,14.8,57.5,15z"/>
					<path class="st4" d="M52.3,18c0,0,4.9,2.8,5.1,3c0.6,0.3,0.6,0.3,1.2,0c0.3-0.2,5.1-2.9,5.1-2.9"/>
				</g>
				<g>
					<path class="st3" d="M64.3,18.9c-0.3,0.2-4.8,2.8-5,2.9c-0.2,0.1-0.2,0.2-0.2,0.5s0-0.1,0,0.1s0.1,0.2,0.2,0.3
						c0.3,0.2,4.4,2.5,4.6,2.7c0.8,0.4,0.9,0.4,1.7,0c0.4-0.2,4.3-2.5,4.5-2.6s0.3-0.2,0.3-0.4c0-0.2,0,0,0-0.2
						c0-0.2-0.2-0.3-0.5-0.4s-4.6-2.7-4.8-2.8C64.9,18.7,64.6,18.7,64.3,18.9z"/>
					<path class="st4" d="M59.1,21.9c0,0,4.9,2.8,5.1,3c0.6,0.3,0.6,0.3,1.2,0c0.3-0.2,5.1-2.9,5.1-2.9"/>
				</g>
				<g>
					<path class="st3" d="M71.1,22.8c-0.3,0.2-4.8,2.8-5,2.9c-0.2,0.1-0.2,0.2-0.2,0.5c0,0.2,0-0.1,0,0.1s0.1,0.2,0.2,0.3
						c0.3,0.2,4.4,2.5,4.6,2.7c0.8,0.4,0.9,0.4,1.7,0c0.4-0.2,4.3-2.5,4.5-2.6c0.2-0.1,0.3-0.2,0.3-0.4c0-0.2,0,0,0-0.2
						s-0.2-0.3-0.5-0.4s-4.6-2.7-4.8-2.8C71.7,22.7,71.4,22.7,71.1,22.8z"/>
					<path class="st4" d="M65.9,25.9c0,0,4.9,2.8,5.1,3c0.6,0.3,0.6,0.3,1.2,0c0.3-0.2,5.1-2.9,5.1-2.9"/>
				</g>
				<g>
					<path class="st3" d="M77.9,26.8c-0.3,0.2-4.8,2.8-5,2.9c-0.2,0.1-0.2,0.2-0.2,0.5s0-0.1,0,0.1s0.1,0.2,0.2,0.3
						c0.3,0.2,4.4,2.5,4.6,2.7c0.8,0.4,0.9,0.4,1.7,0c0.4-0.2,4.3-2.5,4.5-2.6c0.2-0.1,0.3-0.2,0.3-0.4s0,0,0-0.2
						c0-0.2-0.2-0.3-0.5-0.4c-0.3-0.2-4.6-2.7-4.8-2.8C78.5,26.6,78.2,26.6,77.9,26.8z"/>
					<path class="st4" d="M72.7,29.8c0,0,4.9,2.8,5.1,3c0.6,0.3,0.6,0.3,1.2,0c0.3-0.2,5.1-2.9,5.1-2.9"/>
				</g>
				<g>
					<path class="st3" d="M84.6,30.7c-0.3,0.2-4.8,2.8-5,2.9c-0.2,0.1-0.2,0.2-0.2,0.5c0,0.2,0-0.1,0,0.1s0.1,0.2,0.2,0.3
						c0.3,0.2,4.4,2.5,4.6,2.7c0.8,0.4,0.9,0.4,1.7,0c0.4-0.2,4.3-2.5,4.5-2.6c0.2-0.1,0.3-0.2,0.3-0.4s0,0,0-0.2s-0.2-0.3-0.5-0.4
						c-0.3-0.2-4.6-2.7-4.8-2.8C85.3,30.5,84.9,30.5,84.6,30.7z"/>
					<path class="st4" d="M79.4,33.7c0,0,4.9,2.8,5.1,3c0.6,0.3,0.6,0.3,1.2,0c0.3-0.2,5.1-2.9,5.1-2.9"/>
				</g>
				<g>
					<path class="st3" d="M91.4,34.6c-0.3,0.2-4.8,2.8-5,2.9c-0.2,0.1-0.2,0.2-0.2,0.5c0,0.2,0-0.1,0,0.1s0.1,0.2,0.2,0.3
						c0.3,0.2,4.4,2.5,4.6,2.7c0.8,0.4,0.9,0.4,1.7,0c0.4-0.2,4.3-2.5,4.5-2.6s0.3-0.2,0.3-0.4s0,0,0-0.2c0-0.2-0.2-0.3-0.5-0.4
						c-0.3-0.2-4.6-2.7-4.8-2.8C92.1,34.4,91.7,34.4,91.4,34.6z"/>
					<path class="st4" d="M86.2,37.6c0,0,4.9,2.8,5.1,3c0.6,0.3,0.6,0.3,1.2,0c0.3-0.2,5.1-2.9,5.1-2.9"/>
				</g>
				<g>
					<path class="st3" d="M98.2,38.5c-0.3,0.2-4.8,2.8-5,2.9C93,41.5,93,41.7,93,41.9c0,0.2,0-0.1,0,0.1s0.1,0.2,0.2,0.3
						c0.3,0.2,4.4,2.5,4.6,2.7c0.8,0.4,0.9,0.4,1.7,0c0.4-0.2,4.3-2.5,4.5-2.6c0.2-0.1,0.3-0.2,0.3-0.4c0-0.2,0,0,0-0.2
						c0-0.2-0.2-0.3-0.5-0.4c-0.3-0.2-4.6-2.7-4.8-2.8C98.8,38.3,98.5,38.3,98.2,38.5z"/>
					<path class="st4" d="M93,41.6c0,0,4.9,2.8,5.1,3c0.6,0.3,0.6,0.3,1.2,0c0.3-0.2,5.1-2.9,5.1-2.9"/>
				</g>
				<g>
					<path class="st3" d="M105,42.4c-0.3,0.2-4.8,2.8-5,2.9c-0.2,0.1-0.2,0.2-0.2,0.5c0,0.2,0-0.1,0,0.1s0.1,0.2,0.2,0.3
						c0.3,0.2,4.4,2.5,4.6,2.7c0.8,0.4,0.9,0.4,1.7,0c0.4-0.2,4.3-2.5,4.5-2.6s0.3-0.2,0.3-0.4s0,0,0-0.2s-0.2-0.3-0.5-0.4
						c-0.3-0.2-4.6-2.7-4.8-2.8C105.6,42.3,105.3,42.3,105,42.4z"/>
					<path class="st4" d="M99.8,45.5c0,0,4.9,2.8,5.1,3c0.6,0.3,0.6,0.3,1.2,0c0.3-0.2,5.1-2.9,5.1-2.9"/>
				</g>
				<g>
					<path class="st3" d="M111.8,46.4c-0.3,0.2-4.8,2.8-5,2.9c-0.2,0.1-0.2,0.2-0.2,0.5c0,0.2,0-0.1,0,0.1s0.1,0.2,0.2,0.3
						c0.3,0.2,4.4,2.5,4.6,2.7c0.8,0.4,0.9,0.4,1.7,0c0.4-0.2,4.3-2.5,4.5-2.6c0.2-0.1,0.3-0.2,0.3-0.4s0,0,0-0.2
						c0-0.2-0.2-0.3-0.5-0.4c-0.3-0.2-4.6-2.7-4.8-2.8C112.4,46.2,112.1,46.2,111.8,46.4z"/>
					<path class="st4" d="M106.6,49.4c0,0,4.9,2.8,5.1,3c0.6,0.3,0.6,0.3,1.2,0c0.3-0.2,5.1-2.9,5.1-2.9"/>
				</g>
				<g>
					<path class="st3" d="M118.5,50.3c-0.3,0.2-4.8,2.8-5,2.9c-0.2,0.1-0.2,0.2-0.2,0.5c0,0.2,0-0.1,0,0.1s0.1,0.2,0.2,0.3
						c0.3,0.2,4.4,2.5,4.6,2.7c0.8,0.4,0.9,0.4,1.7,0c0.4-0.2,4.3-2.5,4.5-2.6c0.2-0.1,0.3-0.2,0.3-0.4s0,0,0-0.2
						c0-0.2-0.2-0.3-0.5-0.4c-0.3-0.2-4.6-2.7-4.8-2.8C119.2,50.1,118.8,50.1,118.5,50.3z"/>
					<path class="st4" d="M113.3,53.3c0,0,4.9,2.8,5.1,3c0.6,0.3,0.6,0.3,1.2,0c0.3-0.2,5.1-2.9,5.1-2.9"/>
				</g>
				<g>
					<path class="st3" d="M125.3,54.2c-0.3,0.2-4.8,2.8-5,2.9c-0.2,0.1-0.2,0.2-0.2,0.5c0,0.2,0-0.1,0,0.1s0.1,0.2,0.2,0.3
						c0.3,0.2,4.4,2.5,4.6,2.7c0.8,0.4,0.9,0.4,1.7,0c0.4-0.2,4.3-2.5,4.5-2.6s0.3-0.2,0.3-0.4c0-0.2,0,0,0-0.2s-0.2-0.3-0.5-0.4
						c-0.3-0.2-4.6-2.7-4.8-2.8C126,54,125.6,54,125.3,54.2z"/>
					<path class="st4" d="M120.1,57.2c0,0,4.9,2.8,5.1,3c0.6,0.3,0.6,0.3,1.2,0c0.3-0.2,5.1-2.9,5.1-2.9"/>
				</g>
			</g>
			<g>
				<g>
					<path class="st3" d="M47.3,16.6c-0.3,0.2-4.8,2.8-5,2.9c-0.2,0.1-0.2,0.2-0.2,0.5s0-0.1,0,0.1s0.1,0.2,0.2,0.3
						c0.3,0.2,4.4,2.5,4.6,2.7c0.8,0.4,0.9,0.4,1.7,0c0.4-0.2,4.3-2.5,4.5-2.6c0.2-0.1,0.3-0.2,0.3-0.4s0,0,0-0.2
						c0-0.2-0.2-0.3-0.5-0.4c-0.3-0.2-4.6-2.7-4.8-2.8C47.9,16.4,47.6,16.4,47.3,16.6z"/>
					<path class="st4" d="M42.1,19.6c0,0,4.9,2.8,5.1,3c0.6,0.3,0.6,0.3,1.2,0c0.3-0.2,5.1-2.9,5.1-2.9"/>
				</g>
				<g>
					<path class="st3" d="M54.1,20.6c-0.3,0.2-4.8,2.8-5,2.9c-0.2,0.1-0.2,0.2-0.2,0.5s0-0.1,0,0.1s0.1,0.2,0.2,0.3
						c0.3,0.2,4.4,2.5,4.6,2.7c0.8,0.4,0.9,0.4,1.7,0c0.4-0.2,4.3-2.5,4.5-2.6c0.2-0.1,0.3-0.2,0.3-0.4c0-0.2,0,0,0-0.2
						s-0.2-0.3-0.5-0.4c-0.3-0.2-4.6-2.7-4.8-2.8C54.7,20.4,54.4,20.4,54.1,20.6z"/>
					<path class="st4" d="M48.9,23.6c0,0,4.9,2.8,5.1,3c0.6,0.3,0.6,0.3,1.2,0c0.3-0.2,5.1-2.9,5.1-2.9"/>
				</g>
				<g>
					<path class="st3" d="M60.9,24.5c-0.3,0.2-4.8,2.8-5,2.9c-0.2,0.1-0.2,0.2-0.2,0.5c0,0.2,0-0.1,0,0.1s0.1,0.2,0.2,0.3
						c0.3,0.2,4.4,2.5,4.6,2.7c0.8,0.4,0.9,0.4,1.7,0c0.4-0.2,4.3-2.5,4.5-2.6c0.2-0.1,0.3-0.2,0.3-0.4c0-0.2,0,0,0-0.2
						s-0.2-0.3-0.5-0.4s-4.6-2.7-4.8-2.8C61.6,24.3,61.2,24.3,60.9,24.5z"/>
					<path class="st4" d="M55.7,27.5c0,0,4.9,2.8,5.1,3c0.6,0.3,0.6,0.3,1.2,0c0.3-0.2,5.1-2.9,5.1-2.9"/>
				</g>
				<g>
					<path class="st3" d="M67.8,28.4c-0.3,0.2-4.8,2.8-5,2.9c-0.2,0.1-0.2,0.2-0.2,0.5s0-0.1,0,0.1c0,0.2,0.1,0.2,0.2,0.3
						c0.3,0.2,4.4,2.5,4.6,2.7c0.8,0.4,0.9,0.4,1.7,0c0.4-0.2,4.3-2.5,4.5-2.6c0.2-0.1,0.3-0.2,0.3-0.4c0-0.2,0,0,0-0.2
						c0-0.2-0.2-0.3-0.5-0.4c-0.3-0.2-4.6-2.7-4.8-2.8C68.4,28.3,68.1,28.3,67.8,28.4z"/>
					<path class="st4" d="M62.6,31.5c0,0,4.9,2.8,5.1,3c0.6,0.3,0.6,0.3,1.2,0c0.3-0.2,5.1-2.9,5.1-2.9"/>
				</g>
				<g>
					<path class="st3" d="M74.6,32.4c-0.3,0.2-4.8,2.8-5,2.9c-0.2,0.1-0.2,0.2-0.2,0.5c0,0.2,0-0.1,0,0.1s0.1,0.2,0.2,0.3
						c0.3,0.2,4.4,2.5,4.6,2.7c0.8,0.4,0.9,0.4,1.7,0c0.4-0.2,4.3-2.5,4.5-2.6c0.2-0.1,0.3-0.2,0.3-0.4c0-0.2,0,0,0-0.2
						c0-0.2-0.2-0.3-0.5-0.4s-4.6-2.7-4.8-2.8C75.2,32.2,74.9,32.2,74.6,32.4z"/>
					<path class="st4" d="M69.4,35.4c0,0,4.9,2.8,5.1,3c0.6,0.3,0.6,0.3,1.2,0c0.3-0.2,5.1-2.9,5.1-2.9"/>
				</g>
				<g>
					<path class="st3" d="M81.4,36.3c-0.3,0.2-4.8,2.8-5,2.9c-0.2,0.1-0.2,0.2-0.2,0.5c0,0.2,0-0.1,0,0.1s0.1,0.2,0.2,0.3
						c0.3,0.2,4.4,2.5,4.6,2.7c0.8,0.4,0.9,0.4,1.7,0c0.4-0.2,4.3-2.5,4.5-2.6c0.2-0.1,0.3-0.2,0.3-0.4c0-0.2,0,0,0-0.2
						c0-0.2-0.2-0.3-0.5-0.4c-0.3-0.2-4.6-2.7-4.8-2.8C82.1,36.1,81.7,36.1,81.4,36.3z"/>
					<path class="st4" d="M76.2,39.3c0,0,4.9,2.8,5.1,3c0.6,0.3,0.6,0.3,1.2,0c0.3-0.2,5.1-2.9,5.1-2.9"/>
				</g>
				<g>
					<path class="st3" d="M88.3,40.3c-0.3,0.2-4.8,2.8-5,2.9C83,43.3,83,43.4,83,43.6c0,0.2,0-0.1,0,0.1s0.1,0.2,0.2,0.3
						c0.3,0.2,4.4,2.5,4.6,2.7c0.8,0.4,0.9,0.4,1.7,0c0.4-0.2,4.3-2.5,4.5-2.6s0.3-0.2,0.3-0.4c0-0.2,0,0,0-0.2S94.3,43.2,94,43
						c-0.3-0.2-4.6-2.7-4.8-2.8C88.9,40.1,88.6,40.1,88.3,40.3z"/>
					<path class="st4" d="M83.1,43.3c0,0,4.9,2.8,5.1,3c0.6,0.3,0.6,0.3,1.2,0c0.3-0.2,5.1-2.9,5.1-2.9"/>
				</g>
				<g>
					<path class="st3" d="M95.1,44.2c-0.3,0.2-4.8,2.8-5,2.9c-0.2,0.1-0.2,0.2-0.2,0.5c0,0.2,0-0.1,0,0.1s0.1,0.2,0.2,0.3
						c0.3,0.2,4.4,2.5,4.6,2.7c0.8,0.4,0.9,0.4,1.7,0c0.4-0.2,4.3-2.5,4.5-2.6c0.2-0.1,0.3-0.2,0.3-0.4c0-0.2,0,0,0-0.2
						s-0.2-0.3-0.5-0.4c-0.3-0.2-4.6-2.7-4.8-2.8C95.7,44,95.4,44,95.1,44.2z"/>
					<path class="st4" d="M89.9,47.2c0,0,4.9,2.8,5.1,3c0.6,0.3,0.6,0.3,1.2,0c0.3-0.2,5.1-2.9,5.1-2.9"/>
				</g>
				<g>
					<path class="st3" d="M101.9,48.1c-0.3,0.2-4.8,2.8-5,2.9c-0.2,0.1-0.2,0.2-0.2,0.5c0,0.2,0-0.1,0,0.1s0.1,0.2,0.2,0.3
						c0.3,0.2,4.4,2.5,4.6,2.7c0.8,0.4,0.9,0.4,1.7,0c0.4-0.2,4.3-2.5,4.5-2.6s0.3-0.2,0.3-0.4c0-0.2,0,0,0-0.2s-0.2-0.3-0.5-0.4
						c-0.3-0.2-4.6-2.7-4.8-2.8C102.6,48,102.2,48,101.9,48.1z"/>
					<path class="st4" d="M96.7,51.2c0,0,4.9,2.8,5.1,3c0.6,0.3,0.6,0.3,1.2,0c0.3-0.2,5.1-2.9,5.1-2.9"/>
				</g>
				<g>
					<path class="st3" d="M108.7,52.1c-0.3,0.2-4.8,2.8-5,2.9c-0.2,0.1-0.2,0.2-0.2,0.5c0,0.2,0-0.1,0,0.1s0.1,0.2,0.2,0.3
						c0.3,0.2,4.4,2.5,4.6,2.7c0.8,0.4,0.9,0.4,1.7,0c0.4-0.2,4.3-2.5,4.5-2.6c0.2-0.1,0.3-0.2,0.3-0.4s0,0,0-0.2s-0.2-0.3-0.5-0.4
						c-0.3-0.2-4.6-2.7-4.8-2.8C109.4,51.9,109,51.9,108.7,52.1z"/>
					<path class="st4" d="M103.5,55.1c0,0,4.9,2.8,5.1,3c0.6,0.3,0.6,0.3,1.2,0c0.3-0.2,5.1-2.9,5.1-2.9"/>
				</g>
				<g>
					<path class="st3" d="M115.6,56c-0.3,0.2-4.8,2.8-5,2.9c-0.2,0.1-0.2,0.2-0.2,0.5c0,0.2,0-0.1,0,0.1s0.1,0.2,0.2,0.3
						c0.3,0.2,4.4,2.5,4.6,2.7c0.8,0.4,0.9,0.4,1.7,0c0.4-0.2,4.3-2.5,4.5-2.6s0.3-0.2,0.3-0.4s0,0,0-0.2c0-0.2-0.2-0.3-0.5-0.4
						c-0.3-0.2-4.6-2.7-4.8-2.8C116.2,55.8,115.9,55.8,115.6,56z"/>
					<path class="st4" d="M110.4,59.1c0,0,4.9,2.8,5.1,3c0.6,0.3,0.6,0.3,1.2,0c0.3-0.2,5.1-2.9,5.1-2.9"/>
				</g>
				<g>
					<path class="st3" d="M122.4,60c-0.3,0.2-4.8,2.8-5,2.9c-0.2,0.1-0.2,0.2-0.2,0.5c0,0.2,0-0.1,0,0.1s0.1,0.2,0.2,0.3
						c0.3,0.2,4.4,2.5,4.6,2.7c0.8,0.4,0.9,0.4,1.7,0c0.4-0.2,4.3-2.5,4.5-2.6c0.2-0.1,0.3-0.2,0.3-0.4s0,0,0-0.2
						c0-0.2-0.2-0.3-0.5-0.4c-0.3-0.2-4.6-2.7-4.8-2.8C123,59.8,122.7,59.8,122.4,60z"/>
					<path class="st4" d="M117.2,63c0,0,4.9,2.8,5.1,3c0.6,0.3,0.6,0.3,1.2,0c0.3-0.2,5.1-2.9,5.1-2.9"/>
				</g>
				<g>
					<path class="st3" d="M129.2,63.9c-0.3,0.2-4.8,2.8-5,2.9c-0.2,0.1-0.2,0.2-0.2,0.5s0-0.1,0,0.1c0,0.2,0.1,0.2,0.2,0.3
						c0.3,0.2,4.4,2.5,4.6,2.7c0.8,0.4,0.9,0.4,1.7,0c0.4-0.2,4.3-2.5,4.5-2.6c0.2-0.1,0.3-0.2,0.3-0.4c0-0.2,0,0,0-0.2
						c0-0.2-0.2-0.3-0.5-0.4s-4.6-2.7-4.8-2.8C129.9,63.7,129.5,63.7,129.2,63.9z"/>
					<path class="st4" d="M124,66.9c0,0,4.9,2.8,5.1,3c0.6,0.3,0.6,0.3,1.2,0c0.3-0.2,5.1-2.9,5.1-2.9"/>
				</g>
			</g>
			<g>
				<g>
					<path class="st3" d="M43,21.6c-0.3,0.2-4.8,2.8-5,2.9c-0.2,0.1-0.2,0.2-0.2,0.5s0-0.1,0,0.1s0.1,0.2,0.2,0.3
						c0.3,0.2,4.4,2.5,4.6,2.7c0.8,0.4,0.9,0.4,1.7,0c0.4-0.2,4.3-2.5,4.5-2.6c0.2-0.1,0.3-0.2,0.3-0.4c0-0.2,0,0,0-0.2
						c0-0.2-0.2-0.3-0.5-0.4c-0.3-0.2-4.6-2.7-4.8-2.8C43.7,21.4,43.3,21.4,43,21.6z"/>
					<path class="st4" d="M37.8,24.6c0,0,4.9,2.8,5.1,3c0.6,0.3,0.6,0.3,1.2,0c0.3-0.2,5.1-2.9,5.1-2.9"/>
				</g>
				<g>
					<path class="st3" d="M49.8,25.5c-0.3,0.2-4.8,2.8-5,2.9c-0.2,0.1-0.2,0.2-0.2,0.5c0,0.2,0-0.1,0,0.1s0.1,0.2,0.2,0.3
						c0.3,0.2,4.4,2.5,4.6,2.7c0.8,0.4,0.9,0.4,1.7,0c0.4-0.2,4.3-2.5,4.5-2.6c0.2-0.1,0.3-0.2,0.3-0.4c0-0.2,0,0,0-0.2
						s-0.2-0.3-0.5-0.4c-0.3-0.2-4.6-2.7-4.8-2.8C50.4,25.3,50.1,25.3,49.8,25.5z"/>
					<path class="st4" d="M44.6,28.5c0,0,4.9,2.8,5.1,3c0.6,0.3,0.6,0.3,1.2,0c0.3-0.2,5.1-2.9,5.1-2.9"/>
				</g>
				<g>
					<path class="st3" d="M56.6,29.4c-0.3,0.2-4.8,2.8-5,2.9c-0.2,0.1-0.2,0.2-0.2,0.5c0,0.2,0-0.1,0,0.1s0.1,0.2,0.2,0.3
						c0.3,0.2,4.4,2.5,4.6,2.7c0.8,0.4,0.9,0.4,1.7,0c0.4-0.2,4.3-2.5,4.5-2.6c0.2-0.1,0.3-0.2,0.3-0.4s0,0,0-0.2
						c0-0.2-0.2-0.3-0.5-0.4c-0.3-0.2-4.6-2.7-4.8-2.8C57.2,29.3,56.9,29.3,56.6,29.4z"/>
					<path class="st4" d="M51.3,32.5c0,0,4.9,2.8,5.1,3c0.6,0.3,0.6,0.3,1.2,0c0.3-0.2,5.1-2.9,5.1-2.9"/>
				</g>
				<g>
					<path class="st3" d="M63.3,33.4c-0.3,0.2-4.8,2.8-5,2.9c-0.2,0.1-0.2,0.2-0.2,0.5c0,0.2,0-0.1,0,0.1s0.1,0.2,0.2,0.3
						c0.3,0.2,4.4,2.5,4.6,2.7c0.8,0.4,0.9,0.4,1.7,0c0.4-0.2,4.3-2.5,4.5-2.6s0.3-0.2,0.3-0.4c0-0.2,0,0,0-0.2
						c0-0.2-0.2-0.3-0.5-0.4c-0.3-0.2-4.6-2.7-4.8-2.8C64,33.2,63.6,33.2,63.3,33.4z"/>
					<path class="st4" d="M58.1,36.4c0,0,4.9,2.8,5.1,3c0.6,0.3,0.6,0.3,1.2,0c0.3-0.2,5.1-2.9,5.1-2.9"/>
				</g>
				<g>
					<path class="st3" d="M70.1,37.3c-0.3,0.2-4.8,2.8-5,2.9c-0.2,0.1-0.2,0.2-0.2,0.5c0,0.2,0-0.1,0,0.1s0.1,0.2,0.2,0.3
						c0.3,0.2,4.4,2.5,4.6,2.7c0.8,0.4,0.9,0.4,1.7,0c0.4-0.2,4.3-2.5,4.5-2.6c0.2-0.1,0.3-0.2,0.3-0.4s0,0,0-0.2
						c0-0.2-0.2-0.3-0.5-0.4c-0.3-0.2-4.6-2.7-4.8-2.8C70.7,37.1,70.4,37.1,70.1,37.3z"/>
					<path class="st4" d="M64.9,40.3c0,0,4.9,2.8,5.1,3c0.6,0.3,0.6,0.3,1.2,0c0.3-0.2,5.1-2.9,5.1-2.9"/>
				</g>
				<g>
					<path class="st3" d="M76.8,41.2c-0.3,0.2-4.8,2.8-5,2.9c-0.2,0.1-0.2,0.2-0.2,0.5c0,0.2,0-0.1,0,0.1s0.1,0.2,0.2,0.3
						c0.3,0.2,4.4,2.5,4.6,2.7c0.8,0.4,0.9,0.4,1.7,0c0.4-0.2,4.3-2.5,4.5-2.6c0.2-0.1,0.3-0.2,0.3-0.4s0,0,0-0.2
						c0-0.2-0.2-0.3-0.5-0.4c-0.3-0.2-4.6-2.7-4.8-2.8C77.5,41,77.1,41,76.8,41.2z"/>
					<path class="st4" d="M71.6,44.2c0,0,4.9,2.8,5.1,3c0.6,0.3,0.6,0.3,1.2,0c0.3-0.2,5.1-2.9,5.1-2.9"/>
				</g>
				<g>
					<path class="st3" d="M83.6,45.1c-0.3,0.2-4.8,2.8-5,2.9c-0.2,0.1-0.2,0.2-0.2,0.5c0,0.2,0-0.1,0,0.1s0.1,0.2,0.2,0.3
						c0.3,0.2,4.4,2.5,4.6,2.7c0.8,0.4,0.9,0.4,1.7,0c0.4-0.2,4.3-2.5,4.5-2.6s0.3-0.2,0.3-0.4c0-0.2,0,0,0-0.2s-0.2-0.3-0.5-0.4
						c-0.3-0.2-4.6-2.7-4.8-2.8C84.2,44.9,83.9,44.9,83.6,45.1z"/>
					<path class="st4" d="M78.4,48.1c0,0,4.9,2.8,5.1,3c0.6,0.3,0.6,0.3,1.2,0c0.3-0.2,5.1-2.9,5.1-2.9"/>
				</g>
				<g>
					<path class="st3" d="M90.3,49c-0.3,0.2-4.8,2.8-5,2.9c-0.2,0.1-0.2,0.2-0.2,0.5s0-0.1,0,0.1s0.1,0.2,0.2,0.3
						c0.3,0.2,4.4,2.5,4.6,2.7c0.8,0.4,0.9,0.4,1.7,0c0.4-0.2,4.3-2.5,4.5-2.6s0.3-0.2,0.3-0.4s0,0,0-0.2c0-0.2-0.2-0.3-0.5-0.4
						c-0.3-0.2-4.6-2.7-4.8-2.8C91,48.8,90.7,48.8,90.3,49z"/>
					<path class="st4" d="M85.1,52c0,0,4.9,2.8,5.1,3c0.6,0.3,0.6,0.3,1.2,0c0.3-0.2,5.1-2.9,5.1-2.9"/>
				</g>
				<g>
					<path class="st3" d="M97.1,52.9c-0.3,0.2-4.8,2.8-5,2.9c-0.2,0.1-0.2,0.2-0.2,0.5c0,0.2,0-0.1,0,0.1s0.1,0.2,0.2,0.3
						c0.3,0.2,4.4,2.5,4.6,2.7c0.8,0.4,0.9,0.4,1.7,0c0.4-0.2,4.3-2.5,4.5-2.6c0.2-0.1,0.3-0.2,0.3-0.4s0,0,0-0.2
						c0-0.2-0.2-0.3-0.5-0.4c-0.3-0.2-4.6-2.7-4.8-2.8C97.7,52.8,97.4,52.8,97.1,52.9z"/>
					<path class="st4" d="M91.9,56c0,0,4.9,2.8,5.1,3c0.6,0.3,0.6,0.3,1.2,0c0.3-0.2,5.1-2.9,5.1-2.9"/>
				</g>
				<g>
					<path class="st3" d="M103.9,56.9c-0.3,0.2-4.8,2.8-5,2.9c-0.2,0.1-0.2,0.2-0.2,0.5c0,0.2,0-0.1,0,0.1s0.1,0.2,0.2,0.3
						c0.3,0.2,4.4,2.5,4.6,2.7c0.8,0.4,0.9,0.4,1.7,0c0.4-0.2,4.3-2.5,4.5-2.6s0.3-0.2,0.3-0.4c0-0.2,0,0,0-0.2s-0.2-0.3-0.5-0.4
						c-0.3-0.2-4.6-2.7-4.8-2.8C104.5,56.7,104.2,56.7,103.9,56.9z"/>
					<path class="st4" d="M98.7,59.9c0,0,4.9,2.8,5.1,3c0.6,0.3,0.6,0.3,1.2,0c0.3-0.2,5.1-2.9,5.1-2.9"/>
				</g>
				<g>
					<path class="st3" d="M110.6,60.8c-0.3,0.2-4.8,2.8-5,2.9c-0.2,0.1-0.2,0.2-0.2,0.5c0,0.2,0-0.1,0,0.1c0,0.2,0.1,0.2,0.2,0.3
						c0.3,0.2,4.4,2.5,4.6,2.7c0.8,0.4,0.9,0.4,1.7,0c0.4-0.2,4.3-2.5,4.5-2.6c0.2-0.1,0.3-0.2,0.3-0.4c0-0.2,0,0,0-0.2
						c0-0.2-0.2-0.3-0.5-0.4c-0.3-0.2-4.6-2.7-4.8-2.8C111.3,60.6,110.9,60.6,110.6,60.8z"/>
					<path class="st4" d="M105.4,63.8c0,0,4.9,2.8,5.1,3c0.6,0.3,0.6,0.3,1.2,0c0.3-0.2,5.1-2.9,5.1-2.9"/>
				</g>
			</g>
			<g>
				<g>
					<path class="st3" d="M39.3,27.3c-0.3,0.2-4.8,2.8-5,2.9c-0.2,0.1-0.2,0.2-0.2,0.5s0-0.1,0,0.1s0.1,0.2,0.2,0.3
						c0.3,0.2,4.4,2.5,4.6,2.7c0.8,0.4,0.9,0.4,1.7,0c0.4-0.2,4.3-2.5,4.5-2.6c0.2-0.1,0.3-0.2,0.3-0.4s0,0,0-0.2
						c0-0.2-0.2-0.3-0.5-0.4c-0.3-0.2-4.6-2.7-4.8-2.8C40,27.1,39.6,27.1,39.3,27.3z"/>
					<path class="st4" d="M34.1,30.3c0,0,4.9,2.8,5.1,3c0.6,0.3,0.6,0.3,1.2,0c0.3-0.2,5.1-2.9,5.1-2.9"/>
				</g>
				<g>
					<path class="st3" d="M46.1,31.2c-0.3,0.2-4.8,2.8-5,2.9c-0.2,0.1-0.2,0.2-0.2,0.5c0,0.2,0-0.1,0,0.1s0.1,0.2,0.2,0.3
						c0.3,0.2,4.4,2.5,4.6,2.7c0.8,0.4,0.9,0.4,1.7,0c0.4-0.2,4.3-2.5,4.5-2.6c0.2-0.1,0.3-0.2,0.3-0.4c0-0.2,0,0,0-0.2
						s-0.2-0.3-0.5-0.4c-0.3-0.2-4.6-2.7-4.8-2.8C46.8,31,46.4,31,46.1,31.2z"/>
					<path class="st4" d="M40.9,34.2c0,0,4.9,2.8,5.1,3c0.6,0.3,0.6,0.3,1.2,0c0.3-0.2,5.1-2.9,5.1-2.9"/>
				</g>
				<g>
					<path class="st3" d="M52.9,35.1c-0.3,0.2-4.8,2.8-5,2.9c-0.2,0.1-0.2,0.2-0.2,0.5c0,0.2,0-0.1,0,0.1s0.1,0.2,0.2,0.3
						c0.3,0.2,4.4,2.5,4.6,2.7c0.8,0.4,0.9,0.4,1.7,0c0.4-0.2,4.3-2.5,4.5-2.6s0.3-0.2,0.3-0.4c0-0.2,0,0,0-0.2S59,38,58.7,37.8
						c-0.3-0.2-4.6-2.7-4.8-2.8C53.6,34.9,53.3,34.9,52.9,35.1z"/>
					<path class="st4" d="M47.7,38.1c0,0,4.9,2.8,5.1,3c0.6,0.3,0.6,0.3,1.2,0c0.3-0.2,5.1-2.9,5.1-2.9"/>
				</g>
				<g>
					<path class="st3" d="M59.8,39c-0.3,0.2-4.8,2.8-5,2.9c-0.2,0.1-0.2,0.2-0.2,0.5c0,0.2,0-0.1,0,0.1s0.1,0.2,0.2,0.3
						c0.3,0.2,4.4,2.5,4.6,2.7c0.8,0.4,0.9,0.4,1.7,0c0.4-0.2,4.3-2.5,4.5-2.6s0.3-0.2,0.3-0.4c0-0.2,0,0,0-0.2s-0.2-0.3-0.5-0.4
						c-0.3-0.2-4.6-2.7-4.8-2.8C60.4,38.8,60.1,38.8,59.8,39z"/>
					<path class="st4" d="M54.6,42c0,0,4.9,2.8,5.1,3c0.6,0.3,0.6,0.3,1.2,0c0.3-0.2,5.1-2.9,5.1-2.9"/>
				</g>
				<g>
					<path class="st3" d="M66.6,42.9c-0.3,0.2-4.8,2.8-5,2.9c-0.2,0.1-0.2,0.2-0.2,0.5c0,0.2,0-0.1,0,0.1s0.1,0.2,0.2,0.3
						c0.3,0.2,4.4,2.5,4.6,2.7c0.8,0.4,0.9,0.4,1.7,0c0.4-0.2,4.3-2.5,4.5-2.6s0.3-0.2,0.3-0.4s0,0,0-0.2s-0.2-0.3-0.5-0.4
						c-0.3-0.2-4.6-2.7-4.8-2.8C67.2,42.7,66.9,42.7,66.6,42.9z"/>
					<path class="st4" d="M61.4,45.9c0,0,4.9,2.8,5.1,3c0.6,0.3,0.6,0.3,1.2,0c0.3-0.2,5.1-2.9,5.1-2.9"/>
				</g>
				<g>
					<path class="st3" d="M73.4,46.8c-0.3,0.2-4.8,2.8-5,2.9c-0.2,0.1-0.2,0.2-0.2,0.5c0,0.2,0-0.1,0,0.1s0.1,0.2,0.2,0.3
						c0.3,0.2,4.4,2.5,4.6,2.7c0.8,0.4,0.9,0.4,1.7,0c0.4-0.2,4.3-2.5,4.5-2.6c0.2-0.1,0.3-0.2,0.3-0.4s0,0,0-0.2s-0.2-0.3-0.5-0.4
						c-0.3-0.2-4.6-2.7-4.8-2.8C74,46.6,73.7,46.6,73.4,46.8z"/>
					<path class="st4" d="M68.2,49.8c0,0,4.9,2.8,5.1,3c0.6,0.3,0.6,0.3,1.2,0c0.3-0.2,5.1-2.9,5.1-2.9"/>
				</g>
				<g>
					<path class="st3" d="M80.2,50.7c-0.3,0.2-4.8,2.8-5,2.9C75,53.7,75,53.8,75,54.1c0,0.2,0-0.1,0,0.1s0.1,0.2,0.2,0.3
						c0.3,0.2,4.4,2.5,4.6,2.7c0.8,0.4,0.9,0.4,1.7,0c0.4-0.2,4.3-2.5,4.5-2.6s0.3-0.2,0.3-0.4s0,0,0-0.2c0-0.2-0.2-0.3-0.5-0.4
						c-0.3-0.2-4.6-2.7-4.8-2.8C80.9,50.5,80.5,50.5,80.2,50.7z"/>
					<path class="st4" d="M75,53.7c0,0,4.9,2.8,5.1,3c0.6,0.3,0.6,0.3,1.2,0c0.3-0.2,5.1-2.9,5.1-2.9"/>
				</g>
				<g>
					<path class="st3" d="M87,54.6c-0.3,0.2-4.8,2.8-5,2.9c-0.2,0.1-0.2,0.2-0.2,0.5c0,0.2,0-0.1,0,0.1s0.1,0.2,0.2,0.3
						c0.3,0.2,4.4,2.5,4.6,2.7c0.8,0.4,0.9,0.4,1.7,0c0.4-0.2,4.3-2.5,4.5-2.6s0.3-0.2,0.3-0.4s0,0,0-0.2c0-0.2-0.2-0.3-0.5-0.4
						c-0.3-0.2-4.6-2.7-4.8-2.8C87.7,54.4,87.3,54.4,87,54.6z"/>
					<path class="st4" d="M81.8,57.6c0,0,4.9,2.8,5.1,3c0.6,0.3,0.6,0.3,1.2,0c0.3-0.2,5.1-2.9,5.1-2.9"/>
				</g>
				<g>
					<path class="st3" d="M93.9,58.5c-0.3,0.2-4.8,2.8-5,2.9c-0.2,0.1-0.2,0.2-0.2,0.5s0-0.1,0,0.1s0.1,0.2,0.2,0.3
						c0.3,0.2,4.4,2.5,4.6,2.7c0.8,0.4,0.9,0.4,1.7,0c0.4-0.2,4.3-2.5,4.5-2.6c0.2-0.1,0.3-0.2,0.3-0.4s0,0,0-0.2
						c0-0.2-0.2-0.3-0.5-0.4c-0.3-0.2-4.6-2.7-4.8-2.8C94.5,58.3,94.2,58.3,93.9,58.5z"/>
					<path class="st4" d="M88.7,61.6c0,0,4.9,2.8,5.1,3c0.6,0.3,0.6,0.3,1.2,0c0.3-0.2,5.1-2.9,5.1-2.9"/>
				</g>
				<g>
					<path class="st3" d="M100.7,62.4c-0.3,0.2-4.8,2.8-5,2.9c-0.2,0.1-0.2,0.2-0.2,0.5s0-0.1,0,0.1c0,0.2,0.1,0.2,0.2,0.3
						c0.3,0.2,4.4,2.5,4.6,2.7c0.8,0.4,0.9,0.4,1.7,0c0.4-0.2,4.3-2.5,4.5-2.6c0.2-0.1,0.3-0.2,0.3-0.4c0-0.2,0,0,0-0.2
						c0-0.2-0.2-0.3-0.5-0.4c-0.3-0.2-4.6-2.7-4.8-2.8C101.3,62.3,101,62.3,100.7,62.4z"/>
					<path class="st4" d="M95.5,65.5c0,0,4.9,2.8,5.1,3c0.6,0.3,0.6,0.3,1.2,0c0.3-0.2,5.1-2.9,5.1-2.9"/>
				</g>
			</g>
			<g>
				<path class="st3" d="M16.6,23.1c-0.3,0.2-4.8,2.8-5,2.9c-0.2,0.1-0.2,0.2-0.2,0.5s0-0.1,0,0.1c0,0.2,0.1,0.2,0.2,0.3
					c0.3,0.2,4.4,2.5,4.6,2.6c0.8,0.4,0.9,0.4,1.7,0c0.4-0.2,4.3-2.5,4.5-2.6s0.3-0.2,0.3-0.4c0-0.2,0,0,0-0.2
					c0-0.2-0.2-0.3-0.5-0.4c-0.3-0.2-4.6-2.6-4.7-2.7C17.2,22.9,16.9,22.9,16.6,23.1z"/>
				<path class="st4" d="M11.4,26.1c0,0,4.8,2.8,5.1,2.9c0.6,0.3,0.6,0.3,1.1,0c0.3-0.2,5.1-2.9,5.1-2.9"/>
			</g>
			<g>
				<path class="st3" d="M88,64.2c-0.3,0.2-4.8,2.8-5,2.9c-0.2,0.1-0.2,0.2-0.2,0.5c0,0.2,0-0.1,0,0.1c0,0.2,0.1,0.2,0.2,0.3
					c0.3,0.2,4.4,2.5,4.6,2.7c0.8,0.4,0.9,0.4,1.7,0c0.4-0.2,4.3-2.5,4.5-2.6c0.2-0.1,0.3-0.2,0.3-0.4c0-0.2,0,0,0-0.2
					c0-0.2-0.2-0.3-0.5-0.4c-0.3-0.2-4.6-2.7-4.8-2.8C88.7,64,88.3,64,88,64.2z"/>
				<path class="st4" d="M82.8,67.3c0,0,4.9,2.8,5.1,3c0.6,0.3,0.6,0.3,1.2,0c0.3-0.2,5.1-2.9,5.1-2.9"/>
			</g>
			<g>
				<path class="st3" d="M79.6,59.4c-0.3,0.2-4.8,2.8-5,2.9c-0.2,0.1-0.2,0.2-0.2,0.5c0,0.2,0-0.1,0,0.1s0.1,0.2,0.2,0.3
					c0.3,0.2,6.3,3.6,6.5,3.7c0.8,0.4,0.9,0.4,1.7,0c0.4-0.2,4.3-2.5,4.5-2.6c0.2-0.1,0.3-0.2,0.3-0.4s0,0,0-0.2
					c0-0.2-0.2-0.3-0.5-0.4c-0.3-0.2-6.5-3.7-6.6-3.8C80.3,59.2,79.9,59.2,79.6,59.4z"/>
				<path class="st4" d="M74.4,62.4c0,0,6.7,3.9,7,4c0.6,0.3,0.6,0.3,1.2,0c0.3-0.2,5.1-2.9,5.1-2.9"/>
			</g>
			<g>
				<path class="st3" d="M132,58c-0.3,0.2-4.8,2.8-5,2.9c-0.2,0.1-0.2,0.2-0.2,0.5c0,0.2,0-0.1,0,0.1s0.1,0.2,0.2,0.3
					c0.3,0.2,8.1,4.7,8.3,4.9c0.8,0.4,0.9,0.4,1.7,0c0.4-0.2,4.3-2.5,4.5-2.6c0.2-0.1,0.3-0.2,0.3-0.4s0,0,0-0.2
					c0-0.2-0.2-0.3-0.5-0.4c-0.3-0.2-8.3-4.9-8.4-5C132.6,57.8,132.3,57.9,132,58z"/>
				<path class="st4" d="M126.8,61.1c0,0,8.6,5,8.8,5.2c0.6,0.3,0.6,0.3,1.2,0c0.3-0.2,5.1-2.9,5.1-2.9"/>
			</g>
			<g>
				<path class="st3" d="M117.4,64.8c-0.3,0.2-4.8,2.8-5,2.9c-0.2,0.1-0.2,0.2-0.2,0.5c0,0.2,0-0.1,0,0.1c0,0.2,0.1,0.2,0.2,0.3
					c0.3,0.2,9.5,5.5,9.7,5.6c0.8,0.4,0.9,0.4,1.7,0c0.4-0.2,4.3-2.5,4.5-2.6c0.2-0.1,0.3-0.2,0.3-0.4c0-0.2,0,0,0-0.2
					c0-0.2-0.2-0.3-0.5-0.4c-0.3-0.2-9.6-5.6-9.8-5.7C118,64.7,117.7,64.7,117.4,64.8z"/>
				<path class="st4" d="M112.2,67.9c0,0,9.9,5.8,10.2,5.9c0.6,0.3,0.6,0.3,1.2,0c0.3-0.2,5.1-2.9,5.1-2.9"/>
			</g>
			<g>
				<path class="st3" d="M107.3,66.3c-0.3,0.2-4.8,2.8-5,2.9c-0.2,0.1-0.2,0.2-0.2,0.5s0-0.1,0,0.1c0,0.2,0.1,0.2,0.2,0.3
					c0.3,0.2,13.3,7.7,13.5,7.9c0.8,0.4,0.9,0.4,1.7,0c0.4-0.2,4.3-2.5,4.5-2.6c0.2-0.1,0.3-0.2,0.3-0.4c0-0.2,0,0,0-0.2
					s-0.2-0.3-0.5-0.4c-0.3-0.2-13.4-7.9-13.6-7.9C108,66.2,107.6,66.2,107.3,66.3z"/>
				<path class="st4" d="M102.1,69.4c0,0,13.7,8,13.9,8.2c0.6,0.3,0.6,0.3,1.2,0c0.3-0.2,5.1-2.9,5.1-2.9"/>
			</g>
			<g>
				<path class="st3" d="M24.2,18.3c-0.3,0.2-4.8,2.8-5,2.9C19,21.4,19,21.5,19,21.7s0-0.1,0,0.1s0.1,0.2,0.2,0.3
					c0.3,0.2,13.3,7.7,13.5,7.9c0.8,0.4,0.9,0.4,1.7,0c0.4-0.2,4.3-2.5,4.5-2.6c0.2-0.1,0.3-0.2,0.3-0.4c0-0.2,0,0,0-0.2
					c0-0.2-0.2-0.3-0.5-0.4s-13.4-7.9-13.6-7.9C24.9,18.2,24.5,18.2,24.2,18.3z"/>
				<path class="st4" d="M19,21.4c0,0,13.7,8,13.9,8.2c0.6,0.3,0.6,0.3,1.2,0c0.3-0.2,5.1-2.9,5.1-2.9"/>
			</g>
			<g>
				<path class="st3" d="M31.1,14.7c-0.3,0.2-4.8,2.8-5,2.9c-0.2,0.1-0.2,0.2-0.2,0.5c0,0.2,0-0.1,0,0.1s0.1,0.2,0.2,0.3
					c0.3,0.2,9.5,5.5,9.7,5.6c0.8,0.4,0.9,0.4,1.7,0c0.4-0.2,4.3-2.5,4.5-2.6c0.2-0.1,0.3-0.2,0.3-0.4c0-0.2,0,0,0-0.2
					c0-0.2-0.2-0.3-0.5-0.4s-9.6-5.6-9.8-5.7C31.7,14.5,31.4,14.5,31.1,14.7z"/>
				<path class="st4" d="M25.9,17.7c0,0,9.9,5.8,10.2,5.9c0.6,0.3,0.6,0.3,1.2,0c0.3-0.2,5.1-2.9,5.1-2.9"/>
			</g>
			<g>
				<path class="st3" d="M43.9,7.3c-0.3,0.2-4.8,2.8-5,2.9c-0.2,0.1-0.2,0.2-0.2,0.5s0-0.1,0,0.1s0.1,0.2,0.2,0.3
					c0.3,0.2,4.4,2.5,4.6,2.7c0.8,0.4,0.9,0.4,1.7,0c0.4-0.2,4.3-2.5,4.5-2.6c0.2-0.1,0.3-0.2,0.3-0.4c0-0.2,0,0,0-0.2
					s-0.2-0.3-0.5-0.4c-0.3-0.2-4.6-2.7-4.8-2.8C44.6,7.1,44.3,7.1,43.9,7.3z"/>
				<path class="st4" d="M38.7,10.3c0,0,4.9,2.8,5.1,3c0.6,0.3,0.6,0.3,1.2,0c0.3-0.2,5.1-2.9,5.1-2.9"/>
			</g>
			<g>
				<path class="st3" d="M23.3,26.9c-0.3,0.2-4.8,2.8-5,2.9c-0.2,0.1-0.2,0.2-0.2,0.5c0,0.2,0-0.1,0,0.1s0.1,0.2,0.2,0.3
					c0.3,0.2,4.4,2.5,4.6,2.7c0.8,0.4,0.9,0.4,1.7,0c0.4-0.2,4.3-2.5,4.5-2.6c0.2-0.1,0.3-0.2,0.3-0.4c0-0.2,0,0,0-0.2
					c0-0.2-0.2-0.3-0.5-0.4c-0.3-0.2-4.6-2.7-4.8-2.8C23.9,26.7,23.6,26.7,23.3,26.9z"/>
				<path class="st4" d="M18.1,29.9c0,0,4.9,2.8,5.1,3c0.6,0.3,0.6,0.3,1.2,0c0.3-0.2,5.1-2.9,5.1-2.9"/>
			</g>
			<g>
				<path class="st3" d="M30.1,30.9c-0.3,0.2-4.8,2.8-5,2.9c-0.2,0.1-0.2,0.2-0.2,0.5c0,0.2,0-0.1,0,0.1s0.1,0.2,0.2,0.3
					c0.3,0.2,4.4,2.5,4.6,2.7c0.8,0.4,0.9,0.4,1.7,0c0.4-0.2,4.3-2.5,4.5-2.6c0.2-0.1,0.3-0.2,0.3-0.4s0,0,0-0.2
					c0-0.2-0.2-0.3-0.5-0.4c-0.3-0.2-4.6-2.7-4.8-2.8C30.7,30.7,30.4,30.7,30.1,30.9z"/>
				<path class="st4" d="M24.9,33.9c0,0,4.9,2.8,5.1,3c0.6,0.3,0.6,0.3,1.2,0c0.3-0.2,5.1-2.9,5.1-2.9"/>
			</g>
			<g>
				<path class="st3" d="M37.2,34.9c-0.3,0.2-4.8,2.8-5,2.9C32,37.9,32,38,32,38.2c0,0.2,0-0.1,0,0.1s0.1,0.2,0.2,0.3
					c0.3,0.2,6.3,3.6,6.5,3.7c0.8,0.4,0.9,0.4,1.7,0c0.4-0.2,4.3-2.5,4.5-2.6c0.2-0.1,0.3-0.2,0.3-0.4s0,0,0-0.2
					c0-0.2-0.2-0.3-0.5-0.4c-0.3-0.2-6.5-3.7-6.6-3.8C37.9,34.7,37.5,34.7,37.2,34.9z"/>
				<path class="st4" d="M32,37.9c0,0,6.7,3.9,7,4c0.6,0.3,0.6,0.3,1.2,0c0.3-0.2,5.1-2.9,5.1-2.9"/>
			</g>
			<g>
				<path class="st3" d="M45.8,39.9c-0.3,0.2-4.8,2.8-5,2.9c-0.2,0.1-0.2,0.2-0.2,0.5c0,0.2,0-0.1,0,0.1s0.1,0.2,0.2,0.3
					c0.3,0.2,31.8,18.3,32,18.4c0.8,0.4,0.9,0.4,1.7,0c0.4-0.2,4.3-2.5,4.5-2.6c0.2-0.1,0.3-0.2,0.3-0.4s0,0,0-0.2
					c0-0.2-0.2-0.3-0.5-0.4c-0.3-0.2-32-18.4-32.1-18.5C46.4,39.7,46.1,39.7,45.8,39.9z"/>
				<path class="st4" d="M40.6,42.9c0,0,32.2,18.6,32.5,18.7c0.6,0.3,0.6,0.3,1.2,0c0.3-0.2,5.1-2.9,5.1-2.9"/>
			</g>
			<g>
				<path class="st3" d="M92.4,69.5c-0.3,0.2-2.6,1.5-2.7,1.5c-0.2,0.1-0.2,0.2-0.2,0.5c0,0.2,0-0.1,0,0.1c0,0.2,0.1,0.2,0.2,0.3
					c0.3,0.2,4.4,2.5,4.6,2.7c0.8,0.4,0.9,0.4,1.7,0c0.4-0.2,2.1-1.2,2.3-1.3s0.3-0.2,0.3-0.4c0-0.2,0,0,0-0.2
					c0-0.2-0.2-0.3-0.5-0.4s-4.6-2.7-4.8-2.8C93.1,69.3,92.7,69.3,92.4,69.5z"/>
				<path class="st4" d="M89.5,71.2c0,0,4.9,2.8,5.1,3c0.6,0.3,0.6,0.3,1.2,0c0.3-0.2,2.8-1.6,2.8-1.6"/>
			</g>
			<g>
				<path class="st3" d="M102.9,71.3c-0.3,0.2-2.6,1.5-2.7,1.5c-0.2,0.1-0.2,0.2-0.2,0.5s0-0.1,0,0.1c0,0.2,0.1,0.2,0.2,0.3
					c0.3,0.2,4.4,2.5,4.6,2.7c0.8,0.4,0.9,0.4,1.7,0c0.4-0.2,2.1-1.2,2.3-1.3c0.2-0.1,0.3-0.2,0.3-0.4c0-0.2,0,0,0-0.2
					s-0.2-0.3-0.5-0.4c-0.3-0.2-4.6-2.7-4.8-2.8C103.5,71.1,103.2,71.1,102.9,71.3z"/>
				<path class="st4" d="M99.9,73c0,0,4.9,2.8,5.1,3c0.6,0.3,0.6,0.3,1.2,0c0.3-0.2,2.8-1.6,2.8-1.6"/>
			</g>
			<g>
				<path class="st3" d="M99.2,73.4c-0.3,0.2-2.6,1.5-2.7,1.5c-0.2,0.1-0.2,0.2-0.2,0.5s0-0.1,0,0.1c0,0.2,0.1,0.2,0.2,0.3
					c0.3,0.2,4.4,2.5,4.6,2.7c0.8,0.4,0.9,0.4,1.7,0c0.4-0.2,2.1-1.2,2.3-1.3c0.2-0.1,0.3-0.2,0.3-0.4s0,0,0-0.2s-0.2-0.3-0.5-0.4
					c-0.3-0.2-4.6-2.7-4.8-2.8C99.9,73.2,99.5,73.2,99.2,73.4z"/>
				<path class="st4" d="M96.3,75c0,0,4.9,2.8,5.1,3c0.6,0.3,0.6,0.3,1.2,0c0.3-0.2,2.8-1.6,2.8-1.6"/>
			</g>
			<g>
				<path class="st3" d="M106,77.3c-0.3,0.2-2.6,1.5-2.7,1.5c-0.2,0.1-0.2,0.2-0.2,0.5s0-0.1,0,0.1c0,0.2,0.1,0.2,0.2,0.3
					c0.3,0.2,4.4,2.5,4.6,2.7c0.8,0.4,0.9,0.4,1.7,0c0.4-0.2,2.1-1.2,2.3-1.3c0.2-0.1,0.3-0.2,0.3-0.4c0-0.2,0,0,0-0.2
					s-0.2-0.3-0.5-0.4c-0.3-0.2-4.6-2.7-4.8-2.8C106.7,77.2,106.3,77.2,106,77.3z"/>
				<path class="st4" d="M103.1,79c0,0,4.9,2.8,5.1,3c0.6,0.3,0.6,0.3,1.2,0c0.3-0.2,2.8-1.6,2.8-1.6"/>
			</g>
			<g>
				<g>
					<path class="st3" d="M51,2.9c-0.3,0.2-4.8,2.8-5,2.9c-0.2,0.1-0.2,0.2-0.2,0.5c0,0.2,0-0.1,0,0.1s0.1,0.2,0.2,0.3
						c0.3,0.2,4.4,2.5,4.6,2.7c0.8,0.4,0.9,0.4,1.7,0c0.4-0.2,4.3-2.5,4.5-2.6c0.2-0.1,0.3-0.2,0.3-0.4c0-0.2,0,0,0-0.2
						S57,5.9,56.7,5.7c-0.3-0.2-4.6-2.7-4.8-2.8C51.6,2.8,51.3,2.8,51,2.9z"/>
					<path class="st4" d="M45.8,6c0,0,4.9,2.8,5.1,3c0.6,0.3,0.6,0.3,1.2,0C52.4,8.7,57.1,6,57.1,6"/>
				</g>
				<g>
					<path class="st3" d="M58,7c-0.3,0.2-4.8,2.8-5,2.9c-0.2,0.1-0.2,0.2-0.2,0.5s0-0.1,0,0.1s0.1,0.2,0.2,0.3
						c0.3,0.2,4.4,2.5,4.6,2.7c0.8,0.4,0.9,0.4,1.7,0c0.4-0.2,4.3-2.5,4.5-2.6c0.2-0.1,0.3-0.2,0.3-0.4c0-0.2,0,0,0-0.2
						c0-0.2-0.2-0.3-0.5-0.4C63.5,9.6,59.1,7.1,59,7C58.7,6.9,58.3,6.9,58,7z"/>
					<path class="st4" d="M52.8,10.1c0,0,4.9,2.8,5.1,3c0.6,0.3,0.6,0.3,1.2,0c0.3-0.2,5.1-2.9,5.1-2.9"/>
				</g>
				<g>
					<path class="st3" d="M65.1,11.1c-0.3,0.2-4.8,2.8-5,2.9c-0.2,0.1-0.2,0.2-0.2,0.5s0-0.1,0,0.1s0.1,0.2,0.2,0.3
						c0.3,0.2,4.4,2.5,4.6,2.7c0.8,0.4,0.9,0.4,1.7,0c0.4-0.2,4.3-2.5,4.5-2.6c0.2-0.1,0.3-0.2,0.3-0.4c0-0.2,0,0,0-0.2
						s-0.2-0.3-0.5-0.4c-0.3-0.2-4.6-2.7-4.8-2.8C65.7,11,65.4,11,65.1,11.1z"/>
					<path class="st4" d="M59.9,14.2c0,0,4.9,2.8,5.1,3c0.6,0.3,0.6,0.3,1.2,0c0.3-0.2,5.1-2.9,5.1-2.9"/>
				</g>
				<g>
					<path class="st3" d="M72.1,15.2c-0.3,0.2-4.8,2.8-5,2.9c-0.2,0.1-0.2,0.2-0.2,0.5s0-0.1,0,0.1s0.1,0.2,0.2,0.3
						c0.3,0.2,4.4,2.5,4.6,2.7c0.8,0.4,0.9,0.4,1.7,0c0.4-0.2,4.3-2.5,4.5-2.6c0.2-0.1,0.3-0.2,0.3-0.4c0-0.2,0,0,0-0.2
						s-0.2-0.3-0.5-0.4s-4.6-2.7-4.8-2.8C72.8,15.1,72.4,15.1,72.1,15.2z"/>
					<path class="st4" d="M66.9,18.3c0,0,4.9,2.8,5.1,3c0.6,0.3,0.6,0.3,1.2,0c0.3-0.2,5.1-2.9,5.1-2.9"/>
				</g>
				<g>
					<path class="st3" d="M79.2,19.3c-0.3,0.2-4.8,2.8-5,2.9C74,22.4,74,22.5,74,22.7s0-0.1,0,0.1s0.1,0.2,0.2,0.3
						c0.3,0.2,4.4,2.5,4.6,2.7c0.8,0.4,0.9,0.4,1.7,0c0.4-0.2,4.3-2.5,4.5-2.6s0.3-0.2,0.3-0.4c0-0.2,0,0,0-0.2
						c0-0.2-0.2-0.3-0.5-0.4c-0.3-0.2-4.6-2.7-4.8-2.8C79.8,19.2,79.5,19.2,79.2,19.3z"/>
					<path class="st4" d="M74,22.4c0,0,4.9,2.8,5.1,3c0.6,0.3,0.6,0.3,1.2,0c0.3-0.2,5.1-2.9,5.1-2.9"/>
				</g>
				<g>
					<path class="st3" d="M86.2,23.4c-0.3,0.2-4.8,2.8-5,2.9C81,26.4,81,26.6,81,26.8s0-0.1,0,0.1s0.1,0.2,0.2,0.3
						c0.3,0.2,4.4,2.5,4.6,2.7c0.8,0.4,0.9,0.4,1.7,0c0.4-0.2,4.3-2.5,4.5-2.6c0.2-0.1,0.3-0.2,0.3-0.4s0,0,0-0.2s-0.2-0.3-0.5-0.4
						c-0.3-0.2-4.6-2.7-4.8-2.8C86.9,23.3,86.5,23.3,86.2,23.4z"/>
					<path class="st4" d="M81,26.5c0,0,4.9,2.8,5.1,3c0.6,0.3,0.6,0.3,1.2,0c0.3-0.2,5.1-2.9,5.1-2.9"/>
				</g>
				<g>
					<path class="st3" d="M93.3,27.5c-0.3,0.2-4.8,2.8-5,2.9c-0.2,0.1-0.2,0.2-0.2,0.5s0-0.1,0,0.1s0.1,0.2,0.2,0.3
						c0.3,0.2,4.4,2.5,4.6,2.7c0.8,0.4,0.9,0.4,1.7,0c0.4-0.2,4.3-2.5,4.5-2.6c0.2-0.1,0.3-0.2,0.3-0.4c0-0.2,0,0,0-0.2
						c0-0.2-0.2-0.3-0.5-0.4c-0.3-0.2-4.6-2.7-4.8-2.8C93.9,27.4,93.6,27.4,93.3,27.5z"/>
					<path class="st4" d="M88.1,30.6c0,0,4.9,2.8,5.1,3c0.6,0.3,0.6,0.3,1.2,0c0.3-0.2,5.1-2.9,5.1-2.9"/>
				</g>
				<g>
					<path class="st3" d="M100.3,31.6c-0.3,0.2-4.8,2.8-5,2.9c-0.2,0.1-0.2,0.2-0.2,0.5c0,0.2,0-0.1,0,0.1s0.1,0.2,0.2,0.3
						c0.3,0.2,4.4,2.5,4.6,2.7c0.8,0.4,0.9,0.4,1.7,0c0.4-0.2,4.3-2.5,4.5-2.6s0.3-0.2,0.3-0.4c0-0.2,0,0,0-0.2s-0.2-0.3-0.5-0.4
						c-0.3-0.2-4.6-2.7-4.8-2.8C101,31.4,100.7,31.5,100.3,31.6z"/>
					<path class="st4" d="M95.1,34.7c0,0,4.9,2.8,5.1,3c0.6,0.3,0.6,0.3,1.2,0c0.3-0.2,5.1-2.9,5.1-2.9"/>
				</g>
				<g>
					<path class="st3" d="M107.4,35.7c-0.3,0.2-4.8,2.8-5,2.9c-0.2,0.1-0.2,0.2-0.2,0.5c0,0.2,0-0.1,0,0.1s0.1,0.2,0.2,0.3
						c0.3,0.2,4.4,2.5,4.6,2.7c0.8,0.4,0.9,0.4,1.7,0c0.4-0.2,4.3-2.5,4.5-2.6c0.2-0.1,0.3-0.2,0.3-0.4s0,0,0-0.2
						c0-0.2-0.2-0.3-0.5-0.4c-0.3-0.2-4.6-2.7-4.8-2.8C108,35.5,107.7,35.5,107.4,35.7z"/>
					<path class="st4" d="M102.2,38.8c0,0,4.9,2.8,5.1,3c0.6,0.3,0.6,0.3,1.2,0c0.3-0.2,5.1-2.9,5.1-2.9"/>
				</g>
				<g>
					<path class="st3" d="M114.5,39.8c-0.3,0.2-4.8,2.8-5,2.9c-0.2,0.1-0.2,0.2-0.2,0.5s0-0.1,0,0.1s0.1,0.2,0.2,0.3
						c0.3,0.2,4.4,2.5,4.6,2.7c0.8,0.4,0.9,0.4,1.7,0c0.4-0.2,4.3-2.5,4.5-2.6s0.3-0.2,0.3-0.4s0,0,0-0.2c0-0.2-0.2-0.3-0.5-0.4
						c-0.3-0.2-4.6-2.7-4.8-2.8C115.1,39.6,114.8,39.6,114.5,39.8z"/>
					<path class="st4" d="M109.3,42.8c0,0,4.9,2.8,5.1,3c0.6,0.3,0.6,0.3,1.2,0c0.3-0.2,5.1-2.9,5.1-2.9"/>
				</g>
				<g>
					<path class="st3" d="M121.5,43.9c-0.3,0.2-4.8,2.8-5,2.9c-0.2,0.1-0.2,0.2-0.2,0.5c0,0.2,0-0.1,0,0.1s0.1,0.2,0.2,0.3
						c0.3,0.2,4.4,2.5,4.6,2.7c0.8,0.4,0.9,0.4,1.7,0c0.4-0.2,4.3-2.5,4.5-2.6c0.2-0.1,0.3-0.2,0.3-0.4c0-0.2,0,0,0-0.2
						s-0.2-0.3-0.5-0.4c-0.3-0.2-4.6-2.7-4.8-2.8C122.1,43.7,121.8,43.7,121.5,43.9z"/>
					<path class="st4" d="M116.3,46.9c0,0,4.9,2.8,5.1,3c0.6,0.3,0.6,0.3,1.2,0c0.3-0.2,5.1-2.9,5.1-2.9"/>
				</g>
				<g>
					<path class="st3" d="M128.6,48c-0.3,0.2-4.8,2.8-5,2.9c-0.2,0.1-0.2,0.2-0.2,0.5c0,0.2,0-0.1,0,0.1s0.1,0.2,0.2,0.3
						c0.3,0.2,4.4,2.5,4.6,2.7c0.8,0.4,0.9,0.4,1.7,0c0.4-0.2,4.3-2.5,4.5-2.6c0.2-0.1,0.3-0.2,0.3-0.4c0-0.2,0,0,0-0.2
						c0-0.2-0.2-0.3-0.5-0.4c-0.3-0.2-4.6-2.7-4.8-2.8C129.2,47.8,128.9,47.8,128.6,48z"/>
					<path class="st4" d="M123.4,51c0,0,4.9,2.8,5.1,3c0.6,0.3,0.6,0.3,1.2,0c0.3-0.2,5.1-2.9,5.1-2.9"/>
				</g>
				<g>
					<path class="st3" d="M135.6,52.1c-0.3,0.2-4.8,2.8-5,2.9c-0.2,0.1-0.2,0.2-0.2,0.5c0,0.2,0-0.1,0,0.1s0.1,0.2,0.2,0.3
						c0.3,0.2,4.4,2.5,4.6,2.7c0.8,0.4,0.9,0.4,1.7,0c0.4-0.2,4.3-2.5,4.5-2.6c0.2-0.1,0.3-0.2,0.3-0.4s0,0,0-0.2
						c0-0.2-0.2-0.3-0.5-0.4c-0.3-0.2-4.6-2.7-4.8-2.8C136.3,51.9,135.9,51.9,135.6,52.1z"/>
					<path class="st4" d="M130.4,55.1c0,0,4.9,2.8,5.1,3c0.6,0.3,0.6,0.3,1.2,0c0.3-0.2,5.1-2.9,5.1-2.9"/>
				</g>
				<g>
					<path class="st3" d="M142.7,56.2c-0.3,0.2-4.8,2.8-5,2.9c-0.2,0.1-0.2,0.2-0.2,0.5c0,0.2,0-0.1,0,0.1s0.1,0.2,0.2,0.3
						c0.3,0.2,4.4,2.5,4.6,2.7c0.8,0.4,0.9,0.4,1.7,0c0.4-0.2,4.3-2.5,4.5-2.6c0.2-0.1,0.3-0.2,0.3-0.4s0,0,0-0.2
						c0-0.2-0.2-0.3-0.5-0.4c-0.3-0.2-4.6-2.7-4.8-2.8C143.3,56,143,56,142.7,56.2z"/>
					<path class="st4" d="M137.5,59.2c0,0,4.9,2.8,5.1,3c0.6,0.3,0.6,0.3,1.2,0c0.3-0.2,5.1-2.9,5.1-2.9"/>
				</g>
			</g>
			<g>
				<path class="st1" d="M126.3,81.6c0,0-0.9,0.5-1.6,0.9c-0.7,0.4-1.1,1.2,0,1.8c1.1,0.6,21.2,12.5,22.1,12.9
					c0.8,0.5,1.4,0.4,2.2,0c1.2-0.7,1-0.6,1.8-1c0.8-0.5,0.8-1.1-0.2-1.7c-1-0.6-20.2-11.9-21.7-12.7
					C127.4,80.9,127.1,81.1,126.3,81.6z"/>
				<line class="st1" x1="139.1" y1="87.8" x2="134.9" y2="90.3"/>
			</g>
			<g>
				<path class="st1" d="M151,67.2c0,0-0.9,0.5-1.6,0.9c-0.7,0.4-1.1,1.2,0,1.8c1.1,0.6,21.2,12.5,22.1,12.9c0.8,0.5,1.4,0.4,2.2,0
					c1.2-0.7,1-0.6,1.8-1c0.8-0.5,0.8-1.1-0.2-1.7c-1-0.6-20.2-11.9-21.7-12.7C152.1,66.6,151.9,66.8,151,67.2z"/>
				<line class="st1" x1="160.2" y1="71.3" x2="156" y2="73.8"/>
				<line class="st1" x1="168.2" y1="76" x2="164" y2="78.5"/>
			</g>
		</g>
		<ellipse transform="matrix(0.8292 -0.5589 0.5589 0.8292 -9.0994 96.4246)" class="st1" cx="153.3" cy="63.1" rx="1" ry="0.6"/>
	</g>
	<g id="K400_Plus" class="st5">
		<g class="st6">
			<path class="st7" d="M259.2,30.2l46.3-26.6c0,0,3.7-1.6,7.1,0.4l122.7,71.2c0,0,2.3,1.4,2.7,3.8c0,0,0.6,3.4-2.4,5.3l-41.2,24.1
				c0,0-7.3,4.1-14.9,0l-120.4-70C259.2,38.3,252.3,34.2,259.2,30.2z"/>
			<path class="st8" d="M260.1,29.8c-5.7,3.3,0.2,6.5,0.2,6.5l119.3,69.5c7.3,4,14.7,0,14.7,0l39.3-23c0,0,7.2-4.4,0.1-8.6"/>
		</g>
		<path class="st9" d="M395,70l26.2,15.5c0,0,2.3,1.3,0.6,2.2l-19.6,11.5c0,0-3.3,2.1-6.8,0l-24-13.9c0,0-2.4-1.2-0.1-2.6L392.9,70
			C392.9,70,393.8,69.3,395,70z"/>
		<path class="st10" d="M375.8,80.5l17.1-10.1c0,0,0.9-0.7,2.1,0l26.2,15.5c0,0,1,0.6,1.2,1.3"/>
		<path class="st10" d="M383.8,92.1L371.4,85c0,0-1-0.5-1.1-1.3"/>
		<path class="st10" d="M383.8,92.1"/>
		<path class="st10" d="M404.1,97.8l-1.8,1.1c0,0-3.3,2.1-6.8,0l-11.4-6.6"/>
		<line class="st9" x1="374.8" y1="80.8" x2="404.4" y2="98"/>
		<line class="st9" x1="375.4" y1="80.2" x2="405" y2="97.5"/>
		<line class="st9" x1="384.1" y1="92.3" x2="389.3" y2="89.3"/>
		<line class="st9" x1="383.7" y1="92.5" x2="384.1" y2="92.3"/>
		<polyline class="st10" points="389.1,89 383.8,92.1 383.8,92.4 		"/>
		<path class="st9" d="M399.7,66.4L427,82.8c0,0,1.4,0.8,0.1,1.6l-2,1.2c0,0-0.8,0.6-1.9,0L396,69.2c0,0-1.1-0.7,0.3-1.5l2.1-1.2
			C398.3,66.4,399,66,399.7,66.4z"/>
		<path class="st10" d="M426.6,82.5c0.7,0.4,0.1,0.7,0.1,0.7l-1.6,1c-0.6,0.3-1.2,0-1.2,0l-27.2-16.1c0,0-0.7-0.3,0-0.8"/>
		<path class="st10" d="M414.4,80.2c0,0,0-1,0.8-1.5l2.1-1.3c0,0,0.2-0.1,0.5-0.1"/>
		<path class="st10" d="M404.8,74.5c0,0,0-1,0.8-1.5l2.1-1.3c0,0,0.2-0.1,0.5-0.1"/>
		<g class="st6">
			<g>
				<path class="st11" d="M301,14.3l4.6,2.7c0,0,0.4,0.3,0.4,0.5v1.1l-4.8,2.8c0,0-0.4,0.3-0.8,0l-5.1-3v-1c0,0,0-0.2,0.3-0.4
					l4.6-2.7C300.3,14.3,300.7,14.1,301,14.3z"/>
				<path class="st12" d="M295.3,17.4l5.1,3c0,0,0.3,0.2,0.8,0l4.9-2.9"/>
				<path class="st12" d="M295.5,17.1l4.9,2.9c0,0,0.3,0.2,0.8,0l4.7-2.8"/>
			</g>
			<g>
				<path class="st11" d="M295.7,11.2l3.1,1.8c0,0,0.4,0.3,0.4,0.5v1.1l-4.8,2.8c0,0-0.4,0.3-0.8,0l-3.6-2.1v-1c0,0,0-0.2,0.3-0.4
					l4.6-2.7C295,11.2,295.4,11,295.7,11.2z"/>
				<path class="st12" d="M290,14.4l3.7,2.2c0,0,0.3,0.2,0.8,0l4.9-2.9"/>
				<path class="st12" d="M290.2,14l3.5,2c0,0,0.3,0.2,0.8,0l4.7-2.8"/>
			</g>
			<g>
				<path class="st11" d="M307.8,18.3l4.6,2.7c0,0,0.4,0.3,0.4,0.5v1.1l-4.8,2.8c0,0-0.4,0.3-0.8,0l-5.1-3v-1c0,0,0-0.2,0.3-0.4
					l4.6-2.7C307.1,18.3,307.4,18,307.8,18.3z"/>
				<path class="st12" d="M302.1,21.4l5.1,3c0,0,0.3,0.2,0.8,0l4.9-2.9"/>
				<path class="st12" d="M302.3,21l4.9,2.9c0,0,0.3,0.2,0.8,0l4.7-2.8"/>
			</g>
			<g>
				<path class="st11" d="M314.6,22.2l4.6,2.7c0,0,0.4,0.3,0.4,0.5v1.1l-4.8,2.8c0,0-0.4,0.3-0.8,0l-5.1-3v-1c0,0,0-0.2,0.3-0.4
					l4.6-2.7C313.8,22.2,314.2,22,314.6,22.2z"/>
				<path class="st12" d="M308.9,25.3l5.1,3c0,0,0.3,0.2,0.8,0l4.9-2.9"/>
				<path class="st12" d="M309.1,25l4.9,2.9c0,0,0.3,0.2,0.8,0l4.7-2.8"/>
			</g>
			<g>
				<path class="st11" d="M321.4,26.2l4.6,2.7c0,0,0.4,0.3,0.4,0.5v1.1l-4.8,2.8c0,0-0.4,0.3-0.8,0l-5.1-3v-1c0,0,0-0.2,0.3-0.4
					l4.6-2.7C320.6,26.1,321,25.9,321.4,26.2z"/>
				<path class="st12" d="M315.7,29.3l5.1,3c0,0,0.3,0.2,0.8,0l4.9-2.9"/>
				<path class="st12" d="M315.9,28.9l4.9,2.9c0,0,0.3,0.2,0.8,0l4.7-2.8"/>
			</g>
			<g>
				<path class="st11" d="M328.1,30.1l4.6,2.7c0,0,0.4,0.3,0.4,0.5v1.1l-4.8,2.8c0,0-0.4,0.3-0.8,0l-5.1-3v-1c0,0,0-0.2,0.3-0.4
					l4.6-2.7C327.4,30.1,327.7,29.8,328.1,30.1z"/>
				<path class="st12" d="M322.4,33.2l5.1,3c0,0,0.3,0.2,0.8,0l4.9-2.9"/>
				<path class="st12" d="M322.6,32.8l4.9,2.9c0,0,0.3,0.2,0.8,0l4.7-2.8"/>
			</g>
			<g>
				<path class="st11" d="M334.9,34l4.6,2.7c0,0,0.4,0.3,0.4,0.5v1.1l-4.8,2.8c0,0-0.4,0.3-0.8,0l-5.1-3v-1c0,0,0-0.2,0.3-0.4
					l4.6-2.7C334.2,34,334.5,33.8,334.9,34z"/>
				<path class="st12" d="M329.2,37.1l5.1,3c0,0,0.3,0.2,0.8,0l4.9-2.9"/>
				<path class="st12" d="M329.4,36.8l4.9,2.9c0,0,0.3,0.2,0.8,0l4.7-2.8"/>
			</g>
			<g>
				<path class="st11" d="M341.7,38l4.6,2.7c0,0,0.4,0.3,0.4,0.5v1.1l-4.8,2.8c0,0-0.4,0.3-0.8,0l-5.1-3v-1c0,0,0-0.2,0.3-0.4
					l4.6-2.7C340.9,38,341.3,37.7,341.7,38z"/>
				<path class="st12" d="M336,41.1l5.1,3c0,0,0.3,0.2,0.8,0l4.9-2.9"/>
				<path class="st12" d="M336.2,40.7l4.9,2.9c0,0,0.3,0.2,0.8,0l4.7-2.8"/>
			</g>
			<g>
				<path class="st11" d="M348.5,41.9l4.6,2.7c0,0,0.4,0.3,0.4,0.5v1.1l-4.8,2.8c0,0-0.4,0.3-0.8,0l-5.1-3v-1c0,0,0-0.2,0.3-0.4
					l4.6-2.7C347.7,41.9,348.1,41.7,348.5,41.9z"/>
				<path class="st12" d="M342.7,45l5.1,3c0,0,0.3,0.2,0.8,0l4.9-2.9"/>
				<path class="st12" d="M343,44.7l4.9,2.9c0,0,0.3,0.2,0.8,0l4.7-2.8"/>
			</g>
			<g>
				<path class="st11" d="M355.2,45.9l4.6,2.7c0,0,0.4,0.3,0.4,0.5v1.1l-4.8,2.8c0,0-0.4,0.3-0.8,0l-5.1-3v-1c0,0,0-0.2,0.3-0.4
					l4.6-2.7C354.5,45.8,354.9,45.6,355.2,45.9z"/>
				<path class="st12" d="M349.5,49l5.1,3c0,0,0.3,0.2,0.8,0l4.9-2.9"/>
				<path class="st12" d="M349.7,48.6l4.9,2.9c0,0,0.3,0.2,0.8,0l4.7-2.8"/>
			</g>
			<g>
				<path class="st11" d="M362,49.8l4.6,2.7c0,0,0.4,0.3,0.4,0.5v1.1l-4.8,2.8c0,0-0.4,0.3-0.8,0l-5.1-3v-1c0,0,0-0.2,0.3-0.4
					l4.6-2.7C361.3,49.8,361.6,49.6,362,49.8z"/>
				<path class="st12" d="M356.3,52.9l5.1,3c0,0,0.3,0.2,0.8,0l4.9-2.9"/>
				<path class="st12" d="M356.5,52.6l4.9,2.9c0,0,0.3,0.2,0.8,0l4.7-2.8"/>
			</g>
			<g>
				<path class="st11" d="M368.8,53.7l4.6,2.7c0,0,0.4,0.3,0.4,0.5v1.1l-4.8,2.8c0,0-0.4,0.3-0.8,0l-5.1-3v-1c0,0,0-0.2,0.3-0.4
					l4.6-2.7C368,53.7,368.4,53.5,368.8,53.7z"/>
				<path class="st12" d="M363.1,56.9l5.1,3c0,0,0.3,0.2,0.8,0l4.9-2.9"/>
				<path class="st12" d="M363.3,56.5l4.9,2.9c0,0,0.3,0.2,0.8,0l4.7-2.8"/>
			</g>
			<g>
				<path class="st11" d="M375.5,57.7l4.6,2.7c0,0,0.4,0.3,0.4,0.5V62l-4.8,2.8c0,0-0.4,0.3-0.8,0l-5.1-3v-1c0,0,0-0.2,0.3-0.4
					l4.6-2.7C374.8,57.7,375.2,57.5,375.5,57.7z"/>
				<path class="st12" d="M369.8,60.8l5.1,3c0,0,0.3,0.2,0.8,0l4.9-2.9"/>
				<path class="st12" d="M370,60.4l4.9,2.9c0,0,0.3,0.2,0.8,0l4.7-2.8"/>
			</g>
			<g>
				<path class="st11" d="M382.3,61.6l7.5,4.3c0,0,0.4,0.3,0.4,0.5v1.1l-4.8,2.8c0,0-0.4,0.3-0.8,0l-8-4.6v-1c0,0,0-0.2,0.3-0.4
					l4.6-2.7C381.6,61.6,381.9,61.4,382.3,61.6z"/>
				<path class="st12" d="M376.6,64.7l8,4.7c0,0,0.3,0.2,0.8,0l4.9-2.9"/>
				<path class="st12" d="M376.8,64.4l7.8,4.6c0,0,0.3,0.2,0.8,0l4.7-2.8"/>
			</g>
			<line class="st13" x1="295.3" y1="11" x2="390" y2="66.1"/>
			<line class="st13" x1="287.3" y1="13.8" x2="385.4" y2="70.9"/>
		</g>
		<g class="st6">
			<g>
				<path class="st11" d="M306.1,12.6l4.4,2.5c0,0,0.4,0.2,0.4,0.5v1l-2,1.1c0,0-0.4,0.3-0.8,0l-4.8-2.8v-1c0,0,0-0.2,0.3-0.4l1.8-1
					C305.4,12.5,305.8,12.3,306.1,12.6z"/>
				<path class="st12" d="M303.3,13.9l4.8,2.9c0,0,0.3,0.2,0.7,0l2-1.2"/>
				<path class="st12" d="M303.5,13.6l4.7,2.7c0,0,0.3,0.2,0.7,0l1.8-1.1"/>
			</g>
			<g>
				<path class="st11" d="M300.8,9.5l3.2,1.9c0,0,0.4,0.2,0.4,0.5v1l-2,1.1c0,0-0.4,0.3-0.8,0l-4.7-2.7v-1c0,0,0-0.2,0.3-0.4
					l0.7-0.4C298,9.5,299.5,8.6,300.8,9.5z"/>
				<path class="st12" d="M297,10.3l4.7,2.8c0,0,0.3,0.2,0.7,0l2-1.2"/>
				<path class="st12" d="M297.2,9.9l4.6,2.7c0,0,0.3,0.2,0.7,0l1.8-1.1"/>
			</g>
			<g>
				<path class="st11" d="M312.5,16.3l4.4,2.5c0,0,0.4,0.2,0.4,0.5v1l-2,1.1c0,0-0.4,0.3-0.8,0l-4.8-2.8v-1c0,0,0-0.2,0.3-0.4l1.8-1
					C311.8,16.3,312.2,16.1,312.5,16.3z"/>
				<path class="st12" d="M309.7,17.7l4.8,2.9c0,0,0.3,0.2,0.7,0l2-1.2"/>
				<path class="st12" d="M309.9,17.3l4.7,2.7c0,0,0.3,0.2,0.7,0l1.8-1.1"/>
			</g>
			<g>
				<path class="st11" d="M318.9,20l4.4,2.5c0,0,0.4,0.2,0.4,0.5v1l-2,1.1c0,0-0.4,0.3-0.8,0l-4.8-2.8v-1c0,0,0-0.2,0.3-0.4l1.8-1
					C318.2,20,318.6,19.8,318.9,20z"/>
				<path class="st12" d="M316.1,21.4l4.8,2.9c0,0,0.3,0.2,0.7,0l2-1.2"/>
				<path class="st12" d="M316.3,21.1l4.7,2.7c0,0,0.3,0.2,0.7,0l1.8-1.1"/>
			</g>
			<g>
				<path class="st11" d="M325.3,23.7l4.4,2.5c0,0,0.4,0.2,0.4,0.5v1l-2,1.1c0,0-0.4,0.3-0.8,0l-4.8-2.8v-1c0,0,0-0.2,0.3-0.4l1.8-1
					C324.6,23.7,325,23.5,325.3,23.7z"/>
				<path class="st12" d="M322.5,25.1l4.8,2.9c0,0,0.3,0.2,0.7,0l2-1.2"/>
				<path class="st12" d="M322.7,24.8l4.7,2.7c0,0,0.3,0.2,0.7,0l1.8-1.1"/>
			</g>
			<g>
				<path class="st11" d="M331.7,27.4l4.4,2.5c0,0,0.4,0.2,0.4,0.5v1l-2,1.1c0,0-0.4,0.3-0.8,0l-4.8-2.8v-1c0,0,0-0.2,0.3-0.4l1.8-1
					C331,27.4,331.4,27.2,331.7,27.4z"/>
				<path class="st12" d="M328.9,28.8l4.8,2.9c0,0,0.3,0.2,0.7,0l2-1.2"/>
				<path class="st12" d="M329.1,28.5l4.7,2.7c0,0,0.3,0.2,0.7,0l1.8-1.1"/>
			</g>
			<g>
				<path class="st11" d="M338.1,31.2l4.4,2.5c0,0,0.4,0.2,0.4,0.5v1l-2,1.1c0,0-0.4,0.3-0.8,0l-4.8-2.8v-1c0,0,0-0.2,0.3-0.4l1.8-1
					C337.4,31.2,337.8,31,338.1,31.2z"/>
				<path class="st12" d="M335.3,32.6l4.8,2.9c0,0,0.3,0.2,0.7,0l2-1.2"/>
				<path class="st12" d="M335.5,32.2l4.7,2.7c0,0,0.3,0.2,0.7,0l1.8-1.1"/>
			</g>
			<g>
				<path class="st11" d="M344.5,34.9l4.4,2.5c0,0,0.4,0.2,0.4,0.5v1l-2,1.1c0,0-0.4,0.3-0.8,0l-4.8-2.8v-1c0,0,0-0.2,0.3-0.4l1.8-1
					C343.8,34.9,344.2,34.7,344.5,34.9z"/>
				<path class="st12" d="M341.7,36.3l4.8,2.9c0,0,0.3,0.2,0.7,0l2-1.2"/>
				<path class="st12" d="M341.9,36l4.7,2.7c0,0,0.3,0.2,0.7,0l1.8-1.1"/>
			</g>
			<g>
				<path class="st11" d="M351,38.6l4.4,2.5c0,0,0.4,0.2,0.4,0.5v1l-2,1.1c0,0-0.4,0.3-0.8,0l-4.8-2.8v-1c0,0,0-0.2,0.3-0.4l1.8-1
					C350.3,38.6,350.6,38.4,351,38.6z"/>
				<path class="st12" d="M348.2,40l4.8,2.9c0,0,0.3,0.2,0.7,0l2-1.2"/>
				<path class="st12" d="M348.3,39.7l4.7,2.7c0,0,0.3,0.2,0.7,0l1.8-1.1"/>
			</g>
			<g>
				<path class="st11" d="M357.4,42.4l4.4,2.5c0,0,0.4,0.2,0.4,0.5v1l-2,1.1c0,0-0.4,0.3-0.8,0l-4.8-2.8v-1c0,0,0-0.2,0.3-0.4l1.8-1
					C356.7,42.4,357,42.2,357.4,42.4z"/>
				<path class="st12" d="M354.6,43.8l4.8,2.9c0,0,0.3,0.2,0.7,0l2-1.2"/>
				<path class="st12" d="M354.7,43.4l4.7,2.7c0,0,0.3,0.2,0.7,0l1.8-1.1"/>
			</g>
			<g>
				<path class="st11" d="M363.8,46.1l4.4,2.5c0,0,0.4,0.2,0.4,0.5v1l-2,1.1c0,0-0.4,0.3-0.8,0l-4.8-2.8v-1c0,0,0-0.2,0.3-0.4l1.8-1
					C363.1,46.1,363.4,45.9,363.8,46.1z"/>
				<path class="st12" d="M361,47.5l4.8,2.9c0,0,0.3,0.2,0.7,0l2-1.2"/>
				<path class="st12" d="M361.2,47.2l4.7,2.7c0,0,0.3,0.2,0.7,0l1.8-1.1"/>
			</g>
			<g>
				<path class="st11" d="M370.2,49.8l4.4,2.5c0,0,0.4,0.2,0.4,0.5v1l-2,1.1c0,0-0.4,0.3-0.8,0l-4.8-2.8v-1c0,0,0-0.2,0.3-0.4l1.8-1
					C369.5,49.8,369.8,49.6,370.2,49.8z"/>
				<path class="st12" d="M367.4,51.2l4.8,2.9c0,0,0.3,0.2,0.7,0l2-1.2"/>
				<path class="st12" d="M367.6,50.9l4.7,2.7c0,0,0.3,0.2,0.7,0l1.8-1.1"/>
			</g>
			<g>
				<path class="st11" d="M376.6,53.5l4.4,2.5c0,0,0.4,0.2,0.4,0.5v1l-2,1.1c0,0-0.4,0.3-0.8,0l-4.8-2.8v-1c0,0,0-0.2,0.3-0.4l1.8-1
					C375.9,53.5,376.2,53.3,376.6,53.5z"/>
				<path class="st12" d="M373.8,54.9l4.8,2.9c0,0,0.3,0.2,0.7,0l2-1.2"/>
				<path class="st12" d="M374,54.6l4.7,2.7c0,0,0.3,0.2,0.7,0l1.8-1.1"/>
			</g>
			<g>
				<path class="st11" d="M383,57.3l4.5,2.6c0,0,0.4,0.2,0.4,0.5v1l-2,1.1c0,0-0.4,0.3-0.8,0l-4.9-2.9v-1c0,0,0-0.2,0.3-0.4l1.8-1
					C382.3,57.3,382.7,57.1,383,57.3z"/>
				<path class="st12" d="M380.2,58.7l5,2.9c0,0,0.3,0.2,0.7,0l2-1.2"/>
				<path class="st12" d="M380.4,58.3l4.8,2.8c0,0,0.3,0.2,0.7,0l1.8-1.1"/>
			</g>
			<g>
				<path class="st11" d="M393.5,65.7l-1.1,0.6c0,0-0.4,0.3-0.8,0l-4.8-2.8v-1c0,0,0-0.2,0.3-0.4l1.8-1c0,0,0.3-0.2,0.7,0l4,2.3
					C393.6,63.5,395.5,64.6,393.5,65.7z"/>
				<path class="st12" d="M386.8,62.5l4.8,2.9c0,0,0.3,0.2,0.7,0l0.9-0.5c0,0,1.3-0.8,0.1-1.5"/>
				<path class="st12" d="M387,62.2l4.7,2.7c0,0,0.3,0.2,0.7,0l0.7-0.4c0,0,1.1-0.7,0-1.3"/>
			</g>
			<line class="st13" x1="300.7" y1="9.4" x2="396.3" y2="65"/>
			<line class="st13" x1="295.5" y1="10.4" x2="388.3" y2="64.4"/>
		</g>
		<g class="st6">
			<g>
				<path class="st11" d="M272.4,32.3L277,35c0,0,0.4,0.3,0.4,0.5v1.1l-4.8,2.8c0,0-0.4,0.3-0.8,0l-5.1-3v-1c0,0,0-0.2,0.3-0.4
					l4.6-2.7C271.6,32.3,272,32.1,272.4,32.3z"/>
				<path class="st12" d="M266.7,35.4l5.1,3c0,0,0.3,0.2,0.8,0l4.9-2.9"/>
				<path class="st12" d="M266.9,35.1l4.9,2.9c0,0,0.3,0.2,0.8,0l4.7-2.8"/>
			</g>
			<g>
				<path class="st11" d="M262,30.4l3.2-1.9c0,0,0.4-0.2,0.7,0l4.3,2.5c0,0,0.4,0.3,0.4,0.5v1.1l-4.8,2.8c0,0-0.4,0.3-0.8,0
					l-3.3-1.9C261.7,33.6,259.1,32.1,262,30.4"/>
				<path class="st12" d="M270.7,31.6l-4.9,2.9c-0.4,0.2-0.8,0-0.8,0l-3.6-2.1c0,0-1.4-0.9,0.6-2"/>
				<path class="st12" d="M270.5,31.2l-4.7,2.8c-0.4,0.2-0.8,0-0.8,0l-3.3-1.9c0,0-1.3-0.8,0.5-1.9"/>
			</g>
			<g>
				<path class="st11" d="M279.2,36.3l4.6,2.7c0,0,0.4,0.3,0.4,0.5v1.1l-4.8,2.8c0,0-0.4,0.3-0.8,0l-5.1-3v-1c0,0,0-0.2,0.3-0.4
					l4.6-2.7C278.4,36.3,278.8,36,279.2,36.3z"/>
				<path class="st12" d="M273.5,39.4l5.1,3c0,0,0.3,0.2,0.8,0l4.9-2.9"/>
				<path class="st12" d="M273.7,39l4.9,2.9c0,0,0.3,0.2,0.8,0l4.7-2.8"/>
			</g>
			<g>
				<path class="st11" d="M285.9,40.2l4.6,2.7c0,0,0.4,0.3,0.4,0.5v1.1l-4.8,2.8c0,0-0.4,0.3-0.8,0l-5.1-3v-1c0,0,0-0.2,0.3-0.4
					l4.6-2.7C285.2,40.2,285.6,40,285.9,40.2z"/>
				<path class="st12" d="M280.2,43.3l5.1,3c0,0,0.3,0.2,0.8,0l4.9-2.9"/>
				<path class="st12" d="M280.4,43l4.9,2.9c0,0,0.3,0.2,0.8,0l4.7-2.8"/>
			</g>
			<g>
				<path class="st11" d="M292.7,44.2l31.6,18.4c0,0,0.4,0.3,0.4,0.5v1.1l-4.8,2.8c0,0-0.4,0.3-0.8,0L287,48.3v-1c0,0,0-0.2,0.3-0.4
					l4.6-2.7C292,44.1,292.3,43.9,292.7,44.2z"/>
				<path class="st12" d="M287,47.3L319.1,66c0,0,0.3,0.2,0.8,0l4.9-2.9"/>
				<path class="st12" d="M287.2,46.9l31.9,18.6c0,0,0.3,0.2,0.8,0l4.7-2.8"/>
			</g>
			<g>
				<path class="st11" d="M326.6,63.9l4.6,2.7c0,0,0.4,0.3,0.4,0.5v1.1l-4.8,2.8c0,0-0.4,0.3-0.8,0l-5.1-3v-1c0,0,0-0.2,0.3-0.4
					l4.6-2.7C325.8,63.8,326.2,63.6,326.6,63.9z"/>
				<path class="st12" d="M320.9,67l5.1,3c0,0,0.3,0.2,0.8,0l4.9-2.9"/>
				<path class="st12" d="M321.1,66.6l4.9,2.9c0,0,0.3,0.2,0.8,0l4.7-2.8"/>
			</g>
			<g>
				<path class="st11" d="M333.4,67.8l4.6,2.7c0,0,0.4,0.3,0.4,0.5v1.1l-4.8,2.8c0,0-0.4,0.3-0.8,0l-5.1-3v-1c0,0,0-0.2,0.3-0.4
					l4.6-2.7C332.6,67.8,333,67.6,333.4,67.8z"/>
				<path class="st12" d="M327.7,70.9l5.1,3c0,0,0.3,0.2,0.8,0l4.9-2.9"/>
				<path class="st12" d="M327.9,70.6l4.9,2.9c0,0,0.3,0.2,0.8,0l4.7-2.8"/>
			</g>
			<g>
				<path class="st11" d="M340.1,71.7l4.6,2.7c0,0,0.4,0.3,0.4,0.5v1.1l-4.8,2.8c0,0-0.4,0.3-0.8,0l-5.1-3v-1c0,0,0-0.2,0.3-0.4
					l4.6-2.7C339.4,71.7,339.8,71.5,340.1,71.7z"/>
				<path class="st12" d="M334.4,74.9l5.1,3c0,0,0.3,0.2,0.8,0l4.9-2.9"/>
				<path class="st12" d="M334.6,74.5l4.9,2.9c0,0,0.3,0.2,0.8,0l4.7-2.8"/>
			</g>
			<g>
				<path class="st11" d="M346.9,75.7l4.6,2.7c0,0,0.4,0.3,0.4,0.5V80l-4.8,2.8c0,0-0.4,0.3-0.8,0l-5.1-3v-1c0,0,0-0.2,0.3-0.4
					l4.6-2.7C346.2,75.7,346.5,75.5,346.9,75.7z"/>
				<path class="st12" d="M341.2,78.8l5.1,3c0,0,0.3,0.2,0.8,0l4.9-2.9"/>
				<path class="st12" d="M341.4,78.4l4.9,2.9c0,0,0.3,0.2,0.8,0l4.7-2.8"/>
			</g>
			<g>
				<path class="st11" d="M353.7,79.6l6.3,3.7c0,0,0.4,0.3,0.4,0.5V85l-3.5,2.1c0,0-1.7,1-3.4,0l-5.6-3.2v-1c0,0,0-0.2,0.3-0.4
					l4.6-2.7C352.9,79.6,353.3,79.4,353.7,79.6z"/>
				<path class="st12" d="M348,82.7l6,3.5c0,0,1.2,0.8,2.5,0l4-2.4"/>
				<path class="st12" d="M348,82.3l6,3.5c0,0,1.2,0.8,2.5,0l4-2.4"/>
			</g>
			<line class="st13" x1="266.6" y1="29" x2="361.4" y2="84.1"/>
			<line class="st13" x1="258.6" y1="31.8" x2="356.7" y2="88.9"/>
		</g>
		<g class="st6">
			<path class="st11" d="M280.9,28.5l4.6,2.7c0,0,0.4,0.3,0.4,0.5v1.1l-4.8,2.8c0,0-0.4,0.3-0.8,0l-5.1-3v-1c0,0,0-0.2,0.3-0.4
				l4.6-2.7C280.2,28.5,280.6,28.3,280.9,28.5z"/>
			<path class="st12" d="M275.2,31.6l5.1,3c0,0,0.3,0.2,0.8,0l4.9-2.9"/>
			<path class="st12" d="M275.4,31.3l4.9,2.9c0,0,0.3,0.2,0.8,0l4.7-2.8"/>
		</g>
		<g class="st6">
			<path class="st11" d="M273.5,24.2l5.3,3.1c0,0,0.4,0.3,0.4,0.5v1.1l-4.8,2.8c0,0-0.4,0.3-0.8,0l-5.8-3.3v-1c0,0,0-0.2,0.3-0.4
				l4.6-2.7C272.8,24.2,273.1,23.9,273.5,24.2z"/>
			<path class="st12" d="M267.8,27.3l5.8,3.4c0,0,0.3,0.2,0.8,0l4.9-2.9"/>
			<path class="st12" d="M268,26.9l5.6,3.3c0,0,0.3,0.2,0.8,0l4.7-2.8"/>
		</g>
		<g class="st6">
			<path class="st11" d="M287.7,32.4l4.6,2.7c0,0,0.4,0.3,0.4,0.5v1.1l-4.8,2.8c0,0-0.4,0.3-0.8,0l-5.1-3v-1c0,0,0-0.2,0.3-0.4
				l4.6-2.7C287,32.4,287.4,32.2,287.7,32.4z"/>
			<path class="st12" d="M282,35.6l5.1,3c0,0,0.3,0.2,0.8,0l4.9-2.9"/>
			<path class="st12" d="M282.2,35.2l4.9,2.9c0,0,0.3,0.2,0.8,0l4.7-2.8"/>
		</g>
		<g class="st6">
			<path class="st11" d="M294.5,36.4l4.6,2.7c0,0,0.4,0.3,0.4,0.5v1.1l-4.8,2.8c0,0-0.4,0.3-0.8,0l-5.1-3v-1c0,0,0-0.2,0.3-0.4
				l4.6-2.7C293.8,36.4,294.1,36.2,294.5,36.4z"/>
			<path class="st12" d="M288.8,39.5l5.1,3c0,0,0.3,0.2,0.8,0l4.9-2.9"/>
			<path class="st12" d="M289,39.1l4.9,2.9c0,0,0.3,0.2,0.8,0l4.7-2.8"/>
		</g>
		<g class="st6">
			<path class="st11" d="M301.3,40.3l4.6,2.7c0,0,0.4,0.3,0.4,0.5v1.1l-4.8,2.8c0,0-0.4,0.3-0.8,0l-5.1-3v-1c0,0,0-0.2,0.3-0.4
				l4.6-2.7C300.5,40.3,300.9,40.1,301.3,40.3z"/>
			<path class="st12" d="M295.6,43.4l5.1,3c0,0,0.3,0.2,0.8,0l4.9-2.9"/>
			<path class="st12" d="M295.8,43.1l4.9,2.9c0,0,0.3,0.2,0.8,0l4.7-2.8"/>
		</g>
		<g class="st6">
			<path class="st11" d="M308,44.2l4.6,2.7c0,0,0.4,0.3,0.4,0.5v1.1l-4.8,2.8c0,0-0.4,0.3-0.8,0l-5.1-3v-1c0,0,0-0.2,0.3-0.4
				l4.6-2.7C307.3,44.2,307.6,44,308,44.2z"/>
			<path class="st12" d="M302.3,47.4l5.1,3c0,0,0.3,0.2,0.8,0l4.9-2.9"/>
			<path class="st12" d="M302.5,47l4.9,2.9c0,0,0.3,0.2,0.8,0l4.7-2.8"/>
		</g>
		<g class="st6">
			<path class="st11" d="M314.8,48.2l4.6,2.7c0,0,0.4,0.3,0.4,0.5v1.1l-4.8,2.8c0,0-0.4,0.3-0.8,0l-5.1-3v-1c0,0,0-0.2,0.3-0.4
				l4.6-2.7C314.1,48.2,314.4,48,314.8,48.2z"/>
			<path class="st12" d="M309.1,51.3l5.1,3c0,0,0.3,0.2,0.8,0l4.9-2.9"/>
			<path class="st12" d="M309.3,51l4.9,2.9c0,0,0.3,0.2,0.8,0l4.7-2.8"/>
		</g>
		<g class="st6">
			<path class="st11" d="M321.6,52.1l4.6,2.7c0,0,0.4,0.3,0.4,0.5v1.1l-4.8,2.8c0,0-0.4,0.3-0.8,0l-5.1-3v-1c0,0,0-0.2,0.3-0.4
				l4.6-2.7C320.9,52.1,321.2,51.9,321.6,52.1z"/>
			<path class="st12" d="M315.9,55.3l5.1,3c0,0,0.3,0.2,0.8,0l4.9-2.9"/>
			<path class="st12" d="M316.1,54.9l4.9,2.9c0,0,0.3,0.2,0.8,0l4.7-2.8"/>
		</g>
		<g class="st6">
			<path class="st11" d="M328.4,56.1l4.6,2.7c0,0,0.4,0.3,0.4,0.5v1.1l-4.8,2.8c0,0-0.4,0.3-0.8,0l-5.1-3v-1c0,0,0-0.2,0.3-0.4
				l4.6-2.7C327.6,56.1,328,55.9,328.4,56.1z"/>
			<path class="st12" d="M322.7,59.2l5.1,3c0,0,0.3,0.2,0.8,0l4.9-2.9"/>
			<path class="st12" d="M322.9,58.9l4.9,2.9c0,0,0.3,0.2,0.8,0l4.7-2.8"/>
		</g>
		<g class="st6">
			<path class="st11" d="M335.1,60l4.6,2.7c0,0,0.4,0.3,0.4,0.5v1.1l-4.8,2.8c0,0-0.4,0.3-0.8,0l-5.1-3v-1c0,0,0-0.2,0.3-0.4
				l4.6-2.7C334.4,60,334.8,59.8,335.1,60z"/>
			<path class="st12" d="M329.4,63.2l5.1,3c0,0,0.3,0.2,0.8,0l4.9-2.9"/>
			<path class="st12" d="M329.6,62.8l4.9,2.9c0,0,0.3,0.2,0.8,0l4.7-2.8"/>
		</g>
		<g class="st6">
			<path class="st11" d="M341.9,64l4.6,2.7c0,0,0.4,0.3,0.4,0.5v1.1l-4.8,2.8c0,0-0.4,0.3-0.8,0l-5.1-3v-1c0,0,0-0.2,0.3-0.4
				l4.6-2.7C341.2,64,341.5,63.7,341.9,64z"/>
			<path class="st12" d="M336.2,67.1l5.1,3c0,0,0.3,0.2,0.8,0l4.9-2.9"/>
			<path class="st12" d="M336.4,66.7l4.9,2.9c0,0,0.3,0.2,0.8,0l4.7-2.8"/>
		</g>
		<g class="st6">
			<path class="st11" d="M348.7,67.9l4.6,2.7c0,0,0.4,0.3,0.4,0.5v1.1l-4.8,2.8c0,0-0.4,0.3-0.8,0l-5.1-3v-1c0,0,0-0.2,0.3-0.4
				l4.6-2.7C347.9,67.9,348.3,67.7,348.7,67.9z"/>
			<path class="st12" d="M343,71l5.1,3c0,0,0.3,0.2,0.8,0l4.9-2.9"/>
			<path class="st12" d="M343.2,70.7l4.9,2.9c0,0,0.3,0.2,0.8,0l4.7-2.8"/>
		</g>
		<g class="st6">
			<path class="st11" d="M355.6,71.9l12,7c0,0,0.4,0.3,0.4,0.5v1.1l-4.8,2.8c0,0-0.4,0.3-0.8,0l-12.5-7.3v-1c0,0,0-0.2,0.3-0.4
				l4.6-2.7C354.8,71.9,355.2,71.7,355.6,71.9z"/>
			<path class="st12" d="M349.9,75l12.5,7.3c0,0,0.3,0.2,0.8,0l4.9-2.9"/>
			<path class="st12" d="M350.1,74.7l12.3,7.2c0,0,0.3,0.2,0.8,0l4.7-2.8"/>
		</g>
		<line class="st14" x1="271" y1="22.7" x2="369.9" y2="80.3"/>
		<line class="st14" x1="266.5" y1="27.6" x2="365.3" y2="85.1"/>
		<g class="st6">
			<path class="st11" d="M296.7,20.3l4.6,2.7c0,0,0.4,0.3,0.4,0.5v1.1l-4.8,2.8c0,0-0.4,0.3-0.8,0l-5.1-3v-1c0,0,0-0.2,0.3-0.4
				l4.6-2.7C295.9,20.3,296.3,20.1,296.7,20.3z"/>
			<path class="st12" d="M291,23.4l5.1,3c0,0,0.3,0.2,0.8,0l4.9-2.9"/>
			<path class="st12" d="M291.2,23.1l4.9,2.9c0,0,0.3,0.2,0.8,0l4.7-2.8"/>
		</g>
		<g class="st6">
			<path class="st11" d="M288.4,15.5l6.1,3.5c0,0,0.4,0.3,0.4,0.5v1.1l-4.8,2.8c0,0-0.4,0.3-0.8,0l-6.6-3.8v-1c0,0,0-0.2,0.3-0.4
				l4.6-2.7C287.7,15.5,288.1,15.3,288.4,15.5z"/>
			<path class="st12" d="M282.7,18.6l6.6,3.9c0,0,0.3,0.2,0.8,0l4.9-2.9"/>
			<path class="st12" d="M282.9,18.2l6.4,3.8c0,0,0.3,0.2,0.8,0l4.7-2.8"/>
		</g>
		<g class="st6">
			<path class="st11" d="M303.5,24.2l4.6,2.7c0,0,0.4,0.3,0.4,0.5v1.1l-4.8,2.8c0,0-0.4,0.3-0.8,0l-5.1-3v-1c0,0,0-0.2,0.3-0.4
				l4.6-2.7C302.7,24.2,303.1,24,303.5,24.2z"/>
			<path class="st12" d="M297.8,27.4l5.1,3c0,0,0.3,0.2,0.8,0l4.9-2.9"/>
			<path class="st12" d="M298,27l4.9,2.9c0,0,0.3,0.2,0.8,0l4.7-2.8"/>
		</g>
		<g class="st6">
			<path class="st11" d="M310.2,28.2l4.6,2.7c0,0,0.4,0.3,0.4,0.5v1.1l-4.8,2.8c0,0-0.4,0.3-0.8,0l-5.1-3v-1c0,0,0-0.2,0.3-0.4
				l4.6-2.7C309.5,28.2,309.9,27.9,310.2,28.2z"/>
			<path class="st12" d="M304.5,31.3l5.1,3c0,0,0.3,0.2,0.8,0l4.9-2.9"/>
			<path class="st12" d="M304.7,30.9l4.9,2.9c0,0,0.3,0.2,0.8,0l4.7-2.8"/>
		</g>
		<g class="st6">
			<path class="st11" d="M317,32.1l4.6,2.7c0,0,0.4,0.3,0.4,0.5v1.1l-4.8,2.8c0,0-0.4,0.3-0.8,0l-5.1-3v-1c0,0,0-0.2,0.3-0.4
				l4.6-2.7C316.3,32.1,316.6,31.9,317,32.1z"/>
			<path class="st12" d="M311.3,35.2l5.1,3c0,0,0.3,0.2,0.8,0l4.9-2.9"/>
			<path class="st12" d="M311.5,34.9l4.9,2.9c0,0,0.3,0.2,0.8,0l4.7-2.8"/>
		</g>
		<g class="st6">
			<path class="st11" d="M323.7,36l4.6,2.7c0,0,0.4,0.3,0.4,0.5v1.1l-4.8,2.8c0,0-0.4,0.3-0.8,0l-5.1-3v-1c0,0,0-0.2,0.3-0.4L323,36
				C323,36,323.4,35.8,323.7,36z"/>
			<path class="st12" d="M318,39.2l5.1,3c0,0,0.3,0.2,0.8,0l4.9-2.9"/>
			<path class="st12" d="M318.2,38.8l4.9,2.9c0,0,0.3,0.2,0.8,0l4.7-2.8"/>
		</g>
		<g class="st6">
			<path class="st11" d="M330.6,40l4.6,2.7c0,0,0.4,0.3,0.4,0.5v1.1l-4.8,2.8c0,0-0.4,0.3-0.8,0l-5.1-3v-1c0,0,0-0.2,0.3-0.4
				l4.6-2.7C329.8,40,330.2,39.8,330.6,40z"/>
			<path class="st12" d="M324.9,43.1l5.1,3c0,0,0.3,0.2,0.8,0l4.9-2.9"/>
			<path class="st12" d="M325.1,42.8l4.9,2.9c0,0,0.3,0.2,0.8,0l4.7-2.8"/>
		</g>
		<g class="st6">
			<path class="st11" d="M337.3,43.9l4.6,2.7c0,0,0.4,0.3,0.4,0.5v1.1l-4.8,2.8c0,0-0.4,0.3-0.8,0l-5.1-3v-1c0,0,0-0.2,0.3-0.4
				l4.6-2.7C336.6,43.9,337,43.7,337.3,43.9z"/>
			<path class="st12" d="M331.6,47.1l5.1,3c0,0,0.3,0.2,0.8,0l4.9-2.9"/>
			<path class="st12" d="M331.8,46.7l4.9,2.9c0,0,0.3,0.2,0.8,0l4.7-2.8"/>
		</g>
		<g class="st6">
			<path class="st11" d="M344.1,47.9l4.6,2.7c0,0,0.4,0.3,0.4,0.5v1.1l-4.8,2.8c0,0-0.4,0.3-0.8,0l-5.1-3v-1c0,0,0-0.2,0.3-0.4
				l4.6-2.7C343.4,47.9,343.7,47.7,344.1,47.9z"/>
			<path class="st12" d="M338.4,51l5.1,3c0,0,0.3,0.2,0.8,0l4.9-2.9"/>
			<path class="st12" d="M338.6,50.6l4.9,2.9c0,0,0.3,0.2,0.8,0l4.7-2.8"/>
		</g>
		<g class="st6">
			<path class="st11" d="M350.9,51.8l4.6,2.7c0,0,0.4,0.3,0.4,0.5v1.1l-4.8,2.8c0,0-0.4,0.3-0.8,0l-5.1-3v-1c0,0,0-0.2,0.3-0.4
				l4.6-2.7C350.1,51.8,350.5,51.6,350.9,51.8z"/>
			<path class="st12" d="M345.2,54.9l5.1,3c0,0,0.3,0.2,0.8,0l4.9-2.9"/>
			<path class="st12" d="M345.4,54.6l4.9,2.9c0,0,0.3,0.2,0.8,0l4.7-2.8"/>
		</g>
		<g class="st6">
			<path class="st11" d="M357.7,55.8l4.6,2.7c0,0,0.4,0.3,0.4,0.5v1.1l-4.8,2.8c0,0-0.4,0.3-0.8,0l-5.1-3v-1c0,0,0-0.2,0.3-0.4
				l4.6-2.7C356.9,55.8,357.3,55.5,357.7,55.8z"/>
			<path class="st12" d="M352,58.9l5.1,3c0,0,0.3,0.2,0.8,0l4.9-2.9"/>
			<path class="st12" d="M352.2,58.5l4.9,2.9c0,0,0.3,0.2,0.8,0l4.7-2.8"/>
		</g>
		<g class="st6">
			<path class="st11" d="M364.4,59.7l4.6,2.7c0,0,0.4,0.3,0.4,0.5V64l-4.8,2.8c0,0-0.4,0.3-0.8,0l-5.1-3v-1c0,0,0-0.2,0.3-0.4
				l4.6-2.7C363.7,59.7,364.1,59.5,364.4,59.7z"/>
			<path class="st12" d="M358.7,62.8l5.1,3c0,0,0.3,0.2,0.8,0l4.9-2.9"/>
			<path class="st12" d="M358.9,62.5l4.9,2.9c0,0,0.3,0.2,0.8,0l4.7-2.8"/>
		</g>
		<g class="st6">
			<path class="st11" d="M371.2,63.6l4.6,2.7c0,0,0.4,0.3,0.4,0.5V68l-4.8,2.8c0,0-0.4,0.3-0.8,0l-5.1-3v-1c0,0,0-0.2,0.3-0.4
				l4.6-2.7C370.5,63.6,370.8,63.4,371.2,63.6z"/>
			<path class="st12" d="M365.5,66.8l5.1,3c0,0,0.3,0.2,0.8,0l4.9-2.9"/>
			<path class="st12" d="M365.7,66.4l4.9,2.9c0,0,0.3,0.2,0.8,0l4.7-2.8"/>
		</g>
		<g class="st6">
			<path class="st11" d="M378,67.6l4.5,2.6c0,0,0.4,0.3,0.4,0.5v1.1l-4.8,2.8c0,0-0.4,0.3-0.8,0l-5-2.9v-1c0,0,0-0.2,0.3-0.4
				l4.6-2.7C377.2,67.6,377.6,67.4,378,67.6z"/>
			<path class="st12" d="M372.3,70.7l5,3c0,0,0.3,0.2,0.8,0l4.9-2.9"/>
			<path class="st12" d="M372.5,70.4l4.8,2.9c0,0,0.3,0.2,0.8,0l4.7-2.8"/>
		</g>
		<line class="st14" x1="286" y1="14.1" x2="385.7" y2="72.1"/>
		<line class="st14" x1="275.5" y1="15.5" x2="381" y2="76.8"/>
		<g class="st6">
			<path class="st11" d="M291,25.6l4.6,2.7c0,0,0.4,0.3,0.4,0.5v1.1l-4.8,2.8c0,0-0.4,0.3-0.8,0l-5.1-3v-1c0,0,0-0.2,0.3-0.4
				l4.6-2.7C290.3,25.6,290.6,25.4,291,25.6z"/>
			<path class="st12" d="M285.3,28.7l5.1,3c0,0,0.3,0.2,0.8,0l4.9-2.9"/>
			<path class="st12" d="M285.5,28.4l4.9,2.9c0,0,0.3,0.2,0.8,0l4.7-2.8"/>
		</g>
		<g class="st6">
			<path class="st11" d="M281,19.8l7.8,4.5c0,0,0.4,0.3,0.4,0.5V26l-4.8,2.8c0,0-0.4,0.3-0.8,0l-8.3-4.8v-1c0,0,0-0.2,0.3-0.4
				l4.6-2.7C280.3,19.8,280.6,19.6,281,19.8z"/>
			<path class="st12" d="M275.3,22.9l8.3,4.9c0,0,0.3,0.2,0.8,0l4.9-2.9"/>
			<path class="st12" d="M275.5,22.6l8.1,4.8c0,0,0.3,0.2,0.8,0l4.7-2.8"/>
		</g>
		<g class="st6">
			<path class="st11" d="M297.8,29.6l4.6,2.7c0,0,0.4,0.3,0.4,0.5v1.1l-4.8,2.8c0,0-0.4,0.3-0.8,0l-5.1-3v-1c0,0,0-0.2,0.3-0.4
				l4.6-2.7C297,29.5,297.4,29.3,297.8,29.6z"/>
			<path class="st12" d="M292.1,32.7l5.1,3c0,0,0.3,0.2,0.8,0l4.9-2.9"/>
			<path class="st12" d="M292.3,32.3l4.9,2.9c0,0,0.3,0.2,0.8,0l4.7-2.8"/>
		</g>
		<g class="st6">
			<path class="st11" d="M304.5,33.5l4.6,2.7c0,0,0.4,0.3,0.4,0.5v1.1l-4.8,2.8c0,0-0.4,0.3-0.8,0l-5.1-3v-1c0,0,0-0.2,0.3-0.4
				l4.6-2.7C303.8,33.5,304.2,33.3,304.5,33.5z"/>
			<path class="st12" d="M298.8,36.6l5.1,3c0,0,0.3,0.2,0.8,0l4.9-2.9"/>
			<path class="st12" d="M299.1,36.3l4.9,2.9c0,0,0.3,0.2,0.8,0l4.7-2.8"/>
		</g>
		<g class="st6">
			<path class="st11" d="M311.3,37.4l4.6,2.7c0,0,0.4,0.3,0.4,0.5v1.1l-4.8,2.8c0,0-0.4,0.3-0.8,0l-5.1-3v-1c0,0,0-0.2,0.3-0.4
				l4.6-2.7C310.6,37.4,311,37.2,311.3,37.4z"/>
			<path class="st12" d="M305.6,40.6l5.1,3c0,0,0.3,0.2,0.8,0l4.9-2.9"/>
			<path class="st12" d="M305.8,40.2l4.9,2.9c0,0,0.3,0.2,0.8,0l4.7-2.8"/>
		</g>
		<g class="st6">
			<path class="st11" d="M318.1,41.4l4.6,2.7c0,0,0.4,0.3,0.4,0.5v1.1l-4.8,2.8c0,0-0.4,0.3-0.8,0l-5.1-3v-1c0,0,0-0.2,0.3-0.4
				l4.6-2.7C317.3,41.4,317.7,41.1,318.1,41.4z"/>
			<path class="st12" d="M312.4,44.5l5.1,3c0,0,0.3,0.2,0.8,0l4.9-2.9"/>
			<path class="st12" d="M312.6,44.1l4.9,2.9c0,0,0.3,0.2,0.8,0l4.7-2.8"/>
		</g>
		<g class="st6">
			<path class="st11" d="M324.9,45.3l4.6,2.7c0,0,0.4,0.3,0.4,0.5v1.1l-4.8,2.8c0,0-0.4,0.3-0.8,0l-5.1-3v-1c0,0,0-0.2,0.3-0.4
				l4.6-2.7C324.1,45.3,324.5,45.1,324.9,45.3z"/>
			<path class="st12" d="M319.2,48.4l5.1,3c0,0,0.3,0.2,0.8,0l4.9-2.9"/>
			<path class="st12" d="M319.4,48.1l4.9,2.9c0,0,0.3,0.2,0.8,0l4.7-2.8"/>
		</g>
		<g class="st6">
			<path class="st11" d="M331.6,49.3l4.6,2.7c0,0,0.4,0.3,0.4,0.5v1.1l-4.8,2.8c0,0-0.4,0.3-0.8,0l-5.1-3v-1c0,0,0-0.2,0.3-0.4
				l4.6-2.7C330.9,49.2,331.3,49,331.6,49.3z"/>
			<path class="st12" d="M325.9,52.4l5.1,3c0,0,0.3,0.2,0.8,0l4.9-2.9"/>
			<path class="st12" d="M326.1,52l4.9,2.9c0,0,0.3,0.2,0.8,0l4.7-2.8"/>
		</g>
		<g class="st6">
			<path class="st11" d="M338.4,53.2l4.6,2.7c0,0,0.4,0.3,0.4,0.5v1.1l-4.8,2.8c0,0-0.4,0.3-0.8,0l-5.1-3v-1c0,0,0-0.2,0.3-0.4
				l4.6-2.7C337.7,53.2,338.1,53,338.4,53.2z"/>
			<path class="st12" d="M332.7,56.3l5.1,3c0,0,0.3,0.2,0.8,0l4.9-2.9"/>
			<path class="st12" d="M332.9,56l4.9,2.9c0,0,0.3,0.2,0.8,0l4.7-2.8"/>
		</g>
		<g class="st6">
			<path class="st11" d="M345.2,57.2l4.6,2.7c0,0,0.4,0.3,0.4,0.5v1.1l-4.8,2.8c0,0-0.4,0.3-0.8,0l-5.1-3v-1c0,0,0-0.2,0.3-0.4
				l4.6-2.7C344.5,57.1,344.8,56.9,345.2,57.2z"/>
			<path class="st12" d="M339.5,60.3l5.1,3c0,0,0.3,0.2,0.8,0l4.9-2.9"/>
			<path class="st12" d="M339.7,59.9l4.9,2.9c0,0,0.3,0.2,0.8,0l4.7-2.8"/>
		</g>
		<g class="st6">
			<path class="st11" d="M352,61.1l4.6,2.7c0,0,0.4,0.3,0.4,0.5v1.1l-4.8,2.8c0,0-0.4,0.3-0.8,0l-5.1-3v-1c0,0,0-0.2,0.3-0.4
				l4.6-2.7C351.2,61.1,351.6,60.9,352,61.1z"/>
			<path class="st12" d="M346.3,64.2l5.1,3c0,0,0.3,0.2,0.8,0l4.9-2.9"/>
			<path class="st12" d="M346.5,63.8l4.9,2.9c0,0,0.3,0.2,0.8,0l4.7-2.8"/>
		</g>
		<g class="st6">
			<path class="st11" d="M358.7,65l4.6,2.7c0,0,0.4,0.3,0.4,0.5v1.1l-4.8,2.8c0,0-0.4,0.3-0.8,0l-5.1-3v-1c0,0,0-0.2,0.3-0.4L358,65
				C358,65,358.4,64.8,358.7,65z"/>
			<path class="st12" d="M353,68.1l5.1,3c0,0,0.3,0.2,0.8,0l4.9-2.9"/>
			<path class="st12" d="M353.2,67.8l4.9,2.9c0,0,0.3,0.2,0.8,0l4.7-2.8"/>
		</g>
		<g class="st6">
			<path class="st11" d="M365.5,69l9.6,5.6c0,0,0.4,0.3,0.4,0.5v1.1l-4.8,2.8c0,0-0.4,0.3-0.8,0l-10.1-5.9v-1c0,0,0-0.2,0.3-0.4
				l4.6-2.7C364.8,69,365.1,68.7,365.5,69z"/>
			<path class="st12" d="M359.8,72.1l10.1,5.9c0,0,0.3,0.2,0.8,0l4.9-2.9"/>
			<path class="st12" d="M360,71.7l9.9,5.8c0,0,0.3,0.2,0.8,0l4.7-2.8"/>
		</g>
		<line class="st14" x1="280.3" y1="19.4" x2="380" y2="77.4"/>
		<line class="st14" x1="269.8" y1="20.8" x2="375.3" y2="82.2"/>
		<g class="st6">
			<path class="st11" d="M309.7,6.2c0,0-1.5-0.8-2.9,0.1c-2,1.2-0.2,2.2-0.2,2.2l4.1,2.4c0,0,1.3,0.9,2.8,0s0.6-2-0.5-2.6L309.7,6.2
				z"/>
			<path class="st12" d="M307.3,6c-1.9,1-0.3,1.7-0.3,1.7l4,2.3c0,0,1.1,0.8,2.5,0c0.9-0.5,0.7-1.2,0.1-1.6"/>
		</g>
	</g>
	<g id="K600">
		<g>
			<path class="st7" d="M444.4,87.1V89c0,0.8-0.4,1.8-2,2.8l-36.5,21.3c0,0-6.3,4-13.2,0L255.5,33.3c0,0-3.5-1.7-3.5-4.6v-2l0,0
				c0.1-1.4,1.1-3,4.1-4.7l34.2-19.7c0,0,5.7-3.3,11.3,0l140.6,81.8C442.2,84.1,444.3,85.4,444.4,87.1"/>
			<line class="st13" x1="292.7" y1="1" x2="426.5" y2="78.9"/>
			<line class="st13" x1="287.7" y1="3.9" x2="421.5" y2="81.7"/>
			<line class="st13" x1="282.2" y1="9.3" x2="416" y2="87.2"/>
			<line class="st13" x1="274.6" y1="13.2" x2="408.4" y2="91.1"/>
			<line class="st13" x1="270.2" y1="19.3" x2="404" y2="97.2"/>
			<line class="st13" x1="265.5" y1="25.7" x2="399.3" y2="103.6"/>
			<line class="st13" x1="260" y1="29.9" x2="393.7" y2="107.8"/>
			<path class="st15" d="M444.4,87.1c0,0.9-0.5,1.8-2,2.7l-36.5,21.3c0,0-6.3,4-13.2,0L255.5,31.4c0,0-3.6-1.9-3.5-4.7"/>
			<g>
				<ellipse class="st15" cx="296.1" cy="5.7" rx="3.3" ry="1.8"/>
				<path class="st16" d="M296.1,7c-1.7,0-3.1-0.7-3.1-1.6s1.4-1.6,3.1-1.6c1.7,0,3.1,0.7,3.1,1.6S297.7,7,296.1,7z"/>
			</g>
			<ellipse class="st15" cx="282.5" cy="13.5" rx="3.3" ry="1.8"/>
			<path class="st16" d="M282.5,14.9c-1.7,0-3.1-0.7-3.1-1.6c0-0.9,1.4-1.6,3.1-1.6c1.7,0,3.1,0.7,3.1,1.6
				C285.6,14.1,284.2,14.9,282.5,14.9z"/>
			<ellipse class="st15" cx="276.5" cy="17" rx="3.3" ry="1.8"/>
			<path class="st16" d="M276.5,18.3c-1.7,0-3.1-0.7-3.1-1.6c0-0.9,1.4-1.6,3.1-1.6c1.7,0,3.1,0.7,3.1,1.6
				C279.5,17.6,278.1,18.3,276.5,18.3z"/>
			<ellipse class="st15" cx="270.5" cy="20.4" rx="3.3" ry="1.8"/>
			<path class="st16" d="M270.5,21.7c-1.7,0-3.1-0.7-3.1-1.6s1.4-1.6,3.1-1.6c1.7,0,3.1,0.7,3.1,1.6S272.1,21.7,270.5,21.7z"/>
			<ellipse class="st15" cx="264.4" cy="23.9" rx="3.3" ry="1.8"/>
			<path class="st16" d="M264.4,25.2c-1.7,0-3.1-0.7-3.1-1.6c0-0.9,1.4-1.6,3.1-1.6c1.7,0,3.1,0.7,3.1,1.6
				C267.5,24.5,266.1,25.2,264.4,25.2z"/>
			<ellipse class="st15" cx="290.3" cy="9.1" rx="3.3" ry="1.8"/>
			<path class="st16" d="M290.3,10.9c-1.7,0-3.1-0.7-3.1-1.6c0-0.9,1.4-1.6,3.1-1.6c1.7,0,3.1,0.7,3.1,1.6
				C293.4,10.2,292,10.9,290.3,10.9z"/>
			<path class="st15" d="M304.7,8c-0.4-0.2-1.1-0.4-1.7-0.4c-1.4,0-2.4,0.6-2.4,1.4c0,0.4,0.3,0.7,0.7,0.9l3,1.7
				c0.4,0.3,1.1,0.4,1.8,0.4c1.4,0,2.4-0.6,2.4-1.4c0-0.3-0.2-0.7-0.6-0.9L304.7,8z"/>
			<path class="st16" d="M305.9,11.5c-0.6,0-1.2-0.1-1.7-0.4l-3-1.7c-0.2-0.1-0.6-0.4-0.6-0.7c0-0.5,0.9-1.1,2.2-1.1
				c0.6,0,1.2,0.1,1.6,0.4l3.1,1.8c0.2,0.1,0.5,0.4,0.5,0.7C308.1,10.9,307.2,11.5,305.9,11.5z"/>
			<path class="st15" d="M312,12.2c-0.4-0.2-1.1-0.4-1.7-0.4c-1.4,0-2.4,0.6-2.4,1.4c0,0.4,0.3,0.7,0.7,0.9l3,1.7
				c0.4,0.3,1.1,0.4,1.8,0.4c1.4,0,2.4-0.6,2.4-1.4c0-0.3-0.2-0.7-0.6-0.9L312,12.2z"/>
			<path class="st16" d="M313.2,15.7c-0.6,0-1.2-0.1-1.7-0.4l-3-1.7c-0.2-0.1-0.6-0.4-0.6-0.7c0-0.5,0.9-1.1,2.2-1.1
				c0.6,0,1.2,0.1,1.6,0.4l3.1,1.8c0.2,0.1,0.5,0.4,0.5,0.7C315.4,15.2,314.6,15.7,313.2,15.7z"/>
			<path class="st15" d="M319.3,16.5c-0.4-0.2-1.1-0.4-1.7-0.4c-1.4,0-2.4,0.6-2.4,1.4c0,0.4,0.3,0.7,0.7,0.9l3,1.7
				c0.4,0.3,1.1,0.4,1.8,0.4c1.4,0,2.4-0.6,2.4-1.4c0-0.3-0.2-0.7-0.6-0.9L319.3,16.5z"/>
			<path class="st16" d="M320.5,20c-0.6,0-1.2-0.1-1.7-0.4l-3-1.7c-0.2-0.1-0.6-0.4-0.6-0.7c0-0.5,0.9-1.1,2.2-1.1
				c0.6,0,1.2,0.1,1.6,0.4l3.1,1.8c0.2,0.1,0.5,0.4,0.5,0.7C322.7,19.4,321.8,20,320.5,20z"/>
			<path class="st15" d="M326.6,20.7c-0.4-0.2-1.1-0.4-1.7-0.4c-1.4,0-2.4,0.6-2.4,1.4c0,0.4,0.3,0.7,0.7,0.9l3,1.7
				c0.4,0.3,1.1,0.4,1.8,0.4c1.4,0,2.4-0.6,2.4-1.4c0-0.3-0.2-0.7-0.6-0.9L326.6,20.7z"/>
			<path class="st16" d="M327.9,24.3c-0.6,0-1.2-0.1-1.7-0.4l-3-1.7c-0.2-0.1-0.6-0.4-0.6-0.7c0-0.5,0.9-1.1,2.2-1.1
				c0.6,0,1.2,0.1,1.6,0.4l3.1,1.8c0.2,0.1,0.5,0.4,0.5,0.7C330.1,23.7,329.2,24.3,327.9,24.3z"/>
			<path class="st15" d="M333.9,25c-0.4-0.2-1.1-0.4-1.7-0.4c-1.4,0-2.4,0.6-2.4,1.4c0,0.4,0.3,0.7,0.7,0.9l3,1.7
				c0.4,0.3,1.1,0.4,1.8,0.4c1.4,0,2.4-0.6,2.4-1.4c0-0.3-0.2-0.7-0.6-0.9L333.9,25z"/>
			<path class="st16" d="M335.1,28.5c-0.6,0-1.2-0.1-1.7-0.4l-3-1.7c-0.2-0.1-0.6-0.4-0.6-0.7c0-0.5,0.9-1.1,2.2-1.1
				c0.6,0,1.2,0.1,1.6,0.4l3.1,1.8c0.2,0.1,0.5,0.4,0.5,0.7C337.3,28,336.4,28.5,335.1,28.5z"/>
			<path class="st15" d="M341.1,29.2c-0.4-0.2-1.1-0.4-1.7-0.4c-1.4,0-2.4,0.6-2.4,1.4c0,0.4,0.3,0.7,0.7,0.9l3,1.7
				c0.4,0.3,1.1,0.4,1.8,0.4c1.4,0,2.4-0.6,2.4-1.4c0-0.3-0.2-0.7-0.6-0.9L341.1,29.2z"/>
			<path class="st16" d="M342.4,32.7c-0.6,0-1.2-0.1-1.7-0.4l-3-1.7c-0.2-0.1-0.6-0.4-0.6-0.7c0-0.5,0.9-1.1,2.2-1.1
				c0.6,0,1.2,0.1,1.6,0.4l3.1,1.8c0.2,0.1,0.5,0.4,0.5,0.7C344.6,32.2,343.7,32.7,342.4,32.7z"/>
			<path class="st15" d="M348.3,33.3c-0.4-0.2-1.1-0.4-1.7-0.4c-1.4,0-2.4,0.6-2.4,1.4c0,0.4,0.3,0.7,0.7,0.9l3,1.7
				c0.4,0.3,1.1,0.4,1.8,0.4c1.4,0,2.4-0.6,2.4-1.4c0-0.3-0.2-0.7-0.6-0.9L348.3,33.3z"/>
			<path class="st16" d="M349.5,36.9c-0.6,0-1.2-0.1-1.7-0.4l-3-1.7c-0.2-0.1-0.6-0.4-0.6-0.7c0-0.5,0.9-1.1,2.2-1.1
				c0.6,0,1.2,0.1,1.6,0.4l3.1,1.8c0.2,0.1,0.5,0.4,0.5,0.7C351.7,36.3,350.9,36.9,349.5,36.9z"/>
			<path class="st15" d="M355.7,37.6c-0.4-0.2-1.1-0.4-1.7-0.4c-1.4,0-2.4,0.6-2.4,1.4c0,0.4,0.3,0.7,0.7,0.9l3,1.7
				c0.4,0.3,1.1,0.4,1.8,0.4c1.4,0,2.4-0.6,2.4-1.4c0-0.3-0.2-0.7-0.6-0.9L355.7,37.6z"/>
			<path class="st16" d="M357,41.2c-0.6,0-1.2-0.1-1.7-0.4l-3-1.7c-0.2-0.1-0.6-0.4-0.6-0.7c0-0.5,0.9-1.1,2.2-1.1
				c0.6,0,1.2,0.1,1.6,0.4l3.1,1.8c0.2,0.1,0.5,0.4,0.5,0.7C359.2,40.6,358.3,41.2,357,41.2z"/>
			<path class="st15" d="M362.8,41.8c-0.4-0.2-1.1-0.4-1.7-0.4c-1.4,0-2.4,0.6-2.4,1.4c0,0.4,0.3,0.7,0.7,0.9l3,1.7
				c0.4,0.3,1.1,0.4,1.8,0.4c1.4,0,2.4-0.6,2.4-1.4c0-0.3-0.2-0.7-0.6-0.9L362.8,41.8z"/>
			<path class="st16" d="M364.1,45.3c-0.6,0-1.2-0.1-1.7-0.4l-3-1.7c-0.2-0.1-0.6-0.4-0.6-0.7c0-0.5,0.9-1.1,2.2-1.1
				c0.6,0,1.2,0.1,1.6,0.4l3.1,1.8c0.2,0.1,0.5,0.4,0.5,0.7C366.3,44.8,365.4,45.3,364.1,45.3z"/>
			<path class="st15" d="M370,46c-0.4-0.2-1.1-0.4-1.7-0.4c-1.4,0-2.4,0.6-2.4,1.4c0,0.4,0.3,0.7,0.7,0.9l3,1.7
				c0.4,0.3,1.1,0.4,1.8,0.4c1.4,0,2.4-0.6,2.4-1.4c0-0.3-0.2-0.7-0.6-0.9L370,46z"/>
			<path class="st16" d="M371.2,49.6c-0.6,0-1.2-0.1-1.7-0.4l-3-1.7c-0.2-0.1-0.6-0.4-0.6-0.7c0-0.5,0.9-1.1,2.2-1.1
				c0.6,0,1.2,0.1,1.6,0.4l3.1,1.8c0.2,0.1,0.5,0.4,0.5,0.7C373.4,49,372.6,49.6,371.2,49.6z"/>
			<path class="st15" d="M377.4,50.3c-0.4-0.2-1.1-0.4-1.7-0.4c-1.4,0-2.4,0.6-2.4,1.4c0,0.4,0.3,0.7,0.7,0.9l3,1.7
				c0.4,0.3,1.1,0.4,1.8,0.4c1.4,0,2.4-0.6,2.4-1.4c0-0.3-0.2-0.7-0.6-0.9L377.4,50.3z"/>
			<path class="st16" d="M378.6,53.8c-0.6,0-1.2-0.1-1.7-0.4l-3-1.7c-0.2-0.1-0.6-0.4-0.6-0.7c0-0.5,0.9-1.1,2.2-1.1
				c0.6,0,1.2,0.1,1.6,0.4l3.1,1.8c0.2,0.1,0.5,0.4,0.5,0.7C380.8,53.2,379.9,53.8,378.6,53.8z"/>
			<path class="st15" d="M384.7,54.6c-0.4-0.2-1.1-0.4-1.7-0.4c-1.4,0-2.4,0.6-2.4,1.4c0,0.4,0.3,0.7,0.7,0.9l3,1.7
				c0.4,0.3,1.1,0.4,1.8,0.4c1.4,0,2.4-0.6,2.4-1.4c0-0.3-0.2-0.7-0.6-0.9L384.7,54.6z"/>
			<path class="st16" d="M385.9,58.1c-0.6,0-1.2-0.1-1.7-0.4l-3-1.7c-0.2-0.1-0.6-0.4-0.6-0.7c0-0.5,0.9-1.1,2.2-1.1
				c0.6,0,1.2,0.1,1.6,0.4l3.1,1.8c0.2,0.1,0.5,0.4,0.5,0.7C388.1,57.5,387.2,58.1,385.9,58.1z"/>
			<g>
				<path class="st15" d="M392,58.9c-0.4-0.2-1.1-0.4-1.7-0.4c-1.4,0-2.4,0.6-2.4,1.4c0,0.4,0.3,0.7,0.7,0.9l3,1.7
					c0.4,0.3,1.1,0.4,1.8,0.4c1.4,0,2.4-0.6,2.4-1.4c0-0.3-0.2-0.7-0.6-0.9L392,58.9z"/>
				<path class="st16" d="M393.3,62.4c-0.6,0-1.2-0.1-1.7-0.4l-3-1.7c-0.2-0.1-0.6-0.4-0.6-0.7c0-0.5,0.9-1.1,2.2-1.1
					c0.6,0,1.2,0.1,1.6,0.4l3.1,1.8c0.2,0.1,0.5,0.4,0.5,0.7C395.5,61.8,394.6,62.4,393.3,62.4z"/>
			</g>
			<g>
				<g>
					<path class="st15" d="M364.1,82.9c-0.4-0.2-1-0.4-1.7-0.4c-1.3,0-2.3,0.6-2.3,1.3c0,0.3,0.3,0.7,0.7,0.9l3.3,1.9
						c0.4,0.3,1,0.4,1.7,0.4c1.3,0,2.3-0.6,2.3-1.3c0-0.3-0.2-0.6-0.6-0.8L364.1,82.9z"/>
					<path class="st16" d="M365.8,86.5c-0.6,0-1.2-0.1-1.6-0.4l-3.3-1.9c-0.2-0.1-0.5-0.4-0.5-0.7c0-0.5,0.8-1.1,2.1-1.1
						c0.6,0,1.1,0.1,1.5,0.4l3.5,2c0.2,0.1,0.5,0.4,0.5,0.6C367.9,86,367,86.5,365.8,86.5z"/>
				</g>
				<g>
					<path class="st15" d="M360.9,84.8c-0.4-0.2-1-0.4-1.7-0.4c-1.3,0-2.3,0.6-2.3,1.3c0,0.3,0.3,0.7,0.7,0.9l3.3,1.9
						c0.4,0.3,1,0.4,1.7,0.4c1.3,0,2.3-0.6,2.3-1.3c0-0.3-0.2-0.6-0.6-0.8L360.9,84.8z"/>
					<path class="st16" d="M362.6,88.4c-0.6,0-1.2-0.1-1.6-0.4l-3.3-1.9c-0.2-0.1-0.5-0.4-0.5-0.7c0-0.5,0.8-1.1,2.1-1.1
						c0.6,0,1.1,0.1,1.5,0.4l3.5,2c0.2,0.1,0.5,0.4,0.5,0.6C364.7,87.9,363.9,88.4,362.6,88.4z"/>
				</g>
			</g>
			<g>
				<path class="st15" d="M368.6,89.3c-0.4-0.2-1-0.4-1.7-0.4c-1.3,0-2.3,0.6-2.3,1.3c0,0.3,0.3,0.7,0.7,0.9l3.3,2
					c0.4,0.3,1,0.4,1.7,0.4c1.3,0,2.3-0.6,2.3-1.3c0-0.3-0.2-0.6-0.6-0.8L368.6,89.3z"/>
				<path class="st16" d="M370.3,93c-0.6,0-1.2-0.1-1.6-0.4l-3.3-2c-0.2-0.1-0.5-0.4-0.5-0.7c0-0.5,0.8-1.1,2.1-1.1
					c0.6,0,1.1,0.1,1.5,0.4l3.5,2c0.2,0.1,0.5,0.4,0.5,0.6C372.4,92.4,371.5,93,370.3,93z"/>
			</g>
			<g>
				<path class="st15" d="M353.4,80.5c-0.4-0.2-1-0.4-1.7-0.4c-1.3,0-2.3,0.6-2.3,1.3c0,0.3,0.3,0.7,0.7,0.9l3.3,2
					c0.4,0.3,1,0.4,1.7,0.4c1.3,0,2.3-0.6,2.3-1.3c0-0.3-0.2-0.6-0.6-0.8L353.4,80.5z"/>
				<path class="st16" d="M355.1,84.2c-0.6,0-1.2-0.1-1.6-0.4l-3.3-2c-0.2-0.1-0.5-0.4-0.5-0.7c0-0.5,0.8-1.1,2.1-1.1
					c0.6,0,1.1,0.1,1.5,0.4l3.5,2c0.2,0.1,0.5,0.4,0.5,0.6C357.2,83.7,356.4,84.2,355.1,84.2z"/>
			</g>
			<path class="st15" d="M399.4,63.1c-0.4-0.2-1.1-0.4-1.7-0.4c-1.4,0-2.4,0.6-2.4,1.4c0,0.4,0.3,0.7,0.7,0.9l3,1.7
				c0.4,0.3,1.1,0.4,1.8,0.4c1.4,0,2.4-0.6,2.4-1.4c0-0.3-0.2-0.7-0.6-0.9L399.4,63.1z"/>
			<path class="st16" d="M400.7,66.7c-0.6,0-1.2-0.1-1.7-0.4l-3-1.7c-0.2-0.1-0.6-0.4-0.6-0.7c0-0.5,0.9-1.1,2.2-1.1
				c0.6,0,1.2,0.1,1.6,0.4l3.1,1.8c0.2,0.1,0.5,0.4,0.5,0.7C402.9,66.1,402,66.7,400.7,66.7z"/>
			<path class="st15" d="M406.8,67.4c-0.4-0.2-1.1-0.4-1.7-0.4c-1.4,0-2.4,0.6-2.4,1.4c0,0.4,0.3,0.7,0.7,0.9l3,1.7
				c0.4,0.3,1.1,0.4,1.8,0.4c1.4,0,2.4-0.6,2.4-1.4c0-0.3-0.2-0.7-0.6-0.9L406.8,67.4z"/>
			<path class="st16" d="M408.1,71c-0.6,0-1.2-0.1-1.7-0.4l-3-1.7c-0.2-0.1-0.6-0.4-0.6-0.7c0-0.5,0.9-1.1,2.2-1.1
				c0.6,0,1.2,0.1,1.6,0.4l3.1,1.8c0.2,0.1,0.5,0.4,0.5,0.7C410.3,70.4,409.4,71,408.1,71z"/>
			<g>
				<path class="st15" d="M404.6,72.8c0-0.6-0.4-1.1-1-1.5l-6.3-3.6c-0.7-0.4-1.8-0.7-2.9-0.7c-2.3,0-4.1,1-4.1,2.3v0.7
					c0,0.6,0.4,1.2,1.2,1.6l6,3.5c0.8,0.4,1.8,0.7,3,0.7c2.3,0,4.1-1,4.1-2.3v-0.8"/>
				<path class="st16" d="M390.2,69.3c0,0.6,0.4,1.2,1.2,1.6l6,3.5c0.8,0.4,1.8,0.7,3,0.7c2.3,0,4.1-1,4.1-2.3"/>
			</g>
			<g>
				<path class="st15" d="M389.9,81.1c0-0.6-0.4-1.1-1-1.5l-8.3-4.8c-0.7-0.4-1.8-0.7-2.9-0.7c-2.3,0-4.1,1-4.1,2.3v0.7
					c0,0.6,0.4,1.2,1.2,1.6l8.1,4.7c0.8,0.4,1.8,0.7,3,0.7c2.3,0,4.1-1,4.1-2.3V81"/>
				<path class="st16" d="M373.5,76.4c0,0.6,0.4,1.2,1.2,1.6l8.1,4.7c0.8,0.4,1.8,0.7,3,0.7c2.3,0,4.1-1,4.1-2.3"/>
			</g>
			<g>
				<path class="st15" d="M382.5,85.4c0-0.6-0.4-1.1-1-1.5l-10.7-6.2c-0.7-0.4-1.8-0.7-2.9-0.7c-2.3,0-4.1,1-4.1,2.3V80
					c0,0.6,0.4,1.2,1.2,1.6l10.5,6.1c0.8,0.4,1.8,0.7,3,0.7c2.3,0,4.1-1,4.1-2.3v-0.8"/>
				<path class="st16" d="M363.7,79.3c0,0.6,0.4,1.2,1.2,1.6l10.5,6.1c0.8,0.4,1.8,0.7,3,0.7c2.3,0,4.1-1,4.1-2.3"/>
			</g>
			<path class="st15" d="M397.3,77c0-0.6-0.4-1.1-1-1.5l-2.4-1.4c-0.7-0.4-1.8-0.7-2.9-0.7c-2.3,0-4.1,1-4.1,2.3v0.7
				c0,0.6,0.4,1.2,1.2,1.6l2.2,1.3c0.8,0.4,1.8,0.7,3,0.7c2.3,0,4.1-1,4.1-2.3v-0.8"/>
			<path class="st16" d="M386.8,75.7c0,0.6,0.4,1.2,1.2,1.6l2.2,1.3c0.8,0.4,1.8,0.7,3,0.7c2.3,0,4.1-1,4.1-2.3"/>
			<g>
				<path class="st16" d="M286.5,17.4c0,0.6,0.4,1.2,1.2,1.6l3.9,2.3c0.8,0.4,1.8,0.7,3,0.7c2.3,0,4.1-1,4.1-2.3"/>
				<path class="st15" d="M298.7,19.7c0-0.6-0.4-1.1-1-1.5l-4.1-2.4c-0.7-0.4-1.8-0.7-2.9-0.7c-2.3,0-4.1,1-4.1,2.3V18
					c0,0.6,0.4,1.2,1.2,1.6l3.9,2.3c0.8,0.4,1.8,0.7,3,0.7c2.3,0,4.1-1,4.1-2.3v-0.8"/>
			</g>
			<g>
				<path class="st16" d="M279.3,21.7c0,0.6,0.4,1.2,1.2,1.6l5.2,3c0.8,0.4,1.8,0.7,3,0.7c2.3,0,4.1-1,4.1-2.3"/>
				<path class="st15" d="M292.7,24.7c0-0.6-0.4-1.1-1-1.5l-5.4-3.1c-0.7-0.4-1.8-0.7-2.9-0.7c-2.3,0-4.1,1-4.1,2.3v0.7
					c0,0.6,0.4,1.2,1.2,1.6l5.2,3c0.8,0.4,1.8,0.7,3,0.7c2.3,0,4.1-1,4.1-2.3v-0.8"/>
			</g>
			<g>
				<path class="st16" d="M272,25.9c0,0.6,0.4,1.2,1.2,1.6l10.1,5.9c0.8,0.4,1.8,0.7,3,0.7c2.3,0,4.1-1,4.1-2.3"/>
				<path class="st15" d="M290.4,31.9c0-0.6-0.4-1.1-1-1.5l-10.3-6c-0.7-0.4-1.8-0.7-2.9-0.7c-2.3,0-4.1,1-4.1,2.3v0.7
					c0,0.6,0.4,1.2,1.2,1.6l10.1,5.9c0.8,0.4,1.8,0.7,3,0.7c2.3,0,4.1-1,4.1-2.3v-0.8"/>
			</g>
			<g>
				<path class="st16" d="M293.4,47.7c0,0.6,0.4,1.2,1.2,1.6l34.9,20.4c0.8,0.4,1.8,0.7,3,0.7c2.3,0,4.1-1,4.1-2.3"/>
				<path class="st15" d="M336.6,68.1c0-0.6-0.4-1.1-1-1.5l-35.2-20.5c-0.7-0.4-1.8-0.7-2.9-0.7c-2.3,0-4.1,1-4.1,2.3v0.7
					c0,0.6,0.4,1.2,1.2,1.6l34.9,20.4c0.8,0.4,1.8,0.7,3,0.7c2.3,0,4.1-1,4.1-2.3V68"/>
			</g>
			<line class="st15" x1="288.1" y1="7.8" x2="294" y2="4.3"/>
			<line class="st15" x1="292.7" y1="10.4" x2="298.7" y2="6.9"/>
			<path class="st16" d="M302.7,13.3c0,1.1-1.9,2.3-4.6,2.3c-2.7,0-4.6-1.2-4.6-2.3"/>
			<path class="st15" d="M293.5,13.3v0.5c0,1.3,2.1,2.5,4.6,2.5c2.5,0,4.6-1.1,4.6-2.5v-0.5c0-1.1-1.9-2.3-4.6-2.3
				C295.4,11,293.5,12.2,293.5,13.3z"/>
			<g>
				<path class="st16" d="M310,17.7c0,1.1-1.9,2.3-4.6,2.3c-2.7,0-4.6-1.2-4.6-2.3"/>
				<path class="st15" d="M300.8,17.7v0.5c0,1.3,2.1,2.5,4.6,2.5c2.5,0,4.6-1.1,4.6-2.5v-0.5c0-1.1-1.9-2.3-4.6-2.3
					C302.7,15.4,300.8,16.6,300.8,17.7z"/>
			</g>
			<g>
				<path class="st16" d="M306.4,24c0,1.1-1.9,2.3-4.6,2.3c-2.7,0-4.6-1.2-4.6-2.3"/>
				<path class="st15" d="M297.2,24v0.5c0,1.3,2.1,2.5,4.6,2.5c2.5,0,4.6-1.1,4.6-2.5V24c0-1.1-1.9-2.3-4.6-2.3
					C299.1,21.7,297.2,22.9,297.2,24z"/>
			</g>
			<g>
				<path class="st16" d="M300.3,29c0,1.1-1.9,2.3-4.6,2.3c-2.7,0-4.6-1.2-4.6-2.3"/>
				<path class="st15" d="M291.1,29v0.5c0,1.3,2.1,2.5,4.6,2.5c2.5,0,4.6-1.1,4.6-2.5V29c0-1.1-1.9-2.3-4.6-2.3
					C293,26.7,291.1,27.9,291.1,29z"/>
			</g>
			<g>
				<path class="st16" d="M272.7,30.8c0,1.1-1.9,2.3-4.6,2.3c-2.7,0-4.6-1.2-4.6-2.3"/>
				<path class="st15" d="M263.6,30.8v0.5c0,1.3,2.1,2.5,4.6,2.5c2.5,0,4.6-1.1,4.6-2.5v-0.5c0-1.1-1.9-2.3-4.6-2.3
					C265.5,28.5,263.6,29.7,263.6,30.8z"/>
			</g>
			<g>
				<path class="st16" d="M280.1,35c0,1.1-1.9,2.3-4.6,2.3c-2.7,0-4.6-1.2-4.6-2.3"/>
				<path class="st15" d="M270.9,35v0.5c0,1.3,2.1,2.5,4.6,2.5c2.5,0,4.6-1.1,4.6-2.5V35c0-1.1-1.9-2.3-4.6-2.3
					C272.8,32.7,270.9,33.9,270.9,35z"/>
			</g>
			<g>
				<path class="st16" d="M287.4,39.3c0,1.1-1.9,2.3-4.6,2.3c-2.7,0-4.6-1.2-4.6-2.3"/>
				<path class="st15" d="M278.2,39.3v0.5c0,1.3,2.1,2.5,4.6,2.5c2.5,0,4.6-1.1,4.6-2.5v-0.5c0-1.1-1.9-2.3-4.6-2.3
					C280.1,37,278.2,38.2,278.2,39.3z"/>
			</g>
			<g>
				<path class="st16" d="M294.8,43.6c0,1.1-1.9,2.3-4.6,2.3c-2.7,0-4.6-1.2-4.6-2.3"/>
				<path class="st15" d="M285.6,43.6v0.5c0,1.3,2.1,2.5,4.6,2.5c2.5,0,4.6-1.1,4.6-2.5v-0.5c0-1.1-1.9-2.3-4.6-2.3
					C287.5,41.3,285.6,42.5,285.6,43.6z"/>
			</g>
			<g>
				<path class="st16" d="M297.9,36.3c0,1.1-1.9,2.3-4.6,2.3c-2.7,0-4.6-1.2-4.6-2.3"/>
				<path class="st15" d="M288.7,36.3v0.5c0,1.3,2.1,2.5,4.6,2.5c2.5,0,4.6-1.1,4.6-2.5v-0.5c0-1.1-1.9-2.3-4.6-2.3
					C290.6,34,288.7,35.2,288.7,36.3z"/>
			</g>
			<g>
				<path class="st16" d="M305.3,40.4c0,1.1-1.9,2.3-4.6,2.3c-2.7,0-4.6-1.2-4.6-2.3"/>
				<path class="st15" d="M296.2,40.4V41c0,1.3,2.1,2.5,4.6,2.5c2.5,0,4.6-1.1,4.6-2.5v-0.5c0-1.1-1.9-2.3-4.6-2.3
					C298.1,38.1,296.2,39.4,296.2,40.4z"/>
			</g>
			<g>
				<path class="st16" d="M312.8,44.8c0,1.1-1.9,2.3-4.6,2.3c-2.7,0-4.6-1.2-4.6-2.3"/>
				<path class="st15" d="M303.6,44.8v0.5c0,1.3,2.1,2.5,4.6,2.5c2.5,0,4.6-1.1,4.6-2.5v-0.5c0-1.1-1.9-2.3-4.6-2.3
					C305.5,42.5,303.6,43.7,303.6,44.8z"/>
			</g>
			<g>
				<path class="st16" d="M320.3,49.1c0,1.1-1.9,2.3-4.6,2.3c-2.7,0-4.6-1.2-4.6-2.3"/>
				<path class="st15" d="M311.1,49.1v0.5c0,1.3,2.1,2.5,4.6,2.5c2.5,0,4.6-1.1,4.6-2.5v-0.5c0-1.1-1.9-2.3-4.6-2.3
					C313,46.8,311.1,48.1,311.1,49.1z"/>
			</g>
			<g>
				<path class="st16" d="M327.7,53.5c0,1.1-1.9,2.3-4.6,2.3c-2.7,0-4.6-1.2-4.6-2.3"/>
				<path class="st15" d="M318.6,53.5V54c0,1.3,2.1,2.5,4.6,2.5c2.5,0,4.6-1.1,4.6-2.5v-0.5c0-1.1-1.9-2.3-4.6-2.3
					C320.5,51.2,318.6,52.4,318.6,53.5z"/>
			</g>
			<g>
				<path class="st16" d="M335.2,57.8c0,1.1-1.9,2.3-4.6,2.3c-2.7,0-4.6-1.2-4.6-2.3"/>
				<path class="st15" d="M326,57.8v0.5c0,1.3,2.1,2.5,4.6,2.5c2.5,0,4.6-1.1,4.6-2.5v-0.5c0-1.1-1.9-2.3-4.6-2.3
					C327.9,55.5,326,56.8,326,57.8z"/>
			</g>
			<g>
				<path class="st16" d="M342.7,62.2c0,1.1-1.9,2.3-4.6,2.3c-2.7,0-4.6-1.2-4.6-2.3"/>
				<path class="st15" d="M333.5,62.2v0.5c0,1.3,2.1,2.5,4.6,2.5c2.5,0,4.6-1.1,4.6-2.5v-0.5c0-1.1-1.9-2.3-4.6-2.3
					C335.4,59.9,333.5,61.1,333.5,62.2z"/>
			</g>
			<g>
				<path class="st16" d="M350.1,66.5c0,1.1-1.9,2.3-4.6,2.3c-2.7,0-4.6-1.2-4.6-2.3"/>
				<path class="st15" d="M341,66.5v0.5c0,1.3,2.1,2.5,4.6,2.5c2.5,0,4.6-1.1,4.6-2.5v-0.5c0-1.1-1.9-2.3-4.6-2.3
					C342.8,64.2,341,65.5,341,66.5z"/>
			</g>
			<g>
				<path class="st16" d="M344.2,72.2c0,1.1-1.9,2.3-4.6,2.3c-2.7,0-4.6-1.2-4.6-2.3"/>
				<path class="st15" d="M335,72.2v0.5c0,1.3,2.1,2.5,4.6,2.5c2.5,0,4.6-1.1,4.6-2.5v-0.5c0-1.1-1.9-2.3-4.6-2.3
					C336.9,69.9,335,71.1,335,72.2z"/>
			</g>
			<g>
				<path class="st16" d="M351.6,76.5c0,1.1-1.9,2.3-4.6,2.3c-2.7,0-4.6-1.2-4.6-2.3"/>
				<path class="st15" d="M342.4,76.5V77c0,1.3,2.1,2.5,4.6,2.5c2.5,0,4.6-1.1,4.6-2.5v-0.5c0-1.1-1.9-2.3-4.6-2.3
					C344.3,74.2,342.4,75.4,342.4,76.5z"/>
			</g>
			<g>
				<path class="st16" d="M357.6,70.9c0,1.1-1.9,2.3-4.6,2.3c-2.7,0-4.6-1.2-4.6-2.3"/>
				<path class="st15" d="M348.4,70.9v0.5c0,1.3,2.1,2.5,4.6,2.5c2.5,0,4.6-1.1,4.6-2.5v-0.5c0-1.1-1.9-2.3-4.6-2.3
					C350.3,68.6,348.4,69.8,348.4,70.9z"/>
			</g>
			<g>
				<path class="st16" d="M365.1,75.2c0,1.1-1.9,2.3-4.6,2.3c-2.7,0-4.6-1.2-4.6-2.3"/>
				<path class="st15" d="M355.9,75.2v0.5c0,1.3,2.1,2.5,4.6,2.5c2.5,0,4.6-1.1,4.6-2.5v-0.5c0-1.1-1.9-2.3-4.6-2.3
					C357.8,72.9,355.9,74.2,355.9,75.2z"/>
			</g>
			<g>
				<path class="st16" d="M307.9,33.3c0,1.1-1.9,2.3-4.6,2.3c-2.7,0-4.6-1.2-4.6-2.3"/>
				<path class="st15" d="M298.7,33.3v0.5c0,1.3,2.1,2.5,4.6,2.5c2.5,0,4.6-1.1,4.6-2.5v-0.5c0-1.1-1.9-2.3-4.6-2.3
					C300.6,31,298.7,32.2,298.7,33.3z"/>
			</g>
			<g>
				<path class="st16" d="M315.3,37.6c0,1.1-1.9,2.3-4.6,2.3c-2.7,0-4.6-1.2-4.6-2.3"/>
				<path class="st15" d="M306.1,37.6v0.5c0,1.3,2.1,2.5,4.6,2.5c2.5,0,4.6-1.1,4.6-2.5v-0.5c0-1.1-1.9-2.3-4.6-2.3
					C308,35.3,306.1,36.5,306.1,37.6z"/>
			</g>
			<g>
				<path class="st16" d="M322.8,42c0,1.1-1.9,2.3-4.6,2.3c-2.7,0-4.6-1.2-4.6-2.3"/>
				<path class="st15" d="M313.7,42v0.5c0,1.3,2.1,2.5,4.6,2.5c2.5,0,4.6-1.1,4.6-2.5V42c0-1.1-1.9-2.3-4.6-2.3
					C315.5,39.7,313.7,40.9,313.7,42z"/>
			</g>
			<g>
				<path class="st16" d="M330.2,46.3c0,1.1-1.9,2.3-4.6,2.3c-2.7,0-4.6-1.2-4.6-2.3"/>
				<path class="st15" d="M321.1,46.3v0.5c0,1.3,2.1,2.5,4.6,2.5c2.5,0,4.6-1.1,4.6-2.5v-0.5c0-1.1-1.9-2.3-4.6-2.3
					C322.9,44,321.1,45.2,321.1,46.3z"/>
			</g>
			<g>
				<path class="st16" d="M337.6,50.7c0,1.1-1.9,2.3-4.6,2.3c-2.7,0-4.6-1.2-4.6-2.3"/>
				<path class="st15" d="M328.5,50.7v0.5c0,1.3,2.1,2.5,4.6,2.5c2.5,0,4.6-1.1,4.6-2.5v-0.5c0-1.1-1.9-2.3-4.6-2.3
					C330.3,48.4,328.5,49.6,328.5,50.7z"/>
			</g>
			<g>
				<path class="st16" d="M345.1,54.9c0,1.1-1.9,2.3-4.6,2.3c-2.7,0-4.6-1.2-4.6-2.3"/>
				<path class="st15" d="M335.9,54.9v0.5c0,1.3,2.1,2.5,4.6,2.5c2.5,0,4.6-1.1,4.6-2.5v-0.5c0-1.1-1.9-2.3-4.6-2.3
					C337.8,52.6,335.9,53.8,335.9,54.9z"/>
			</g>
			<g>
				<path class="st16" d="M352.5,59.3c0,1.1-1.9,2.3-4.6,2.3c-2.7,0-4.6-1.2-4.6-2.3"/>
				<path class="st15" d="M343.4,59.3v0.5c0,1.3,2.1,2.5,4.6,2.5c2.5,0,4.6-1.1,4.6-2.5v-0.5c0-1.1-1.9-2.3-4.6-2.3
					C345.3,57.1,343.4,58.3,343.4,59.3z"/>
			</g>
			<g>
				<path class="st16" d="M359.9,63.7c0,1.1-1.9,2.3-4.6,2.3c-2.7,0-4.6-1.2-4.6-2.3"/>
				<path class="st15" d="M350.8,63.7v0.5c0,1.3,2.1,2.5,4.6,2.5c2.5,0,4.6-1.1,4.6-2.5v-0.5c0-1.1-1.9-2.3-4.6-2.3
					C352.7,61.4,350.8,62.6,350.8,63.7z"/>
			</g>
			<g>
				<path class="st16" d="M367.4,68c0,1.1-1.9,2.3-4.6,2.3c-2.7,0-4.6-1.2-4.6-2.3"/>
				<path class="st15" d="M358.3,68v0.5c0,1.3,2.1,2.5,4.6,2.5c2.5,0,4.6-1.1,4.6-2.5V68c0-1.1-1.9-2.3-4.6-2.3
					C360.2,65.7,358.3,66.9,358.3,68z"/>
			</g>
			<g>
				<path class="st16" d="M374.8,72.3c0,1.1-1.9,2.3-4.6,2.3c-2.7,0-4.6-1.2-4.6-2.3"/>
				<path class="st15" d="M365.6,72.3v0.5c0,1.3,2.1,2.5,4.6,2.5c2.5,0,4.6-1.1,4.6-2.5v-0.5c0-1.1-1.9-2.3-4.6-2.3
					C367.5,70,365.6,71.2,365.6,72.3z"/>
			</g>
			<path class="st16" d="M313.7,28.2c0,1.1-1.9,2.3-4.6,2.3c-2.7,0-4.6-1.2-4.6-2.3"/>
			<g>
				<path class="st15" d="M304.5,28.2c0-1.1,1.9-2.3,4.6-2.3c2.7,0,4.6,1.2,4.6,2.3"/>
				<path class="st15" d="M313.7,28.2v0.5c0,1.3-2.1,2.5-4.6,2.5c-2.5,0-4.6-1.1-4.6-2.5v-0.5"/>
			</g>
			<path class="st16" d="M321.2,32.5c0,1.1-1.9,2.3-4.6,2.3c-2.7,0-4.6-1.2-4.6-2.3"/>
			<g>
				<path class="st15" d="M312,32.5c0-1.1,1.9-2.3,4.6-2.3c2.7,0,4.6,1.2,4.6,2.3"/>
				<path class="st15" d="M321.2,32.5v0.5c0,1.3-2.1,2.5-4.6,2.5c-2.5,0-4.6-1.1-4.6-2.5v-0.5"/>
			</g>
			<path class="st16" d="M328.6,36.9c0,1.1-1.9,2.3-4.6,2.3c-2.7,0-4.6-1.2-4.6-2.3"/>
			<path class="st15" d="M319.5,36.9v0.5c0,1.3,2.1,2.5,4.6,2.5c2.5,0,4.6-1.1,4.6-2.5v-0.5c0-1.1-1.9-2.3-4.6-2.3
				C321.4,34.6,319.5,35.8,319.5,36.9z"/>
			<path class="st16" d="M336,41.2c0,1.1-1.9,2.3-4.6,2.3c-2.7,0-4.6-1.2-4.6-2.3"/>
			<path class="st15" d="M326.9,41.2v0.5c0,1.3,2.1,2.5,4.6,2.5c2.5,0,4.6-1.1,4.6-2.5v-0.5c0-1.1-1.9-2.3-4.6-2.3
				C328.7,39,326.9,40.2,326.9,41.2z"/>
			<path class="st16" d="M343.6,45.5c0,1.1-1.9,2.3-4.6,2.3c-2.7,0-4.6-1.2-4.6-2.3"/>
			<path class="st15" d="M334.4,45.5v0.5c0,1.3,2.1,2.5,4.6,2.5c2.5,0,4.6-1.1,4.6-2.5v-0.5c0-1.1-1.9-2.3-4.6-2.3
				C336.3,43.2,334.4,44.4,334.4,45.5z"/>
			<path class="st16" d="M351,49.9c0,1.1-1.9,2.3-4.6,2.3c-2.7,0-4.6-1.2-4.6-2.3"/>
			<path class="st15" d="M341.8,49.9v0.5c0,1.3,2.1,2.5,4.6,2.5c2.5,0,4.6-1.1,4.6-2.5v-0.5c0-1.1-1.9-2.3-4.6-2.3
				C343.7,47.6,341.8,48.8,341.8,49.9z"/>
			<path class="st16" d="M358.3,54.1c0,1.1-1.9,2.3-4.6,2.3c-2.7,0-4.6-1.2-4.6-2.3"/>
			<path class="st15" d="M349.1,54.1v0.5c0,1.3,2.1,2.5,4.6,2.5c2.5,0,4.6-1.1,4.6-2.5v-0.5c0-1.1-1.9-2.3-4.6-2.3
				C351,51.8,349.1,53,349.1,54.1z"/>
			<path class="st16" d="M365.8,58.6c0,1.1-1.9,2.3-4.6,2.3c-2.7,0-4.6-1.2-4.6-2.3"/>
			<path class="st15" d="M356.6,58.6v0.5c0,1.3,2.1,2.5,4.6,2.5c2.5,0,4.6-1.1,4.6-2.5v-0.5c0-1.1-1.9-2.3-4.6-2.3
				C358.5,56.3,356.6,57.5,356.6,58.6z"/>
			<path class="st16" d="M373.2,62.9c0,1.1-1.9,2.3-4.6,2.3c-2.7,0-4.6-1.2-4.6-2.3"/>
			<path class="st15" d="M364,62.9v0.5c0,1.3,2.1,2.5,4.6,2.5c2.5,0,4.6-1.1,4.6-2.5v-0.5c0-1.1-1.9-2.3-4.6-2.3
				C365.9,60.6,364,61.8,364,62.9z"/>
			<path class="st16" d="M380.7,67.2c0,1.1-1.9,2.3-4.6,2.3c-2.7,0-4.6-1.2-4.6-2.3"/>
			<path class="st15" d="M371.5,67.2v0.5c0,1.3,2.1,2.5,4.6,2.5c2.5,0,4.6-1.1,4.6-2.5v-0.5c0-1.1-1.9-2.3-4.6-2.3
				C373.4,64.9,371.5,66.1,371.5,67.2z"/>
			<path class="st16" d="M388.1,71.5c0,1.1-1.9,2.3-4.6,2.3c-2.7,0-4.6-1.2-4.6-2.3"/>
			<path class="st15" d="M379,71.5v0.5c0,1.3,2.1,2.5,4.6,2.5c2.5,0,4.6-1.1,4.6-2.5v-0.5c0-1.1-1.9-2.3-4.6-2.3
				C380.8,69.3,379,70.5,379,71.5z"/>
			<path class="st16" d="M317.4,22c0,1.1-1.9,2.3-4.6,2.3c-2.7,0-4.6-1.2-4.6-2.3"/>
			<path class="st15" d="M308.2,22v0.5c0,1.3,2.1,2.5,4.6,2.5c2.5,0,4.6-1.1,4.6-2.5V22c0-1.1-1.9-2.3-4.6-2.3
				C310.1,19.8,308.2,21,308.2,22z"/>
			<path class="st16" d="M324.9,26.3c0,1.1-1.9,2.3-4.6,2.3c-2.7,0-4.6-1.2-4.6-2.3"/>
			<path class="st15" d="M315.7,26.3v0.5c0,1.3,2.1,2.5,4.6,2.5c2.5,0,4.6-1.1,4.6-2.5v-0.5c0-1.1-1.9-2.3-4.6-2.3
				C317.6,24,315.7,25.2,315.7,26.3z"/>
			<path class="st16" d="M332.1,30.6c0,1.1-1.9,2.3-4.6,2.3c-2.7,0-4.6-1.2-4.6-2.3"/>
			<path class="st15" d="M323,30.6v0.5c0,1.3,2.1,2.5,4.6,2.5c2.5,0,4.6-1.1,4.6-2.5v-0.5c0-1.1-1.9-2.3-4.6-2.3
				C324.9,28.3,323,29.5,323,30.6z"/>
			<path class="st16" d="M339.6,34.9c0,1.1-1.9,2.3-4.6,2.3c-2.7,0-4.6-1.2-4.6-2.3"/>
			<path class="st15" d="M330.4,34.9v0.5c0,1.3,2.1,2.5,4.6,2.5c2.5,0,4.6-1.1,4.6-2.5v-0.5c0-1.1-1.9-2.3-4.6-2.3
				C332.3,32.6,330.4,33.8,330.4,34.9z"/>
			<path class="st16" d="M347.1,39.3c0,1.1-1.9,2.3-4.6,2.3c-2.7,0-4.6-1.2-4.6-2.3"/>
			<path class="st15" d="M337.9,39.3v0.5c0,1.3,2.1,2.5,4.6,2.5c2.5,0,4.6-1.1,4.6-2.5v-0.5c0-1.1-1.9-2.3-4.6-2.3
				C339.8,37,337.9,38.2,337.9,39.3z"/>
			<path class="st16" d="M354.5,43.6c0,1.1-1.9,2.3-4.6,2.3c-2.7,0-4.6-1.2-4.6-2.3"/>
			<path class="st15" d="M345.4,43.6v0.5c0,1.3,2.1,2.5,4.6,2.5c2.5,0,4.6-1.1,4.6-2.5v-0.5c0-1.1-1.9-2.3-4.6-2.3
				C347.3,41.3,345.4,42.5,345.4,43.6z"/>
			<path class="st16" d="M362,47.9c0,1.1-1.9,2.3-4.6,2.3c-2.7,0-4.6-1.2-4.6-2.3"/>
			<path class="st15" d="M352.8,47.9v0.5c0,1.3,2.1,2.5,4.6,2.5c2.5,0,4.6-1.1,4.6-2.5v-0.5c0-1.1-1.9-2.3-4.6-2.3
				C354.7,45.6,352.8,46.8,352.8,47.9z"/>
			<path class="st16" d="M369.4,52.2c0,1.1-1.9,2.3-4.6,2.3c-2.7,0-4.6-1.2-4.6-2.3"/>
			<path class="st15" d="M360.2,52.2v0.5c0,1.3,2.1,2.5,4.6,2.5c2.5,0,4.6-1.1,4.6-2.5v-0.5c0-1.1-1.9-2.3-4.6-2.3
				C362.1,49.9,360.2,51.1,360.2,52.2z"/>
			<path class="st16" d="M377,56.6c0,1.1-1.9,2.3-4.6,2.3c-2.7,0-4.6-1.2-4.6-2.3"/>
			<path class="st15" d="M367.9,56.6v0.5c0,1.3,2.1,2.5,4.6,2.5c2.5,0,4.6-1.1,4.6-2.5v-0.5c0-1.1-1.9-2.3-4.6-2.3
				C369.7,54.4,367.9,55.6,367.9,56.6z"/>
			<path class="st16" d="M384.3,61c0,1.1-1.9,2.3-4.6,2.3c-2.7,0-4.6-1.2-4.6-2.3"/>
			<path class="st15" d="M375.2,61v0.5c0,1.3,2.1,2.5,4.6,2.5c2.5,0,4.6-1.1,4.6-2.5V61c0-1.1-1.9-2.3-4.6-2.3
				C377.1,58.7,375.2,59.9,375.2,61z"/>
			<path class="st16" d="M391.7,65.3c0,1.1-1.9,2.3-4.6,2.3c-2.7,0-4.6-1.2-4.6-2.3"/>
			<path class="st15" d="M382.5,65.3v0.5c0,1.3,2.1,2.5,4.6,2.5c2.5,0,4.6-1.1,4.6-2.5v-0.5c0-1.1-1.9-2.3-4.6-2.3
				C384.4,63,382.5,64.2,382.5,65.3z"/>
			<path class="st15" d="M429.2,91.3c-4.4,0-7.5-2.1-7.5-4c0-1.9,3.1-4,7.5-4c4.4,0,7.5,2.1,7.5,4C436.8,89.2,433.7,91.3,429.2,91.3
				z"/>
			<path class="st15" d="M404.1,101.1c-9.6,0-16.3-4.7-16.3-8.9s6.7-8.9,16.3-8.9c9.6,0,16.3,4.7,16.3,8.9S413.7,101.1,404.1,101.1z
				"/>
			<path class="st16" d="M404.1,102.1c-4.7,0-9.1-1.1-12.4-3c-3.3-1.9-5.2-4.4-5.2-7c0-2.5,1.9-5.1,5.2-7c3.3-1.9,7.7-3,12.4-3
				s9.1,1.1,12.4,3c3.3,1.9,5.2,4.4,5.2,7c0,2.5-1.9,5.1-5.2,7C413.2,101,408.8,102.1,404.1,102.1z"/>
			<path class="st15" d="M404.1,101.1c-9.6,0-16.3-4.7-16.3-8.9s6.7-8.9,16.3-8.9c9.6,0,16.3,4.7,16.3,8.9S413.7,101.1,404.1,101.1z
				"/>
			<path class="st17" d="M404.1,100.7c-4.4,0-8.5-1-11.6-2.8c-2.7-1.6-4.4-3.7-4.4-5.7s1.6-4.1,4.4-5.7c3.1-1.8,7.2-2.8,11.6-2.8
				c4.4,0,8.5,1,11.6,2.8c2.7,1.6,4.4,3.7,4.4,5.7s-1.6,4.1-4.4,5.7C412.6,99.7,408.5,100.7,404.1,100.7z"/>
			<path class="st16" d="M429.2,90.5c-4.4,0-7.1-2.1-7.1-3.6c0-1.5,2.7-3.6,7.1-3.6c4.4,0,7.1,2.1,7.1,3.6
				C436.4,88.4,433.7,90.5,429.2,90.5z"/>
			<ellipse class="st16" cx="429.2" cy="86.9" rx="2.9" ry="1.4"/>
		</g>
	</g>
</g>
<g id="Callouts">
	<g>
		<path d="M241.5,49.4H240v-4.1l0-0.7l0-0.7c-0.3,0.3-0.4,0.4-0.5,0.5l-0.8,0.7l-0.7-0.9l2.3-1.8h1.2V49.4z"/>
	</g>
	<g>
		<polyline class="st18" points="153.8,84.8 186.2,103.5 228.6,103.5 		"/>
	</g>
	<g>
		<polyline class="st18" points="154.8,62.2 184.6,45 228.6,46 		"/>
	</g>
	<line class="st18" x1="166.1" y1="63.8" x2="228.6" y2="63.8"/>
	<line class="st18" x1="185.3" y1="74.9" x2="228.6" y2="74.9"/>
	<g>
		<path d="M242.8,67.5h-5v-1l1.8-1.8c0.5-0.5,0.9-0.9,1-1.1s0.3-0.4,0.4-0.6s0.1-0.4,0.1-0.6c0-0.3-0.1-0.5-0.2-0.6
			c-0.2-0.1-0.4-0.2-0.6-0.2c-0.3,0-0.5,0.1-0.8,0.2s-0.5,0.3-0.8,0.5l-0.8-1c0.4-0.3,0.6-0.5,0.9-0.6s0.5-0.2,0.8-0.3
			s0.6-0.1,0.9-0.1c0.4,0,0.8,0.1,1.2,0.2s0.6,0.4,0.8,0.7s0.3,0.6,0.3,1c0,0.3-0.1,0.6-0.2,0.9c-0.1,0.3-0.3,0.6-0.5,0.9
			c-0.2,0.3-0.7,0.7-1.3,1.3l-0.9,0.9v0.1h3.1V67.5z"/>
	</g>
	<polyline class="st18" points="367.4,35.7 406.2,13.8 477.5,14.4 	"/>
	<polyline class="st18" points="438.4,77.7 446.8,72.6 477.5,72.6 	"/>
	<g>
		<line class="st18" x1="402.2" y1="89.2" x2="477.5" y2="89.2"/>
	</g>
	<text transform="matrix(1 0 0 1 485.1996 16.7907)" class="st19 st20">3</text>
	<text transform="matrix(1 0 0 1 485.1994 75.1715)" class="st19 st20">4</text>
	<text transform="matrix(1 0 0 1 485.1992 92.4991)" class="st19 st20">5</text>
	<text transform="matrix(1 0 0 1 237.3806 78.525)" class="st19 st20">4</text>
	<text transform="matrix(1 0 0 1 237.7619 105.6582)" class="st19 st20">5</text>
</g>
</svg>
