<?xml version="1.0" encoding="utf-8"?>
<!-- Generator: Adobe Illustrator 25.2.0, SVG Export Plug-In . SVG Version: 6.00 Build 0)  -->
<svg version="1.1" xmlns="http://www.w3.org/2000/svg" xmlns:xlink="http://www.w3.org/1999/xlink" x="0px" y="0px" width="391.8px"
	 height="251px" viewBox="0 0 391.8 251" style="enable-background:new 0 0 391.8 251;" xml:space="preserve">
<style type="text/css">
	.st0{fill:#FFFFFF;stroke:#000000;stroke-width:2.8199;stroke-linecap:round;stroke-linejoin:round;stroke-miterlimit:10;}
	.st1{fill:#FFFFFF;stroke:#000000;stroke-width:3;stroke-linecap:round;stroke-linejoin:round;stroke-miterlimit:10;}
	.st2{fill:#FFFFFF;stroke:#000000;stroke-width:0.5;stroke-linecap:round;stroke-linejoin:round;stroke-miterlimit:10;}
	.st3{fill:none;stroke:#000000;stroke-width:0.25;stroke-linecap:round;stroke-linejoin:round;stroke-miterlimit:10;}
	.st4{fill:none;stroke:#000000;stroke-width:0.9259;stroke-linecap:round;stroke-linejoin:round;stroke-miterlimit:10;}
	.st5{fill:#FFFFFF;stroke:#000000;stroke-width:0.463;stroke-linecap:round;stroke-linejoin:round;stroke-miterlimit:10;}
	.st6{fill:none;stroke:#000000;stroke-width:0.2315;stroke-linecap:round;stroke-linejoin:round;stroke-miterlimit:10;}
	.st7{display:none;}
	
		.st8{display:inline;fill:#FFFFFF;stroke:#000000;stroke-width:0.5;stroke-linecap:round;stroke-linejoin:round;stroke-miterlimit:10;}
	.st9{display:inline;}
	.st10{fill:#FFFFFF;stroke:#000000;stroke-width:0.2315;stroke-linecap:round;stroke-linejoin:round;stroke-miterlimit:10;}
	.st11{fill:#FFFFFF;stroke:#000000;stroke-width:0.25;stroke-linecap:round;stroke-linejoin:round;stroke-miterlimit:10;}
	
		.st12{display:inline;fill:#FFFFFF;stroke:#000000;stroke-width:0.2315;stroke-linecap:round;stroke-linejoin:round;stroke-miterlimit:10;}
	.st13{fill:none;stroke:#000000;stroke-width:0.5;stroke-linecap:round;stroke-linejoin:round;stroke-miterlimit:10;}
	.st14{fill:#FFFFFF;stroke:#000000;stroke-width:0.9259;stroke-linecap:round;stroke-linejoin:round;stroke-miterlimit:10;}
	.st15{fill:none;stroke:#000000;stroke-width:0.463;stroke-linecap:round;stroke-linejoin:round;stroke-miterlimit:10;}
	.st16{fill:#FFFFFF;stroke:#231F20;stroke-width:0.463;stroke-miterlimit:10;}
	.st17{fill:none;stroke:#231F20;stroke-width:0.2315;stroke-linecap:round;stroke-linejoin:round;stroke-miterlimit:10;}
	.st18{fill:none;stroke:#231F20;stroke-width:0.2315;stroke-miterlimit:10;}
	.st19{fill:none;stroke:#000000;stroke-width:1.5;stroke-linecap:round;stroke-linejoin:round;stroke-miterlimit:10;}
	.st20{fill:none;stroke:#000000;stroke-width:0.4795;stroke-linecap:round;stroke-linejoin:round;stroke-miterlimit:10;}
	.st21{fill:#FFFFFF;stroke:#000000;stroke-width:1.3776;stroke-miterlimit:10;}
	.st22{fill:none;stroke:#000000;stroke-width:0.6888;stroke-linecap:round;stroke-linejoin:round;stroke-miterlimit:10;}
	.st23{fill:none;stroke:#000000;stroke-width:0.6888;stroke-miterlimit:10;}
	.st24{fill:none;stroke:#000000;stroke-width:1.9879;stroke-linecap:round;stroke-linejoin:round;stroke-miterlimit:10;}
	.st25{fill:#FFFFFF;stroke:#000000;stroke-width:2;stroke-linecap:round;stroke-linejoin:round;stroke-miterlimit:10;}
	.st26{fill:#FFFFFF;stroke:#000000;stroke-width:0.6413;stroke-linecap:round;stroke-linejoin:round;stroke-miterlimit:10;}
	.st27{fill:none;stroke:#000000;stroke-width:0.3207;stroke-linecap:round;stroke-linejoin:round;stroke-miterlimit:10;}
	.st28{fill:#FFFFFF;stroke:#000000;stroke-linecap:round;stroke-linejoin:round;stroke-miterlimit:10;}
	.st29{fill:none;stroke:#000000;stroke-width:0.6413;stroke-linecap:round;stroke-linejoin:round;stroke-miterlimit:10;}
	.st30{fill:none;stroke:#000000;stroke-linecap:round;stroke-linejoin:round;stroke-miterlimit:10;}
	.st31{fill:#FFFFFF;stroke:#000000;stroke-width:0.1378;stroke-linecap:round;stroke-linejoin:round;stroke-miterlimit:10;}
	.st32{fill:#FFFFFF;}
	.st33{fill:none;stroke:#010101;stroke-width:5.333154e-02;stroke-linecap:round;stroke-linejoin:round;stroke-miterlimit:10;}
	.st34{fill:#010101;}
	.st35{fill:#FFFFFF;stroke:#010101;stroke-width:8.683735e-03;stroke-miterlimit:10;}
	.st36{fill:#FFFFFF;stroke:#010101;stroke-width:9.609092e-03;stroke-miterlimit:10;}
	.st37{fill:none;stroke:#00AEEF;stroke-width:3;stroke-linecap:round;stroke-linejoin:round;stroke-miterlimit:10;}
	.st38{fill:#00AEEF;}
</style>
<g id="Layer_1">
	<g>
		<path class="st0" d="M88.7,40.8c0,18.2,14.8,33,33,33s33-14.8,33-33c0-7-2.2-13.5-5.9-18.9H94.6C90.9,27.3,88.7,33.8,88.7,40.8z"
			/>
		<path class="st1" d="M148.8,21.9c-6-8.5-15.9-14.1-27.1-14.1s-21.1,5.6-27.1,14.1"/>
	</g>
	<g>
		<path class="st2" d="M79.6,236.4h16.2c0,0,0-159.4,0-160.5s-1.4-1.8-2.6-1.8v-2.7H91c0,0,0-8.5,0-9.8c0-1.3-0.3-1.8-1.2-1.8
			s-0.9,0.9-0.9,1.7c0,0.7,0,9.9,0,9.9H87l0,2.5c-1.1,0-2.8,0.4-2.8,1.9s0,68.4,0,72.3c0,3.9-0.1,13.2-2.9,22.3
			c-2.8,9.1-4.5,25.7-4.5,31.6c0,5.9,1.3,19.4,2,23.5C79.5,229.6,79.6,236.4,79.6,236.4z"/>
		<path class="st3" d="M84.2,75.8c2.3,1,10,0.8,11.6,0.2"/>
		<path class="st4" d="M87,73.9c1.1,0.5,5.4,0.4,6.2,0.2"/>
		<line class="st4" x1="88.9" y1="71.4" x2="91" y2="71.4"/>
		<path class="st5" d="M88.3,63.5h3.2c0,0,0.1,6.3,0,6.3s-3.2,0-3.2,0V63.5z"/>
		<path class="st3" d="M89.9,74.3c0,0,0,1.1,0.2,2.2c0.2,1.1,0.7,32.3,0.7,53.3s0.1,35.3-3.9,50.5c-4,15.2-3,24-3,31.9
			c0,7.8,0,24.2,0,24.2"/>
		<path class="st3" d="M92.3,74.4c0.8,0.5,1.2,0.8,1.2,1.9c0,1.1,0,45.9,0,53.7s0.5,30.7-1.2,53.3s-3.5,33.1-4.5,38.6
			c-0.9,5.4-0.6,8.6-0.6,12.5"/>
		<path class="st6" d="M94.2,74.3c0.9,0.7,0.9,0.7,0.9,1.8c0,1.1,0,160.3,0,160.3"/>
		<path class="st6" d="M95.1,162.4c0,8.7-2.2,42.6-4.7,53c-2.6,10.4-2,9.2-2,18.9"/>
		<line class="st6" x1="93.5" y1="191.2" x2="93.5" y2="236.4"/>
		<line class="st6" x1="90.8" y1="230.4" x2="90.8" y2="236.4"/>
		<path class="st3" d="M78.8,208c0-6.3,0.9-18.9,2.7-27.5c1.8-8.6,4.7-20,4.7-26.6c0-6.6,0-76.5,0-77.7c0-1.2,0.1-1.9,0.3-2.3"/>
		<path class="st3" d="M89.4,74.4v2.1c0,0,0,63.4,0,68.6c0,2,0.2,22.1-3.7,35.6c-5.1,17.8-2.4,44.2-2.4,47.7"/>
		<line class="st6" x1="90.8" y1="129.8" x2="95.8" y2="129.8"/>
		<line class="st6" x1="79" y1="180.4" x2="86.9" y2="180.4"/>
		<path class="st2" d="M91,72c-0.4-0.3-0.9-0.2-1.2,0c-0.2,0.2-0.4,0.7,0.3,1.1c0.7,0.4,6.8,3.8,7.5,4.3c0.7,0.5,1.1,0.5,1.4,0.3
			c0.2-0.3,0.3-0.8-0.6-1.3C97.5,76,91,72,91,72z"/>
		<g class="st7">
			<path class="st8" d="M21.5,236.3H5.8c0,0,0-144.4,0-145.1s0-1,0.4-1.6c0.4-0.6,1.2-1.9,1.6-2.4c0.4-0.5,0.6-0.7,1.3-0.7
				s4,0,4.6,0s0.8,0.1,1.1,0.7s1,1.7,1.4,2.2c0.4,0.6,0.4,0.7,0.4,1.6s0,15.4,0,15.4l-0.7,0.9v0.6l1.1,0.8c0,0,0,29,0,40.8
				c0,11.8,2,15.1,4.9,30.9s3,31,2.9,35.1c-0.1,4.1-3.3,7.3-3.3,10.5C21.5,229.2,21.5,236.3,21.5,236.3z"/>
			<g class="st9">
				<path class="st10" d="M6.7,128.6h9.2c0,0,0-4.2,0-5.2s-2.7-1.8-4.4-1.8s-4.8,0.9-4.8,1.7C6.6,124.1,6.7,128.6,6.7,128.6z"/>
				<line class="st6" x1="9.8" y1="121.8" x2="9.8" y2="128.6"/>
				<line class="st6" x1="12.8" y1="121.7" x2="12.8" y2="128.6"/>
				<path class="st6" d="M6.6,123.3c0.4,0.2,3.2,0.5,4.5,0.5s4-0.1,4.7-0.5"/>
			</g>
			<g class="st9">
				<path class="st3" d="M10.6,121.6c0,0,0,21.6,0,27.9c0,6.3,1.4,20.7,3.9,31.1c2.5,10.4,3.2,21.2,3,29.9c-0.2,8,0.2,16.9,0.2,16.9
					v8.8"/>
				<path class="st3" d="M15.3,128.6c0,0,0,15.8,0,22.5c0,6.7,1.5,16.2,4.4,29.4s2.8,33.2,2.8,37.6"/>
				<path class="st3" d="M11.5,129.8c0,8.2,0,12.7,0,20.5s2.2,23.2,4,30.3c2,8.3,3.7,21.8,2.7,28.7c-1,6.9-0.1,16.5,0.1,17.7v9.3"/>
				<path class="st3" d="M10.6,131.5c-0.6-0.9-3.8-1.6-4.8,0.9"/>
				<path class="st3" d="M5.8,164.7c0,11,3,38.6,4.8,50.8"/>
				<path class="st3" d="M7.6,130.8c0,0,0,17.7,0,34s3.7,44.8,4.8,52.3"/>
				<line class="st3" x1="7.9" y1="193" x2="7.9" y2="228.1"/>
				<line class="st3" x1="6.9" y1="230.4" x2="6.9" y2="236.3"/>
				<line class="st3" x1="10.3" y1="230.4" x2="10.3" y2="236.3"/>
				<line class="st3" x1="14.5" y1="180.6" x2="21.9" y2="180.6"/>
			</g>
			<g class="st9">
				<path class="st11" d="M5.8,112.2l2.3-3.9h6.4l2.6,3.9v8.9c-0.5,0.8-2.1,1.3-5.6,1.3s-4.7-0.6-5.6-1.1V112.2z"/>
				<line class="st3" x1="11.1" y1="108.3" x2="11.1" y2="122.4"/>
				<line class="st3" x1="5.8" y1="112.2" x2="16.9" y2="112.2"/>
				<line class="st3" x1="5.8" y1="112.9" x2="17" y2="112.9"/>
				<line class="st3" x1="5.8" y1="121.3" x2="16.9" y2="121.3"/>
				<circle class="st3" cx="7.5" cy="114.3" r="0.6"/>
				<circle class="st3" cx="15.2" cy="114.3" r="0.6"/>
				<polyline class="st3" points="6.1,112.2 8.2,108.9 14.3,108.9 16.6,112.2 				"/>
			</g>
			<g class="st9">
				<polyline class="st3" points="15.8,110.3 15.8,90.7 13.7,87.4 8.8,87.4 6.6,90.6 6.6,110.9 				"/>
				<line class="st3" x1="8.1" y1="108.3" x2="8.1" y2="88.4"/>
				<line class="st3" x1="8.5" y1="108.3" x2="8.5" y2="87.8"/>
				<line class="st3" x1="14.1" y1="108.3" x2="14.1" y2="88"/>
				<line class="st3" x1="14.5" y1="108.3" x2="14.5" y2="88.6"/>
			</g>
			<path class="st12" d="M7.3,128.6c0.2,0.5,1.3,1.8,2.9,1.8s3.3,0,3.3,0v-1.8H7.3z"/>
			<g class="st9">
				<path class="st2" d="M5.8,103.9c-1.9,0-3.3,0-4,0s-1.5,0.3-1.5,1.9s0,39.1,0,40.3c0,1.2,0.5,1.8,1.9,1.8s3.7,0,3.7,0V103.9z"/>
				<line class="st6" x1="0.2" y1="112.3" x2="5.8" y2="112.3"/>
				<line class="st6" x1="0.2" y1="139.6" x2="5.8" y2="139.6"/>
				<path class="st6" d="M1.2,103.9c0.5-0.1,1.2,0.4,1.2,1.9s0,37.9,0,39.3s-0.3,2.8-1.5,2.5"/>
				<path class="st6" d="M0.2,145.7c0,0.9,0.9,0.9,0.9,0s0-38.8,0-39.5c0-0.7-0.9-0.7-0.9,0"/>
				<path class="st2" d="M3.5,103.9c0,0,0-1.1,0-1.8c0-0.7,0.5-0.9,1.1-0.9s1,0.5,1,1c0,0.6,0,1.7,0,1.7H3.5z"/>
				<path class="st2" d="M5.8,147.9c0,0,0,1.1,0,1.8s-0.5,0.9-1.1,0.9s-1-0.5-1-1c0-0.6,0-1.7,0-1.7H5.8z"/>
			</g>
		</g>
		<g>
			<g>
				<path class="st2" d="M5.6,230.6h9c0,0,0,5.5-1,5.5s-7.1,0-7.1,0S5.6,235.3,5.6,230.6z"/>
				<path class="st13" d="M6.3,230.6c0,0.9,0.1,3.1,0.2,4.2"/>
				<path class="st13" d="M14,230.6c0,1-0.1,3.5-0.4,4.2"/>
				<line class="st13" x1="10.4" y1="230.6" x2="10.4" y2="236.2"/>
				<path class="st13" d="M8.1,234.7c0.3,0.6,4,0.7,4.7,0"/>
			</g>
			<g>
				<path class="st2" d="M7.2,249.7H6.7c-0.5,0-0.9-0.4-0.9-0.9V235c0-0.5,0.4-0.9,0.9-0.9h0.5c0.5,0,0.9,0.4,0.9,0.9v13.8
					C8.1,249.3,7.7,249.7,7.2,249.7z"/>
				<path class="st13" d="M7.5,234.1c0.2,0.1,0.1,0.6,0.1,1s0,13.6,0,14s0,0.4-0.1,0.6"/>
				<path class="st13" d="M6.4,234.1c-0.2,0.1-0.1,0.6-0.1,1s0,13.6,0,14s0,0.4,0.1,0.6"/>
				<path class="st13" d="M5.8,234.7c0.3-0.2,2-0.2,2.4,0"/>
				<path class="st13" d="M8.1,249.2c-0.3,0.2-2,0.2-2.4,0"/>
			</g>
			<g>
				<path class="st2" d="M14.3,249.7h-0.5c-0.5,0-0.9-0.4-0.9-0.9V235c0-0.5,0.4-0.9,0.9-0.9h0.5c0.5,0,0.9,0.4,0.9,0.9v13.8
					C15.2,249.3,14.8,249.7,14.3,249.7z"/>
				<path class="st13" d="M14.6,234.1c0.2,0.1,0.1,0.6,0.1,1s0,13.6,0,14s0,0.4-0.1,0.6"/>
				<path class="st13" d="M13.4,234.1c-0.2,0.1-0.1,0.6-0.1,1s0,13.6,0,14s0,0.4,0.1,0.6"/>
				<path class="st13" d="M12.8,234.7c0.3-0.2,2-0.2,2.4,0"/>
				<path class="st13" d="M15.2,249.2c-0.3,0.2-2,0.2-2.4,0"/>
			</g>
			<path class="st2" d="M12.8,248c-0.2-1-1.1-2.4-2-2.9v-4.3h-0.6v4.3c-1,0.4-1.8,1.7-2,2.8v-11.7c0.8-0.8,3.6-0.8,4.6,0L12.8,248z"
				/>
			<path class="st6" d="M8.1,236.7c0.1,0.1,2.2,2.8,2.2,2.8l2.4-2.8"/>
			<line class="st13" x1="9.1" y1="237.9" x2="9.1" y2="246"/>
			<line class="st6" x1="11.7" y1="237.9" x2="11.7" y2="245.7"/>
		</g>
		<g>
			<g>
				<path class="st2" d="M95.3,230.6h-9c0,0,0,5.5,1,5.5s7.1,0,7.1,0S95.3,235.3,95.3,230.6z"/>
				<path class="st13" d="M94.6,230.6c0,0.9-0.1,3.1-0.2,4.2"/>
				<path class="st13" d="M86.8,230.6c0,1,0.1,3.5,0.4,4.2"/>
				<line class="st13" x1="90.4" y1="230.6" x2="90.4" y2="236.2"/>
				<path class="st13" d="M92.7,234.7c-0.3,0.6-4,0.7-4.7,0"/>
			</g>
			<g>
				<path class="st2" d="M93.6,249.7h0.5c0.5,0,0.9-0.4,0.9-0.9V235c0-0.5-0.4-0.9-0.9-0.9h-0.5c-0.5,0-0.9,0.4-0.9,0.9v13.8
					C92.7,249.3,93.1,249.7,93.6,249.7z"/>
				<path class="st13" d="M93.3,234.1c-0.2,0.1-0.1,0.6-0.1,1s0,13.6,0,14s0,0.4,0.1,0.6"/>
				<path class="st13" d="M94.5,234.1c0.2,0.1,0.1,0.6,0.1,1s0,13.6,0,14s0,0.4-0.1,0.6"/>
				<path class="st13" d="M95.1,234.7c-0.3-0.2-2-0.2-2.4,0"/>
				<path class="st13" d="M92.7,249.2c0.3,0.2,2,0.2,2.4,0"/>
			</g>
			<g>
				<path class="st2" d="M86.5,249.7h0.5c0.5,0,0.9-0.4,0.9-0.9V235c0-0.5-0.4-0.9-0.9-0.9h-0.5c-0.5,0-0.9,0.4-0.9,0.9v13.8
					C85.6,249.3,86,249.7,86.5,249.7z"/>
				<path class="st13" d="M86.2,234.1c-0.2,0.1-0.1,0.6-0.1,1s0,13.6,0,14s0,0.4,0.1,0.6"/>
				<path class="st13" d="M87.4,234.1c0.2,0.1,0.1,0.6,0.1,1s0,13.6,0,14s0,0.4-0.1,0.6"/>
				<path class="st13" d="M88,234.7c-0.3-0.2-2-0.2-2.4,0"/>
				<path class="st13" d="M85.6,249.2c0.3,0.2,2,0.2,2.4,0"/>
			</g>
			<path class="st2" d="M88,248c0.2-1,1.1-2.4,2-2.9v-4.3h0.6v4.3c1,0.4,1.8,1.7,2,2.8v-11.7c-0.8-0.8-3.6-0.8-4.6,0L88,248z"/>
			<path class="st6" d="M92.7,236.7c-0.1,0.1-2.2,2.8-2.2,2.8l-2.4-2.8"/>
			<line class="st6" x1="91.7" y1="237.9" x2="91.7" y2="246"/>
			<line class="st6" x1="89.1" y1="237.9" x2="89.1" y2="245.7"/>
		</g>
		<g>
			<path class="st14" d="M23.4,70.9c-0.1-5.4,0.9-14.6,1.1-16.6c0.2-2,0.7-4.3,3.9-4.5c3.2-0.2,42.6-0.2,44.6,0
				c2,0.2,3.2,1.4,3.6,4.5c0.3,3.1,1.5,11.6,1.3,16.6H23.4z"/>
			<path class="st6" d="M24.9,70.9c0.4-7.3,1.5-15.2,1.8-16.9c0.3-1.6,1.3-2.4,4.2-2.5c2.9-0.1,33.3-0.5,40.5-0.1
				c2.7,0.2,2.9,0.7,3.2,2.2s1.7,13.1,1.8,17.2"/>
			<path class="st15" d="M24.5,54.3c1.6,1,4.5,2.6,4.5,10.6"/>
			<path class="st15" d="M76.7,54.3c-1.6,1-4.5,2.6-4.5,10.6"/>
		</g>
		<path class="st14" d="M3.9,230.8h93.7c-1.1-7-6.2-20.3-17.7-25.2c-1-4.2-2.9-6.9-4-8.1c-0.5-5.7-1.9-13-0.9-18.2s7.6-26,7.6-38.1
			s0-9.5,0-10.5c0-1,0.2-2.1-1-2.1s-61.2,0-62.3,0c-1.1,0-1.1,1.1-1.1,2.1c0,1,0.3,8.3,0.5,11.8c0.5,10.7,2.5,18.7,7,34.5
			c1.6,5.6-0.3,20.5-0.3,20.5c-1.6,1.1-3.2,4.6-3.8,7.3C18.2,206.4,6.1,214.2,3.9,230.8z"/>
		<g>
			<path class="st14" d="M23.5,69.9c0.8-2.8,1.8-4.7,4.9-5s15,0,22.1,0S71.4,65,74,65s3.4,2.8,3.7,4.5"/>
			<g>
				<path class="st14" d="M17.2,127.9c0,0,0.2-29.1,0.9-36.8s3.7-17.6,4.9-20.2c1.2-2.6,2.1-3.3,4.5-3.7c2.4-0.3,43.6-0.4,46.6,0
					c3.5,0.5,3.8,2.6,4.6,4.7s4.7,11.3,4.7,19.6s0.7,33.6,0.8,36.3L17.2,127.9z"/>
				<polyline class="st6" points="50.6,64.8 50.6,67 50.6,125.9 				"/>
				<path class="st6" d="M23,70.9c2.4-1.1,5.4-1.9,27.3-1.9s26.8,0.4,28.3,2.9"/>
				<path class="st6" d="M22.6,72c-2.8,7.6-1.7,32.4-1.7,53.9"/>
				<path class="st6" d="M78.3,72c2.8,7.6,1.7,32.4,1.7,53.9"/>
				<line class="st6" x1="17.2" y1="125.9" x2="84" y2="125.9"/>
				<path class="st6" d="M27,69.9c-1.1,1.1-1.8,7.7-1.9,10.7c-0.2,3-0.5,10.8-0.5,13.3c0,2.5-0.5,32-0.5,32"/>
				<path class="st6" d="M28.4,69.9c-1.1,1.1-1.8,7.7-1.9,10.7c-0.2,3-0.5,10.8-0.5,13.3c0,2.5-0.5,32-0.5,32"/>
				<path class="st6" d="M74.5,69.9c1.1,1.1,1.8,7.7,1.9,10.7c0.2,3,0.5,10.8,0.5,13.3c0,2.5,0.5,32,0.5,32"/>
				<path class="st6" d="M73,69.9c1.1,1.1,1.8,7.7,1.9,10.7c0.2,3,0.5,10.8,0.5,13.3c0,2.5,0.5,32,0.5,32"/>
				<rect x="42.2" y="112.2" class="st15" width="19.8" height="13.7"/>
				<rect x="39.2" y="73.6" class="st5" width="19.4" height="5.9"/>
				<g>
					<circle class="st6" cx="40.9" cy="104.5" r="0.9"/>
					<circle class="st15" cx="40.9" cy="104.5" r="2"/>
				</g>
				<g>
					<circle class="st15" cx="29.3" cy="120.8" r="2.8"/>
					<circle class="st6" cx="29.3" cy="120.8" r="1.5"/>
					<circle class="st6" cx="29.3" cy="120.8" r="0.6"/>
				</g>
				<rect x="37" y="118.2" class="st6" width="3.4" height="6.4"/>
				<rect x="63.4" y="116.1" class="st6" width="5.3" height="8.8"/>
				<path class="st6" d="M18.1,91.1c0.7,1.5,1.8,2.4,2.6,2.8h59.5c1-0.2,2.4-1.8,3-2.8"/>
				<polyline class="st6" points="26.5,80.6 21.2,80.6 20.2,79.5 				"/>
				<path class="st6" d="M74.9,80.6h4.8c0,0,1-0.6,1.5-1.1"/>
			</g>
		</g>
		<rect x="18.7" y="127.9" class="st14" width="62.9" height="0.8"/>
		<g>
			<path class="st16" d="M62.6,89.7H40c-0.5,0-0.9-0.4-0.9-0.9V83c0-0.5,0.4-0.9,0.9-0.9h22.7c0.5,0,0.9,0.4,0.9,0.9v5.8
				C63.6,89.3,63.1,89.7,62.6,89.7z"/>
			<g>
				<path class="st17" d="M41.2,84.1h1.9c0,0,0,0.3,0,0.4c0,0.1,0,0.1-0.1,0.2c0,0,0,0-0.1,0.1c0,0-0.1,0.1-0.2,0.1
					c-0.1,0-1.1,0-1.1,0s-0.1,0-0.1-0.1c0,0-0.1-0.1-0.1-0.1c0,0-0.1-0.1-0.1-0.1C41.2,84.5,41.2,84.1,41.2,84.1z"/>
				<line class="st17" x1="41.6" y1="84.5" x2="42.8" y2="84.5"/>
			</g>
			<g>
				<rect x="45.6" y="83.1" class="st17" width="2.2" height="1.9"/>
				<polygon class="st17" points="47.5,83.5 45.9,83.5 45.9,84.6 46.3,84.6 46.3,84.7 46.4,84.7 46.4,84.8 47,84.8 47,84.7 
					47.2,84.7 47.2,84.6 47.5,84.6 				"/>
			</g>
			<rect x="49.2" y="83.9" class="st17" width="1.8" height="0.9"/>
			<rect x="49.4" y="84.5" class="st17" width="1.4" height="0.2"/>
			<circle class="st18" cx="53" cy="84.1" r="0.7"/>
			<g>
				<g>
					<path class="st17" d="M55.6,83.8h1.9c0,0,0,0.3,0,0.4c0,0.1,0,0.1-0.1,0.2c0,0,0,0-0.1,0.1c0,0-0.1,0.1-0.2,0.1
						c-0.1,0-1.1,0-1.1,0s-0.1,0-0.1-0.1c0,0-0.1-0.1-0.1-0.1c0,0-0.1-0.1-0.1-0.1C55.6,84.1,55.6,83.8,55.6,83.8z"/>
					<line class="st17" x1="55.9" y1="84.1" x2="57.1" y2="84.1"/>
				</g>
				<circle class="st17" cx="54.9" cy="84.1" r="0.3"/>
				<circle class="st17" cx="58.1" cy="84.1" r="0.3"/>
			</g>
			<circle class="st17" cx="48.7" cy="84.3" r="0.2"/>
			<circle class="st17" cx="51.5" cy="84.3" r="0.2"/>
			<g>
				<path class="st17" d="M41.2,87c-0.2,0-0.4,0.2-0.3,0.5c0.1,0.5,0.1,0.6,0.2,0.7c0,0.1,0.1,0.3,0.3,0.3s1.6,0,1.7,0
					c0.2,0,0.2-0.1,0.3-0.2c0.1-0.1,0.2-0.6,0.2-0.8c0.1-0.2-0.1-0.5-0.3-0.5C42.9,87,41.6,87,41.2,87z"/>
				<path class="st17" d="M41.5,87.3c-0.1,0-0.3,0-0.3,0.3c0.1,0.3,0.1,0.3,0.1,0.4c0,0.1,0.1,0.1,0.2,0.1s1.2,0,1.3,0
					s0.2,0,0.2-0.2c0-0.1,0.1-0.3,0.1-0.4c0-0.2,0-0.3-0.2-0.3C42.7,87.3,41.7,87.3,41.5,87.3z"/>
				<g>
					<circle class="st17" cx="41.5" cy="87.5" r="0.1"/>
					<circle class="st17" cx="41.9" cy="87.5" r="0.1"/>
					<circle class="st17" cx="42.2" cy="87.5" r="0.1"/>
					<circle class="st17" cx="42.6" cy="87.5" r="0.1"/>
					<circle class="st17" cx="42.9" cy="87.5" r="0.1"/>
				</g>
				<g>
					<circle class="st17" cx="41.7" cy="87.9" r="0.1"/>
					<circle class="st17" cx="42" cy="87.9" r="0.1"/>
					<circle class="st17" cx="42.4" cy="87.9" r="0.1"/>
					<circle class="st17" cx="42.7" cy="87.9" r="0.1"/>
				</g>
				<g>
					<circle class="st17" cx="40.6" cy="87.7" r="0.3"/>
					<circle class="st17" cx="40.6" cy="87.7" r="0.1"/>
				</g>
				<g>
					<circle class="st17" cx="43.9" cy="87.7" r="0.3"/>
					<circle class="st17" cx="43.9" cy="87.7" r="0.1"/>
				</g>
			</g>
			<g>
				<path class="st17" d="M50.4,87.1c-0.2,0-0.4,0.2-0.3,0.5c0.1,0.5,0.1,0.6,0.2,0.7c0,0.1,0.1,0.3,0.3,0.3c0.2,0,1.6,0,1.7,0
					c0.2,0,0.2-0.1,0.3-0.2c0.1-0.1,0.2-0.6,0.2-0.8c0.1-0.2-0.1-0.5-0.3-0.5C52,87.1,50.7,87.1,50.4,87.1z"/>
				<path class="st17" d="M50.6,87.4c-0.1,0-0.3,0-0.3,0.3c0.1,0.3,0.1,0.3,0.1,0.4c0,0.1,0.1,0.1,0.2,0.1s1.2,0,1.3,0
					s0.2,0,0.2-0.2c0-0.1,0.1-0.3,0.1-0.4c0-0.2,0-0.3-0.2-0.3S50.8,87.4,50.6,87.4z"/>
				<g>
					<circle class="st17" cx="50.6" cy="87.6" r="0.1"/>
					<circle class="st17" cx="51" cy="87.6" r="0.1"/>
					<circle class="st17" cx="51.3" cy="87.6" r="0.1"/>
					<circle class="st17" cx="51.7" cy="87.6" r="0.1"/>
					<circle class="st17" cx="52" cy="87.6" r="0.1"/>
				</g>
				<g>
					<circle class="st17" cx="50.8" cy="88" r="0.1"/>
					<circle class="st17" cx="51.1" cy="88" r="0.1"/>
					<circle class="st17" cx="51.5" cy="88" r="0.1"/>
					<circle class="st17" cx="51.8" cy="88" r="0.1"/>
				</g>
				<g>
					<circle class="st17" cx="49.7" cy="87.8" r="0.3"/>
					<circle class="st17" cx="49.7" cy="87.8" r="0.1"/>
				</g>
				<g>
					<circle class="st17" cx="53" cy="87.8" r="0.3"/>
					<circle class="st17" cx="53" cy="87.8" r="0.1"/>
				</g>
			</g>
			<g>
				<g>
					<path class="st17" d="M55.6,87.5h1.9c0,0,0,0.3,0,0.4c0,0.1,0,0.1-0.1,0.2c0,0,0,0-0.1,0.1c0,0-0.1,0.1-0.2,0.1
						c-0.1,0-1.1,0-1.1,0s-0.1,0-0.1-0.1c0,0-0.1-0.1-0.1-0.1c0,0-0.1-0.1-0.1-0.1C55.6,87.8,55.6,87.5,55.6,87.5z"/>
					<line class="st17" x1="55.9" y1="87.8" x2="57.1" y2="87.8"/>
				</g>
				<circle class="st17" cx="54.9" cy="87.8" r="0.3"/>
				<circle class="st17" cx="58.1" cy="87.8" r="0.3"/>
			</g>
			<g>
				<circle class="st17" cx="61.7" cy="87.7" r="0.4"/>
				<circle class="st17" cx="61.7" cy="87.7" r="0.2"/>
			</g>
			<rect x="59.7" y="83.8" class="st17" width="2" height="1.5"/>
			<rect x="59" y="83.9" class="st17" width="0.7" height="1.3"/>
			<rect x="61.7" y="83.9" class="st17" width="0.7" height="1.3"/>
			<circle class="st17" cx="59.3" cy="84.5" r="0.2"/>
			<circle class="st17" cx="62" cy="84.5" r="0.2"/>
			<rect x="60.1" y="84.1" class="st17" width="1.3" height="0.2"/>
			<rect x="60.1" y="84.6" class="st17" width="1.3" height="0.2"/>
			<g>
				<rect x="45.6" y="86.7" class="st17" width="2.2" height="1.9"/>
				<polygon class="st17" points="47.5,87.1 45.9,87.1 45.9,88.2 46.3,88.2 46.3,88.3 46.4,88.3 46.4,88.4 47,88.4 47,88.3 
					47.2,88.3 47.2,88.2 47.5,88.2 				"/>
			</g>
		</g>
		<g>
			<path class="st3" d="M93.2,230.8c-0.6-5.1-4.9-16.5-9.8-21.6c-1.9-1.9-0.7-2.2,0.2-1.5"/>
			<path class="st3" d="M83.1,208.7c-1.3-1.3-4.6-4.4-5.2-3.1c-0.6,1.3-1.9,10.3,1.2,25.2"/>
			<path class="st3" d="M77.9,205.6c-0.5-2.2-1.4-6.7-3.5-9"/>
			<path class="st3" d="M73.9,136.1c0,0-0.9,37.4-0.5,45.7c0.4,8.3,1,10.4,0.8,12s0,4.4-3.9,4.5c-3.9,0.2-3,0.2-3.6,0.3
				s-3.1,0.5-3.2,3.5c-0.1,3,0,28.6,0,28.6"/>
			<path class="st3" d="M62.4,230.8c0,0,0-27.3,0-28.5c0-1.2,0.5-4.4,4.4-4.7s5.9,0.2,6.2-1.7c0.4-2.7-1.3-10.9-1.7-15.1"/>
			<path class="st3" d="M72.3,180.8c0,1.5,2.4,14.1,1.4,16"/>
			<polyline class="st3" points="69.5,197.5 70.4,198.4 74,230.8 			"/>
			<path class="st3" d="M63.6,202.4l-1.2-0.1l-2.8-8.2l6.9,3.6c0,0,0.7,1,0.7,0.9"/>
			<polyline class="st3" points="74.2,193.9 59.6,193.9 57.5,230.8 			"/>
			<line class="st3" x1="62.3" y1="202" x2="60.3" y2="230.8"/>
			<line class="st3" x1="74.2" y1="194.3" x2="75.9" y2="230.8"/>
			<line class="st3" x1="73.3" y1="197.3" x2="74" y2="230.8"/>
			<path class="st11" d="M74.5,200.9c-1.2-0.5-6.4-1-7.6-1c-1.2,0.1-1,0.7-1,1c0,0.2,0.1,0.6,0.9,0.7c0.8,0.1,5.5,0,5.5,0
				c0.2,0.4,0.6,0.8,1,0.8s1.2-0.1,1.2-0.6C74.6,201.3,74.5,200.9,74.5,200.9z"/>
			<line class="st3" x1="68.6" y1="200" x2="68.6" y2="201.6"/>
			<path class="st11" d="M74.7,205.3c-1.2,0.5-6.4,1-7.6,1s-1-0.7-1-1c0-0.2,0.1-0.6,0.9-0.7c0.8-0.1,5.5,0,5.5,0
				c0.2-0.4,0.6-0.8,1-0.8s1.1,0,1.1,0.5C74.7,204.9,74.7,205.3,74.7,205.3z"/>
			<line class="st3" x1="68.8" y1="206.2" x2="68.8" y2="204.7"/>
		</g>
		<g>
			<path class="st3" d="M7.3,230.8c0.6-5.1,4.9-16.5,9.8-21.6c1.9-1.9,0.7-2.2-0.2-1.5"/>
			<path class="st3" d="M17.6,208.7c1.3-1.3,4.6-4.4,5.2-3.1c0.6,1.3,1.9,10.3-1.2,25.2"/>
			<path class="st3" d="M23.1,206.5c0.5-2.2,1.7-7.6,3.7-9.9"/>
			<path class="st3" d="M27.3,136.1c0,0,0.9,37.4,0.5,45.7c-0.4,8.3-1,10.4-0.8,12c0.2,1.6,0,4.4,3.9,4.5c3.9,0.2,3,0.2,3.6,0.3
				c0.5,0.1,3.1,0.5,3.2,3.5c0.1,3,0,28.6,0,28.6"/>
			<path class="st3" d="M38.8,230.8c0,0,0-27.3,0-28.5c0-1.2-0.5-4.4-4.4-4.7s-5.9,0.2-6.2-1.7c-0.4-2.7,1.3-10.9,1.7-15.1"/>
			<path class="st3" d="M28.9,180.8c0,1.5-2.4,14.1-1.4,16"/>
			<polyline class="st3" points="31.7,197.5 30.8,198.4 28.9,217 			"/>
			<path class="st3" d="M37.6,202.4l1.2-0.1l2.8-8.2l-6.9,3.6c0,0-0.7,1-0.7,0.9"/>
			<polyline class="st3" points="27,193.9 41.6,193.9 43.7,230.8 			"/>
			<line class="st3" x1="38.9" y1="202" x2="40.9" y2="230.8"/>
			<line class="st3" x1="27" y1="194.3" x2="25.3" y2="230.8"/>
			<line class="st3" x1="27.9" y1="197.3" x2="27.2" y2="230.8"/>
			<path class="st11" d="M26.7,200.9c1.2-0.5,6.4-1,7.6-1c1.2,0.1,1,0.7,1,1c0,0.2-0.1,0.6-0.9,0.7c-0.8,0.1-5.5,0-5.5,0
				c-0.2,0.4-0.6,0.8-1,0.8c-0.5,0-1.2-0.1-1.2-0.6C26.6,201.3,26.7,200.9,26.7,200.9z"/>
			<line class="st3" x1="32.6" y1="200" x2="32.6" y2="201.6"/>
			<path class="st11" d="M26.5,205.3c1.2,0.5,6.4,1,7.6,1c1.2-0.1,1-0.7,1-1c0-0.2-0.1-0.6-0.9-0.7s-5.5,0-5.5,0
				c-0.2-0.4-0.6-0.8-1-0.8s-1.1,0-1.1,0.5C26.5,204.9,26.5,205.3,26.5,205.3z"/>
			<line class="st3" x1="32.4" y1="206.2" x2="32.4" y2="204.7"/>
			<g>
				<rect x="28.9" y="217" class="st3" width="8" height="7.3"/>
				<path class="st3" d="M34.3,223.6L34.3,223.6c-0.8,0-1.5-0.7-1.5-1.5v-2.7c0-0.8,0.7-1.5,1.5-1.5h0c0.8,0,1.5,0.7,1.5,1.5v2.7
					C35.8,223,35.1,223.6,34.3,223.6z"/>
				<rect x="33.5" y="219.7" class="st3" width="1.6" height="2.7"/>
			</g>
		</g>
		<g>
			<path class="st6" d="M79.5,130c0.2,14.9-2.3,28.5-3.1,33.6c-0.8,5.1-1.8,12.8-1.8,17.5"/>
			<g>
				<g>
					<circle class="st15" cx="39.1" cy="136.1" r="2.8"/>
					<circle class="st6" cx="39.1" cy="136.1" r="1.5"/>
					<circle class="st6" cx="39.1" cy="136.1" r="0.6"/>
				</g>
				<line class="st5" x1="50.6" y1="128.7" x2="50.6" y2="176"/>
				<path class="st10" d="M23.5,130c0.7,1.5,1.3,6.7,4.4,6.7s4.1-5.7,4.4-6.7"/>
				<path class="st10" d="M68.9,130c0.7,1.5,1.3,6.7,4.4,6.7c3.1,0,4.1-5.7,4.4-6.7"/>
				<path class="st6" d="M21.8,130c-0.2,14.9,2.3,28.5,3.1,33.6c0.8,5.1,1.4,7.6,1.4,12.3"/>
				<polyline class="st6" points="47.4,130 47.4,154.1 27.7,154.1 				"/>
				<polyline class="st6" points="53.7,130 53.7,154.1 73.5,154.1 				"/>
				<path class="st6" d="M27.7,153c0,2.8,3.3,16,3.3,21"/>
				<path class="st6" d="M73.5,153c-0.6,3.7-3.8,17.6-3.8,23.5"/>
				<path class="st6" d="M29.3,178.1c2.6-1.4,4.5-2.6,21.3-2.6s19,1.1,20,1.8c1.3,0.9,1.4,1.5,1.7,2.2h-43V178.1z"/>
				<path class="st6" d="M29.3,178.1c3.3-1.4,12.3-2.1,21.3-2.1c5.3,0,17.1,0.6,19.2,1.3c1.3,0.5,1.7,1.6,1.9,2.2"/>
				<path class="st15" d="M64.8,142.7h-6c-1,0-1.9-0.8-1.9-1.9v-6.7c0-1,0.8-1.9,1.9-1.9h6c1,0,1.9,0.8,1.9,1.9v6.7
					C66.6,141.8,65.8,142.7,64.8,142.7z"/>
				<path class="st10" d="M68.7,174.7h-17c-1,0-1.9-0.8-1.9-1.9v-14.8c0-1,0.8-1.9,1.9-1.9h17c1,0,1.9,0.8,1.9,1.9v14.8
					C70.6,173.9,69.7,174.7,68.7,174.7z"/>
				<line class="st6" x1="18.2" y1="130" x2="82.7" y2="130"/>
			</g>
			<g>
				<path class="st10" d="M53.3,162.6H67c-0.3,1.1-1.5,1.8-2.4,1.8s-8.4,0-9.3,0S53.6,163.5,53.3,162.6z"/>
				<path class="st6" d="M53.3,162.6c0.6,1.2,1,1.2,2,1.2s8.5,0,9.2,0c0.7,0,2-0.4,2.4-1.2"/>
				<line class="st6" x1="55.3" y1="162.6" x2="55.3" y2="164.3"/>
				<line class="st6" x1="64.5" y1="162.6" x2="64.5" y2="164.3"/>
			</g>
			<g>
				<g>
					<path class="st10" d="M56.1,146.4c1,0,8.5,0,9.2,0c0.7,0,2-0.4,2.4-1.2H56.1v1.8c0.9,0,8.4,0,9.3,0s2.1-0.7,2.4-1.8"/>
					<line class="st6" x1="65.4" y1="145.2" x2="65.4" y2="147"/>
				</g>
				<g>
					<path class="st10" d="M56.1,149c1,0,8.5,0,9.2,0c0.7,0,2-0.4,2.4-1.2H56.1v1.8c0.9,0,8.4,0,9.3,0s2.1-0.7,2.4-1.8"/>
					<line class="st6" x1="65.4" y1="147.8" x2="65.4" y2="149.5"/>
				</g>
				<g>
					<path class="st10" d="M56.1,151.5c1,0,8.5,0,9.2,0c0.7,0,2-0.4,2.4-1.2H56.1v1.8c0.9,0,8.4,0,9.3,0s2.1-0.7,2.4-1.8"/>
					<line class="st6" x1="65.4" y1="150.3" x2="65.4" y2="152.1"/>
				</g>
			</g>
			<g>
				<g>
					<path class="st10" d="M45.2,144c-1,0-8.5,0-9.2,0s-2-0.4-2.4-1.2h11.7v1.8c-0.9,0-8.4,0-9.3,0s-2.1-0.7-2.4-1.8"/>
					<line class="st6" x1="36" y1="142.8" x2="36" y2="144.6"/>
				</g>
				<g>
					<path class="st10" d="M45.2,146.6c-1,0-8.5,0-9.2,0s-2-0.4-2.4-1.2h11.7v1.8c-0.9,0-8.4,0-9.3,0s-2.1-0.7-2.4-1.8"/>
					<line class="st6" x1="36" y1="145.4" x2="36" y2="147.2"/>
				</g>
				<g>
					<path class="st10" d="M45.2,149.2c-1,0-8.5,0-9.2,0s-2-0.4-2.4-1.2h11.7v1.8c-0.9,0-8.4,0-9.3,0s-2.1-0.7-2.4-1.8"/>
					<line class="st6" x1="36" y1="148" x2="36" y2="149.7"/>
				</g>
				<g>
					<path class="st10" d="M45.2,151.7c-1,0-8.5,0-9.2,0s-2-0.4-2.4-1.2h11.7v1.8c-0.9,0-8.4,0-9.3,0s-2.1-0.7-2.4-1.8"/>
					<line class="st6" x1="36" y1="150.5" x2="36" y2="152.3"/>
				</g>
			</g>
			<g>
				<g>
					<path class="st10" d="M45.2,166.1c-1,0-8.5,0-9.2,0s-2-0.4-2.4-1.2h11.7v1.8c-0.9,0-8.4,0-9.3,0c-0.9,0-2.1-0.7-2.4-1.8"/>
					<line class="st6" x1="35.9" y1="164.9" x2="35.9" y2="166.7"/>
				</g>
				<g>
					<path class="st10" d="M45.2,168.7c-1,0-8.5,0-9.2,0s-2-0.4-2.4-1.2h11.7v1.8c-0.9,0-8.4,0-9.3,0c-0.9,0-2.1-0.7-2.4-1.8"/>
					<line class="st6" x1="35.9" y1="167.5" x2="35.9" y2="169.3"/>
				</g>
				<g>
					<path class="st10" d="M45.2,171.3c-1,0-8.5,0-9.2,0s-2-0.4-2.4-1.2h11.7v1.8c-0.9,0-8.4,0-9.3,0c-0.9,0-2.1-0.7-2.4-1.8"/>
					<line class="st6" x1="35.9" y1="170.1" x2="35.9" y2="171.9"/>
				</g>
				<g>
					<path class="st10" d="M45.2,173.9c-1,0-8.5,0-9.2,0s-2-0.4-2.4-1.2h11.7v1.8c-0.9,0-8.4,0-9.3,0c-0.9,0-2.1-0.7-2.4-1.8"/>
					<line class="st6" x1="35.9" y1="172.7" x2="35.9" y2="174.4"/>
				</g>
			</g>
		</g>
		<g>
			<g>
				<path class="st5" d="M35.7,184.4v1h1.7v-0.4H41v0.6c0,0,0.9,0,1.3,0s0.8-0.4,0.8-0.6h1.2v-0.7v0v-0.7h-1.2
					c0-0.2-0.4-0.6-0.8-0.6s-1.3,0-1.3,0v0.6h-3.6v-0.4h-1.7V184.4"/>
				<line class="st6" x1="41" y1="183.7" x2="41" y2="185.1"/>
				<line class="st6" x1="43.1" y1="183.7" x2="43.1" y2="185.2"/>
				<path class="st6" d="M42.5,183.1c-0.2,0.5-0.2,2.2,0,2.5"/>
				<line class="st6" x1="37.4" y1="183.7" x2="37.4" y2="185.1"/>
			</g>
			<g>
				<path class="st5" d="M30.8,183.6c0,0-3.2,0-4,0s-1.6,0.2-1.6,0.7c0,0.4,0.4,0.8,1.7,0.8s4,0,4,0L30.8,183.6z"/>
				
					<rect x="30.9" y="179.1" transform="matrix(0.8244 -0.5661 0.5661 0.8244 -96.9539 49.6317)" class="st5" width="1.2" height="3.9"/>
				
					<rect x="34.4" y="179.4" transform="matrix(-0.8244 -0.5661 0.5661 -0.8244 -38.8381 350.6223)" class="st5" width="1.2" height="3.9"/>
				
					<rect x="33.7" y="184.4" transform="matrix(0.8244 -0.5661 0.5661 0.8244 -99.4761 52.1966)" class="st5" width="1.2" height="3.9"/>
				
					<rect x="34.8" y="187.7" transform="matrix(0.8244 -0.5661 0.5661 0.8244 -100.4832 53.4726)" class="st5" width="2.2" height="2"/>
				<circle class="st5" cx="33.4" cy="184.4" r="2.6"/>
				<circle class="st5" cx="29.4" cy="177.4" r="3.4"/>
				<circle class="st5" cx="37.4" cy="177.4" r="3.4"/>
			</g>
			<g>
				<path class="st5" d="M70.6,185.1c0,0,3.2,0,4,0c0.7,0,1.6-0.2,1.6-0.7s-0.4-0.8-1.7-0.8s-4,0-4,0L70.6,185.1z"/>
				
					<rect x="69.2" y="185.7" transform="matrix(-0.8244 0.5661 -0.5661 -0.8244 233.6608 302.8634)" class="st5" width="1.2" height="3.9"/>
				
					<rect x="65.7" y="185.4" transform="matrix(0.8244 0.5661 -0.5661 0.8244 117.7359 -4.6523)" class="st5" width="1.2" height="3.9"/>
				
					<rect x="66.3" y="180.4" transform="matrix(-0.8244 0.5661 -0.5661 -0.8244 225.3945 294.7351)" class="st5" width="1.2" height="3.9"/>
				
					<rect x="64.3" y="179.1" transform="matrix(-0.8244 0.5661 -0.5661 -0.8244 221.2824 291.4893)" class="st5" width="2.2" height="2"/>
				<circle class="st5" cx="68" cy="184.3" r="2.6"/>
				<circle class="st5" cx="72" cy="191.3" r="3.4"/>
				<circle class="st5" cx="63.9" cy="191.3" r="3.4"/>
			</g>
			<g>
				<path class="st5" d="M44.1,188.3v-7.1c-0.2-0.7-0.7-1.1-1.8-1.1c0-0.9,0-2.5,2-2.5s1.7,0,2.9,0c1.6,0,1.8,1.1,1.8,2.5
					c-0.7,0-1.7,0.3-1.7,1s0.1,7.3,0.1,7.3l1.5,1.6l-0.1,13.2h-6.3V190L44.1,188.3z"/>
				<line class="st6" x1="44.1" y1="181.2" x2="47.4" y2="181.2"/>
				<line class="st6" x1="44.1" y1="182.7" x2="47.4" y2="182.7"/>
				<path class="st6" d="M42.6,190c0.7,0.5,5.4,0.7,6.3,0"/>
				<path class="st6" d="M44.1,188.3c0.3,0.3,2.9,0.4,3.3,0.1"/>
			</g>
			<g>
				<path class="st5" d="M53.7,188.3v-7.1c-0.2-0.7-0.7-1.1-1.8-1.1c0-0.9,0-2.5,2-2.5s1.7,0,2.9,0c1.6,0,1.8,1.1,1.8,2.5
					c-0.7,0-1.7,0.3-1.7,1s0.1,7.3,0.1,7.3l1.5,1.6l-0.1,38.2h-6.3V190L53.7,188.3z"/>
				<line class="st6" x1="53.7" y1="181.2" x2="56.9" y2="181.2"/>
				<line class="st6" x1="53.7" y1="182.7" x2="56.9" y2="182.7"/>
				<path class="st6" d="M52.1,190c0.7,0.5,5.4,0.7,6.3,0"/>
				<path class="st6" d="M53.7,188.3c0.3,0.3,2.9,0.4,3.3,0.1"/>
			</g>
			<g>
				<path class="st5" d="M65.6,184.4v-1h-1.7v0.4h-3.6v-0.6c0,0-0.9,0-1.3,0c-0.4,0-0.8,0.4-0.8,0.6h-1.2v0.7v0v0.7h1.2
					c0,0.2,0.4,0.6,0.8,0.6c0.4,0,1.3,0,1.3,0v-0.6h3.6v0.4h1.7V184.4"/>
				<line class="st6" x1="60.2" y1="185.1" x2="60.2" y2="183.7"/>
				<line class="st6" x1="58.2" y1="185.1" x2="58.2" y2="183.6"/>
				<path class="st6" d="M58.8,185.6c0.2-0.5,0.2-2.2,0-2.5"/>
				<line class="st6" x1="63.8" y1="185.1" x2="63.8" y2="183.7"/>
			</g>
			<path class="st5" d="M42,187.9h17.2c0-0.5-0.3-1.7-1.5-1.7s-13.4,0-14.1,0C42.9,186.2,42,186.7,42,187.9z"/>
		</g>
		<g>
			<polygon class="st2" points="27.9,230.8 27.9,234 25,234 25,236.9 75.6,236.9 75.6,234.1 72,234.1 72,230.8 			"/>
			<g>
				<path class="st6" d="M30.5,230.8c0.4,0.6,0.7,1.2,0.7,2c0,0.8,0,4.1,0,4.1"/>
				<path class="st6" d="M40.6,230.8c-0.4,0.6-0.7,1.2-0.7,2c0,0.8,0,4.1,0,4.1"/>
				<line class="st6" x1="31.1" y1="232.8" x2="39.9" y2="232.8"/>
			</g>
			<line class="st6" x1="29.3" y1="230.8" x2="29.3" y2="236.9"/>
			<g>
				<path class="st6" d="M60.3,230.8c0.4,0.6,0.7,1.2,0.7,2c0,0.8,0,4.1,0,4.1"/>
				<path class="st6" d="M70.4,230.8c-0.4,0.6-0.7,1.2-0.7,2c0,0.8,0,4.1,0,4.1"/>
				<line class="st6" x1="61" y1="232.8" x2="69.8" y2="232.8"/>
			</g>
			<line class="st6" x1="39.9" y1="233.3" x2="61" y2="233.3"/>
			<line class="st6" x1="72" y1="234.1" x2="72" y2="236.9"/>
			<line class="st6" x1="27.9" y1="234" x2="27.9" y2="236.9"/>
		</g>
		<g>
			<path class="st14" d="M9,131.2c-0.9,0-1.9,0.8-1.9,2.4s0.4,2.4,2,2.4s17.7,0,17.7,0c0.2,0.8,3.3,1.6,3.3-2.4s-3.2-3.1-3.2-2.4
				C26.9,131.2,10.3,131.2,9,131.2z"/>
			<path class="st6" d="M26.9,131.2c1.1,0,1.9,1,1.9,2.4c0,1.4-1.1,2.4-2,2.4"/>
			<line class="st6" x1="7.2" y1="133.5" x2="30.1" y2="133.5"/>
		</g>
		<g>
			<path class="st14" d="M92.4,135.9c0.9,0,1.9-0.8,1.9-2.4s-0.4-2.4-2-2.4s-17.7,0-17.7,0c-0.2-0.8-3.3-1.6-3.3,2.4
				s3.2,3.1,3.2,2.4C74.5,135.9,91.1,135.9,92.4,135.9z"/>
			<path class="st6" d="M74.5,135.9c-1.1,0-1.9-1-1.9-2.4c0-1.4,1.1-2.4,2-2.4"/>
			<line class="st6" x1="94.3" y1="133.6" x2="71.3" y2="133.6"/>
		</g>
	</g>
	<line class="st19" x1="132.9" y1="9.7" x2="132.9" y2="72"/>
	<path class="st20" d="M120.6,4.7"/>
	<line class="st19" x1="102" y1="67.3" x2="142.1" y2="67.3"/>
	<g>
		<path class="st21" d="M152.4,53.3h-51.1c-1.5,0-2.8-1.2-2.8-2.8V33.3c0-1.5,1.2-2.8,2.8-2.8h52.1"/>
		<g>
			<path class="st22" d="M105.1,36.8h5.6c0,0,0,1,0,1.1c0,0.2,0,0.3-0.2,0.5c-0.1,0.1-0.1,0.1-0.3,0.3c-0.1,0.1-0.2,0.2-0.7,0.2
				c-0.3,0-3.2,0-3.4,0s-0.3-0.1-0.4-0.2c-0.1-0.1-0.3-0.3-0.4-0.4c-0.1-0.1-0.2-0.2-0.2-0.3C105.1,37.8,105.1,36.8,105.1,36.8z"/>
			<line class="st22" x1="106" y1="37.8" x2="109.8" y2="37.8"/>
		</g>
		<g>
			<rect x="118.1" y="33.6" class="st22" width="6.6" height="5.7"/>
			<polygon class="st22" points="123.7,34.9 119.1,34.9 119.1,38.1 120,38.1 120,38.5 120.5,38.5 120.5,38.9 122.4,38.9 122.4,38.5 
				122.9,38.5 122.9,38.1 123.7,38.1 			"/>
		</g>
		<rect x="128.7" y="36" class="st22" width="5.4" height="2.6"/>
		<rect x="129.4" y="37.8" class="st3" width="4.3" height="0.5"/>
		<circle class="st23" cx="140" cy="36.8" r="2.1"/>
		<g>
			<g>
				<path class="st22" d="M147.7,35.7h5.6c0,0,0,1,0,1.1c0,0.2,0,0.3-0.2,0.5c-0.1,0.1-0.1,0.1-0.3,0.3c-0.1,0.1-0.2,0.2-0.7,0.2
					c-0.3,0-3.2,0-3.4,0c-0.2,0-0.3-0.1-0.4-0.2c-0.1-0.1-0.3-0.3-0.4-0.4s-0.2-0.2-0.2-0.3C147.7,36.7,147.7,35.7,147.7,35.7z"/>
				<line class="st22" x1="148.7" y1="36.7" x2="152.4" y2="36.7"/>
			</g>
			<circle class="st22" cx="145.8" cy="36.7" r="0.9"/>
		</g>
		<circle class="st22" cx="127.4" cy="37.4" r="0.6"/>
		<circle class="st22" cx="135.6" cy="37.4" r="0.6"/>
		<g>
			<path class="st22" d="M105.1,45.4c-0.6,0-1.2,0.6-1,1.4c0.4,1.4,0.4,1.7,0.6,2.1c0.1,0.4,0.3,0.8,0.9,0.8c0.6,0,4.7,0,5.2,0
				c0.5,0,0.6-0.2,0.8-0.6c0.2-0.4,0.5-1.7,0.6-2.2c0.2-0.6-0.2-1.4-0.9-1.4C110.1,45.4,106.1,45.4,105.1,45.4z"/>
			<path class="st22" d="M105.8,46.2c-0.4,0-1-0.1-0.8,0.8c0.3,0.9,0.3,0.9,0.4,1.2c0.1,0.3,0.2,0.4,0.6,0.4s3.5,0,3.9,0
				s0.5-0.1,0.7-0.5c0.1-0.4,0.2-0.8,0.3-1.1c0.1-0.5,0.1-0.8-0.6-0.8S106.4,46.2,105.8,46.2z"/>
			<g>
				<circle class="st3" cx="106" cy="46.9" r="0.2"/>
				<circle class="st3" cx="107" cy="46.9" r="0.2"/>
				<circle class="st3" cx="108.1" cy="46.9" r="0.2"/>
				<circle class="st3" cx="109.1" cy="46.9" r="0.2"/>
				<circle class="st3" cx="110.1" cy="46.9" r="0.2"/>
			</g>
			<g>
				<circle class="st3" cx="106.4" cy="47.9" r="0.2"/>
				<circle class="st3" cx="107.4" cy="47.9" r="0.2"/>
				<circle class="st3" cx="108.5" cy="47.9" r="0.2"/>
				<circle class="st3" cx="109.6" cy="47.9" r="0.2"/>
			</g>
			<g>
				<circle class="st3" cx="103.1" cy="47.5" r="0.9"/>
				<circle class="st3" cx="103.1" cy="47.5" r="0.4"/>
			</g>
			<g>
				<circle class="st3" cx="113" cy="47.5" r="0.9"/>
				<circle class="st3" cx="113" cy="47.5" r="0.4"/>
			</g>
		</g>
		<g>
			<g>
				<path class="st22" d="M147.7,46.7h5.6c0,0,0,1,0,1.1c0,0.2,0,0.3-0.2,0.5c-0.1,0.1-0.1,0.1-0.3,0.3s-0.2,0.2-0.7,0.2
					c-0.3,0-3.2,0-3.4,0c-0.2,0-0.3-0.1-0.4-0.2c-0.1-0.1-0.3-0.3-0.4-0.4c-0.1-0.1-0.2-0.2-0.2-0.3
					C147.7,47.6,147.7,46.7,147.7,46.7z"/>
				<line class="st22" x1="148.6" y1="47.6" x2="152.4" y2="47.6"/>
			</g>
			<circle class="st22" cx="145.7" cy="47.6" r="0.9"/>
		</g>
		<g>
			<rect x="118.1" y="44.3" class="st22" width="6.6" height="5.7"/>
			<polygon class="st22" points="123.7,45.6 119.1,45.6 119.1,48.8 120,48.8 120,49.2 120.5,49.2 120.5,49.6 122.4,49.6 122.4,49.2 
				122.9,49.2 122.9,48.8 123.7,48.8 			"/>
		</g>
		<g>
			<path class="st22" d="M132.2,45.6c-0.6,0-1.2,0.6-1,1.4c0.4,1.4,0.4,1.7,0.6,2.1c0.1,0.4,0.3,0.8,0.9,0.8c0.6,0,4.7,0,5.2,0
				s0.6-0.2,0.8-0.6c0.2-0.4,0.5-1.7,0.6-2.2s-0.2-1.4-0.9-1.4C137.2,45.6,133.2,45.6,132.2,45.6z"/>
			<path class="st22" d="M133,46.5c-0.4,0-1-0.1-0.8,0.8c0.3,0.9,0.3,0.9,0.4,1.2c0.1,0.3,0.2,0.4,0.6,0.4c0.4,0,3.5,0,3.9,0
				s0.5-0.1,0.7-0.5c0.1-0.4,0.2-0.8,0.3-1.1c0.1-0.5,0.1-0.8-0.6-0.8C136.7,46.5,133.5,46.5,133,46.5z"/>
			<g>
				<circle class="st3" cx="133.1" cy="47.1" r="0.2"/>
				<circle class="st3" cx="134.1" cy="47.1" r="0.2"/>
				<circle class="st3" cx="135.2" cy="47.1" r="0.2"/>
				<circle class="st3" cx="136.2" cy="47.1" r="0.2"/>
				<circle class="st3" cx="137.3" cy="47.1" r="0.2"/>
			</g>
			<g>
				<circle class="st3" cx="133.5" cy="48.2" r="0.2"/>
				<circle class="st3" cx="134.5" cy="48.2" r="0.2"/>
				<circle class="st3" cx="135.6" cy="48.2" r="0.2"/>
				<circle class="st3" cx="136.7" cy="48.2" r="0.2"/>
			</g>
			<g>
				<circle class="st3" cx="130.2" cy="47.7" r="0.9"/>
				<circle class="st3" cx="130.2" cy="47.8" r="0.4"/>
			</g>
			<g>
				<circle class="st3" cx="140.1" cy="47.7" r="0.9"/>
				<circle class="st3" cx="140.1" cy="47.8" r="0.4"/>
			</g>
		</g>
	</g>
	<circle class="st24" cx="46.7" cy="85.9" r="11"/>
	<path class="st25" d="M40,77.1c5.2-4.7,55.8-56.8,55.8-56.8"/>
	<line class="st25" x1="53.3" y1="94.9" x2="131.2" y2="72.9"/>
	<g>
		<g>
			<g>
				<path class="st26" d="M351.5,233.2c-0.4,0-1.6-0.2-1.6,1.1s0,14.6,0,15.1s0.5,0.9,1.5,0.9s1.2-0.5,1.2-0.9s0-16.1,0-16.1H351.5z
					"/>
				<path class="st26" d="M358.7,233.2c0.4,0,1.6-0.2,1.6,1.1c0,1.2,0,14.6,0,15.1s-0.5,0.9-1.5,0.9s-1.2-0.5-1.2-0.9s0-16.1,0-16.1
					H358.7z"/>
				<path class="st26" d="M352.6,248.1c0.4-0.1,0.8-0.9,0.8-1.5c0.1-0.6,0.5-1,0.8-1.1v2.5l0.7,0.7l0.6-0.6v-2.6
					c0.5,0.3,0.9,0.6,1.1,1.5c0.1,0.5,0.4,1,1,1.3v-7.6h-5V248.1z"/>
				<rect x="353.3" y="228.6" class="st26" width="4.1" height="0.6"/>
				<rect x="350.9" y="228.1" class="st26" width="9" height="0.5"/>
				<g>
					<path class="st26" d="M352.9,229.2c-0.8,0-1.4,0.3-1.4,1.4c0,1.1,0,3.6,0,4.5c0,0.9,0.5,2,0.7,2.5s0.3,2.4,0.3,2.9
						c0,0.5,0.9,1.6,1.8,1.6s1.6,0,2.1,0c0.8,0,1.4-0.8,1.4-1.6c0-0.9,0.5-2.2,0.7-3s0.5-1.5,0.5-2.3c0-0.9,0-3.8,0-4.4
						c0-0.6-0.1-1.5-1-1.5S354.1,229.2,352.9,229.2z"/>
					<path class="st27" d="M351.5,230.6c1.1,0.5,2.6,0.6,3.7,0.6s2.9-0.1,3.7-0.4"/>
				</g>
				<path class="st28" d="M348.6,250.5L348.6,250.5c-0.6,0-1.1-0.5-1.1-1.1v-14c0-0.6,0.5-1.1,1.1-1.1l0,0c0.6,0,1.1,0.5,1.1,1.1v14
					C349.7,250,349.2,250.5,348.6,250.5z"/>
				<path class="st28" d="M361.6,250.5L361.6,250.5c-0.6,0-1.1-0.5-1.1-1.1v-14c0-0.6,0.5-1.1,1.1-1.1l0,0c0.6,0,1.1,0.5,1.1,1.1v14
					C362.7,250,362.2,250.5,361.6,250.5z"/>
			</g>
			<g>
				<path class="st26" d="M362,226.6c0.5,0,0.6,0.1,0.6,0.4s0,0.2,0,0.5c0,0.3,0.1,0.4-0.3,0.4c-0.4,0-15.8,0-15.8,0
					c-0.5,0.2-0.8,1-0.8,1.6s0,7.5,0,8.6s-0.1,2.3-2.8,2.3c-2.7,0-32.3,0-32.3,0v-1.5c0,0,22.4,0,23.2,0c1.2,0,1.7-0.6,1.7-1.7
					c0-2,0-5.6,0-7.6c0-2.5,1.1-3,3.7-3C340.9,226.6,362,226.6,362,226.6z"/>
				<path class="st29" d="M346.6,227.9c0,0-6.3,0-7.5,0c-1.7,0-2.1,0.7-2.1,1.9c0,0.8,0,7,0,8s-0.4,2.5-3.1,2.5"/>
			</g>
			<g>
				<path class="st26" d="M259.2,226.6c-0.5,0-0.6,0.1-0.6,0.4s0,0.2,0,0.5c0,0.3-0.1,0.4,0.3,0.4c0.4,0,15.8,0,15.8,0
					c0.5,0.2,0.8,1,0.8,1.6s0,7.5,0,8.6s0.1,2.3,2.8,2.3s32.3,0,32.3,0v-1.5c0,0-22.4,0-23.2,0c-1.2,0-1.7-0.6-1.7-1.7
					c0-2,0-5.6,0-7.6c0-2.5-1.1-3-3.7-3C280.4,226.6,259.2,226.6,259.2,226.6z"/>
				<path class="st29" d="M274.7,227.9c0,0,6.3,0,7.5,0c1.7,0,2.1,0.7,2.1,1.9c0,0.8,0,7,0,8s0.4,2.5,3.1,2.5"/>
			</g>
			<g>
				<path class="st26" d="M262.1,233.2c-0.4,0-1.6-0.2-1.6,1.1s0,14.6,0,15.1s0.5,0.9,1.5,0.9c1,0,1.2-0.5,1.2-0.9s0-16.1,0-16.1
					H262.1z"/>
				<path class="st26" d="M269.4,233.2c0.4,0,1.6-0.2,1.6,1.1c0,1.2,0,14.6,0,15.1s-0.5,0.9-1.5,0.9s-1.2-0.5-1.2-0.9s0-16.1,0-16.1
					H269.4z"/>
				<path class="st26" d="M263.2,248.1c0.4-0.1,0.8-0.9,0.8-1.5c0.1-0.6,0.5-1,0.8-1.1v2.5l0.7,0.7l0.6-0.6v-2.6
					c0.5,0.3,0.9,0.6,1.1,1.5c0.1,0.5,0.4,1,1,1.3v-7.6h-5V248.1z"/>
				<rect x="263.9" y="228.6" class="st26" width="4.1" height="0.6"/>
				<rect x="261.5" y="228.1" class="st26" width="9" height="0.5"/>
				<g>
					<path class="st26" d="M263.5,229.2c-0.8,0-1.4,0.3-1.4,1.4c0,1.1,0,3.6,0,4.5c0,0.9,0.5,2,0.7,2.5s0.3,2.4,0.3,2.9
						c0,0.5,0.9,1.6,1.8,1.6c0.9,0,1.6,0,2.1,0c0.8,0,1.4-0.8,1.4-1.6c0-0.9,0.5-2.2,0.7-3s0.5-1.5,0.5-2.3c0-0.9,0-3.8,0-4.4
						c0-0.6-0.1-1.5-1-1.5C267.8,229.2,264.7,229.2,263.5,229.2z"/>
					<path class="st27" d="M262.1,230.6c1.1,0.5,2.6,0.6,3.7,0.6c1.1,0,2.9-0.1,3.7-0.4"/>
				</g>
				<path class="st28" d="M259.2,250.5L259.2,250.5c-0.6,0-1.1-0.5-1.1-1.1v-14c0-0.6,0.5-1.1,1.1-1.1h0c0.6,0,1.1,0.5,1.1,1.1v14
					C260.3,250,259.8,250.5,259.2,250.5z"/>
				<path class="st28" d="M272.3,250.5L272.3,250.5c-0.6,0-1.1-0.5-1.1-1.1v-14c0-0.6,0.5-1.1,1.1-1.1l0,0c0.6,0,1.1,0.5,1.1,1.1v14
					C273.3,250,272.9,250.5,272.3,250.5z"/>
			</g>
			<g>
				<path class="st28" d="M350.1,105h-79.4c-1.5,0-2.8,1.3-2.8,2.8v93c0,1.5,1.3,2.8,2.8,2.8c0,0,9.3,0,13.2,0c2,0,3.7,1.3,3.7,3.8
					c0,1.6,0,28.4,0,28.4c0,1.5,1.3,2.8,2.8,2.8H331c1.5,0,2.8-1.3,2.8-2.8c0,0,0-26.1,0-28.9c0-2,1.3-3.3,3.7-3.3
					c1.8,0,12.6,0,12.6,0c1.5,0,2.8-1.3,2.8-2.8v-93C352.9,106.3,351.7,105,350.1,105z"/>
				<path class="st2" d="M346.8,108.7H274c-2.7,0-2.6,0-2.6,2.6v86.1c0,2.6,0,2.6,2.6,2.6c0,0,6.9,0,10.5,0c4,0,6.3,2.5,6.3,6.6
					c0,1.5,0,25.9,0,25.9c0,2.6,0,2.6,2.6,2.6h34.4c2.6,0,2.6,0,2.6-2.6c0,0,0-23.2,0-25.8c0-4.2,2.9-6.7,6.6-6.7c1.7,0,9.9,0,9.9,0
					c2.6,0,2.6,0,2.6-2.6v-86.1C349.4,108.7,349.4,108.7,346.8,108.7z"/>
				<line class="st27" x1="287.6" y1="227.1" x2="333.8" y2="227.1"/>
				<line class="st3" x1="268" y1="126.5" x2="352.9" y2="126.5"/>
				<g>
					<path class="st26" d="M352.9,141.4c0.6,0,0.9,0.5,0.9,1.1h-0.9V141.4z"/>
					<path class="st26" d="M352.9,148.7c0.6,0,0.9,0.5,0.9,1.1h-0.9V148.7z"/>
					<path class="st26" d="M352.9,155.9c0.6,0,0.9,0.5,0.9,1.1h-0.9V155.9z"/>
					<path class="st26" d="M352.9,163.1c0.6,0,0.9,0.5,0.9,1.1h-0.9V163.1z"/>
					<path class="st26" d="M352.9,170.4c0.6,0,0.9,0.5,0.9,1.1h-0.9V170.4z"/>
					<path class="st26" d="M352.9,177.6c0.6,0,0.9,0.5,0.9,1.1h-0.9V177.6z"/>
					<path class="st26" d="M352.9,184.9c0.6,0,0.9,0.5,0.9,1.1h-0.9V184.9z"/>
				</g>
				<g>
					<path class="st26" d="M268,141.7c-0.6,0-0.9,0.5-0.9,1.1h0.9V141.7z"/>
					<path class="st26" d="M268,149c-0.6,0-0.9,0.5-0.9,1.1h0.9V149z"/>
					<path class="st26" d="M268,156.2c-0.6,0-0.9,0.5-0.9,1.1h0.9V156.2z"/>
					<path class="st26" d="M268,163.4c-0.6,0-0.9,0.5-0.9,1.1h0.9V163.4z"/>
					<path class="st26" d="M268,170.7c-0.6,0-0.9,0.5-0.9,1.1h0.9V170.7z"/>
					<path class="st26" d="M268,177.9c-0.6,0-0.9,0.5-0.9,1.1h0.9V177.9z"/>
					<path class="st26" d="M268,185.2c-0.6,0-0.9,0.5-0.9,1.1h0.9V185.2z"/>
				</g>
				<path class="st26" d="M329.1,120.8L329.1,120.8c0,1-0.8,1.8-1.8,1.8H323c-1,0-1.8-0.8-1.8-1.8v0c0-1,0.8-1.8,1.8-1.8h4.2
					C328.3,119,329.1,119.8,329.1,120.8z"/>
			</g>
			<rect x="302.9" y="95.5" class="st28" width="15.1" height="145"/>
			<line class="st27" x1="302.9" y1="205.5" x2="318" y2="205.5"/>
			<line class="st27" x1="302.9" y1="226.9" x2="318" y2="226.9"/>
			<g>
				<polygon class="st28" points="318,224.4 320.5,224.6 320.7,225.7 320.7,235.2 320.7,240.5 318,240.5 				"/>
				<line class="st27" x1="320.7" y1="225.7" x2="318" y2="225.9"/>
				<line class="st27" x1="320.7" y1="235.2" x2="318" y2="235.3"/>
			</g>
			<g>
				<polygon class="st28" points="302.9,224.4 300.3,224.6 300.2,225.7 300.2,235.2 300.2,240.5 302.9,240.5 				"/>
				<line class="st27" x1="300.2" y1="225.7" x2="302.9" y2="225.9"/>
				<line class="st27" x1="300.2" y1="235.2" x2="302.9" y2="235.3"/>
			</g>
			<circle class="st27" cx="307.5" cy="235" r="0.5"/>
			<circle class="st27" cx="314.3" cy="235" r="0.5"/>
			<g>
				<path class="st28" d="M319.3,111.6c0,0,39.3,0,40.7,0s2.4,0.5,2.4,1.5s-1.1,2.2-2.7,2.2c-0.9,0-6.4,0-6.4,0v-0.6h-34V111.6z"/>
				<line class="st30" x1="353.2" y1="114.8" x2="361.3" y2="114.8"/>
				<path class="st3" d="M319.3,112.5c0,0,39.9,0,40.8,0s1.5,0,2.2,0.2"/>
				<path class="st3" d="M319.3,114.1c0,0,39.9,0,40.8,0s1.5,0,2.2-0.2"/>
				<path class="st3" d="M360,111.6c0.4,0.3,0.4,0.6,0.5,0.8c0.1,0.3,0.1,1.3,0,1.6s-0.2,0.5-0.5,0.8"/>
				<rect x="318.2" y="102" class="st28" width="1.1" height="21.7"/>
			</g>
			<g>
				<path class="st28" d="M302.1,111.6c0,0-39.3,0-40.7,0s-2.4,0.5-2.4,1.5s1.1,2.2,2.7,2.2c0.9,0,6.4,0,6.4,0v-0.6h34V111.6z"/>
				<line class="st30" x1="268.1" y1="114.8" x2="260.1" y2="114.8"/>
				<path class="st3" d="M302.1,112.5c0,0-39.9,0-40.8,0s-1.5,0-2.2,0.2"/>
				<path class="st3" d="M302.1,114.1c0,0-39.9,0-40.8,0s-1.5,0-2.2-0.2"/>
				<path class="st3" d="M261.4,111.6c-0.4,0.3-0.4,0.6-0.5,0.8c-0.1,0.3-0.1,1.3,0,1.6s0.2,0.5,0.5,0.8"/>
				
					<rect x="302.1" y="102" transform="matrix(-1 -4.452717e-11 4.452717e-11 -1 605.1916 225.7261)" class="st28" width="1.1" height="21.7"/>
			</g>
			<path class="st28" d="M390,96.3H229.8c-0.7,0-1.3-0.6-1.3-1.3V1.8c0-0.7,0.6-1.3,1.3-1.3H390c0.7,0,1.3,0.6,1.3,1.3V95
				C391.3,95.7,390.7,96.3,390,96.3z"/>
			<rect x="230.6" y="2.8" class="st13" width="158.5" height="89.3"/>
			<circle class="st27" cx="387" cy="94.3" r="0.4"/>
		</g>
		<g>
			<rect x="339.1" y="119.2" class="st11" width="0.9" height="2.1"/>
			<rect x="340.7" y="119.2" class="st11" width="0.9" height="2.1"/>
			<g>
				<polygon class="st31" points="341,122.2 340.1,122.2 339.6,122.8 339.6,123.6 340.1,124.2 341,124.2 341.6,123.6 341.6,122.8 
									"/>
				<circle class="st11" cx="340.5" cy="123.2" r="0.7"/>
			</g>
			<g>
				<g>
					<g>
						<g>
							<path class="st32" d="M341.9,125.6c0,0,0.1-0.1,0.1-0.2v-0.2c0-0.1,0-0.1-0.1-0.1h-2.7c-0.1,0-0.1,0-0.1,0.1v0.2
								c0,0.1,0,0.1,0.1,0.2l0.3,0.3c0,0,0.1,0.1,0.2,0.1h1.7c0.1,0,0.1,0,0.2-0.1L341.9,125.6z"/>
							<path class="st33" d="M341.9,125.6c0,0,0.1-0.1,0.1-0.2v-0.2c0-0.1,0-0.1-0.1-0.1h-2.7c-0.1,0-0.1,0-0.1,0.1v0.2
								c0,0.1,0,0.1,0.1,0.2l0.3,0.3c0,0,0.1,0.1,0.2,0.1h1.7c0.1,0,0.1,0,0.2-0.1L341.9,125.6z"/>
						</g>
					</g>
				</g>
				<rect x="339.5" y="125.3" class="st34" width="2.1" height="0.2"/>
				<rect x="339.6" y="125.3" class="st35" width="0.1" height="0"/>
				<rect x="339.8" y="125.3" class="st35" width="0.1" height="0"/>
				<rect x="340" y="125.3" class="st35" width="0.1" height="0"/>
				<rect x="340.2" y="125.3" class="st35" width="0.1" height="0"/>
				<rect x="340.4" y="125.3" class="st35" width="0.1" height="0"/>
				<rect x="340.6" y="125.3" class="st35" width="0.1" height="0"/>
				<rect x="340.8" y="125.3" class="st35" width="0.1" height="0"/>
				<rect x="341" y="125.3" class="st35" width="0.1" height="0"/>
				<rect x="341.2" y="125.3" class="st35" width="0.1" height="0"/>
				<rect x="341.4" y="125.3" class="st35" width="0.1" height="0"/>
				<rect x="341.3" y="125.5" class="st36" width="0.1" height="0"/>
				<rect x="341.1" y="125.5" class="st36" width="0.1" height="0"/>
				<rect x="340.9" y="125.5" class="st36" width="0.1" height="0"/>
				<rect x="340.7" y="125.5" class="st36" width="0.1" height="0"/>
				<rect x="340.5" y="125.5" class="st36" width="0.1" height="0"/>
				<rect x="340.3" y="125.5" class="st36" width="0.1" height="0"/>
				<rect x="340.1" y="125.5" class="st36" width="0.1" height="0"/>
				<rect x="339.9" y="125.5" class="st36" width="0.1" height="0"/>
				<rect x="339.7" y="125.5" class="st36" width="0.1" height="0"/>
			</g>
		</g>
	</g>
</g>
<g id="Layer_2">
	<g>
		<polyline class="st37" points="322,120.5 175.1,120.5 175,37.6 124.7,37.6 		"/>
	</g>
	<polygon class="st38" points="175.1,88.1 182.3,73.1 167.9,73.1 	"/>
	<g>
		<path d="M188.3,81.8h-2.4v-4.3h2.4v0.4h-1.9v1.4h1.8v0.4h-1.8v1.6h1.9V81.8z"/>
		<path d="M190.2,81.4c0.1,0,0.2,0,0.2,0s0.1,0,0.2,0v0.4c-0.1,0-0.1,0-0.2,0.1s-0.2,0-0.3,0c-0.6,0-0.9-0.3-0.9-1v-1.9h-0.5v-0.2
			l0.5-0.2l0.2-0.7h0.3v0.7h0.9v0.4h-0.9v1.9c0,0.2,0,0.3,0.1,0.4S190.1,81.4,190.2,81.4z"/>
		<path d="M193.5,81.8v-2.1c0-0.3-0.1-0.5-0.2-0.6s-0.3-0.2-0.6-0.2c-0.3,0-0.6,0.1-0.7,0.3s-0.2,0.5-0.2,0.9v1.7h-0.5v-4.6h0.5v1.4
			c0,0.2,0,0.3,0,0.4h0c0.1-0.2,0.2-0.3,0.4-0.4s0.4-0.1,0.6-0.1c0.4,0,0.7,0.1,0.9,0.3s0.3,0.5,0.3,0.9v2.1H193.5z"/>
		<path d="M196.3,81.8c-0.5,0-0.8-0.1-1.1-0.4s-0.4-0.7-0.4-1.2c0-0.5,0.1-0.9,0.4-1.2s0.6-0.5,1-0.5c0.4,0,0.7,0.1,1,0.4
			s0.4,0.6,0.4,1v0.3h-2.2c0,0.4,0.1,0.7,0.3,0.9s0.4,0.3,0.8,0.3c0.3,0,0.7-0.1,1-0.2v0.4c-0.2,0.1-0.3,0.1-0.5,0.2
			S196.5,81.8,196.3,81.8z M196.2,78.9c-0.3,0-0.5,0.1-0.6,0.3s-0.2,0.4-0.3,0.7h1.7c0-0.3-0.1-0.5-0.2-0.7S196.5,78.9,196.2,78.9z"
			/>
		<path d="M199.8,78.5c0.1,0,0.3,0,0.4,0l-0.1,0.5c-0.1,0-0.2,0-0.4,0c-0.3,0-0.5,0.1-0.7,0.3c-0.2,0.2-0.3,0.5-0.3,0.8v1.7h-0.5
			v-3.2h0.4l0.1,0.6h0c0.1-0.2,0.3-0.4,0.4-0.5S199.6,78.5,199.8,78.5z"/>
		<path d="M203,81.8v-2.1c0-0.3-0.1-0.5-0.2-0.6s-0.3-0.2-0.6-0.2c-0.3,0-0.6,0.1-0.7,0.3s-0.2,0.5-0.2,0.9v1.7h-0.5v-3.2h0.4
			l0.1,0.4h0c0.1-0.2,0.2-0.3,0.4-0.4s0.4-0.1,0.6-0.1c0.4,0,0.7,0.1,0.9,0.3s0.3,0.5,0.3,0.9v2.1H203z"/>
		<path d="M205.8,81.8c-0.5,0-0.8-0.1-1.1-0.4s-0.4-0.7-0.4-1.2c0-0.5,0.1-0.9,0.4-1.2c0.3-0.3,0.6-0.5,1-0.5c0.4,0,0.7,0.1,1,0.4
			s0.4,0.6,0.4,1v0.3h-2.2c0,0.4,0.1,0.7,0.3,0.9c0.2,0.2,0.4,0.3,0.8,0.3c0.3,0,0.7-0.1,1-0.2v0.4c-0.2,0.1-0.3,0.1-0.5,0.2
			C206.2,81.8,206,81.8,205.8,81.8z M205.7,78.9c-0.3,0-0.5,0.1-0.6,0.3s-0.2,0.4-0.3,0.7h1.7c0-0.3-0.1-0.5-0.2-0.7
			S206,78.9,205.7,78.9z"/>
		<path d="M208.9,81.4c0.1,0,0.2,0,0.2,0s0.1,0,0.2,0v0.4c-0.1,0-0.1,0-0.2,0.1c-0.1,0-0.2,0-0.3,0c-0.6,0-0.9-0.3-0.9-1v-1.9h-0.5
			v-0.2l0.5-0.2l0.2-0.7h0.3v0.7h0.9v0.4h-0.9v1.9c0,0.2,0,0.3,0.1,0.4S208.7,81.4,208.9,81.4z"/>
	</g>
	<g>
		<path d="M121.5,9.4c17.4,0,31.5,14.1,31.5,31.5s-14.1,31.5-31.5,31.5S90,58.2,90,40.9S104.2,9.4,121.5,9.4 M121.5,6.4
			c-19,0-34.5,15.4-34.5,34.5s15.4,34.5,34.5,34.5S156,59.9,156,40.9S140.6,6.4,121.5,6.4L121.5,6.4z"/>
	</g>
</g>
</svg>
