<?xml version="1.0" encoding="utf-8"?>
<!-- Generator: Adobe Illustrator 25.2.0, SVG Export Plug-In . SVG Version: 6.00 Build 0)  -->
<svg version="1.1" xmlns="http://www.w3.org/2000/svg" xmlns:xlink="http://www.w3.org/1999/xlink" x="0px" y="0px" width="343.9px"
	 height="251px" viewBox="0 0 343.9 251" style="enable-background:new 0 0 343.9 251;" xml:space="preserve">
<style type="text/css">
	.st0{fill:#FFFFFF;stroke:#000000;stroke-width:0.6413;stroke-linecap:round;stroke-linejoin:round;stroke-miterlimit:10;}
	.st1{fill:none;stroke:#000000;stroke-width:0.3207;stroke-linecap:round;stroke-linejoin:round;stroke-miterlimit:10;}
	.st2{fill:#FFFFFF;stroke:#000000;stroke-linecap:round;stroke-linejoin:round;stroke-miterlimit:10;}
	.st3{fill:none;stroke:#000000;stroke-width:0.6413;stroke-linecap:round;stroke-linejoin:round;stroke-miterlimit:10;}
	.st4{fill:#FFFFFF;stroke:#000000;stroke-width:0.5;stroke-linecap:round;stroke-linejoin:round;stroke-miterlimit:10;}
	.st5{fill:none;stroke:#000000;stroke-width:0.25;stroke-linecap:round;stroke-linejoin:round;stroke-miterlimit:10;}
	.st6{fill:none;stroke:#000000;stroke-linecap:round;stroke-linejoin:round;stroke-miterlimit:10;}
	.st7{fill:none;stroke:#000000;stroke-width:0.5;stroke-linecap:round;stroke-linejoin:round;stroke-miterlimit:10;}
	.st8{fill:#FFFFFF;stroke:#000000;stroke-width:0.25;stroke-linecap:round;stroke-linejoin:round;stroke-miterlimit:10;}
	.st9{fill:#FFFFFF;stroke:#000000;stroke-width:0.1378;stroke-linecap:round;stroke-linejoin:round;stroke-miterlimit:10;}
	.st10{fill:#FFFFFF;}
	.st11{fill:none;stroke:#010101;stroke-width:5.333154e-02;stroke-linecap:round;stroke-linejoin:round;stroke-miterlimit:10;}
	.st12{fill:#010101;}
	.st13{fill:#FFFFFF;stroke:#010101;stroke-width:8.683735e-03;stroke-miterlimit:10;}
	.st14{fill:#FFFFFF;stroke:#010101;stroke-width:9.609092e-03;stroke-miterlimit:10;}
	.st15{fill:none;stroke:#00AEEF;stroke-width:3;stroke-linecap:round;stroke-linejoin:round;stroke-miterlimit:10;}
	.st16{fill:#00AEEF;}
</style>
<g id="Layer_3">
	<g>
		<g>
			<g>
				<path class="st0" d="M123.5,233.2c-0.4,0-1.6-0.2-1.6,1.1s0,14.6,0,15.1s0.5,0.9,1.5,0.9c1,0,1.2-0.5,1.2-0.9s0-16.1,0-16.1
					H123.5z"/>
				<path class="st0" d="M130.7,233.2c0.4,0,1.6-0.2,1.6,1.1c0,1.2,0,14.6,0,15.1s-0.5,0.9-1.5,0.9s-1.2-0.5-1.2-0.9s0-16.1,0-16.1
					H130.7z"/>
				<path class="st0" d="M124.6,248.1c0.4-0.1,0.8-0.9,0.8-1.5c0.1-0.6,0.5-1,0.8-1.1v2.5l0.7,0.7l0.6-0.6v-2.6
					c0.5,0.3,0.9,0.6,1.1,1.5c0.1,0.5,0.4,1,1,1.3v-7.6h-5V248.1z"/>
				<rect x="125.3" y="228.6" class="st0" width="4.1" height="0.6"/>
				<rect x="122.9" y="228.1" class="st0" width="9" height="0.5"/>
				<g>
					<path class="st0" d="M124.9,229.2c-0.8,0-1.4,0.3-1.4,1.4c0,1.1,0,3.6,0,4.5c0,0.9,0.5,2,0.7,2.5c0.2,0.5,0.3,2.4,0.3,2.9
						c0,0.5,0.9,1.6,1.8,1.6s1.6,0,2.1,0c0.8,0,1.4-0.8,1.4-1.6c0-0.9,0.5-2.2,0.7-3s0.5-1.5,0.5-2.3c0-0.9,0-3.8,0-4.4
						c0-0.6-0.1-1.5-1-1.5C129.1,229.2,126.1,229.2,124.9,229.2z"/>
					<path class="st1" d="M123.5,230.6c1.1,0.5,2.6,0.6,3.7,0.6s2.9-0.1,3.7-0.4"/>
				</g>
				<path class="st2" d="M120.6,250.5L120.6,250.5c-0.6,0-1.1-0.5-1.1-1.1v-14c0-0.6,0.5-1.1,1.1-1.1h0c0.6,0,1.1,0.5,1.1,1.1v14
					C121.7,250,121.2,250.5,120.6,250.5z"/>
				<path class="st2" d="M133.6,250.5L133.6,250.5c-0.6,0-1.1-0.5-1.1-1.1v-14c0-0.6,0.5-1.1,1.1-1.1l0,0c0.6,0,1.1,0.5,1.1,1.1v14
					C134.7,250,134.2,250.5,133.6,250.5z"/>
			</g>
			<g>
				<path class="st0" d="M134,226.6c0.5,0,0.6,0.1,0.6,0.4s0,0.2,0,0.5c0,0.3,0.1,0.4-0.3,0.4c-0.4,0-15.8,0-15.8,0
					c-0.5,0.2-0.8,1-0.8,1.6s0,7.5,0,8.6s-0.1,2.3-2.8,2.3s-32.3,0-32.3,0v-1.5c0,0,22.4,0,23.2,0c1.2,0,1.7-0.6,1.7-1.7
					c0-2,0-5.6,0-7.6c0-2.5,1.1-3,3.7-3C112.9,226.6,134,226.6,134,226.6z"/>
				<path class="st3" d="M118.6,227.9c0,0-6.3,0-7.5,0c-1.7,0-2.1,0.7-2.1,1.9c0,0.8,0,7,0,8s-0.4,2.5-3.1,2.5"/>
			</g>
			<g>
				<path class="st0" d="M31.2,226.6c-0.5,0-0.6,0.1-0.6,0.4s0,0.2,0,0.5c0,0.3-0.1,0.4,0.3,0.4c0.4,0,15.8,0,15.8,0
					c0.5,0.2,0.8,1,0.8,1.6s0,7.5,0,8.6s0.1,2.3,2.8,2.3c2.7,0,32.3,0,32.3,0v-1.5c0,0-22.4,0-23.2,0c-1.2,0-1.7-0.6-1.7-1.7
					c0-2,0-5.6,0-7.6c0-2.5-1.1-3-3.7-3C52.4,226.6,31.2,226.6,31.2,226.6z"/>
				<path class="st3" d="M46.7,227.9c0,0,6.3,0,7.5,0c1.7,0,2.1,0.7,2.1,1.9c0,0.8,0,7,0,8s0.4,2.5,3.1,2.5"/>
			</g>
			<g>
				<path class="st0" d="M34.1,233.2c-0.4,0-1.6-0.2-1.6,1.1s0,14.6,0,15.1s0.5,0.9,1.5,0.9s1.2-0.5,1.2-0.9s0-16.1,0-16.1H34.1z"/>
				<path class="st0" d="M41.4,233.2c0.4,0,1.6-0.2,1.6,1.1c0,1.2,0,14.6,0,15.1s-0.5,0.9-1.5,0.9s-1.2-0.5-1.2-0.9s0-16.1,0-16.1
					H41.4z"/>
				<path class="st0" d="M35.2,248.1c0.4-0.1,0.8-0.9,0.8-1.5c0.1-0.6,0.5-1,0.8-1.1v2.5l0.7,0.7l0.6-0.6v-2.6
					c0.5,0.3,0.9,0.6,1.1,1.5c0.1,0.5,0.4,1,1,1.3v-7.6h-5V248.1z"/>
				<rect x="35.9" y="228.6" class="st0" width="4.1" height="0.6"/>
				<rect x="33.5" y="228.1" class="st0" width="9" height="0.5"/>
				<g>
					<path class="st0" d="M35.5,229.2c-0.8,0-1.4,0.3-1.4,1.4c0,1.1,0,3.6,0,4.5c0,0.9,0.5,2,0.7,2.5s0.3,2.4,0.3,2.9
						c0,0.5,0.9,1.6,1.8,1.6c0.9,0,1.6,0,2.1,0c0.8,0,1.4-0.8,1.4-1.6c0-0.9,0.5-2.2,0.7-3c0.2-0.7,0.5-1.5,0.5-2.3
						c0-0.9,0-3.8,0-4.4c0-0.6-0.1-1.5-1-1.5S36.7,229.2,35.5,229.2z"/>
					<path class="st1" d="M34.1,230.6c1.1,0.5,2.6,0.6,3.7,0.6c1.1,0,2.9-0.1,3.7-0.4"/>
				</g>
				<path class="st2" d="M31.2,250.5L31.2,250.5c-0.6,0-1.1-0.5-1.1-1.1v-14c0-0.6,0.5-1.1,1.1-1.1h0c0.6,0,1.1,0.5,1.1,1.1v14
					C32.3,250,31.8,250.5,31.2,250.5z"/>
				<path class="st2" d="M44.3,250.5L44.3,250.5c-0.6,0-1.1-0.5-1.1-1.1v-14c0-0.6,0.5-1.1,1.1-1.1l0,0c0.6,0,1.1,0.5,1.1,1.1v14
					C45.3,250,44.9,250.5,44.3,250.5z"/>
			</g>
			<g>
				<path class="st2" d="M122.1,105H42.7c-1.5,0-2.8,1.3-2.8,2.8v93c0,1.5,1.3,2.8,2.8,2.8c0,0,9.3,0,13.2,0c2,0,3.7,1.3,3.7,3.8
					c0,1.6,0,28.4,0,28.4c0,1.5,1.3,2.8,2.8,2.8H103c1.5,0,2.8-1.3,2.8-2.8c0,0,0-26.1,0-28.9c0-2,1.3-3.3,3.7-3.3
					c1.8,0,12.6,0,12.6,0c1.5,0,2.8-1.3,2.8-2.8v-93C124.9,106.3,123.7,105,122.1,105z"/>
				<path class="st4" d="M118.8,108.7H46c-2.7,0-2.6,0-2.6,2.6v86.1c0,2.6,0,2.6,2.6,2.6c0,0,6.9,0,10.5,0c4,0,6.3,2.5,6.3,6.6
					c0,1.5,0,25.9,0,25.9c0,2.6,0,2.6,2.6,2.6h34.4c2.6,0,2.6,0,2.6-2.6c0,0,0-23.2,0-25.8c0-4.2,2.9-6.7,6.6-6.7c1.7,0,9.9,0,9.9,0
					c2.6,0,2.6,0,2.6-2.6v-86.1C121.4,108.7,121.4,108.7,118.8,108.7z"/>
				<line class="st1" x1="59.6" y1="227.1" x2="105.8" y2="227.1"/>
				<line class="st5" x1="40" y1="126.5" x2="124.9" y2="126.5"/>
				<g>
					<path class="st0" d="M124.9,141.4c0.6,0,0.9,0.5,0.9,1.1h-0.9V141.4z"/>
					<path class="st0" d="M124.9,148.7c0.6,0,0.9,0.5,0.9,1.1h-0.9V148.7z"/>
					<path class="st0" d="M124.9,155.9c0.6,0,0.9,0.5,0.9,1.1h-0.9V155.9z"/>
					<path class="st0" d="M124.9,163.1c0.6,0,0.9,0.5,0.9,1.1h-0.9V163.1z"/>
					<path class="st0" d="M124.9,170.4c0.6,0,0.9,0.5,0.9,1.1h-0.9V170.4z"/>
					<path class="st0" d="M124.9,177.6c0.6,0,0.9,0.5,0.9,1.1h-0.9V177.6z"/>
					<path class="st0" d="M124.9,184.9c0.6,0,0.9,0.5,0.9,1.1h-0.9V184.9z"/>
				</g>
				<g>
					<path class="st0" d="M40,141.7c-0.6,0-0.9,0.5-0.9,1.1H40V141.7z"/>
					<path class="st0" d="M40,149c-0.6,0-0.9,0.5-0.9,1.1H40V149z"/>
					<path class="st0" d="M40,156.2c-0.6,0-0.9,0.5-0.9,1.1H40V156.2z"/>
					<path class="st0" d="M40,163.4c-0.6,0-0.9,0.5-0.9,1.1H40V163.4z"/>
					<path class="st0" d="M40,170.7c-0.6,0-0.9,0.5-0.9,1.1H40V170.7z"/>
					<path class="st0" d="M40,177.9c-0.6,0-0.9,0.5-0.9,1.1H40V177.9z"/>
					<path class="st0" d="M40,185.2c-0.6,0-0.9,0.5-0.9,1.1H40V185.2z"/>
				</g>
				<path class="st0" d="M101.1,120.8L101.1,120.8c0,1-0.8,1.8-1.8,1.8H95c-1,0-1.8-0.8-1.8-1.8v0c0-1,0.8-1.8,1.8-1.8h4.2
					C100.2,119,101.1,119.8,101.1,120.8z"/>
			</g>
			<rect x="74.9" y="95.5" class="st2" width="15.1" height="145"/>
			<line class="st1" x1="74.9" y1="205.5" x2="90" y2="205.5"/>
			<line class="st1" x1="74.9" y1="226.9" x2="90" y2="226.9"/>
			<g>
				<polygon class="st2" points="90,224.4 92.5,224.6 92.7,225.7 92.7,235.2 92.7,240.5 90,240.5 				"/>
				<line class="st1" x1="92.7" y1="225.7" x2="90" y2="225.9"/>
				<line class="st1" x1="92.7" y1="235.2" x2="90" y2="235.3"/>
			</g>
			<g>
				<polygon class="st2" points="74.9,224.4 72.3,224.6 72.2,225.7 72.2,235.2 72.2,240.5 74.9,240.5 				"/>
				<line class="st1" x1="72.2" y1="225.7" x2="74.9" y2="225.9"/>
				<line class="st1" x1="72.2" y1="235.2" x2="74.9" y2="235.3"/>
			</g>
			<circle class="st1" cx="79.5" cy="235" r="0.5"/>
			<circle class="st1" cx="86.3" cy="235" r="0.5"/>
			<g>
				<path class="st2" d="M91.3,111.6c0,0,39.3,0,40.7,0c1.4,0,2.4,0.5,2.4,1.5s-1.1,2.2-2.7,2.2c-0.9,0-6.4,0-6.4,0v-0.6h-34V111.6z
					"/>
				<line class="st6" x1="125.2" y1="114.8" x2="133.3" y2="114.8"/>
				<path class="st5" d="M91.3,112.5c0,0,39.9,0,40.8,0s1.5,0,2.2,0.2"/>
				<path class="st5" d="M91.3,114.1c0,0,39.9,0,40.8,0s1.5,0,2.2-0.2"/>
				<path class="st5" d="M132,111.6c0.4,0.3,0.4,0.6,0.5,0.8c0.1,0.3,0.1,1.3,0,1.6s-0.2,0.5-0.5,0.8"/>
				<rect x="90.2" y="102" class="st2" width="1.1" height="21.7"/>
			</g>
			<g>
				<path class="st2" d="M74.1,111.6c0,0-39.3,0-40.7,0s-2.4,0.5-2.4,1.5s1.1,2.2,2.7,2.2c0.9,0,6.4,0,6.4,0v-0.6h34V111.6z"/>
				<line class="st6" x1="40.1" y1="114.8" x2="32.1" y2="114.8"/>
				<path class="st5" d="M74.1,112.5c0,0-39.9,0-40.8,0s-1.5,0-2.2,0.2"/>
				<path class="st5" d="M74.1,114.1c0,0-39.9,0-40.8,0s-1.5,0-2.2-0.2"/>
				<path class="st5" d="M33.4,111.6c-0.4,0.3-0.4,0.6-0.5,0.8c-0.1,0.3-0.1,1.3,0,1.6s0.2,0.5,0.5,0.8"/>
				
					<rect x="74.1" y="102" transform="matrix(-1 -4.452717e-11 4.452717e-11 -1 149.1889 225.7261)" class="st2" width="1.1" height="21.7"/>
			</g>
			<path class="st2" d="M162,96.3H1.8c-0.7,0-1.3-0.6-1.3-1.3V1.8c0-0.7,0.6-1.3,1.3-1.3H162c0.7,0,1.3,0.6,1.3,1.3V95
				C163.3,95.7,162.7,96.3,162,96.3z"/>
			<rect x="2.6" y="2.8" class="st7" width="158.5" height="89.3"/>
			<circle class="st1" cx="159" cy="94.3" r="0.4"/>
		</g>
		<g>
			<rect x="111.1" y="119.2" class="st8" width="0.9" height="2.1"/>
			<rect x="112.7" y="119.2" class="st8" width="0.9" height="2.1"/>
			<g>
				<polygon class="st9" points="113,122.2 112.1,122.2 111.6,122.8 111.6,123.6 112.1,124.2 113,124.2 113.6,123.6 113.6,122.8 
									"/>
				<circle class="st8" cx="112.5" cy="123.2" r="0.7"/>
			</g>
			<g>
				<g>
					<g>
						<g>
							<path class="st10" d="M113.9,125.6c0,0,0.1-0.1,0.1-0.2v-0.2c0-0.1,0-0.1-0.1-0.1h-2.7c-0.1,0-0.1,0-0.1,0.1v0.2
								c0,0.1,0,0.1,0.1,0.2l0.3,0.3c0,0,0.1,0.1,0.2,0.1h1.7c0.1,0,0.1,0,0.2-0.1L113.9,125.6z"/>
							<path class="st11" d="M113.9,125.6c0,0,0.1-0.1,0.1-0.2v-0.2c0-0.1,0-0.1-0.1-0.1h-2.7c-0.1,0-0.1,0-0.1,0.1v0.2
								c0,0.1,0,0.1,0.1,0.2l0.3,0.3c0,0,0.1,0.1,0.2,0.1h1.7c0.1,0,0.1,0,0.2-0.1L113.9,125.6z"/>
						</g>
					</g>
				</g>
				<rect x="111.5" y="125.3" class="st12" width="2.1" height="0.2"/>
				<rect x="111.6" y="125.3" class="st13" width="0.1" height="0"/>
				<rect x="111.8" y="125.3" class="st13" width="0.1" height="0"/>
				<rect x="112" y="125.3" class="st13" width="0.1" height="0"/>
				<rect x="112.2" y="125.3" class="st13" width="0.1" height="0"/>
				<rect x="112.4" y="125.3" class="st13" width="0.1" height="0"/>
				<rect x="112.6" y="125.3" class="st13" width="0.1" height="0"/>
				<rect x="112.8" y="125.3" class="st13" width="0.1" height="0"/>
				<rect x="113" y="125.3" class="st13" width="0.1" height="0"/>
				<rect x="113.2" y="125.3" class="st13" width="0.1" height="0"/>
				<rect x="113.4" y="125.3" class="st13" width="0.1" height="0"/>
				<rect x="113.3" y="125.5" class="st14" width="0.1" height="0"/>
				<rect x="113.1" y="125.5" class="st14" width="0.1" height="0"/>
				<rect x="112.9" y="125.5" class="st14" width="0.1" height="0"/>
				<rect x="112.7" y="125.5" class="st14" width="0.1" height="0"/>
				<rect x="112.5" y="125.5" class="st14" width="0.1" height="0"/>
				<rect x="112.3" y="125.5" class="st14" width="0.1" height="0"/>
				<rect x="112.1" y="125.5" class="st14" width="0.1" height="0"/>
				<rect x="111.9" y="125.5" class="st14" width="0.1" height="0"/>
				<rect x="111.7" y="125.5" class="st14" width="0.1" height="0"/>
			</g>
		</g>
	</g>
</g>
<g id="Layer_2">
	<g>
		<polyline class="st15" points="114,125.5 181.5,125.5 180.9,53.3 215.9,53.3 		"/>
	</g>
	<polygon class="st16" points="181.5,83.2 174.3,98.1 188.6,98.1 	"/>
	<g>
		<path d="M194.7,95h-0.5v-2h-2.3v2h-0.5v-4.3h0.5v1.8h2.3v-1.8h0.5V95z"/>
		<path d="M199.3,92.8c0,0.7-0.2,1.2-0.6,1.6c-0.4,0.4-0.9,0.6-1.7,0.6h-1.2v-4.3h1.3c0.7,0,1.2,0.2,1.6,0.6S199.3,92.2,199.3,92.8z
			 M198.7,92.8c0-0.6-0.1-1-0.4-1.3c-0.3-0.3-0.7-0.4-1.2-0.4h-0.7v3.4h0.6c0.6,0,1-0.1,1.3-0.4S198.7,93.4,198.7,92.8z"/>
		<path d="M202.1,95l-1.5-3.8h0c0,0.3,0,0.7,0,1.1V95h-0.5v-4.3h0.8l1.4,3.5h0l1.4-3.5h0.7V95H204v-2.8c0-0.3,0-0.7,0-1h0l-1.5,3.8
			H202.1z"/>
		<path d="M205.6,95v-4.3h0.5V95H205.6z"/>
	</g>
</g>
<g id="Layer_1">
	<g>
		<path class="st2" d="M342.4,90.6H217.5c-0.6,0-1-0.4-1-1V17c0-0.6,0.4-1,1-1h124.9c0.6,0,1,0.4,1,1v72.7
			C343.4,90.2,342.9,90.6,342.4,90.6z"/>
		<rect x="218.1" y="17.8" class="st6" width="123.6" height="69.7"/>
		<circle class="st5" cx="340" cy="89.1" r="0.3"/>
		<polygon class="st2" points="271.6,90.6 271.6,94 259.9,94 259.9,96.4 294.7,96.4 294.7,93.5 282.8,93.5 282.8,90.6 		"/>
	</g>
</g>
</svg>
