<?xml version="1.0" encoding="utf-8"?>
<!-- Generator: Adobe Illustrator 25.2.0, SVG Export Plug-In . SVG Version: 6.00 Build 0)  -->
<svg version="1.1" xmlns="http://www.w3.org/2000/svg" xmlns:xlink="http://www.w3.org/1999/xlink" x="0px" y="0px" width="408px"
	 height="251px" viewBox="0 0 408 251" style="enable-background:new 0 0 408 251;" xml:space="preserve">
<style type="text/css">
	.st0{display:none;}
	.st1{display:inline;}
	.st2{fill:#FFFFFF;stroke:#000000;stroke-width:0.5;stroke-linecap:round;stroke-linejoin:round;stroke-miterlimit:10;}
	.st3{fill:none;stroke:#000000;stroke-width:0.25;stroke-linecap:round;stroke-linejoin:round;stroke-miterlimit:10;}
	.st4{fill:#FFFFFF;stroke:#000000;stroke-linecap:round;stroke-linejoin:round;stroke-miterlimit:10;}
	.st5{fill:none;stroke:#000000;stroke-width:0.5;stroke-linecap:round;stroke-linejoin:round;stroke-miterlimit:10;}
	.st6{display:inline;fill:#FFFFFF;stroke:#000000;stroke-linecap:round;stroke-linejoin:round;stroke-miterlimit:10;}
	
		.st7{display:inline;fill:none;stroke:#000000;stroke-width:0.25;stroke-linecap:round;stroke-linejoin:round;stroke-miterlimit:10;}
	.st8{fill:none;stroke:#000000;stroke-linecap:round;stroke-linejoin:round;stroke-miterlimit:10;}
	.st9{display:inline;fill:none;stroke:#000000;stroke-linecap:round;stroke-linejoin:round;stroke-miterlimit:10;}
	.st10{fill:#FFFFFF;stroke:#000000;stroke-width:0.6413;stroke-linecap:round;stroke-linejoin:round;stroke-miterlimit:10;}
	.st11{fill:none;stroke:#000000;stroke-width:0.3207;stroke-linecap:round;stroke-linejoin:round;stroke-miterlimit:10;}
	.st12{fill:none;stroke:#000000;stroke-width:0.6413;stroke-linecap:round;stroke-linejoin:round;stroke-miterlimit:10;}
	.st13{fill:#FFFFFF;stroke:#000000;stroke-width:0.25;stroke-linecap:round;stroke-linejoin:round;stroke-miterlimit:10;}
	.st14{fill:#FFFFFF;stroke:#000000;stroke-width:0.1378;stroke-linecap:round;stroke-linejoin:round;stroke-miterlimit:10;}
	.st15{fill:#FFFFFF;}
	.st16{fill:none;stroke:#010101;stroke-width:5.333154e-02;stroke-linecap:round;stroke-linejoin:round;stroke-miterlimit:10;}
	.st17{fill:#010101;}
	.st18{fill:#FFFFFF;stroke:#010101;stroke-width:8.683735e-03;stroke-miterlimit:10;}
	.st19{fill:#FFFFFF;stroke:#010101;stroke-width:9.609092e-03;stroke-miterlimit:10;}
	.st20{fill:none;stroke:#000000;stroke-miterlimit:10;}
	.st21{fill:none;stroke:#000000;stroke-width:0.25;stroke-miterlimit:10;}
	.st22{fill:#FFFFFF;stroke:#010101;stroke-width:0.2732;stroke-linecap:round;stroke-linejoin:round;stroke-miterlimit:10;}
	.st23{fill:none;stroke:#010101;stroke-width:0.1366;stroke-linecap:round;stroke-linejoin:round;stroke-miterlimit:10;}
	.st24{fill:#FFFFFF;stroke:#010101;stroke-width:0.1366;stroke-linecap:round;stroke-linejoin:round;stroke-miterlimit:10;}
	.st25{fill:#FFFFFF;stroke:#010101;stroke-width:0.2732;stroke-miterlimit:10;}
	.st26{fill:#FFFFFF;stroke:#010101;stroke-miterlimit:10;}
	.st27{fill:none;stroke:#010101;stroke-width:0.1366;stroke-miterlimit:10;}
	.st28{fill:none;stroke:#010101;stroke-width:6.553100e-02;stroke-linecap:round;stroke-linejoin:round;stroke-miterlimit:10;}
	.st29{fill:#FFFFFF;stroke:#010101;stroke-width:1.067012e-02;stroke-miterlimit:10;}
	.st30{fill:#FFFFFF;stroke:#010101;stroke-width:1.180715e-02;stroke-miterlimit:10;}
	.st31{fill:none;stroke:#010101;stroke-width:0.2732;stroke-linecap:round;stroke-linejoin:round;stroke-miterlimit:10;}
	.st32{fill:#FFFFFF;stroke:#010101;stroke-width:0.5463;stroke-miterlimit:10;}
	.st33{fill:none;stroke:#010101;stroke-miterlimit:10;}
	.st34{fill:none;stroke:#010101;stroke-width:0.5463;stroke-miterlimit:10;}
	.st35{fill:none;stroke:#010101;stroke-width:0.2732;stroke-miterlimit:10;}
	.st36{fill:#FFFFFF;stroke:#010101;stroke-width:0.5;stroke-miterlimit:10;}
	.st37{fill:#FFFFFF;stroke:#010101;stroke-width:0.2733;stroke-linecap:round;stroke-linejoin:round;stroke-miterlimit:10;}
	.st38{fill:#FFFFFF;stroke:#010101;stroke-width:0.2733;stroke-miterlimit:10;}
	.st39{fill:none;stroke:#010101;stroke-width:6.556520e-02;stroke-linecap:round;stroke-linejoin:round;stroke-miterlimit:10;}
	.st40{fill:#FFFFFF;stroke:#010101;stroke-width:1.067569e-02;stroke-miterlimit:10;}
	.st41{fill:#FFFFFF;stroke:#010101;stroke-width:1.181331e-02;stroke-miterlimit:10;}
	.st42{fill:none;stroke:#010101;stroke-width:0.2733;stroke-linecap:round;stroke-linejoin:round;stroke-miterlimit:10;}
	.st43{fill:#FFFFFF;stroke:#000000;stroke-width:0.5466;stroke-miterlimit:10;}
	.st44{fill:none;stroke:#000000;stroke-width:0.1366;stroke-miterlimit:10;}
	.st45{fill:none;stroke:#000000;stroke-width:0.2733;stroke-miterlimit:10;}
	.st46{fill:none;stroke:#000000;stroke-width:0.2733;stroke-linecap:round;stroke-linejoin:round;stroke-miterlimit:10;}
	.st47{fill:#FFFFFF;stroke:#000000;stroke-width:0.2733;stroke-linecap:round;stroke-linejoin:round;stroke-miterlimit:10;}
	.st48{fill:none;stroke:#010101;stroke-width:0.2733;stroke-miterlimit:10;}
	.st49{fill:#FFFFFF;stroke:#000000;stroke-width:0.2733;stroke-miterlimit:10;}
	.st50{fill:#FFFFFF;stroke:#010101;stroke-width:0.5466;stroke-miterlimit:10;}
	.st51{fill:none;stroke:#010101;stroke-width:0.5466;stroke-miterlimit:10;}
	.st52{fill:none;stroke:#00AEEF;stroke-width:3;stroke-linecap:round;stroke-linejoin:round;stroke-miterlimit:10;}
	.st53{fill:#00AEEF;}
</style>
<g id="Layer_1">
	<g class="st0">
		<g class="st1">
			<path class="st2" d="M357.9,235.5c-0.3,0-1.2-0.1-1.2,0.9c0,1,0,11.4,0,11.8c0,0.4,0.4,0.7,1.1,0.7c0.8,0,1-0.4,1-0.7
				s0-12.6,0-12.6H357.9z"/>
			<path class="st2" d="M363.5,235.5c0.3,0,1.2-0.1,1.2,0.9c0,1,0,11.4,0,11.8c0,0.4-0.4,0.7-1.1,0.7s-1-0.4-1-0.7s0-12.6,0-12.6
				H363.5z"/>
			<path class="st2" d="M358.8,247.1c0.3-0.1,0.6-0.7,0.7-1.2c0.1-0.5,0.4-0.8,0.7-0.9v1.9l0.5,0.5l0.5-0.5v-2
				c0.4,0.2,0.7,0.5,0.9,1.2c0.1,0.4,0.3,0.8,0.7,1v-6h-3.9V247.1z"/>
			<rect x="359.3" y="231.9" class="st2" width="3.2" height="0.5"/>
			<rect x="357.4" y="231.5" class="st2" width="7" height="0.4"/>
			<g>
				<path class="st2" d="M359,232.4c-0.6,0-1.1,0.3-1.1,1.1c0,0.8,0,2.8,0,3.5s0.4,1.5,0.5,1.9c0.2,0.4,0.2,1.9,0.2,2.3
					c0,0.4,0.7,1.3,1.4,1.3s1.2,0,1.6,0c0.6,0,1.1-0.6,1.1-1.3s0.4-1.7,0.5-2.3c0.2-0.6,0.4-1.1,0.4-1.8s0-3,0-3.4s-0.1-1.2-0.7-1.2
					C362.3,232.4,359.9,232.4,359,232.4z"/>
				<path class="st3" d="M357.9,233.4c0.8,0.4,2,0.4,2.9,0.4c0.9,0,2.3-0.1,2.9-0.3"/>
			</g>
			<path class="st4" d="M355.7,249L355.7,249c-0.5,0-0.9-0.4-0.9-0.9v-10.9c0-0.5,0.4-0.9,0.9-0.9l0,0c0.5,0,0.9,0.4,0.9,0.9v10.9
				C356.5,248.6,356.1,249,355.7,249z"/>
			<path class="st4" d="M365.8,249L365.8,249c-0.5,0-0.9-0.4-0.9-0.9v-10.9c0-0.5,0.4-0.9,0.9-0.9l0,0c0.5,0,0.9,0.4,0.9,0.9v10.9
				C366.7,248.6,366.3,249,365.8,249z"/>
		</g>
		<g class="st1">
			<path class="st2" d="M366.1,230.3c0.4,0,0.4,0,0.4,0.3c0,0.2,0,0.2,0,0.4c0,0.2,0.1,0.3-0.2,0.3c-0.3,0-12.3,0-12.3,0
				c-0.4,0.2-0.6,0.8-0.6,1.3c0,0.5,0,5.9,0,6.7c0,0.8-0.1,1.8-2.2,1.8s-25.2,0-25.2,0v-1.2c0,0,17.5,0,18.1,0c1,0,1.3-0.5,1.3-1.3
				c0-1.5,0-4.4,0-5.9c0-2,0.9-2.3,2.9-2.3C349.6,230.3,366.1,230.3,366.1,230.3z"/>
			<path class="st5" d="M354,231.3c0,0-4.9,0-5.9,0c-1.3,0-1.7,0.6-1.7,1.5c0,0.6,0,5.4,0,6.3c0,0.8-0.3,1.9-2.4,1.9"/>
		</g>
		<g class="st1">
			<path class="st2" d="M286,230.3c-0.4,0-0.4,0-0.4,0.3c0,0.2,0,0.2,0,0.4c0,0.2-0.1,0.3,0.2,0.3s12.3,0,12.3,0
				c0.4,0.2,0.6,0.8,0.6,1.3c0,0.5,0,5.9,0,6.7c0,0.8,0.1,1.8,2.2,1.8s25.2,0,25.2,0v-1.2c0,0-17.5,0-18.1,0c-1,0-1.3-0.5-1.3-1.3
				c0-1.5,0-4.4,0-5.9c0-2-0.9-2.3-2.9-2.3C302.5,230.3,286,230.3,286,230.3z"/>
			<path class="st5" d="M298,231.3c0,0,4.9,0,5.9,0c1.3,0,1.7,0.6,1.7,1.5c0,0.6,0,5.4,0,6.3c0,0.8,0.3,1.9,2.4,1.9"/>
		</g>
		<g class="st1">
			<path class="st2" d="M288.2,235.5c-0.3,0-1.2-0.1-1.2,0.9c0,1,0,11.4,0,11.8c0,0.4,0.4,0.7,1.1,0.7c0.8,0,1-0.4,1-0.7
				s0-12.6,0-12.6H288.2z"/>
			<path class="st2" d="M293.9,235.5c0.3,0,1.2-0.1,1.2,0.9c0,1,0,11.4,0,11.8c0,0.4-0.4,0.7-1.1,0.7c-0.8,0-1-0.4-1-0.7
				s0-12.6,0-12.6H293.9z"/>
			<path class="st2" d="M289.1,247.1c0.3-0.1,0.6-0.7,0.7-1.2c0.1-0.5,0.4-0.8,0.7-0.9v1.9l0.5,0.5l0.5-0.5v-2
				c0.4,0.2,0.7,0.5,0.9,1.2c0.1,0.4,0.3,0.8,0.7,1v-6h-3.9V247.1z"/>
			<rect x="289.6" y="231.9" class="st2" width="3.2" height="0.5"/>
			<rect x="287.7" y="231.5" class="st2" width="7" height="0.4"/>
			<g>
				<path class="st2" d="M289.3,232.4c-0.6,0-1.1,0.3-1.1,1.1c0,0.8,0,2.8,0,3.5s0.4,1.5,0.5,1.9c0.2,0.4,0.2,1.9,0.2,2.3
					c0,0.4,0.7,1.3,1.4,1.3s1.2,0,1.6,0c0.6,0,1.1-0.6,1.1-1.3s0.4-1.7,0.5-2.3c0.2-0.6,0.4-1.1,0.4-1.8s0-3,0-3.4s-0.1-1.2-0.7-1.2
					C292.6,232.4,290.3,232.4,289.3,232.4z"/>
				<path class="st3" d="M288.2,233.4c0.8,0.4,2,0.4,2.9,0.4c0.9,0,2.3-0.1,2.9-0.3"/>
			</g>
			<path class="st4" d="M286,249L286,249c-0.5,0-0.9-0.4-0.9-0.9v-10.9c0-0.5,0.4-0.9,0.9-0.9l0,0c0.5,0,0.9,0.4,0.9,0.9v10.9
				C286.8,248.6,286.4,249,286,249z"/>
			<path class="st4" d="M296.1,249L296.1,249c-0.5,0-0.9-0.4-0.9-0.9v-10.9c0-0.5,0.4-0.9,0.9-0.9l0,0c0.5,0,0.9,0.4,0.9,0.9v10.9
				C297,248.6,296.6,249,296.1,249z"/>
		</g>
		<g class="st1">
			<path class="st4" d="M356.8,135.5h-61.9c-1.2,0-2.2,1-2.2,2.2v72.5c0,1.2,1,2.2,2.2,2.2c0,0,7.3,0,10.3,0c1.6,0,2.9,1,2.9,2.9
				c0,1.2,0,22.1,0,22.1c0,1.2,1,2.2,2.2,2.2h31.6c1.2,0,2.2-1,2.2-2.2c0,0,0-20.3,0-22.5c0-1.6,1-2.6,2.9-2.6c1.4,0,9.8,0,9.8,0
				c1.2,0,2.2-1,2.2-2.2v-72.5C359,136.5,358,135.5,356.8,135.5z"/>
			<path class="st2" d="M354.3,138.4h-56.8c-2.1,0-2,0-2,2v67.1c0,2,0,2,2,2c0,0,5.4,0,8.2,0c3.1,0,4.9,2,4.9,5.2
				c0,1.1,0,20.2,0,20.2c0,2,0,2,2,2h26.8c2,0,2,0,2-2c0,0,0-18.1,0-20.1c0-3.2,2.3-5.2,5.1-5.2c1.3,0,7.7,0,7.7,0c2,0,2,0,2-2
				v-67.1C356.3,138.4,356.3,138.4,354.3,138.4z"/>
			<line class="st3" x1="308.1" y1="230.7" x2="344.1" y2="230.7"/>
			<line class="st3" x1="292.8" y1="152.3" x2="359" y2="152.3"/>
			<g>
				<path class="st2" d="M359,163.9c0.5,0,0.7,0.4,0.7,0.9H359V163.9z"/>
				<path class="st2" d="M359,169.6c0.5,0,0.7,0.4,0.7,0.9H359V169.6z"/>
				<path class="st2" d="M359,175.2c0.5,0,0.7,0.4,0.7,0.9H359V175.2z"/>
				<path class="st2" d="M359,180.9c0.5,0,0.7,0.4,0.7,0.9H359V180.9z"/>
				<path class="st2" d="M359,186.5c0.5,0,0.7,0.4,0.7,0.9H359V186.5z"/>
				<path class="st2" d="M359,192.2c0.5,0,0.7,0.4,0.7,0.9H359V192.2z"/>
				<path class="st2" d="M359,197.8c0.5,0,0.7,0.4,0.7,0.9H359V197.8z"/>
			</g>
			<g>
				<path class="st2" d="M292.8,164.1c-0.5,0-0.7,0.4-0.7,0.9h0.7V164.1z"/>
				<path class="st2" d="M292.8,169.8c-0.5,0-0.7,0.4-0.7,0.9h0.7V169.8z"/>
				<path class="st2" d="M292.8,175.4c-0.5,0-0.7,0.4-0.7,0.9h0.7V175.4z"/>
				<path class="st2" d="M292.8,181.1c-0.5,0-0.7,0.4-0.7,0.9h0.7V181.1z"/>
				<path class="st2" d="M292.8,186.7c-0.5,0-0.7,0.4-0.7,0.9h0.7V186.7z"/>
				<path class="st2" d="M292.8,192.4c-0.5,0-0.7,0.4-0.7,0.9h0.7V192.4z"/>
				<path class="st2" d="M292.8,198c-0.5,0-0.7,0.4-0.7,0.9h0.7V198z"/>
			</g>
			<path class="st2" d="M337.3,151L337.3,151c-0.8,0-1.4-0.6-1.4-1.4v-3.3c0-0.8,0.6-1.4,1.4-1.4l0,0c0.8,0,1.4,0.6,1.4,1.4v3.3
				C338.8,150.3,338.1,151,337.3,151z"/>
		</g>
		<rect x="320" y="128.1" class="st6" width="11.7" height="113"/>
		<line class="st7" x1="320" y1="213.9" x2="331.8" y2="213.9"/>
		<line class="st7" x1="320" y1="230.5" x2="331.8" y2="230.5"/>
		<g class="st1">
			<polygon class="st4" points="331.8,228.6 333.8,228.7 333.9,229.6 333.9,237 333.9,241.2 331.8,241.2 			"/>
			<line class="st3" x1="333.9" y1="229.6" x2="331.8" y2="229.8"/>
			<line class="st3" x1="333.9" y1="237" x2="331.8" y2="237.1"/>
		</g>
		<g class="st1">
			<polygon class="st4" points="320,228.6 318,228.7 317.9,229.6 317.9,237 317.9,241.2 320,241.2 			"/>
			<line class="st3" x1="317.9" y1="229.6" x2="320" y2="229.8"/>
			<line class="st3" x1="317.9" y1="237" x2="320" y2="237.1"/>
		</g>
		<circle class="st7" cx="323.6" cy="236.9" r="0.4"/>
		<circle class="st7" cx="328.9" cy="236.9" r="0.4"/>
		<g class="st1">
			<path class="st4" d="M332.8,140.7c0,0,30.7,0,31.7,0c1.1,0,1.8,0.4,1.8,1.2c0,0.8-0.9,1.7-2.1,1.7c-0.7,0-5,0-5,0v-0.4h-26.5
				V140.7z"/>
			<line class="st8" x1="359.2" y1="143.2" x2="365.5" y2="143.2"/>
			<path class="st3" d="M332.8,141.4c0,0,31.1,0,31.8,0s1.2,0,1.7,0.2"/>
			<path class="st3" d="M332.8,142.6c0,0,31.1,0,31.8,0s1.2,0,1.7-0.2"/>
			<path class="st3" d="M364.5,140.7c0.3,0.2,0.3,0.5,0.4,0.6c0,0.2,0.1,1,0,1.2c-0.1,0.2-0.2,0.4-0.4,0.6"/>
			<rect x="331.9" y="133.2" class="st4" width="0.8" height="16.9"/>
		</g>
		<g class="st1">
			<path class="st4" d="M319.4,140.7c0,0-30.7,0-31.7,0s-1.8,0.4-1.8,1.2c0,0.8,0.9,1.7,2.1,1.7c0.7,0,5,0,5,0v-0.4h26.5V140.7z"/>
			<line class="st8" x1="292.9" y1="143.2" x2="286.6" y2="143.2"/>
			<path class="st3" d="M319.4,141.4c0,0-31.1,0-31.8,0c-0.7,0-1.2,0-1.7,0.2"/>
			<path class="st3" d="M319.4,142.6c0,0-31.1,0-31.8,0c-0.7,0-1.2,0-1.7-0.2"/>
			<path class="st3" d="M287.6,140.7c-0.3,0.2-0.3,0.5-0.4,0.6c0,0.2-0.1,1,0,1.2s0.2,0.4,0.4,0.6"/>
			
				<rect x="319.4" y="133.2" transform="matrix(-1 -4.393342e-11 4.393342e-11 -1 639.5543 283.3184)" class="st4" width="0.8" height="16.9"/>
		</g>
		<path class="st6" d="M387.9,128.7H263c-0.5,0-1-0.5-1-1V55.1c0-0.5,0.5-1,1-1h124.9c0.6,0,1,0.5,1,1v72.7
			C388.9,128.3,388.5,128.7,387.9,128.7z"/>
		<rect x="263.6" y="55.8" class="st9" width="123.6" height="69.7"/>
		<circle class="st7" cx="385.6" cy="127.2" r="0.3"/>
	</g>
	<g>
		<g>
			<g>
				<path class="st10" d="M367.7,233.2c-0.4,0-1.6-0.2-1.6,1.1s0,14.6,0,15.1s0.5,0.9,1.5,0.9s1.2-0.5,1.2-0.9s0-16.1,0-16.1H367.7z
					"/>
				<path class="st10" d="M374.9,233.2c0.4,0,1.6-0.2,1.6,1.1c0,1.2,0,14.6,0,15.1s-0.5,0.9-1.5,0.9s-1.2-0.5-1.2-0.9s0-16.1,0-16.1
					H374.9z"/>
				<path class="st10" d="M368.8,248.1c0.4-0.1,0.8-0.9,0.8-1.5c0.1-0.6,0.5-1,0.8-1.1v2.5l0.7,0.7l0.6-0.6v-2.6
					c0.5,0.3,0.9,0.6,1.1,1.5c0.1,0.5,0.4,1,1,1.3v-7.6h-5V248.1z"/>
				<rect x="369.5" y="228.6" class="st10" width="4.1" height="0.6"/>
				<rect x="367.1" y="228.1" class="st10" width="9" height="0.5"/>
				<g>
					<path class="st10" d="M369.1,229.2c-0.8,0-1.4,0.3-1.4,1.4c0,1.1,0,3.6,0,4.5c0,0.9,0.5,2,0.7,2.5s0.3,2.4,0.3,2.9
						c0,0.5,0.9,1.6,1.8,1.6s1.6,0,2.1,0c0.8,0,1.4-0.8,1.4-1.6c0-0.9,0.5-2.2,0.7-3s0.5-1.5,0.5-2.3c0-0.9,0-3.8,0-4.4
						c0-0.6-0.1-1.5-1-1.5S370.3,229.2,369.1,229.2z"/>
					<path class="st11" d="M367.7,230.6c1.1,0.5,2.6,0.6,3.7,0.6s2.9-0.1,3.7-0.4"/>
				</g>
				<path class="st4" d="M364.8,250.5L364.8,250.5c-0.6,0-1.1-0.5-1.1-1.1v-14c0-0.6,0.5-1.1,1.1-1.1l0,0c0.6,0,1.1,0.5,1.1,1.1v14
					C365.9,250,365.4,250.5,364.8,250.5z"/>
				<path class="st4" d="M377.8,250.5L377.8,250.5c-0.6,0-1.1-0.5-1.1-1.1v-14c0-0.6,0.5-1.1,1.1-1.1l0,0c0.6,0,1.1,0.5,1.1,1.1v14
					C378.9,250,378.4,250.5,377.8,250.5z"/>
			</g>
			<g>
				<path class="st10" d="M378.2,226.6c0.5,0,0.6,0.1,0.6,0.4s0,0.2,0,0.5c0,0.3,0.1,0.4-0.3,0.4c-0.4,0-15.8,0-15.8,0
					c-0.5,0.2-0.8,1-0.8,1.6s0,7.5,0,8.6s-0.1,2.3-2.8,2.3c-2.7,0-32.3,0-32.3,0v-1.5c0,0,22.4,0,23.2,0c1.2,0,1.7-0.6,1.7-1.7
					c0-2,0-5.6,0-7.6c0-2.5,1.1-3,3.7-3C357.1,226.6,378.2,226.6,378.2,226.6z"/>
				<path class="st12" d="M362.8,227.9c0,0-6.3,0-7.5,0c-1.7,0-2.1,0.7-2.1,1.9c0,0.8,0,7,0,8s-0.4,2.5-3.1,2.5"/>
			</g>
			<g>
				<path class="st10" d="M275.4,226.6c-0.5,0-0.6,0.1-0.6,0.4s0,0.2,0,0.5c0,0.3-0.1,0.4,0.3,0.4c0.4,0,15.8,0,15.8,0
					c0.5,0.2,0.8,1,0.8,1.6s0,7.5,0,8.6s0.1,2.3,2.8,2.3s32.3,0,32.3,0v-1.5c0,0-22.4,0-23.2,0c-1.2,0-1.7-0.6-1.7-1.7
					c0-2,0-5.6,0-7.6c0-2.5-1.1-3-3.7-3C296.6,226.6,275.4,226.6,275.4,226.6z"/>
				<path class="st12" d="M290.9,227.9c0,0,6.3,0,7.5,0c1.7,0,2.1,0.7,2.1,1.9c0,0.8,0,7,0,8s0.4,2.5,3.1,2.5"/>
			</g>
			<g>
				<path class="st10" d="M278.3,233.2c-0.4,0-1.6-0.2-1.6,1.1s0,14.6,0,15.1s0.5,0.9,1.5,0.9s1.2-0.5,1.2-0.9s0-16.1,0-16.1H278.3z
					"/>
				<path class="st10" d="M285.6,233.2c0.4,0,1.6-0.2,1.6,1.1c0,1.2,0,14.6,0,15.1s-0.5,0.9-1.5,0.9s-1.2-0.5-1.2-0.9s0-16.1,0-16.1
					H285.6z"/>
				<path class="st10" d="M279.4,248.1c0.4-0.1,0.8-0.9,0.8-1.5c0.1-0.6,0.5-1,0.8-1.1v2.5l0.7,0.7l0.6-0.6v-2.6
					c0.5,0.3,0.9,0.6,1.1,1.5c0.1,0.5,0.4,1,1,1.3v-7.6h-5V248.1z"/>
				<rect x="280.1" y="228.6" class="st10" width="4.1" height="0.6"/>
				<rect x="277.7" y="228.1" class="st10" width="9" height="0.5"/>
				<g>
					<path class="st10" d="M279.7,229.2c-0.8,0-1.4,0.3-1.4,1.4c0,1.1,0,3.6,0,4.5c0,0.9,0.5,2,0.7,2.5s0.3,2.4,0.3,2.9
						c0,0.5,0.9,1.6,1.8,1.6c0.9,0,1.6,0,2.1,0c0.8,0,1.4-0.8,1.4-1.6c0-0.9,0.5-2.2,0.7-3s0.5-1.5,0.5-2.3c0-0.9,0-3.8,0-4.4
						c0-0.6-0.1-1.5-1-1.5C284,229.2,280.9,229.2,279.7,229.2z"/>
					<path class="st11" d="M278.3,230.6c1.1,0.5,2.6,0.6,3.7,0.6c1.1,0,2.9-0.1,3.7-0.4"/>
				</g>
				<path class="st4" d="M275.4,250.5L275.4,250.5c-0.6,0-1.1-0.5-1.1-1.1v-14c0-0.6,0.5-1.1,1.1-1.1l0,0c0.6,0,1.1,0.5,1.1,1.1v14
					C276.5,250,276,250.5,275.4,250.5z"/>
				<path class="st4" d="M288.5,250.5L288.5,250.5c-0.6,0-1.1-0.5-1.1-1.1v-14c0-0.6,0.5-1.1,1.1-1.1l0,0c0.6,0,1.1,0.5,1.1,1.1v14
					C289.6,250,289.1,250.5,288.5,250.5z"/>
			</g>
			<g>
				<path class="st4" d="M366.3,105h-79.4c-1.5,0-2.8,1.3-2.8,2.8v93c0,1.5,1.3,2.8,2.8,2.8c0,0,9.3,0,13.2,0c2,0,3.7,1.3,3.7,3.8
					c0,1.6,0,28.4,0,28.4c0,1.5,1.3,2.8,2.8,2.8h40.6c1.5,0,2.8-1.3,2.8-2.8c0,0,0-26.1,0-28.9c0-2,1.3-3.3,3.7-3.3
					c1.8,0,12.6,0,12.6,0c1.5,0,2.8-1.3,2.8-2.8v-93C369.1,106.3,367.9,105,366.3,105z"/>
				<path class="st2" d="M363,108.7h-72.8c-2.7,0-2.6,0-2.6,2.6v86.1c0,2.6,0,2.6,2.6,2.6c0,0,6.9,0,10.5,0c4,0,6.3,2.5,6.3,6.6
					c0,1.5,0,25.9,0,25.9c0,2.6,0,2.6,2.6,2.6H344c2.6,0,2.6,0,2.6-2.6c0,0,0-23.2,0-25.8c0-4.2,2.9-6.7,6.6-6.7c1.7,0,9.9,0,9.9,0
					c2.6,0,2.6,0,2.6-2.6v-86.1C365.6,108.7,365.6,108.7,363,108.7z"/>
				<line class="st11" x1="303.8" y1="227.1" x2="350" y2="227.1"/>
				<line class="st3" x1="284.2" y1="126.5" x2="369.1" y2="126.5"/>
				<g>
					<path class="st10" d="M369.1,141.4c0.6,0,0.9,0.5,0.9,1.1h-0.9V141.4z"/>
					<path class="st10" d="M369.1,148.7c0.6,0,0.9,0.5,0.9,1.1h-0.9V148.7z"/>
					<path class="st10" d="M369.1,155.9c0.6,0,0.9,0.5,0.9,1.1h-0.9V155.9z"/>
					<path class="st10" d="M369.1,163.1c0.6,0,0.9,0.5,0.9,1.1h-0.9V163.1z"/>
					<path class="st10" d="M369.1,170.4c0.6,0,0.9,0.5,0.9,1.1h-0.9V170.4z"/>
					<path class="st10" d="M369.1,177.6c0.6,0,0.9,0.5,0.9,1.1h-0.9V177.6z"/>
					<path class="st10" d="M369.1,184.9c0.6,0,0.9,0.5,0.9,1.1h-0.9V184.9z"/>
				</g>
				<g>
					<path class="st10" d="M284.2,141.7c-0.6,0-0.9,0.5-0.9,1.1h0.9V141.7z"/>
					<path class="st10" d="M284.2,149c-0.6,0-0.9,0.5-0.9,1.1h0.9V149z"/>
					<path class="st10" d="M284.2,156.2c-0.6,0-0.9,0.5-0.9,1.1h0.9V156.2z"/>
					<path class="st10" d="M284.2,163.4c-0.6,0-0.9,0.5-0.9,1.1h0.9V163.4z"/>
					<path class="st10" d="M284.2,170.7c-0.6,0-0.9,0.5-0.9,1.1h0.9V170.7z"/>
					<path class="st10" d="M284.2,177.9c-0.6,0-0.9,0.5-0.9,1.1h0.9V177.9z"/>
					<path class="st10" d="M284.2,185.2c-0.6,0-0.9,0.5-0.9,1.1h0.9V185.2z"/>
				</g>
				<path class="st10" d="M345.3,120.8L345.3,120.8c0,1-0.8,1.8-1.8,1.8h-4.2c-1,0-1.8-0.8-1.8-1.8v0c0-1,0.8-1.8,1.8-1.8h4.2
					C344.5,119,345.3,119.8,345.3,120.8z"/>
			</g>
			<rect x="319.1" y="95.5" class="st4" width="15.1" height="145"/>
			<line class="st11" x1="319.1" y1="205.5" x2="334.2" y2="205.5"/>
			<line class="st11" x1="319.1" y1="226.9" x2="334.2" y2="226.9"/>
			<g>
				<polygon class="st4" points="334.2,224.4 336.7,224.6 336.9,225.7 336.9,235.2 336.9,240.5 334.2,240.5 				"/>
				<line class="st11" x1="336.9" y1="225.7" x2="334.2" y2="225.9"/>
				<line class="st11" x1="336.9" y1="235.2" x2="334.2" y2="235.3"/>
			</g>
			<g>
				<polygon class="st4" points="319.1,224.4 316.5,224.6 316.4,225.7 316.4,235.2 316.4,240.5 319.1,240.5 				"/>
				<line class="st11" x1="316.4" y1="225.7" x2="319.1" y2="225.9"/>
				<line class="st11" x1="316.4" y1="235.2" x2="319.1" y2="235.3"/>
			</g>
			<circle class="st11" cx="323.7" cy="235" r="0.5"/>
			<circle class="st11" cx="330.5" cy="235" r="0.5"/>
			<g>
				<path class="st4" d="M335.5,111.6c0,0,39.3,0,40.7,0s2.4,0.5,2.4,1.5s-1.1,2.2-2.7,2.2c-0.9,0-6.4,0-6.4,0v-0.6h-34V111.6z"/>
				<line class="st8" x1="369.4" y1="114.8" x2="377.5" y2="114.8"/>
				<path class="st3" d="M335.5,112.5c0,0,39.9,0,40.8,0s1.5,0,2.2,0.2"/>
				<path class="st3" d="M335.5,114.1c0,0,39.9,0,40.8,0s1.5,0,2.2-0.2"/>
				<path class="st3" d="M376.2,111.6c0.4,0.3,0.4,0.6,0.5,0.8c0.1,0.3,0.1,1.3,0,1.6s-0.2,0.5-0.5,0.8"/>
				<rect x="334.4" y="102" class="st4" width="1.1" height="21.7"/>
			</g>
			<g>
				<path class="st4" d="M318.3,111.6c0,0-39.3,0-40.7,0c-1.4,0-2.4,0.5-2.4,1.5s1.1,2.2,2.7,2.2c0.9,0,6.4,0,6.4,0v-0.6h34V111.6z"
					/>
				<line class="st8" x1="284.3" y1="114.8" x2="276.3" y2="114.8"/>
				<path class="st3" d="M318.3,112.5c0,0-39.9,0-40.8,0s-1.5,0-2.2,0.2"/>
				<path class="st3" d="M318.3,114.1c0,0-39.9,0-40.8,0s-1.5,0-2.2-0.2"/>
				<path class="st3" d="M277.6,111.6c-0.4,0.3-0.4,0.6-0.5,0.8c-0.1,0.3-0.1,1.3,0,1.6s0.2,0.5,0.5,0.8"/>
				
					<rect x="318.3" y="102" transform="matrix(-1 -4.452717e-11 4.452717e-11 -1 637.5953 225.7261)" class="st4" width="1.1" height="21.7"/>
			</g>
			<path class="st4" d="M406.2,96.3H246c-0.7,0-1.3-0.6-1.3-1.3V1.8c0-0.7,0.6-1.3,1.3-1.3h160.2c0.7,0,1.3,0.6,1.3,1.3V95
				C407.5,95.7,406.9,96.3,406.2,96.3z"/>
			<rect x="246.8" y="2.8" class="st5" width="158.5" height="89.3"/>
			<circle class="st11" cx="403.2" cy="94.3" r="0.4"/>
		</g>
		<g>
			<rect x="355.4" y="119.2" class="st13" width="0.9" height="2.1"/>
			<rect x="356.9" y="119.2" class="st13" width="0.9" height="2.1"/>
			<g>
				<polygon class="st14" points="357.2,122.2 356.3,122.2 355.8,122.8 355.8,123.6 356.3,124.2 357.2,124.2 357.8,123.6 
					357.8,122.8 				"/>
				<circle class="st13" cx="356.7" cy="123.2" r="0.7"/>
			</g>
			<g>
				<g>
					<g>
						<g>
							<path class="st15" d="M358.1,125.6c0,0,0.1-0.1,0.1-0.2v-0.2c0-0.1,0-0.1-0.1-0.1h-2.7c-0.1,0-0.1,0-0.1,0.1v0.2
								c0,0.1,0,0.1,0.1,0.2l0.3,0.3c0,0,0.1,0.1,0.2,0.1h1.7c0.1,0,0.1,0,0.2-0.1L358.1,125.6z"/>
							<path class="st16" d="M358.1,125.6c0,0,0.1-0.1,0.1-0.2v-0.2c0-0.1,0-0.1-0.1-0.1h-2.7c-0.1,0-0.1,0-0.1,0.1v0.2
								c0,0.1,0,0.1,0.1,0.2l0.3,0.3c0,0,0.1,0.1,0.2,0.1h1.7c0.1,0,0.1,0,0.2-0.1L358.1,125.6z"/>
						</g>
					</g>
				</g>
				<rect x="355.7" y="125.3" class="st17" width="2.1" height="0.2"/>
				<rect x="355.8" y="125.3" class="st18" width="0.1" height="0"/>
				<rect x="356" y="125.3" class="st18" width="0.1" height="0"/>
				<rect x="356.2" y="125.3" class="st18" width="0.1" height="0"/>
				<rect x="356.4" y="125.3" class="st18" width="0.1" height="0"/>
				<rect x="356.6" y="125.3" class="st18" width="0.1" height="0"/>
				<rect x="356.8" y="125.3" class="st18" width="0.1" height="0"/>
				<rect x="357" y="125.3" class="st18" width="0.1" height="0"/>
				<rect x="357.2" y="125.3" class="st18" width="0.1" height="0"/>
				<rect x="357.4" y="125.3" class="st18" width="0.1" height="0"/>
				<rect x="357.6" y="125.3" class="st18" width="0.1" height="0"/>
				<rect x="357.5" y="125.5" class="st19" width="0.1" height="0"/>
				<rect x="357.3" y="125.5" class="st19" width="0.1" height="0"/>
				<rect x="357.1" y="125.5" class="st19" width="0.1" height="0"/>
				<rect x="356.9" y="125.5" class="st19" width="0.1" height="0"/>
				<rect x="356.7" y="125.5" class="st19" width="0.1" height="0"/>
				<rect x="356.5" y="125.5" class="st19" width="0.1" height="0"/>
				<rect x="356.3" y="125.5" class="st19" width="0.1" height="0"/>
				<rect x="356.1" y="125.5" class="st19" width="0.1" height="0"/>
				<rect x="355.9" y="125.5" class="st19" width="0.1" height="0"/>
			</g>
		</g>
	</g>
</g>
<g id="Layer_2" class="st0">
	<g class="st1">
		<g>
			<rect x="21.3" y="234.2" class="st4" width="2.4" height="0.3"/>
			<path class="st4" d="M21.3,234.5c-0.2,0.1-0.1,0.2-0.1,0.9h2.7c0-0.5,0.1-0.9-0.2-0.9"/>
			<g>
				<path class="st4" d="M21.1,235.4c0,0-0.6,0-0.8,0c-0.2,0-0.2,0.1-0.2,0.3s0,1.5,0,1.5h4.8c0,0,0-1.3,0-1.5c0-0.2,0-0.3-0.3-0.3
					s-0.7,0-0.7,0H21.1z"/>
				<line class="st3" x1="20.1" y1="236.4" x2="24.9" y2="236.4"/>
				<line class="st3" x1="22.5" y1="236.4" x2="22.5" y2="236.8"/>
			</g>
			<g>
				<path class="st2" d="M20.4,237.3c0.5-0.4,1.4-0.5,2-0.5s1.7,0.1,2.1,0.5V248c-0.4-0.4-0.8-0.8-1-1.6c-0.1-0.5-0.6-0.7-1.1-0.7
					c-0.5,0-1.1,0.1-1.1,0.7c-0.1,0.8-0.4,1.2-0.8,1.7L20.4,237.3z"/>
				<path class="st3" d="M20.4,238.3c0.1,0,4.1,0,4.1,0"/>
				<path class="st3" d="M21,238.3c0.1-0.5,0.4-0.9,1.5-0.9s1.4,0.4,1.5,0.9"/>
				<path class="st3" d="M21.5,238.3c0.4,0.4,0.9,0.9,0.9,2.3h0.3c0-0.8,0.4-2.1,0.9-2.3"/>
				<path class="st3" d="M24.3,238.3c-0.3,0.3-0.8,1.4-0.8,3.1"/>
				<path class="st3" d="M20.6,238.3c0.3,0.3,0.8,1.4,0.8,3.1"/>
				<line class="st3" x1="21.2" y1="237.9" x2="20.4" y2="237.3"/>
				<line class="st3" x1="20.9" y1="237" x2="21.4" y2="237.6"/>
				<line class="st3" x1="23.8" y1="237.9" x2="24.6" y2="237.3"/>
				<line class="st3" x1="24.1" y1="237" x2="23.6" y2="237.6"/>
				<line class="st3" x1="21.4" y1="242" x2="21.4" y2="246.1"/>
				<line class="st3" x1="23.5" y1="246.2" x2="23.5" y2="241.8"/>
				<line class="st13" x1="22.5" y1="237.4" x2="22.5" y2="236.8"/>
			</g>
			<g>
				<path class="st4" d="M22,247.8h0.9c0,0,0-1,0-1.5s0.7-1.5,0.7-2.3s0-1.2,0-1.6s0.3-0.9,1-0.9c0.4,0,0.4-0.2,0.4-0.4
					s-0.2-0.5-0.6-0.6c-0.6-0.2-3.2-0.2-3.9,0c-0.3,0.1-0.6,0.2-0.6,0.4c0,0.4,0,0.5,0.7,0.5c0.7,0,0.8,0.4,0.8,0.8
					c0,0.4,0,1.2,0,1.6s0.6,1.8,0.6,2.3S22,247.8,22,247.8z"/>
				<path class="st3" d="M19.9,241.2c0.5-0.2,1-0.1,1.4-0.1c0.5,0,0.7,0.3,0.7,0.8c0,0.4,0.2,3.2,0.2,5.9"/>
				<path class="st3" d="M25,241.2c-0.5-0.2-1-0.1-1.4-0.1c-0.5,0-0.7,0.3-0.7,0.8c0,0.4-0.2,3.2-0.2,5.9"/>
				<path class="st3" d="M21.8,241.2c0.3-0.1,1.1-0.1,1.4,0"/>
				<line class="st3" x1="22.1" y1="241.9" x2="22.9" y2="241.9"/>
				<line class="st3" x1="22.2" y1="243.6" x2="22.8" y2="243.6"/>
				<line class="st3" x1="22.2" y1="244.5" x2="22.7" y2="244.5"/>
				<path class="st3" d="M24,241c-0.6,0.4-0.6,0.2-0.6,4"/>
				<path class="st3" d="M21.1,241.1c0.6,0.4,0.6,0.2,0.6,4"/>
				<path class="st3" d="M22,240.4c-0.6,0-1.3,0.4-1.3,0.6"/>
				<path class="st3" d="M23,240.4c0.7,0.1,1.3,0.3,1.3,0.6"/>
			</g>
			<g>
				<path class="st4" d="M19.8,237c-0.4,0-1,0.1-1,0.4c0,0.3,0,11.1,0,11.3c0,0.2,0.4,0.4,1,0.4s0.9-0.2,0.9-0.3
					c0-0.2,0-11.1,0-11.3C20.7,237.1,20.2,237,19.8,237z"/>
				<line class="st3" x1="19.1" y1="237.1" x2="19.1" y2="248.9"/>
				<line class="st3" x1="20.4" y1="248.9" x2="20.4" y2="237.1"/>
			</g>
			<g>
				<path class="st4" d="M25.3,237c-0.4,0-1,0.1-1,0.4c0,0.3,0,11.1,0,11.3c0,0.2,0.4,0.4,1,0.4c0.6,0,0.9-0.2,0.9-0.3
					c0-0.2,0-11.1,0-11.3C26.2,237.1,25.7,237,25.3,237z"/>
				<line class="st3" x1="24.6" y1="237.1" x2="24.6" y2="248.9"/>
				<line class="st3" x1="25.9" y1="248.9" x2="25.9" y2="237.1"/>
			</g>
		</g>
		<g>
			<rect x="9.1" y="234.3" class="st4" width="2.4" height="0.3"/>
			<path class="st4" d="M9.1,234.5c-0.2,0.1-0.1,0.2-0.1,0.9h2.7c0-0.5,0.1-0.9-0.2-0.9"/>
			<g>
				<path class="st4" d="M8.9,235.5c0,0-0.6,0-0.8,0s-0.2,0.1-0.2,0.3s0,1.5,0,1.5h4.8c0,0,0-1.3,0-1.5c0-0.2,0-0.3-0.3-0.3
					c-0.3,0-0.7,0-0.7,0H8.9z"/>
				<line class="st3" x1="7.9" y1="236.4" x2="12.7" y2="236.4"/>
				<line class="st3" x1="10.3" y1="236.4" x2="10.3" y2="236.9"/>
			</g>
			<g>
				<path class="st2" d="M8.2,237.4c0.5-0.4,1.4-0.5,2-0.5c0.6,0,1.7,0.1,2.1,0.5v10.7c-0.4-0.4-0.8-0.8-1-1.6
					c-0.1-0.5-0.6-0.7-1.1-0.7c-0.5,0-1.1,0.1-1.1,0.7c-0.1,0.8-0.4,1.2-0.8,1.7L8.2,237.4z"/>
				<path class="st3" d="M8.2,238.4c0.1,0,4.1,0,4.1,0"/>
				<path class="st3" d="M8.8,238.4c0.1-0.5,0.4-0.9,1.5-0.9s1.4,0.4,1.5,0.9"/>
				<path class="st3" d="M9.3,238.4c0.4,0.4,0.9,0.9,0.9,2.3h0.3c0-0.8,0.4-2.1,0.9-2.3"/>
				<path class="st3" d="M12.1,238.4c-0.3,0.3-0.8,1.4-0.8,3.1"/>
				<path class="st3" d="M8.4,238.4c0.3,0.3,0.8,1.4,0.8,3.1"/>
				<line class="st3" x1="8.9" y1="237.9" x2="8.2" y2="237.4"/>
				<line class="st3" x1="8.7" y1="237.1" x2="9.2" y2="237.7"/>
				<line class="st3" x1="11.6" y1="237.9" x2="12.4" y2="237.3"/>
				<line class="st3" x1="11.8" y1="237.1" x2="11.4" y2="237.7"/>
				<line class="st3" x1="9.2" y1="242.1" x2="9.2" y2="246.2"/>
				<line class="st3" x1="11.3" y1="246.3" x2="11.3" y2="241.9"/>
				<line class="st13" x1="10.3" y1="237.5" x2="10.3" y2="236.9"/>
			</g>
			<g>
				<path class="st4" d="M9.8,247.9h0.9c0,0,0-1,0-1.5s0.7-1.5,0.7-2.3s0-1.2,0-1.6s0.3-0.9,1-0.9c0.4,0,0.4-0.2,0.4-0.4
					s-0.2-0.5-0.6-0.6c-0.6-0.2-3.2-0.2-3.9,0c-0.3,0.1-0.6,0.2-0.6,0.4c0,0.4,0,0.5,0.7,0.5c0.7,0,0.8,0.4,0.8,0.8
					c0,0.4,0,1.2,0,1.6s0.6,1.8,0.6,2.3S9.8,247.9,9.8,247.9z"/>
				<path class="st3" d="M7.7,241.3c0.5-0.2,1-0.1,1.4-0.1c0.5,0,0.7,0.3,0.7,0.8c0,0.4,0.2,3.2,0.2,5.9"/>
				<path class="st3" d="M12.8,241.2c-0.5-0.2-1-0.1-1.4-0.1c-0.5,0-0.7,0.3-0.7,0.8c0,0.4-0.2,3.2-0.2,5.9"/>
				<path class="st3" d="M9.6,241.3c0.3-0.1,1.1-0.1,1.4,0"/>
				<line class="st3" x1="9.8" y1="242" x2="10.7" y2="242"/>
				<line class="st3" x1="10" y1="243.7" x2="10.6" y2="243.7"/>
				<line class="st3" x1="10" y1="244.5" x2="10.5" y2="244.5"/>
				<path class="st3" d="M11.8,241.1c-0.6,0.4-0.6,0.2-0.6,4"/>
				<path class="st3" d="M8.9,241.2c0.6,0.4,0.6,0.2,0.6,4"/>
				<path class="st3" d="M9.7,240.5c-0.6,0-1.3,0.4-1.3,0.6"/>
				<path class="st3" d="M10.8,240.5c0.7,0.1,1.3,0.3,1.3,0.6"/>
			</g>
			<g>
				<path class="st4" d="M7.6,237.1c-0.4,0-1,0.1-1,0.4c0,0.3,0,11.1,0,11.3c0,0.2,0.4,0.4,1,0.4s0.9-0.2,0.9-0.3
					c0-0.2,0-11.1,0-11.3C8.5,237.2,8,237.1,7.6,237.1z"/>
				<line class="st3" x1="6.8" y1="237.2" x2="6.8" y2="249"/>
				<line class="st3" x1="8.2" y1="249" x2="8.2" y2="237.2"/>
			</g>
			<g>
				<path class="st4" d="M13.1,237.1c-0.4,0-1,0.1-1,0.4c0,0.3,0,11.1,0,11.3c0,0.2,0.4,0.4,1,0.4c0.6,0,0.9-0.2,0.9-0.3
					c0-0.2,0-11.1,0-11.3C14,237.2,13.5,237.1,13.1,237.1z"/>
				<line class="st3" x1="12.4" y1="237.2" x2="12.4" y2="249"/>
				<line class="st3" x1="13.7" y1="249" x2="13.7" y2="237.2"/>
			</g>
		</g>
		<g>
			<rect x="41.1" y="234.4" class="st4" width="2.4" height="0.3"/>
			<path class="st4" d="M41.1,234.7c-0.2,0.1-0.1,0.2-0.1,0.9h2.7c0-0.5,0.1-0.9-0.2-0.9"/>
			<g>
				<path class="st4" d="M41,235.6c0,0-0.6,0-0.8,0s-0.2,0.1-0.2,0.3s0,1.5,0,1.5h4.8c0,0,0-1.3,0-1.5c0-0.2,0-0.3-0.3-0.3
					s-0.7,0-0.7,0H41z"/>
				<line class="st3" x1="39.9" y1="236.6" x2="44.7" y2="236.6"/>
				<line class="st3" x1="42.3" y1="236.6" x2="42.3" y2="237"/>
			</g>
			<g>
				<path class="st2" d="M40.3,237.5c0.5-0.4,1.4-0.5,2-0.5s1.7,0.1,2.1,0.5v10.7c-0.4-0.4-0.8-0.8-1-1.6c-0.1-0.5-0.6-0.7-1.1-0.7
					s-1.1,0.1-1.1,0.7c-0.1,0.8-0.4,1.2-0.8,1.7L40.3,237.5z"/>
				<path class="st3" d="M40.3,238.5c0.1,0,4.1,0,4.1,0"/>
				<path class="st3" d="M40.8,238.5c0.1-0.5,0.4-0.9,1.5-0.9c1.1,0,1.4,0.4,1.5,0.9"/>
				<path class="st3" d="M41.3,238.5c0.4,0.4,0.9,0.9,0.9,2.3h0.3c0-0.8,0.4-2.1,0.9-2.3"/>
				<path class="st3" d="M44.2,238.5c-0.3,0.3-0.8,1.4-0.8,3.1"/>
				<path class="st3" d="M40.4,238.5c0.3,0.3,0.8,1.4,0.8,3.1"/>
				<line class="st3" x1="41" y1="238.1" x2="40.3" y2="237.5"/>
				<line class="st3" x1="40.8" y1="237.2" x2="41.2" y2="237.9"/>
				<line class="st3" x1="43.7" y1="238.1" x2="44.4" y2="237.5"/>
				<line class="st3" x1="43.9" y1="237.2" x2="43.4" y2="237.9"/>
				<line class="st3" x1="41.2" y1="242.2" x2="41.2" y2="246.4"/>
				<line class="st3" x1="43.4" y1="246.4" x2="43.4" y2="242.1"/>
				<line class="st13" x1="42.3" y1="237.7" x2="42.3" y2="237"/>
			</g>
			<g>
				<path class="st4" d="M41.9,248.1h0.9c0,0,0-1,0-1.5s0.7-1.5,0.7-2.3s0-1.2,0-1.6s0.3-0.9,1-0.9c0.4,0,0.4-0.2,0.4-0.4
					s-0.2-0.5-0.6-0.6c-0.6-0.2-3.2-0.2-3.9,0c-0.3,0.1-0.6,0.2-0.6,0.4c0,0.4,0,0.5,0.7,0.5c0.7,0,0.8,0.4,0.8,0.8
					c0,0.4,0,1.2,0,1.6s0.6,1.8,0.6,2.3S41.9,248.1,41.9,248.1z"/>
				<path class="st3" d="M39.8,241.5c0.5-0.2,1-0.1,1.4-0.1c0.5,0,0.7,0.3,0.7,0.8c0,0.4,0.2,3.2,0.2,5.9"/>
				<path class="st3" d="M44.9,241.4c-0.5-0.2-1-0.1-1.4-0.1c-0.5,0-0.7,0.3-0.7,0.8c0,0.4-0.2,3.2-0.2,5.9"/>
				<path class="st3" d="M41.6,241.4c0.3-0.1,1.1-0.1,1.4,0"/>
				<line class="st3" x1="41.9" y1="242.1" x2="42.7" y2="242.1"/>
				<line class="st3" x1="42" y1="243.8" x2="42.6" y2="243.8"/>
				<line class="st3" x1="42.1" y1="244.7" x2="42.6" y2="244.7"/>
				<path class="st3" d="M43.8,241.3c-0.6,0.4-0.6,0.2-0.6,4"/>
				<path class="st3" d="M41,241.3c0.6,0.4,0.6,0.2,0.6,4"/>
				<path class="st3" d="M41.8,240.7c-0.6,0-1.3,0.4-1.3,0.6"/>
				<path class="st3" d="M42.9,240.7c0.7,0.1,1.3,0.3,1.3,0.6"/>
			</g>
			<g>
				<path class="st4" d="M39.7,237.2c-0.4,0-1,0.1-1,0.4c0,0.3,0,11.1,0,11.3c0,0.2,0.4,0.4,1,0.4s0.9-0.2,0.9-0.3
					c0-0.2,0-11.1,0-11.3C40.5,237.4,40.1,237.2,39.7,237.2z"/>
				<line class="st3" x1="38.9" y1="237.3" x2="38.9" y2="249.2"/>
				<line class="st3" x1="40.3" y1="249.2" x2="40.3" y2="237.3"/>
			</g>
			<g>
				<path class="st4" d="M45.2,237.2c-0.4,0-1,0.1-1,0.4c0,0.3,0,11.1,0,11.3c0,0.2,0.4,0.4,1,0.4s0.9-0.2,0.9-0.3
					c0-0.2,0-11.1,0-11.3C46,237.4,45.6,237.2,45.2,237.2z"/>
				<line class="st3" x1="44.4" y1="237.3" x2="44.4" y2="249.2"/>
				<line class="st3" x1="45.8" y1="249.2" x2="45.8" y2="237.3"/>
			</g>
		</g>
		<g>
			<rect x="61" y="234.2" class="st4" width="2.4" height="0.3"/>
			<path class="st4" d="M61,234.5c-0.2,0.1-0.1,0.2-0.1,0.9h2.7c0-0.5,0.1-0.9-0.2-0.9"/>
			<g>
				<path class="st4" d="M60.9,235.4c0,0-0.6,0-0.8,0s-0.2,0.1-0.2,0.3s0,1.5,0,1.5h4.8c0,0,0-1.3,0-1.5c0-0.2,0-0.3-0.3-0.3
					s-0.7,0-0.7,0H60.9z"/>
				<line class="st3" x1="59.9" y1="236.4" x2="64.7" y2="236.4"/>
				<line class="st3" x1="62.3" y1="236.4" x2="62.3" y2="236.9"/>
			</g>
			<g>
				<path class="st2" d="M60.2,237.3c0.5-0.4,1.4-0.5,2-0.5s1.7,0.1,2.1,0.5v10.7c-0.4-0.4-0.8-0.8-1-1.6c-0.1-0.5-0.6-0.7-1.1-0.7
					c-0.5,0-1.1,0.1-1.1,0.7c-0.1,0.8-0.4,1.2-0.8,1.7L60.2,237.3z"/>
				<path class="st3" d="M60.2,238.3c0.1,0,4.1,0,4.1,0"/>
				<path class="st3" d="M60.8,238.3c0.1-0.5,0.4-0.9,1.5-0.9c1.1,0,1.4,0.4,1.5,0.9"/>
				<path class="st3" d="M61.3,238.3c0.4,0.4,0.9,0.9,0.9,2.3h0.3c0-0.8,0.4-2.1,0.9-2.3"/>
				<path class="st3" d="M64.1,238.3c-0.3,0.3-0.8,1.4-0.8,3.1"/>
				<path class="st3" d="M60.3,238.3c0.3,0.3,0.8,1.4,0.8,3.1"/>
				<line class="st3" x1="60.9" y1="237.9" x2="60.2" y2="237.3"/>
				<line class="st3" x1="60.7" y1="237.1" x2="61.2" y2="237.7"/>
				<line class="st3" x1="63.6" y1="237.9" x2="64.3" y2="237.3"/>
				<line class="st3" x1="63.8" y1="237" x2="63.4" y2="237.7"/>
				<line class="st3" x1="61.2" y1="242.1" x2="61.2" y2="246.2"/>
				<line class="st3" x1="63.3" y1="246.2" x2="63.3" y2="241.9"/>
				<line class="st13" x1="62.3" y1="237.5" x2="62.3" y2="236.9"/>
			</g>
			<g>
				<path class="st4" d="M61.8,247.9h0.9c0,0,0-1,0-1.5c0-0.5,0.7-1.5,0.7-2.3s0-1.2,0-1.6s0.3-0.9,1-0.9c0.4,0,0.4-0.2,0.4-0.4
					s-0.2-0.5-0.6-0.6c-0.6-0.2-3.2-0.2-3.9,0c-0.3,0.1-0.6,0.2-0.6,0.4c0,0.4,0,0.5,0.7,0.5c0.7,0,0.8,0.4,0.8,0.8
					c0,0.4,0,1.2,0,1.6c0,0.5,0.6,1.8,0.6,2.3C61.8,246.9,61.8,247.9,61.8,247.9z"/>
				<path class="st3" d="M59.7,241.3c0.5-0.2,1-0.1,1.4-0.1c0.5,0,0.7,0.3,0.7,0.8c0,0.4,0.2,3.2,0.2,5.9"/>
				<path class="st3" d="M64.8,241.2c-0.5-0.2-1-0.1-1.4-0.1c-0.5,0-0.7,0.3-0.7,0.8c0,0.4-0.2,3.2-0.2,5.9"/>
				<path class="st3" d="M61.5,241.2c0.3-0.1,1.1-0.1,1.4,0"/>
				<line class="st3" x1="61.8" y1="241.9" x2="62.7" y2="241.9"/>
				<line class="st3" x1="61.9" y1="243.6" x2="62.6" y2="243.6"/>
				<line class="st3" x1="62" y1="244.5" x2="62.5" y2="244.5"/>
				<path class="st3" d="M63.7,241.1c-0.6,0.4-0.6,0.2-0.6,4"/>
				<path class="st3" d="M60.9,241.1c0.6,0.4,0.6,0.2,0.6,4"/>
				<path class="st3" d="M61.7,240.5c-0.6,0-1.3,0.4-1.3,0.6"/>
				<path class="st3" d="M62.8,240.5c0.7,0.1,1.3,0.3,1.3,0.6"/>
			</g>
			<g>
				<path class="st4" d="M59.6,237c-0.4,0-1,0.1-1,0.4c0,0.3,0,11.1,0,11.3c0,0.2,0.4,0.4,1,0.4s0.9-0.2,0.9-0.3
					c0-0.2,0-11.1,0-11.3S60,237,59.6,237z"/>
				<line class="st3" x1="58.8" y1="237.1" x2="58.8" y2="249"/>
				<line class="st3" x1="60.2" y1="249" x2="60.2" y2="237.1"/>
			</g>
			<g>
				<path class="st4" d="M65.1,237c-0.4,0-1,0.1-1,0.4c0,0.3,0,11.1,0,11.3c0,0.2,0.4,0.4,1,0.4s0.9-0.2,0.9-0.3
					c0-0.2,0-11.1,0-11.3S65.5,237,65.1,237z"/>
				<line class="st3" x1="64.3" y1="237.1" x2="64.3" y2="249"/>
				<line class="st3" x1="65.7" y1="249" x2="65.7" y2="237.1"/>
			</g>
		</g>
		<g>
			<rect x="73.2" y="234.3" class="st4" width="2.4" height="0.3"/>
			<path class="st4" d="M73.2,234.6c-0.2,0.1-0.1,0.2-0.1,0.9h2.7c0-0.5,0.1-0.9-0.2-0.9"/>
			<g>
				<path class="st4" d="M73,235.5c0,0-0.6,0-0.8,0c-0.2,0-0.2,0.1-0.2,0.3c0,0.2,0,1.5,0,1.5h4.8c0,0,0-1.3,0-1.5
					c0-0.2,0-0.3-0.3-0.3s-0.7,0-0.7,0H73z"/>
				<line class="st3" x1="72" y1="236.5" x2="76.8" y2="236.5"/>
				<line class="st3" x1="74.4" y1="236.5" x2="74.4" y2="237"/>
			</g>
			<g>
				<path class="st2" d="M72.3,237.4c0.5-0.4,1.4-0.5,2-0.5s1.7,0.1,2.1,0.5v10.7c-0.4-0.4-0.8-0.8-1-1.6c-0.1-0.5-0.6-0.7-1.1-0.7
					c-0.5,0-1.1,0.1-1.1,0.7c-0.1,0.8-0.4,1.2-0.8,1.7L72.3,237.4z"/>
				<path class="st3" d="M72.4,238.5c0.1,0,4.1,0,4.1,0"/>
				<path class="st3" d="M72.9,238.5c0.1-0.5,0.4-0.9,1.5-0.9s1.4,0.4,1.5,0.9"/>
				<path class="st3" d="M73.4,238.5c0.4,0.4,0.9,0.9,0.9,2.3h0.3c0-0.8,0.4-2.1,0.9-2.3"/>
				<path class="st3" d="M76.3,238.5c-0.3,0.3-0.8,1.4-0.8,3.1"/>
				<path class="st3" d="M72.5,238.5c0.3,0.3,0.8,1.4,0.8,3.1"/>
				<line class="st3" x1="73.1" y1="238" x2="72.3" y2="237.4"/>
				<line class="st3" x1="72.9" y1="237.2" x2="73.3" y2="237.8"/>
				<line class="st3" x1="75.8" y1="238" x2="76.5" y2="237.4"/>
				<line class="st3" x1="76" y1="237.2" x2="75.5" y2="237.8"/>
				<line class="st3" x1="73.3" y1="242.2" x2="73.3" y2="246.3"/>
				<line class="st3" x1="75.4" y1="246.3" x2="75.4" y2="242"/>
				<line class="st13" x1="74.4" y1="237.6" x2="74.4" y2="237"/>
			</g>
			<g>
				<path class="st4" d="M74,248h0.9c0,0,0-1,0-1.5c0-0.5,0.7-1.5,0.7-2.3s0-1.2,0-1.6s0.3-0.9,1-0.9c0.4,0,0.4-0.2,0.4-0.4
					s-0.2-0.5-0.6-0.6c-0.6-0.2-3.2-0.2-3.9,0c-0.3,0.1-0.6,0.2-0.6,0.4c0,0.4,0,0.5,0.7,0.5c0.7,0,0.8,0.4,0.8,0.8
					c0,0.4,0,1.2,0,1.6s0.6,1.8,0.6,2.3C74,247,74,248,74,248z"/>
				<path class="st3" d="M71.9,241.4c0.5-0.2,1-0.1,1.4-0.1c0.5,0,0.7,0.3,0.7,0.8c0,0.4,0.2,3.2,0.2,5.9"/>
				<path class="st3" d="M76.9,241.3c-0.5-0.2-1-0.1-1.4-0.1c-0.5,0-0.7,0.3-0.7,0.8c0,0.4-0.2,3.2-0.2,5.9"/>
				<path class="st3" d="M73.7,241.4c0.3-0.1,1.1-0.1,1.4,0"/>
				<line class="st3" x1="74" y1="242.1" x2="74.8" y2="242.1"/>
				<line class="st3" x1="74.1" y1="243.7" x2="74.7" y2="243.7"/>
				<line class="st3" x1="74.1" y1="244.6" x2="74.7" y2="244.6"/>
				<path class="st3" d="M75.9,241.2c-0.6,0.4-0.6,0.2-0.6,4"/>
				<path class="st3" d="M73,241.2c0.6,0.4,0.6,0.2,0.6,4"/>
				<path class="st3" d="M73.9,240.6c-0.6,0-1.3,0.4-1.3,0.6"/>
				<path class="st3" d="M74.9,240.6c0.7,0.1,1.3,0.3,1.3,0.6"/>
			</g>
			<g>
				<path class="st4" d="M71.7,237.2c-0.4,0-1,0.1-1,0.4c0,0.3,0,11.1,0,11.3s0.4,0.4,1,0.4s0.9-0.2,0.9-0.3c0-0.2,0-11.1,0-11.3
					C72.6,237.3,72.2,237.2,71.7,237.2z"/>
				<line class="st3" x1="71" y1="237.3" x2="71" y2="249.1"/>
				<line class="st3" x1="72.3" y1="249.1" x2="72.3" y2="237.3"/>
			</g>
			<g>
				<path class="st4" d="M77.3,237.2c-0.4,0-1,0.1-1,0.4c0,0.3,0,11.1,0,11.3s0.4,0.4,1,0.4s0.9-0.2,0.9-0.3c0-0.2,0-11.1,0-11.3
					C78.1,237.3,77.7,237.2,77.3,237.2z"/>
				<line class="st3" x1="76.5" y1="237.3" x2="76.5" y2="249.1"/>
				<line class="st3" x1="77.9" y1="249.1" x2="77.9" y2="237.3"/>
			</g>
		</g>
		<path class="st4" d="M59.5,117.7H25.1c-1.1,0-2-0.9-2-2V87.7c0-1.1,0.9-2,2-2h34.4c1.1,0,2,0.9,2,2v27.9
			C61.5,116.8,60.6,117.7,59.5,117.7z"/>
		<path class="st3" d="M59.1,117.3H25.5c-1.1,0-2-0.9-2-2V88.1c0-1.1,0.9-2,2-2h33.6c1.1,0,2,0.9,2,2v27.2
			C61.1,116.4,60.2,117.3,59.1,117.3z"/>
		<path class="st3" d="M61,85.7c-0.2,0.2-0.2,0.3-0.2,0.4"/>
		<path class="st3" d="M61.5,86.3c-0.1,0.2-0.3,0.2-0.4,0.2"/>
		<path class="st3" d="M61.5,117.1c-0.2-0.2-0.3-0.2-0.4-0.2"/>
		<path class="st3" d="M61,117.7c-0.1-0.1-0.2-0.3-0.2-0.4"/>
		<path class="st3" d="M24,117.3c0,0.2-0.1,0.3-0.3,0.4"/>
		<path class="st3" d="M23.5,116.9c-0.2,0-0.3,0-0.4,0.1"/>
		<path class="st3" d="M24.1,86.1c0-0.1-0.1-0.3-0.1-0.4"/>
		<path class="st3" d="M23.5,86.7c-0.2,0-0.3-0.1-0.4-0.1"/>
		<g>
			<path class="st4" d="M21.6,92.3c-0.7,0-3.9,0.2-3.9,4.4s0,8.2,0,9.9c0,2.9,1.3,4.7,3.6,4.7c1.5,0,7.6,0,9.2,0
				c1.3,0,1.4-0.3,1.4-1c0-0.8-0.1-1-1.4-1c-1.3,0-8,0-8.8,0c-1.5,0-2.2-0.7-2.2-2.6c0-1.3,0-9,0-10.1c0-1.4,0.5-2.5,2-2.4
				c1.3,0,8.2,0,9.1,0c1.2,0,1.4-0.2,1.4-1c0-0.7-0.1-1-1.4-1C29.6,92.3,22.9,92.3,21.6,92.3z"/>
			<path class="st3" d="M21.5,109.3c0.5,0.5,0.5,1.4-0.1,2"/>
			<path class="st3" d="M19.5,106.8c-0.3-0.3-1.5-0.4-1.8,0"/>
			<path class="st3" d="M21.5,92.3c0.5,0.5,0.5,1.4-0.1,2"/>
			<path class="st3" d="M19.5,96.9c-0.3-0.3-1.5-0.4-1.8,0"/>
		</g>
		<g>
			<path class="st4" d="M63.1,111.4c0.7,0,3.9-0.2,3.9-4.4c0-4.3,0-8.2,0-9.9c0-2.9-1.3-4.7-3.6-4.7c-1.5,0-7.6,0-9.2,0
				c-1.3,0-1.4,0.3-1.4,1c0,0.8,0.1,1,1.4,1s8,0,8.8,0c1.5,0,2.2,0.7,2.2,2.6c0,1.3,0,9,0,10.1c0,1.4-0.5,2.5-2,2.4
				c-1.3,0-8.2,0-9.1,0c-1.2,0-1.4,0.2-1.4,1c0,0.7,0.1,1,1.4,1C55.1,111.4,61.9,111.4,63.1,111.4z"/>
			<path class="st3" d="M63.2,94.4c-0.5-0.5-0.5-1.4,0.1-2"/>
			<path class="st3" d="M65.2,97c0.3,0.3,1.5,0.4,1.8,0"/>
			<path class="st3" d="M63.2,111.4c-0.5-0.5-0.5-1.4,0.1-2"/>
			<path class="st3" d="M65.2,106.9c0.3,0.3,1.5,0.4,1.8,0"/>
		</g>
		<rect x="34.9" y="96.6" class="st4" width="14.6" height="12.8"/>
		<g>
			<path class="st4" d="M63.7,152.2c0,0,0.1-0.1,0,0.5c-0.7,3-4.5,3.7-6.6,4c-6.4,1.1-23.8,0.8-29.6,0c-2.9-0.4-5.9-1.5-6.5-3.9
				c-0.1-0.4-0.1-0.8-0.1-1l1.9-0.3c0.2,0.5-0.1,0.5,0.5,1c1.5,1.4,3,1.6,4.6,1.8c9.6,1.3,24.4,0.7,28.8,0c2.3-0.3,3.6-0.8,4.5-1.9
				c0.8-1.1,0.4-0.6,1.1-0.6S63.7,152,63.7,152.2z"/>
			<path class="st3" d="M63.8,152.5c-0.3,0.5-0.8,0.8-1.3,0.8s-1.1-0.4-1.3-0.9"/>
			<path class="st3" d="M57.1,156.8c-0.4-0.3-0.4-1.5-0.4-1.8c0-0.3,0-0.6,0-0.6"/>
			<path class="st3" d="M27.5,156.8c0.3-0.2,0.5-1.4,0.5-1.8s0-0.7,0-0.7"/>
			<path class="st3" d="M21,152.6c0.3,0.5,0.7,0.7,1.2,0.7c0.5,0,0.9-0.2,1.2-0.8"/>
			<line class="st3" x1="22.2" y1="153.3" x2="22.2" y2="152.5"/>
			<path class="st3" d="M23.3,152.6c1.4,1.9,3.1,2.1,4.7,2.4c5.4,0.8,23.3,0.8,28.7,0c1.8-0.3,3.8-0.7,4.5-2.4"/>
		</g>
		<g>
			<path class="st4" d="M22.2,152.5c-0.9,0-2-0.2-2-2s0.9-1.7,1.9-1.7c1,0,39.3,0,40.4,0c1,0,2,0.2,2,1.7s-0.6,2-1.9,1.9
				C61.1,152.4,23.8,152.5,22.2,152.5z"/>
			<path class="st3" d="M20.5,150.5c0,0.5,0.1,1.5,1.1,1.5c0.7,0,41,0,41.5,0c0.6,0,1-0.7,1-1.5c0-0.6-0.4-1.5-1-1.5
				c-0.6,0-40.7,0-41.4,0C20.7,149,20.5,149.6,20.5,150.5z"/>
			<line class="st3" x1="63" y1="152.4" x2="63" y2="152"/>
			<line class="st5" x1="64.4" y1="150.5" x2="20.2" y2="150.5"/>
			<line class="st3" x1="21.6" y1="152.4" x2="21.6" y2="152"/>
			<line class="st3" x1="21.6" y1="148.8" x2="21.6" y2="149"/>
			<line class="st3" x1="63" y1="148.6" x2="63" y2="149"/>
		</g>
		<g>
			<path class="st4" d="M28.4,208.3v18.4c-0.3,0-0.7,0.3-0.7,0.7s-0.2,0.7-0.5,0.7c-9,0-17,1.3-18,1.5c-1,0.2-1.7,0.5-1.8,1.3
				c-0.1,0.7-0.1,3.3-0.1,3.3h70c0-0.4-0.2-3-0.2-3.4c0-0.4-0.7-1-1.6-1.2c-3-0.5-9.1-1.2-17.9-1.5c-0.5,0-0.7-0.2-0.7-0.4
				s0-0.8-0.9-0.8v-18.5H28.4z"/>
			<path class="st3" d="M7.5,230.8c0.5,0,1.2-0.1,1.5-0.1c0.3,0,6.7-1.1,12.1-1.3"/>
			<path class="st3" d="M9.3,229.5C9,229.9,9,230.2,9,230.7s-0.1,3.5-0.1,3.5"/>
			<g>
				<path class="st5" d="M65.2,234.2c0,0-0.3-3.3-0.3-3.7s-0.4-0.7-1.2-1c-1-0.3-4.2-1.2-7-1.2c-1.3,0-4,0-4.7,0
					c-0.7,0-1.3,0.5-1.3,1.1c0,0.6-0.1,4.8-0.1,4.8"/>
				<path class="st3" d="M52,227.7v0.6c2.2,0,7.5,0.9,8.9,1.2c2.2,0.5,3.2,0.2,2.7,0"/>
				<path class="st3" d="M64.9,230.7c-0.1,0.2-2.4,0.4-4.6,0s-7.5-1.3-9.6-1.3h-0.6"/>
				<path class="st3" d="M57,227.7c0,0-3.6,0-4,0c-0.4,0-0.7,0-1,0c-1.3,0-1.9,0.9-1.9,1.7c0,0.8-0.1,4.8-0.1,4.8"/>
				<path class="st3" d="M60.9,229.5c-0.4,0.4-0.6,0.7-0.7,1.2c0,0.5-0.1,3.5-0.1,3.5"/>
			</g>
			<path class="st3" d="M77.2,230.8c-0.5,0-1.2-0.1-1.5-0.1c-0.3,0-6.7-1.1-12.1-1.3"/>
			<path class="st3" d="M75.4,229.5c0.2,0.3,0.3,0.7,0.3,1.2s0.1,3.5,0.1,3.5"/>
			<line class="st3" x1="27.7" y1="227.4" x2="57" y2="227.4"/>
			<line class="st13" x1="56.1" y1="226.8" x2="28.4" y2="226.8"/>
			<path class="st3" d="M52.7,208.3v18.5c0.3,0.2,0.2,0.5,0.2,0.6s0,0.7,0.2,0.9"/>
			<path class="st3" d="M32,208.3v18.5c-0.3,0.2-0.2,0.5-0.2,0.6s0,0.7-0.2,0.9"/>
			<g>
				<path class="st5" d="M19.5,234.2c0,0,0.3-3.3,0.3-3.7s0.4-0.7,1.2-1c1-0.3,4.2-1.2,7-1.2c1.3,0,4,0,4.7,0c0.7,0,1.3,0.5,1.3,1.1
					c0,0.6,0.1,4.8,0.1,4.8"/>
				<path class="st3" d="M32.7,227.7v0.6c-2.2,0-7.5,0.9-8.9,1.2c-2.2,0.5-3.2,0.2-2.7,0"/>
				<path class="st3" d="M19.8,230.7c0.1,0.2,2.4,0.4,4.6,0s7.5-1.3,9.6-1.3h0.6"/>
				<path class="st3" d="M27.7,227.7c0,0,3.6,0,4,0c0.4,0,0.7,0,1,0c1.3,0,1.9,0.9,1.9,1.7c0,0.8,0.1,4.8,0.1,4.8"/>
				<path class="st3" d="M23.8,229.5c0.4,0.4,0.6,0.7,0.7,1.2s0.1,3.5,0.1,3.5"/>
			</g>
		</g>
		<g>
			<path class="st4" d="M19.5,208.2h45.8c0,0-0.2-4.2-0.2-4.5s-0.2-0.4-0.5-0.4c-0.3,0-1.6,0-1.6,0s-40.9,0-41.2,0s-1.2,0-1.5,0
				s-0.5,0.2-0.5,0.4C19.7,203.9,19.5,208.2,19.5,208.2z"/>
			<path class="st3" d="M19.7,203.7c0,0,11.7,0,11.9,0c0.2,0,0.5,0.1,0.6,0.2c0.2,0.1,3.2,1.9,3.3,2c0.2,0.1,0.6,0.2,0.8,0.2
				c0.3,0,11.7,0,11.9,0c0.2,0,0.5,0,0.8-0.2c0.3-0.2,3.2-1.9,3.4-2c0.2-0.1,0.3-0.2,0.6-0.2s9.6,0,9.9,0s2,0,2,0"/>
			<path class="st3" d="M62.9,203.3c0.1,0.1,0.1,0.3,0.1,0.4s0.2,4.5,0.2,4.5"/>
			<path class="st3" d="M21.7,203.3c0,0.1-0.1,0.3-0.1,0.4s-0.2,4.5-0.2,4.5"/>
			<line class="st3" x1="31.6" y1="203.3" x2="31.6" y2="203.7"/>
			<path class="st3" d="M53.1,203.3c0,0,0,0.4,0,0.4"/>
			<path class="st3" d="M52.8,203.3c-0.2,0-0.4,0.2-0.6,0.3c-0.1,0.1-2.8,1.7-3,1.8c-0.2,0.1-0.5,0.3-1,0.3c-0.3,0-11.6,0-11.8,0
				c-0.5,0-0.7-0.2-0.9-0.3c-0.2-0.1-3-1.7-3.2-1.9c-0.2-0.1-0.4-0.2-0.8-0.2"/>
			<line class="st3" x1="35.6" y1="205.4" x2="49.2" y2="205.4"/>
			<path class="st3" d="M48.5,205.7c-0.2,0.1-0.2,0.3-0.2,0.4"/>
			<path class="st3" d="M48.9,205.5c0.1,0.1,0.2,0.2,0.2,0.4"/>
			<path class="st3" d="M36.3,205.7c0.1,0.1,0.1,0.2,0.1,0.4"/>
			<path class="st3" d="M35.8,205.5c-0.1,0.1-0.2,0.2-0.3,0.4"/>
			<path class="st3" d="M32,203.8c0.1-0.1,0.2-0.3,0.4-0.3s19.6,0,19.8,0c0.2,0,0.4,0,0.5,0.2"/>
			<path class="st3" d="M58.5,208.2c0,0,0,0.3,0,0.4s0.1,0.2,0.2,0.2s0.7,0,0.8,0s0.2-0.1,0.2-0.2c0-0.1,0-0.4,0-0.4"/>
			<path class="st3" d="M24.9,208.2c0,0,0,0.3,0,0.4s0.1,0.2,0.2,0.2c0.1,0,0.7,0,0.8,0s0.2-0.1,0.2-0.2c0-0.1,0-0.4,0-0.4"/>
			<path class="st5" d="M32.6,208.2c0.1,0.1,0.3,0.3,0.5,0.3c0.2,0,0.3-0.1,0.5-0.3"/>
			<path class="st5" d="M39.9,208.2c0.1,0.1,0.3,0.3,0.5,0.3s0.3-0.1,0.5-0.3"/>
			<path class="st5" d="M43.9,208.2c0.1,0.1,0.3,0.3,0.5,0.3c0.2,0,0.3-0.1,0.5-0.3"/>
			<path class="st5" d="M51.2,208.2c0.1,0.1,0.3,0.3,0.5,0.3c0.2,0,0.3-0.1,0.5-0.3"/>
		</g>
		<g>
			<g>
				<rect x="31.9" y="133.5" class="st4" width="20.9" height="69.7"/>
				<line class="st13" x1="33.2" y1="133.5" x2="33.2" y2="203.2"/>
				<line class="st13" x1="51.4" y1="203.2" x2="51.4" y2="133.5"/>
			</g>
			<g>
				<path class="st4" d="M33.3,133.6c0.6,0,17.8,0,18.1,0s1.3,0,1.6,0c0.4,0,0.4-0.2,0.4-0.4c0-0.2,0-0.4,0-0.6
					c0-0.3-0.1-0.3-0.7-0.3c-0.3,0-0.7,0-1.1,0s-18,0-18.3,0s-1.2,0-1.4,0c-0.3,0-0.5,0.1-0.5,0.3c0,0.2,0,0.5,0,0.6
					s-0.1,0.4,0.3,0.4C32.1,133.6,32.9,133.6,33.3,133.6z"/>
				<line class="st13" x1="31.4" y1="132.5" x2="53.4" y2="132.5"/>
				<line class="st3" x1="53.4" y1="133.2" x2="31.4" y2="133.2"/>
				<path class="st3" d="M33.3,132.2c-0.1,0.1-0.1,0.2-0.1,0.3c0,0.1,0,0.5,0,0.6c0,0.1,0,0.3,0.1,0.4"/>
				<path class="st3" d="M51.4,132.2c0.1,0.2,0.1,0.2,0.1,0.3c0,0.1,0,0.5,0,0.6c0,0.1,0,0.3-0.1,0.4"/>
			</g>
		</g>
		<g>
			<rect x="40.6" y="107.6" class="st4" width="3.3" height="21"/>
			<line class="st3" x1="41" y1="128.6" x2="41" y2="107.6"/>
			<line class="st3" x1="43.5" y1="107.6" x2="43.5" y2="128.6"/>
			<rect x="39.8" y="122.4" class="st4" width="4.8" height="9.7"/>
		</g>
		<g>
			<polygon class="st4" points="50.1,132.1 50.1,130.8 46.7,130.8 46.7,132.1 			"/>
			<line class="st3" x1="48.7" y1="130.8" x2="48.7" y2="132.1"/>
		</g>
		<g>
			<rect x="41" y="103.2" class="st8" width="2.6" height="4.4"/>
			<rect x="41.4" y="101.2" class="st8" width="1.6" height="2"/>
		</g>
		<path class="st4" d="M29.2,160.1h26.3c0,0,0-5.7,0-6.6s0.1-1.2-0.5-1.2s-24.8,0-25.3,0s-0.5,0.2-0.5,1.2
			C29.2,154.4,29.2,160.1,29.2,160.1z"/>
		<g>
			<path class="st4" d="M52.8,168.7c0,0,3,0.9,3.2,1c0.2,0.1,0.3,0.2,0.3,0.3c0,0.2,0,6.5,0,6.5h-3.5V168.7z"/>
			<polyline class="st3" points="56,169.7 56,176.2 52.8,176.2 			"/>
			<line class="st3" x1="56" y1="176.2" x2="56.3" y2="176.5"/>
		</g>
		<g>
			<path class="st20" d="M49.3,225.9H35.7c-1.1,0-2-0.9-2-2v-12.2c0-1.1,0.9-2,2-2h13.6c1.1,0,2,0.9,2,2v12.2
				C51.3,225,50.4,225.9,49.3,225.9z"/>
			<path class="st21" d="M37.8,215.6h-0.2c-0.5,0-1-0.4-1-1v-2.1c0-0.6,0.5-1,1-1h0.2c0.5,0,1,0.4,1,1v2.1
				C38.8,215.2,38.4,215.6,37.8,215.6z"/>
			<rect x="36.8" y="220.5" class="st21" width="1.9" height="0.9"/>
			<path class="st21" d="M42.6,215.6h-0.2c-0.5,0-1-0.4-1-1v-2.1c0-0.6,0.5-1,1-1h0.2c0.6,0,1,0.4,1,1v2.1
				C43.6,215.2,43.2,215.6,42.6,215.6z"/>
			<path class="st21" d="M38.3,221.2C38.3,221.2,38.3,221.2,38.3,221.2c-0.2,0-1.1,0-1.1,0s-0.1,0-0.1,0c0-0.1-0.1-0.1-0.2-0.1
				c-0.1,0-0.1-0.1-0.1-0.1v-0.3c0,0,0-0.1,0.1-0.1h1.6c0,0,0.1,0,0.1,0.1c0,0,0,0.3,0,0.3s0,0.1-0.1,0.1
				C38.4,221.1,38.4,221.1,38.3,221.2z"/>
			<path class="st21" d="M37.1,220.9h1.2c0,0-0.1,0.1-0.1,0.1L37.1,220.9L37.1,220.9z"/>
			<circle class="st21" cx="37.7" cy="223.8" r="1.3"/>
			<path class="st21" d="M42.6,225.1L42.6,225.1c-1,0-1.8-0.8-1.8-1.8v-3c0-1,0.8-1.8,1.8-1.8h0c1,0,1.8,0.8,1.8,1.8v3
				C44.4,224.3,43.6,225.1,42.6,225.1z"/>
		</g>
		<g>
			<path class="st4" d="M20.9,150.6c0,0.4,0.3,1.2,1.2,1.2s1.3-0.8,1.3-1.3c0-0.5,0-0.8,0-1.3c0-0.9,0.7-1.8,4.3-2.4
				c7.4-1.2,21.8-1.2,29.2-0.1c2,0.3,4.4,1.2,4.4,2.4c0,0.9,0,0.9,0,1.4c0,0.5,0.2,1.2,1.2,1.2c0.9,0,1.2-0.7,1.2-1.2
				c0-0.5,0-0.9,0-1.4c0-3.3-3.3-4.3-6.5-4.7c-10.7-1.3-20.4-1.2-29.9,0c-2.6,0.3-6.4,1.5-6.4,4.8C20.9,150,20.9,149.7,20.9,150.6z"
				/>
			<path class="st3" d="M61.3,150.1c0.4,0.5,0.6,0.7,1.2,0.7c0.6,0,0.9-0.2,1.2-0.7"/>
			<path class="st3" d="M61.3,149.2c0.4,0.5,0.6,0.7,1.2,0.7c0.6,0,0.9-0.2,1.2-0.7"/>
			<line class="st3" x1="62.5" y1="151.8" x2="62.5" y2="150"/>
			<path class="st3" d="M56.9,146.8c0.5-0.7,0.6-1.5,0.3-2.3"/>
			<path class="st3" d="M27.7,146.8c-0.3-0.4-0.5-1.5-0.4-2.4"/>
			<path class="st3" d="M20.9,150.1c0.4,0.5,0.6,0.7,1.2,0.7s0.9-0.2,1.2-0.7"/>
			<path class="st3" d="M20.9,149.2c0.4,0.5,0.6,0.7,1.2,0.7s0.9-0.2,1.2-0.7"/>
			<line class="st3" x1="22.1" y1="151.8" x2="22.1" y2="150"/>
			<path class="st3" d="M21,148.4c0.9-1.6,2.1-2.7,6.3-3.3c7.5-1.1,21.5-1.4,30.1,0c4.2,0.7,5.7,1.9,6.3,3.3"/>
		</g>
	</g>
</g>
<g id="Layer_4">
	<g class="st0">
		<g class="st1">
			<g>
				<path class="st22" d="M6.3,238h1.9v-1.3c0.5-0.4,0.8-0.9,0.8-2.3H6.3H3.6c0,1.4,0.3,1.9,0.8,2.3v1.3H6.3z"/>
				<path class="st23" d="M3.6,234.6c1.5,1.2,3.5,1.2,5.3,0"/>
				<path class="st23" d="M3.7,235.4c1.5,1.2,3.3,1.2,5.1,0"/>
			</g>
			<g>
				<path class="st24" d="M3.2,250.1h6.2v-12H7.9v-1.9c-0.7-0.3-2.8-0.3-3.3,0v1.8H3.2v10.5V250.1z"/>
				<line class="st23" x1="9.4" y1="248.5" x2="3.2" y2="248.5"/>
				<polyline class="st23" points="3.8,248.5 6.1,244.5 8.4,248.5 				"/>
			</g>
			<g>
				<path class="st25" d="M2.5,250.4H1.6c-0.5,0-0.8-0.4-0.8-0.8v-12.2c0-0.5,0.4-0.8,0.8-0.8h0.9c0.5,0,0.8,0.4,0.8,0.8v12.2
					C3.3,250,3,250.4,2.5,250.4z"/>
				<path class="st23" d="M1.6,236.5c-0.2,0.3-0.2,0.5-0.2,0.8c0,0.3,0,12,0,12.3c0,0.3,0.1,0.6,0.2,0.7"/>
				<path class="st23" d="M2.6,236.5c0.2,0.3,0.2,0.5,0.2,0.8c0,0.3,0,12,0,12.3c0,0.3-0.1,0.6-0.2,0.7"/>
				<path class="st23" d="M0.8,237.2c0.2,0.1,0.2,0.1,0.5,0.1s1.2,0,1.4,0s0.4-0.1,0.5-0.1"/>
				<path class="st23" d="M0.8,249.7c0.2-0.1,0.2-0.1,0.5-0.1s1.2,0,1.4,0s0.4,0.1,0.5,0.1"/>
			</g>
			<g>
				<path class="st25" d="M10.3,250.4H9.4c-0.5,0-0.8-0.4-0.8-0.8v-12.2c0-0.5,0.4-0.8,0.8-0.8h0.9c0.5,0,0.8,0.4,0.8,0.8v12.2
					C11.1,250,10.7,250.4,10.3,250.4z"/>
				<path class="st23" d="M9.4,236.5c-0.2,0.3-0.2,0.5-0.2,0.8c0,0.3,0,12,0,12.3c0,0.3,0.1,0.6,0.2,0.7"/>
				<path class="st23" d="M10.4,236.5c0.2,0.3,0.2,0.5,0.2,0.8c0,0.3,0,12,0,12.3c0,0.3-0.1,0.6-0.2,0.7"/>
				<path class="st23" d="M8.6,237.2c0.2,0.1,0.2,0.1,0.5,0.1s1.2,0,1.4,0c0.3,0,0.4-0.1,0.5-0.1"/>
				<path class="st23" d="M8.6,249.7c0.2-0.1,0.2-0.1,0.5-0.1s1.2,0,1.4,0c0.3,0,0.4,0.1,0.5,0.1"/>
			</g>
			<path class="st22" d="M5.9,242.5c1.2,0,2.2,0,2.6,0.2c0.4,0.1,0.8,0.6,0.9,0.9c0,0.3,0.2,0.5-0.4,0.5c-0.6,0-1.6,0-1.6,0
				s-0.8,1.8-0.9,2.1c-0.2,0.4-0.4,0.9-0.4,1.7c0,0.8,0,2.1-0.2,2.1H5.8c-0.2,0-0.2-1.3-0.2-2.1c0-0.8-0.2-1.3-0.4-1.7
				c-0.2-0.4-0.9-2.1-0.9-2.1s-1.1,0-1.6,0s-0.4-0.2-0.4-0.5c0-0.3,0.5-0.7,0.9-0.9C3.6,242.5,4.6,242.5,5.9,242.5"/>
		</g>
		<g class="st1">
			<g>
				<path class="st22" d="M83.5,238.1h1.9v-1.3c0.5-0.4,0.8-0.9,0.8-2.3h-2.6h-2.6c0,1.4,0.3,1.9,0.8,2.3v1.3H83.5z"/>
				<path class="st23" d="M80.9,234.7c1.5,1.2,3.5,1.2,5.3,0"/>
				<path class="st23" d="M81,235.5c1.5,1.2,3.3,1.2,5.1,0"/>
			</g>
			<g>
				<path class="st24" d="M80.5,250.2h6.2v-12h-1.6v-1.9c-0.7-0.3-2.8-0.3-3.3,0v1.8h-1.4v10.5V250.2z"/>
				<line class="st23" x1="86.6" y1="248.6" x2="80.5" y2="248.6"/>
				<polyline class="st23" points="81,248.6 83.3,244.6 85.7,248.6 				"/>
			</g>
			<g>
				<path class="st25" d="M79.8,250.5h-0.9c-0.5,0-0.8-0.4-0.8-0.8v-12.2c0-0.5,0.4-0.8,0.8-0.8h0.9c0.5,0,0.8,0.4,0.8,0.8v12.2
					C80.6,250.1,80.2,250.5,79.8,250.5z"/>
				<path class="st23" d="M78.9,236.6c-0.2,0.3-0.2,0.5-0.2,0.8s0,12,0,12.3s0.1,0.6,0.2,0.7"/>
				<path class="st23" d="M79.8,236.6c0.2,0.3,0.2,0.5,0.2,0.8s0,12,0,12.3s-0.1,0.6-0.2,0.7"/>
				<path class="st23" d="M78.1,237.3c0.2,0.1,0.2,0.1,0.5,0.1s1.2,0,1.4,0s0.4-0.1,0.5-0.1"/>
				<path class="st23" d="M78.1,249.8c0.2-0.1,0.2-0.1,0.5-0.1s1.2,0,1.4,0s0.4,0.1,0.5,0.1"/>
			</g>
			<g>
				<path class="st25" d="M87.5,250.5h-0.9c-0.5,0-0.8-0.4-0.8-0.8v-12.2c0-0.5,0.4-0.8,0.8-0.8h0.9c0.5,0,0.8,0.4,0.8,0.8v12.2
					C88.4,250.1,88,250.5,87.5,250.5z"/>
				<path class="st23" d="M86.6,236.6c-0.2,0.3-0.2,0.5-0.2,0.8s0,12,0,12.3s0.1,0.6,0.2,0.7"/>
				<path class="st23" d="M87.6,236.6c0.2,0.3,0.2,0.5,0.2,0.8s0,12,0,12.3s-0.1,0.6-0.2,0.7"/>
				<path class="st23" d="M85.9,237.3c0.2,0.1,0.2,0.1,0.5,0.1s1.2,0,1.4,0s0.4-0.1,0.5-0.1"/>
				<path class="st23" d="M85.9,249.8c0.2-0.1,0.2-0.1,0.5-0.1s1.2,0,1.4,0s0.4,0.1,0.5,0.1"/>
			</g>
			<path class="st22" d="M83.1,242.6c1.2,0,2.2,0,2.6,0.2c0.4,0.1,0.8,0.6,0.9,0.9s0.2,0.5-0.4,0.5c-0.6,0-1.6,0-1.6,0
				s-0.8,1.8-0.9,2.1c-0.2,0.4-0.4,0.9-0.4,1.7c0,0.8,0,2.1-0.2,2.1H83c-0.2,0-0.2-1.3-0.2-2.1c0-0.8-0.2-1.3-0.4-1.7
				c-0.2-0.4-0.9-2.1-0.9-2.1s-1.1,0-1.6,0c-0.6,0-0.4-0.2-0.4-0.5c0-0.3,0.5-0.7,0.9-0.9C80.8,242.6,81.9,242.6,83.1,242.6"/>
		</g>
		<g class="st1">
			<path class="st26" d="M44.6,231.8c15.1,0,35,2.3,37.3,2.6c2.3,0.3,3.4,0.2,4.2,0s0.9-0.8,0.8-1.3s-0.1-1.4-0.4-2.6
				c-0.3-1.2-0.8-1.6-2.6-2.2c-1.9-0.5-25.8-5.6-39.1-5.6s-37.3,5-39.1,5.6c-1.9,0.5-2.3,1-2.6,2.2c-0.3,1.2-0.3,2.1-0.4,2.6
				s0,1.1,0.8,1.3s1.9,0.3,4.2,0S29.5,231.8,44.6,231.8z"/>
			<path class="st27" d="M5.5,228.3c-0.8,1.8-1.9,4.9-1.5,6.3"/>
			<path class="st27" d="M83.7,228.3c0.8,1.3,1.6,4.2,1.5,6.3"/>
			<path class="st27" d="M85.9,229.5c0.3,0.6-0.6,0.9-1.4,0.8c-0.8-0.1-24.4-4.4-39.9-4.4s-39.1,4.3-39.9,4.4
				c-0.8,0.1-1.7-0.2-1.4-0.8"/>
		</g>
		<g class="st1">
			<rect x="38.1" y="231.9" class="st22" width="13.1" height="5.1"/>
			<g>
				<g>
					<g>
						<g>
							<path class="st15" d="M46.3,234.8c0.1,0,0.1-0.1,0.1-0.2v-0.3c0-0.1-0.1-0.1-0.1-0.1h-3.4c-0.1,0-0.1,0.1-0.1,0.1v0.3
								c0,0.1,0,0.2,0.1,0.2l0.4,0.4c0.1,0,0.2,0.1,0.2,0.1h2.1c0.1,0,0.2,0,0.2-0.1L46.3,234.8z"/>
							<path class="st28" d="M46.3,234.8c0.1,0,0.1-0.1,0.1-0.2v-0.3c0-0.1-0.1-0.1-0.1-0.1h-3.4c-0.1,0-0.1,0.1-0.1,0.1v0.3
								c0,0.1,0,0.2,0.1,0.2l0.4,0.4c0.1,0,0.2,0.1,0.2,0.1h2.1c0.1,0,0.2,0,0.2-0.1L46.3,234.8z"/>
						</g>
					</g>
				</g>
				<rect x="43.3" y="234.5" class="st17" width="2.6" height="0.2"/>
				<rect x="43.5" y="234.5" class="st29" width="0.1" height="0"/>
				<rect x="43.7" y="234.5" class="st29" width="0.1" height="0"/>
				<rect x="43.9" y="234.5" class="st29" width="0.1" height="0"/>
				<rect x="44.2" y="234.5" class="st29" width="0.1" height="0"/>
				<rect x="44.4" y="234.5" class="st29" width="0.1" height="0"/>
				<rect x="44.7" y="234.5" class="st29" width="0.1" height="0"/>
				<rect x="44.9" y="234.5" class="st29" width="0.1" height="0"/>
				<rect x="45.1" y="234.5" class="st29" width="0.1" height="0"/>
				<rect x="45.4" y="234.5" class="st29" width="0.1" height="0"/>
				<rect x="45.6" y="234.5" class="st29" width="0.1" height="0"/>
				<rect x="45.5" y="234.7" class="st30" width="0.1" height="0"/>
				<rect x="45.2" y="234.7" class="st30" width="0.1" height="0"/>
				<rect x="45" y="234.7" class="st30" width="0.1" height="0"/>
				<rect x="44.8" y="234.7" class="st30" width="0.1" height="0"/>
				<rect x="44.5" y="234.7" class="st30" width="0.1" height="0"/>
				<rect x="44.3" y="234.7" class="st30" width="0.1" height="0"/>
				<rect x="44.1" y="234.7" class="st30" width="0.1" height="0"/>
				<rect x="43.8" y="234.7" class="st30" width="0.1" height="0"/>
				<rect x="43.6" y="234.7" class="st30" width="0.1" height="0"/>
			</g>
			<path class="st23" d="M46.8,235.8h-4.3c-0.3,0-0.5-0.2-0.5-0.5V234c0-0.3,0.2-0.5,0.5-0.5h4.3c0.3,0,0.5,0.2,0.5,0.5v1.3
				C47.3,235.5,47.1,235.8,46.8,235.8z"/>
			<g>
				<circle class="st23" cx="40.7" cy="234.7" r="0.7"/>
				<line class="st31" x1="40.7" y1="234.3" x2="40.7" y2="235.1"/>
				<line class="st31" x1="40.3" y1="234.7" x2="41.1" y2="234.7"/>
			</g>
			<g>
				<circle class="st23" cx="48.5" cy="234.7" r="0.7"/>
				<line class="st31" x1="48.5" y1="234.3" x2="48.5" y2="235.1"/>
				<line class="st31" x1="48.1" y1="234.7" x2="48.9" y2="234.7"/>
			</g>
		</g>
		<g class="st1">
			<path class="st26" d="M71.6,90.1H16.3c-0.9,0-1.6-0.7-1.6-1.6V42.4c0-0.9,0.7-1.6,1.6-1.6h55.3c0.9,0,1.6,0.7,1.6,1.6v46.1
				C73.2,89.4,72.5,90.1,71.6,90.1z"/>
			<g>
				<path class="st32" d="M6.1,48.5c-1.3-0.2-2.6-0.5-3.9-0.8C0,54.9-0.2,73,2.2,83.6c1.3-0.3,2.7-0.6,4.2-0.9
					C3.9,71.8,4.5,58,6.1,48.5z"/>
				<path class="st33" d="M2.2,47.7C0,54.9-0.2,73,2.2,83.6c6.9-1.5,16-3.1,22.5-3.1V50.2C20.1,50.2,11.3,49.9,2.2,47.7z"/>
				<path class="st34" d="M6.2,82.8C3.5,71.4,4.1,58.2,5.9,48.5"/>
				<line class="st35" x1="21.2" y1="50.1" x2="21.2" y2="80.7"/>
				<g>
					<circle class="st23" cx="23.1" cy="77.9" r="0.7"/>
					<line class="st31" x1="23.1" y1="77.5" x2="23.1" y2="78.4"/>
					<line class="st31" x1="22.7" y1="78" x2="23.5" y2="78"/>
				</g>
				<g>
					<circle class="st23" cx="23.1" cy="53" r="0.7"/>
					<line class="st31" x1="23.1" y1="52.6" x2="23.1" y2="53.4"/>
					<line class="st31" x1="22.7" y1="53" x2="23.5" y2="53"/>
				</g>
			</g>
			<g>
				<path class="st32" d="M82,82.6c1.3,0.2,2.6,0.5,3.9,0.8c2.2-7.1,2.4-25.3,0-35.9c-1.3,0.3-2.7,0.6-4.2,0.9
					C84.2,59.3,83.6,73.1,82,82.6z"/>
				<path class="st33" d="M85.7,47.5c2.2,7.1,2.4,25.3,0,35.9c-6.9-1.5-16-3.1-22.5-3.1V49.9C67.8,49.9,76.7,49.7,85.7,47.5z"/>
				<path class="st34" d="M82,48.3c1.8,9.7,2.4,22.9-0.3,34.3"/>
				<line class="st35" x1="66.7" y1="49.9" x2="66.7" y2="80.5"/>
				<g>
					<circle class="st23" cx="64.8" cy="77.7" r="0.7"/>
					<line class="st31" x1="64.8" y1="77.3" x2="64.8" y2="78.1"/>
					<line class="st31" x1="65.2" y1="77.7" x2="64.4" y2="77.7"/>
				</g>
				<g>
					<circle class="st23" cx="64.8" cy="52.7" r="0.7"/>
					<line class="st31" x1="64.8" y1="52.3" x2="64.8" y2="53.1"/>
					<line class="st31" x1="65.2" y1="52.7" x2="64.4" y2="52.7"/>
				</g>
			</g>
		</g>
		<g class="st1">
			<path class="st36" d="M43.9,100.5c0.1,0,0.2,0,0.2,0c0.1,0,0.2,0,0.2,0H43.9z"/>
			<path class="st36" d="M63.2,104.8c-3.7-2.2-8.7-3.8-19.1-4.2c-10.4,0.5-15.3,2.1-19.1,4.2c-4.5,2.6-5.3,7.1-2.7,9.5
				c2.5,2.4,10.3,4.7,15,5.1h6.6h0.5H51c4.7-0.4,12.5-2.7,15-5.1C68.4,111.9,67.7,107.4,63.2,104.8z M58.2,114
				c-3.6,0.9-12.4,1.7-14.1,1.7S33.6,114.9,30,114c-3.6-0.9-5.5-1.9-5.5-3.7c0-1.8,3.5-3,5.4-3.5c1.9-0.5,7.9-2.7,14.2-2.7
				c6.3,0,12.3,2.1,14.2,2.7c1.9,0.5,5.4,1.7,5.4,3.5C63.7,112.1,61.9,113.1,58.2,114z"/>
		</g>
		<g class="st1">
			<polygon class="st26" points="58,223.6 58,54.9 30.3,54.9 30.5,223.6 			"/>
			<line class="st27" x1="37.3" y1="223.6" x2="37.3" y2="54.9"/>
			<line class="st27" x1="51.2" y1="223.6" x2="51.2" y2="54.9"/>
			<path class="st27" d="M37.3,140.7c2.8,0.7,11.8,0.7,14,0"/>
			<path class="st35" d="M40.4,126.7h8.3c0,0,0-2.3,0-5.2s-2.1-4.7-4-4.7s-4.3,0.9-4.3,4.7C40.3,125.1,40.4,126.7,40.4,126.7z"/>
		</g>
	</g>
	<g>
		<g>
			<g>
				<path class="st37" d="M6.8,238.1h1.9v-1.3c0.5-0.4,0.8-0.9,0.8-2.3H6.8H4.2c0,1.4,0.3,1.9,0.8,2.3v1.3H6.8z"/>
				<path class="st23" d="M4.2,234.6c1.5,1.2,3.5,1.2,5.3,0"/>
				<path class="st23" d="M4.3,235.5c1.5,1.2,3.3,1.2,5.1,0"/>
			</g>
			<g>
				<path class="st24" d="M3.8,250.2H10v-12H8.5v-1.9c-0.7-0.3-2.8-0.3-3.3,0v1.8H3.8v10.5V250.2z"/>
				<line class="st23" x1="9.9" y1="248.6" x2="3.8" y2="248.6"/>
				<polyline class="st23" points="4.3,248.6 6.7,244.5 9,248.6 				"/>
			</g>
			<g>
				<path class="st38" d="M3.1,250.4H2.2c-0.5,0-0.8-0.4-0.8-0.8v-12.2c0-0.5,0.4-0.8,0.8-0.8h0.9c0.5,0,0.8,0.4,0.8,0.8v12.2
					C3.9,250.1,3.5,250.4,3.1,250.4z"/>
				<path class="st23" d="M2.2,236.6c-0.2,0.3-0.2,0.5-0.2,0.8s0,12,0,12.3s0.1,0.6,0.2,0.7"/>
				<path class="st23" d="M3.1,236.6c0.2,0.3,0.2,0.5,0.2,0.8s0,12,0,12.3s-0.1,0.6-0.2,0.7"/>
				<path class="st23" d="M1.4,237.3c0.2,0.1,0.2,0.1,0.5,0.1s1.2,0,1.4,0s0.4-0.1,0.5-0.1"/>
				<path class="st23" d="M1.4,249.7c0.2-0.1,0.2-0.1,0.5-0.1s1.2,0,1.4,0s0.4,0.1,0.5,0.1"/>
			</g>
			<g>
				<path class="st38" d="M10.9,250.4H10c-0.5,0-0.8-0.4-0.8-0.8v-12.2c0-0.5,0.4-0.8,0.8-0.8h0.9c0.5,0,0.8,0.4,0.8,0.8v12.2
					C11.7,250.1,11.3,250.4,10.9,250.4z"/>
				<path class="st23" d="M10,236.6c-0.2,0.3-0.2,0.5-0.2,0.8s0,12,0,12.3s0.1,0.6,0.2,0.7"/>
				<path class="st23" d="M10.9,236.6c0.2,0.3,0.2,0.5,0.2,0.8s0,12,0,12.3s-0.1,0.6-0.2,0.7"/>
				<path class="st23" d="M9.2,237.3c0.2,0.1,0.2,0.1,0.5,0.1s1.2,0,1.4,0s0.4-0.1,0.5-0.1"/>
				<path class="st23" d="M9.2,249.7c0.2-0.1,0.2-0.1,0.5-0.1s1.2,0,1.4,0s0.4,0.1,0.5,0.1"/>
			</g>
			<path class="st37" d="M6.4,242.5c1.2,0,2.2,0,2.6,0.2c0.4,0.1,0.8,0.6,0.9,0.9c0,0.3,0.2,0.5-0.4,0.5s-1.6,0-1.6,0
				s-0.8,1.8-0.9,2.1c-0.2,0.4-0.4,0.9-0.4,1.7c0,0.8,0,2.1-0.2,2.1H6.4c-0.2,0-0.2-1.3-0.2-2.1c0-0.8-0.2-1.3-0.4-1.7
				s-0.9-2.1-0.9-2.1s-1.1,0-1.6,0s-0.4-0.2-0.4-0.5c0-0.3,0.5-0.7,0.9-0.9C4.1,242.5,5.2,242.5,6.4,242.5"/>
		</g>
		<g>
			<g>
				<path class="st37" d="M84.1,238.2H86v-1.3c0.5-0.4,0.8-0.9,0.8-2.3h-2.6h-2.6c0,1.4,0.3,1.9,0.8,2.3v1.3H84.1z"/>
				<path class="st23" d="M81.5,234.7c1.5,1.2,3.5,1.2,5.3,0"/>
				<path class="st23" d="M81.6,235.6c1.5,1.2,3.3,1.2,5.1,0"/>
			</g>
			<g>
				<path class="st24" d="M81.1,250.3h6.2v-12h-1.6v-1.9c-0.7-0.3-2.8-0.3-3.3,0v1.8h-1.4v10.5V250.3z"/>
				<line class="st23" x1="87.2" y1="248.7" x2="81.1" y2="248.7"/>
				<polyline class="st23" points="81.6,248.7 83.9,244.6 86.3,248.7 				"/>
			</g>
			<g>
				<path class="st38" d="M80.4,250.5h-0.9c-0.5,0-0.8-0.4-0.8-0.8v-12.2c0-0.5,0.4-0.8,0.8-0.8h0.9c0.5,0,0.8,0.4,0.8,0.8v12.2
					C81.2,250.2,80.8,250.5,80.4,250.5z"/>
				<path class="st23" d="M79.5,236.7c-0.2,0.3-0.2,0.5-0.2,0.8s0,12,0,12.3s0.1,0.6,0.2,0.7"/>
				<path class="st23" d="M80.4,236.7c0.2,0.3,0.2,0.5,0.2,0.8s0,12,0,12.3s-0.1,0.6-0.2,0.7"/>
				<path class="st23" d="M78.7,237.4c0.2,0.1,0.2,0.1,0.5,0.1s1.2,0,1.4,0s0.4-0.1,0.5-0.1"/>
				<path class="st23" d="M78.7,249.8c0.2-0.1,0.2-0.1,0.5-0.1s1.2,0,1.4,0s0.4,0.1,0.5,0.1"/>
			</g>
			<g>
				<path class="st38" d="M88.1,250.5h-0.9c-0.5,0-0.8-0.4-0.8-0.8v-12.2c0-0.5,0.4-0.8,0.8-0.8h0.9c0.5,0,0.8,0.4,0.8,0.8v12.2
					C89,250.2,88.6,250.5,88.1,250.5z"/>
				<path class="st23" d="M87.2,236.7c-0.2,0.3-0.2,0.5-0.2,0.8s0,12,0,12.3s0.1,0.6,0.2,0.7"/>
				<path class="st23" d="M88.2,236.7c0.2,0.3,0.2,0.5,0.2,0.8s0,12,0,12.3s-0.1,0.6-0.2,0.7"/>
				<path class="st23" d="M86.5,237.4c0.2,0.1,0.2,0.1,0.5,0.1s1.2,0,1.4,0c0.3,0,0.4-0.1,0.5-0.1"/>
				<path class="st23" d="M86.5,249.8c0.2-0.1,0.2-0.1,0.5-0.1s1.2,0,1.4,0c0.3,0,0.4,0.1,0.5,0.1"/>
			</g>
			<path class="st37" d="M83.7,242.6c1.2,0,2.2,0,2.6,0.2c0.4,0.1,0.8,0.6,0.9,0.9c0,0.3,0.2,0.5-0.4,0.5s-1.6,0-1.6,0
				s-0.8,1.8-0.9,2.1s-0.4,0.9-0.4,1.7c0,0.8,0,2.1-0.2,2.1h-0.1c-0.2,0-0.2-1.3-0.2-2.1c0-0.8-0.2-1.3-0.4-1.7s-0.9-2.1-0.9-2.1
				s-1.1,0-1.6,0c-0.6,0-0.4-0.2-0.4-0.5c0-0.3,0.5-0.7,0.9-0.9S82.5,242.6,83.7,242.6"/>
		</g>
		<g>
			<rect x="38.7" y="232" class="st37" width="13.1" height="5.1"/>
			<g>
				<g>
					<g>
						<g>
							<path class="st15" d="M46.9,234.9c0.1,0,0.1-0.1,0.1-0.2v-0.3c0-0.1-0.1-0.1-0.1-0.1h-3.4c-0.1,0-0.1,0.1-0.1,0.1v0.3
								c0,0.1,0,0.2,0.1,0.2l0.4,0.4c0.1,0,0.2,0.1,0.2,0.1h2.1c0.1,0,0.2,0,0.2-0.1L46.9,234.9z"/>
							<path class="st39" d="M46.9,234.9c0.1,0,0.1-0.1,0.1-0.2v-0.3c0-0.1-0.1-0.1-0.1-0.1h-3.4c-0.1,0-0.1,0.1-0.1,0.1v0.3
								c0,0.1,0,0.2,0.1,0.2l0.4,0.4c0.1,0,0.2,0.1,0.2,0.1h2.1c0.1,0,0.2,0,0.2-0.1L46.9,234.9z"/>
						</g>
					</g>
				</g>
				<rect x="43.9" y="234.6" class="st17" width="2.6" height="0.2"/>
				<rect x="44.1" y="234.6" class="st40" width="0.1" height="0"/>
				<rect x="44.3" y="234.6" class="st40" width="0.1" height="0"/>
				<rect x="44.5" y="234.6" class="st40" width="0.1" height="0"/>
				<rect x="44.8" y="234.6" class="st40" width="0.1" height="0"/>
				<rect x="45" y="234.6" class="st40" width="0.1" height="0"/>
				<rect x="45.2" y="234.6" class="st40" width="0.1" height="0"/>
				<rect x="45.5" y="234.6" class="st40" width="0.1" height="0"/>
				<rect x="45.7" y="234.6" class="st40" width="0.1" height="0"/>
				<rect x="45.9" y="234.6" class="st40" width="0.1" height="0"/>
				<rect x="46.2" y="234.6" class="st40" width="0.1" height="0"/>
				<rect x="46.1" y="234.8" class="st41" width="0.1" height="0"/>
				<rect x="45.8" y="234.8" class="st41" width="0.1" height="0"/>
				<rect x="45.6" y="234.8" class="st41" width="0.1" height="0"/>
				<rect x="45.4" y="234.8" class="st41" width="0.1" height="0"/>
				<rect x="45.1" y="234.8" class="st41" width="0.1" height="0"/>
				<rect x="44.9" y="234.8" class="st41" width="0.1" height="0"/>
				<rect x="44.6" y="234.8" class="st41" width="0.1" height="0"/>
				<rect x="44.4" y="234.8" class="st41" width="0.1" height="0"/>
				<rect x="44.2" y="234.8" class="st41" width="0.1" height="0"/>
			</g>
			<path class="st23" d="M47.4,235.8h-4.3c-0.3,0-0.5-0.2-0.5-0.5V234c0-0.3,0.2-0.5,0.5-0.5h4.3c0.3,0,0.5,0.2,0.5,0.5v1.3
				C47.9,235.6,47.7,235.8,47.4,235.8z"/>
			<g>
				<circle class="st23" cx="41.3" cy="234.8" r="0.7"/>
				<line class="st42" x1="41.3" y1="234.4" x2="41.3" y2="235.2"/>
				<line class="st42" x1="40.9" y1="234.8" x2="41.7" y2="234.8"/>
			</g>
			<g>
				<circle class="st23" cx="49.1" cy="234.8" r="0.7"/>
				<line class="st42" x1="49.1" y1="234.4" x2="49.1" y2="235.2"/>
				<line class="st42" x1="48.7" y1="234.8" x2="49.5" y2="234.8"/>
			</g>
		</g>
		<g>
			<path class="st43" d="M73.5,225.8H16.6c-0.9,0-1.6-0.7-1.6-1.6v-13.7c0-0.9,0.7-1.6,1.6-1.6h56.9c0.9,0,1.6,0.7,1.6,1.6v13.7
				C75.1,225.1,74.4,225.8,73.5,225.8z"/>
			<path class="st44" d="M15,213.1c9.7,1.9,49.9,2.3,60.2,0"/>
			<g>
				<circle class="st45" cx="62.4" cy="220.4" r="2.6"/>
				<circle class="st44" cx="62.4" cy="220.4" r="1.2"/>
			</g>
			<circle class="st44" cx="27.8" cy="220.4" r="1.7"/>
			<path class="st46" d="M22.7,217.3c0,0,0,3.3,0,3.7s0.2,0.7,0.6,0.7c0.3,0,1.1,0,1.5,0s0.6-0.2,0.6-0.5c0-0.4,0-3.8,0-3.8"/>
			<path class="st46" d="M24.8,221.7h-1.6c-0.3,0-0.5-0.2-0.5-0.5v-2.6c0-0.3,0.2-0.5,0.5-0.5h1.6c0.3,0,0.5,0.2,0.5,0.5v2.6
				C25.3,221.4,25.1,221.7,24.8,221.7z"/>
			<path class="st47" d="M24.1,208.9c-0.4,3.2-0.6,7.7-0.6,10.9c0,0.8,0.8,0.7,0.8,0c0-1.2,0-1.6,0.6-10.9H24.1z"/>
		</g>
		<g>
			<path class="st26" d="M45.2,231.8c15.1,0,35,2.3,37.3,2.6c2.3,0.3,3.4,0.2,4.2,0c0.8-0.2,0.9-0.8,0.8-1.3
				c-0.1-0.5-0.1-1.4-0.4-2.6c-0.3-1.2-0.8-1.6-2.6-2.2c-1.9-0.5-25.8-5.6-39.1-5.6s-37.3,5-39.1,5.6c-1.9,0.5-2.3,1-2.6,2.2
				c-0.3,1.2-0.3,2.1-0.4,2.6c-0.1,0.5,0,1.1,0.8,1.3c0.8,0.2,1.9,0.3,4.2,0C10.2,234.1,30.1,231.8,45.2,231.8z"/>
			<path class="st27" d="M6,228.3c-0.8,1.8-1.9,4.9-1.5,6.3"/>
			<path class="st27" d="M84.3,228.3c0.8,1.3,1.7,4.2,1.5,6.3"/>
			<path class="st27" d="M86.5,229.5c0.3,0.6-0.6,0.9-1.4,0.8c-0.8-0.1-24.4-4.4-39.9-4.4S6,230.2,5.2,230.3
				c-0.8,0.1-1.7-0.2-1.4-0.8"/>
		</g>
		<g>
			<polygon class="st26" points="58.6,223.6 58.6,54.8 30.8,54.8 31.1,223.6 			"/>
			<line class="st27" x1="37.8" y1="223.6" x2="37.8" y2="54.8"/>
			<line class="st27" x1="51.8" y1="223.6" x2="51.8" y2="54.8"/>
			<path class="st27" d="M37.8,140.7c2.8,0.7,11.8,0.7,14,0"/>
			<circle class="st48" cx="45.1" cy="153.5" r="4.4"/>
			<circle class="st48" cx="45.2" cy="216.4" r="4.4"/>
		</g>
		<g>
			<g>
				<path class="st43" d="M45.3,100.5c-13.2,0-23.9,4.8-23.9,9.7c0,7,12.3,9.5,23.9,9.5c11.6,0,23.9-2.5,23.9-9.5
					C69.3,105.3,58.5,100.5,45.3,100.5z M45.3,116.2c-8.7,0-20.4-2.6-20.4-5.8c0-3.2,13.6-6.2,20.4-6.2s20.4,3,20.4,6.2
					C65.7,113.6,54,116.2,45.3,116.2z"/>
				<path class="st45" d="M64.8,108.9c1.7,1.3,4.5,3.6,2,5.9"/>
				<path class="st45" d="M23.9,114.9c-1.7-1.7-0.1-4.4,2.2-6.1"/>
				<path class="st45" d="M34.2,101.7c-0.7,1.3-0.5,3,0.6,3.9"/>
				<path class="st45" d="M55,101.4c0.8,1.2,0.5,3.1-0.3,3.9"/>
			</g>
			<g>
				<path class="st49" d="M51.2,121.7H38.5c-0.3,0-0.5-0.2-0.5-0.5v-8.3c0-0.3,0.2-0.5,0.5-0.5h12.7c0.3,0,0.5,0.2,0.5,0.5v8.3
					C51.8,121.5,51.5,121.7,51.2,121.7z"/>
				<line class="st44" x1="37.9" y1="114.9" x2="51.8" y2="114.9"/>
				<line class="st45" x1="37.9" y1="119.6" x2="51.8" y2="119.6"/>
				<line class="st44" x1="37.9" y1="121.2" x2="51.8" y2="121.2"/>
				<line class="st44" x1="37.9" y1="112.9" x2="51.8" y2="112.9"/>
			</g>
		</g>
		<g>
			<g>
				<path class="st50" d="M6.7,48.5c-1.3-0.2-2.6-0.5-3.9-0.8c-2.2,7.1-2.4,25.3,0,35.9c1.3-0.3,2.7-0.6,4.2-0.9
					C4.5,71.8,5,57.9,6.7,48.5z"/>
				<path class="st51" d="M2.8,47.7c-2.2,7.1-2.4,25.3,0,35.9c6.9-1.5,16-3.1,22.5-3.1V50.2C20.7,50.2,11.8,49.9,2.8,47.7z"/>
				<path class="st51" d="M6.8,82.8C4,71.4,4.7,58.2,6.5,48.5"/>
				<line class="st48" x1="21.8" y1="50.1" x2="21.8" y2="80.7"/>
				<g>
					<circle class="st23" cx="23.7" cy="77.9" r="0.7"/>
					<line class="st42" x1="23.7" y1="77.5" x2="23.7" y2="78.3"/>
					<line class="st42" x1="23.3" y1="77.9" x2="24.1" y2="77.9"/>
				</g>
				<g>
					<circle class="st23" cx="23.7" cy="52.9" r="0.7"/>
					<line class="st42" x1="23.7" y1="52.5" x2="23.7" y2="53.3"/>
					<line class="st42" x1="23.3" y1="52.9" x2="24.1" y2="52.9"/>
				</g>
			</g>
			<g>
				<path class="st50" d="M82.6,82.5c1.3,0.2,2.6,0.5,3.9,0.8c2.2-7.1,2.4-25.3,0-35.9c-1.3,0.3-2.7,0.6-4.2,0.9
					C84.8,59.2,84.2,73.1,82.6,82.5z"/>
				<path class="st51" d="M86.3,47.4c2.2,7.1,2.4,25.3,0,35.9c-6.9-1.5-16-3.1-22.5-3.1V49.9C68.4,49.9,77.3,49.6,86.3,47.4z"/>
				<path class="st51" d="M82.6,48.2c1.8,9.7,2.4,22.9-0.3,34.3"/>
				<line class="st48" x1="67.3" y1="49.9" x2="67.3" y2="80.4"/>
				<g>
					<circle class="st23" cx="65.4" cy="77.7" r="0.7"/>
					<line class="st42" x1="65.4" y1="77.3" x2="65.4" y2="78.1"/>
					<line class="st42" x1="65.8" y1="77.7" x2="65" y2="77.7"/>
				</g>
				<g>
					<circle class="st23" cx="65.4" cy="52.7" r="0.7"/>
					<line class="st42" x1="65.4" y1="52.3" x2="65.4" y2="53.1"/>
					<line class="st42" x1="65.8" y1="52.7" x2="65" y2="52.7"/>
				</g>
			</g>
			<path class="st26" d="M72.2,90.1H16.9c-0.9,0-1.6-0.7-1.6-1.6V42.3c0-0.9,0.7-1.6,1.6-1.6h55.3c0.9,0,1.6,0.7,1.6,1.6v46.1
				C73.8,89.4,73.1,90.1,72.2,90.1z"/>
			<rect x="19.3" y="45.2" class="st48" width="50.8" height="41"/>
		</g>
	</g>
</g>
<g id="Layer_3">
	<g>
		<polyline class="st52" points="49.2,234.5 193.9,234.5 193.9,120.2 338.3,120.2 		"/>
	</g>
	<g>
		<path d="M208,178.4h-0.5v-2h-2.3v2h-0.5v-4.3h0.5v1.8h2.3v-1.8h0.5V178.4z"/>
		<path d="M212.6,176.2c0,0.7-0.2,1.2-0.6,1.6s-0.9,0.6-1.7,0.6h-1.2v-4.3h1.3c0.7,0,1.2,0.2,1.6,0.6S212.6,175.5,212.6,176.2z
			 M212.1,176.2c0-0.6-0.1-1-0.4-1.3s-0.7-0.4-1.2-0.4h-0.7v3.4h0.6c0.6,0,1-0.1,1.3-0.4S212.1,176.8,212.1,176.2z"/>
		<path d="M215.5,178.4l-1.5-3.8h0c0,0.3,0,0.7,0,1.1v2.7h-0.5v-4.3h0.8l1.4,3.5h0l1.4-3.5h0.7v4.3h-0.5v-2.8c0-0.3,0-0.7,0-1h0
			l-1.5,3.8H215.5z"/>
		<path d="M219,178.4v-4.3h0.5v4.3H219z"/>
	</g>
	<polygon class="st53" points="193.8,167 186.6,182 201,182 	"/>
</g>
</svg>
