<?xml version="1.0" encoding="utf-8"?>
<!-- Generator: Adobe Illustrator 25.2.0, SVG Export Plug-In . SVG Version: 6.00 Build 0)  -->
<svg version="1.1" xmlns="http://www.w3.org/2000/svg" xmlns:xlink="http://www.w3.org/1999/xlink" x="0px" y="0px" width="384.3px"
	 height="251px" viewBox="0 0 384.3 251" style="enable-background:new 0 0 384.3 251;" xml:space="preserve">
<style type="text/css">
	.st0{fill:#FFFFFF;stroke:#000000;stroke-width:0.9861;stroke-linecap:round;stroke-linejoin:round;stroke-miterlimit:10;}
	.st1{fill:none;stroke:#000000;stroke-width:0.2465;stroke-linecap:round;stroke-linejoin:round;stroke-miterlimit:10;}
	.st2{fill:none;stroke:#000000;stroke-width:0.9861;stroke-linecap:round;stroke-linejoin:round;stroke-miterlimit:10;}
	.st3{fill:none;stroke:#000000;stroke-width:0.4931;stroke-linecap:round;stroke-linejoin:round;stroke-miterlimit:10;}
	.st4{fill:#FFFFFF;stroke:#000000;stroke-width:0.4931;stroke-linecap:round;stroke-linejoin:round;stroke-miterlimit:10;}
	.st5{fill:#FFFFFF;stroke:#010101;stroke-width:0.9861;stroke-miterlimit:10;}
	.st6{fill:#FFFFFF;stroke:#000000;stroke-width:0.2465;stroke-linecap:round;stroke-linejoin:round;stroke-miterlimit:10;}
	.st7{display:none;}
	.st8{display:inline;}
	.st9{fill:#FFFFFF;stroke:#000000;stroke-width:0.5;stroke-linecap:round;stroke-linejoin:round;stroke-miterlimit:10;}
	.st10{fill:none;stroke:#000000;stroke-width:0.25;stroke-linecap:round;stroke-linejoin:round;stroke-miterlimit:10;}
	.st11{fill:#FFFFFF;stroke:#000000;stroke-linecap:round;stroke-linejoin:round;stroke-miterlimit:10;}
	.st12{fill:none;stroke:#000000;stroke-width:0.5;stroke-linecap:round;stroke-linejoin:round;stroke-miterlimit:10;}
	.st13{display:inline;fill:#FFFFFF;stroke:#000000;stroke-linecap:round;stroke-linejoin:round;stroke-miterlimit:10;}
	
		.st14{display:inline;fill:none;stroke:#000000;stroke-width:0.25;stroke-linecap:round;stroke-linejoin:round;stroke-miterlimit:10;}
	.st15{fill:none;stroke:#000000;stroke-linecap:round;stroke-linejoin:round;stroke-miterlimit:10;}
	.st16{display:inline;fill:none;stroke:#000000;stroke-linecap:round;stroke-linejoin:round;stroke-miterlimit:10;}
	.st17{fill:#FFFFFF;stroke:#000000;stroke-width:0.6413;stroke-linecap:round;stroke-linejoin:round;stroke-miterlimit:10;}
	.st18{fill:none;stroke:#000000;stroke-width:0.3207;stroke-linecap:round;stroke-linejoin:round;stroke-miterlimit:10;}
	.st19{fill:none;stroke:#000000;stroke-width:0.6413;stroke-linecap:round;stroke-linejoin:round;stroke-miterlimit:10;}
	.st20{fill:#FFFFFF;stroke:#000000;stroke-width:0.25;stroke-linecap:round;stroke-linejoin:round;stroke-miterlimit:10;}
	.st21{fill:#FFFFFF;stroke:#000000;stroke-width:0.1378;stroke-linecap:round;stroke-linejoin:round;stroke-miterlimit:10;}
	.st22{fill:#FFFFFF;}
	.st23{fill:none;stroke:#010101;stroke-width:5.333154e-02;stroke-linecap:round;stroke-linejoin:round;stroke-miterlimit:10;}
	.st24{fill:#010101;}
	.st25{fill:#FFFFFF;stroke:#010101;stroke-width:8.683735e-03;stroke-miterlimit:10;}
	.st26{fill:#FFFFFF;stroke:#010101;stroke-width:9.609092e-03;stroke-miterlimit:10;}
	.st27{fill:none;stroke:#00AEEF;stroke-width:0.75;stroke-linecap:round;stroke-linejoin:round;stroke-miterlimit:10;}
	.st28{fill:none;stroke:#00AEEF;stroke-width:1.1667;stroke-linecap:round;stroke-linejoin:round;stroke-miterlimit:10;}
	.st29{fill:none;stroke:#00AEEF;stroke-width:1.5833;stroke-linecap:round;stroke-linejoin:round;stroke-miterlimit:10;}
	.st30{fill:none;stroke:#00AEEF;stroke-width:2;stroke-linecap:round;stroke-linejoin:round;stroke-miterlimit:10;}
	.st31{fill:none;stroke:#00AEEF;stroke-width:3;stroke-linecap:round;stroke-linejoin:round;stroke-miterlimit:10;}
	.st32{fill:#00AEEF;}
</style>
<g id="Layer_1">
	<g>
		<g>
			<path class="st0" d="M43,90.3c-0.2,1-1.1,1.6-2.4,1.6c-1.2,0-6.4,0-7.6,0h-0.3c-1.2,0-6.3,0-7.6,0c-1.2,0-2.2-0.6-2.4-1.6"/>
			<path class="st0" d="M49.9,90.3H15.4c-0.5,0-1-0.4-1-1v-6.6c0-0.5,0.4-1,1-1h34.5c0.5,0,1,0.4,1,1v6.6
				C50.9,89.9,50.4,90.3,49.9,90.3z"/>
			<line class="st1" x1="14.4" y1="82.5" x2="50.9" y2="82.5"/>
			<line class="st1" x1="15.1" y1="81.8" x2="15.1" y2="90.3"/>
			<line class="st1" x1="50.2" y1="81.8" x2="50.2" y2="90.3"/>
			<line class="st1" x1="14.4" y1="86.7" x2="50.9" y2="86.7"/>
			<path class="st1" d="M22.2,81.8c0.6,0.7,0.6,3.7,0.6,4.9c0,1.2,0,3.7,0,3.7"/>
			<line class="st1" x1="23.3" y1="82.5" x2="23.3" y2="90.3"/>
			<path class="st1" d="M42.8,90.3c0,0,0-2.5,0-3.7c0-1.2-0.1-4.2,0.6-4.9"/>
			<line class="st1" x1="42.3" y1="82.5" x2="42.3" y2="90.3"/>
		</g>
		<g>
			<path class="st0" d="M53.5,93.7c0.6-0.8,0.4-3.1-0.4-3.1s-0.7,0.6-0.7,1.8H32.7h0H13.1c0-1.2,0-1.8-0.7-1.8
				c-0.7,0-0.9,2.3-0.4,3.1"/>
			<line class="st2" x1="13.1" y1="92.4" x2="11.7" y2="92.4"/>
			<line class="st2" x1="52.4" y1="92.4" x2="53.8" y2="92.4"/>
		</g>
		<g>
			<polyline class="st0" points="62.5,227.9 60.2,240.6 33,240.6 32.7,240.6 5.4,240.6 3.1,227.9 			"/>
			<path class="st1" d="M6.3,227.9c0.4,4,1.7,10.5,2.6,12.7"/>
			<path class="st1" d="M15,227.9c-0.1,2.8-0.1,2.8,0,4c0.1,1.2,1.2,6.8,1.8,8.7"/>
			<path class="st1" d="M17.5,228.2c2.4,1.2,3.5,3,4,5c0.5,2,0.9,5.6,1,7.4"/>
			<path class="st1" d="M3.9,231.9c3,0,8.2,0,11.2,0s5.1,0,6.5,1.3"/>
			<path class="st1" d="M5.2,239.5c0,0,8.4,0,11.3,0s5.2,0.1,5.9-0.3"/>
		</g>
		<path class="st0" d="M32.7,237.9h9.9c0-9.5,5.3-9.9,7.8-9.9s14,0,14,0c0.5,0,0.7-0.3,0.5-0.9c-0.2-0.6-9.8-29-12.6-49.1
			c-1.8-12.7-1.5-21.1,0-29.6c1.5-8.5,4.3-40.6,1.3-51.7c-0.4-1.3,0.2-1.4,0.2-2c0-0.6-0.2-1-1.1-1c-1,0-11.3,0-11.3,0v-0.9h-1.5
			c-0.3-0.7-0.2-2.1-7.1-2.1s-6.8,1.4-7.1,2.1h-1.5v0.9c0,0-10.4,0-11.3,0s-1.1,0.4-1.1,1c0,0.6,0.6,0.7,0.2,2
			c-3,11.2-0.2,43.2,1.3,51.7c1.5,8.5,1.8,16.9,0,29.6c-2.8,20.1-12.5,48.5-12.6,49.1s0.1,0.9,0.5,0.9c0,0,11.4,0,14,0
			s7.8,0.5,7.8,9.9H32.7z"/>
		<path class="st1" d="M2.4,227.9c1.6-6,5.8-16.9,9.9-37.4c4-19.8,3-28.7,2.9-31.6c-0.1-2.9-0.3-8.4-0.4-10.9
			c-0.1-2.4-1.5-39.5-1.5-48.2"/>
		<path class="st1" d="M63.1,227.9c-1.6-6-5.8-16.9-9.9-37.4c-4-19.8-3-28.7-2.9-31.6c0.1-2.9,0.3-8.4,0.4-10.9
			c0.1-2.4,3.8-40,1.8-52.9"/>
		<line class="st3" x1="13.2" y1="148.3" x2="52.3" y2="148.3"/>
		<path class="st1" d="M13.5,150c0.2-9.5-0.9-29.2-1-36.2c-0.1-7,0.1-14.8,0.5-18.6h37.2c1.5,26.4-1.5,54.9-1.8,57.4
			c-0.3,2.5-0.8,3.2-2.7,3.2c-1.9,0-22.2,0-24.6,0s-3.6-0.2-3.9-3c-1.2-10.9-1.7-30.7-1.6-57.6"/>
		<path class="st3" d="M24,95.2c-0.2,7.8,0.4,27,0.6,29.2c0.2,2.2,0.6,3.2,3.2,3.5s7.8,0.2,9.8,0.1c2.8-0.2,3.1-2,3.3-3.5
			c0.1-1.5,1.1-23,0.5-29.3"/>
		<path class="st1" d="M24.2,93.3c0.3,0,17.2,0,17.2,0"/>
		<line class="st1" x1="26" y1="91.9" x2="39.2" y2="91.9"/>
		<path class="st4" d="M32.7,144.5c1.3,0,1.7-0.1,1.7-0.8c0-0.3,0.1-0.6,1-0.6c5.7,0,14.6-1.5,15.9-2c0.7-0.3,1.9,0,1.7,1.8
			c-0.2,1.8-0.4,2.1-1.7,2.6c-1.3,0.4-8.7,2.8-18.6,2.8s-17.3-2.3-18.6-2.8c-1.3-0.4-1.4-0.8-1.7-2.6c-0.2-1.8,0.9-2.1,1.7-1.8
			c1.3,0.5,10.2,2,15.9,2c0.9,0,1,0.3,1,0.6C31,144.5,31.5,144.5,32.7,144.5"/>
		<path class="st1" d="M12.4,142.5c6.9,3.1,11.7,3.4,20.3,3.4s13.5-0.4,20.3-2.9"/>
		<path class="st1" d="M12.6,143.8c7.9,3.4,13.5,3.5,20.2,3.5s13.6-0.7,20.1-3"/>
		<path class="st1" d="M24.3,142.8c-0.5-1.5-0.5-5.9,2.1-5.9s10.5,0,12.6,0s3.5,3,2,5.9"/>
		<path class="st1" d="M36.7,143.1c0.2-1.3,0.1-2.4-1.4-2.4c-1.4,0-2.6,0-2.6,0h0c0,0-1.2,0-2.6,0c-1.4,0-1.6,1.1-1.4,2.4"/>
		<path class="st1" d="M38.6,137c0,1.3-0.3,1.3-5.9,1.3h0c-5.6,0-5.9,0-5.9-1.3"/>
		<g>
			<path class="st1" d="M24.2,139.2c0.1,1,0.1,1.3,8.6,1.3"/>
			<path class="st1" d="M41.3,139.2c-0.1,1-0.1,1.3-8.6,1.3"/>
		</g>
		<line class="st1" x1="24" y1="140.7" x2="41.5" y2="140.7"/>
		<g>
			<path class="st1" d="M28.7,148.3c0,0,0,3.3,0,4s0.4,2.7,4.1,2.7"/>
			<path class="st1" d="M36.9,148.3c0,0,0,3.3,0,4s-0.4,2.7-4.1,2.7"/>
		</g>
		<line class="st1" x1="32.7" y1="91.9" x2="32.7" y2="240.6"/>
		<path class="st1" d="M12.8,96.5c0,0,0.5,0,1.1,0c0.5,0,0.7,0.1,0.7,0.6c0,0.5,0,1.7,0,2.2s-0.2,0.6-0.6,0.6s-1.4,0-1.4,0"/>
		<path class="st1" d="M14.4,159l4,0.2c2.3,22.7,2.2,43.4,2.2,70.7"/>
		<path class="st1" d="M17.8,159.2c2.1,19.9,2.1,55.9,2.1,70.1"/>
		<path class="st1" d="M51.1,159l-4,0.2c-2.3,22.7-2.2,43.4-2.2,70.7"/>
		<path class="st1" d="M47.7,159.2c-2.1,19.9-2.1,55.9-2.1,70.1"/>
		<line class="st1" x1="50.1" y1="95.2" x2="53.8" y2="95.2"/>
		<g>
			<polyline class="st3" points="2.4,221.2 6.3,221.2 8.4,227.9 			"/>
			<polyline class="st3" points="63.1,221.1 59.2,221.1 57.1,227.9 			"/>
			<line class="st1" x1="7.6" y1="225.3" x2="57.9" y2="225.3"/>
		</g>
		<g>
			<path class="st3" d="M32.7,205.3c9.4,0,10.3,0.8,11.5,2.6v20.1c-0.5,1.2-2.2,3.8-11.5,3.8s-11-2.6-11.5-3.8V208
				C22.4,206.1,23.3,205.3,32.7,205.3z"/>
			<path class="st1" d="M43.3,229.3v-21.2c-0.9-1.1-0.9-2.2-10.6-2.2s-9.7,1-10.6,2.2v21.2"/>
			<line class="st1" x1="23.2" y1="207" x2="23.2" y2="230"/>
			<line class="st1" x1="42.2" y1="207" x2="42.2" y2="230"/>
			<g>
				<rect x="23.9" y="207.7" class="st1" width="8" height="0.9"/>
				<rect x="24.3" y="209.6" class="st1" width="7.6" height="0.9"/>
				<rect x="24.7" y="211.6" class="st1" width="7.2" height="0.9"/>
			</g>
			<g>
				<rect x="33.5" y="207.7" class="st1" width="8" height="0.9"/>
				<rect x="33.5" y="209.6" class="st1" width="7.6" height="0.9"/>
				<rect x="33.5" y="211.6" class="st1" width="7.2" height="0.9"/>
			</g>
		</g>
		<path class="st1" d="M43,229.8c-0.5,1.7-1.5,3.9-1.5,6.9h-8.7H24c0-3-1-5.2-1.5-6.9"/>
		<g>
			<path class="st1" d="M25.1,231.9h3.7c0,0,0,1.8,0,2.6c0,0.9-1,1.3-1.8,1.3c-0.8,0-1.8-0.5-1.8-1.3S25.1,231.9,25.1,231.9z"/>
			<line class="st1" x1="25.1" y1="234.6" x2="28.8" y2="234.6"/>
		</g>
		<g>
			<path class="st1" d="M36.6,231.9h3.7c0,0,0,1.8,0,2.6c0,0.9-1,1.3-1.8,1.3c-0.8,0-1.8-0.5-1.8-1.3S36.6,231.9,36.6,231.9z"/>
			<line class="st1" x1="36.6" y1="234.6" x2="40.2" y2="234.6"/>
		</g>
		<g>
			<path class="st5" d="M32.7,226.1c0,0,20.8,0,21.4,0s0.8-0.4,0.8-0.9s-1-4.4-3.2-5.5c-0.6-0.3-1-0.4-1.7-0.4s-17.3,0-17.3,0
				s-16.6,0-17.3,0c-0.7,0-1.1,0.1-1.7,0.4c-2.1,1.1-3.2,5-3.2,5.5s0.1,0.9,0.8,0.9C11.9,226.1,32.7,226.1,32.7,226.1z"/>
			<line class="st1" x1="11.6" y1="222.1" x2="53.8" y2="222.1"/>
		</g>
		<g>
			<path class="st1" d="M59.3,227.9c-0.4,4-1.7,10.5-2.6,12.7"/>
			<path class="st1" d="M50.6,227.9c0.1,2.8,0.1,2.8,0,4c-0.1,1.2-1.2,6.8-1.8,8.7"/>
			<path class="st1" d="M48.2,228.2c-2.4,1.2-3.5,3-4,5c-0.5,2-0.9,5.6-1,7.4"/>
			<path class="st1" d="M61.8,231.9c-3,0-8.2,0-11.2,0c-3,0-5.1,0-6.5,1.3"/>
			<path class="st1" d="M60.4,239.5c0,0-8.4,0-11.3,0c-2.8,0-5.2,0.1-5.9-0.3"/>
		</g>
		<g>
			<g>
				<path class="st6" d="M23.6,157.9h-4.9c0.7,0.6,1,1.1,1.8,1.1s3,0,3,0V157.9z"/>
				<line class="st1" x1="20.6" y1="157.9" x2="20.6" y2="159"/>
			</g>
			<g>
				<path class="st6" d="M23.6,160.1H19c0.7,0.6,1,1,1.7,1s2.8,0,2.8,0V160.1z"/>
				<line class="st1" x1="20.8" y1="160.1" x2="20.8" y2="161.1"/>
			</g>
			<g>
				<path class="st6" d="M23.6,162.2h-4.2c0.6,0.6,0.9,1,1.6,1c0.7,0,2.6,0,2.6,0V162.2z"/>
				<line class="st1" x1="21" y1="162.2" x2="21" y2="163.2"/>
			</g>
			<g>
				<path class="st6" d="M23.6,164.4h-3.9c0.6,0.5,0.8,0.9,1.5,0.9s2.4,0,2.4,0V164.4z"/>
				<line class="st1" x1="21.2" y1="164.4" x2="21.2" y2="165.3"/>
			</g>
			<g>
				<path class="st6" d="M23.6,166.5H20c0.5,0.5,0.8,0.8,1.4,0.8c0.6,0,2.2,0,2.2,0V166.5z"/>
				<line class="st1" x1="21.4" y1="166.5" x2="21.4" y2="167.4"/>
			</g>
		</g>
		<g>
			<g>
				<path class="st6" d="M41.6,158h4.9c-0.7,0.6-1,1.1-1.8,1.1c-0.8,0-3,0-3,0V158z"/>
				<line class="st1" x1="44.7" y1="158" x2="44.7" y2="159.1"/>
			</g>
			<g>
				<path class="st6" d="M41.6,160.2h4.6c-0.7,0.6-1,1-1.7,1c-0.7,0-2.8,0-2.8,0V160.2z"/>
				<line class="st1" x1="44.5" y1="160.2" x2="44.5" y2="161.2"/>
			</g>
			<g>
				<path class="st6" d="M41.6,162.3h4.2c-0.6,0.6-0.9,1-1.6,1c-0.7,0-2.6,0-2.6,0V162.3z"/>
				<line class="st1" x1="44.3" y1="162.3" x2="44.3" y2="163.3"/>
			</g>
			<g>
				<path class="st6" d="M41.6,164.5h3.9c-0.6,0.5-0.8,0.9-1.5,0.9c-0.6,0-2.4,0-2.4,0V164.5z"/>
				<line class="st1" x1="44.1" y1="164.5" x2="44.1" y2="165.4"/>
			</g>
			<g>
				<path class="st6" d="M41.6,166.6h3.6c-0.5,0.5-0.8,0.8-1.4,0.8c-0.6,0-2.2,0-2.2,0V166.6z"/>
				<line class="st1" x1="43.9" y1="166.6" x2="43.9" y2="167.4"/>
			</g>
		</g>
		<g>
			<line class="st1" x1="26.2" y1="158" x2="26.2" y2="167.4"/>
			<line class="st1" x1="27" y1="158" x2="27" y2="167.4"/>
			<line class="st1" x1="27.8" y1="158" x2="27.8" y2="167.4"/>
			<line class="st1" x1="28.7" y1="158" x2="28.7" y2="167.4"/>
			<line class="st1" x1="29.5" y1="158" x2="29.5" y2="167.4"/>
			<line class="st1" x1="30.3" y1="158" x2="30.3" y2="167.4"/>
			<line class="st1" x1="31.1" y1="158" x2="31.1" y2="167.4"/>
			<line class="st1" x1="31.9" y1="158" x2="31.9" y2="167.4"/>
			<line class="st1" x1="32.7" y1="158" x2="32.7" y2="167.4"/>
			<line class="st1" x1="33.5" y1="158" x2="33.5" y2="167.4"/>
			<line class="st1" x1="34.3" y1="158" x2="34.3" y2="167.4"/>
			<line class="st1" x1="35.2" y1="158" x2="35.2" y2="167.4"/>
			<line class="st1" x1="36" y1="158" x2="36" y2="167.4"/>
			<line class="st1" x1="36.8" y1="158" x2="36.8" y2="167.4"/>
			<line class="st1" x1="37.6" y1="158" x2="37.6" y2="167.4"/>
			<line class="st1" x1="38.4" y1="158" x2="38.4" y2="167.4"/>
			<line class="st1" x1="39.2" y1="158" x2="39.2" y2="167.4"/>
		</g>
		<g>
			<line class="st1" x1="26.2" y1="158" x2="39.2" y2="158"/>
			<line class="st1" x1="26.2" y1="158.6" x2="39.2" y2="158.6"/>
			<line class="st1" x1="26.2" y1="159.2" x2="39.2" y2="159.2"/>
			<line class="st1" x1="26.2" y1="159.8" x2="39.2" y2="159.8"/>
			<line class="st1" x1="26.2" y1="160.4" x2="39.2" y2="160.4"/>
			<line class="st1" x1="26.2" y1="160.9" x2="39.2" y2="160.9"/>
			<line class="st1" x1="26.2" y1="161.5" x2="39.2" y2="161.5"/>
			<line class="st1" x1="26.2" y1="162.1" x2="39.2" y2="162.1"/>
			<line class="st1" x1="26.2" y1="162.7" x2="39.2" y2="162.7"/>
			<line class="st1" x1="26.2" y1="163.3" x2="39.2" y2="163.3"/>
			<line class="st1" x1="26.2" y1="163.9" x2="39.2" y2="163.9"/>
			<line class="st1" x1="26.2" y1="164.5" x2="39.2" y2="164.5"/>
			<line class="st1" x1="26.2" y1="165.1" x2="39.2" y2="165.1"/>
			<line class="st1" x1="26.2" y1="165.7" x2="39.2" y2="165.7"/>
			<line class="st1" x1="26.2" y1="166.3" x2="39.2" y2="166.3"/>
			<line class="st1" x1="26.2" y1="166.8" x2="39.2" y2="166.8"/>
			<line class="st1" x1="26.2" y1="167.4" x2="39.2" y2="167.4"/>
		</g>
		<circle class="st1" cx="46.9" cy="150.7" r="0.8"/>
		<circle class="st1" cx="18.8" cy="150.7" r="0.8"/>
		<path class="st1" d="M22.8,103.1L22.8,103.1c-0.7,0.7-1.7,0.7-2.4,0l-2.8-2.8c-0.7-0.7-0.7-1.7,0-2.4l0,0c0.7-0.7,1.7-0.7,2.4,0
			l2.8,2.8C23.4,101.4,23.4,102.4,22.8,103.1z"/>
		<path class="st1" d="M22.8,103.1L22.8,103.1c-0.7,0.7-1.7,0.7-2.4,0l-2.8-2.8c-0.7-0.7-0.7-1.7,0-2.4l0,0c0.7-0.7,1.7-0.7,2.4,0
			l2.8,2.8C23.4,101.4,23.4,102.4,22.8,103.1z"/>
		<path class="st1" d="M22.8,113L22.8,113c-0.7,0.7-1.7,0.7-2.4,0l-2.8-2.8c-0.7-0.7-0.7-1.7,0-2.4h0c0.7-0.7,1.7-0.7,2.4,0l2.8,2.8
			C23.4,111.2,23.4,112.3,22.8,113z"/>
		<path class="st1" d="M23.5,125.8L23.5,125.8c-0.7,0.7-1.7,0.7-2.4,0l-2.8-2.8c-0.7-0.7-0.7-1.7,0-2.4l0,0c0.7-0.7,1.7-0.7,2.4,0
			l2.8,2.8C24.1,124,24.1,125.1,23.5,125.8z"/>
		<path class="st1" d="M42.6,103.1L42.6,103.1c0.7,0.7,1.7,0.7,2.4,0l2.8-2.8c0.7-0.7,0.7-1.7,0-2.4l0,0c-0.7-0.7-1.7-0.7-2.4,0
			l-2.8,2.8C42,101.4,42,102.4,42.6,103.1z"/>
		<circle class="st1" cx="18.9" cy="99.2" r="0.9"/>
		<circle class="st1" cx="21.5" cy="101.8" r="0.9"/>
		<circle class="st1" cx="20.1" cy="110.4" r="1.1"/>
		<circle class="st1" cx="19.4" cy="121.7" r="0.8"/>
		<circle class="st1" cx="22.4" cy="124.7" r="0.8"/>
		<g>
			<circle class="st1" cx="46.4" cy="107.2" r="1.8"/>
			<circle class="st1" cx="46.4" cy="107.2" r="1"/>
		</g>
		<g>
			<circle class="st1" cx="44.1" cy="113.9" r="1.8"/>
			<circle class="st1" cx="44.2" cy="113.9" r="1"/>
		</g>
		<g>
			<circle class="st1" cx="46.2" cy="124.4" r="1.8"/>
			<circle class="st1" cx="46.2" cy="124.4" r="1"/>
		</g>
		<g>
			<rect x="3.9" y="235.7" class="st0" width="4.8" height="10.5"/>
			<path class="st4" d="M8.6,238.7v2.3c-0.4,0.8-1,1.2-2.2,1.2s-1.9-0.4-2.2-1.2v-2.3"/>
			<path class="st1" d="M4.6,231.3c0.5,0.5,0.6,3.3,0.6,4.5"/>
			<path class="st1" d="M8,231.3c-0.5,0.5-0.6,3.3-0.6,4.5"/>
			<path class="st0" d="M6.3,246.2H4.1c0,0,0-0.3,0-1.3s0.7-1.4,1.7-1.4v-4.3c-2-2.3-2.6-3.5-2.6-7.8h3.1h3.1c0,4.3-0.6,5.5-2.6,7.8
				v4.3c1,0,1.7,0.3,1.7,1.4s0,1.3,0,1.3H6.3z"/>
			<g>
				<path class="st0" d="M2.6,248.2L2.6,248.2c-0.7,0-1.3-0.6-1.3-1.3v-13.5c0-0.7,0.6-1.3,1.3-1.3h0c0.7,0,1.3,0.6,1.3,1.3v13.5
					C3.9,247.6,3.3,248.2,2.6,248.2z"/>
				<line class="st1" x1="1.9" y1="232.2" x2="1.9" y2="248.1"/>
				<line class="st1" x1="3.3" y1="248.1" x2="3.3" y2="232.2"/>
			</g>
			<g>
				<path class="st0" d="M10,248.2L10,248.2c-0.7,0-1.3-0.6-1.3-1.3v-13.5c0-0.7,0.6-1.3,1.3-1.3h0c0.7,0,1.3,0.6,1.3,1.3v13.5
					C11.3,247.6,10.7,248.2,10,248.2z"/>
				<line class="st1" x1="9.3" y1="232.2" x2="9.3" y2="248.1"/>
				<line class="st1" x1="10.7" y1="248.1" x2="10.7" y2="232.2"/>
			</g>
			<path class="st4" d="M6.3,238.7h3.6c-0.4-0.9-1.3-1.2-3.6-1.2s-3.2,0.3-3.6,1.2H6.3z"/>
		</g>
		<g>
			<rect x="56.8" y="235.7" class="st0" width="4.8" height="10.5"/>
			<path class="st4" d="M61.4,238.7v2.3c-0.4,0.8-1,1.2-2.2,1.2c-1.3,0-1.9-0.4-2.2-1.2v-2.3"/>
			<path class="st1" d="M57.5,231.3c0.5,0.5,0.6,3.3,0.6,4.5"/>
			<path class="st1" d="M60.9,231.3c-0.5,0.5-0.6,3.3-0.6,4.5"/>
			<path class="st0" d="M59.2,246.2H57c0,0,0-0.3,0-1.3s0.7-1.4,1.7-1.4v-4.3c-2-2.3-2.6-3.5-2.6-7.8h3.1h3.1c0,4.3-0.6,5.5-2.6,7.8
				v4.3c1,0,1.7,0.3,1.7,1.4s0,1.3,0,1.3H59.2z"/>
			<g>
				<path class="st0" d="M55.4,248.2L55.4,248.2c-0.7,0-1.3-0.6-1.3-1.3v-13.5c0-0.7,0.6-1.3,1.3-1.3l0,0c0.7,0,1.3,0.6,1.3,1.3
					v13.5C56.8,247.6,56.2,248.2,55.4,248.2z"/>
				<line class="st1" x1="54.7" y1="232.2" x2="54.7" y2="248.1"/>
				<line class="st1" x1="56.2" y1="248.1" x2="56.2" y2="232.2"/>
			</g>
			<g>
				<path class="st0" d="M62.9,248.2L62.9,248.2c-0.7,0-1.3-0.6-1.3-1.3v-13.5c0-0.7,0.6-1.3,1.3-1.3h0c0.7,0,1.3,0.6,1.3,1.3v13.5
					C64.2,247.6,63.6,248.2,62.9,248.2z"/>
				<line class="st1" x1="62.1" y1="232.2" x2="62.1" y2="248.1"/>
				<line class="st1" x1="63.6" y1="248.1" x2="63.6" y2="232.2"/>
			</g>
			<path class="st4" d="M59.2,238.7h3.6c-0.4-0.9-1.3-1.2-3.6-1.2c-2.3,0-3.2,0.3-3.6,1.2H59.2z"/>
		</g>
		<g>
			<path class="st0" d="M59.1,82.2H6.3c-1.1,0-2-0.9-2-2V37.2c0-1.1,0.9-2,2-2h52.7c1.1,0,2,0.9,2,2v43.1
				C61,81.3,60.2,82.2,59.1,82.2z"/>
			<rect x="8.2" y="39" class="st3" width="49.2" height="39.2"/>
			<rect x="30.8" y="36" class="st1" width="3.9" height="2"/>
			<rect x="31.8" y="79.4" class="st1" width="2.9" height="1.8"/>
		</g>
	</g>
	<g class="st7">
		<g class="st8">
			<path class="st9" d="M324.2,235.7c-0.3,0-1.2-0.1-1.2,0.9c0,1,0,11.4,0,11.8c0,0.4,0.4,0.7,1.1,0.7c0.8,0,1-0.4,1-0.7
				s0-12.6,0-12.6H324.2z"/>
			<path class="st9" d="M329.9,235.7c0.3,0,1.2-0.1,1.2,0.9s0,11.4,0,11.8c0,0.4-0.4,0.7-1.1,0.7c-0.8,0-1-0.4-1-0.7s0-12.6,0-12.6
				H329.9z"/>
			<path class="st9" d="M325.1,247.3c0.3-0.1,0.6-0.7,0.7-1.2c0.1-0.5,0.4-0.8,0.7-0.9v1.9l0.5,0.5l0.5-0.5v-2
				c0.4,0.2,0.7,0.5,0.9,1.2c0.1,0.4,0.3,0.8,0.7,1v-6h-3.9V247.3z"/>
			<rect x="325.6" y="232.1" class="st9" width="3.2" height="0.5"/>
			<rect x="323.8" y="231.7" class="st9" width="7" height="0.4"/>
			<g>
				<path class="st9" d="M325.3,232.6c-0.6,0-1.1,0.3-1.1,1.1c0,0.8,0,2.8,0,3.5s0.4,1.5,0.5,1.9c0.2,0.4,0.2,1.9,0.2,2.3
					c0,0.4,0.7,1.3,1.4,1.3s1.2,0,1.6,0c0.6,0,1.1-0.6,1.1-1.3s0.4-1.7,0.5-2.3c0.2-0.6,0.4-1.1,0.4-1.8s0-3,0-3.4
					c0-0.5-0.1-1.2-0.7-1.2S326.3,232.6,325.3,232.6z"/>
				<path class="st10" d="M324.2,233.6c0.8,0.4,2,0.4,2.9,0.4c0.9,0,2.3-0.1,2.9-0.3"/>
			</g>
			<path class="st11" d="M322,249.2L322,249.2c-0.5,0-0.9-0.4-0.9-0.9v-10.9c0-0.5,0.4-0.9,0.9-0.9l0,0c0.5,0,0.9,0.4,0.9,0.9v10.9
				C322.9,248.8,322.5,249.2,322,249.2z"/>
			<path class="st11" d="M332.2,249.2L332.2,249.2c-0.5,0-0.9-0.4-0.9-0.9v-10.9c0-0.5,0.4-0.9,0.9-0.9l0,0c0.5,0,0.9,0.4,0.9,0.9
				v10.9C333,248.8,332.6,249.2,332.2,249.2z"/>
		</g>
		<g class="st8">
			<path class="st9" d="M332.5,230.5c0.4,0,0.4,0,0.4,0.3s0,0.2,0,0.4s0.1,0.3-0.2,0.3s-12.3,0-12.3,0c-0.4,0.2-0.6,0.8-0.6,1.3
				s0,5.9,0,6.7s-0.1,1.8-2.2,1.8s-25.2,0-25.2,0v-1.2c0,0,17.5,0,18.1,0c1,0,1.3-0.5,1.3-1.3c0-1.5,0-4.4,0-5.9
				c0-2,0.9-2.3,2.9-2.3C316,230.5,332.5,230.5,332.5,230.5z"/>
			<path class="st12" d="M320.4,231.5c0,0-4.9,0-5.9,0c-1.3,0-1.7,0.6-1.7,1.5c0,0.6,0,5.4,0,6.3s-0.3,1.9-2.4,1.9"/>
		</g>
		<g class="st8">
			<path class="st9" d="M252.3,230.5c-0.4,0-0.4,0-0.4,0.3s0,0.2,0,0.4s-0.1,0.3,0.2,0.3s12.3,0,12.3,0c0.4,0.2,0.6,0.8,0.6,1.3
				s0,5.9,0,6.7s0.1,1.8,2.2,1.8s25.2,0,25.2,0v-1.2c0,0-17.5,0-18.1,0c-1,0-1.3-0.5-1.3-1.3c0-1.5,0-4.4,0-5.9c0-2-0.9-2.3-2.9-2.3
				C268.8,230.5,252.3,230.5,252.3,230.5z"/>
			<path class="st12" d="M264.4,231.5c0,0,4.9,0,5.9,0c1.3,0,1.7,0.6,1.7,1.5c0,0.6,0,5.4,0,6.3s0.3,1.9,2.4,1.9"/>
		</g>
		<g class="st8">
			<path class="st9" d="M254.6,235.7c-0.3,0-1.2-0.1-1.2,0.9c0,1,0,11.4,0,11.8c0,0.4,0.4,0.7,1.1,0.7c0.8,0,1-0.4,1-0.7
				s0-12.6,0-12.6H254.6z"/>
			<path class="st9" d="M260.2,235.7c0.3,0,1.2-0.1,1.2,0.9s0,11.4,0,11.8c0,0.4-0.4,0.7-1.1,0.7c-0.8,0-1-0.4-1-0.7s0-12.6,0-12.6
				H260.2z"/>
			<path class="st9" d="M255.4,247.3c0.3-0.1,0.6-0.7,0.7-1.2c0.1-0.5,0.4-0.8,0.7-0.9v1.9l0.5,0.5l0.5-0.5v-2
				c0.4,0.2,0.7,0.5,0.9,1.2c0.1,0.4,0.3,0.8,0.7,1v-6h-3.9V247.3z"/>
			<rect x="256" y="232.1" class="st9" width="3.2" height="0.5"/>
			<rect x="254.1" y="231.7" class="st9" width="7" height="0.4"/>
			<g>
				<path class="st9" d="M255.6,232.6c-0.6,0-1.1,0.3-1.1,1.1c0,0.8,0,2.8,0,3.5s0.4,1.5,0.5,1.9c0.2,0.4,0.2,1.9,0.2,2.3
					c0,0.4,0.7,1.3,1.4,1.3s1.2,0,1.6,0c0.6,0,1.1-0.6,1.1-1.3s0.4-1.7,0.5-2.3c0.2-0.6,0.4-1.1,0.4-1.8s0-3,0-3.4
					c0-0.5-0.1-1.2-0.7-1.2S256.6,232.6,255.6,232.6z"/>
				<path class="st10" d="M254.6,233.6c0.8,0.4,2,0.4,2.9,0.4c0.9,0,2.3-0.1,2.9-0.3"/>
			</g>
			<path class="st11" d="M252.3,249.2L252.3,249.2c-0.5,0-0.9-0.4-0.9-0.9v-10.9c0-0.5,0.4-0.9,0.9-0.9l0,0c0.5,0,0.9,0.4,0.9,0.9
				v10.9C253.2,248.8,252.8,249.2,252.3,249.2z"/>
			<path class="st11" d="M262.5,249.2L262.5,249.2c-0.5,0-0.9-0.4-0.9-0.9v-10.9c0-0.5,0.4-0.9,0.9-0.9l0,0c0.5,0,0.9,0.4,0.9,0.9
				v10.9C263.3,248.8,262.9,249.2,262.5,249.2z"/>
		</g>
		<g class="st8">
			<path class="st11" d="M323.2,135.7h-61.9c-1.2,0-2.2,1-2.2,2.2v72.5c0,1.2,1,2.2,2.2,2.2c0,0,7.3,0,10.3,0c1.6,0,2.9,1,2.9,2.9
				c0,1.2,0,22.1,0,22.1c0,1.2,1,2.2,2.2,2.2h31.6c1.2,0,2.2-1,2.2-2.2c0,0,0-20.3,0-22.5c0-1.6,1-2.6,2.9-2.6c1.4,0,9.8,0,9.8,0
				c1.2,0,2.2-1,2.2-2.2v-72.5C325.4,136.7,324.4,135.7,323.2,135.7z"/>
			<path class="st9" d="M320.6,138.6h-56.8c-2.1,0-2,0-2,2v67.1c0,2,0,2,2,2c0,0,5.4,0,8.2,0c3.1,0,4.9,2,4.9,5.2
				c0,1.1,0,20.2,0,20.2c0,2,0,2,2,2h26.8c2,0,2,0,2-2c0,0,0-18.1,0-20.1c0-3.2,2.3-5.2,5.1-5.2c1.3,0,7.7,0,7.7,0c2,0,2,0,2-2
				v-67.1C322.6,138.6,322.6,138.6,320.6,138.6z"/>
			<line class="st10" x1="274.5" y1="230.9" x2="310.4" y2="230.9"/>
			<line class="st10" x1="259.1" y1="152.5" x2="325.4" y2="152.5"/>
			<g>
				<path class="st9" d="M325.4,164.1c0.5,0,0.7,0.4,0.7,0.9h-0.7V164.1z"/>
				<path class="st9" d="M325.4,169.8c0.5,0,0.7,0.4,0.7,0.9h-0.7V169.8z"/>
				<path class="st9" d="M325.4,175.4c0.5,0,0.7,0.4,0.7,0.9h-0.7V175.4z"/>
				<path class="st9" d="M325.4,181.1c0.5,0,0.7,0.4,0.7,0.9h-0.7V181.1z"/>
				<path class="st9" d="M325.4,186.7c0.5,0,0.7,0.4,0.7,0.9h-0.7V186.7z"/>
				<path class="st9" d="M325.4,192.4c0.5,0,0.7,0.4,0.7,0.9h-0.7V192.4z"/>
				<path class="st9" d="M325.4,198c0.5,0,0.7,0.4,0.7,0.9h-0.7V198z"/>
			</g>
			<g>
				<path class="st9" d="M259.1,164.3c-0.5,0-0.7,0.4-0.7,0.9h0.7V164.3z"/>
				<path class="st9" d="M259.1,170c-0.5,0-0.7,0.4-0.7,0.9h0.7V170z"/>
				<path class="st9" d="M259.1,175.6c-0.5,0-0.7,0.4-0.7,0.9h0.7V175.6z"/>
				<path class="st9" d="M259.1,181.3c-0.5,0-0.7,0.4-0.7,0.9h0.7V181.3z"/>
				<path class="st9" d="M259.1,186.9c-0.5,0-0.7,0.4-0.7,0.9h0.7V186.9z"/>
				<path class="st9" d="M259.1,192.6c-0.5,0-0.7,0.4-0.7,0.9h0.7V192.6z"/>
				<path class="st9" d="M259.1,198.2c-0.5,0-0.7,0.4-0.7,0.9h0.7V198.2z"/>
			</g>
			<path class="st9" d="M300.6,148.1L300.6,148.1c0-0.8,0.6-1.4,1.4-1.4h3.3c0.8,0,1.4,0.6,1.4,1.4v0c0,0.8-0.6,1.4-1.4,1.4H302
				C301.3,149.5,300.6,148.9,300.6,148.1z"/>
		</g>
		<rect x="286.4" y="128.3" class="st13" width="11.7" height="113"/>
		<line class="st14" x1="286.4" y1="214.1" x2="298.1" y2="214.1"/>
		<line class="st14" x1="286.4" y1="230.7" x2="298.1" y2="230.7"/>
		<g class="st8">
			<polygon class="st11" points="298.1,228.8 300.1,228.9 300.2,229.8 300.2,237.2 300.2,241.4 298.1,241.4 			"/>
			<line class="st10" x1="300.2" y1="229.8" x2="298.1" y2="230"/>
			<line class="st10" x1="300.2" y1="237.2" x2="298.1" y2="237.3"/>
		</g>
		<g class="st8">
			<polygon class="st11" points="286.4,228.8 284.4,228.9 284.2,229.8 284.2,237.2 284.2,241.4 286.4,241.4 			"/>
			<line class="st10" x1="284.2" y1="229.8" x2="286.4" y2="230"/>
			<line class="st10" x1="284.2" y1="237.2" x2="286.4" y2="237.3"/>
		</g>
		<circle class="st14" cx="290" cy="237.1" r="0.4"/>
		<circle class="st14" cx="295.3" cy="237.1" r="0.4"/>
		<g class="st8">
			<path class="st11" d="M299.1,140.9c0,0,30.7,0,31.7,0s1.8,0.4,1.8,1.2c0,0.8-0.9,1.7-2.1,1.7c-0.7,0-5,0-5,0v-0.4h-26.5V140.9z"
				/>
			<line class="st15" x1="325.6" y1="143.4" x2="331.9" y2="143.4"/>
			<path class="st10" d="M299.1,141.5c0,0,31.1,0,31.8,0c0.7,0,1.2,0,1.7,0.2"/>
			<path class="st10" d="M299.1,142.8c0,0,31.1,0,31.8,0c0.7,0,1.2,0,1.7-0.2"/>
			<path class="st10" d="M330.9,140.9c0.3,0.2,0.3,0.5,0.4,0.6c0,0.2,0.1,1,0,1.2c-0.1,0.2-0.2,0.4-0.4,0.6"/>
			<rect x="298.3" y="133.4" class="st11" width="0.8" height="16.9"/>
		</g>
		<g class="st8">
			<path class="st11" d="M285.7,140.9c0,0-30.7,0-31.7,0c-1.1,0-1.8,0.4-1.8,1.2c0,0.8,0.9,1.7,2.1,1.7c0.7,0,5,0,5,0v-0.4h26.5
				V140.9z"/>
			<line class="st15" x1="259.2" y1="143.4" x2="253" y2="143.4"/>
			<path class="st10" d="M285.7,141.5c0,0-31.1,0-31.8,0c-0.7,0-1.2,0-1.7,0.2"/>
			<path class="st10" d="M285.7,142.8c0,0-31.1,0-31.8,0c-0.7,0-1.2,0-1.7-0.2"/>
			<path class="st10" d="M254,140.9c-0.3,0.2-0.3,0.5-0.4,0.6c0,0.2-0.1,1,0,1.2c0.1,0.2,0.2,0.4,0.4,0.6"/>
			
				<rect x="285.7" y="133.4" transform="matrix(-1 -4.393342e-11 4.393342e-11 -1 572.2604 283.7079)" class="st11" width="0.8" height="16.9"/>
		</g>
		<path class="st13" d="M354.3,128.9H229.4c-0.6,0-1-0.4-1-1V55.3c0-0.5,0.4-1,1-1h124.9c0.5,0,1,0.5,1,1v72.7
			C355.3,128.5,354.8,128.9,354.3,128.9z"/>
		<rect x="230" y="56" class="st16" width="123.6" height="69.7"/>
		<circle class="st14" cx="351.9" cy="127.4" r="0.3"/>
	</g>
	<g>
		<g>
			<g>
				<path class="st17" d="M344,233.2c-0.4,0-1.6-0.2-1.6,1.1s0,14.6,0,15.1s0.5,0.9,1.5,0.9s1.2-0.5,1.2-0.9s0-16.1,0-16.1H344z"/>
				<path class="st17" d="M351.3,233.2c0.4,0,1.6-0.2,1.6,1.1c0,1.2,0,14.6,0,15.1s-0.5,0.9-1.5,0.9s-1.2-0.5-1.2-0.9s0-16.1,0-16.1
					H351.3z"/>
				<path class="st17" d="M345.1,248.1c0.4-0.1,0.8-0.9,0.8-1.5c0.1-0.6,0.5-1,0.8-1.1v2.5l0.7,0.7l0.6-0.6v-2.6
					c0.5,0.3,0.9,0.6,1.1,1.5c0.1,0.5,0.4,1,1,1.3v-7.6h-5V248.1z"/>
				<rect x="345.8" y="228.6" class="st17" width="4.1" height="0.6"/>
				<rect x="343.4" y="228.1" class="st17" width="9" height="0.5"/>
				<g>
					<path class="st17" d="M345.4,229.2c-0.8,0-1.4,0.3-1.4,1.4c0,1.1,0,3.6,0,4.5c0,0.9,0.5,2,0.7,2.5s0.3,2.4,0.3,2.9
						c0,0.5,0.9,1.6,1.8,1.6s1.6,0,2.1,0c0.8,0,1.4-0.8,1.4-1.6c0-0.9,0.5-2.2,0.7-3s0.5-1.5,0.5-2.3c0-0.9,0-3.8,0-4.4
						c0-0.6-0.1-1.5-1-1.5C349.7,229.2,346.6,229.2,345.4,229.2z"/>
					<path class="st18" d="M344,230.6c1.1,0.5,2.6,0.6,3.7,0.6c1.1,0,2.9-0.1,3.7-0.4"/>
				</g>
				<path class="st11" d="M341.2,250.5L341.2,250.5c-0.6,0-1.1-0.5-1.1-1.1v-14c0-0.6,0.5-1.1,1.1-1.1l0,0c0.6,0,1.1,0.5,1.1,1.1v14
					C342.2,250,341.8,250.5,341.2,250.5z"/>
				<path class="st11" d="M354.2,250.5L354.2,250.5c-0.6,0-1.1-0.5-1.1-1.1v-14c0-0.6,0.5-1.1,1.1-1.1l0,0c0.6,0,1.1,0.5,1.1,1.1v14
					C355.3,250,354.8,250.5,354.2,250.5z"/>
			</g>
			<g>
				<path class="st17" d="M354.6,226.6c0.5,0,0.6,0.1,0.6,0.4s0,0.2,0,0.5c0,0.3,0.1,0.4-0.3,0.4c-0.4,0-15.8,0-15.8,0
					c-0.5,0.2-0.8,1-0.8,1.6s0,7.5,0,8.6s-0.1,2.3-2.8,2.3c-2.7,0-32.3,0-32.3,0v-1.5c0,0,22.4,0,23.2,0c1.2,0,1.7-0.6,1.7-1.7
					c0-2,0-5.6,0-7.6c0-2.5,1.1-3,3.7-3C333.4,226.6,354.6,226.6,354.6,226.6z"/>
				<path class="st19" d="M339.1,227.9c0,0-6.3,0-7.5,0c-1.7,0-2.1,0.7-2.1,1.9c0,0.8,0,7,0,8s-0.4,2.5-3.1,2.5"/>
			</g>
			<g>
				<path class="st17" d="M251.8,226.6c-0.5,0-0.6,0.1-0.6,0.4s0,0.2,0,0.5c0,0.3-0.1,0.4,0.3,0.4s15.8,0,15.8,0
					c0.5,0.2,0.8,1,0.8,1.6s0,7.5,0,8.6s0.1,2.3,2.8,2.3s32.3,0,32.3,0v-1.5c0,0-22.4,0-23.2,0c-1.2,0-1.7-0.6-1.7-1.7
					c0-2,0-5.6,0-7.6c0-2.5-1.1-3-3.7-3C272.9,226.6,251.8,226.6,251.8,226.6z"/>
				<path class="st19" d="M267.3,227.9c0,0,6.3,0,7.5,0c1.7,0,2.1,0.7,2.1,1.9c0,0.8,0,7,0,8s0.4,2.5,3.1,2.5"/>
			</g>
			<g>
				<path class="st17" d="M254.6,233.2c-0.4,0-1.6-0.2-1.6,1.1s0,14.6,0,15.1s0.5,0.9,1.5,0.9s1.2-0.5,1.2-0.9s0-16.1,0-16.1H254.6z
					"/>
				<path class="st17" d="M261.9,233.2c0.4,0,1.6-0.2,1.6,1.1c0,1.2,0,14.6,0,15.1s-0.5,0.9-1.5,0.9c-1,0-1.2-0.5-1.2-0.9
					s0-16.1,0-16.1H261.9z"/>
				<path class="st17" d="M255.7,248.1c0.4-0.1,0.8-0.9,0.8-1.5c0.1-0.6,0.5-1,0.8-1.1v2.5l0.7,0.7l0.6-0.6v-2.6
					c0.5,0.3,0.9,0.6,1.1,1.5c0.1,0.5,0.4,1,1,1.3v-7.6h-5V248.1z"/>
				<rect x="256.4" y="228.6" class="st17" width="4.1" height="0.6"/>
				<rect x="254" y="228.1" class="st17" width="9" height="0.5"/>
				<g>
					<path class="st17" d="M256,229.2c-0.8,0-1.4,0.3-1.4,1.4c0,1.1,0,3.6,0,4.5c0,0.9,0.5,2,0.7,2.5c0.2,0.5,0.3,2.4,0.3,2.9
						c0,0.5,0.9,1.6,1.8,1.6c0.9,0,1.6,0,2.1,0c0.8,0,1.4-0.8,1.4-1.6c0-0.9,0.5-2.2,0.7-3s0.5-1.5,0.5-2.3c0-0.9,0-3.8,0-4.4
						c0-0.6-0.1-1.5-1-1.5C260.3,229.2,257.3,229.2,256,229.2z"/>
					<path class="st18" d="M254.6,230.6c1.1,0.5,2.6,0.6,3.7,0.6c1.1,0,2.9-0.1,3.7-0.4"/>
				</g>
				<path class="st11" d="M251.8,250.5L251.8,250.5c-0.6,0-1.1-0.5-1.1-1.1v-14c0-0.6,0.5-1.1,1.1-1.1l0,0c0.6,0,1.1,0.5,1.1,1.1v14
					C252.9,250,252.4,250.5,251.8,250.5z"/>
				<path class="st11" d="M264.8,250.5L264.8,250.5c-0.6,0-1.1-0.5-1.1-1.1v-14c0-0.6,0.5-1.1,1.1-1.1l0,0c0.6,0,1.1,0.5,1.1,1.1v14
					C265.9,250,265.4,250.5,264.8,250.5z"/>
			</g>
			<g>
				<path class="st11" d="M342.7,105h-79.4c-1.5,0-2.8,1.3-2.8,2.8v93c0,1.5,1.3,2.8,2.8,2.8c0,0,9.3,0,13.2,0c2,0,3.7,1.3,3.7,3.8
					c0,1.6,0,28.4,0,28.4c0,1.5,1.3,2.8,2.8,2.8h40.6c1.5,0,2.8-1.3,2.8-2.8c0,0,0-26.1,0-28.9c0-2,1.3-3.3,3.7-3.3
					c1.8,0,12.6,0,12.6,0c1.5,0,2.8-1.3,2.8-2.8v-93C345.5,106.3,344.2,105,342.7,105z"/>
				<path class="st9" d="M339.4,108.7h-72.8c-2.7,0-2.6,0-2.6,2.6v86.1c0,2.6,0,2.6,2.6,2.6c0,0,6.9,0,10.5,0c4,0,6.3,2.5,6.3,6.6
					c0,1.5,0,25.9,0,25.9c0,2.6,0,2.6,2.6,2.6h34.4c2.6,0,2.6,0,2.6-2.6c0,0,0-23.2,0-25.8c0-4.2,2.9-6.7,6.6-6.7c1.7,0,9.9,0,9.9,0
					c2.6,0,2.6,0,2.6-2.6v-86.1C341.9,108.7,341.9,108.7,339.4,108.7z"/>
				<line class="st18" x1="280.1" y1="227.1" x2="326.3" y2="227.1"/>
				<line class="st10" x1="260.5" y1="126.5" x2="345.5" y2="126.5"/>
				<g>
					<path class="st17" d="M345.5,141.4c0.6,0,0.9,0.5,0.9,1.1h-0.9V141.4z"/>
					<path class="st17" d="M345.5,148.7c0.6,0,0.9,0.5,0.9,1.1h-0.9V148.7z"/>
					<path class="st17" d="M345.5,155.9c0.6,0,0.9,0.5,0.9,1.1h-0.9V155.9z"/>
					<path class="st17" d="M345.5,163.1c0.6,0,0.9,0.5,0.9,1.1h-0.9V163.1z"/>
					<path class="st17" d="M345.5,170.4c0.6,0,0.9,0.5,0.9,1.1h-0.9V170.4z"/>
					<path class="st17" d="M345.5,177.6c0.6,0,0.9,0.5,0.9,1.1h-0.9V177.6z"/>
					<path class="st17" d="M345.5,184.9c0.6,0,0.9,0.5,0.9,1.1h-0.9V184.9z"/>
				</g>
				<g>
					<path class="st17" d="M260.5,141.7c-0.6,0-0.9,0.5-0.9,1.1h0.9V141.7z"/>
					<path class="st17" d="M260.5,149c-0.6,0-0.9,0.5-0.9,1.1h0.9V149z"/>
					<path class="st17" d="M260.5,156.2c-0.6,0-0.9,0.5-0.9,1.1h0.9V156.2z"/>
					<path class="st17" d="M260.5,163.4c-0.6,0-0.9,0.5-0.9,1.1h0.9V163.4z"/>
					<path class="st17" d="M260.5,170.7c-0.6,0-0.9,0.5-0.9,1.1h0.9V170.7z"/>
					<path class="st17" d="M260.5,177.9c-0.6,0-0.9,0.5-0.9,1.1h0.9V177.9z"/>
					<path class="st17" d="M260.5,185.2c-0.6,0-0.9,0.5-0.9,1.1h0.9V185.2z"/>
				</g>
				<path class="st17" d="M321.6,120.8L321.6,120.8c0,1-0.8,1.8-1.8,1.8h-4.2c-1,0-1.8-0.8-1.8-1.8v0c0-1,0.8-1.8,1.8-1.8h4.2
					C320.8,119,321.6,119.8,321.6,120.8z"/>
			</g>
			<rect x="295.4" y="95.5" class="st11" width="15.1" height="145"/>
			<line class="st18" x1="295.4" y1="205.5" x2="310.5" y2="205.5"/>
			<line class="st18" x1="295.4" y1="226.9" x2="310.5" y2="226.9"/>
			<g>
				<polygon class="st11" points="310.5,224.4 313.1,224.6 313.2,225.7 313.2,235.2 313.2,240.5 310.5,240.5 				"/>
				<line class="st18" x1="313.2" y1="225.7" x2="310.5" y2="225.9"/>
				<line class="st18" x1="313.2" y1="235.2" x2="310.5" y2="235.3"/>
			</g>
			<g>
				<polygon class="st11" points="295.4,224.4 292.9,224.6 292.7,225.7 292.7,235.2 292.7,240.5 295.4,240.5 				"/>
				<line class="st18" x1="292.7" y1="225.7" x2="295.4" y2="225.9"/>
				<line class="st18" x1="292.7" y1="235.2" x2="295.4" y2="235.3"/>
			</g>
			<circle class="st18" cx="300" cy="235" r="0.5"/>
			<circle class="st18" cx="306.8" cy="235" r="0.5"/>
			<g>
				<path class="st11" d="M311.8,111.6c0,0,39.3,0,40.7,0s2.4,0.5,2.4,1.5s-1.1,2.2-2.7,2.2c-0.9,0-6.4,0-6.4,0v-0.6h-34V111.6z"/>
				<line class="st15" x1="345.8" y1="114.8" x2="353.8" y2="114.8"/>
				<path class="st10" d="M311.8,112.5c0,0,39.9,0,40.8,0s1.5,0,2.2,0.2"/>
				<path class="st10" d="M311.8,114.1c0,0,39.9,0,40.8,0s1.5,0,2.2-0.2"/>
				<path class="st10" d="M352.5,111.6c0.4,0.3,0.4,0.6,0.5,0.8c0.1,0.3,0.1,1.3,0,1.6s-0.2,0.5-0.5,0.8"/>
				<rect x="310.7" y="102" class="st11" width="1.1" height="21.7"/>
			</g>
			<g>
				<path class="st11" d="M294.6,111.6c0,0-39.3,0-40.7,0c-1.4,0-2.4,0.5-2.4,1.5s1.1,2.2,2.7,2.2c0.9,0,6.4,0,6.4,0v-0.6h34V111.6z
					"/>
				<line class="st15" x1="260.6" y1="114.8" x2="252.6" y2="114.8"/>
				<path class="st10" d="M294.6,112.5c0,0-39.9,0-40.8,0s-1.5,0-2.2,0.2"/>
				<path class="st10" d="M294.6,114.1c0,0-39.9,0-40.8,0s-1.5,0-2.2-0.2"/>
				<path class="st10" d="M253.9,111.6c-0.4,0.3-0.4,0.6-0.5,0.8c-0.1,0.3-0.1,1.3,0,1.6s0.2,0.5,0.5,0.8"/>
				
					<rect x="294.6" y="102" transform="matrix(-1 -4.538382e-11 4.538382e-11 -1 590.2581 225.7261)" class="st11" width="1.1" height="21.7"/>
			</g>
			<path class="st11" d="M382.5,96.3H222.3c-0.7,0-1.3-0.6-1.3-1.3V1.8c0-0.7,0.6-1.3,1.3-1.3h160.2c0.7,0,1.3,0.6,1.3,1.3V95
				C383.8,95.7,383.2,96.3,382.5,96.3z"/>
			<rect x="223.1" y="2.8" class="st12" width="158.5" height="89.3"/>
			<circle class="st18" cx="379.5" cy="94.3" r="0.4"/>
		</g>
		<g>
			<rect x="331.7" y="119.2" class="st20" width="0.9" height="2.1"/>
			<rect x="333.3" y="119.2" class="st20" width="0.9" height="2.1"/>
			<g>
				<polygon class="st21" points="333.5,122.2 332.7,122.2 332.1,122.8 332.1,123.6 332.7,124.2 333.5,124.2 334.1,123.6 
					334.1,122.8 				"/>
				<circle class="st20" cx="333.1" cy="123.2" r="0.7"/>
			</g>
			<g>
				<g>
					<g>
						<g>
							<path class="st22" d="M334.5,125.6c0,0,0.1-0.1,0.1-0.2v-0.2c0-0.1,0-0.1-0.1-0.1h-2.7c-0.1,0-0.1,0-0.1,0.1v0.2
								c0,0.1,0,0.1,0.1,0.2l0.3,0.3c0,0,0.1,0.1,0.2,0.1h1.7c0.1,0,0.1,0,0.2-0.1L334.5,125.6z"/>
							<path class="st23" d="M334.5,125.6c0,0,0.1-0.1,0.1-0.2v-0.2c0-0.1,0-0.1-0.1-0.1h-2.7c-0.1,0-0.1,0-0.1,0.1v0.2
								c0,0.1,0,0.1,0.1,0.2l0.3,0.3c0,0,0.1,0.1,0.2,0.1h1.7c0.1,0,0.1,0,0.2-0.1L334.5,125.6z"/>
						</g>
					</g>
				</g>
				<rect x="332" y="125.3" class="st24" width="2.1" height="0.2"/>
				<rect x="332.2" y="125.3" class="st25" width="0.1" height="0"/>
				<rect x="332.4" y="125.3" class="st25" width="0.1" height="0"/>
				<rect x="332.6" y="125.3" class="st25" width="0.1" height="0"/>
				<rect x="332.7" y="125.3" class="st25" width="0.1" height="0"/>
				<rect x="332.9" y="125.3" class="st25" width="0.1" height="0"/>
				<rect x="333.1" y="125.3" class="st25" width="0.1" height="0"/>
				<rect x="333.3" y="125.3" class="st25" width="0.1" height="0"/>
				<rect x="333.5" y="125.3" class="st25" width="0.1" height="0"/>
				<rect x="333.7" y="125.3" class="st25" width="0.1" height="0"/>
				<rect x="333.9" y="125.3" class="st25" width="0.1" height="0"/>
				<rect x="333.8" y="125.5" class="st26" width="0.1" height="0"/>
				<rect x="333.6" y="125.5" class="st26" width="0.1" height="0"/>
				<rect x="333.4" y="125.5" class="st26" width="0.1" height="0"/>
				<rect x="333.2" y="125.5" class="st26" width="0.1" height="0"/>
				<rect x="333" y="125.5" class="st26" width="0.1" height="0"/>
				<rect x="332.8" y="125.5" class="st26" width="0.1" height="0"/>
				<rect x="332.6" y="125.5" class="st26" width="0.1" height="0"/>
				<rect x="332.5" y="125.5" class="st26" width="0.1" height="0"/>
				<rect x="332.3" y="125.5" class="st26" width="0.1" height="0"/>
			</g>
		</g>
	</g>
</g>
<g id="Layer_2">
	<g>
		<path class="st27" d="M65,149.6c1,0.6,1.6,1.7,1.6,2.9c0,1.2-0.6,2.3-1.6,2.9"/>
		<path class="st28" d="M68.8,159.4c2-1.7,3.3-4.2,3.3-7c0-2.8-1.3-5.3-3.3-7"/>
		<path class="st29" d="M72.6,163.5c3-2.7,4.9-6.6,4.9-11c0-4.4-1.9-8.3-4.9-11"/>
		<path class="st30" d="M76.3,167.5c4-3.8,6.5-9.1,6.5-15s-2.5-11.3-6.5-15"/>
	</g>
	<line class="st31" x1="93.4" y1="152.1" x2="219.7" y2="152.1"/>
	<g>
		<path class="st27" d="M246.2,155.4c-1-0.6-1.6-1.7-1.6-2.9c0-1.2,0.6-2.3,1.6-2.9"/>
		<path class="st28" d="M242.4,145.5c-2,1.7-3.3,4.2-3.3,7c0,2.8,1.3,5.3,3.3,7"/>
		<path class="st29" d="M238.6,141.5c-3,2.7-4.9,6.6-4.9,11c0,4.4,1.9,8.3,4.9,11"/>
		<path class="st30" d="M234.9,137.5c-4,3.8-6.5,9.1-6.5,15s2.5,11.3,6.5,15"/>
	</g>
	<polygon class="st32" points="164,152.5 149.1,145.3 149.1,159.7 	"/>
</g>
</svg>
